<svg height="120" viewBox="0 0 120 120" width="120" aria-label="World Wide Web Consortium Chapter" xmlns="http://www.w3.org/2000/svg" xmlns:xlink="http://www.w3.org/1999/xlink"><g transform="matrix(1.241 0 0 1.241 -2.502 -.9215)"><path d="m33.89 67.19s-.1 0-.16.1c-.1.1-.2.2-.3.28-.11.1-.22.14-.34.19-.11.1-.24.1-.38.11-.14 0-.29 0-.47 0-.28 0-.55-.1-.79-.18-.25-.13-.47-.3-.65-.53s-.32-.52-.43-.85c-.1-.34-.15-.72-.15-1.15 0-.42.1-.8.14-1.13.1-.34.24-.62.42-.86.19-.23.4-.41.65-.53s.53-.18.83-.18c.25 0 .47 0 .64.1s.31.14.43.21c.11.1.21.14.28.21.1.1.14.1.2.1h.12s0 0 .1-.1l.31-.44c-.25-.27-.55-.48-.89-.64-.33-.16-.72-.24-1.17-.24s-.86.1-1.23.26c-.37.17-.69.41-.95.73-.27.31-.47.68-.62 1.11s-.22.91-.22 1.43.1 1 .21 1.43c.13.43.33.81.59 1.12.26.3.57.55.93.72s.77.25 1.21.25c.51 0 .95-.1 1.31-.27.36-.18.67-.44.92-.77l-.38-.4c0-.1-.1-.1-.14-.1z"/><path d="m40.8 61.73h-.96v3.07h-3.31v-3.07h-.96v6.9h.96v-3.13h3.31v3.13h.96z"/><path d="m44.38 61.73-2.59 6.9h.74c.1 0 .15 0 .21-.1 0 0 .1-.1.11-.16l.59-1.65h2.84l.59 1.66c0 .1.1.12.12.16 0 0 .12.1.2.1h.74l-2.58-6.9h-.97zm-.7 4.34.97-2.77c0-.1.1-.18.1-.3 0-.11.1-.23.11-.36 0 .13.1.25.1.36s.1.21.1.29l.98 2.78z"/><path d="m52.8 62.32c-.21-.19-.46-.33-.77-.43-.31-.11-.68-.16-1.1-.16h-1.98v6.9h.96v-2.57h1.02c.41 0 .76 0 1.07-.16.3-.11.56-.26.77-.45.2-.2.36-.43.47-.69.11-.27.16-.56.16-.89 0-.32 0-.62-.15-.88-.1-.26-.25-.49-.45-.67zm-.45 2.13c-.1.18-.16.33-.29.45-.13.13-.29.23-.48.3-.19.1-.4.1-.65.1h-1.02v-2.82h1.02c.51 0 .89.13 1.14.37s.37.58.37 1.02c0 .21 0 .41-.1.58z"/><path d="m56.04 68.63h.97v-6.1h2.01v-.8h-4.99v.8h2.01z"/><path d="m64.15 67.85h-3.07v-2.33h2.47v-.75h-2.47v-2.26h3.07v-.78h-4.03v6.9h4.03z"/><path d="m68.49 65.73s-.1-.1-.16-.13c.25-.1.47-.15.66-.27.2-.12.36-.27.5-.44.13-.16.24-.35.31-.56.1-.21.11-.44.11-.68 0-.29 0-.56-.14-.8-.1-.23-.25-.43-.44-.6-.2-.17-.45-.29-.76-.38-.3-.1-.67-.14-1.09-.14h-1.89v6.9h.96v-2.87h.64.27c.1 0 .12.1.17.17l1.64 2.46c.1.13.22.19.38.19h.85l-1.85-2.68c-.1-.1-.1-.12-.16-.17zm-1.04-.66h-.9v-2.59h.93c1 0 1.5.42 1.5 1.24 0 .2 0 .38-.1.55-.1.16-.16.3-.29.42s-.29.21-.48.28c-.19.1-.41.1-.66.1z"/></g><g transform="matrix(.3333 0 0 .3333 -.0841 .006)"><g transform="matrix(.689 0 0 .689 55.19 29.93)"><path d="m267.1 217.5c-4.6-3.6-11.3-2.8-14.9 1.7-4.5 5.7-8.6 9.1-13.3 11.1-8.6 3.7-15.8 2.1-22.9-4.8-6.9-6.9-13.6-14.3-20.2-21.6-3.1-3.5-6.3-7.1-9.6-10.6-5.5-5.9-11.1-11.9-16.6-17.9l-.5-.5c-12.1-12.9-24.6-26.3-36.7-39.8-9.5-10.7-24.3-15.9-38.52-13.8-14.53 2.2-26.27 11.5-33.08 26.2-6.55 14.1-4.33 30.2 5.79 42 17.8 20.7 32.82 37.7 50.41 53.8 7.2 6.6 15.9 10.1 25.2 10.1 6 .1 15.1-.6 24.3-6.9 4-2.7 7.8-5.5 9.5-9.8 1.7-4.4.1-9.4-3.9-12.2-3.8-2.8-8.8-2.6-12.5.4-.5.4-1 .9-1.5 1.3-5.8 5.1-12.9 11.4-27.5.9-13.3-9.6-23.7-22.2-35.68-36.8-3.91-4.7-7.95-9.6-12.27-14.7-4.61-5.3-5.61-12.7-2.6-19.2 2.63-5.7 7.7-12.7 16.97-14.1 7.08-1.1 14.88 1.7 19.58 7 12.2 13.6 24.8 27.1 37 40.1 5.7 6.1 11.4 12.2 17.1 18.4 3.1 3.4 6.3 6.9 9.5 10.4 6.7 7.4 13.6 15.1 20.9 22.3 13.2 13.1 29.6 16.4 46.2 9.4 7.9-3.4 14.8-9 21.5-17.5 3.6-4.5 2.9-11.2-1.7-14.9z"/><path d="m283.7 158.6c6.9-3.3 12.2-9.4 12.8-16.8 1.3-12.9-9.3-25.3-25-27.2-9.5-1.2-18.4 1.6-24.7 6.9-3.4 2.8-4.3 8-1.4 11.6 3.2 3.8 6.9 4.5 12.9 1.2 2.2-1.2 5.4-2.3 9-2 6.7.4 8.6 6.5 8.5 9.3-.1.4 0 9.8-9.5 9.1l-3.6-.2c-4-.3-8 3.4-8.3 7.7-.3 4.5 3 8.5 7.2 8.8l4.4.3c12.1.8 10.8 11.1 10.5 12.7-.2 4.8-7.8 12.8-21.3 3.7-4.6-3.1-37.3-44.2-37.3-44.2-15.5-20.1-41.8-23.6-62.6-8.4-2.3 1.7-3.8 4.1-4.2 6.9s.2 5.6 1.9 7.9 4.1 3.8 6.9 4.2c2.9.5 5.6-.2 7.9-1.9 14.2-10.3 26.8-4.2 33.3 4.2 0 0 35.2 45.2 44.2 50 5.9 3.1 12 4.9 18.2 5.4 19.1 1.3 30.8-9.2 33.9-23.7 2.1-9.4-4.1-21.3-13.7-25.5z"/></g><use transform="matrix(-.9999 0 0 -.9999 359.9 360)" xlink:href="#a"/><g id="a" transform="matrix(.9999 0 0 .9999 .0435 0)"><path d="m24.9 209.1-13.94-1.9h-.6c-.22-.1-.451-.1-.69-.1.222-.1.43-.2.64-.3.2-.1.38-.1.54-.2l12.66-6.1-.58-3.6-20.941-2.7.497 3.1c.05.3.185.6.399.8.213.2.443.3.682.3l12.033 1.1c.31.1.64.1.99.1h1.12c-.37.2-.72.3-1.05.5-.34.1-.64.3-.91.4l-10.991 5.4c-.255.1-.444.3-.566.5-.122.3-.155.6-.1.9l.189 1.2c.05.3.183.5.396.7.214.3.441.4.685.4l12.087 1.7c.32 0 .67.1 1.04.1.36 0 .75 0 1.15.1-.76.2-1.44.5-2.01.8l-11.072 4.8c-.247.1-.433.3-.558.5-.124.3-.158.6-.102.9l.532 3.4 19.04-9.2z"/><path d="m4.681 186.8c.917.9 2.01 1.6 3.276 2 1.264.5 2.633.8 4.103.8 1.49 0 2.86-.3 4.13-.7 1.26-.5 2.36-1.2 3.29-2.1.92-.8 1.64-1.8 2.17-3.1.51-1.2.77-2.5.78-4 0-1.5-.26-2.8-.78-4-.51-1.2-1.24-2.3-2.16-3.1-.92-.9-2.02-1.5-3.28-2-1.27-.5-2.64-.7-4.13-.7-1.47 0-2.836.2-4.1.7-1.259.4-2.351 1.1-3.277 2-.926.8-1.652 1.9-2.179 3.1-.521 1.2-.784 2.5-.787 4 0 1.5.258 2.8.782 4 .521 1.2 1.242 2.3 2.162 3.1zm.94-9.5c.318-.7.779-1.3 1.383-1.8.599-.5 1.325-.9 2.181-1.1.855-.3 1.815-.4 2.895-.4 1.09 0 2.06.1 2.92.4.86.2 1.58.6 2.18 1.1.59.5 1.05 1.1 1.36 1.8.32.7.47 1.5.47 2.4s-.16 1.7-.47 2.4c-.32.7-.78 1.3-1.37 1.8s-1.32.9-2.18 1.2c-.86.2-1.84.4-2.92.4s-2.04-.2-2.898-.4c-.854-.3-1.58-.7-2.179-1.2s-1.059-1.1-1.381-1.8c-.318-.7-.476-1.5-.474-2.4 0-.9.164-1.7.483-2.4z"/><path d="m23.17 162.4-7.73-1.1.18-1.3c.1-.3.13-.6.26-.8.12-.1.32-.3.58-.4l6.74-2.8c.57-.3.91-.8.99-1.4l.47-3.6-7.9 3.5c-.31.2-.58.4-.8.6-.23.2-.43.4-.6.6-.15-.7-.38-1.3-.69-1.9-.31-.5-.69-1-1.13-1.4s-.95-.8-1.51-1c-.57-.3-1.18-.4-1.83-.5-.862-.1-1.666-.1-2.42.1-.748.2-1.425.5-2.018 1.1-.593.5-1.098 1.3-1.511 2.2s-.709 2-.884 3.4l-.798 6 20.071 2.7zm-10.55-1.4-6.473-.9.272-2c.164-1.3.552-2.2 1.161-2.7.607-.5 1.4-.7 2.379-.6.491 0 .941.2 1.341.4.39.2.73.5.99.8s.45.8.56 1.2c.11.5.12 1.1 0 1.7l-.27 2.1z"/><path d="m23.17 143.2-16.482-3.9-.94 3.9 19.682 4.7 2.59-10.7-3.2-.8z"/><path d="m31.4 127c.5-1.4.73-2.8.67-4.1 0-1.3-.36-2.5-.91-3.6-.54-1.1-1.32-2.1-2.33-3-1.01-.8-2.22-1.5-3.61-2s-2.74-.8-4.07-.8c-1.32.1-2.55.3-3.68.8-1.14.5-2.15 1.3-3.03 2.2-.88 1-1.57 2.2-2.07 3.6l-2.517 6.9 19.037 6.9zm-2.99-1.1-1.15 3.1-13.05-4.7 1.14-3.2c.31-.8.73-1.5 1.27-2.1.54-.5 1.18-.9 1.92-1.2.73-.3 1.54-.4 2.43-.3.89 0 1.84.2 2.86.6s1.89.8 2.61 1.4c.72.5 1.27 1.1 1.67 1.8.39.6.62 1.4.67 2.1.1.8-.1 1.6-.37 2.5z"/><path d="m43.87 100.1-9.26-10.59c-.12-.13-.26-.28-.41-.45-.14-.16-.3-.33-.47-.49.22.1.44.15.65.21.21.1.4.12.58.16l13.55 3.73 1.92-3.08-14-15.82-1.66 2.66c-.17.28-.25.56-.22.86 0 .3.12.54.28.72l8.34 8.74c.21.23.44.46.7.71.25.25.52.51.81.77-.37-.14-.73-.26-1.07-.37-.34-.12-.67-.2-.97-.28l-11.79-3.19c-.28-.1-.55 0-.8 0-.25.11-.47.31-.65.61l-.63 1c-.17.27-.24.56-.22.85 0 .29.12.54.28.73l8.03 9.19c.2.25.43.52.7.77.26.26.54.53.83.81-.76-.29-1.44-.53-2.05-.71l-11.51-3.6c-.26-.1-.53-.1-.79 0-.25.11-.48.31-.67.62l-1.77 2.85 20.36 5.69z"/><path d="m40.45 69.39 15.73 12.75 2.53-3.14-15.73-12.74z"/><path d="m67.09 69.72c1.03-1.05 1.79-2.18 2.28-3.4.5-1.21.73-2.43.69-3.67 0-1.24-.34-2.47-.9-3.68-.56-1.2-1.37-2.33-2.42-3.37-1.05-1.03-2.19-1.82-3.4-2.35-1.21-.54-2.44-.81-3.67-.83-1.24 0-2.47.24-3.67.75-1.21.52-2.32 1.3-3.35 2.35l-5.18 5.27 14.44 14.2zm-12.18-11.98c.62-.63 1.3-1.1 2.03-1.38.72-.28 1.47-.39 2.25-.32.77.1 1.55.31 2.35.72.79.41 1.58.99 2.34 1.75.78.76 1.38 1.54 1.81 2.33.42.79.68 1.57.76 2.34.1.77 0 1.53-.29 2.26-.27.73-.72 1.41-1.35 2.05l-2.35 2.39-9.9-9.74z"/><path d="m77.91 55.44-3.42-4.27 5.06-4.05-1.92-2.39-5.05 4.05-3.35-4.17 6.49-5.22-1.99-2.48-9.64 7.73 12.67 15.8 9.64-7.73-1.98-2.5z"/><path d="m103.5 41.84-2.6-13.84c0-.18 0-.37-.1-.59 0-.22-.1-.45-.1-.68.1.19.3.36.4.52.1.17.3.31.4.44l9.8 10.13 3.2-1.67-4-20.77-2.8 1.45c-.2.15-.5.36-.6.62-.1.28-.2.53-.1.77l2.7 11.78c.1.3.1.62.2.96.1.35.2.7.3 1.08-.2-.31-.5-.6-.7-.87s-.5-.51-.7-.73l-8.5-8.77c-.2-.2-.44-.32-.71-.36-.27 0-.56 0-.87.19l-1.05.54c-.28.15-.49.35-.62.62-.12.26-.17.52-.13.76l2.22 12.01c0 .33.11.66.2 1.03.1.35.2.73.3 1.12-.5-.65-.97-1.2-1.4-1.67l-8.03-9.02c-.19-.2-.43-.31-.71-.35-.27 0-.57 0-.88.18l-2.98 1.55 14.66 15.23z"/><path d="m125.5 28.44-1.8-5.16 6.2-2.12-1-2.9-6.2 2.13-1.7-5.07 7.9-2.72-1.1-3.013-11.7 4.043 6.7 19.14 11.6-4.04-1-3.02z"/><path d="m145.6 25.93c1.2-.25 2.1-.63 2.9-1.12s1.5-1.06 1.9-1.71c.5-.66.8-1.38 1-2.16.1-.79.1-1.6-.1-2.45-.5-2.29-2.1-3.45-4.8-3.49.5-.33 1-.7 1.3-1.1.4-.4.6-.82.8-1.24.2-.43.3-.87.3-1.33.1-.45 0-.91-.1-1.369-.2-.801-.5-1.498-.9-2.086-.4-.591-.9-1.048-1.6-1.376-.7-.324-1.5-.51-2.4-.554-1-.04-2.1.08-3.4.371l-6.7 1.529 4.5 19.755zm.7-8.42c.3.17.5.41.7.71s.3.65.4 1.06c.1.38.1.75.1 1.13 0 .37-.1.72-.3 1.04-.2.33-.4.62-.8.87s-.9.45-1.5.59l-3.4.76-1.2-5.55 3.3-.75c.6-.14 1.1-.19 1.6-.16.4 0 .8.13 1.1.3zm-5.1-8.189c1.1-.25 2-.233 2.6.06.6.292 1 .949 1.2 1.959.3.97.1 1.74-.4 2.3-.5.55-1.3.96-2.4 1.21l-2.5.58-1.3-5.474 2.8-.638z"/><path d="m166 19.94c.8.88 1.8 1.54 2.9 1.99 1.1.46 2.4.64 3.8.57 1.5-.1 2.8-.42 3.8-1.03 1.1-.59 2-1.43 2.6-2.5l-1.6-1.63c-.2-.15-.4-.22-.6-.21-.1 0-.2 0-.3.1s-.2.14-.3.22c-.3.29-.5.54-.8.73-.2.2-.5.37-.7.5-.3.13-.6.23-1 .29-.3.1-.7.11-1.1.13-.7 0-1.4-.1-2-.35-.6-.28-1.2-.7-1.6-1.27-.5-.57-.9-1.28-1.2-2.13-.4-.84-.5-1.82-.6-2.93-.1-1.09 0-2.08.2-2.95.2-.873.5-1.62.9-2.236.4-.618.9-1.098 1.5-1.442.6-.347 1.2-.535 2-.577.7-.04 1.2.01 1.7.15.4.139.8.297 1.1.474.3.175.5.341.7.491s.5.222.7.208c.2 0 .3-.06.5-.161.1-.1.2-.205.3-.321l1.2-1.948c-.8-.754-1.7-1.345-2.7-1.77-1.1-.421-2.3-.596-3.7-.521-1.3.07-2.5.394-3.6.965-1.1.569-2 1.335-2.8 2.292-.7.959-1.3 2.083-1.7 3.373-.3 1.29-.5 2.683-.4 4.203.1 1.5.4 2.87.9 4.12.4 1.24 1.1 2.3 1.9 3.17z"/><path d="m199.3 5.512c-.7-.982-1.7-1.776-2.9-2.386-1.2-.607-2.5-.96-4-1.065-1.4-.103-2.8.06-4 .505-1.3.438-2.4 1.084-3.3 1.942-.9.86-1.6 1.903-2.2 3.131-.6 1.232-.9 2.581-1 4.051-.1 1.48 0 2.87.4 4.17.4 1.29 1 2.44 1.8 3.42s1.8 1.77 2.9 2.38c1.2.6 2.5.95 4 1.06 1.5.1 2.8-.1 4.1-.5 1.2-.43 2.3-1.08 3.2-1.94s1.7-1.91 2.2-3.14c.6-1.23.9-2.59 1-4.07.1-1.47 0-2.85-.4-4.146-.4-1.29-1-2.427-1.8-3.412zm-1.9 7.268c0 1.09-.2 2.05-.6 2.89-.3.84-.7 1.54-1.2 2.09-.6.56-1.2.98-1.9 1.24-.8.27-1.6.37-2.5.31-.9-.1-1.6-.28-2.3-.64-.7-.37-1.3-.87-1.7-1.49-.5-.63-.8-1.38-1-2.26s-.3-1.86-.2-2.94.3-2.03.6-2.865c.3-.832.7-1.531 1.3-2.097.5-.563 1.1-.982 1.9-1.251.7-.269 1.5-.372 2.4-.311.9.06 1.7.278 2.4.649.7.369 1.2.869 1.7 1.504.4.632.7 1.384.9 2.252.3.869.3 1.849.2 2.919z"/><path d="m218 26.52c.2.15.4.26.8.33l2 .42 4.2-19.819-3.5-.732-2.4 11.611c-.2.59-.3 1.22-.3 1.89l-7.1-14.936c-.1-.155-.1-.28-.2-.377-.1-.1-.1-.177-.2-.244-.1-.06-.2-.117-.3-.158-.1-.04-.3-.08-.5-.111l-2-.438-4.2 19.824 3.4.73 2.5-11.75c.1-.52.2-1.1.3-1.73l7 14.85c.2.28.3.5.5.64z"/><path d="m227.1 28.76c.5.4 1 .76 1.5 1.07.5.32 1.1.58 1.6.77 1.1.35 2 .5 2.9.44.9-.1 1.8-.28 2.5-.65.7-.38 1.4-.9 1.9-1.56.6-.67 1-1.43 1.3-2.3.3-.8.4-1.52.3-2.16 0-.63-.2-1.22-.4-1.73-.3-.52-.6-.99-1-1.42-.4-.42-.9-.81-1.3-1.18-.5-.36-.9-.71-1.4-1.04-.4-.33-.8-.67-1.1-1.01s-.6-.69-.7-1.05c-.1-.37-.1-.77 0-1.2.2-.69.7-1.17 1.2-1.44.6-.27 1.3-.26 2.2 0 .5.17.9.38 1.2.64.4.27.6.53.9.78.2.26.4.49.6.69.1.21.3.35.5.41.2.1.4.1.5 0 .2 0 .3-.14.5-.29l1.6-1.47c-.5-.87-1.1-1.64-1.9-2.32-.8-.67-1.8-1.2-2.9-1.57-1-.33-1.9-.47-2.7-.41-.9.1-1.7.25-2.4.59-.7.35-1.3.81-1.8 1.38-.5.58-.8 1.22-1.1 1.93-.3.88-.4 1.66-.4 2.34.1.68.2 1.28.4 1.82.3.53.6 1.01 1 1.42.4.42.9.8 1.3 1.15.5.35.9.68 1.4 1 .4.32.8.64 1.1.98s.6.7.7 1.09.1.83-.1 1.32c-.3.87-.7 1.44-1.3 1.72-.7.28-1.4.27-2.3 0-.6-.21-1.1-.47-1.4-.79-.4-.33-.7-.66-1-.99-.2-.33-.5-.62-.6-.88-.2-.27-.4-.43-.7-.51-.1-.1-.3-.1-.5 0-.2 0-.3.12-.5.23l-1.7 1.42c.2.5.5 1 .9 1.46.3.47.8.91 1.2 1.31z"/><path d="m244.8 35.43c.9 1 2 1.81 3.3 2.45 1.3.63 2.7.98 4 1.04 1.3 0 2.5-.15 3.7-.61s2.2-1.16 3.2-2.1 1.8-2.08 2.4-3.42c.7-1.33 1.1-2.66 1.2-4s0-2.61-.4-3.82-1-2.31-1.9-3.31c-.8-.99-1.9-1.81-3.2-2.45-1.4-.64-2.7-.98-4-1.03-1.3-.1-2.6.15-3.8.61-1.1.45-2.2 1.14-3.2 2.08s-1.8 2.07-2.4 3.4c-.6 1.34-1 2.68-1.1 4.03-.2 1.35 0 2.62.3 3.83.4 1.21 1 2.31 1.9 3.3zm1.7-6.57c.1-.9.4-1.83.9-2.81.5-.97 1-1.79 1.6-2.44.6-.66 1.3-1.15 2-1.48s1.4-.48 2.2-.46c.8 0 1.6.23 2.4.61.8.39 1.4.88 1.9 1.48.5.59.9 1.26 1.1 2.02.1.75.2 1.57 0 2.46-.1.88-.4 1.81-.9 2.78-.4.98-1 1.8-1.6 2.46-.6.67-1.2 1.16-1.9 1.48s-1.5.47-2.3.45c-.7 0-1.5-.22-2.3-.61s-1.5-.88-2-1.47c-.5-.6-.8-1.27-1-2.02s-.2-1.56-.1-2.45z"/><path d="m263.5 46.08 4.3-6.53 1.1.74c.3.19.5.37.6.57.1.18.1.42.1.71l-.3 7.3c0 .64.2 1.14.8 1.49l3 1.97.2-8.66c0-.34 0-.66-.1-.95s-.2-.56-.3-.82c.7.17 1.3.23 2 .18.6 0 1.2-.17 1.7-.39.6-.22 1.1-.54 1.6-.94.5-.39.9-.87 1.3-1.43.4-.72.7-1.46.9-2.22s.1-1.53-.1-2.3-.7-1.54-1.3-2.31c-.7-.77-1.6-1.52-2.7-2.26l-5.1-3.33-11.1 16.99zm9.4-14.4 1.7 1.13c1.1.69 1.7 1.42 1.9 2.2.2.79.1 1.59-.5 2.41-.2.43-.5.77-.9 1.04-.3.28-.7.46-1.2.55-.4.1-.8.1-1.3 0-.5-.11-1-.34-1.6-.7l-1.7-1.11 3.6-5.48z"/><path d="m292.2 46.01 4.3 3.46 2-2.53-11.5-9.44-2.1 2.53 4.3 3.45-10.8 13.16 3.1 2.53z"/><path d="m286.7 57.39h20.3v4.03h-20.3z" transform="matrix(.69541128 -.71861196 .71861196 .69541128 47.716381 231.3766)"/><path d="m298.9 68.87c-.5.97-.8 1.97-.9 3.01s0 2.1.4 3.17 1 2.11 1.8 3.11c.9 1.01 1.8 1.77 2.8 2.3s2 .83 3 .91c1.1.1 2.1-.1 3.2-.44 1-.36 2-.94 2.9-1.73l9.2-7.81-2.6-3.05-9.2 7.81c-.5.49-1.1.85-1.7 1.09s-1.2.35-1.8.34c-.6 0-1.1-.16-1.6-.43-.6-.27-1.1-.68-1.5-1.22-.5-.55-.8-1.11-1-1.68s-.2-1.14-.2-1.71c.1-.57.3-1.13.7-1.68.3-.55.8-1.07 1.3-1.55l9.2-7.81-2.5-3.07-9.3 7.82c-.9.79-1.6 1.66-2.2 2.62z"/><path d="m310.7 91.23 10.8-6.57c.3-.15.5-.31.8-.51.3-.18.5-.38.8-.6l-6.4 11.43c-.3.58-.3 1.13 0 1.66l.3.49c.3.52.8.76 1.5.72l13-.4c-.3.15-.6.3-.9.45-.3.16-.6.3-.8.45l-10.8 6.55 1.8 3 17.3-10.47-1.6-2.58c0-.15-.1-.28-.2-.39s-.2-.19-.2-.26c-.1-.1-.2-.12-.3-.15-.2 0-.3 0-.5 0l-12.6.35c-.3 0-.7 0-1.1.1-.3 0-.7.11-1.1.18.5-.58.9-1.18 1.3-1.81l6.1-11.07c.1-.15.1-.28.2-.4 0-.11 0-.23 0-.34-.1-.11-.1-.22-.1-.34-.1-.11-.2-.24-.3-.39l-1.5-2.6-17.4 10.5z"/><path d="m26.43 237.8c0-2.5-2.08-4.5-4.55-4.5-2.44 0-4.49 2-4.49 4.5 0 2.4 2.05 4.5 4.49 4.5 2.47 0 4.55-2.1 4.55-4.5z"/></g></g></svg>
