<?xml version="1.0" encoding="UTF-8"?>
<svg id="Layer_1" xmlns="http://www.w3.org/2000/svg" width="175" height="100" version="1.1" viewBox="0 0 175 100">
  <!-- Generator: Adobe Illustrator 29.1.0, SVG Export Plug-In . SVG Version: 2.1.0 Build 142)  -->
  <defs>
    <style>
      .st0 {
        fill: #fff;
      }
    </style>
  </defs>
  <g>
    <g>
      <path class="st0" d="M69.94572,67.30359c-.46973.47949-1.33984.7793-2.20898.7793-2.09863,0-3.54785-1.41895-3.54785-3.59766,0-2.00879,1.29883-3.59766,3.48828-3.59766.89941,0,1.62891.24902,2.12793.67969l-.38965.63965c-.45898-.33984-.99902-.52051-1.72853-.52051-1.51952,0-2.59862,1.13965-2.59862,2.79883,0,1.66895,1.10938,2.79883,2.72852,2.79883.66992,0,1.30859-.23047,1.78906-.62012l.33984.63965Z"/>
      <path class="st0" d="M75.88615,64.8153h-3.84766v3.16797h-.84961v-6.99609h.84961v3.02832h3.84766v-3.02832h.84961v6.99609h-.84961v-3.16797Z"/>
      <path class="st0" d="M80.83732,60.94714h.72949l3.00879,7.03613h-.91016l-.89941-2.11914h-3.1875l-.88965,2.11914h-.85938l3.00781-7.03613ZM79.91838,65.0653h2.51854l-1.25975-2.98926-1.25879,2.98926Z"/>
      <path class="st0" d="M85.66838,67.98327v-6.99609c.38965,0,1.38867-.02051,1.82812-.02051,1.99902,0,2.58887,1.08008,2.58887,2.16895,0,1.13965-.80957,2.19922-2.51855,2.19922-.2793,0-.69922-.00977-1.04883-.04004v2.68848h-.84961ZM86.51799,61.78698v2.69824c.33984.03027.66893.0498,1.01855.0498,1.03027,0,1.64941-.5293,1.64941-1.40918,0-.8291-.5-1.35938-1.60938-1.35938-.2793,0-.72949.00977-1.05859.02051Z"/>
      <path class="st0" d="M90.39787,60.98718h5.74707v.7998h-2.44824v6.19629h-.84961v-6.19629h-2.44922v-.7998Z"/>
      <path class="st0" d="M97.18791,60.98718h3.94727v.7998h-3.09766v2.25879h2.79785v.79883h-2.79785v2.33887h3.19824v.7998h-4.04785v-6.99609Z"/>
      <path class="st0" d="M102.82853,67.98327v-6.99609c.38965,0,1.67871-.02051,1.87891-.02051,1.9082,0,2.48828.9502,2.48828,2.0791,0,1.08984-.75,1.7793-1.51953,1.97949l2.3291,2.95801h-1.03906l-2.14941-2.79883h-1.13867v2.79883h-.84961ZM103.67814,61.78698v2.59863h1.0293c.80957,0,1.58887-.5,1.58887-1.33008,0-.71875-.39941-1.28906-1.63965-1.28906-.21974,0-.64941.00977-.97852.02051Z"/>
    </g>
    <g>
      <path class="st0" d="M101.60485,48.76959c-.84343-.66949-2.07483-.52712-2.74433.31631-.82924,1.04551-1.58242,1.67482-2.44105,2.0411-1.58353.67384-2.92581.38905-4.2235-.89665-1.27163-1.25966-2.51062-2.63232-3.71268-3.96266-.58799-.65101-1.17703-1.30311-1.77371-1.94762-1.01946-1.10096-2.04433-2.1976-3.06817-3.29532l-.09024-.09675c-2.22693-2.38343-4.52887-4.84841-6.74929-7.32425-1.76068-1.96394-4.48106-2.93669-7.09821-2.54324-2.67476.39997-4.83759,2.11177-6.09071,4.8191-1.20747,2.60735-.79882,5.57009,1.0651,7.73182,3.27904,3.8029,6.04509,6.94713,9.28494,9.90447,1.32489,1.20855,2.92801,1.85196,4.63541,1.86065,1.10752.00546,2.7769-.11952,4.48-1.26617.74559-.50209,1.44008-1.01838,1.74549-1.80634.31085-.80641.02064-1.73348-.70753-2.25626-.70647-.50865-1.63354-.47281-2.30738.08693-.0848.07061-.1772.15216-.27823.24022-1.05859.92707-2.3759,2.08127-5.0615.15319-2.46059-1.76721-4.36581-4.08328-6.57322-6.7656-.7195-.87386-1.46399-1.77811-2.25955-2.70195-.84993-.98574-1.03362-2.34211-.47932-3.54092.48367-1.04336,1.41725-2.34107,3.12579-2.59645,1.2944-.19458,2.74536.32274,3.61159,1.28791,2.23892,2.49757,4.55824,4.98208,6.80147,7.38292,1.051,1.12491,2.10195,2.25086,3.14752,3.38013.58584.63256,1.16404,1.27266,1.75093,1.92261,1.2325,1.36402,2.50626,2.77366,3.85179,4.10723,2.4291,2.40732,5.44835,3.01706,8.50568,1.71611,1.46834-.62712,2.73018-1.6455,3.96916-3.20728.66838-.84229.52712-2.07264-.31625-2.74323Z"/>
      <path class="st0" d="M104.66092,37.92004c1.26292-.59887,2.25632-1.72595,2.35086-3.09321.2402-2.37363-1.71396-4.64515-4.58869-4.99624-1.76502-.22386-3.40291.29892-4.56364,1.26079-.62058.51624-.78798,1.4716-.25,2.14544.58797.70101,1.26617.82378,2.37588.21412.39776-.22607.99555-.41411,1.65309-.36849,1.24009.08591,1.59547,1.20317,1.5607,1.71071-.00546.07501.00219,1.80524-1.74438,1.68461l-.65864-.04562c-.73361-.05003-1.46726.6358-1.52157,1.42046-.05872.83475.55211,1.56399,1.31179,1.61727l.8097.05541c2.22809.15435,1.99548,2.04544,1.94876,2.34761-.04347.86947-1.43901,2.3443-3.92788.66728-.84449-.5684-6.8678-8.13396-6.8678-8.13396-2.85403-3.68983-7.70357-4.33978-11.53036-1.5444-.42059.30756-.69777.76077-.77818,1.27707-.07934.51513.04564,1.03141.35323,1.452.30756.42059.76079.69777,1.27597.77818.51839.08045,1.03248-.04564,1.45311-.35323,2.6106-1.90739,4.93753-.77059,6.13414.77712,0,0,6.46679,8.31764,8.13183,9.19906,1.08034.57171,2.2085.90209,3.35509.98146,3.51924.24343,5.66247-1.69551,6.24072-4.35175.37926-1.74113-.7467-3.91698-2.5237-4.70171Z"/>
    </g>
  </g>
  <g>
    <polygon class="st0" points="50.92489 67.80606 47.40267 68.27555 49.99144 65.83544 49.49913 64.79551 44.10691 65.7096 44.60302 66.75645 47.99317 66.14867 45.42376 68.48989 45.94165 69.58376 49.36707 69.05135 46.74304 71.27641 47.32558 72.50649 51.4172 68.84668 50.92489 67.80606"/>
    <path class="st0" d="M46.41668,64.18566c1.61452-.45981,2.29214-1.89732,1.85376-3.43855-.43976-1.54123-1.85307-2.38341-3.38738-1.94572-1.61383.45981-2.29179,1.89663-1.85272,3.43786.45946,1.61452,1.91772,2.36543,3.38635,1.94641ZM44.1159,61.93086c-.23267-.81867.19188-1.63526,1.11772-1.8994.85393-.24339,1.67675.06223,1.95091,1.02472.2306.81037-.24927,1.65186-1.11772,1.8994-.92653.26413-1.71201-.18531-1.95091-1.02472Z"/>
    <path class="st0" d="M47.14684,56.11029l-1.82368.25722-.06188-.43907,1.64598-1.52325-.20432-1.44373-1.84062,1.80813c-.18116-.26275-.65964-.80346-1.62697-.66655-.96111.13552-1.59654.74123-1.39672,2.16284.02074.14935.22403,1.47969.26482,1.7701l5.21141-.73431-.16802-1.19136ZM43.05211,56.68695c-.04218-.24408-.06292-.3395-.08816-.51927-.08055-.57252.17355-.76059.4643-.80138.43907-.06154.65341.27243.71772.72671l.06085.43146-1.15471.16249Z"/>
    <polygon class="st0" points="46.62791 49.09075 45.50051 49.12256 45.56067 51.26465 41.42722 51.38012 41.46041 52.58323 46.72126 52.43526 46.62791 49.09075"/>
    <path class="st0" d="M46.65177,48.36612c.04633-.5013.12446-1.18928.15004-1.46655.18462-1.99966-.93552-3.11565-2.40311-3.24979-1.39291-.1293-2.67762.6057-2.87053,2.70216-.03181.34434-.09507,1.27502-.12066,1.55229l-.00933.1051,5.24183.48401.01175-.12723ZM45.68236,46.75851c-.0159.17217-.02558.27727-.05532.43284l-2.99533-.27658c-.00899-.15143.00657-.31668.01867-.44391.08954-.97355.66448-1.63734,1.63077-1.54883.99602.09265,1.49663.80277,1.40121,1.83647Z"/>
    <polygon class="st0" points="48.01322 39.76594 45.0815 37.75937 48.63725 37.6764 48.96707 36.57493 44.34857 33.64736 44.01667 34.75643 46.94286 36.57286 43.46801 36.5936 43.12125 37.75384 46.02359 39.64909 42.58504 39.54745 42.19472 40.85082 47.68375 40.86741 48.01322 39.76594"/>
    <rect class="st0" x="47.01828" y="30.42252" width="1.20389" height="5.26453" transform="translate(-1.85004 63.27065) rotate(-66.18191)"/>
    <path class="st0" d="M50.83846,32.28037c.24961-.43838.60398-1.03233.74192-1.27433.99118-1.7459.42939-3.22351-.85255-3.9516-1.2159-.69006-2.68799-.5497-3.72757,1.28125-.17148.30078-.61193,1.1229-.74918,1.36422l-.05186.09196,4.57667,2.59914.06258-.11063ZM50.38971,30.78824l-2.61573-1.48591c.05393-.14105.13621-.28557.19914-.3962.48332-.84978,1.28055-1.21902,2.12377-.73915.86984.49369,1.03267,1.34762.52031,2.24996-.08505.15004-.13691.24131-.22748.37131Z"/>
    <polygon class="st0" points="55.45384 25.15297 54.54736 24.48158 53.36084 26.08227 52.59403 25.51391 53.60078 24.15453 52.69498 23.48244 51.68686 24.84251 50.94425 24.29143 52.08582 22.75021 51.17969 22.07881 49.32178 24.58668 53.5503 27.72099 55.45384 25.15297"/>
    <polygon class="st0" points="58.43189 21.92047 56.92212 18.70457 60.02982 20.43663 60.87234 19.65254 58.3745 14.78961 57.52645 15.57717 59.12748 18.62644 56.12247 16.88261 55.23535 17.70682 56.77588 20.8114 53.86352 18.98045 52.86715 19.90699 57.58971 22.70319 58.43189 21.92047"/>
    <polygon class="st0" points="65.07528 16.65098 64.43501 15.72099 62.79317 16.85219 62.25074 16.06602 63.64469 15.1056 63.0051 14.1763 61.6115 15.13672 61.08634 14.37544 62.66595 13.28642 62.02567 12.35781 59.45523 14.1279 62.44296 18.46464 65.07528 16.65098"/>
    <path class="st0" d="M67.25886,15.45409c1.00743-.5414,1.51703-1.40432.9936-2.37787-.32083-.59672-.82662-.7599-1.23215-.70458l-.00726-.01314c.22368-.41003.2344-.83457-.02524-1.31858-.34572-.64166-1.07001-.90994-2.17597-.3153-.50406.27105-1.13224.64304-1.38323.79447l2.47779,4.61055c.28557-.11962.90925-.43768,1.35246-.67554ZM67.16379,13.59203c.16768.31184.05843.60086-.35264.82144-.19879.10717-.29525.13345-.37891.15281l-.46638-.86776.41072-.22057c.34434-.18531.6306-.17701.78721.11409ZM65.46699,12.77129l-.45186-.8408c.11201-.07744.18427-.13345.31668-.20467.2586-.13967.58565-.13552.735.14244.1815.33812.02351.56837-.24823.71426l-.3516.18876Z"/>
    <path class="st0" d="M73.49153,12.79618c.67277-.23786,1.23284-.70735,1.41193-1.14641l-.73362-.69698c-.24477.36647-.59464.61746-.94866.74399-.89265.3153-1.72308-.09196-2.03492-.97079-.34641-.9777.09058-1.72308.8567-1.99412.46811-.16595.79447-.12169,1.12152-.05462l.20121-1.02887c-.40035-.18531-1.04062-.21296-1.69957.02074-1.70787.60501-2.18911,2.05981-1.68436,3.48418.54831,1.54469,1.97269,2.18842,3.50977,1.64287Z"/>
    <path class="st0" d="M77.87529,11.60068c1.56681-.33397,2.50233-1.68643,2.16975-3.24633-.34918-1.6408-1.73691-2.41452-3.30372-2.08055-1.6408.34918-2.48781,1.75143-2.17044,3.24564.34987,1.6408,1.73691,2.41452,3.30441,2.08125ZM76.97641,7.37665c.83181-.17701,1.61798.30216,1.8185,1.24391.18462.86845-.17632,1.66776-1.15471,1.87589-.8242.17563-1.63042-.36024-1.81781-1.24322-.20052-.94175.30009-1.69473,1.15402-1.87658Z"/>
    <polygon class="st0" points="84.52628 5.39635 84.71574 8.56593 82.03294 5.54501 81.07183 5.6024 81.38575 10.85876 82.51142 10.79238 82.32334 7.63801 85.00476 10.64303 85.96587 10.58633 85.65265 5.32928 84.52628 5.39635"/>
    <path class="st0" d="M88.64176,9.69713c-.36785-.02489-.81452-.22679-1.08972-.62921l-.7357.77373c.2178.57943,1.01642.93276,1.72169.97839,1.01366.06569,1.84201-.51305,1.90147-1.42852.11132-1.71132-2.09369-1.64356-2.03699-2.51409.01521-.23993.21988-.37753.55039-.3554.38997.0242.55454.17148.77234.4038l.70389-.85877c-.307-.37407-.83319-.63405-1.50804-.67831-1.05099-.06776-1.74244.59533-1.7943,1.4057-.10994,1.69611,2.08747,1.74106,2.0363,2.52861-.0159.24823-.20674.39412-.52135.37407Z"/>
    <path class="st0" d="M93.50399,11.4617c1.57303.30838,2.96353-.57044,3.26984-2.13587.32152-1.64633-.65065-2.90199-2.22437-3.20968-1.64633-.3229-2.97597.63682-3.26915,2.13518-.32221,1.64702.65134,2.90268,2.22368,3.21037ZM92.53528,8.49748c.18531-.9452.94105-1.44166,1.79775-1.27364.83457.16318,1.37044.91201,1.18583,1.85722-.1701.87053-.8159,1.46586-1.79775,1.27295-.82697-.1618-1.35869-.97079-1.18583-1.85653Z"/>
    <path class="st0" d="M98.76657,10.82903l.41971.14313.61124,2.16007,1.38012.47433-.77649-2.46223c.31737-.04287,1.01573-.22472,1.33379-1.14987.3153-.91824.06361-1.76042-1.29577-2.22783-.14244-.0484-1.42092-.47156-1.69888-.56698l-1.71132,4.98116,1.13881.39136.59879-1.74313ZM99.51263,8.65858c.23717.07329.33258.09818.50268.15627.54831.18807.60017.50061.50475.77857-.14451.41971-.54002.45843-.97355.30977l-.41279-.14175.37891-1.10285Z"/>
    <polygon class="st0" points="106.59509 11.63179 107.07703 10.61053 103.13096 8.74501 102.64764 9.76628 104.07755 10.44113 102.30745 14.1846 103.39647 14.69904 105.16588 10.95625 106.59509 11.63179"/>
    <rect class="st0" x="104.62812" y="13.19096" width="5.26463" height="1.20285" transform="translate(41.18161 99.39973) rotate(-59.6634)"/>
    <path class="st0" d="M109.31177,18.39342c.91132.66655,2.12273.74261,3.07278-.55661l1.8261-2.49335-.97148-.7108-1.68297,2.29974c-.49784.67969-.98876.98185-1.57787.55108-.679-.49784-.51167-1.1478-.02697-1.80951l1.64425-2.24512-.97148-.7108-1.7943,2.45117c-.91063,1.2446-.60985,2.42489.48194,3.2242Z"/>
    <polygon class="st0" points="112.79112 21.11563 115.1524 18.76403 114.74306 21.2318 114.86545 21.35487 117.35603 20.94415 114.97815 23.31235 115.82794 24.16559 119.55966 20.44908 118.75759 19.64424 116.10175 20.12203 116.52768 17.40535 115.67306 16.54657 111.94203 20.26377 112.79112 21.11563"/>
    <polygon class="st0" points="121.14929 32.25825 124.6715 31.79636 122.07859 34.23094 122.56882 35.27225 127.96139 34.36922 127.46839 33.321 124.07686 33.92117 126.65111 31.58686 126.13529 30.49092 122.70919 31.01711 125.33736 28.79757 124.75724 27.56611 120.65906 31.21762 121.14929 32.25825"/>
    <path class="st0" d="M125.64713,35.88625c-1.61314.45774-2.29283,1.89248-1.85514,3.43302.43699,1.54123,1.84754,2.38341,3.38116,1.94849,1.61383-.45774,2.29283-1.89317,1.85583-3.43371-.45704-1.61314-1.91322-2.36405-3.38185-1.9478ZM127.94411,38.14174c.23163.81729-.19291,1.63388-1.11945,1.89663-.85324.24201-1.67468-.0643-1.9478-1.02679-.22956-.81037.25099-1.64978,1.11876-1.89594.92584-.26275,1.70994.18669,1.94849,1.0261Z"/>
    <path class="st0" d="M124.90867,43.97753l1.82541-.25307.06085.43976-1.64978,1.51979.20121,1.44512,1.84546-1.80467c.18047.26275.65825.80415,1.62697.67001.96111-.13414,1.59862-.73915,1.40086-2.16214-.02005-.14866-.22126-1.48038-.26067-1.77079l-5.21625.72394.16595,1.19205ZM129.00616,43.40847c.04218.24477.06292.34088.08781.51927.07882.5739-.17563.76059-.46603.80207-.43976.06085-.65272-.27381-.71634-.72878l-.05946-.43215,1.15402-.16041Z"/>
    <polygon class="st0" points="125.40582 50.99775 126.53425 50.9701 126.48101 48.82731 130.61515 48.72498 130.58473 47.52187 125.32284 47.65324 125.40582 50.99775"/>
    <path class="st0" d="M125.39683,51.59585l-.01245.12723c-.04771.50199-.12861,1.18928-.15557,1.46724-.19015,1.99966.92653,3.11979,2.39516,3.25947,1.39326.13345,2.68004-.5981,2.88055-2.69525.0325-.34434.09888-1.27571.12515-1.55229l.01037-.1051-5.24322-.5013ZM129.38162,53.63215c-.09265.97424-.67001,1.63665-1.63596,1.54399-.99637-.09542-1.49559-.80761-1.39672-1.84062.01659-.17286.02627-.27796.0567-.43423l2.99533.28695c.0083.15143-.00691.31599-.01936.44391Z"/>
    <polygon class="st0" points="124.0008 60.32602 126.92976 62.34365 123.36882 62.41556 123.03555 63.51841 127.65093 66.46258 127.98559 65.35282 125.06217 63.52533 128.54151 63.51496 128.89138 62.35541 125.99216 60.44841 129.43417 60.56042 129.82829 59.25636 124.33408 59.22386 124.0008 60.32602"/>
    <rect class="st0" x="123.78554" y="64.38732" width="1.20357" height="5.26478" transform="translate(12.71659 153.58469) rotate(-66.09787)"/>
    <path class="st0" d="M121.16104,67.80329c-.24961.43768-.60501,1.03094-.7433,1.27364-.9943,1.74382-.43423,3.22282.84633,3.95229,1.21487.69283,2.68833.55454,3.73034-1.27502.17079-.30147.61331-1.12221.75091-1.36422l.05324-.09196-4.57459-2.60605-.06292.11132ZM121.60841,69.29543l2.61366,1.48937c-.05532.14244-.1376.28626-.20052.39758-.48401.84909-1.28194,1.21694-2.12481.73639-.86914-.49507-1.03094-1.3497-.5172-2.25134.08574-.15004.1376-.24201.22887-.372Z"/>
    <polygon class="st0" points="116.53459 74.90442 117.439 75.57858 118.63105 73.97996 119.39786 74.55178 118.38559 75.90839 119.29069 76.58324 120.30296 75.22525 121.04488 75.77909 119.89778 77.31825 120.80288 77.99241 122.66977 75.488 118.44574 72.34054 116.53459 74.90442"/>
    <polygon class="st0" points="113.54341 78.14452 115.05006 81.36388 111.94341 79.62767 111.09916 80.41038 113.59112 85.28022 114.4409 84.49267 112.84298 81.43994 115.84868 83.1886 116.7365 82.36509 115.19872 79.25636 118.11109 81.09215 119.10953 80.1663 114.38766 77.3625 113.54341 78.14452"/>
    <polygon class="st0" points="106.89103 83.39604 107.52923 84.32603 109.1721 83.19898 109.71212 83.98653 108.31748 84.94418 108.95568 85.87348 110.35032 84.91652 110.87444 85.67918 109.2931 86.76406 109.93131 87.69336 112.50348 85.9281 109.52612 81.5886 106.89103 83.39604"/>
    <path class="st0" d="M104.70399,84.58809c-1.00743.53863-1.5191,1.40086-.99775,2.37511.31876.59602.82489.76128,1.23077.70596l.00691.01314c-.22403.41003-.23647.83457.02282,1.31789.34365.64304,1.06828.91271,2.17528.32014.50406-.26897,1.13258-.63959,1.38427-.7917l-2.46845-4.614c-.28626.11962-.90994.43561-1.35385.67347ZM104.79526,86.44876c-.16595-.31184-.0567-.60017.35471-.82005.19844-.10717.29525-.13276.3796-.15212l.46396.86845-.41072.21988c-.34503.18392-.63129.17563-.78755-.11616ZM106.48999,87.27296l.45013.84218c-.11201.07744-.18462.13345-.31668.20328-.2586.13829-.58565.13483-.73431-.14382-.18047-.33812-.02282-.56837.2503-.71357l.35056-.18807Z"/>
    <path class="st0" d="M98.47893,87.22594c-.67347.23647-1.23423.70527-1.414,1.14365l.73155.69836c.24615-.36508.59602-.61608.95143-.74054.89335-.3153,1.72308.09404,2.03284.97355.34434.97839-.09542,1.72377-.86154,1.99343-.46742.16387-.79378.12031-1.12014.05186l-.20467,1.02818c.40035.186,1.03993.21573,1.69957-.01659,1.70994-.60225,2.19395-2.05635,1.69196-3.48142-.54417-1.54607-1.96716-2.19257-3.507-1.65048Z"/>
    <path class="st0" d="M94.07789,88.41799c-1.56819.33051-2.50579,1.68228-2.17736,3.24287.34641,1.64218,1.73276,2.41936,3.30164,2.08816,1.64149-.34572,2.49196-1.74728,2.17666-3.24287-.34572-1.64149-1.73207-2.41798-3.30095-2.08816ZM94.96916,92.64479c-.83181.17494-1.61867-.30493-1.81642-1.24736-.18323-.86914.17839-1.66845,1.15817-1.8745.82489-.17424,1.62973.3637,1.81642,1.24736.19844.94244-.30424,1.69404-1.15817,1.8745Z"/>
    <polygon class="st0" points="89.45628 89.21454 89.6402 92.36752 86.96431 89.36112 86.0039 89.41644 86.31021 94.67072 87.43657 94.60503 87.25126 91.43822 89.92784 94.45914 90.88895 94.40313 90.58195 89.14954 89.45628 89.21454"/>
    <path class="st0" d="M83.30658,90.29872c.36785.0242.81452.22818,1.08972.63129l.73777-.77303c-.2178-.58081-1.01642-.93552-1.72239-.98254-1.01366-.06845-1.84408.51029-1.90493,1.42645-.11409,1.71271,2.093,1.64771,2.03423,2.51962-.0159.23993-.22126.37753-.55246.3554-.38928-.02627-.55385-.17286-.77165-.40588l-.70596.85739c.307.37545.8325.63682,1.50804.68245,1.05099.06914,1.74451-.59257,1.79914-1.40363.1134-1.69749-2.08678-1.74659-2.03423-2.53552.01659-.24754.20674-.39274.52273-.372Z"/>
    <path class="st0" d="M78.44711,88.5224c-1.57165-.30908-2.96353.56698-3.27191,2.13103-.32429,1.64564.64719,2.90199,2.21953,3.21176,1.64494.32498,2.97597-.63198,3.27122-2.12965.32498-1.64564-.6465-2.90337-2.21884-3.21314ZM79.41168,91.488c-.186.94451-.94313,1.43959-1.79914,1.27087-.83388-.16456-1.36837-.9134-1.18237-1.85791.17148-.87122.81729-1.46448,1.79844-1.27156.82697.16318,1.3573.97286,1.18306,1.8586Z"/>
    <path class="st0" d="M73.19629,89.14263l-.41971-.14589-.60501-2.16076-1.37874-.47779.76958,2.465c-.31668.04149-1.01573.22126-1.33656,1.14434-.31806.91755-.06845,1.76042,1.28885,2.23129.14244.04909,1.41953.47571,1.6968.57182l1.72584-4.97494-1.13812-.39481-.60294,1.74175ZM72.444,91.31099c-.23717-.07468-.33189-.09957-.50199-.15903-.54831-.19015-.59879-.50199-.50268-.77857.1452-.4204.54002-.45774.97424-.30769l.41279.14313-.38237,1.10216Z"/>
    <polygon class="st0" points="68.55878 85.2574 66.77935 88.99604 65.35186 88.31635 64.86716 89.33623 68.80839 91.21281 69.29447 90.19362 67.86664 89.51393 69.64642 85.77529 68.55878 85.2574"/>
    <rect class="st0" x="62.07744" y="85.56519" width="5.2657" height="1.20362" transform="translate(-42.36057 98.33266) rotate(-59.57622)"/>
    <path class="st0" d="M62.65454,81.54919c-.90925-.66863-2.12135-.74814-3.07623.54901l-1.8344,2.48989.9701.71426,1.69093-2.29698c.49957-.67831.99257-.97908,1.58029-.54624.679.49991.50821,1.14987.02213,1.8102l-1.65186,2.24304.9701.71357,1.80259-2.4484c.91513-1.24252.61677-2.4242-.47364-3.22835Z"/>
    <polygon class="st0" points="59.18418 78.82283 56.82048 81.1689 57.23362 78.7039 57.11227 78.58152 54.62273 78.98532 57.00268 76.62473 56.15497 75.7708 52.42048 79.47763 53.21979 80.28316 55.87424 79.80952 55.44347 82.52482 56.29602 83.38359 60.03189 79.67676 59.18418 78.82283"/>
    <path class="st0" d="M51.29446,73.51462c-.60916,0-1.12048.51098-1.12048,1.12774,0,.60916.51132,1.12844,1.12048,1.12844.61642,0,1.13535-.51927,1.13535-1.12844,0-.61677-.51893-1.12774-1.13535-1.12774Z"/>
    <path class="st0" d="M119.083,25.58845c0,.60916.51132,1.12844,1.12048,1.12844.61642,0,1.13535-.51927,1.13535-1.12844,0-.61677-.51893-1.12774-1.13535-1.12774-.60916,0-1.12048.51098-1.12048,1.12774Z"/>
  </g>
</svg>