<?xml version="1.0" encoding="UTF-8" standalone="no"?>
<svg
   id="Layer_1"
   width="100"
   height="100"
   version="1.1"
   viewBox="0 0 100 100"
   xmlns="http://www.w3.org/2000/svg"
   xmlns:svg="http://www.w3.org/2000/svg">
  <defs
     id="defs12668" />
  <g
     id="g34"
     transform="matrix(1.0340983,0,0,1.0340983,-2.0200903,-0.76789586)">
    <path
       d="M 92.15142,40.01638 95.94583,40.42809 C 95.99472,40.43261 96.04962,40.43712 96.10904,40.44314 96.16921,40.44916 96.23163,40.45292 96.29632,40.45443 96.2369,40.47927 96.17974,40.50486 96.12559,40.5312 96.07144,40.55604 96.02255,40.58163 95.97968,40.60722 L 92.59216,42.35568 92.77568,43.32362 98.4767,43.90544 98.318,43.06771 C 98.30221,42.9804 98.2631,42.90965 98.20443,42.85546 98.14426,42.80051 98.08184,42.76966 98.01565,42.76213 L 94.74396,42.55514 C 94.66123,42.54837 94.57173,42.54385 94.47621,42.54084 94.37994,42.53783 94.2784,42.53632 94.1716,42.53708 94.27088,42.49568 94.36489,42.45429 94.45439,42.41364 94.54314,42.37375 94.62437,42.33235 94.69807,42.2902 L 97.63733,40.757 C 97.70577,40.71937 97.75616,40.66668 97.78625,40.60044 97.81784,40.53345 97.82461,40.45292 97.80656,40.35883 L 97.74714,40.04572 C 97.73135,39.95841 97.69299,39.88916 97.63432,39.83497 97.5749,39.78153 97.51248,39.74992 97.44554,39.74013 L 94.15354,39.38487 C 94.06705,39.36982 93.97303,39.36154 93.873,39.35777 93.77297,39.354 93.66767,39.35175 93.55786,39.35024 93.76469,39.26895 93.94445,39.18917 94.09788,39.1124 L 97.06572,37.72673 C 97.13191,37.69211 97.18079,37.63942 97.21238,37.57017 97.24472,37.50092 97.25149,37.41888 97.23344,37.32405 L 97.06497,36.42837 91.9694,39.05219 92.15141,40.01636 Z"
       id="path1" />
    <path
       d="M 97.8028,45.92788 C 97.54708,45.69982 97.24624,45.52595 96.90026,45.40778 96.55278,45.2881 96.17974,45.23391 95.78036,45.24445 95.37723,45.25499 95.00644,45.32875 94.66648,45.46649 94.32652,45.60423 94.0347,45.7939 93.79027,46.03476 93.54584,46.27562 93.35705,46.56238 93.22543,46.89431 93.09381,47.22699 93.03289,47.59204 93.04342,47.99246 93.05395,48.39288 93.13367,48.75567 93.28334,49.08007 93.43226,49.40372 93.63608,49.67995 93.8933,49.90575 94.15052,50.1323 94.45212,50.30467 94.79809,50.42284 95.14481,50.5395 95.51937,50.5937 95.92175,50.58316 96.32187,50.57187 96.69116,50.49886 97.02961,50.36263 97.36806,50.22715 97.65988,50.03898 97.90432,49.79963 98.14876,49.55877 98.33754,49.27351 98.47141,48.94083 98.60378,48.60965 98.66546,48.2431 98.65493,47.84343 98.64365,47.44376 98.56392,47.08097 98.41275,46.75657 98.26233,46.43217 98.0585,46.15518 97.80279,45.92788 Z M 97.62004,48.5231 C 97.53806,48.71729 97.41772,48.88288 97.25903,49.02137 97.09958,49.15986 96.90478,49.26749 96.67464,49.34502 96.44525,49.4233 96.18501,49.4662 95.89244,49.47373 95.59761,49.48201 95.33287,49.45341 95.09746,49.38793 94.86355,49.32169 94.66274,49.2246 94.49803,49.09514 94.33332,48.96568 94.20546,48.80611 94.1152,48.61644 94.02419,48.42677 93.97606,48.21075 93.96929,47.96764 93.96327,47.72453 94.00013,47.5055 94.0806,47.31056 94.16107,47.11562 94.27991,46.94852 94.43785,46.81003 94.59504,46.67229 94.78984,46.56466 95.02074,46.48638 95.25164,46.40885 95.51488,46.36595 95.80971,46.35843 96.10228,46.35015 96.36477,46.3795 96.59792,46.44423 96.83183,46.50971 97.03189,46.60756 97.19811,46.73777 97.36433,46.86648 97.49294,47.0268 97.5847,47.21722 97.67646,47.4084 97.7261,47.62517 97.73287,47.86828 97.73889,48.11064 97.70128,48.32892 97.62005,48.52311 Z"
       id="path2" />
    <path
       d="M 92.97198,52.69968 95.07414,52.91871 95.03653,53.28451 C 95.02675,53.37859 95.00494,53.44859 94.9726,53.49752 94.93951,53.54494 94.88836,53.58558 94.81842,53.62021 L 93.01184,54.43912 C 92.85615,54.5174 92.77041,54.64309 92.75236,54.81621 L 92.65082,55.79167 94.76952,54.77631 C 94.8515,54.7319 94.9222,54.68298 94.98162,54.62803 95.04254,54.57308 95.09444,54.51362 95.14032,54.44814 95.18469,54.6333 95.25088,54.80039 95.34038,54.94792 95.42838,55.0962 95.53443,55.22415 95.65777,55.33254 95.78111,55.44093 95.92026,55.52824 96.07519,55.59522 96.23088,55.6607 96.39785,55.70285 96.57535,55.72167 96.80926,55.74576 97.02662,55.7292 97.22969,55.6735 97.43276,55.6163 97.61176,55.51243 97.76971,55.36114 97.92615,55.2091 98.05852,55.00663 98.16307,54.75449 98.26761,54.50159 98.33982,54.193 98.37817,53.8272 L 98.54815,52.18035 93.08405,51.61359 92.97199,52.6997 Z M 95.84355,52.99849 97.60425,53.18139 97.54634,53.74138 C 97.51099,54.08234 97.41322,54.32621 97.25226,54.47674 97.09131,54.62652 96.87771,54.68674 96.61146,54.65964 96.47758,54.64609 96.35499,54.61297 96.24518,54.56104 96.13537,54.50986 96.04286,54.43835 95.96915,54.34728 95.89695,54.25696 95.84279,54.14406 95.8097,54.01234 95.7751,53.87987 95.76833,53.72632 95.78638,53.54945 L 95.84354,52.99849 Z"
       id="path3" />
    <polygon
       points="92.47032,56.61584 91.84907,59.5475 92.72378,59.73341 93.11864,57.86678 97.61778,58.82042 97.84417,57.75539 "
       id="polygon3" />
    <path
       d="M 91.00219,62.36627 C 90.87583,62.74637 90.82469,63.11292 90.85026,63.46743 90.87508,63.82194 90.96609,64.14709 91.12253,64.44591 91.27972,64.74322 91.49859,65.0059 91.77988,65.23245 92.05967,65.45976 92.39135,65.63588 92.77342,65.76384 93.15324,65.88954 93.52252,65.94523 93.88128,65.93093 94.24154,65.91663 94.57172,65.83685 94.87557,65.69233 95.17942,65.54706 95.44718,65.34008 95.67958,65.07137 95.91123,64.80191 96.08948,64.47751 96.21508,64.09816 L 96.8461,62.19615 91.63245,60.46425 91.00218,62.36626 Z M 91.82275,62.63873 92.10855,61.77391 95.68485,62.96163 95.39905,63.82645 C 95.32233,64.05677 95.21253,64.25096 95.06962,64.40601 94.92672,64.56181 94.75599,64.67773 94.55969,64.75375 94.36264,64.82902 94.14377,64.86515 93.90159,64.85988 93.65866,64.85536 93.39843,64.80644 93.12165,64.71386 92.84111,64.62203 92.60269,64.50386 92.40338,64.36311 92.20482,64.22085 92.04913,64.06129 91.93707,63.8829 91.82501,63.70451 91.75882,63.51033 91.73776,63.29958 91.71745,63.08958 91.74528,62.86905 91.82275,62.63873 Z"
       id="path4" />
    <path
       d="M 87.81925,69.74096 90.40802,72.54768 C 90.44187,72.58381 90.47872,72.62295 90.52008,72.66736 90.5622,72.71102 90.60657,72.75467 90.65471,72.79833 90.59228,72.77876 90.53287,72.75994 90.47571,72.74414 90.4178,72.72758 90.3644,72.71479 90.31626,72.705 L 86.61436,71.79427 86.11646,72.64404 90.02971,76.83267 90.46067,76.09806 C 90.5058,76.02129 90.52385,75.94301 90.51482,75.86247 90.50579,75.78193 90.47872,75.71796 90.43359,75.66979 L 88.10505,73.36059 C 88.04639,73.30113 87.98246,73.23866 87.91251,73.17242 87.84181,73.10694 87.76585,73.0407 87.68537,72.9707 87.78691,73.00382 87.88468,73.03543 87.97869,73.06328 88.0727,73.09113 88.16145,73.11296 88.24419,73.13027 L 91.46624,73.90929 C 91.54296,73.9251 91.61441,73.91832 91.68134,73.88897 91.74827,73.85962 91.80619,73.80317 91.85508,73.71962 L 92.01603,73.44489 C 92.06116,73.36887 92.07846,73.29134 92.06868,73.21231 92.05965,73.13253 92.03333,73.06704 91.98896,73.01661 L 89.74315,70.58322 C 89.68599,70.51473 89.62206,70.44699 89.5491,70.37849 89.47539,70.30924 89.39793,70.23849 89.3167,70.16473 89.52504,70.23924 89.71306,70.29871 89.87928,70.34161 L 93.02612,71.24933 C 93.09908,71.26664 93.16977,71.25911 93.23897,71.22826 93.30892,71.19665 93.36833,71.13944 93.41722,71.05665 L 93.87751,70.27086 88.31413,68.89497 87.81924,69.74097 Z"
       id="path5" />
    <rect
       x="85.925217"
       y="74.048714"
       width="1.0921"
       height="5.4948802"
       transform="rotate(-52.57919,86.471283,76.796149)"
       id="rect5" />
    <path
       d="M 81.7512,78.15133 C 81.47893,78.44487 81.28113,78.75723 81.15553,79.08991 81.03068,79.42259 80.97878,79.75753 80.99759,80.09322 81.01714,80.42967 81.10665,80.75934 81.2676,81.08223 81.42855,81.40512 81.65644,81.70394 81.95127,81.97866 82.24384,82.25188 82.55672,82.4551 82.88991,82.59209 83.22234,82.72832 83.55703,82.79381 83.89323,82.78854 84.23018,82.78327 84.5596,82.7065 84.88151,82.55747 85.20417,82.40919 85.50125,82.18866 85.77427,81.89587 L 87.13785,80.42891 83.11555,76.68511 81.75122,78.15132 Z M 85.14323,81.30955 C 84.97852,81.48718 84.79801,81.61739 84.60321,81.69943 84.40766,81.78222 84.20534,81.81609 83.9955,81.80405 83.78491,81.79125 83.57056,81.73104 83.35244,81.62642 83.13357,81.52029 82.91697,81.36901 82.70337,81.16879 82.48751,80.96783 82.31829,80.76235 82.19645,80.55085 82.07461,80.33935 82.00015,80.1286 81.97157,79.92086 81.94374,79.71086 81.9648,79.50689 82.03324,79.30743 82.10168,79.10797 82.21901,78.9183 82.38448,78.74142 L 83.00422,78.07455 85.76297,80.64267 85.14323,81.30954 Z"
       id="path6" />
    <polygon
       points="79.07142,85.01421 80.41168,83.87617 81.35107,84.98486 79.62873,86.44655 80.1883,87.10664 82.74323,84.93744 79.18875,80.7458 76.63382,82.915 77.18963,83.57736 78.91573,82.1119 79.87392,83.24242 78.5329,84.38046 "
       id="polygon6" />
    <path
       d="M 72.07601,85.99494 72.87175,89.73046 C 72.88153,89.77863 72.89431,89.83132 72.90785,89.89003 72.92064,89.94874 72.93718,90.00971 72.95599,90.07218 72.91312,90.02326 72.871,89.97734 72.82963,89.93294 72.78902,89.89004 72.74915,89.85165 72.7123,89.81929 L 69.99416,87.14504 69.13224,87.62148 70.36044,93.22212 71.10729,92.80965 C 71.18401,92.76675 71.23966,92.70954 71.27275,92.63578 71.30584,92.56127 71.31562,92.49277 71.30208,92.42729 L 70.47701,89.25251 C 70.45746,89.17122 70.43414,89.08542 70.40631,88.99284 70.37923,88.90101 70.34915,88.80467 70.3153,88.70306 70.38449,88.78435 70.45294,88.86112 70.51987,88.93263 70.58606,89.00413 70.65149,89.06962 70.71392,89.12607 L 73.08759,91.44129 C 73.1455,91.49473 73.21018,91.52559 73.28239,91.53387 73.3561,91.5429 73.43432,91.52409 73.51855,91.47742 L 73.79758,91.32387 C 73.8743,91.28097 73.9292,91.22301 73.96079,91.15 73.99388,91.07699 74.00441,91.00699 73.99313,90.94151 L 73.30119,87.70125 C 73.28765,87.61394 73.26734,87.52211 73.23876,87.42652 73.21093,87.32943 73.1801,87.22857 73.14851,87.12395 73.28991,87.29481 73.42078,87.44083 73.54262,87.56351 L 75.78542,89.95099 C 75.83957,90.00292 75.90425,90.03303 75.97947,90.04206 76.05468,90.05034 76.13591,90.03152 76.21939,89.98486 L 77.01663,89.54455 72.93491,85.52076 72.076,85.99494 Z"
       id="path7" />
    <polygon
       points="65.37694,92.57331 67.02256,91.95311 67.534,93.31244 65.42131,94.11027 65.72516,94.92015 68.86072,93.7377 66.92403,88.59317 63.78847,89.77562 64.08932,90.58625 66.20652,89.78842 66.72848,91.17484 65.08436,91.79505 "
       id="polygon7" />
    <path
       d="M 60.76197,90.61862 C 60.46037,90.69615 60.20165,90.80453 59.9888,90.94302 59.7752,91.08226 59.60673,91.24258 59.48338,91.42323 59.36079,91.60462 59.28257,91.80107 59.24947,92.01558 59.21487,92.22934 59.22766,92.44987 59.28557,92.67643 59.44351,93.29437 59.88801,93.59846 60.61681,93.58792 60.47391,93.68426 60.35583,93.78813 60.26256,93.89953 60.17005,94.00942 60.10086,94.12383 60.05347,94.24049 60.00684,94.35866 59.98051,94.47909 59.9745,94.60253 59.96999,94.72672 59.98353,94.84941 60.01436,94.97285 60.07002,95.18962 60.15576,95.37704 60.27158,95.53359 60.38665,95.69015 60.53708,95.81057 60.7221,95.89412 60.90712,95.97767 61.12975,96.02207 61.38998,96.02659 61.65021,96.03111 61.95106,95.98896 62.29327,95.90165 L 64.1006,95.438 62.73777,90.11284 60.76197,90.61864 Z M 60.65366,92.9075 C 60.56942,92.86384 60.50173,92.80137 60.44758,92.72084 60.39493,92.6403 60.35432,92.54547 60.32574,92.43633 60.29942,92.33397 60.28738,92.23236 60.29039,92.13074 60.2934,92.02838 60.31747,91.93354 60.3641,91.84472 60.41148,91.7559 60.48594,91.67537 60.58673,91.60462 60.68751,91.53312 60.82289,91.47516 60.99061,91.43226 L 61.89239,91.20044 62.27597,92.69675 61.3787,92.92707 C 61.21775,92.96771 61.07785,92.98578 60.95827,92.98126 60.83944,92.97599 60.7379,92.95115 60.65366,92.9075 Z M 62.08644,95.091 C 61.7871,95.16777 61.55319,95.16853 61.38622,95.09326 61.21925,95.01799 61.09966,94.84413 61.03047,94.57166 60.96278,94.30898 60.99512,94.10124 61.12674,93.94619 61.25761,93.79189 61.47121,93.67598 61.76829,93.59996 L 62.46099,93.42233 62.8393,94.89832 62.08643,95.091 Z"
       id="path8" />
    <path
       d="M 55.85292,93.23867 C 55.71303,92.90599 55.52876,92.62374 55.30087,92.39191 55.07223,92.16084 54.80448,91.98772 54.49611,91.87407 54.18774,91.75966 53.84779,91.71751 53.477,91.74837 53.0671,91.78299 52.71962,91.88536 52.43382,92.05621 52.14802,92.22631 51.91637,92.45964 51.74188,92.75394 L 52.21421,93.18372 C 52.25858,93.22436 52.30973,93.24168 52.36764,93.23716 52.39848,93.2349 52.42706,93.22512 52.45489,93.20705 52.48197,93.18974 52.50904,93.16942 52.53461,93.14458 52.59704,93.0648 52.66097,92.99706 52.72565,92.94211 52.79033,92.88641 52.85953,92.83975 52.93624,92.80136 53.01145,92.76373 53.09418,92.73437 53.18369,92.71405 53.27319,92.69448 53.37397,92.67943 53.48679,92.67039 53.67632,92.65383 53.85683,92.68168 54.02906,92.75168 54.20129,92.82168 54.35548,92.93232 54.49011,93.08286 54.62624,93.23339 54.73906,93.42232 54.83082,93.65038 54.92183,93.87769 54.97974,94.14263 55.00456,94.44219 55.02938,94.73874 55.0196,95.0067 54.97372,95.24454 54.92935,95.48238 54.85413,95.68636 54.74884,95.85722 54.64355,96.02808 54.51268,96.16205 54.35473,96.2599 54.19754,96.35699 54.01778,96.4142 53.81772,96.43151 53.6327,96.44656 53.48077,96.43753 53.35818,96.40291 53.23634,96.36904 53.1348,96.32915 53.05132,96.28323 52.96934,96.23807 52.89864,96.19517 52.84148,96.15528 52.78432,96.11614 52.72716,96.09808 52.66925,96.10335 52.61134,96.10787 52.56771,96.12442 52.53763,96.15152 52.50905,96.17937 52.48273,96.20872 52.46091,96.24109 L 52.14051,96.77925 C 52.34734,96.97796 52.59855,97.13075 52.89262,97.23763 53.18669,97.34451 53.51687,97.3829 53.88541,97.35204 54.24793,97.32118 54.5751,97.22484 54.86617,97.06226 55.15649,96.89968 55.40017,96.68517 55.59722,96.41948 55.79352,96.15454 55.93718,95.84519 56.02818,95.49219 56.11919,95.13994 56.14777,94.75909 56.11317,94.34963 56.08008,93.94243 55.99283,93.57287 55.85294,93.23868 Z"
       id="path9" />
    <path
       d="M 50.39634,92.70954 C 50.17296,92.44836 49.89995,92.24138 49.57804,92.08708 49.25689,91.93203 48.89587,91.84622 48.4965,91.82967 48.09638,91.81236 47.7301,91.8673 47.39616,91.99451 47.06297,92.12096 46.77341,92.30536 46.52973,92.54547 46.2868,92.78708 46.09426,93.07686 45.95286,93.41481 45.81221,93.75201 45.73324,94.12308 45.71594,94.525 45.69939,94.92467 45.74678,95.29875 45.85959,95.64573 45.97165,95.99271 46.13938,96.29679 46.36125,96.55722 46.58388,96.8184 46.85539,97.02689 47.17729,97.18344 47.49919,97.33849 47.85946,97.42505 48.25958,97.44236 48.65895,97.45892 49.02523,97.40322 49.35917,97.27527 49.69311,97.14656 49.98267,96.96291 50.22786,96.72356 50.4723,96.48346 50.66559,96.19518 50.80849,95.85723 50.95139,95.51853 51.03112,95.14972 51.04766,94.7508 51.06421,94.34812 51.01607,93.97254 50.9025,93.6233 50.78893,93.27481 50.62046,92.97073 50.39633,92.70955 Z M 49.7954,95.48465 C 49.71417,95.71346 49.60286,95.90615 49.46297,96.0627 49.32232,96.22001 49.1531,96.33818 48.9568,96.41646 48.7605,96.49549 48.54088,96.53011 48.2987,96.51958 48.05577,96.50904 47.84066,96.45636 47.65339,96.36227 47.46461,96.26743 47.30742,96.13572 47.18106,95.96712 47.05395,95.79852 46.95994,95.5968 46.89751,95.36197 46.83584,95.12789 46.81102,94.86445 46.82305,94.57242 46.83584,94.27662 46.88322,94.01394 46.96445,93.78437 47.04568,93.55405 47.15699,93.36212 47.29764,93.20632 47.43829,93.05052 47.60525,92.93385 47.8008,92.85633 47.99635,92.77956 48.21446,92.74569 48.45664,92.75547 48.69957,92.76601 48.91543,92.81794 49.10421,92.91203 49.29374,93.00461 49.45244,93.13557 49.57879,93.30267 49.7059,93.46976 49.79991,93.67073 49.86158,93.90631 49.92325,94.14265 49.94807,94.40834 49.93604,94.70339 49.92325,94.99618 49.87662,95.25661 49.79539,95.48467 Z"
       id="path10" />
    <path
       d="M 43.33776,94.67101 C 43.31068,94.81477 43.29038,94.97283 43.27609,95.14444 L 41.26193,91.16731 C 41.21981,91.09204 41.17393,91.03559 41.12429,90.99645 41.07315,90.95806 41.00621,90.93097 40.92197,90.91591 L 40.37293,90.8143 39.38089,96.22226 40.32178,96.39462 40.90241,93.22662 C 40.93099,93.0663 40.95431,92.89544 40.97085,92.7133 L 42.98802,96.7115 C 43.01209,96.75214 43.03315,96.78601 43.05195,96.81161 43.07075,96.83795 43.09256,96.85903 43.11588,96.87559 43.1392,96.8929 43.16778,96.90645 43.19936,96.91623 43.23094,96.92601 43.26931,96.9358 43.31519,96.94408 L 43.87702,97.0472 44.86831,91.63924 43.92516,91.46613 Z"
       id="path11" />
    <path
       d="M 38.65134,90.46056 C 38.52574,90.35368 38.38885,90.2611 38.24219,90.17906 38.09628,90.09777 37.9436,90.03229 37.78566,89.98412 37.50587,89.89756 37.24414,89.8652 36.99895,89.88703 36.75376,89.90886 36.53264,89.97359 36.33408,90.08122 36.13703,90.18885 35.96705,90.33562 35.82415,90.51928 35.68275,90.70369 35.57445,90.91443 35.50074,91.15153 35.43305,91.37056 35.40748,91.5655 35.42478,91.73937 35.44208,91.91248 35.48796,92.06829 35.56166,92.20603 35.63612,92.34452 35.73013,92.47022 35.8437,92.58161 35.95802,92.69376 36.07836,92.79763 36.20471,92.89322 36.33031,92.98881 36.45441,93.07988 36.57625,93.16719 36.69809,93.25375 36.80414,93.34181 36.89289,93.43138 36.98239,93.52095 37.04707,93.61503 37.08769,93.71288 37.12755,93.81148 37.12981,93.91911 37.09295,94.03728 37.03504,94.2247 36.92824,94.35792 36.7718,94.43695 36.61611,94.51598 36.41981,94.51824 36.1829,94.44448 36.04827,94.40308 35.93545,94.34739 35.84445,94.27889 35.75345,94.21039 35.67522,94.1419 35.61054,94.07416 35.54661,94.00717 35.49171,93.94545 35.44508,93.89126 35.3992,93.83556 35.35031,93.80019 35.30067,93.78513 35.24727,93.76857 35.19989,93.76556 35.15777,93.7776 35.1149,93.78889 35.07278,93.81674 35.02991,93.86115 L 34.61324,94.2691 C 34.74035,94.50243 34.91709,94.70791 35.14348,94.88554 35.36987,95.06242 35.63311,95.19715 35.93395,95.29048 36.2002,95.37327 36.4499,95.40338 36.68305,95.38155 36.91621,95.36048 37.12604,95.30026 37.31257,95.20241 37.49834,95.10381 37.65779,94.9751 37.78715,94.81403 37.91802,94.65371 38.01278,94.47758 38.07295,94.2849 38.14816,94.04254 38.17825,93.82953 38.16471,93.64663 38.15117,93.46298 38.1083,93.29965 38.03685,93.15664 37.96615,93.01288 37.87289,92.88643 37.75857,92.77729 37.6435,92.66815 37.52316,92.56729 37.3968,92.47622 37.2712,92.38515 37.14559,92.29859 37.023,92.21504 36.89965,92.13225 36.79436,92.04569 36.70636,91.95687 36.61911,91.86805 36.55594,91.77021 36.51758,91.66634 36.47847,91.56172 36.48073,91.44204 36.52209,91.30807 36.59505,91.07098 36.71689,90.91141 36.88611,90.83163 37.05609,90.75109 37.25841,90.74733 37.49532,90.82034 37.65928,90.87227 37.79316,90.94002 37.8962,91.02507 37.99924,91.11163 38.08648,91.19668 38.15718,91.28399 38.22863,91.3713 38.29106,91.45033 38.34295,91.51882 38.39485,91.58882 38.45201,91.63398 38.51518,91.65355 38.56332,91.66785 38.6107,91.67011 38.65959,91.65882 38.70697,91.64753 38.74909,91.6257 38.78519,91.59334 L 39.24624,91.19518 C 39.18156,91.0597 39.09807,90.92949 38.99503,90.80454 38.89199,90.6811 38.77767,90.56594 38.65131,90.46057 Z"
       id="path12" />
    <path
       d="M 33.78291,88.77382 C 33.54223,88.51114 33.23763,88.29738 32.87285,88.1348 32.50807,87.97072 32.14706,87.88642 31.78981,87.88115 31.43331,87.87438 31.09636,87.93911 30.78198,88.07308 30.46609,88.20781 30.18104,88.40501 29.92457,88.66694 29.66885,88.92887 29.45826,89.24274 29.29355,89.61155 29.13034,89.9766 29.03708,90.34089 29.01301,90.70518 28.98969,91.07023 29.03256,91.4142 29.14313,91.7386 29.25294,92.063 29.42818,92.3573 29.67036,92.62149 29.91179,92.88493 30.21489,93.09868 30.57967,93.26277 30.9452,93.4261 31.30696,93.50965 31.66422,93.51416 32.02147,93.51792 32.35842,93.45395 32.67431,93.32148 32.9902,93.19051 33.27675,92.99407 33.53398,92.73214 33.7912,92.47096 34.00179,92.15785 34.165,91.79205 34.32896,91.42475 34.42297,91.05819 34.44629,90.69164 34.46961,90.32584 34.42523,89.98036 34.31392,89.65446 34.20261,89.33006 34.02511,89.03652 33.78293,88.77383 Z M 33.37376,90.57045 C 33.34518,90.81206 33.26997,91.06797 33.14888,91.33742 33.02929,91.60462 32.8894,91.82967 32.72995,92.01182 32.56975,92.19321 32.39526,92.33246 32.20723,92.42579 32.01845,92.51987 31.81839,92.56729 31.60629,92.56729 31.39495,92.56804 31.17834,92.51837 30.95722,92.41977 30.73535,92.32042 30.55484,92.19246 30.41495,92.0344 30.27581,91.87634 30.17879,91.6957 30.12313,91.49248 30.06747,91.28926 30.05394,91.06722 30.08252,90.82636 30.1126,90.5855 30.18631,90.3311 30.3059,90.06465 30.42624,89.79519 30.56688,89.56789 30.72784,89.38499 30.88804,89.20134 31.06253,89.0636 31.25056,88.97027 31.43859,88.87769 31.6379,88.83103 31.84774,88.83178 32.05683,88.83178 32.27344,88.88146 32.49456,88.98081 32.71643,89.08016 32.89694,89.20812 33.03834,89.36543 33.18049,89.52199 33.27902,89.70188 33.33467,89.90359 33.39108,90.10606 33.40386,90.3281 33.37378,90.57046 Z"
       id="path13" />
    <path
       d="M 28.66177,86.03634 27.55842,87.84125 27.24479,87.64932 C 27.16431,87.6004 27.11016,87.55072 27.08008,87.50029 27.0515,87.44986 27.03646,87.38588 27.03571,87.30836 L 27.07557,85.32356 C 27.07181,85.14969 26.99585,85.01722 26.84768,84.92615 L 26.01133,84.41508 26.01509,86.76568 C 26.01885,86.85826 26.03314,86.94406 26.05721,87.02234 26.08053,87.09911 26.11136,87.17212 26.15047,87.24137 25.96395,87.20148 25.78569,87.19019 25.61421,87.20675 25.44198,87.22331 25.28102,87.2632 25.12985,87.32718 24.97943,87.39266 24.84029,87.48073 24.71393,87.59212 24.58757,87.70427 24.47777,87.83674 24.38375,87.98953 24.26116,88.18899 24.18294,88.39372 24.14608,88.6007 24.10923,88.80844 24.12577,89.01542 24.19497,89.22316 24.26416,89.42939 24.38902,89.63487 24.57253,89.8396 24.75454,90.04357 25.00274,90.24153 25.31562,90.43271 L 26.72583,91.29678 29.59289,86.60762 Z M 26.23094,90.01272 25.75109,89.71993 C 25.46002,89.54079 25.28102,89.3466 25.21483,89.13661 25.1494,88.92661 25.18625,88.70683 25.32539,88.47877 25.39684,88.36361 25.47882,88.26727 25.57208,88.19125 25.66609,88.11372 25.76989,88.06254 25.88421,88.03394 25.99703,88.00684 26.12188,88.00684 26.25575,88.03319 26.38887,88.06104 26.53102,88.11975 26.6822,88.21233 L 27.15528,88.50136 26.23093,90.01273 Z"
       id="path14" />
    <polygon
       points="22.34251,88.53296 22.88478,87.83147 21.71299,86.9245 24.53266,83.27779 23.6745,82.61394 20.85558,86.26139 19.68379,85.35517 19.14227,86.05591 "
       id="polygon14" />
    <rect
       x="16.78014"
       y="82.134117"
       width="5.4951801"
       height="1.09247"
       transform="rotate(-47.54068,19.527723,82.680347)"
       id="rect14" />
    <path
       d="M 18.86399,80.10829 C 19.00012,79.8426 19.07834,79.56862 19.09639,79.28487 19.11519,79.00186 19.07157,78.7166 18.96552,78.42757 18.85872,78.1393 18.68724,77.86306 18.44957,77.59737 18.21265,77.33318 17.95694,77.13147 17.68317,76.99598 17.41015,76.85975 17.13112,76.78448 16.84757,76.77244 16.56402,76.75964 16.28348,76.80631 16.00445,76.91319 15.72617,77.02007 15.46443,77.18415 15.21774,77.40469 L 12.77713,79.59196 13.49991,80.39958 15.94052,78.21306 C 16.0932,78.07683 16.24813,77.97371 16.40909,77.90446 16.56854,77.83521 16.72648,77.80059 16.88217,77.79984 17.03711,77.79984 17.18828,77.83446 17.33569,77.90446 17.4831,77.97371 17.62149,78.08059 17.75086,78.2251 17.87872,78.36886 17.96973,78.51789 18.02313,78.67219 18.07653,78.82649 18.09383,78.98079 18.07728,79.13584 18.05923,79.28939 18.00733,79.44293 17.92084,79.59422 17.83435,79.74551 17.71551,79.88927 17.56283,80.02625 L 15.12297,82.21352 15.84801,83.02415 18.28937,80.83688 C 18.53606,80.61635 18.7271,80.37399 18.86398,80.10829 Z"
       id="path15" />
    <path
       d="M 15.52611,74.14485 12.63724,76.00847 C 12.57256,76.05137 12.50412,76.09879 12.43116,76.15148 12.3582,76.20492 12.28675,76.26137 12.2138,76.32234 L 13.85642,73.1724 C 13.94367,73.01434 13.94216,72.8638 13.85116,72.72305 L 13.76843,72.59359 C 13.67893,72.45435 13.54355,72.39263 13.36229,72.40768 L 9.84315,72.61542 C 9.92438,72.57327 10.0026,72.52962 10.07856,72.48671 10.15302,72.4423 10.22221,72.40091 10.28539,72.36026 L 13.17351,70.49514 12.65455,69.69128 8.03958,72.67187 8.48257,73.36057 C 8.50889,73.40046 8.53221,73.43433 8.55402,73.46293 8.57583,73.49153 8.59764,73.51486 8.62171,73.53293 8.64427,73.55099 8.6721,73.56304 8.70444,73.56981 8.73753,73.57734 8.77664,73.57884 8.82327,73.57508 L 12.23561,73.38616 C 12.33338,73.37939 12.43116,73.36734 12.52969,73.34928 12.62822,73.33197 12.72825,73.3124 12.83054,73.29358 12.7102,73.45239 12.60265,73.61873 12.50788,73.7926 L 10.92919,76.84168 C 10.90587,76.88232 10.89158,76.91845 10.88557,76.95006 10.87956,76.98167 10.88031,77.01328 10.88707,77.04339 10.89309,77.0735 10.90437,77.1036 10.92092,77.13446 10.93671,77.16532 10.95777,77.19994 10.98335,77.23908 L 11.42935,77.93154 16.04582,74.95171 15.52611,74.14484 Z"
       id="path16" />
    <path
       d="M 8.23738,56.9997 4.455,56.48412 4.29254,56.4638 C 4.23237,56.45627 4.1707,56.451 4.10602,56.44724 4.16619,56.42391 4.22335,56.40057 4.27825,56.37574 4.33315,56.35165 4.38204,56.32757 4.42642,56.30348 L 7.86057,54.64986 7.70413,53.67665 2.02191,52.93752 2.15654,53.77976 C 2.17158,53.86707 2.20693,53.93857 2.26484,53.99502 2.32275,54.05222 2.38518,54.08459 2.44986,54.09362 L 5.71554,54.39017 C 5.79827,54.39995 5.88777,54.40673 5.98254,54.412 6.07881,54.41802 6.17959,54.42178 6.28715,54.4248 6.18637,54.46319 6.0916,54.50157 6.00135,54.53921 5.9111,54.5776 5.82836,54.61749 5.75466,54.65663 L 2.77328,56.10854 C 2.70409,56.14467 2.65294,56.19585 2.61985,56.26058 2.58676,56.32606 2.57773,56.4066 2.59277,56.50219 L 2.64391,56.81681 C 2.6582,56.90412 2.69355,56.97487 2.75146,57.02982 2.80937,57.08477 2.87105,57.11864 2.93723,57.13068 L 6.21795,57.57626 C 6.30444,57.59282 6.39771,57.60486 6.49774,57.61088 6.59777,57.6169 6.70382,57.62217 6.81212,57.62744 6.60378,57.70271 6.42102,57.77722 6.26609,57.84948 L 3.2614,59.15386 C 3.19446,59.18698 3.14407,59.23741 3.11023,59.30515 3.07638,59.37364 3.06736,59.45568 3.0824,59.55052 L 3.22681,60.44996 8.39308,57.9684 8.23739,56.99971 Z"
       id="path17" />
    <path
       d="M 2.75221,50.94821 C 3.00116,51.18304 3.29749,51.36444 3.64121,51.49315 3.98417,51.62261 4.35572,51.68659 4.75509,51.68659 5.15822,51.68734 5.53052,51.62337 5.87499,51.49616 6.21795,51.36745 6.51504,51.18681 6.767,50.95198 7.01745,50.7179 7.21376,50.43715 7.35515,50.10823 7.4958,49.78006 7.56649,49.41577 7.56725,49.01535 7.56725,48.61493 7.4973,48.25139 7.35666,47.92247 7.21677,47.5943 7.02122,47.3128 6.77076,47.07948 6.51955,46.84615 6.22322,46.66626 5.87951,46.53831 5.53655,46.41111 5.16425,46.34713 4.76112,46.34713 4.361,46.34638 3.9902,46.4096 3.64724,46.53605 3.30578,46.6625 3.00945,46.84239 2.75824,47.07496 2.50703,47.30829 2.30998,47.58904 2.16708,47.91795 2.02568,48.24536 1.95423,48.60966 1.95348,49.01008 1.95348,49.4105 2.02343,49.77404 2.16558,50.10296 2.30698,50.43113 2.50253,50.71338 2.75223,50.94821 Z M 3.00718,48.35901 C 3.09367,48.16708 3.21852,48.0045 3.38248,47.87052 3.54494,47.7373 3.74199,47.63418 3.97439,47.56268 4.20529,47.49118 4.46702,47.4558 4.7596,47.45655 5.05443,47.45655 5.31842,47.49268 5.55233,47.56493 5.78473,47.63643 5.98179,47.7403 6.14274,47.87353 6.30369,48.00751 6.42779,48.17084 6.51278,48.36277 6.59852,48.5547 6.64064,48.77147 6.64064,49.01459 6.64064,49.25771 6.59777,49.47598 6.51128,49.66866 6.42554,49.8621 6.30219,50.02467 6.14049,50.1594 5.97954,50.29262 5.78173,50.39499 5.54858,50.46649 5.31543,50.53799 5.05068,50.57412 4.7566,50.57337 4.46478,50.57337 4.20229,50.53724 3.97064,50.46499 3.73899,50.39274 3.54194,50.29037 3.37948,50.15564 3.21702,50.02166 3.09217,49.85758 3.00493,49.6649 2.91844,49.47222 2.87557,49.25319 2.87632,49.01083 2.87632,48.76772 2.92069,48.55095 3.00719,48.35901 Z"
       id="path18" />
    <path
       d="M 7.76806,44.31038 5.67267,44.0334 5.72081,43.66835 C 5.73284,43.57577 5.75616,43.50502 5.79,43.45835 5.82384,43.41168 5.87649,43.37179 5.94719,43.33943 L 7.77633,42.5702 C 7.93277,42.49569 8.02302,42.373 8.04559,42.20064 L 8.17345,41.22819 6.02842,42.18484 C 5.94494,42.22699 5.87273,42.27441 5.81181,42.32785 5.75014,42.38054 5.69598,42.43925 5.64935,42.50247 5.60874,42.31581 5.54781,42.14871 5.46283,41.99743 5.37859,41.84765 5.27631,41.71668 5.15597,41.60453 5.03563,41.49313 4.89875,41.40131 4.74532,41.33056 4.59189,41.26056 4.42642,41.2139 4.24893,41.19056 4.01577,41.16045 3.79766,41.17024 3.59309,41.22067 3.39002,41.2726 3.2065,41.3712 3.04555,41.51798 2.8846,41.6655 2.74771,41.86421 2.63565,42.11334 2.52359,42.36323 2.44311,42.66957 2.39573,43.03311 L 2.17912,44.67544 7.62517,45.39349 7.76807,44.31039 Z M 4.90551,43.93254 3.15008,43.70147 3.22379,43.14299 C 3.26816,42.80353 3.37346,42.56193 3.53893,42.41591 3.70364,42.27064 3.91875,42.2157 4.18424,42.25107 4.31812,42.26838 4.43921,42.30451 4.54751,42.35945 4.65506,42.41364 4.74532,42.48816 4.81677,42.58074 4.88747,42.67332 4.93861,42.78697 4.96794,42.9202 4.99802,43.05342 5.00103,43.20772 4.97847,43.38234 Z"
       id="path19" />
    <polygon
       points="8.38178,40.38745 9.08501,37.4731 8.21556,37.26385 7.76881,39.11844 3.29674,38.03911 3.04178,39.09737 "
       id="polygon19" />
    <path
       d="M 10.00259,34.70251 C 10.13872,34.32542 10.19889,33.96037 10.1846,33.60586 10.16956,33.2506 10.08683,32.92243 9.93791,32.61986 9.78974,32.31804 9.57765,32.04933 9.30388,31.81525 9.03011,31.58117 8.70294,31.39451 8.32463,31.25677 7.94857,31.12054 7.58079,31.05505 7.22128,31.05957 6.86177,31.06484 6.52783,31.13408 6.22097,31.27107 5.9126,31.4073 5.63959,31.60676 5.40041,31.86945 5.16199,32.13213 4.97471,32.45202 4.83783,32.8276 L 4.15566,34.71154 9.31967,36.5857 Z M 9.18955,34.40671 8.87893,35.2625 5.33648,33.97769 5.6471,33.1219 C 5.72983,32.89309 5.84491,32.70266 5.99157,32.55062 6.13898,32.39933 6.31272,32.28794 6.51128,32.21794 6.70984,32.14719 6.93021,32.11859 7.17164,32.12912 7.41457,32.14116 7.67255,32.19686 7.94782,32.29621 8.22535,32.39707 8.46151,32.52051 8.65631,32.66803 8.85036,32.81405 9.00153,32.97888 9.10908,33.16028 9.21588,33.34167 9.27755,33.53737 9.29109,33.74812 9.30613,33.95887 9.27229,34.1794 9.18955,34.40671 Z"
       id="path20" />
    <path
       d="M 13.38484,27.41813 10.87278,24.54141 C 10.83969,24.50528 10.80359,24.46464 10.76297,24.41948 10.72311,24.37432 10.67949,24.32991 10.63285,24.28475 10.69452,24.30658 10.75319,24.32615 10.81035,24.34346 10.86826,24.36228 10.92016,24.37658 10.96829,24.38712 L 14.64387,25.39871 15.16508,24.56324 11.36691,20.26924 10.91639,20.99256 C 10.86901,21.06707 10.84945,21.1446 10.85622,21.22514 10.86299,21.30568 10.88856,21.37191 10.93218,21.42084 L 13.19679,23.79251 C 13.2532,23.85423 13.31562,23.91821 13.38407,23.98519 13.45326,24.05218 13.52697,24.12218 13.60519,24.19368 13.50516,24.1568 13.40814,24.12293 13.31487,24.09357 13.22161,24.06196 13.13361,24.03787 13.05163,24.0183 L 9.85139,23.15273 C 9.77543,23.13391 9.70322,23.13918 9.63629,23.16628 9.56785,23.19413 9.50843,23.24983 9.45804,23.33036 L 9.28957,23.60132 C 9.24219,23.67659 9.22263,23.75336 9.2294,23.83314 9.23692,23.91217 9.26174,23.97841 9.30461,24.03034 L 11.48423,26.52395 C 11.53838,26.5932 11.60081,26.6647 11.67301,26.7347 11.74446,26.8047 11.81892,26.87771 11.8994,26.95373 11.69182,26.87395 11.5068,26.80922 11.34133,26.7618 L 8.22006,25.76902 C 8.14786,25.74945 8.07641,25.75472 8.00571,25.78332 7.93576,25.81343 7.87484,25.86912 7.8237,25.95117 L 7.34235,26.72417 12.86587,28.25059 13.38483,27.41813 Z"
       id="path21" />
    <polygon
       points="13.14341,18.2325 12.45673,19.08227 16.72648,22.54081 17.41316,21.69029 "
       id="polygon21" />
    <path
       d="M 19.68454,19.17184 C 19.96433,18.88582 20.17191,18.57949 20.30503,18.24981 20.43891,17.92089 20.50133,17.58821 20.49155,17.25176 20.48177,16.91531 20.40054,16.58339 20.24862,16.25522 20.09669,15.92856 19.87632,15.62373 19.58977,15.34072 19.30472,15.06073 18.9971,14.84772 18.66843,14.7017 18.33976,14.55643 18.00657,14.48192 17.67113,14.47816 17.33494,14.47364 17.00325,14.54138 16.67684,14.68063 16.34967,14.82063 16.04657,15.03288 15.76678,15.3189 L 14.36334,16.74747 18.28035,20.60041 19.68455,19.17184 Z M 16.38051,15.9218 C 16.55049,15.74869 16.734,15.62374 16.93106,15.54622 17.12811,15.4702 17.33194,15.4416 17.54178,15.45966 17.75162,15.47848 17.96372,15.54321 18.17957,15.6546 18.39542,15.76599 18.60752,15.92406 18.81511,16.12954 19.02645,16.33577 19.18891,16.54652 19.30549,16.76103 19.42056,16.97629 19.49051,17.18855 19.51232,17.39779 19.53488,17.60703 19.50856,17.81101 19.4341,18.00971 19.35964,18.20691 19.23705,18.39207 19.06782,18.56518 L 18.43003,19.21549 15.74198,16.57135 16.38052,15.92179 Z"
       id="path22" />
    <polygon
       points="22.54558,12.3895 21.17448,13.48991 20.26593,12.35714 22.02738,10.94211 21.48661,10.26771 18.87301,12.36617 22.31017,16.65415 24.92452,14.55569 24.38675,13.87829 22.62079,15.29557 21.69494,14.13947 23.06529,13.03831 "
       id="polygon22" />
    <path
       d="M 29.55904,11.60672 28.86634,7.85088 C 28.85807,7.80271 28.84679,7.75002 28.83475,7.69056 28.82271,7.6311 28.80843,7.57013 28.79188,7.50691 28.83249,7.55734 28.87311,7.60476 28.91372,7.64917 28.95433,7.69358 28.99194,7.73272 29.02804,7.76659 L 31.67247,10.5146 32.54643,10.06149 31.47166,4.42848 30.71503,4.81987 C 30.63681,4.86127 30.5789,4.91772 30.54355,4.98997 30.5082,5.06373 30.49692,5.13223 30.50895,5.19771 L 31.24753,8.39431 C 31.26483,8.47635 31.28589,8.56216 31.31071,8.65549 31.33478,8.74882 31.36261,8.84516 31.39419,8.94828 31.3265,8.86473 31.26031,8.7857 31.19563,8.71269 31.13095,8.63893 31.06777,8.57269 31.0076,8.51474 L 28.69786,6.13479 C 28.64145,6.07984 28.57677,6.04673 28.50457,6.03694 28.43161,6.02565 28.35264,6.04221 28.26765,6.08662 L 27.9841,6.23339 C 27.90588,6.27403 27.85022,6.33048 27.81563,6.40274 27.78178,6.47424 27.769,6.54349 27.77878,6.60973 L 28.38122,9.86805 C 28.3925,9.95611 28.41055,10.04719 28.43612,10.14579 28.46169,10.24213 28.48952,10.34374 28.51885,10.44987 28.38197,10.2745 28.25486,10.12472 28.13753,9.99902 L 25.96016,7.55133 C 25.90676,7.49714 25.84283,7.46553 25.76762,7.45424 25.69241,7.44446 25.61193,7.46026 25.52619,7.50467 L 24.71767,7.92391 28.68808,12.05759 29.55903,11.60674 Z"
       id="path23" />
    <polygon
       points="36.44614,5.20975 34.78472,5.78554 34.31014,4.41191 36.44464,3.67354 36.16184,2.85539 32.99544,3.95203 34.79149,9.14698 37.95864,8.05034 37.67886,7.23143 35.5406,7.97206 35.05699,6.57209 36.71841,5.99629 "
       id="polygon23" />
    <path
       d="M 40.99944,7.28939 C 41.30405,7.2209 41.56428,7.11929 41.78089,6.98606 41.99825,6.85359 42.17124,6.69779 42.2991,6.52091 42.42621,6.34253 42.51044,6.14758 42.54955,5.93458 42.58866,5.72158 42.58264,5.50104 42.53,5.27223 42.3886,4.65052 41.95388,4.33515 41.22508,4.32537 41.37099,4.23354 41.49133,4.13344 41.58685,4.02505 41.68237,3.91742 41.75532,3.80452 41.80496,3.6886 41.85535,3.57269 41.88468,3.45226 41.89371,3.32882 41.90198,3.20538 41.89221,3.08119 41.86363,2.957 41.81474,2.73948 41.73351,2.55056 41.62295,2.39099 41.51164,2.23067 41.36422,2.10648 41.18146,2.01766 40.9987,1.9296 40.77758,1.87917 40.51734,1.86713 40.25711,1.85584 39.95551,1.88971 39.6118,1.96799 L 37.79169,2.38271 39.01162,7.7425 40.99946,7.28939 Z M 41.16866,5.00502 C 41.25214,5.05169 41.31833,5.11566 41.37023,5.19695 41.42137,5.27899 41.45898,5.37458 41.48455,5.48522 41.50787,5.58758 41.51689,5.68919 41.51163,5.79081 41.50637,5.89317 41.47854,5.98726 41.4304,6.07457 41.38076,6.16263 41.30404,6.24166 41.20176,6.31016 41.09797,6.37865 40.96108,6.43285 40.79261,6.47048 L 39.88481,6.67747 39.54185,5.17137 40.44589,4.96589 C 40.60759,4.92976 40.74749,4.91546 40.86632,4.92299 40.98591,4.93127 41.08669,4.95837 41.16867,5.00503 Z M 39.79605,2.78313 C 40.09765,2.71539 40.3308,2.71991 40.49627,2.80044 40.66098,2.87947 40.77455,3.0571 40.83773,3.33183 40.8979,3.59527 40.86029,3.803 40.72491,3.95429 40.58878,4.10407 40.37217,4.21472 40.07358,4.28246 L 39.37562,4.44127 39.03867,2.95625 39.79605,2.78314 Z"
       id="path24" />
    <path
       d="M 46.5222,5.66512 C 46.74332,5.90296 47.00731,6.08361 47.31267,6.20554 47.61803,6.32898 47.95573,6.37941 48.32802,6.35909 48.73792,6.33651 49.08841,6.24393 49.37947,6.0806 49.66979,5.91878 49.9067,5.69297 50.08947,5.40244 L 49.62993,4.95987 C 49.58631,4.91847 49.53516,4.89966 49.478,4.90191 49.44641,4.90417 49.41783,4.9132 49.39,4.92976 49.36217,4.94707 49.3351,4.96739 49.30802,4.98997 49.24409,5.06825 49.1779,5.13448 49.11247,5.18792 49.04628,5.24061 48.97408,5.28652 48.89737,5.3219 48.82065,5.35803 48.73792,5.38437 48.64767,5.40244 48.55742,5.419 48.45588,5.43179 48.34306,5.43782 48.15278,5.44836 47.97227,5.41675 47.80304,5.34148 47.63381,5.26621 47.48264,5.15181 47.35102,4.99751 47.22015,4.84246 47.11185,4.65053 47.02761,4.42021 46.94262,4.19064 46.89148,3.92495 46.87568,3.62463 46.85913,3.32732 46.87643,3.06012 46.92833,2.82379 46.97947,2.5867 47.0607,2.38423 47.17051,2.21714 47.27957,2.04929 47.41495,1.91908 47.57515,1.82575 47.7361,1.73167 47.91661,1.68048 48.11667,1.66919 48.30169,1.65865 48.45437,1.6722 48.57546,1.70983 48.6958,1.74746 48.79658,1.79037 48.87931,1.83854 48.96054,1.88596 49.02973,1.93112 49.08539,1.97176 49.14105,2.0124 49.19821,2.03197 49.25537,2.02821 49.31328,2.02595 49.35766,2.0109 49.38774,1.98455 49.41933,1.95745 49.4449,1.92885 49.46822,1.89724 L 49.80366,1.36886 C 49.60209,1.16413 49.35465,1.00381 49.06433,0.88865 48.77326,0.77424 48.44308,0.72683 48.07455,0.74715 47.71128,0.76747 47.3811,0.85403 47.08627,1.00908 46.79144,1.16338 46.54174,1.37112 46.33867,1.63079 46.13485,1.89122 45.98217,2.19605 45.88139,2.54604 45.78061,2.89603 45.7415,3.27538 45.76406,3.68634 45.78662,4.09354 45.86334,4.46611 45.99421,4.80331 46.12433,5.14051 46.30032,5.42728 46.52219,5.66512 Z"
       id="path25" />
    <path
       d="M 55.57163,1.74971 C 55.35653,1.48326 55.09028,1.268 54.77289,1.10241 54.4555,0.93757 54.09749,0.84198 53.69812,0.81338 53.30025,0.78553 52.93172,0.83069 52.59477,0.95037 52.25632,1.06929 51.96224,1.24467 51.71104,1.47724 51.45983,1.71057 51.25902,1.99357 51.10634,2.32701 50.95517,2.6612 50.86491,3.02775 50.83633,3.42667 50.80775,3.82784 50.84611,4.20569 50.9499,4.55719 51.05444,4.90869 51.21389,5.21879 51.4305,5.48524 51.64711,5.75244 51.91411,5.96695 52.2315,6.13028 52.54889,6.29361 52.9069,6.3892 53.30627,6.4178 53.70489,6.44565 54.07267,6.40049 54.41037,6.28307 54.74732,6.16641 55.04064,5.99028 55.29034,5.7562 55.54079,5.52212 55.74086,5.23761 55.89203,4.90417 56.04245,4.56998 56.1312,4.20193 56.15978,3.8 56.18761,3.40033 56.15,3.02625 56.04772,2.67551 55.94543,2.32552 55.78674,2.01692 55.57163,1.74972 Z M 55.05343,3.72247 C 55.03312,4.01677 54.97897,4.27794 54.89097,4.506 54.80297,4.73331 54.68715,4.92298 54.54274,5.07427 54.39683,5.22631 54.2261,5.33846 54.02905,5.40996 53.83275,5.48222 53.61313,5.50931 53.37095,5.49275 53.12877,5.47544 52.91367,5.41748 52.72789,5.31888 52.54061,5.22028 52.38643,5.0848 52.26459,4.91469 52.142,4.74383 52.054,4.54061 51.99834,4.30277 51.94344,4.06493 51.92614,3.79848 51.94644,3.50494 51.96675,3.2129 52.0209,2.95398 52.1089,2.72743 52.1969,2.50163 52.31347,2.31195 52.45788,2.15841 52.60229,2.00562 52.77452,1.89196 52.97233,1.81895 53.17164,1.74594 53.39201,1.71809 53.63419,1.73465 53.87637,1.75196 54.08922,1.80992 54.27499,1.91078 54.46001,2.01089 54.61344,2.14637 54.73528,2.31873 54.85712,2.49034 54.94662,2.69431 55.00153,2.9299 55.05719,3.16624 55.07449,3.43043 55.05343,3.72247 Z"
       id="path26" />
    <path
       d="M 60.63787,7.45121 C 60.68676,7.4911 60.7537,7.52046 60.83643,7.53852 L 61.38322,7.65368 62.52267,2.27583 61.58779,2.07712 60.91991,5.22781 C 60.88606,5.38738 60.85899,5.55823 60.83718,5.73963 L 58.93057,1.68799 C 58.90801,1.64584 58.88695,1.61197 58.8689,1.58563 58.85085,1.55929 58.82979,1.53746 58.80647,1.51939 58.78391,1.50208 58.75608,1.48778 58.72524,1.47649 58.6929,1.46595 58.65529,1.45617 58.60866,1.44638 L 58.05059,1.32746 56.91189,6.70531 57.85053,6.90477 58.52593,3.7172 C 58.55601,3.57419 58.58083,3.41764 58.59964,3.24678 L 60.50399,7.27659 C 60.54385,7.35336 60.58823,7.41057 60.63787,7.45121 Z"
       id="path27" />
    <path
       d="M 63.10405,8.05711 C 63.2274,8.16625 63.36052,8.2641 63.50493,8.34915 63.64934,8.43495 63.79976,8.5042 63.9562,8.55764 64.23373,8.65172 64.49471,8.69162 64.7399,8.67581 64.98584,8.66 65.20922,8.6013 65.40928,8.49893 65.61085,8.39732 65.78458,8.25582 65.932,8.07593 66.07942,7.89604 66.19223,7.6883 66.27271,7.45347 66.34642,7.23595 66.3765,7.041 66.36372,6.86789 66.35169,6.69478 66.31032,6.53671 66.24037,6.39672 66.17042,6.25597 66.07942,6.12802 65.96886,6.01286 65.8583,5.89921 65.74022,5.79157 65.61687,5.69297 65.49277,5.59362 65.37168,5.49878 65.25209,5.40846 65.1325,5.31889 65.02946,5.22707 64.94297,5.13524 64.85723,5.04266 64.79405,4.94782 64.75645,4.84922 64.71884,4.74987 64.7196,4.64223 64.76021,4.52407 64.82339,4.33891 64.93395,4.20795 65.09189,4.13343 65.24983,4.05967 65.44538,4.06268 65.68079,4.14246 65.81467,4.18762 65.92523,4.24558 66.01473,4.31708 66.10423,4.38858 66.18019,4.45858 66.24262,4.52783 66.30429,4.59708 66.35845,4.6603 66.40357,4.716 66.44794,4.77245 66.49533,4.80858 66.54497,4.82514 66.59762,4.8432 66.645,4.84772 66.68787,4.83718 66.73074,4.82664 66.77361,4.8003 66.81799,4.7574 L 67.24519,4.36074 C 67.1256,4.12365 66.95412,3.91365 66.7315,3.73075 66.51038,3.5471 66.25015,3.40484 65.95306,3.30398 65.68982,3.21366 65.44012,3.17678 65.20696,3.19183 64.97305,3.20613 64.76171,3.26108 64.57293,3.35365 64.3834,3.44698 64.22094,3.57193 64.08706,3.72773 63.95243,3.88504 63.8524,4.05891 63.78697,4.25009 63.70574,4.48944 63.66889,4.70169 63.67867,4.8861 63.68694,5.06975 63.72455,5.23384 63.79224,5.3791 63.85918,5.52437 63.94868,5.65383 64.06074,5.76597 64.1728,5.87811 64.29013,5.98199 64.41348,6.07682 64.53683,6.1709 64.65867,6.26123 64.77976,6.34778 64.90085,6.43433 65.00389,6.52315 65.08888,6.61423 65.17462,6.70606 65.23479,6.80541 65.27014,6.91078 65.30549,7.01615 65.30098,7.13508 65.2551,7.2683 65.17613,7.50389 65.04977,7.65894 64.87904,7.73496 64.70756,7.81023 64.50449,7.80872 64.26908,7.72819 64.10738,7.67324 63.97576,7.60174 63.87497,7.51368 63.77419,7.42486 63.68845,7.3353 63.62076,7.24723 63.55157,7.15766 63.4914,7.07863 63.44176,7.00713 63.39212,6.93563 63.33496,6.88971 63.27253,6.86864 63.2259,6.85283 63.17776,6.84982 63.12888,6.85961 63.08074,6.86939 63.03863,6.88972 63.00177,6.92058 L 62.52944,7.3067 C 62.59036,7.44293 62.67009,7.57691 62.77012,7.70336 62.8694,7.82981 62.98071,7.94873 63.10406,8.05712 Z"
       id="path28" />
    <path
       d="M 67.90629,9.86804 C 68.1417,10.1375 68.43879,10.35878 68.7998,10.53115 69.16006,10.70426 69.51882,10.7991 69.87532,10.81491 70.23257,10.82921 70.57027,10.77502 70.88842,10.64857 71.20732,10.52363 71.49838,10.3332 71.76087,10.07804 72.02336,9.82364 72.24297,9.51504 72.41671,9.1515 72.59045,8.79097 72.69349,8.42893 72.72733,8.06539 72.76042,7.70185 72.72733,7.35637 72.62504,7.02971 72.5235,6.70154 72.35578,6.40349 72.12112,6.13252 71.88721,5.86231 71.59013,5.64102 71.22911,5.46716 70.86885,5.29405 70.50934,5.20071 70.15284,5.18641 69.79559,5.17211 69.45714,5.22781 69.13824,5.35125 68.81784,5.47469 68.52677,5.66286 68.26278,5.91801 67.99804,6.17166 67.77917,6.4795 67.60694,6.84004 67.4317,7.20358 67.32866,7.56788 67.29557,7.93292 67.26248,8.29796 67.29783,8.64495 67.40011,8.97236 67.50315,9.30053 67.67162,9.59858 67.90628,9.86804 Z M 68.36358,8.08346 C 68.39968,7.84185 68.48241,7.5882 68.60952,7.32175 68.73663,7.05831 68.88179,6.83778 69.0465,6.6594 69.21121,6.48177 69.38946,6.34855 69.5805,6.25973 69.77154,6.17016 69.9731,6.12876 70.18445,6.13479 70.39579,6.13931 70.6109,6.195 70.83052,6.29963 71.04863,6.405 71.22613,6.53823 71.36076,6.70005 71.49689,6.86112 71.5894,7.04402 71.63979,7.24875 71.68868,7.45348 71.6962,7.67627 71.6601,7.91562 71.6255,8.15648 71.54427,8.40787 71.41717,8.67206 71.28931,8.93775 71.1434,9.16055 70.97794,9.33968 70.81248,9.51881 70.63422,9.65279 70.44394,9.7401 70.2529,9.82666 70.05284,9.86805 69.84375,9.86203 69.63391,9.85601 69.41956,9.80106 69.20069,9.69569 68.98258,9.59032 68.80433,9.45785 68.66744,9.29677 68.5298,9.1357 68.43579,8.9543 68.3854,8.75033 68.33501,8.54711 68.32749,8.32507 68.36359,8.08346 Z"
       id="path29" />
    <path
       d="M 72.98005,12.75831 74.13229,10.98501 74.44066,11.18522 C 74.51888,11.23715 74.57303,11.28758 74.60086,11.33952 74.62869,11.38995 74.64147,11.45468 74.64072,11.5322 L 74.54595,13.51549 C 74.54445,13.6886 74.6174,13.82333 74.76256,13.91892 L 75.58462,14.45332 75.64554,12.10272 C 75.64404,12.01014 75.632,11.92434 75.61094,11.84606 75.58913,11.76778 75.5598,11.69402 75.52294,11.62327 75.70871,11.66843 75.88621,11.68499 76.0592,11.67295 76.23068,11.66166 76.39314,11.62553 76.54582,11.56532 76.6985,11.50511 76.8399,11.42081 76.96926,11.31167 77.09862,11.20404 77.21219,11.07533 77.30997,10.92404 77.43783,10.72759 77.52282,10.52588 77.56494,10.31964 77.60631,10.11341 77.59578,9.90567 77.5326,9.69643 77.46942,9.48794 77.34984,9.2787 77.17309,9.06945 76.99634,8.86096 76.75341,8.65623 76.44655,8.45677 L 75.0589,7.55356 72.06474,12.16218 72.98006,12.7583 Z M 75.51918,8.85043 75.99151,9.15752 C 76.27731,9.34418 76.45105,9.54289 76.51047,9.75439 76.57064,9.96664 76.52702,10.18417 76.38186,10.40846 76.30815,10.52287 76.22316,10.61695 76.12689,10.69071 76.03137,10.76522 75.92683,10.81415 75.81175,10.83823 75.69668,10.86307 75.57333,10.8593 75.44096,10.8292 75.30708,10.79834 75.16719,10.73436 75.01902,10.63802 L 74.55421,10.3362 75.51917,8.85042 Z"
       id="path30" />
    <polygon
       points="79.35346,10.42879 78.79238,11.11447 79.9386,12.0523 77.0204,15.62148 77.85901,16.30867 80.77796,12.73949 81.92343,13.67732 82.48451,12.99164 "
       id="polygon30" />
    <rect
       x="79.273453"
       y="15.82458"
       width="5.4955001"
       height="1.09237"
       transform="rotate(-45.94214,82.021205,16.370768)"
       id="rect30" />
    <path
       d="M 82.59582,18.94152 C 82.45217,19.2027 82.36718,19.47441 82.34085,19.75817 82.31453,20.04042 82.34988,20.32719 82.44915,20.61848 82.54692,20.90901 82.71164,21.19051 82.94103,21.46223 83.17118,21.7347 83.42088,21.94168 83.69164,22.08544 83.9609,22.2292 84.23692,22.31199 84.51972,22.33156 84.80327,22.35263 85.08456,22.3135 85.3666,22.21414 85.64714,22.11554 85.91414,21.95823 86.16685,21.74372 L 88.66687,19.62494 87.9659,18.797 85.46588,20.91728 C 85.31019,21.049 85.1515,21.1476 84.98979,21.21233 84.82733,21.27706 84.66939,21.30717 84.51445,21.3034 84.35876,21.29888 84.20909,21.2605 84.06243,21.18674 83.91727,21.11298 83.78264,21.00233 83.65779,20.85556 83.53294,20.70728 83.44569,20.556 83.39681,20.40019 83.34792,20.24514 83.33514,20.09009 83.3562,19.93579 83.37726,19.78149 83.43367,19.6302 83.52392,19.48118 83.61493,19.33215 83.73827,19.1914 83.89321,19.05968 L 86.39323,16.94015 85.69076,16.1092 83.19074,18.22873 C 82.93803,18.44324 82.74022,18.68033 82.59582,18.94151 Z"
       id="path31" />
    <path
       d="M 85.77952,25.00807 88.71953,23.22499 C 88.78572,23.1851 88.85491,23.13994 88.92862,23.088 89.00233,23.03682 89.07679,22.98263 89.15125,22.92392 L 87.42139,26.02644 C 87.32888,26.183 87.32662,26.33278 87.41387,26.47654 L 87.49359,26.60751 C 87.57933,26.74901 87.71246,26.81525 87.89296,26.80471 L 91.41736,26.69633 C 91.33463,26.73547 91.2549,26.77687 91.17819,26.81826 91.10223,26.86041 91.03228,26.9003 90.96835,26.93944 L 88.02909,28.72252 88.52473,29.53992 93.22168,26.6903 92.79824,25.98881 C 92.77342,25.94892 92.7501,25.91354 92.72905,25.88494 92.70874,25.85559 92.68693,25.8315 92.66437,25.81268 92.64181,25.79462 92.61473,25.78182 92.58239,25.77354 92.55005,25.76526 92.51019,25.763 92.46431,25.76526 L 89.04671,25.85859 C 88.94894,25.86235 88.85116,25.87214 88.75263,25.88719 88.65335,25.90149 88.55257,25.91805 88.45028,25.93536 88.57438,25.7788 88.6872,25.61547 88.78647,25.44462 L 90.45014,22.44145 C 90.47421,22.40156 90.48925,22.36543 90.49602,22.33307 90.50279,22.30146 90.50354,22.27135 90.49828,22.24049 90.49226,22.21038 90.48173,22.17952 90.46594,22.14866 90.45015,22.11705 90.43134,22.08167 90.40652,22.04178 L 89.98007,21.33728 85.28162,24.1869 Z"
       id="path32" />
    <path
       d="M 8.73579,65.59194 C 8.73579,64.92056 8.17133,64.36433 7.50082,64.36433 6.83821,64.36433 6.28202,64.92056 6.28202,65.59194 6.28202,66.25505 6.83821,66.8203 7.50082,66.8203 8.17133,66.8203 8.73579,66.25504 8.73579,65.59194 Z"
       id="path33" />
    <path
       d="M 91.8887,33.03754 C 91.8887,33.70065 92.44489,34.2659 93.1075,34.2659 93.77801,34.2659 94.34247,33.70064 94.34247,33.03754 94.34247,32.36616 93.77801,31.80993 93.1075,31.80993 92.44489,31.80993 91.8887,32.36616 91.8887,33.03754 Z"
       id="path34" />
  </g>
  <g
     id="g40"
     transform="matrix(1.0340983,0,0,1.0340983,-2.0200903,-0.76789586)">
    <path
       d="M 66.60074,51.67563 C 67.26907,50.83334 67.12784,49.603 66.28446,48.9324 65.44102,48.26297 64.20963,48.4053 63.54014,49.24875 62.71092,50.29422 61.95774,50.92355 61.0991,51.28983 59.51554,51.96366 58.17332,51.67887 56.87559,50.39316 55.60398,49.13352 54.36497,47.76084 53.16294,46.43051 52.57493,45.77951 51.98588,45.12741 51.3892,44.48288 50.36973,43.38193 49.34489,42.28531 48.32102,41.18759 L 48.23081,41.09085 C 46.00388,38.70743 43.70194,36.2424 41.48148,33.76657 39.7208,31.80264 37.0004,30.82986 34.38327,31.22336 31.70853,31.62332 29.54568,33.33512 28.29257,36.04245 27.08511,38.64981 27.49374,41.61252 29.35769,43.77426 32.63668,47.57718 35.40273,50.7214 38.6426,53.67874 39.96749,54.8873 41.57064,55.53067 43.27804,55.5394 44.38552,55.54483 46.0549,55.41983 47.75802,54.27323 48.50363,53.77115 49.19808,53.25486 49.5035,52.46689 49.81435,51.66043 49.52413,50.73337 48.79598,50.2106 48.0895,49.70193 47.16244,49.73782 46.48861,50.29751 46.40377,50.36813 46.31142,50.44967 46.21035,50.53774 45.15176,51.4648 43.8345,52.61904 41.14889,50.69094 38.68826,48.92373 36.78305,46.60763 34.57565,43.92532 33.85617,43.05148 33.11166,42.14724 32.31607,41.22342 31.46616,40.23764 31.2825,38.88132 31.83676,37.68247 32.32046,36.63914 33.25406,35.34141 34.96255,35.08603 36.25698,34.89145 37.70791,35.40878 38.57418,36.37393 40.81307,38.87149 43.13241,41.35605 45.37563,43.75686 46.42666,44.88174 47.47756,46.00771 48.52315,47.13699 49.10897,47.76956 49.68715,48.40963 50.27407,49.0596 51.50655,50.42361 52.78036,51.83328 54.12588,53.16684 56.55496,55.57413 59.57424,56.18387 62.63156,54.88297 64.09988,54.25583 65.36172,53.23746 66.60074,51.67563 Z"
       id="path35" />
    <path
       d="M 69.34055,38.08291 C 70.60349,37.48403 71.59684,36.35696 71.69138,34.98965 71.93161,32.61605 69.97745,30.34451 67.1027,29.99343 65.33769,29.76955 63.69981,30.29238 62.5391,31.25423 61.91849,31.77047 61.75108,32.72579 62.2891,33.39968 62.87705,34.10067 63.55527,34.22341 64.66495,33.61379 65.06272,33.38772 65.66049,33.19967 66.31803,33.24532 67.55814,33.3312 67.91349,34.44844 67.87876,34.95601 67.87327,35.03102 67.88096,36.76125 66.13438,36.64064 L 65.47575,36.59499 C 64.74211,36.54494 64.00846,37.23079 63.95414,38.01546 63.89542,38.85024 64.50626,39.57942 65.26597,39.63271 L 66.07566,39.68813 C 68.30375,39.84249 68.07114,41.7336 68.02439,42.03579 67.98093,42.90524 66.58536,44.38009 64.09653,42.70303 63.25205,42.13467 57.22873,34.56906 57.22873,34.56906 54.37467,30.87924 49.52512,30.22928 45.69833,33.02469 45.27774,33.33225 45.00058,33.78549 44.92013,34.30179 44.84078,34.81693 44.96578,35.33316 45.2734,35.75376 45.58096,36.17435 46.0342,36.45157 46.54934,36.53196 47.06777,36.6124 47.58181,36.48631 48.00246,36.17875 50.61306,34.27134 52.93996,35.40812 54.13662,36.95585 54.13662,36.95585 60.60336,45.27348 62.26839,46.15489 63.34877,46.72661 64.47689,47.05699 65.62349,47.13634 69.14272,47.37981 71.28597,45.44084 71.86421,42.78459 72.24348,41.0435 71.11751,38.8676 69.34053,38.08293 Z"
       id="path36" />
    <path
       d="M 33.89493,67.19205 C 33.8422,67.19205 33.78751,67.21646 33.73184,67.26529 33.63028,67.37467 33.52774,67.46744 33.4252,67.54654 33.32168,67.62564 33.21133,67.69009 33.09415,67.74088 32.97697,67.79167 32.84903,67.82877 32.71134,67.85318 32.57267,67.87857 32.41642,67.89029 32.24161,67.89029 31.95743,67.89029 31.69278,67.82877 31.44571,67.7067 31.19962,67.58463 30.98477,67.40787 30.80313,67.17643 30.62149,66.94596 30.47793,66.66178 30.37247,66.32584 30.26798,65.9899 30.21524,65.60904 30.21524,65.18229 30.21524,64.75846 30.26504,64.37956 30.36465,64.04557 30.46426,63.71158 30.60391,63.42838 30.78457,63.19498 30.96523,62.96256 31.18008,62.78482 31.43008,62.66275 31.68008,62.5397 31.95645,62.47818 32.25723,62.47818 32.51211,62.47818 32.72598,62.51041 32.89688,62.57291 33.06876,62.63639 33.21231,62.70572 33.32754,62.78092 33.44375,62.85612 33.53652,62.92447 33.60879,62.98795 33.68008,63.05045 33.74551,63.08268 33.80508,63.08268 33.85488,63.08268 33.89492,63.07194 33.92617,63.05045 33.95742,63.02994 33.98379,63.00357 34.00527,62.97233 L 34.31972,62.53092 C 34.06777,62.26139 33.77284,62.0485 33.43495,61.8903 33.09804,61.73307 32.70643,61.65495 32.2621,61.65495 31.81386,61.65495 31.40468,61.73991 31.03358,61.91179 30.66346,62.08367 30.34413,62.32488 30.0785,62.6364 29.81287,62.94792 29.60584,63.31902 29.45936,63.75163 29.3119,64.18425 29.23866,64.66081 29.23866,65.18229 29.23866,65.70377 29.308,66.18034 29.44569,66.61198 29.58436,67.0446 29.78163,67.41569 30.03944,67.72526 30.29628,68.03483 30.60585,68.27506 30.96815,68.44694 31.33045,68.61784 31.73573,68.70378 32.18397,68.70378 32.69081,68.70378 33.12635,68.61296 33.49061,68.43132 33.85487,68.2487 34.16053,67.99382 34.40858,67.66472 L 34.03163,67.25554 C 33.98866,67.21355 33.94374,67.19206 33.89491,67.19206 Z"
       id="path37" />
    <polygon
       points="36.52969,68.63052 36.52969,65.50162 39.83633,65.50162 39.83633,68.63052 40.79727,68.63052 40.79727,61.73306 39.83633,61.73306 39.83633,64.80435 36.52969,64.80435 36.52969,61.73306 35.56876,61.73306 35.56876,68.63052 "
       id="polygon37" />
    <path
       d="M 44.37637,61.73306 41.78848,68.63052 H 42.52871 C 42.60879,68.63052 42.67812,68.60806 42.73574,68.56216 42.79336,68.51724 42.8334,68.4645 42.8539,68.40493 L 43.43691,66.75161 H 46.28164 L 46.86953,68.40981 C 46.89785,68.47329 46.93691,68.52504 46.98769,68.56801 47.03847,68.60903 47.10585,68.63051 47.18984,68.63051 H 47.93007 L 45.34706,61.73305 H 44.37636 Z M 43.67813,66.069 44.65469,63.29752 C 44.68594,63.21354 44.71914,63.11588 44.7543,63.00357 44.78946,62.89126 44.82461,62.76919 44.85879,62.63638 44.89102,62.76529 44.92422,62.88638 44.95938,62.99868 44.99356,63.11001 45.02872,63.20864 45.06387,63.29263 L 46.04043,66.069 Z"
       id="path38" />
    <path
       d="M 52.79629,62.31607 C 52.59317,62.13052 52.33633,61.98697 52.02676,61.88541 51.71719,61.78385 51.35196,61.73307 50.93203,61.73307 H 48.95351 V 68.63053 H 49.90859 V 66.05826 H 50.93203 C 51.33535,66.05826 51.68887,66.00553 51.99551,65.8981 52.30117,65.79165 52.55899,65.64126 52.76699,65.44693 52.97499,65.2526 53.13222,65.0231 53.23965,64.7565 53.3461,64.49088 53.39981,64.19693 53.39981,63.87466 53.39981,63.54946 53.35001,63.25454 53.2504,62.99087 53.14981,62.72622 52.99845,62.50161 52.7963,62.31607 Z M 52.34708,64.45279 C 52.28263,64.62759 52.18595,64.77799 52.05802,64.90396 51.93107,65.02994 51.77189,65.12759 51.58341,65.19791 51.39493,65.26725 51.17716,65.3024 50.93204,65.3024 H 49.9086 V 62.48404 H 50.93204 C 51.44376,62.48404 51.82266,62.60513 52.07169,62.8483 52.31974,63.09244 52.44376,63.43424 52.44376,63.87467 52.44376,64.08463 52.41153,64.27701 52.34708,64.45279 Z"
       id="path39" />
    <polygon
       points="59.01504,62.53091 59.01504,61.73306 54.02872,61.73306 54.02872,62.53091 56.04434,62.53091 56.04434,68.63052 57.00528,68.63052 57.00528,62.53091 "
       id="polygon39" />
    <polygon
       points="64.14883,62.5104 64.14883,61.73306 60.11758,61.73306 60.11758,68.63052 64.14883,68.63052 64.15469,67.85318 61.07852,67.85318 61.07852,65.5231 63.55118,65.5231 63.55118,64.77212 61.07852,64.77212 61.07852,62.5104 "
       id="polygon40" />
    <path
       d="M 68.49454,65.73013 C 68.44278,65.68325 68.38614,65.64029 68.32657,65.6022 68.57559,65.53872 68.79727,65.44693 68.99356,65.32583 69.18985,65.20571 69.35489,65.06118 69.48965,64.89321 69.62441,64.72524 69.72793,64.53676 69.79922,64.32583 69.87149,64.11685 69.90664,63.89028 69.90664,63.64907 69.90664,63.35512 69.85976,63.09048 69.76504,62.85415 69.67032,62.61782 69.52481,62.41665 69.32656,62.25063 69.12929,62.08461 68.87734,61.95668 68.5707,61.86684 68.26504,61.77797 67.90175,61.73305 67.48183,61.73305 H 65.59218 V 68.63051 H 66.54726 V 65.7643 H 67.18788 C 67.31093,65.7643 67.40272,65.7809 67.46327,65.8141 67.52479,65.8473 67.58143,65.90297 67.63417,65.98012 L 69.26698,68.43617 C 69.3578,68.56605 69.48573,68.63051 69.64979,68.63051 H 70.50038 L 68.64686,65.90102 C 68.59803,65.83461 68.54725,65.77797 68.49452,65.73012 Z M 67.44571,65.06607 H 66.54727 V 62.48404 H 67.48184 C 68.47891,62.48404 68.97793,62.89517 68.97793,63.71744 68.97793,63.91666 68.9457,64.10025 68.88125,64.26627 68.81582,64.43229 68.71914,64.57486 68.58926,64.694 68.46035,64.81314 68.3002,64.90494 68.10879,64.96939 67.91836,65.03384 67.69766,65.06607 67.4457,65.06607 Z"
       id="path40" />
  </g>
</svg>
