<?xml version="1.0" encoding="UTF-8" standalone="no"?>
<svg
   id="Layer_1"
   width="120"
   height="120"
   version="1.1"
   viewBox="0 0 120 120"
   xmlns="http://www.w3.org/2000/svg"
   xmlns:svg="http://www.w3.org/2000/svg">
  <defs
     id="defs3765" />
  <g
     id="g1592"
     transform="matrix(1.2409175,0,0,1.2409175,-2.5178216,-1.2977705)"
     style="fill:#002a56">
    <path
       d="m 92.22694,40.31962 3.79441,0.41171 c 0.04889,0.0045 0.10379,0.009 0.16321,0.01505 0.06017,0.006 0.12259,0.0098 0.18728,0.01129 -0.05942,0.02484 -0.11658,0.05043 -0.17073,0.07677 -0.05415,0.02484 -0.10304,0.05043 -0.14591,0.07602 l -3.38752,1.74846 0.18352,0.96794 5.70102,0.58182 -0.1587,-0.83773 c -0.01579,-0.08731 -0.0549,-0.15806 -0.11357,-0.21225 -0.06017,-0.05495 -0.12259,-0.0858 -0.18878,-0.09333 l -3.27169,-0.20699 c -0.08273,-0.0068 -0.17223,-0.01129 -0.26775,-0.0143 -0.09627,-0.003 -0.19781,-0.0045 -0.30461,-0.0038 0.09928,-0.0414 0.19329,-0.08279 0.28279,-0.12344 0.08875,-0.03989 0.16998,-0.08129 0.24368,-0.12344 l 2.93926,-1.5332 c 0.06844,-0.03763 0.11883,-0.09032 0.14892,-0.15656 0.03159,-0.06699 0.03836,-0.14752 0.02031,-0.24161 L 97.82266,40.34896 C 97.80687,40.26165 97.76851,40.1924 97.70984,40.13821 97.65042,40.08477 97.588,40.05316 97.52106,40.04337 l -3.292,-0.35526 c -0.08649,-0.01505 -0.18051,-0.02333 -0.28054,-0.0271 -0.10003,-0.0038 -0.20533,-0.006 -0.31514,-0.0075 0.20683,-0.08129 0.38659,-0.16107 0.54002,-0.23784 L 97.14124,38.03 c 0.06619,-0.03462 0.11507,-0.08731 0.14666,-0.15656 0.03234,-0.06925 0.03911,-0.15129 0.02106,-0.24612 l -0.16847,-0.89568 -5.09557,2.62382 0.18201,0.96417 z"
       id="path1500" />
    <path
       d="m 97.87832,46.23112 c -0.25572,-0.22806 -0.55656,-0.40193 -0.90254,-0.5201 -0.34748,-0.11968 -0.72052,-0.17387 -1.1199,-0.16333 -0.40313,0.01054 -0.77392,0.0843 -1.11388,0.22204 -0.33996,0.13774 -0.63178,0.32741 -0.87621,0.56827 -0.24443,0.24086 -0.43322,0.52762 -0.56484,0.85955 -0.13162,0.33268 -0.19254,0.69773 -0.18201,1.09815 0.01053,0.40042 0.09025,0.76321 0.23992,1.08761 0.14892,0.32365 0.35274,0.59988 0.60996,0.82568 0.25722,0.22655 0.55882,0.39892 0.90479,0.51709 0.34672,0.11666 0.72128,0.17086 1.12366,0.16032 0.40012,-0.01129 0.76941,-0.0843 1.10786,-0.22053 0.33845,-0.13548 0.63027,-0.32365 0.87471,-0.563 0.24444,-0.24086 0.43322,-0.52612 0.56709,-0.8588 0.13237,-0.33118 0.19405,-0.69773 0.18352,-1.0974 -0.01128,-0.39967 -0.09101,-0.76246 -0.24218,-1.08686 -0.15042,-0.3244 -0.35425,-0.60139 -0.60996,-0.82869 z m -0.18277,2.59522 c -0.08198,0.19419 -0.20232,0.35978 -0.36101,0.49827 -0.15945,0.13849 -0.35425,0.24612 -0.58439,0.32365 -0.22939,0.07828 -0.48963,0.12118 -0.7822,0.12871 -0.29483,0.0083 -0.55957,-0.02032 -0.79498,-0.0858 -0.23391,-0.06624 -0.43472,-0.16333 -0.59943,-0.29279 -0.16471,-0.12946 -0.29257,-0.28903 -0.38283,-0.4787 -0.09101,-0.18967 -0.13914,-0.40569 -0.14591,-0.6488 -0.006,-0.24311 0.03084,-0.46214 0.11131,-0.65708 0.08047,-0.19494 0.19931,-0.36204 0.35725,-0.50053 0.15719,-0.13774 0.35199,-0.24537 0.58289,-0.32365 0.2309,-0.07753 0.49414,-0.12043 0.78897,-0.12795 0.29257,-0.0083 0.55506,0.02107 0.78821,0.0858 0.23391,0.06548 0.43397,0.16333 0.60019,0.29354 0.16622,0.12871 0.29483,0.28903 0.38659,0.47945 0.09176,0.19118 0.1414,0.40795 0.14817,0.65106 0.006,0.24236 -0.03159,0.46064 -0.11282,0.65483 z"
       id="path1502" />
    <path
       d="m 93.04749,53.00292 2.10216,0.21903 -0.03761,0.3658 c -0.0098,0.09408 -0.03159,0.16408 -0.06393,0.21301 -0.03309,0.04742 -0.08424,0.08806 -0.15418,0.12269 l -1.80658,0.81891 c -0.15569,0.07828 -0.24143,0.20397 -0.25948,0.37709 l -0.10154,0.97546 2.1187,-1.01536 c 0.08198,-0.04441 0.15268,-0.09333 0.2121,-0.14828 0.06092,-0.05495 0.11282,-0.11441 0.1587,-0.17989 0.04437,0.18516 0.11056,0.35225 0.20006,0.49978 0.088,0.14828 0.19405,0.27623 0.31739,0.38462 0.12334,0.10839 0.26249,0.1957 0.41742,0.26268 0.15569,0.06548 0.32266,0.10763 0.50016,0.12645 0.23391,0.02409 0.45127,0.0075 0.65434,-0.04817 0.20307,-0.0572 0.38207,-0.16107 0.54002,-0.31236 0.15644,-0.15204 0.28881,-0.35451 0.39336,-0.60665 0.10454,-0.2529 0.17675,-0.56149 0.2151,-0.92729 l 0.16998,-1.64685 -5.4641,-0.56676 -0.11206,1.08611 z m 2.87157,0.29881 1.7607,0.1829 -0.05791,0.55999 c -0.03535,0.34096 -0.13312,0.58483 -0.29408,0.73536 -0.16095,0.14978 -0.37455,0.21 -0.6408,0.1829 -0.13388,-0.01355 -0.25647,-0.04667 -0.36628,-0.0986 -0.10981,-0.05118 -0.20232,-0.12269 -0.27603,-0.21376 -0.0722,-0.09032 -0.12636,-0.20322 -0.15945,-0.33494 -0.0346,-0.13247 -0.04137,-0.28602 -0.02332,-0.46289 l 0.05716,-0.55096 z"
       id="path1504" />
    <polygon
       points="93.19415,58.17003 97.6933,59.12366 97.91968,58.05863 92.54583,56.91908 91.92459,59.85075 92.7993,60.03666 "
       id="polygon1506" />
    <path
       d="m 91.07771,62.66951 c -0.12636,0.3801 -0.1775,0.74665 -0.15193,1.10116 0.02482,0.35451 0.11583,0.67966 0.27227,0.97848 0.15719,0.29731 0.37606,0.55999 0.65735,0.78654 0.27979,0.22731 0.61147,0.40343 0.99354,0.53139 0.37982,0.1257 0.7491,0.18139 1.10786,0.16709 0.36026,-0.0143 0.69044,-0.09408 0.99429,-0.2386 0.30385,-0.14527 0.57161,-0.35225 0.80401,-0.62096 0.23165,-0.26946 0.4099,-0.59386 0.5355,-0.97321 l 0.63102,-1.90201 -5.21365,-1.7319 -0.63027,1.90201 z m 0.82055,0.27247 0.2858,-0.86482 3.5763,1.18772 -0.2858,0.86482 c -0.07672,0.23032 -0.18652,0.42451 -0.32943,0.57956 -0.1429,0.1558 -0.31363,0.27172 -0.50993,0.34774 -0.19705,0.07527 -0.41592,0.1114 -0.6581,0.10613 -0.24293,-0.0045 -0.50316,-0.05344 -0.77994,-0.14602 -0.28054,-0.09183 -0.51896,-0.21 -0.71827,-0.35075 -0.19856,-0.14226 -0.35425,-0.30182 -0.46631,-0.48021 -0.11206,-0.17839 -0.17825,-0.37257 -0.19931,-0.58332 -0.02031,-0.21 0.0075,-0.43053 0.08499,-0.66085 z"
       id="path1508" />
    <path
       d="m 87.89476,70.0442 2.58877,2.80672 c 0.03385,0.03613 0.0707,0.07527 0.11206,0.11968 0.04212,0.04366 0.08649,0.08731 0.13463,0.13097 -0.06243,-0.01957 -0.12184,-0.03839 -0.179,-0.05419 -0.05791,-0.01656 -0.11131,-0.02935 -0.15945,-0.03914 l -3.7019,-0.91073 -0.4979,0.84977 3.91325,4.18863 0.43096,-0.73461 c 0.04513,-0.07677 0.06318,-0.15505 0.05415,-0.23559 -0.009,-0.08054 -0.0361,-0.14451 -0.08123,-0.19268 l -2.32854,-2.3092 c -0.05866,-0.05946 -0.12259,-0.12193 -0.19254,-0.18817 -0.0707,-0.06548 -0.14666,-0.13172 -0.22714,-0.20172 0.10154,0.03312 0.19931,0.06473 0.29332,0.09258 0.09401,0.02785 0.18276,0.04968 0.2655,0.06699 l 3.22205,0.77902 c 0.07672,0.01581 0.14817,0.009 0.2151,-0.02032 0.06693,-0.02935 0.12485,-0.0858 0.17374,-0.16935 l 0.16095,-0.27473 c 0.04513,-0.07602 0.06243,-0.15355 0.05265,-0.23258 -0.009,-0.07978 -0.03535,-0.14527 -0.07972,-0.1957 l -2.24581,-2.43339 c -0.05716,-0.06849 -0.12109,-0.13623 -0.19405,-0.20473 -0.07371,-0.06925 -0.15117,-0.14 -0.2324,-0.21376 0.20834,0.07451 0.39636,0.13398 0.56258,0.17688 l 3.14684,0.90772 c 0.07296,0.01731 0.14365,0.0098 0.21285,-0.02107 0.06995,-0.03161 0.12936,-0.08882 0.17825,-0.17161 l 0.46029,-0.78579 -5.56338,-1.37589 -0.49489,0.846 z"
       id="path1510" />
    <rect
       x="86.00074"
       y="74.351952"
       width="1.0921"
       height="5.4948802"
       transform="rotate(-52.57919,86.546805,77.099387)"
       id="rect1512" />
    <path
       d="m 81.82671,78.45458 c -0.27227,0.29354 -0.47007,0.6059 -0.59567,0.93858 -0.12485,0.33268 -0.17675,0.66762 -0.15794,1.00331 0.01955,0.33645 0.10906,0.66612 0.27001,0.98901 0.16095,0.32289 0.38884,0.62171 0.68367,0.89643 0.29257,0.27322 0.60545,0.47644 0.93864,0.61343 0.33243,0.13623 0.66712,0.20172 1.00332,0.19645 0.33695,-0.0053 0.66637,-0.08204 0.98828,-0.23107 0.32266,-0.14828 0.61974,-0.36881 0.89276,-0.6616 l 1.36358,-1.46696 -4.0223,-3.7438 -1.36433,1.46621 z m 3.39203,3.15821 c -0.16471,0.17763 -0.34522,0.30784 -0.54002,0.38988 -0.19555,0.08279 -0.39787,0.11666 -0.60771,0.10462 -0.21059,-0.0128 -0.42494,-0.07301 -0.64306,-0.17763 -0.21887,-0.10613 -0.43547,-0.25741 -0.64907,-0.45763 -0.21586,-0.20096 -0.38508,-0.40644 -0.50692,-0.61794 -0.12184,-0.2115 -0.1963,-0.42225 -0.22488,-0.62999 -0.02783,-0.21 -0.0068,-0.41397 0.06167,-0.61343 0.06844,-0.19946 0.18577,-0.38913 0.35124,-0.56601 l 0.61974,-0.66687 2.75875,2.56812 -0.61974,0.66687 z"
       id="path1514" />
    <polygon
       points="79.70425,86.74979 80.26382,87.40988 82.81875,85.24068 79.26426,81.04904 76.70933,83.21825 77.26515,83.8806 78.99125,82.41514 79.94944,83.54566 78.60842,84.6837 79.14693,85.31745 80.4872,84.17941 81.42659,85.2881 "
       id="polygon1516" />
    <path
       d="m 72.15153,86.29819 0.79574,3.73552 c 0.0098,0.04817 0.02256,0.10086 0.0361,0.15957 0.01279,0.05871 0.02933,0.11968 0.04814,0.18215 -0.04287,-0.04892 -0.08499,-0.09484 -0.12636,-0.13924 -0.04061,-0.0429 -0.08048,-0.08129 -0.11733,-0.11365 l -2.71814,-2.67425 -0.86192,0.47644 1.2282,5.60064 0.74685,-0.41247 c 0.07672,-0.0429 0.13237,-0.10011 0.16546,-0.17387 0.03309,-0.07451 0.04287,-0.14301 0.02933,-0.20849 l -0.82507,-3.17478 c -0.01955,-0.08129 -0.04287,-0.16709 -0.0707,-0.25967 -0.02708,-0.09183 -0.05716,-0.18817 -0.09101,-0.28978 0.06919,0.08129 0.13764,0.15806 0.20457,0.22957 0.06619,0.0715 0.13162,0.13699 0.19405,0.19344 l 2.37367,2.31522 c 0.05791,0.05344 0.12259,0.0843 0.1948,0.09258 0.07371,0.009 0.15193,-0.0098 0.23616,-0.05645 l 0.27903,-0.15355 c 0.07672,-0.0429 0.13162,-0.10086 0.16321,-0.17387 0.03309,-0.07301 0.04362,-0.14301 0.03234,-0.20849 L 73.37671,88.0045 c -0.01354,-0.08731 -0.03385,-0.17914 -0.06243,-0.27473 -0.02783,-0.09709 -0.05866,-0.19795 -0.09025,-0.30257 0.1414,0.17086 0.27227,0.31688 0.39411,0.43956 l 2.2428,2.38748 c 0.05415,0.05193 0.11883,0.08204 0.19405,0.09107 0.07521,0.0083 0.15644,-0.01054 0.23992,-0.0572 l 0.79724,-0.44031 -4.08172,-4.02379 -0.85891,0.47418 z"
       id="path1518" />
    <polygon
       points="65.49683,94.41351 65.80068,95.22339 68.93624,94.04094 66.99955,88.89641 63.86399,90.07887 64.16483,90.88949 66.28203,90.09166 66.804,91.47808 65.15988,92.09829 65.45245,92.87655 67.09808,92.25635 67.60951,93.61568 "
       id="polygon1520" />
    <path
       d="m 60.83748,90.92186 c -0.3016,0.07753 -0.56032,0.18591 -0.77317,0.3244 -0.2136,0.13924 -0.38207,0.29956 -0.50542,0.48021 -0.12259,0.18139 -0.20081,0.37784 -0.23391,0.59235 -0.0346,0.21376 -0.02181,0.43429 0.0361,0.66085 0.15794,0.61794 0.60244,0.92203 1.33124,0.91149 -0.1429,0.09634 -0.26098,0.20021 -0.35425,0.31161 -0.09251,0.10989 -0.1617,0.2243 -0.20909,0.34096 -0.04663,0.11817 -0.07296,0.2386 -0.07897,0.36204 -0.0045,0.12419 0.009,0.24688 0.03986,0.37032 0.05566,0.21677 0.1414,0.40419 0.25722,0.56074 0.11507,0.15656 0.2655,0.27698 0.45052,0.36053 0.18502,0.08355 0.40765,0.12795 0.66788,0.13247 0.26023,0.0045 0.56108,-0.03763 0.90329,-0.12494 l 1.80733,-0.46365 -1.36283,-5.32516 -1.9758,0.5058 z m -0.1083,2.28888 C 60.64494,93.16708 60.57725,93.10461 60.5231,93.02408 60.47045,92.94354 60.42984,92.84871 60.40126,92.73957 60.37494,92.63721 60.3629,92.5356 60.36591,92.43398 c 0.003,-0.10236 0.02708,-0.1972 0.07371,-0.28602 0.04738,-0.08882 0.12184,-0.16935 0.22263,-0.2401 0.10078,-0.0715 0.23616,-0.12946 0.40388,-0.17236 l 0.90178,-0.23182 0.38358,1.49631 -0.89727,0.23032 c -0.16095,0.04064 -0.30085,0.05871 -0.42043,0.05419 -0.11883,-0.0053 -0.22037,-0.03011 -0.30461,-0.07376 z m 1.43278,2.18351 c -0.29934,0.07677 -0.53325,0.07753 -0.70022,0.0023 -0.16697,-0.07527 -0.28656,-0.24913 -0.35575,-0.5216 -0.06769,-0.26268 -0.03535,-0.47042 0.09627,-0.62547 0.13087,-0.1543 0.34447,-0.27021 0.64155,-0.34623 l 0.6927,-0.17763 0.37831,1.47599 -0.75287,0.19268 z"
       id="path1522" />
    <path
       d="M 55.92844,93.54192 C 55.78855,93.20924 55.60428,92.92699 55.37639,92.69516 55.14775,92.46409 54.88,92.29097 54.57163,92.17732 c -0.30837,-0.11441 -0.64832,-0.15656 -1.01911,-0.1257 -0.4099,0.03462 -0.75738,0.13699 -1.04318,0.30784 -0.2858,0.1701 -0.51745,0.40343 -0.69194,0.69773 l 0.47233,0.42978 c 0.04437,0.04064 0.09552,0.05796 0.15343,0.05344 0.03084,-0.0023 0.05942,-0.01204 0.08725,-0.03011 0.02708,-0.01731 0.05415,-0.03763 0.07972,-0.06247 0.06243,-0.07978 0.12636,-0.14752 0.19104,-0.20247 0.06468,-0.0557 0.13388,-0.10236 0.21059,-0.14075 0.07521,-0.03763 0.15794,-0.06699 0.24745,-0.08731 0.0895,-0.01957 0.19028,-0.03462 0.3031,-0.04366 0.18953,-0.01656 0.37004,0.01129 0.54227,0.08129 0.17223,0.07 0.32642,0.18064 0.46105,0.33118 0.13613,0.15053 0.24895,0.33946 0.34071,0.56752 0.09101,0.22731 0.14892,0.49225 0.17374,0.79181 0.02482,0.29655 0.01504,0.56451 -0.03084,0.80235 -0.04437,0.23784 -0.11959,0.44182 -0.22488,0.61268 -0.10529,0.17086 -0.23616,0.30483 -0.39411,0.40268 -0.15719,0.09709 -0.33695,0.1543 -0.53701,0.17161 -0.18502,0.01505 -0.33695,0.006 -0.45954,-0.0286 -0.12184,-0.03387 -0.22338,-0.07376 -0.30686,-0.11968 -0.08198,-0.04516 -0.15268,-0.08806 -0.20984,-0.12795 -0.05716,-0.03914 -0.11432,-0.0572 -0.17223,-0.05193 -0.05791,0.0045 -0.10154,0.02107 -0.13162,0.04817 -0.02858,0.02785 -0.0549,0.0572 -0.07672,0.08957 l -0.3204,0.53816 c 0.20683,0.19871 0.45804,0.3515 0.75211,0.45838 0.29407,0.10688 0.62425,0.14527 0.99279,0.11441 0.36252,-0.03086 0.68969,-0.1272 0.98076,-0.28978 0.29032,-0.16258 0.534,-0.37709 0.73105,-0.64278 0.1963,-0.26494 0.33996,-0.57429 0.43096,-0.92729 0.09101,-0.35225 0.11959,-0.7331 0.08499,-1.14256 -0.03309,-0.4072 -0.12034,-0.77676 -0.26023,-1.11095 z"
       id="path1524" />
    <path
       d="m 50.47186,93.01279 c -0.22338,-0.26118 -0.49639,-0.46816 -0.8183,-0.62246 -0.32115,-0.15505 -0.68217,-0.24086 -1.08154,-0.25741 -0.40012,-0.01731 -0.7664,0.03763 -1.10034,0.16484 -0.33319,0.12645 -0.62275,0.31085 -0.86643,0.55096 -0.24293,0.24161 -0.43547,0.53139 -0.57687,0.86934 -0.14065,0.3372 -0.21962,0.70827 -0.23692,1.11019 -0.01655,0.39967 0.03084,0.77375 0.14365,1.12073 0.11206,0.34698 0.27979,0.65106 0.50166,0.91149 0.22263,0.26118 0.49414,0.46967 0.81604,0.62622 0.3219,0.15505 0.68217,0.24161 1.08229,0.25892 0.39937,0.01656 0.76565,-0.03914 1.09959,-0.16709 0.33394,-0.12871 0.6235,-0.31236 0.86869,-0.55171 0.24444,-0.2401 0.43773,-0.52838 0.58063,-0.86633 0.1429,-0.3387 0.22263,-0.70751 0.23917,-1.10643 0.01655,-0.40268 -0.03159,-0.77826 -0.14516,-1.1275 -0.11357,-0.34849 -0.28204,-0.65257 -0.50617,-0.91375 z m -0.60094,2.7751 c -0.08123,0.22881 -0.19254,0.4215 -0.33243,0.57805 -0.14065,0.15731 -0.30987,0.27548 -0.50617,0.35376 -0.1963,0.07903 -0.41592,0.11365 -0.6581,0.10312 -0.24293,-0.01054 -0.45804,-0.06322 -0.64531,-0.15731 -0.18878,-0.09484 -0.34597,-0.22655 -0.47233,-0.39515 -0.12711,-0.1686 -0.22112,-0.37032 -0.28355,-0.60515 -0.06167,-0.23408 -0.08649,-0.49752 -0.07446,-0.78955 0.01279,-0.2958 0.06017,-0.55848 0.1414,-0.78805 0.08123,-0.23032 0.19254,-0.42225 0.33319,-0.57805 0.14065,-0.1558 0.30761,-0.27247 0.50316,-0.34999 0.19555,-0.07677 0.41366,-0.11064 0.65584,-0.10086 0.24293,0.01054 0.45879,0.06247 0.64757,0.15656 0.18953,0.09258 0.34823,0.22354 0.47458,0.39064 0.12711,0.16709 0.22112,0.36806 0.28279,0.60364 0.06167,0.23634 0.08649,0.50203 0.07446,0.79708 -0.01279,0.29279 -0.05942,0.55322 -0.14065,0.78128 z"
       id="path1526" />
    <path
       d="m 43.41327,94.97425 c -0.02708,0.14376 -0.04738,0.30182 -0.06167,0.47343 l -2.01416,-3.97713 c -0.04212,-0.07527 -0.088,-0.13172 -0.13764,-0.17086 -0.05114,-0.03839 -0.11808,-0.06548 -0.20232,-0.08054 l -0.54904,-0.10161 -0.99204,5.40796 0.94089,0.17236 0.58063,-3.168 c 0.02858,-0.16032 0.0519,-0.33118 0.06844,-0.51332 l 2.01717,3.9982 c 0.02407,0.04064 0.04513,0.07451 0.06393,0.10011 0.0188,0.02634 0.04061,0.04742 0.06393,0.06398 0.02332,0.01731 0.0519,0.03086 0.08348,0.04064 0.03158,0.0098 0.06995,0.01957 0.11583,0.02785 l 0.56183,0.10312 0.99129,-5.40796 -0.94315,-0.17311 z"
       id="path1528" />
    <path
       d="m 38.72685,90.7638 c -0.1256,-0.10688 -0.26249,-0.19946 -0.40915,-0.2815 -0.14591,-0.08129 -0.29859,-0.14677 -0.45653,-0.19494 -0.27979,-0.08656 -0.54152,-0.11892 -0.78671,-0.09709 -0.24519,0.02183 -0.46631,0.08656 -0.66487,0.19419 -0.19705,0.10763 -0.36703,0.2544 -0.50993,0.43806 -0.1414,0.18441 -0.2497,0.39515 -0.32341,0.63225 -0.06769,0.21903 -0.09326,0.41397 -0.07596,0.58784 0.0173,0.17311 0.06318,0.32892 0.13688,0.46666 0.07446,0.13849 0.16847,0.26419 0.28204,0.37558 0.11432,0.11215 0.23466,0.21602 0.36101,0.31161 0.1256,0.09559 0.2497,0.18666 0.37154,0.27397 0.12184,0.08656 0.22789,0.17462 0.31664,0.26419 0.0895,0.08957 0.15418,0.18365 0.1948,0.2815 0.03986,0.0986 0.04212,0.20623 0.0053,0.3244 -0.05791,0.18742 -0.16471,0.32064 -0.32115,0.39967 -0.15569,0.07903 -0.35199,0.08129 -0.5889,0.0075 C 36.12382,94.70629 36.011,94.6506 35.92,94.5821 c -0.091,-0.0685 -0.16923,-0.13699 -0.23391,-0.20473 -0.06393,-0.06699 -0.11883,-0.12871 -0.16546,-0.1829 -0.04588,-0.0557 -0.09477,-0.09107 -0.14441,-0.10613 -0.0534,-0.01656 -0.10078,-0.01957 -0.1429,-0.0075 -0.04287,0.01129 -0.08499,0.03914 -0.12786,0.08355 l -0.41667,0.40795 c 0.12711,0.23333 0.30385,0.43881 0.53024,0.61644 0.22639,0.17688 0.48963,0.31161 0.79047,0.40494 0.26625,0.08279 0.51595,0.1129 0.7491,0.09107 0.23316,-0.02107 0.44299,-0.08129 0.62952,-0.17914 0.18577,-0.0986 0.34522,-0.22731 0.47458,-0.38838 0.13087,-0.16032 0.22563,-0.33645 0.2858,-0.52913 0.07521,-0.24236 0.1053,-0.45537 0.09176,-0.63827 -0.01354,-0.18365 -0.05641,-0.34698 -0.12786,-0.48999 -0.0707,-0.14376 -0.16396,-0.27021 -0.27828,-0.37935 -0.11507,-0.10914 -0.23541,-0.21 -0.36177,-0.30107 -0.1256,-0.09107 -0.25121,-0.17763 -0.3738,-0.26118 -0.12335,-0.08279 -0.22864,-0.16935 -0.31664,-0.25817 -0.08725,-0.08882 -0.15042,-0.18666 -0.18878,-0.29053 -0.03911,-0.10462 -0.03685,-0.2243 0.0045,-0.35827 0.07296,-0.23709 0.1948,-0.39666 0.36402,-0.47644 0.16998,-0.08054 0.3723,-0.0843 0.60921,-0.01129 0.16396,0.05193 0.29784,0.11968 0.40088,0.20473 0.10304,0.08656 0.19028,0.17161 0.26098,0.25892 0.07145,0.08731 0.13388,0.16634 0.18577,0.23483 0.0519,0.07 0.10906,0.11516 0.17223,0.13473 0.04814,0.0143 0.09552,0.01656 0.14441,0.0053 0.04738,-0.01129 0.0895,-0.03312 0.1256,-0.06548 l 0.46105,-0.39816 c -0.06468,-0.13548 -0.14817,-0.26569 -0.25121,-0.39064 -0.10304,-0.12344 -0.21736,-0.2386 -0.34372,-0.34397 z"
       id="path1530" />
    <path
       d="m 33.85842,89.07706 c -0.24068,-0.26268 -0.54528,-0.47644 -0.91006,-0.63902 -0.36478,-0.16408 -0.72579,-0.24838 -1.08304,-0.25365 -0.3565,-0.0068 -0.69345,0.05796 -1.00783,0.19193 -0.31589,0.13473 -0.60094,0.33193 -0.85741,0.59386 -0.25572,0.26193 -0.46631,0.5758 -0.63102,0.94461 -0.16321,0.36505 -0.25647,0.72934 -0.28054,1.09363 -0.02332,0.36505 0.01955,0.70902 0.13012,1.03342 0.10981,0.3244 0.28505,0.6187 0.52723,0.88289 0.24143,0.26344 0.54453,0.47719 0.90931,0.64128 0.36553,0.16333 0.72729,0.24688 1.08455,0.25139 0.35725,0.0038 0.6942,-0.06021 1.01009,-0.19268 0.31589,-0.13097 0.60244,-0.32741 0.85967,-0.58934 0.25722,-0.26118 0.46781,-0.57429 0.63102,-0.94009 0.16396,-0.3673 0.25797,-0.73386 0.28129,-1.10041 0.02332,-0.3658 -0.02106,-0.71128 -0.13237,-1.03718 -0.11131,-0.3244 -0.28881,-0.61794 -0.53099,-0.88063 z m -0.40915,1.79663 c -0.02858,0.24161 -0.10379,0.49752 -0.22488,0.76697 -0.11959,0.2672 -0.25948,0.49225 -0.41893,0.6744 -0.1602,0.18139 -0.33469,0.32064 -0.52272,0.41397 -0.18878,0.09408 -0.38884,0.1415 -0.60094,0.1415 -0.21134,7.5e-4 -0.42795,-0.04892 -0.64907,-0.14752 -0.22187,-0.09935 -0.40238,-0.22731 -0.54227,-0.38537 -0.13914,-0.15806 -0.23616,-0.3387 -0.29182,-0.54192 -0.05566,-0.20322 -0.06919,-0.42526 -0.04061,-0.66612 0.03008,-0.24086 0.10379,-0.49526 0.22338,-0.76171 0.12034,-0.26946 0.26098,-0.49676 0.42194,-0.67966 0.1602,-0.18365 0.33469,-0.32139 0.52272,-0.41472 0.18803,-0.09258 0.38734,-0.13924 0.59718,-0.13849 0.20909,0 0.4257,0.04968 0.64682,0.14903 0.22187,0.09935 0.40238,0.22731 0.54378,0.38462 0.14215,0.15656 0.24068,0.33645 0.29633,0.53816 0.05641,0.20247 0.06919,0.42451 0.03911,0.66687 z"
       id="path1532" />
    <path
       d="M 28.73728,86.33958 27.63393,88.14449 27.3203,87.95256 C 27.23982,87.90364 27.18567,87.85396 27.15559,87.80353 27.12701,87.7531 27.11197,87.68912 27.11122,87.6116 l 0.03986,-1.9848 c -0.0038,-0.17387 -0.07972,-0.30634 -0.22789,-0.39741 l -0.83635,-0.51107 0.0038,2.3506 c 0.0038,0.09258 0.01805,0.17838 0.04212,0.25666 0.02332,0.07677 0.05415,0.14978 0.09326,0.21903 -0.18652,-0.03989 -0.36478,-0.05118 -0.53626,-0.03462 -0.17223,0.01656 -0.33319,0.05645 -0.48436,0.12043 -0.15042,0.06548 -0.28956,0.15355 -0.41592,0.26494 -0.12636,0.11215 -0.23616,0.24462 -0.33018,0.39741 -0.12259,0.19946 -0.20081,0.40419 -0.23767,0.61117 -0.03685,0.20774 -0.02031,0.41472 0.04889,0.62246 0.06919,0.20623 0.19405,0.41171 0.37756,0.61644 0.18201,0.20397 0.43021,0.40193 0.74309,0.59311 l 1.41021,0.86407 2.86706,-4.68916 z m -2.43083,3.97638 -0.47985,-0.29279 c -0.29107,-0.17914 -0.47007,-0.37333 -0.53626,-0.58332 -0.06543,-0.21 -0.02858,-0.42978 0.11056,-0.65784 0.07145,-0.11516 0.15343,-0.2115 0.24669,-0.28752 0.09401,-0.07753 0.19781,-0.12871 0.31213,-0.15731 0.11282,-0.0271 0.23767,-0.0271 0.37154,-7.5e-4 0.13312,0.02785 0.27527,0.08656 0.42645,0.17914 l 0.47308,0.28903 -0.92435,1.51137 z"
       id="path1534" />
    <polygon
       points="19.21778,86.35915 22.41803,88.8362 22.9603,88.13471 21.78851,87.22774 24.60818,83.58103 23.75002,82.91718 20.9311,86.56463 19.75931,85.65841 "
       id="polygon1536" />
    <rect
       x="16.85565"
       y="82.43737"
       width="5.4951801"
       height="1.09247"
       transform="rotate(-47.54068,19.603245,82.98359)"
       id="rect1538" />
    <path
       d="m 18.9395,80.41153 c 0.13613,-0.26569 0.21435,-0.53967 0.2324,-0.82342 0.0188,-0.28301 -0.02482,-0.56827 -0.13087,-0.8573 -0.1068,-0.28827 -0.27828,-0.56451 -0.51595,-0.8302 -0.23692,-0.26419 -0.49263,-0.4659 -0.7664,-0.60139 -0.27302,-0.13623 -0.55205,-0.2115 -0.8356,-0.22354 -0.28355,-0.0128 -0.56409,0.03387 -0.84312,0.14075 -0.27828,0.10688 -0.54002,0.27096 -0.78671,0.4915 l -2.44061,2.18727 0.72278,0.80762 2.44061,-2.18652 c 0.15268,-0.13623 0.30761,-0.23935 0.46857,-0.3086 0.15945,-0.06925 0.31739,-0.10387 0.47308,-0.10462 0.15494,0 0.30611,0.03462 0.45352,0.10462 0.14741,0.06925 0.2858,0.17613 0.41517,0.32064 0.12786,0.14376 0.21887,0.29279 0.27227,0.44709 0.0534,0.1543 0.0707,0.3086 0.05415,0.46365 -0.01805,0.15355 -0.06995,0.30709 -0.15644,0.45838 -0.08649,0.15129 -0.20533,0.29505 -0.35801,0.43203 l -2.43986,2.18727 0.72504,0.81063 2.44136,-2.18727 c 0.24669,-0.22053 0.43773,-0.46289 0.57461,-0.72859 z"
       id="path1540" />
    <path
       d="m 15.60162,74.4481 -2.88887,1.86362 c -0.06468,0.0429 -0.13312,0.09032 -0.20608,0.14301 -0.07296,0.05344 -0.14441,0.10989 -0.21736,0.17086 l 1.64262,-3.14994 c 0.08725,-0.15806 0.08574,-0.3086 -0.0053,-0.44935 L 13.84394,72.89684 C 13.75444,72.7576 13.61906,72.69588 13.4378,72.71093 l -3.51914,0.20774 c 0.08123,-0.04215 0.15945,-0.0858 0.23541,-0.12871 0.07446,-0.04441 0.14365,-0.0858 0.20683,-0.12645 l 2.88812,-1.86512 -0.51896,-0.80386 -4.61497,2.98059 0.44299,0.6887 c 0.02632,0.03989 0.04964,0.07376 0.07145,0.10236 0.02181,0.0286 0.04362,0.05193 0.06769,0.07 0.02256,0.01806 0.05039,0.03011 0.08273,0.03688 0.03309,0.0075 0.0722,0.009 0.11883,0.0053 l 3.41234,-0.18892 c 0.09777,-0.0068 0.19555,-0.01882 0.29408,-0.03688 0.09853,-0.01731 0.19856,-0.03688 0.30085,-0.0557 -0.12034,0.15881 -0.22789,0.32515 -0.32266,0.49902 l -1.57869,3.04908 c -0.02332,0.04064 -0.03761,0.07677 -0.04362,0.10838 -0.006,0.03161 -0.0053,0.06322 0.0015,0.09333 0.006,0.03011 0.0173,0.06021 0.03385,0.09107 0.01579,0.03086 0.03685,0.06548 0.06243,0.10462 l 0.446,0.69246 4.61647,-2.97983 -0.51971,-0.80687 z"
       id="path1542" />
    <path
       d="M 8.31289,57.30295 4.53051,56.78737 4.36805,56.76705 C 4.30788,56.75952 4.24621,56.75425 4.18153,56.75049 4.2417,56.72716 4.29886,56.70382 4.35376,56.67899 4.40866,56.6549 4.45755,56.63082 4.50193,56.60673 L 7.93608,54.95311 7.77964,53.9799 2.09742,53.24077 2.23205,54.08301 c 0.01504,0.08731 0.05039,0.15881 0.1083,0.21526 0.05791,0.0572 0.12034,0.08957 0.18502,0.0986 l 3.26568,0.29655 c 0.08273,0.0098 0.17223,0.01656 0.267,0.02183 0.09627,0.006 0.19705,0.0098 0.30461,0.0128 -0.10078,0.03839 -0.19555,0.07677 -0.2858,0.11441 -0.09025,0.03839 -0.17299,0.07828 -0.24669,0.11742 L 2.84879,56.41179 C 2.7796,56.44792 2.72845,56.4991 2.69536,56.56383 2.66227,56.62931 2.65324,56.70985 2.66828,56.80544 l 0.05114,0.31462 c 0.01429,0.08731 0.04964,0.15806 0.10755,0.21301 0.05791,0.05495 0.11959,0.08882 0.18577,0.10086 l 3.28072,0.44558 c 0.08649,0.01656 0.17976,0.0286 0.27979,0.03462 0.10003,0.006 0.20608,0.01129 0.31438,0.01656 -0.20834,0.07527 -0.3911,0.14978 -0.54603,0.22204 L 3.33691,59.45711 C 3.26997,59.49023 3.21958,59.54066 3.18574,59.6084 3.15189,59.67689 3.14287,59.75893 3.15791,59.85377 L 3.30232,60.75321 8.46859,58.27165 8.3129,57.30296 Z"
       id="path1544" />
    <path
       d="m 2.82773,51.25145 c 0.24895,0.23483 0.54528,0.41623 0.889,0.54494 0.34296,0.12946 0.71451,0.19344 1.11388,0.19344 0.40313,7.5e-4 0.77543,-0.06322 1.1199,-0.19043 0.34296,-0.12871 0.64005,-0.30935 0.89201,-0.54418 0.25045,-0.23408 0.44676,-0.51483 0.58815,-0.84375 0.14065,-0.32817 0.21134,-0.69246 0.2121,-1.09288 0,-0.40042 -0.06995,-0.76396 -0.21059,-1.09288 C 7.29229,47.89754 7.09674,47.61604 6.84628,47.38272 6.59507,47.14939 6.29874,46.9695 5.95503,46.84155 5.61207,46.71435 5.23977,46.65037 4.83664,46.65037 4.43652,46.64962 4.06572,46.71284 3.72276,46.83929 3.3813,46.96574 3.08497,47.14563 2.83376,47.3782 2.58255,47.61153 2.3855,47.89228 2.2426,48.22119 2.1012,48.5486 2.02975,48.9129 2.029,49.31332 c 0,0.40042 0.06995,0.76396 0.2121,1.09288 0.1414,0.32817 0.33695,0.61042 0.58665,0.84525 z m 0.25497,-2.5892 c 0.08649,-0.19193 0.21134,-0.35451 0.3753,-0.48849 0.16246,-0.13322 0.35951,-0.23634 0.59191,-0.30784 0.2309,-0.0715 0.49263,-0.10688 0.78521,-0.10613 0.29483,0 0.55882,0.03613 0.79273,0.10838 0.2324,0.0715 0.42946,0.17537 0.59041,0.3086 0.16095,0.13398 0.28505,0.29731 0.37004,0.48924 0.08574,0.19193 0.12786,0.4087 0.12786,0.65182 0,0.24312 -0.04287,0.46139 -0.12936,0.65407 -0.08574,0.19344 -0.20909,0.35601 -0.37079,0.49074 -0.16095,0.13322 -0.35876,0.23559 -0.59191,0.30709 -0.23315,0.0715 -0.4979,0.10763 -0.79198,0.10688 -0.29182,0 -0.55431,-0.03613 -0.78596,-0.10838 C 3.81451,50.69598 3.61746,50.59361 3.455,50.45888 3.29254,50.3249 3.16769,50.16082 3.08045,49.96814 2.99396,49.77546 2.95109,49.55643 2.95184,49.31407 c 0,-0.24311 0.04437,-0.45988 0.13087,-0.65182 z"
       id="path1546" />
    <path
       d="M 7.84357,44.61362 5.74818,44.33664 5.79632,43.97159 c 0.01203,-0.09258 0.03535,-0.16333 0.06919,-0.21 C 5.89935,43.71492 5.952,43.67503 6.0227,43.64267 L 7.85184,42.87344 C 8.00828,42.79893 8.09853,42.67624 8.1211,42.50388 L 8.24896,41.53143 6.10393,42.48808 C 6.02045,42.53023 5.94824,42.57765 5.88732,42.63109 5.82565,42.68378 5.77149,42.74249 5.72486,42.80571 5.68425,42.61905 5.62332,42.45195 5.53834,42.30067 5.4541,42.15089 5.35182,42.01992 5.23148,41.90777 5.11114,41.79637 4.97426,41.70455 4.82083,41.6338 4.6674,41.5638 4.50193,41.51714 4.32444,41.4938 4.09128,41.46369 3.87317,41.47348 3.6686,41.52391 3.46553,41.57584 3.28201,41.67444 3.12106,41.82122 2.96011,41.96874 2.82322,42.16745 2.71116,42.41658 2.5991,42.66647 2.51862,42.97281 2.47124,43.33635 l -0.21661,1.64233 5.44605,0.71805 0.1429,-1.0831 z M 4.98103,44.23578 3.2256,44.00471 3.29931,43.44623 c 0.04437,-0.33946 0.14967,-0.58106 0.31514,-0.72708 0.16471,-0.14527 0.37982,-0.20021 0.64531,-0.16484 0.13388,0.01731 0.25497,0.05344 0.36327,0.10838 0.10755,0.05419 0.19781,0.12871 0.26926,0.22129 0.0707,0.09258 0.12184,0.20623 0.15117,0.33946 0.03008,0.13322 0.03309,0.28752 0.01053,0.46214 z"
       id="path1548" />
    <polygon
       points="7.84433,39.42168 3.37226,38.34235 3.11729,39.40061 8.4573,40.69069 9.16052,37.77634 8.29108,37.56709 "
       id="polygon1550" />
    <path
       d="m 10.0781,35.00575 c 0.13613,-0.37709 0.1963,-0.74214 0.18201,-1.09665 -0.01504,-0.35526 -0.09777,-0.68343 -0.24669,-0.986 C 9.86525,32.62128 9.65316,32.35257 9.37939,32.11849 9.10562,31.88441 8.77845,31.69775 8.40014,31.56001 8.02408,31.42378 7.6563,31.35829 7.29679,31.36281 6.93728,31.36808 6.60334,31.43732 6.29648,31.57431 5.98811,31.71054 5.7151,31.91 5.47592,32.17269 5.2375,32.43537 5.05022,32.75526 4.91334,33.13084 l -0.68217,1.88394 5.16401,1.87416 z M 9.26507,34.70995 8.95445,35.56574 5.412,34.28093 5.72262,33.42514 C 5.80535,33.19633 5.92043,33.0059 6.06709,32.85386 6.2145,32.70257 6.38824,32.59118 6.5868,32.52118 c 0.19856,-0.07075 0.41893,-0.09935 0.66036,-0.08882 0.24293,0.01204 0.50091,0.06774 0.77618,0.16709 0.27753,0.10086 0.51369,0.2243 0.70849,0.37182 0.19405,0.14602 0.34522,0.31085 0.45277,0.49225 0.1068,0.18139 0.16847,0.37709 0.18201,0.58784 0.01504,0.21075 -0.0188,0.43128 -0.10154,0.65859 z"
       id="path1552" />
    <path
       d="M 13.46036,27.72137 10.9483,24.84465 c -0.03309,-0.03613 -0.06919,-0.07677 -0.10981,-0.12193 -0.03986,-0.04516 -0.08348,-0.08957 -0.13012,-0.13473 0.06167,0.02183 0.12034,0.0414 0.1775,0.05871 0.05791,0.01882 0.10981,0.03312 0.15794,0.04366 l 3.67558,1.01159 0.52121,-0.83547 -3.79817,-4.294 -0.45052,0.72332 c -0.04738,0.07451 -0.06694,0.15204 -0.06017,0.23258 0.0068,0.08054 0.03234,0.14677 0.07596,0.1957 l 2.26461,2.37167 c 0.05641,0.06172 0.11883,0.1257 0.18728,0.19268 0.06919,0.06699 0.1429,0.13699 0.22112,0.20849 -0.10003,-0.03688 -0.19705,-0.07075 -0.29032,-0.10011 -0.09326,-0.03161 -0.18126,-0.0557 -0.26324,-0.07527 L 9.92691,23.45597 C 9.85095,23.43715 9.77874,23.44242 9.71181,23.46952 9.64337,23.49737 9.58395,23.55307 9.53356,23.6336 l -0.16847,0.27096 c -0.04738,0.07527 -0.06694,0.15204 -0.06017,0.23182 0.00752,0.07903 0.03234,0.14527 0.07521,0.1972 l 2.17962,2.49361 c 0.05415,0.06925 0.11658,0.14075 0.18878,0.21075 0.07145,0.07 0.14591,0.14301 0.22639,0.21903 -0.20758,-0.07978 -0.3926,-0.14451 -0.55807,-0.19193 L 8.29558,26.07226 c -0.0722,-0.01957 -0.14365,-0.0143 -0.21435,0.0143 -0.06995,0.03011 -0.13087,0.0858 -0.18201,0.16785 l -0.48135,0.773 5.52352,1.52642 0.51896,-0.83246 z"
       id="path1554" />
    <polygon
       points="17.48868,21.99353 13.21893,18.53575 12.53225,19.38551 16.802,22.84405 "
       id="polygon1556" />
    <path
       d="m 19.76006,19.47508 c 0.27979,-0.28602 0.48737,-0.59235 0.62049,-0.92203 0.13388,-0.32892 0.1963,-0.6616 0.18652,-0.99805 -0.0098,-0.33645 -0.09101,-0.66837 -0.24293,-0.99654 -0.15193,-0.32666 -0.3723,-0.63149 -0.65885,-0.9145 -0.28505,-0.27999 -0.59267,-0.493 -0.92134,-0.63902 -0.32867,-0.14527 -0.66186,-0.21978 -0.9973,-0.22354 -0.33619,-0.0045 -0.66788,0.06322 -0.99429,0.20247 -0.32717,0.14 -0.63027,0.35225 -0.91006,0.63827 l -1.40344,1.42857 3.91701,3.85294 1.4042,-1.42857 z m -3.30404,-3.25004 c 0.16998,-0.17311 0.35349,-0.29806 0.55055,-0.37558 0.19705,-0.07602 0.40088,-0.10462 0.61072,-0.08656 0.20984,0.01882 0.42194,0.08355 0.63779,0.19494 0.21585,0.11139 0.42795,0.26946 0.63554,0.47494 0.21134,0.20623 0.3738,0.41698 0.49038,0.63149 0.11507,0.21526 0.18502,0.42752 0.20683,0.63676 0.02256,0.20924 -0.0038,0.41322 -0.07822,0.61192 -0.07446,0.1972 -0.19705,0.38236 -0.36628,0.55547 l -0.63779,0.65031 -2.68805,-2.64414 0.63854,-0.64956 z"
       id="path1558" />
    <polygon
       points="22.10289,11.24535 21.56212,10.57096 18.94853,12.66941 22.38569,16.95739 25.00003,14.85894 24.46227,14.18153 22.69631,15.59881 21.77046,14.44271 23.14081,13.34155 22.6211,12.69274 21.24999,13.79315 20.34144,12.66038 "
       id="polygon1560" />
    <path
       d="M 29.63456,11.90996 28.94186,8.15412 C 28.93359,8.10595 28.92231,8.05326 28.91027,7.9938 28.89823,7.93434 28.88395,7.87337 28.8674,7.81015 c 0.04061,0.05043 0.08123,0.09785 0.12184,0.14226 0.04061,0.04441 0.07822,0.08355 0.11432,0.11742 l 2.64443,2.74801 0.87396,-0.45311 -1.07477,-5.63301 -0.75663,0.39139 c -0.07822,0.0414 -0.13613,0.09785 -0.17148,0.1701 -0.03535,0.07376 -0.04663,0.14226 -0.0346,0.20774 l 0.73858,3.1966 c 0.0173,0.08204 0.03836,0.16785 0.06318,0.26118 0.02407,0.09333 0.0519,0.18967 0.08348,0.29279 C 31.40202,9.16797 31.33583,9.08894 31.27115,9.01593 31.20647,8.94217 31.14329,8.87593 31.08312,8.81798 L 28.77338,6.43803 C 28.71697,6.38308 28.65229,6.34997 28.58009,6.34018 28.50713,6.32889 28.42816,6.34545 28.34317,6.38986 L 28.05962,6.53663 C 27.9814,6.57727 27.92574,6.63372 27.89115,6.70598 27.8573,6.77748 27.84452,6.84673 27.8543,6.91297 l 0.60244,3.25832 c 0.01128,0.08806 0.02933,0.17914 0.0549,0.27774 0.02557,0.09634 0.0534,0.19795 0.08273,0.30408 -0.13688,-0.17537 -0.26399,-0.32515 -0.38132,-0.45085 L 26.03568,7.85457 C 25.98228,7.80038 25.91835,7.76877 25.84314,7.75748 25.76793,7.7477 25.68745,7.7635 25.60171,7.80791 l -0.80852,0.41924 3.97041,4.13368 0.87095,-0.45085 z"
       id="path1562" />
    <polygon
       points="36.52015,3.97678 36.23736,3.15863 33.07096,4.25527 34.86701,9.45022 38.03416,8.35358 37.75437,7.53467 35.61611,8.2753 35.1325,6.87533 36.79392,6.29953 36.52166,5.51299 34.86024,6.08879 34.38566,4.71516 "
       id="polygon1564" />
    <path
       d="M 41.07495,7.59263 C 41.37956,7.52414 41.63979,7.42253 41.8564,7.2893 42.07376,7.15683 42.24675,7.00103 42.37461,6.82415 42.50172,6.64577 42.58595,6.45082 42.62506,6.23782 42.66417,6.02482 42.65815,5.80428 42.60551,5.57547 42.46411,4.95376 42.02939,4.63839 41.30059,4.62861 41.4465,4.53678 41.56684,4.43668 41.66236,4.32829 41.75788,4.22066 41.83083,4.10776 41.88047,3.99184 41.93086,3.87593 41.96019,3.7555 41.96922,3.63206 41.97749,3.50862 41.96772,3.38443 41.93914,3.26024 41.89025,3.04272 41.80902,2.8538 41.69846,2.69423 41.58715,2.53391 41.43973,2.40972 41.25697,2.3209 41.07421,2.23284 40.85309,2.18241 40.59285,2.17037 40.33262,2.15908 40.03102,2.19295 39.68731,2.27123 l -1.82011,0.41472 1.21993,5.35979 1.98784,-0.45311 z m 0.16923,-2.28437 c 0.08348,0.04667 0.14967,0.11064 0.20157,0.19193 0.05114,0.08204 0.08875,0.17763 0.11432,0.28827 0.02332,0.10236 0.03234,0.20397 0.02708,0.30559 C 41.58189,6.19641 41.55406,6.2905 41.50592,6.37781 41.45628,6.46587 41.37956,6.5449 41.27728,6.6134 41.17349,6.68189 41.0366,6.73609 40.86813,6.77372 l -0.9078,0.20699 -0.34296,-1.5061 0.90404,-0.20548 c 0.1617,-0.03613 0.3016,-0.05043 0.42043,-0.0429 0.11959,0.00828 0.22037,0.03538 0.30235,0.08204 z M 39.87157,3.08637 c 0.3016,-0.06774 0.53475,-0.06322 0.70022,0.01731 0.16471,0.07903 0.27828,0.25666 0.34146,0.53139 0.06017,0.26344 0.02256,0.47117 -0.11282,0.62246 C 40.6643,4.40731 40.44769,4.51796 40.1491,4.5857 L 39.45114,4.74451 39.11419,3.25949 39.87157,3.08638 Z"
       id="path1566" />
    <path
       d="m 46.59772,5.96836 c 0.22112,0.23784 0.48511,0.41849 0.79047,0.54042 0.30536,0.12344 0.64306,0.17387 1.01535,0.15355 0.4099,-0.02258 0.76039,-0.11516 1.05145,-0.27849 0.29032,-0.16182 0.52723,-0.38763 0.71,-0.67816 L 49.70545,5.26311 C 49.66183,5.22171 49.61068,5.2029 49.55352,5.20515 49.52193,5.20741 49.49335,5.21644 49.46552,5.233 49.43769,5.25031 49.41062,5.27063 49.38354,5.29321 49.31961,5.37149 49.25342,5.43772 49.18799,5.49116 49.1218,5.54385 49.0496,5.58976 48.97289,5.62514 48.89617,5.66127 48.81344,5.68761 48.72319,5.70568 48.63294,5.72224 48.5314,5.73503 48.41858,5.74106 48.2283,5.7516 48.04779,5.71999 47.87856,5.64472 47.70933,5.56945 47.55816,5.45505 47.42654,5.30075 47.29567,5.1457 47.18737,4.95377 47.10313,4.72345 47.01814,4.49388 46.967,4.22819 46.9512,3.92787 c -0.01655,-0.29731 7.5e-4,-0.56451 0.05265,-0.80084 0.05114,-0.23709 0.13237,-0.43956 0.24218,-0.60665 0.10906,-0.16785 0.24444,-0.29806 0.40464,-0.39139 0.16095,-0.09408 0.34146,-0.14527 0.54152,-0.15656 0.18502,-0.01054 0.3377,0.00301 0.45879,0.04064 0.12034,0.03763 0.22112,0.08054 0.30385,0.12871 0.08123,0.04742 0.15042,0.09258 0.20608,0.13322 0.05566,0.04064 0.11282,0.06021 0.16998,0.05645 0.05791,-0.00226 0.10229,-0.01731 0.13237,-0.04366 0.03159,-0.0271 0.05716,-0.0557 0.08048,-0.08731 L 49.87918,1.6721 C 49.67761,1.46737 49.43017,1.30705 49.13985,1.19189 48.84878,1.07748 48.5186,1.03007 48.15007,1.05039 47.7868,1.07071 47.45662,1.15727 47.16179,1.31232 c -0.29483,0.1543 -0.54453,0.36204 -0.7476,0.62171 -0.20382,0.26043 -0.3565,0.56526 -0.45728,0.91525 -0.10078,0.34999 -0.13989,0.72934 -0.11733,1.1403 0.02256,0.4072 0.09928,0.77977 0.23015,1.11697 0.13012,0.3372 0.30611,0.62397 0.52798,0.86181 z"
       id="path1568" />
    <path
       d="M 55.64715,2.05295 C 55.43205,1.7865 55.1658,1.57124 54.84841,1.40565 54.53102,1.24081 54.17301,1.14522 53.77364,1.11662 c -0.39787,-0.02785 -0.7664,0.01731 -1.10335,0.13699 -0.33845,0.11892 -0.63253,0.2943 -0.88373,0.52687 -0.25121,0.23333 -0.45202,0.51633 -0.6047,0.84977 -0.15117,0.33419 -0.24143,0.70074 -0.27001,1.09966 -0.02858,0.40117 0.0098,0.77902 0.11357,1.13052 0.10454,0.3515 0.26399,0.6616 0.4806,0.92805 0.21661,0.2672 0.48361,0.48171 0.801,0.64504 0.31739,0.16333 0.6754,0.25892 1.07477,0.28752 0.39862,0.02785 0.7664,-0.01731 1.1041,-0.13473 C 54.82284,6.46965 55.11616,6.29352 55.36586,6.05944 55.61631,5.82536 55.81638,5.54085 55.96755,5.20741 56.11797,4.87322 56.20672,4.50517 56.2353,4.10324 56.26313,3.70357 56.22552,3.32949 56.12324,2.97875 56.02095,2.62876 55.86226,2.32016 55.64715,2.05296 Z m -0.51821,1.97276 c -0.02031,0.2943 -0.07446,0.55547 -0.16246,0.78353 -0.088,0.22731 -0.20382,0.41698 -0.34823,0.56827 C 54.47234,5.52955 54.30161,5.6417 54.10456,5.7132 53.90826,5.78546 53.68864,5.81255 53.44646,5.79599 53.20428,5.77868 52.98918,5.72072 52.8034,5.62212 52.61612,5.52352 52.46194,5.38804 52.3401,5.21793 52.21751,5.04707 52.12951,4.84385 52.07385,4.60601 c -0.0549,-0.23784 -0.0722,-0.50429 -0.0519,-0.79783 0.02031,-0.29204 0.07446,-0.55096 0.16246,-0.77751 0.088,-0.2258 0.20457,-0.41548 0.34898,-0.56902 0.14441,-0.15279 0.31664,-0.26645 0.51445,-0.33946 0.19931,-0.07301 0.41968,-0.10086 0.66186,-0.0843 0.24218,0.01731 0.45503,0.07527 0.6408,0.17613 0.18502,0.10011 0.33845,0.23559 0.46029,0.40795 0.12184,0.17161 0.21134,0.37558 0.26625,0.61117 0.05566,0.23634 0.07296,0.50053 0.0519,0.79257 z"
       id="path1570" />
    <path
       d="m 60.71339,7.75445 c 0.04889,0.03989 0.11583,0.06925 0.19856,0.08731 L 61.45874,7.95692 62.59819,2.57907 61.66331,2.38036 60.99543,5.53105 C 60.96158,5.69062 60.93451,5.86147 60.9127,6.04287 L 59.00609,1.99123 C 58.98353,1.94908 58.96247,1.91521 58.94442,1.88887 58.92637,1.86253 58.90531,1.8407 58.88199,1.82263 58.85943,1.80532 58.8316,1.79102 58.80076,1.77973 58.76842,1.76919 58.73081,1.75941 58.68418,1.74962 l -0.55807,-0.11892 -1.1387,5.37785 0.93864,0.19946 0.6754,-3.18757 c 0.03008,-0.14301 0.0549,-0.29956 0.07371,-0.47042 l 1.90435,4.02981 c 0.03986,0.07677 0.08424,0.13398 0.13388,0.17462 z"
       id="path1572" />
    <path
       d="m 63.17957,8.36035 c 0.12335,0.10914 0.25647,0.20699 0.40088,0.29204 0.14441,0.0858 0.29483,0.15505 0.45127,0.20849 0.27753,0.09408 0.53851,0.13398 0.7837,0.11817 0.24594,-0.01581 0.46932,-0.07451 0.66938,-0.17688 0.20157,-0.10161 0.3753,-0.24311 0.52272,-0.423 C 66.15494,8.19928 66.26775,7.99154 66.34823,7.75671 66.42194,7.53919 66.45202,7.34424 66.43924,7.17113 66.42721,6.99802 66.38584,6.83995 66.31589,6.69996 66.24594,6.55921 66.15494,6.43126 66.04438,6.3161 65.93382,6.20245 65.81574,6.09481 65.69239,5.99621 65.56829,5.89686 65.4472,5.80202 65.32761,5.7117 65.20802,5.62213 65.10498,5.53031 65.01849,5.43848 64.93275,5.3459 64.86957,5.25106 64.83197,5.15246 64.79436,5.05311 64.79512,4.94547 64.83573,4.82731 c 0.06318,-0.18516 0.17374,-0.31612 0.33168,-0.39064 0.15794,-0.07376 0.35349,-0.07075 0.5889,0.00903 0.13388,0.04516 0.24444,0.10312 0.33394,0.17462 0.0895,0.0715 0.16546,0.1415 0.22789,0.21075 0.06167,0.06925 0.11583,0.13247 0.16095,0.18817 0.04437,0.05645 0.09176,0.09258 0.1414,0.10914 0.05265,0.01806 0.10003,0.02258 0.1429,0.01204 0.04287,-0.01054 0.08574,-0.03688 0.13012,-0.07978 l 0.4272,-0.39666 C 67.20112,4.42689 67.02964,4.21689 66.80702,4.03399 66.5859,3.85034 66.32567,3.70808 66.02858,3.60722 65.76534,3.5169 65.51564,3.48002 65.28248,3.49507 c -0.23391,0.0143 -0.44525,0.06925 -0.63403,0.16182 -0.18953,0.09333 -0.35199,0.21828 -0.48587,0.37408 -0.13463,0.15731 -0.23466,0.33118 -0.30009,0.52236 -0.08123,0.23935 -0.11808,0.4516 -0.1083,0.63601 0.0083,0.18365 0.04588,0.34774 0.11357,0.493 0.06694,0.14527 0.15644,0.27473 0.2685,0.38687 0.11206,0.11214 0.22939,0.21602 0.35274,0.31085 0.12335,0.09408 0.24519,0.18441 0.36628,0.27096 0.12109,0.08655 0.22413,0.17537 0.30912,0.26645 0.08574,0.09183 0.14591,0.19118 0.18126,0.29655 0.03535,0.10537 0.03084,0.2243 -0.01504,0.35752 C 65.25165,7.80713 65.12529,7.96218 64.95456,8.0382 64.78308,8.11347 64.58001,8.11196 64.3446,8.03143 64.1829,7.97648 64.05128,7.90498 63.95049,7.81692 63.84971,7.7281 63.76397,7.63854 63.69628,7.55047 63.62709,7.4609 63.56692,7.38187 63.51728,7.31037 63.46764,7.23887 63.41048,7.19295 63.34805,7.17188 63.30142,7.15607 63.25328,7.15306 63.2044,7.16285 63.15626,7.17263 63.11415,7.19296 63.07729,7.22382 l -0.47233,0.38612 c 0.06092,0.13623 0.14065,0.27021 0.24068,0.39666 0.09928,0.12645 0.21059,0.24537 0.33394,0.35376 z"
       id="path1574" />
    <path
       d="m 67.98181,10.17129 c 0.23541,0.26946 0.5325,0.49074 0.89351,0.66311 0.36026,0.17311 0.71902,0.26795 1.07552,0.28376 0.35725,0.0143 0.69495,-0.03989 1.0131,-0.16634 0.3189,-0.12494 0.60996,-0.31537 0.87245,-0.57053 0.26249,-0.2544 0.4821,-0.563 0.65584,-0.92654 0.17374,-0.36053 0.27678,-0.72257 0.31062,-1.08611 0.03309,-0.36354 0,-0.70902 -0.10229,-1.03568 C 72.59902,7.00479 72.4313,6.70674 72.19664,6.43577 71.96273,6.16556 71.66565,5.94427 71.30463,5.77041 70.94437,5.5973 70.58486,5.50396 70.22836,5.48966 c -0.35725,-0.0143 -0.6957,0.0414 -1.0146,0.16484 -0.3204,0.12344 -0.61147,0.31161 -0.87546,0.56676 -0.26474,0.25365 -0.48361,0.56149 -0.65584,0.92203 -0.17524,0.36354 -0.27828,0.72784 -0.31137,1.09288 -0.03309,0.36504 0.0023,0.71203 0.10454,1.03944 0.10304,0.32817 0.27151,0.62622 0.50617,0.89568 z M 68.43909,8.3867 c 0.0361,-0.24161 0.11883,-0.49526 0.24594,-0.76171 0.12711,-0.26344 0.27227,-0.48397 0.43698,-0.66235 0.16471,-0.17763 0.34296,-0.31085 0.534,-0.39967 0.19104,-0.08957 0.3926,-0.13097 0.60395,-0.12494 0.21134,0.00452 0.42645,0.06021 0.64607,0.16484 0.21811,0.10537 0.39561,0.2386 0.53024,0.40042 0.13613,0.16107 0.22864,0.34397 0.27903,0.5487 0.04889,0.20473 0.05641,0.42752 0.02031,0.66687 -0.0346,0.24086 -0.11583,0.49225 -0.24293,0.75644 -0.12786,0.26569 -0.27377,0.48849 -0.43923,0.66762 -0.16546,0.17913 -0.34372,0.31311 -0.534,0.40042 -0.19104,0.08656 -0.3911,0.12795 -0.60019,0.12193 C 69.70942,10.15925 69.49507,10.1043 69.2762,9.99893 69.05809,9.89356 68.87984,9.76109 68.74295,9.60001 68.60531,9.43894 68.5113,9.25754 68.46091,9.05357 68.41052,8.85035 68.403,8.62831 68.4391,8.3867 Z"
       id="path1576" />
    <path
       d="m 73.05557,13.06155 1.15224,-1.7733 0.30837,0.20021 c 0.07822,0.05193 0.13237,0.10236 0.1602,0.1543 0.02783,0.05043 0.04061,0.11516 0.03986,0.19268 l -0.09477,1.98329 c -0.0015,0.17311 0.07145,0.30784 0.21661,0.40343 l 0.82206,0.5344 0.06092,-2.3506 c -0.0015,-0.09258 -0.01354,-0.17838 -0.0346,-0.25666 -0.02181,-0.07828 -0.05114,-0.15204 -0.088,-0.22279 0.18577,0.04516 0.36327,0.06172 0.53626,0.04968 0.17148,-0.01129 0.33394,-0.04742 0.48662,-0.10763 0.15268,-0.06021 0.29408,-0.14451 0.42344,-0.25365 0.12936,-0.10763 0.24293,-0.23634 0.34071,-0.38763 0.12786,-0.19645 0.21285,-0.39816 0.25497,-0.6044 C 77.68183,10.41665 77.6713,10.20891 77.60812,9.99967 77.54494,9.79118 77.42536,9.58194 77.24861,9.37269 77.07186,9.1642 76.82893,8.95947 76.52207,8.76001 l -1.38765,-0.90321 -2.99416,4.60862 0.91532,0.59612 z m 2.53913,-3.90788 0.47233,0.30709 c 0.2858,0.18666 0.45954,0.38537 0.51896,0.59687 0.06017,0.21225 0.01655,0.42978 -0.12861,0.65407 -0.07371,0.11441 -0.1587,0.20849 -0.25497,0.28225 -0.09552,0.07451 -0.20006,0.12344 -0.31514,0.14752 -0.11507,0.02484 -0.23842,0.02107 -0.37079,-0.009 -0.13388,-0.03086 -0.27377,-0.09484 -0.42194,-0.19118 l -0.46481,-0.30182 0.96496,-1.48578 z"
       id="path1578" />
    <polygon
       points="82.56002,13.29488 79.42898,10.73203 78.8679,11.41771 80.01412,12.35554 77.09592,15.92472 77.93453,16.61191 80.85348,13.04274 81.99895,13.98057 "
       id="polygon1580" />
    <rect
       x="79.348969"
       y="16.127819"
       width="5.4955001"
       height="1.09237"
       transform="rotate(-45.94214,82.096719,16.674013)"
       id="rect1582" />
    <path
       d="m 82.67134,19.24476 c -0.14365,0.26118 -0.22864,0.53289 -0.25497,0.81665 -0.02632,0.28225 0.009,0.56902 0.1083,0.86031 0.09777,0.29053 0.26249,0.57203 0.49188,0.84375 0.23015,0.27247 0.47985,0.47945 0.75061,0.62321 0.26926,0.14376 0.54528,0.22655 0.82808,0.24612 0.28355,0.02107 0.56484,-0.01806 0.84688,-0.11742 0.28054,-0.0986 0.54754,-0.25591 0.80025,-0.47042 l 2.50002,-2.11878 -0.70097,-0.82794 -2.50002,2.12028 c -0.15569,0.13172 -0.31438,0.23032 -0.47609,0.29505 -0.16246,0.06473 -0.3204,0.09484 -0.47534,0.09107 -0.15569,-0.0045 -0.30536,-0.0429 -0.45202,-0.11666 -0.14516,-0.07376 -0.27979,-0.18441 -0.40464,-0.33118 -0.12485,-0.14828 -0.2121,-0.29956 -0.26098,-0.45537 -0.04889,-0.15505 -0.06167,-0.3101 -0.04061,-0.4644 0.02106,-0.1543 0.07747,-0.30559 0.16772,-0.45461 0.09101,-0.14903 0.21435,-0.28978 0.36929,-0.4215 l 2.50002,-2.11953 -0.70247,-0.83095 -2.50002,2.11953 c -0.25271,0.21451 -0.45052,0.4516 -0.59492,0.71278 z"
       id="path1584" />
    <path
       d="m 85.85503,25.31131 2.94001,-1.78308 c 0.06619,-0.03989 0.13538,-0.08505 0.20909,-0.13699 0.07371,-0.05118 0.14817,-0.10537 0.22263,-0.16408 l -1.72986,3.10252 c -0.09251,0.15656 -0.09477,0.30634 -0.0075,0.4501 l 0.07972,0.13097 c 0.08574,0.1415 0.21887,0.20774 0.39937,0.1972 l 3.5244,-0.10838 c -0.08273,0.03914 -0.16246,0.08054 -0.23917,0.12193 -0.07596,0.04215 -0.14591,0.08204 -0.20984,0.12118 l -2.93926,1.78308 0.49564,0.8174 4.69695,-2.84962 -0.42344,-0.70149 C 92.84893,26.25216 92.82561,26.21678 92.80456,26.18818 92.78425,26.15883 92.76244,26.13474 92.73988,26.11592 92.71732,26.09786 92.69024,26.08506 92.6579,26.07678 92.62556,26.0685 92.5857,26.06624 92.53982,26.0685 l -3.4176,0.09333 c -0.09777,0.0038 -0.19555,0.01355 -0.29408,0.0286 -0.09928,0.0143 -0.20006,0.03086 -0.30235,0.04817 0.1241,-0.15656 0.23692,-0.31989 0.33619,-0.49074 l 1.66367,-3.00317 c 0.02407,-0.03989 0.03911,-0.07602 0.04588,-0.10838 0.0068,-0.03161 0.0075,-0.06172 0.0023,-0.09258 -0.006,-0.03011 -0.01655,-0.06097 -0.03234,-0.09183 -0.01579,-0.03161 -0.0346,-0.06699 -0.05942,-0.10688 l -0.42645,-0.7045 -4.69845,2.84962 z"
       id="path1586" />
    <path
       d="m 8.81131,65.89518 c 0,-0.67138 -0.56446,-1.22761 -1.23497,-1.22761 -0.66261,0 -1.2188,0.55623 -1.2188,1.22761 0,0.66311 0.55619,1.22836 1.2188,1.22836 0.67051,0 1.23497,-0.56526 1.23497,-1.22836 z"
       id="path1588" />
    <path
       d="m 91.96421,33.34079 c 0,0.66311 0.55619,1.22836 1.2188,1.22836 0.67051,0 1.23497,-0.56526 1.23497,-1.22836 0,-0.67138 -0.56446,-1.22761 -1.23497,-1.22761 -0.66261,0 -1.2188,0.55623 -1.2188,1.22761 z"
       id="path1590" />
  </g>
  <g
     id="g1618"
     transform="matrix(1.2409175,0,0,1.2409175,-2.5178216,-1.2977705)"
     style="fill:#005a9c">
    <path
       d="m 66.75789,49.23569 c -0.84344,-0.66949 -2.07483,-0.5271 -2.74432,0.31628 -0.82928,1.04553 -1.58246,1.67487 -2.4411,2.04114 -1.5835,0.67383 -2.92578,0.38904 -4.22345,-0.89667 -1.27167,-1.25964 -2.51062,-2.63232 -3.71271,-3.96265 -0.58801,-0.651 -1.177,-1.3031 -1.77368,-1.94763 -1.01947,-1.10095 -2.04437,-2.19757 -3.06818,-3.29535 l -0.09027,-0.09674 c -2.22693,-2.38342 -4.52887,-4.84839 -6.74927,-7.32422 -1.76068,-1.96399 -4.48108,-2.93671 -7.09821,-2.54327 -2.6748,0.39996 -4.83759,2.11176 -6.09076,4.81909 -1.20746,2.60736 -0.79877,5.57013 1.06512,7.73181 3.27905,3.80292 6.0451,6.94714 9.28497,9.90448 1.32489,1.20856 2.92798,1.85199 4.63538,1.86066 1.10754,0.0055 2.77692,-0.11951 4.47998,-1.26617 0.74561,-0.50208 1.44012,-1.01837 1.74554,-1.80634 0.31079,-0.8064 0.02063,-1.73346 -0.70758,-2.25623 -0.70642,-0.50867 -1.63354,-0.47284 -2.30737,0.08691 -0.08478,0.07062 -0.17719,0.15216 -0.2782,0.24023 -1.05859,0.92706 -2.37592,2.08124 -5.06152,0.15314 -2.46057,-1.76715 -4.36578,-4.08325 -6.57324,-6.76556 -0.71948,-0.87384 -1.46393,-1.77814 -2.25952,-2.70197 -0.84991,-0.98572 -1.03363,-2.3421 -0.47931,-3.54089 0.48364,-1.0434 1.41724,-2.34106 3.12579,-2.59644 1.29437,-0.19458 2.74536,0.32269 3.61157,1.2879 2.23895,2.49756 4.55823,4.98206 6.80145,7.38293 1.05103,1.12488 2.10199,2.25085 3.14752,3.38013 0.58588,0.63251 1.16406,1.27264 1.75098,1.92255 1.23248,1.36407 2.50623,2.77368 3.85175,4.10724 2.42914,2.40735 5.44836,3.01709 8.50568,1.71613 1.46838,-0.62714 2.73022,-1.64551 3.96918,-3.20728 0.6684,-0.84229 0.5271,-2.07263 -0.31622,-2.74323 z"
       id="path1594" />
    <path
       d="m 69.81392,38.38614 c 1.26294,-0.59888 2.25635,-1.72595 2.35089,-3.0932 0.24017,-2.37366 -1.71399,-4.64514 -4.58868,-4.99622 -1.76501,-0.22388 -3.40295,0.29889 -4.56366,1.26074 -0.62061,0.51624 -0.78796,1.47162 -0.25,2.14545 0.58795,0.70105 1.26617,0.82379 2.37585,0.21411 0.39777,-0.22601 0.99561,-0.41406 1.65314,-0.36847 1.24005,0.08594 1.59546,1.20319 1.56067,1.71069 -0.0054,0.07501 0.0022,1.80524 -1.74438,1.68463 l -0.65863,-0.04559 c -0.73358,-0.05005 -1.46722,0.6358 -1.52155,1.42047 -0.05872,0.83472 0.55212,1.56396 1.31177,1.61725 l 0.80969,0.05542 c 2.22809,0.15436 1.99548,2.04541 1.94879,2.3476 -0.04346,0.86945 -1.43903,2.3443 -3.92792,0.6673 -0.84448,-0.56842 -6.8678,-8.13397 -6.8678,-8.13397 -2.854,-3.68982 -7.70355,-4.33978 -11.53033,-1.54437 -0.42059,0.30756 -0.69781,0.76074 -0.7782,1.27704 -0.07935,0.51514 0.04565,1.03143 0.35321,1.45203 0.30756,0.4206 0.7608,0.69775 1.276,0.77814 0.51837,0.08051 1.03247,-0.04559 1.45306,-0.35321 2.6106,-1.90741 4.93756,-0.77057 6.13416,0.7771 0,0 6.4668,8.31769 8.13184,9.1991 1.08032,0.57172 2.2085,0.9021 3.3551,0.98145 3.51923,0.24341 5.66248,-1.6955 6.24072,-4.35175 0.37921,-1.74115 -0.7467,-3.91699 -2.52374,-4.70172 z"
       id="path1596" />
    <polygon
       points="23.3561,68.63052 27.38735,68.63052 27.39321,67.85318 24.31704,67.85318 24.31704,65.5231 26.78969,65.5231 26.78969,64.77212 24.31704,64.77212 24.31704,62.5104 27.38735,62.5104 27.38735,61.73306 23.3561,61.73306 "
       id="polygon1598" />
    <path
       d="m 33.35512,61.73306 c -0.08008,0 -0.14844,0.02344 -0.2041,0.06836 -0.05664,0.0459 -0.09473,0.09766 -0.11523,0.15723 l -1.70117,4.8291 c -0.04199,0.1084 -0.08105,0.22656 -0.11816,0.35449 -0.03711,0.12793 -0.06934,0.26172 -0.09668,0.40137 -0.03223,-0.13965 -0.06738,-0.27344 -0.1084,-0.40137 -0.04004,-0.12793 -0.08105,-0.24609 -0.12305,-0.35449 l -1.70605,-4.83398 c -0.02441,-0.06348 -0.0625,-0.11523 -0.11523,-0.15723 -0.05273,-0.042 -0.12109,-0.06348 -0.20508,-0.06348 h -0.77148 l 2.58789,6.89746 h 0.86133 l 2.58789,-6.89746 h -0.77246 z"
       id="path1600" />
    <path
       d="m 36.49965,61.73306 -2.58789,6.89746 h 0.74023 c 0.08008,0 0.14941,-0.02246 0.20703,-0.06836 0.05762,-0.04492 0.09766,-0.09766 0.11816,-0.15723 l 0.58301,-1.65332 h 2.84473 l 0.58789,1.6582 c 0.02832,0.06348 0.06738,0.11523 0.11816,0.1582 0.05078,0.04102 0.11816,0.0625 0.20215,0.0625 h 0.74023 l -2.58301,-6.89746 h -0.9707 z m -0.69824,4.33594 0.97656,-2.77148 c 0.03125,-0.08398 0.06445,-0.18164 0.09961,-0.29395 0.03516,-0.11231 0.07031,-0.23438 0.10449,-0.36719 0.03223,0.12891 0.06543,0.25 0.10059,0.3623 0.03418,0.11133 0.06934,0.20996 0.10449,0.29395 l 0.97656,2.77637 z"
       id="path1602" />
    <path
       d="m 45.62758,66.57779 c 0,0.07031 0.0029,0.14648 0.0078,0.22852 0.0059,0.08203 0.01172,0.16602 0.01855,0.25 l -3.74805,-5.16016 c -0.05176,-0.07031 -0.09961,-0.11426 -0.1416,-0.13379 -0.04199,-0.01953 -0.10254,-0.0293 -0.18359,-0.0293 h -0.49805 v 6.89746 h 0.83984 v -4.87109 c 0,-0.06641 -0.002,-0.13672 -0.0059,-0.20996 -0.0029,-0.07324 -0.0088,-0.15039 -0.01562,-0.23145 l 3.74805,5.14453 c 0.04883,0.0625 0.09863,0.10645 0.14941,0.13086 0.05078,0.02441 0.1123,0.03711 0.18652,0.03711 h 0.48242 v -6.89746 h -0.83984 v 4.84473 z"
       id="path1604" />
    <path
       d="m 51.61196,65.8483 c 0,0.05273 0.01855,0.09668 0.05762,0.13184 0.03809,0.03418 0.08887,0.05176 0.15234,0.05176 h 0.99121 v 1.51172 c -0.22363,0.12305 -0.45117,0.21777 -0.68164,0.28613 -0.23145,0.06836 -0.49414,0.10254 -0.78711,0.10254 -0.38184,0 -0.72656,-0.06152 -1.03418,-0.18652 -0.30859,-0.12402 -0.57129,-0.30371 -0.79004,-0.54004 -0.21875,-0.23633 -0.38672,-0.52539 -0.50391,-0.86621 -0.11719,-0.3418 -0.17578,-0.72754 -0.17578,-1.15723 0,-0.41309 0.05566,-0.78711 0.16797,-1.12109 0.11133,-0.33398 0.27148,-0.61816 0.47949,-0.85254 0.20898,-0.23438 0.46094,-0.41504 0.75586,-0.54102 0.2959,-0.12598 0.62598,-0.18945 0.99023,-0.18945 0.24805,0 0.46289,0.02148 0.64551,0.06348 0.18164,0.04199 0.33887,0.0918 0.47266,0.14941 0.13281,0.05762 0.24707,0.11914 0.34375,0.18359 0.0957,0.06543 0.18457,0.12012 0.26465,0.16602 0.08008,0.04883 0.15527,0.06445 0.22559,0.04688 0.07032,-0.01757 0.12598,-0.06152 0.16797,-0.13086 l 0.26758,-0.43066 c -0.13965,-0.13281 -0.29102,-0.25391 -0.4541,-0.3623 -0.16211,-0.1084 -0.33984,-0.2002 -0.53223,-0.27539 -0.19239,-0.07519 -0.40137,-0.13281 -0.62793,-0.17383 -0.22559,-0.04004 -0.4707,-0.05957 -0.7373,-0.05957 -0.52148,0 -0.99219,0.08496 -1.41211,0.25684 -0.41992,0.17188 -0.77734,0.41211 -1.07324,0.72168 -0.2959,0.30957 -0.52344,0.68066 -0.68262,1.11328 -0.15918,0.43164 -0.23828,0.91016 -0.23828,1.43555 0,0.52148 0.08203,0.99805 0.24609,1.42969 0.16504,0.43262 0.39941,0.80371 0.7041,1.11328 0.30371,0.30957 0.67285,0.5498 1.10449,0.72168 0.43262,0.1709 0.91602,0.25684 1.45117,0.25684 0.44434,0 0.85645,-0.06055 1.23633,-0.18359 0.37988,-0.12207 0.7373,-0.30762 1.07324,-0.55664 V 65.3083 h -2.06738 v 0.54004 z"
       id="path1606" />
    <polygon
       points="55.21645,68.63052 59.2477,68.63052 59.25356,67.85318 56.17739,67.85318 56.17739,65.5231 58.65004,65.5231 58.65004,64.77212 56.17739,64.77212 56.17739,62.5104 59.2477,62.5104 59.2477,61.73306 55.21645,61.73306 "
       id="polygon1608" />
    <polygon
       points="60.64418,68.63052 64.26039,68.63052 64.26039,67.82779 61.59926,67.82779 61.59926,61.73306 60.64418,61.73306 "
       id="polygon1610" />
    <rect
       x="65.530899"
       y="61.733059"
       width="0.95507997"
       height="6.89746"
       id="rect1612" />
    <path
       d="M 71.65395,65.31607 C 71.50844,65.1813 71.3434,65.069 71.15786,64.98013 c -0.18555,-0.08984 -0.375,-0.16895 -0.56738,-0.23926 -0.19238,-0.07031 -0.38086,-0.1377 -0.56641,-0.2041 -0.18555,-0.06738 -0.35156,-0.14453 -0.49609,-0.23438 -0.14551,-0.08887 -0.2627,-0.19629 -0.35156,-0.32227 -0.08984,-0.12598 -0.13379,-0.28516 -0.13379,-0.47754 0,-0.14746 0.02441,-0.28418 0.07324,-0.41211 0.04883,-0.12793 0.12109,-0.24023 0.21777,-0.33594 0.0957,-0.09668 0.2168,-0.17188 0.3623,-0.22559 0.14453,-0.05469 0.31348,-0.08203 0.50684,-0.08203 0.20215,0 0.37695,0.02734 0.52148,0.08203 0.14551,0.05371 0.26953,0.11328 0.37305,0.17773 0.10352,0.06543 0.19043,0.125 0.2627,0.17871 0.07129,0.05469 0.13379,0.08105 0.18652,0.08105 0.09082,0 0.16211,-0.04883 0.21484,-0.14648 l 0.23633,-0.44629 c -0.22461,-0.23438 -0.48926,-0.41309 -0.7959,-0.53516 -0.30566,-0.12305 -0.64258,-0.18359 -1.00977,-0.18359 -0.3291,0 -0.62012,0.05273 -0.87402,0.16016 -0.25391,0.10645 -0.46777,0.24805 -0.64062,0.4248 -0.17285,0.17675 -0.30566,0.37988 -0.39648,0.6084 -0.09082,0.22949 -0.13672,0.46484 -0.13672,0.70605 0,0.30859 0.04492,0.56543 0.13477,0.77148 0.08887,0.20703 0.20605,0.37988 0.35156,0.52051 0.14453,0.13965 0.31055,0.25293 0.49609,0.33789 0.18555,0.08594 0.37402,0.16211 0.56641,0.22852 0.19239,0.06641 0.38184,0.13086 0.56738,0.19141 0.18555,0.06152 0.35059,0.13672 0.49609,0.22559 0.14453,0.08984 0.26172,0.20117 0.35156,0.33398 0.08887,0.13281 0.13379,0.30273 0.13379,0.50879 0,0.18555 -0.0293,0.35449 -0.08691,0.50684 -0.05761,0.15235 -0.1416,0.28223 -0.25195,0.39062 -0.11035,0.10839 -0.24414,0.19238 -0.40137,0.25195 -0.15723,0.05957 -0.33789,0.08984 -0.54102,0.08984 -0.24121,0 -0.44824,-0.03613 -0.62207,-0.1084 -0.17285,-0.07129 -0.32031,-0.15039 -0.44336,-0.23535 -0.12207,-0.08594 -0.22461,-0.16504 -0.30664,-0.23633 -0.08301,-0.07227 -0.15723,-0.10742 -0.22363,-0.10742 -0.04883,0 -0.0918,0.01074 -0.12793,0.0332 -0.03711,0.02344 -0.06738,0.05371 -0.09277,0.0918 l -0.27734,0.45215 c 0.24805,0.27637 0.5498,0.49609 0.90527,0.6582 0.35449,0.16309 0.74414,0.24414 1.16797,0.24414 0.34961,0 0.66113,-0.05566 0.93457,-0.16797 0.27246,-0.11133 0.50293,-0.26562 0.68945,-0.46191 0.1875,-0.19531 0.33008,-0.42578 0.42773,-0.69043 0.09863,-0.26367 0.14746,-0.54785 0.14746,-0.85254 0,-0.2832 -0.04492,-0.52344 -0.13379,-0.71875 -0.08984,-0.19629 -0.20703,-0.36133 -0.35156,-0.49609 z"
       id="path1614" />
    <polygon
       points="75.76137,68.63052 75.76137,62.53091 77.77114,62.53091 77.77114,61.73306 72.78481,61.73306 72.78481,62.53091 74.80043,62.53091 74.80043,68.63052 "
       id="polygon1616" />
  </g>
</svg>
