<?xml version="1.0" encoding="UTF-8"?>
<svg id="Layer_1" xmlns="http://www.w3.org/2000/svg" width="175" height="100" version="1.1" viewBox="0 0 175 100">
  <!-- Generator: Adobe Illustrator 29.1.0, SVG Export Plug-In . SVG Version: 2.1.0 Build 142)  -->
  <defs>
    <style>
      .st0 {
        fill: #231f20;
      }
    </style>
  </defs>
  <g>
    <polygon class="st0" points="60.8983 63.45105 63.69616 63.45105 63.69616 62.65222 60.8983 62.65222 60.8983 60.39343 63.99596 60.39343 63.99596 59.59362 60.0487 59.59362 60.0487 66.58972 64.09655 66.58972 64.09655 65.78991 60.8983 65.78991 60.8983 63.45105"/>
    <polygon class="st0" points="70.28502 59.59362 67.97643 65.35046 65.59752 59.59362 64.68834 59.59362 67.63659 66.62976 68.26647 66.62976 71.14537 59.59362 70.28502 59.59362"/>
    <path class="st0" d="M73.56725,59.55359l-3.00781,7.03613h.85938l.88965-2.11914h3.1875l.89941,2.11914h.91016l-3.00879-7.03613h-.72949ZM72.6483,63.67175l1.25879-2.98926,1.25977,2.98926h-2.51855Z"/>
    <polygon class="st0" points="83.44518 65.11023 79.07799 59.59362 78.3983 59.59362 78.3983 66.58972 79.19713 66.58972 79.19713 61.09265 83.5653 66.58972 84.24498 66.58972 84.24498 59.59362 83.44518 59.59362 83.44518 65.11023"/>
    <path class="st0" d="M89.16588,63.83093h1.88965v1.43945c-.37012.36035-1.13965.62012-1.7998.62012-1.58887,0-2.66797-1.09961-2.66797-2.79883,0-1.68945,1.0791-2.79883,2.63867-2.79883.66895,0,1.31934.19043,1.72852.55957l.37012-.67871c-.56934-.4502-1.24902-.67969-2.19922-.67969-2.08887,0-3.4375,1.58887-3.4375,3.59766,0,2.17871,1.36914,3.59766,3.54785,3.59766.86914,0,1.99902-.34961,2.61816-.96875v-2.68848h-2.68848v.79883Z"/>
    <polygon class="st0" points="94.24791 63.45105 97.04577 63.45105 97.04577 62.65222 94.24791 62.65222 94.24791 60.39343 97.34557 60.39343 97.34557 59.59362 93.3983 59.59362 93.3983 66.58972 97.44616 66.58972 97.44616 65.78991 94.24791 65.78991 94.24791 63.45105"/>
    <polygon class="st0" points="99.88756 59.59362 99.03795 59.59362 99.03795 66.58972 103.33483 66.58972 103.33483 65.78991 99.88756 65.78991 99.88756 59.59362"/>
    <rect class="st0" x="104.6278" y="59.59362" width=".84961" height="6.99609"/>
    <path class="st0" d="M108.18737,61.32214c0-.61914.47949-1.0293,1.25879-1.0293.61035,0,1.0498.2002,1.41992.57031l.45898-.63965c-.39941-.44043-1.11914-.72949-1.92871-.72949-1.3291,0-2.1084.81934-2.1084,1.82812,0,2.31934,3.41797,1.76953,3.41797,3.47852,0,.70996-.63965,1.08984-1.36914,1.08984-.58984,0-1.31934-.29004-1.72949-.83008l-.48926.58008c.34961.65918,1.34863,1.04883,2.20898,1.04883,1.26855,0,2.27832-.74902,2.27832-1.89844,0-2.38867-3.41797-1.73926-3.41797-3.46875Z"/>
    <polygon class="st0" points="112.09752 59.59362 112.09752 60.39343 114.54674 60.39343 114.54674 66.58972 115.39635 66.58972 115.39635 60.39343 117.84459 60.39343 117.84459 59.59362 112.09752 59.59362"/>
    <path class="st0" d="M103.77605,47.3761c-.84344-.66949-2.07483-.5271-2.74432.31628-.82928,1.04553-1.58246,1.67487-2.4411,2.04114-1.5835.67383-2.92578.38904-4.22345-.89667-1.27167-1.25964-2.51062-2.63232-3.71271-3.96265-.58801-.651-1.177-1.3031-1.77368-1.94763-1.01947-1.10095-2.04437-2.19757-3.06818-3.29535l-.09027-.09674c-2.22693-2.38342-4.52887-4.84839-6.74927-7.32422-1.76068-1.96399-4.48108-2.93671-7.09821-2.54327-2.6748.39996-4.83759,2.11176-6.09076,4.81909-1.20746,2.60736-.79877,5.57013,1.06512,7.73181,3.27905,3.80292,6.0451,6.94714,9.28497,9.90448,1.32489,1.20856,2.92798,1.85199,4.63538,1.86066,1.10754.00549,2.77692-.11951,4.47998-1.26617.74561-.50208,1.44012-1.01837,1.74554-1.80634.31079-.8064.02063-1.73346-.70758-2.25623-.70642-.50867-1.63354-.47284-2.30737.08691-.08478.07062-.17719.15216-.2782.24023-1.05859.92706-2.37592,2.08124-5.06152.15314-2.46057-1.76715-4.36578-4.08325-6.57324-6.76556-.71948-.87384-1.46393-1.77814-2.25952-2.70197-.84991-.98572-1.03363-2.3421-.47931-3.54089.48364-1.0434,1.41724-2.34106,3.12579-2.59644,1.29437-.19458,2.74536.32269,3.61157,1.2879,2.23895,2.49756,4.55823,4.98206,6.80145,7.38293,1.05103,1.12488,2.10199,2.25085,3.14752,3.38013.58588.63251,1.16406,1.27264,1.75098,1.92255,1.23248,1.36407,2.50623,2.77368,3.85175,4.10724,2.42914,2.40735,5.44836,3.01709,8.50568,1.71613,1.46838-.62714,2.73022-1.64551,3.96918-3.20728.6684-.84229.5271-2.07263-.31622-2.74323Z"/>
    <path class="st0" d="M84.04094,34.97558c.51837.08051,1.03247-.04559,1.45306-.35321,2.6106-1.90741,4.93756-.77057,6.13416.7771,0,0,6.4668,8.31769,8.13184,9.1991,1.08032.57172,2.2085.9021,3.3551.98145,3.51923.24341,5.66248-1.6955,6.24072-4.35175.37921-1.74115-.7467-3.91699-2.52374-4.70172,1.26294-.59888,2.25635-1.72595,2.35089-3.0932.24017-2.37366-1.71399-4.64514-4.58868-4.99622-1.76501-.22388-3.40295.29889-4.56366,1.26074-.62061.51624-.78796,1.47162-.25,2.14545.58795.70105,1.26617.82379,2.37585.21411.39777-.22601.99561-.41406,1.65314-.36847,1.24005.08594,1.59546,1.20319,1.56067,1.71069-.00543.07501.0022,1.80524-1.74438,1.68463l-.65863-.04559c-.73358-.05005-1.46722.6358-1.52155,1.42047-.05872.83472.55212,1.56396,1.31177,1.61725l.80969.05542c2.22809.15436,1.99548,2.04541,1.94879,2.3476-.04346.86945-1.43903,2.3443-3.92792.6673-.84448-.56842-6.8678-8.13397-6.8678-8.13397-2.854-3.68982-7.70355-4.33978-11.53033-1.54437-.42059.30756-.69781.76074-.7782,1.27704-.07935.51514.04565,1.03143.35321,1.45203s.7608.69775,1.276.77814Z"/>
  </g>
  <g>
    <polygon class="st0" points="52.85242 67.80606 49.33021 68.27555 51.91897 65.83544 51.42666 64.79551 46.03444 65.7096 46.53055 66.75645 49.9207 66.14867 47.3513 68.48989 47.86919 69.58376 51.2946 69.05135 48.67057 71.27641 49.25311 72.50649 53.34473 68.84668 52.85242 67.80606"/>
    <path class="st0" d="M48.34421,64.18566c1.61452-.45981,2.29214-1.89732,1.85376-3.43855-.43976-1.54123-1.85307-2.38341-3.38738-1.94572-1.61383.45981-2.29179,1.89663-1.85272,3.43786.45946,1.61452,1.91772,2.36543,3.38635,1.94641ZM46.04343,61.93086c-.23267-.81867.19188-1.63526,1.11772-1.8994.85393-.24339,1.67675.06223,1.95091,1.02472.2306.81037-.24927,1.65186-1.11772,1.8994-.92653.26413-1.71201-.18531-1.95091-1.02472Z"/>
    <path class="st0" d="M49.07437,56.11029l-1.82368.25722-.06188-.43907,1.64598-1.52325-.20432-1.44373-1.84062,1.80813c-.18116-.26275-.65964-.80346-1.62697-.66655-.96111.13552-1.59654.74123-1.39672,2.16284.02074.14935.22403,1.47969.26482,1.7701l5.21141-.73431-.16802-1.19136ZM44.97964,56.68695c-.04218-.24408-.06292-.3395-.08816-.51927-.08055-.57252.17355-.76059.4643-.80138.43907-.06154.65341.27243.71772.72671l.06085.43146-1.15471.16249Z"/>
    <polygon class="st0" points="48.55544 49.09075 47.42805 49.12256 47.4882 51.26465 43.35475 51.38012 43.38794 52.58323 48.64879 52.43526 48.55544 49.09075"/>
    <path class="st0" d="M48.5793,48.36612c.04633-.5013.12446-1.18928.15004-1.46655.18462-1.99966-.93552-3.11565-2.40311-3.24979-1.39291-.1293-2.67762.6057-2.87053,2.70216-.03181.34434-.09507,1.27502-.12066,1.55229l-.00933.1051,5.24183.48401.01175-.12723ZM47.6099,46.75851c-.0159.17217-.02558.27727-.05532.43284l-2.99533-.27658c-.00899-.15143.00657-.31668.01867-.44391.08954-.97355.66448-1.63734,1.63077-1.54883.99602.09265,1.49663.80277,1.40121,1.83647Z"/>
    <polygon class="st0" points="49.94075 39.76594 47.00903 37.75937 50.56478 37.6764 50.8946 36.57493 46.2761 33.64736 45.94421 34.75643 48.8704 36.57286 45.39555 36.5936 45.04879 37.75384 47.95112 39.64909 44.51257 39.54745 44.12225 40.85082 49.61128 40.86741 49.94075 39.76594"/>
    <rect class="st0" x="48.94581" y="30.42252" width="1.20389" height="5.26453" transform="translate(-.70091 65.03402) rotate(-66.18191)"/>
    <path class="st0" d="M52.76599,32.28037c.24961-.43838.60398-1.03233.74192-1.27433.99118-1.7459.42939-3.22351-.85255-3.9516-1.2159-.69006-2.68799-.5497-3.72757,1.28125-.17148.30078-.61193,1.1229-.74918,1.36422l-.05186.09196,4.57667,2.59914.06258-.11063ZM52.31724,30.78824l-2.61573-1.48591c.05393-.14105.13621-.28557.19914-.3962.48332-.84978,1.28055-1.21902,2.12377-.73915.86984.49369,1.03267,1.34762.52031,2.24996-.08505.15004-.13691.24131-.22748.37131Z"/>
    <polygon class="st0" points="57.38138 25.15297 56.47489 24.48158 55.28838 26.08227 54.52157 25.51391 55.52831 24.15453 54.62252 23.48244 53.61439 24.84251 52.87178 24.29143 54.01336 22.75021 53.10722 22.07881 51.24931 24.58668 55.47783 27.72099 57.38138 25.15297"/>
    <polygon class="st0" points="60.35943 21.92047 58.84966 18.70457 61.95735 20.43663 62.79988 19.65254 60.30204 14.78961 59.45398 15.57717 61.05502 18.62644 58.05 16.88261 57.16288 17.70682 58.70342 20.8114 55.79106 18.98045 54.79469 19.90699 59.51725 22.70319 60.35943 21.92047"/>
    <polygon class="st0" points="67.00282 16.65098 66.36254 15.72099 64.72071 16.85219 64.17827 16.06602 65.57222 15.1056 64.93263 14.1763 63.53903 15.13672 63.01388 14.37544 64.59348 13.28642 63.9532 12.35781 61.38276 14.1279 64.37049 18.46464 67.00282 16.65098"/>
    <path class="st0" d="M69.1864,15.45409c1.00743-.5414,1.51703-1.40432.9936-2.37787-.32083-.59672-.82662-.7599-1.23215-.70458l-.00726-.01314c.22368-.41003.2344-.83457-.02524-1.31858-.34572-.64166-1.07001-.90994-2.17597-.3153-.50406.27105-1.13224.64304-1.38323.79447l2.47779,4.61055c.28557-.11962.90925-.43768,1.35246-.67554ZM69.09132,13.59203c.16768.31184.05843.60086-.35264.82144-.19879.10717-.29525.13345-.37891.15281l-.46638-.86776.41072-.22057c.34434-.18531.6306-.17701.78721.11409ZM67.39452,12.77129l-.45186-.8408c.11201-.07744.18427-.13345.31668-.20467.2586-.13967.58565-.13552.735.14244.1815.33812.02351.56837-.24823.71426l-.3516.18876Z"/>
    <path class="st0" d="M75.41907,12.79618c.67277-.23786,1.23284-.70735,1.41193-1.14641l-.73362-.69698c-.24477.36647-.59464.61746-.94866.74399-.89265.3153-1.72308-.09196-2.03492-.97079-.34641-.9777.09058-1.72308.8567-1.99412.46811-.16595.79447-.12169,1.12152-.05462l.20121-1.02887c-.40035-.18531-1.04062-.21296-1.69957.02074-1.70787.60501-2.18911,2.05981-1.68436,3.48418.54831,1.54469,1.97269,2.18842,3.50977,1.64287Z"/>
    <path class="st0" d="M79.80282,11.60068c1.56681-.33397,2.50233-1.68643,2.16975-3.24633-.34918-1.6408-1.73691-2.41452-3.30372-2.08055-1.6408.34918-2.48781,1.75143-2.17044,3.24564.34987,1.6408,1.73691,2.41452,3.30441,2.08125ZM78.90394,7.37665c.83181-.17701,1.61798.30216,1.8185,1.24391.18462.86845-.17632,1.66776-1.15471,1.87589-.8242.17563-1.63042-.36024-1.81781-1.24322-.20052-.94175.30009-1.69473,1.15402-1.87658Z"/>
    <polygon class="st0" points="86.45382 5.39635 86.64327 8.56593 83.96047 5.54501 82.99937 5.6024 83.31328 10.85876 84.43895 10.79238 84.25088 7.63801 86.9323 10.64303 87.8934 10.58633 87.58018 5.32928 86.45382 5.39635"/>
    <path class="st0" d="M90.56929,9.69713c-.36785-.02489-.81452-.22679-1.08972-.62921l-.7357.77373c.2178.57943,1.01642.93276,1.72169.97839,1.01366.06569,1.84201-.51305,1.90147-1.42852.11132-1.71132-2.09369-1.64356-2.03699-2.51409.01521-.23993.21988-.37753.55039-.3554.38997.0242.55454.17148.77234.4038l.70389-.85877c-.307-.37407-.83319-.63405-1.50804-.67831-1.05099-.06776-1.74244.59533-1.7943,1.4057-.10994,1.69611,2.08747,1.74106,2.0363,2.52861-.0159.24823-.20674.39412-.52135.37407Z"/>
    <path class="st0" d="M95.43152,11.4617c1.57303.30838,2.96353-.57044,3.26984-2.13587.32152-1.64633-.65065-2.90199-2.22437-3.20968-1.64633-.3229-2.97597.63682-3.26915,2.13518-.32221,1.64702.65134,2.90268,2.22368,3.21037ZM94.46281,8.49748c.18531-.9452.94105-1.44166,1.79775-1.27364.83457.16318,1.37044.91201,1.18583,1.85722-.1701.87053-.8159,1.46586-1.79775,1.27295-.82697-.1618-1.35869-.97079-1.18583-1.85653Z"/>
    <path class="st0" d="M100.6941,10.82903l.41971.14313.61124,2.16007,1.38012.47433-.77649-2.46223c.31737-.04287,1.01573-.22472,1.33379-1.14987.3153-.91824.06361-1.76042-1.29577-2.22783-.14244-.0484-1.42092-.47156-1.69888-.56698l-1.71132,4.98116,1.13881.39136.59879-1.74313ZM101.44017,8.65858c.23717.07329.33258.09818.50268.15627.54831.18807.60017.50061.50475.77857-.14451.41971-.54002.45843-.97355.30977l-.41279-.14175.37891-1.10285Z"/>
    <polygon class="st0" points="108.52262 11.63179 109.00456 10.61053 105.05849 8.74501 104.57517 9.76628 106.00508 10.44113 104.23498 14.1846 105.32401 14.69904 107.09341 10.95625 108.52262 11.63179"/>
    <rect class="st0" x="106.55565" y="13.19096" width="5.26463" height="1.20285" transform="translate(42.13559 101.06334) rotate(-59.6634)"/>
    <path class="st0" d="M111.23931,18.39342c.91132.66655,2.12273.74261,3.07278-.55661l1.8261-2.49335-.97148-.7108-1.68297,2.29974c-.49784.67969-.98876.98185-1.57787.55108-.679-.49784-.51167-1.1478-.02697-1.80951l1.64425-2.24512-.97148-.7108-1.7943,2.45117c-.91063,1.2446-.60985,2.42489.48194,3.2242Z"/>
    <polygon class="st0" points="114.71865 21.11563 117.07993 18.76403 116.6706 21.2318 116.79298 21.35487 119.28356 20.94415 116.90569 23.31235 117.75547 24.16559 121.48719 20.44908 120.68512 19.64424 118.02928 20.12203 118.45521 17.40535 117.60059 16.54657 113.86956 20.26377 114.71865 21.11563"/>
    <polygon class="st0" points="123.07682 32.25825 126.59904 31.79636 124.00612 34.23094 124.49636 35.27225 129.88893 34.36922 129.39593 33.321 126.00439 33.92117 128.57864 31.58686 128.06282 30.49092 124.63672 31.01711 127.2649 28.79757 126.68478 27.56611 122.58659 31.21762 123.07682 32.25825"/>
    <path class="st0" d="M127.57466,35.88625c-1.61314.45774-2.29283,1.89248-1.85514,3.43302.43699,1.54123,1.84754,2.38341,3.38116,1.94849,1.61383-.45774,2.29283-1.89317,1.85583-3.43371-.45704-1.61314-1.91322-2.36405-3.38185-1.9478ZM129.87164,38.14174c.23163.81729-.19291,1.63388-1.11945,1.89663-.85324.24201-1.67468-.0643-1.9478-1.02679-.22956-.81037.25099-1.64978,1.11876-1.89594.92584-.26275,1.70994.18669,1.94849,1.0261Z"/>
    <path class="st0" d="M126.8362,43.97753l1.82541-.25307.06085.43976-1.64978,1.51979.20121,1.44512,1.84546-1.80467c.18047.26275.65825.80415,1.62697.67001.96111-.13414,1.59862-.73915,1.40086-2.16214-.02005-.14866-.22126-1.48038-.26067-1.77079l-5.21625.72394.16595,1.19205ZM130.9337,43.40847c.04218.24477.06292.34088.08781.51927.07882.5739-.17563.76059-.46603.80207-.43976.06085-.65272-.27381-.71634-.72878l-.05946-.43215,1.15402-.16041Z"/>
    <polygon class="st0" points="127.33335 50.99775 128.46179 50.9701 128.40854 48.82731 132.54269 48.72498 132.51226 47.52187 127.25038 47.65324 127.33335 50.99775"/>
    <path class="st0" d="M127.32436,51.59585l-.01245.12723c-.04771.50199-.12861,1.18928-.15557,1.46724-.19015,1.99966.92653,3.11979,2.39516,3.25947,1.39326.13345,2.68004-.5981,2.88055-2.69525.0325-.34434.09888-1.27571.12515-1.55229l.01037-.1051-5.24322-.5013ZM131.30915,53.63215c-.09265.97424-.67001,1.63665-1.63596,1.54399-.99637-.09542-1.49559-.80761-1.39672-1.84062.01659-.17286.02627-.27796.0567-.43423l2.99533.28695c.0083.15143-.00691.31599-.01936.44391Z"/>
    <polygon class="st0" points="125.92834 60.32602 128.85729 62.34365 125.29636 62.41556 124.96308 63.51841 129.57847 66.46258 129.91313 65.35282 126.9897 63.52533 130.46905 63.51496 130.81892 62.35541 127.91969 60.44841 131.3617 60.56042 131.75582 59.25636 126.26161 59.22386 125.92834 60.32602"/>
    <rect class="st0" x="125.71307" y="64.38732" width="1.20357" height="5.26478" transform="translate(13.86313 155.34692) rotate(-66.09787)"/>
    <path class="st0" d="M123.08858,67.80329c-.24961.43768-.60501,1.03094-.7433,1.27364-.9943,1.74382-.43423,3.22282.84633,3.95229,1.21487.69283,2.68833.55454,3.73034-1.27502.17079-.30147.61331-1.12221.75091-1.36422l.05324-.09196-4.57459-2.60605-.06292.11132ZM123.53594,69.29543l2.61366,1.48937c-.05532.14244-.1376.28626-.20052.39758-.48401.84909-1.28194,1.21694-2.12481.73639-.86914-.49507-1.03094-1.3497-.5172-2.25134.08574-.15004.1376-.24201.22887-.372Z"/>
    <polygon class="st0" points="118.46213 74.90442 119.36654 75.57858 120.55858 73.97996 121.3254 74.55178 120.31312 75.90839 121.21822 76.58324 122.2305 75.22525 122.97241 75.77909 121.82531 77.31825 122.73041 77.99241 124.59731 75.488 120.37328 72.34054 118.46213 74.90442"/>
    <polygon class="st0" points="115.47094 78.14452 116.9776 81.36388 113.87094 79.62767 113.02669 80.41038 115.51865 85.28022 116.36844 84.49267 114.77051 81.43994 117.77622 83.1886 118.66403 82.36509 117.12626 79.25636 120.03862 81.09215 121.03706 80.1663 116.31519 77.3625 115.47094 78.14452"/>
    <polygon class="st0" points="108.81856 83.39604 109.45677 84.32603 111.09964 83.19898 111.63965 83.98653 110.24501 84.94418 110.88321 85.87348 112.27786 84.91652 112.80197 85.67918 111.22064 86.76406 111.85884 87.69336 114.43101 85.9281 111.45365 81.5886 108.81856 83.39604"/>
    <path class="st0" d="M106.63153,84.58809c-1.00743.53863-1.5191,1.40086-.99775,2.37511.31876.59602.82489.76128,1.23077.70596l.00691.01314c-.22403.41003-.23647.83457.02282,1.31789.34365.64304,1.06828.91271,2.17528.32014.50406-.26897,1.13258-.63959,1.38427-.7917l-2.46845-4.614c-.28626.11962-.90994.43561-1.35385.67347ZM106.7228,86.44876c-.16595-.31184-.0567-.60017.35471-.82005.19844-.10717.29525-.13276.3796-.15212l.46396.86845-.41072.21988c-.34503.18392-.63129.17563-.78755-.11616ZM108.41753,87.27296l.45013.84218c-.11201.07744-.18462.13345-.31668.20328-.2586.13829-.58565.13483-.73431-.14382-.18047-.33812-.02282-.56837.2503-.71357l.35056-.18807Z"/>
    <path class="st0" d="M100.40646,87.22594c-.67347.23647-1.23423.70527-1.414,1.14365l.73155.69836c.24615-.36508.59602-.61608.95143-.74054.89335-.3153,1.72308.09404,2.03284.97355.34434.97839-.09542,1.72377-.86154,1.99343-.46742.16387-.79378.12031-1.12014.05186l-.20467,1.02818c.40035.186,1.03993.21573,1.69957-.01659,1.70994-.60225,2.19395-2.05635,1.69196-3.48142-.54417-1.54607-1.96716-2.19257-3.507-1.65048Z"/>
    <path class="st0" d="M96.00542,88.41799c-1.56819.33051-2.50579,1.68228-2.17736,3.24287.34641,1.64218,1.73276,2.41936,3.30164,2.08816,1.64149-.34572,2.49196-1.74728,2.17666-3.24287-.34572-1.64149-1.73207-2.41798-3.30095-2.08816ZM96.89669,92.64479c-.83181.17494-1.61867-.30493-1.81642-1.24736-.18323-.86914.17839-1.66845,1.15817-1.8745.82489-.17424,1.62973.3637,1.81642,1.24736.19844.94244-.30424,1.69404-1.15817,1.8745Z"/>
    <polygon class="st0" points="91.38381 89.21454 91.56773 92.36752 88.89185 89.36112 87.93143 89.41644 88.23774 94.67072 89.3641 94.60503 89.1788 91.43822 91.85538 94.45914 92.81648 94.40313 92.50948 89.14954 91.38381 89.21454"/>
    <path class="st0" d="M85.23411,90.29872c.36785.0242.81452.22818,1.08972.63129l.73777-.77303c-.2178-.58081-1.01642-.93552-1.72239-.98254-1.01366-.06845-1.84408.51029-1.90493,1.42645-.11409,1.71271,2.093,1.64771,2.03423,2.51962-.0159.23993-.22126.37753-.55246.3554-.38928-.02627-.55385-.17286-.77165-.40588l-.70596.85739c.307.37545.8325.63682,1.50804.68245,1.05099.06914,1.74451-.59257,1.79914-1.40363.1134-1.69749-2.08678-1.74659-2.03423-2.53552.01659-.24754.20674-.39274.52273-.372Z"/>
    <path class="st0" d="M80.37464,88.5224c-1.57165-.30908-2.96353.56698-3.27191,2.13103-.32429,1.64564.64719,2.90199,2.21953,3.21176,1.64494.32498,2.97597-.63198,3.27122-2.12965.32498-1.64564-.6465-2.90337-2.21884-3.21314ZM81.33921,91.488c-.186.94451-.94313,1.43959-1.79914,1.27087-.83388-.16456-1.36837-.9134-1.18237-1.85791.17148-.87122.81729-1.46448,1.79844-1.27156.82697.16318,1.3573.97286,1.18306,1.8586Z"/>
    <path class="st0" d="M75.12382,89.14263l-.41971-.14589-.60501-2.16076-1.37874-.47779.76958,2.465c-.31668.04149-1.01573.22126-1.33656,1.14434-.31806.91755-.06845,1.76042,1.28885,2.23129.14244.04909,1.41953.47571,1.6968.57182l1.72584-4.97494-1.13812-.39481-.60294,1.74175ZM74.37153,91.31099c-.23717-.07468-.33189-.09957-.50199-.15903-.54831-.19015-.59879-.50199-.50268-.77857.1452-.4204.54002-.45774.97424-.30769l.41279.14313-.38237,1.10216Z"/>
    <polygon class="st0" points="70.48631 85.2574 68.70688 88.99604 67.27939 88.31635 66.79469 89.33623 70.73592 91.21281 71.22201 90.19362 69.79417 89.51393 71.57395 85.77529 70.48631 85.2574"/>
    <rect class="st0" x="64.00497" y="85.56519" width="5.2657" height="1.20362" transform="translate(-41.40913 99.99478) rotate(-59.57622)"/>
    <path class="st0" d="M64.58207,81.54919c-.90925-.66863-2.12135-.74814-3.07623.54901l-1.8344,2.48989.9701.71426,1.69093-2.29698c.49957-.67831.99257-.97908,1.58029-.54624.679.49991.50821,1.14987.02213,1.8102l-1.65186,2.24304.9701.71357,1.80259-2.4484c.91513-1.24252.61677-2.4242-.47364-3.22835Z"/>
    <polygon class="st0" points="61.11172 78.82283 58.74802 81.1689 59.16115 78.7039 59.03981 78.58152 56.55026 78.98532 58.93021 76.62473 58.0825 75.7708 54.34801 79.47763 55.14732 80.28316 57.80178 79.80952 57.37101 82.52482 58.22356 83.38359 61.95943 79.67676 61.11172 78.82283"/>
    <path class="st0" d="M53.222,73.51462c-.60916,0-1.12048.51098-1.12048,1.12774,0,.60916.51132,1.12844,1.12048,1.12844.61642,0,1.13535-.51927,1.13535-1.12844,0-.61677-.51893-1.12774-1.13535-1.12774Z"/>
    <path class="st0" d="M121.01053,25.58845c0,.60916.51132,1.12844,1.12048,1.12844.61642,0,1.13535-.51927,1.13535-1.12844,0-.61677-.51893-1.12774-1.13535-1.12774-.60916,0-1.12048.51098-1.12048,1.12774Z"/>
  </g>
</svg>