<?xml version="1.0" encoding="UTF-8" standalone="no"?>
<svg
   id="Layer_1"
   width="100"
   height="100"
   version="1.1"
   viewBox="0 0 100 100"
   xmlns="http://www.w3.org/2000/svg"
   xmlns:svg="http://www.w3.org/2000/svg">
  <defs
     id="defs3765" />
  <g
     id="g1592"
     transform="matrix(1.0340979,0,0,1.0340979,-2.0981637,-1.0814747)"
     style="fill:#002a56">
    <path
       d="M 92.22694,40.31962 96.02135,40.73133 C 96.07024,40.73585 96.12514,40.74036 96.18456,40.74638 96.24473,40.7524 96.30715,40.75616 96.37184,40.75767 96.31242,40.78251 96.25526,40.8081 96.20111,40.83444 96.14696,40.85928 96.09807,40.88487 96.0552,40.91046 L 92.66768,42.65892 92.8512,43.62686 98.55222,44.20868 98.39352,43.37095 C 98.37773,43.28364 98.33862,43.21289 98.27995,43.1587 98.21978,43.10375 98.15736,43.0729 98.09117,43.06537 L 94.81948,42.85838 C 94.73675,42.85161 94.64725,42.84709 94.55173,42.84408 94.45546,42.84107 94.35392,42.83956 94.24712,42.84032 94.3464,42.79892 94.44041,42.75753 94.52991,42.71688 94.61866,42.67699 94.69989,42.63559 94.77359,42.59344 L 97.71285,41.06024 C 97.78129,41.02261 97.83168,40.96992 97.86177,40.90368 97.89336,40.83669 97.90013,40.75616 97.88208,40.66207 L 97.82266,40.34896 C 97.80687,40.26165 97.76851,40.1924 97.70984,40.13821 97.65042,40.08477 97.588,40.05316 97.52106,40.04337 L 94.22906,39.68811 C 94.14257,39.67306 94.04855,39.66478 93.94852,39.66101 93.84849,39.65724 93.74319,39.65499 93.63338,39.65348 93.84021,39.57219 94.01997,39.49241 94.1734,39.41564 L 97.14124,38.02997 C 97.20743,37.99535 97.25631,37.94266 97.2879,37.87341 97.32024,37.80416 97.32701,37.72212 97.30896,37.62729 L 97.14049,36.73161 92.04492,39.35543 92.22693,40.3196 Z"
       id="path1500" />
    <path
       d="M 97.87832,46.23112 C 97.6226,46.00306 97.32176,45.82919 96.97578,45.71102 96.6283,45.59134 96.25526,45.53715 95.85588,45.54769 95.45275,45.55823 95.08196,45.63199 94.742,45.76973 94.40204,45.90747 94.11022,46.09714 93.86579,46.338 93.62136,46.57886 93.43257,46.86562 93.30095,47.19755 93.16933,47.53023 93.10841,47.89528 93.11894,48.2957 93.12947,48.69612 93.20919,49.05891 93.35886,49.38331 93.50778,49.70696 93.7116,49.98319 93.96882,50.20899 94.22604,50.43554 94.52764,50.60791 94.87361,50.72608 95.22033,50.84274 95.59489,50.89694 95.99727,50.8864 96.39739,50.87511 96.76668,50.8021 97.10513,50.66587 97.44358,50.53039 97.7354,50.34222 97.97984,50.10287 98.22428,49.86201 98.41306,49.57675 98.54693,49.24407 98.6793,48.91289 98.74098,48.54634 98.73045,48.14667 98.71917,47.747 98.63944,47.38421 98.48827,47.05981 98.33785,46.73541 98.13402,46.45842 97.87831,46.23112 Z M 97.69555,48.82634 C 97.61357,49.02053 97.49323,49.18612 97.33454,49.32461 97.17509,49.4631 96.98029,49.57073 96.75015,49.64826 96.52076,49.72654 96.26052,49.76944 95.96795,49.77697 95.67312,49.78525 95.40838,49.75665 95.17297,49.69117 94.93906,49.62493 94.73825,49.52784 94.57354,49.39838 94.40883,49.26892 94.28097,49.10935 94.19071,48.91968 94.0997,48.73001 94.05157,48.51399 94.0448,48.27088 94.03878,48.02777 94.07564,47.80874 94.15611,47.6138 94.23658,47.41886 94.35542,47.25176 94.51336,47.11327 94.67055,46.97553 94.86535,46.8679 95.09625,46.78962 95.32715,46.71209 95.59039,46.66919 95.88522,46.66167 96.17779,46.65339 96.44028,46.68274 96.67343,46.74747 96.90734,46.81295 97.1074,46.9108 97.27362,47.04101 97.43984,47.16972 97.56845,47.33004 97.66021,47.52046 97.75197,47.71164 97.80161,47.92841 97.80838,48.17152 97.8144,48.41388 97.77679,48.63216 97.69556,48.82635 Z"
       id="path1502" />
    <path
       d="M 93.04749,53.00292 95.14965,53.22195 95.11204,53.58775 C 95.10226,53.68183 95.08045,53.75183 95.04811,53.80076 95.01502,53.84818 94.96387,53.88882 94.89393,53.92345 L 93.08735,54.74236 C 92.93166,54.82064 92.84592,54.94633 92.82787,55.11945 L 92.72633,56.09491 94.84503,55.07955 C 94.92701,55.03514 94.99771,54.98622 95.05713,54.93127 95.11805,54.87632 95.16995,54.81686 95.21583,54.75138 95.2602,54.93654 95.32639,55.10363 95.41589,55.25116 95.50389,55.39944 95.60994,55.52739 95.73328,55.63578 95.85662,55.74417 95.99577,55.83148 96.1507,55.89846 96.30639,55.96394 96.47336,56.00609 96.65086,56.02491 96.88477,56.049 97.10213,56.03244 97.3052,55.97674 97.50827,55.91954 97.68727,55.81567 97.84522,55.66438 98.00166,55.51234 98.13403,55.30987 98.23858,55.05773 98.34312,54.80483 98.41533,54.49624 98.45368,54.13044 L 98.62366,52.48359 93.15956,51.91683 93.0475,53.00294 Z M 95.91906,53.30173 97.67976,53.48463 97.62185,54.04462 C 97.5865,54.38558 97.48873,54.62945 97.32777,54.77998 97.16682,54.92976 96.95322,54.98998 96.68697,54.96288 96.55309,54.94933 96.4305,54.91621 96.32069,54.86428 96.21088,54.8131 96.11837,54.74159 96.04466,54.65052 95.97246,54.5602 95.9183,54.4473 95.88521,54.31558 95.85061,54.18311 95.84384,54.02956 95.86189,53.85269 L 95.91905,53.30173 Z"
       id="path1504" />
    <polygon
       points="92.54583,56.91908 91.92459,59.85075 92.7993,60.03666 93.19415,58.17003 97.6933,59.12366 97.91968,58.05863 "
       id="polygon1506" />
    <path
       d="M 91.07771,62.66951 C 90.95135,63.04961 90.90021,63.41616 90.92578,63.77067 90.9506,64.12518 91.04161,64.45033 91.19805,64.74915 91.35524,65.04646 91.57411,65.30914 91.8554,65.53569 92.13519,65.763 92.46687,65.93912 92.84894,66.06708 93.22876,66.19278 93.59804,66.24847 93.9568,66.23417 94.31706,66.21987 94.64724,66.14009 94.95109,65.99557 95.25494,65.8503 95.5227,65.64332 95.7551,65.37461 95.98675,65.10515 96.165,64.78075 96.2906,64.4014 L 96.92162,62.49939 91.70797,60.76749 91.0777,62.6695 Z M 91.89826,62.94198 92.18406,62.07716 95.76036,63.26488 95.47456,64.1297 C 95.39784,64.36002 95.28804,64.55421 95.14513,64.70926 95.00223,64.86506 94.8315,64.98098 94.6352,65.057 94.43815,65.13227 94.21928,65.1684 93.9771,65.16313 93.73417,65.15861 93.47394,65.10969 93.19716,65.01711 92.91662,64.92528 92.6782,64.80711 92.47889,64.66636 92.28033,64.5241 92.12464,64.36454 92.01258,64.18615 91.90052,64.00776 91.83433,63.81358 91.81327,63.60283 91.79296,63.39283 91.82079,63.1723 91.89826,62.94198 Z"
       id="path1508" />
    <path
       d="M 87.89476,70.0442 90.48353,72.85092 C 90.51738,72.88705 90.55423,72.92619 90.59559,72.9706 90.63771,73.01426 90.68208,73.05791 90.73022,73.10157 90.66779,73.082 90.60838,73.06318 90.55122,73.04738 90.49331,73.03082 90.43991,73.01803 90.39177,73.00824 L 86.68987,72.09751 86.19197,72.94728 90.10522,77.13591 90.53618,76.4013 C 90.58131,76.32453 90.59936,76.24625 90.59033,76.16571 90.5813,76.08517 90.55423,76.0212 90.5091,75.97303 L 88.18056,73.66383 C 88.1219,73.60437 88.05797,73.5419 87.98802,73.47566 87.91732,73.41018 87.84136,73.34394 87.76088,73.27394 87.86242,73.30706 87.96019,73.33867 88.0542,73.36652 88.14821,73.39437 88.23696,73.4162 88.3197,73.43351 L 91.54175,74.21253 C 91.61847,74.22834 91.68992,74.22156 91.75685,74.19221 91.82378,74.16286 91.8817,74.10641 91.93059,74.02286 L 92.09154,73.74813 C 92.13667,73.67211 92.15397,73.59458 92.14419,73.51555 92.13516,73.43577 92.10884,73.37028 92.06447,73.31985 L 89.81866,70.88646 C 89.7615,70.81797 89.69757,70.75023 89.62461,70.68173 89.5509,70.61248 89.47344,70.54173 89.39221,70.46797 89.60055,70.54248 89.78857,70.60195 89.95479,70.64485 L 93.10163,71.55257 C 93.17459,71.56988 93.24528,71.56235 93.31448,71.5315 93.38443,71.49989 93.44384,71.44268 93.49273,71.35989 L 93.95302,70.5741 88.38964,69.19821 87.89475,70.04421 Z"
       id="path1510" />
    <rect
       x="86.00074"
       y="74.351952"
       width="1.0921"
       height="5.4948802"
       transform="rotate(-52.57919,86.546805,77.099387)"
       id="rect1512" />
    <path
       d="M 81.82671,78.45458 C 81.55444,78.74812 81.35664,79.06048 81.23104,79.39316 81.10619,79.72584 81.05429,80.06078 81.0731,80.39647 81.09265,80.73292 81.18216,81.06259 81.34311,81.38548 81.50406,81.70837 81.73195,82.00719 82.02678,82.28191 82.31935,82.55513 82.63223,82.75835 82.96542,82.89534 83.29785,83.03157 83.63254,83.09706 83.96874,83.09179 84.30569,83.08652 84.63511,83.00975 84.95702,82.86072 85.27968,82.71244 85.57676,82.49191 85.84978,82.19912 L 87.21336,80.73216 83.19106,76.98836 81.82673,78.45457 Z M 85.21874,81.61279 C 85.05403,81.79042 84.87352,81.92063 84.67872,82.00267 84.48317,82.08546 84.28085,82.11933 84.07101,82.10729 83.86042,82.09449 83.64607,82.03428 83.42795,81.92966 83.20908,81.82353 82.99248,81.67225 82.77888,81.47203 82.56302,81.27107 82.3938,81.06559 82.27196,80.85409 82.15012,80.64259 82.07566,80.43184 82.04708,80.2241 82.01925,80.0141 82.04031,79.81013 82.10875,79.61067 82.17719,79.41121 82.29452,79.22154 82.45999,79.04466 L 83.07973,78.37779 85.83848,80.94591 85.21874,81.61278 Z"
       id="path1514" />
    <polygon
       points="79.14693,85.31745 80.4872,84.17941 81.42659,85.2881 79.70425,86.74979 80.26382,87.40988 82.81875,85.24068 79.26426,81.04904 76.70933,83.21825 77.26515,83.8806 78.99125,82.41514 79.94944,83.54566 78.60842,84.6837 "
       id="polygon1516" />
    <path
       d="M 72.15153,86.29819 72.94727,90.03371 C 72.95705,90.08188 72.96983,90.13457 72.98337,90.19328 72.99616,90.25199 73.0127,90.31296 73.03151,90.37543 72.98864,90.32651 72.94652,90.28059 72.90515,90.23619 72.86454,90.19329 72.82467,90.1549 72.78782,90.12254 L 70.06968,87.44829 69.20776,87.92473 70.43596,93.52537 71.18281,93.1129 C 71.25953,93.07 71.31518,93.01279 71.34827,92.93903 71.38136,92.86452 71.39114,92.79602 71.3776,92.73054 L 70.55253,89.55576 C 70.53298,89.47447 70.50966,89.38867 70.48183,89.29609 70.45475,89.20426 70.42467,89.10792 70.39082,89.00631 70.46001,89.0876 70.52846,89.16437 70.59539,89.23588 70.66158,89.30738 70.72701,89.37287 70.78944,89.42932 L 73.16311,91.74454 C 73.22102,91.79798 73.2857,91.82884 73.35791,91.83712 73.43162,91.84615 73.50984,91.82734 73.59407,91.78067 L 73.8731,91.62712 C 73.94982,91.58422 74.00472,91.52626 74.03631,91.45325 74.0694,91.38024 74.07993,91.31024 74.06865,91.24476 L 73.37671,88.0045 C 73.36317,87.91719 73.34286,87.82536 73.31428,87.72977 73.28645,87.63268 73.25562,87.53182 73.22403,87.4272 73.36543,87.59806 73.4963,87.74408 73.61814,87.86676 L 75.86094,90.25424 C 75.91509,90.30617 75.97977,90.33628 76.05499,90.34531 76.1302,90.35359 76.21143,90.33477 76.29491,90.28811 L 77.09215,89.8478 73.01043,85.82401 72.15152,86.29819 Z"
       id="path1518" />
    <polygon
       points="65.45245,92.87655 67.09808,92.25635 67.60951,93.61568 65.49683,94.41351 65.80068,95.22339 68.93624,94.04094 66.99955,88.89641 63.86399,90.07887 64.16483,90.88949 66.28203,90.09166 66.804,91.47808 65.15988,92.09829 "
       id="polygon1520" />
    <path
       d="M 60.83748,90.92186 C 60.53588,90.99939 60.27716,91.10777 60.06431,91.24626 59.85071,91.3855 59.68224,91.54582 59.55889,91.72647 59.4363,91.90786 59.35808,92.10431 59.32498,92.31882 59.29038,92.53258 59.30317,92.75311 59.36108,92.97967 59.51902,93.59761 59.96352,93.9017 60.69232,93.89116 60.54942,93.9875 60.43134,94.09137 60.33807,94.20277 60.24556,94.31266 60.17637,94.42707 60.12898,94.54373 60.08235,94.6619 60.05602,94.78233 60.05001,94.90577 60.0455,95.02996 60.05904,95.15265 60.08987,95.27609 60.14553,95.49286 60.23127,95.68028 60.34709,95.83683 60.46216,95.99339 60.61259,96.11381 60.79761,96.19736 60.98263,96.28091 61.20526,96.32531 61.46549,96.32983 61.72572,96.33435 62.02657,96.2922 62.36878,96.20489 L 64.17611,95.74124 62.81328,90.41608 60.83748,90.92188 Z M 60.72918,93.21074 C 60.64494,93.16708 60.57725,93.10461 60.5231,93.02408 60.47045,92.94354 60.42984,92.84871 60.40126,92.73957 60.37494,92.63721 60.3629,92.5356 60.36591,92.43398 60.36892,92.33162 60.39299,92.23678 60.43962,92.14796 60.487,92.05914 60.56146,91.97861 60.66225,91.90786 60.76303,91.83636 60.89841,91.7784 61.06613,91.7355 L 61.96791,91.50368 62.35149,92.99999 61.45422,93.23031 C 61.29327,93.27095 61.15337,93.28902 61.03379,93.2845 60.91496,93.27923 60.81342,93.25439 60.72918,93.21074 Z M 62.16196,95.39425 C 61.86262,95.47102 61.62871,95.47178 61.46174,95.39651 61.29477,95.32124 61.17518,95.14738 61.10599,94.87491 61.0383,94.61223 61.07064,94.40449 61.20226,94.24944 61.33313,94.09514 61.54673,93.97923 61.84381,93.90321 L 62.53651,93.72558 62.91482,95.20157 62.16195,95.39425 Z"
       id="path1522" />
    <path
       d="M 55.92844,93.54192 C 55.78855,93.20924 55.60428,92.92699 55.37639,92.69516 55.14775,92.46409 54.88,92.29097 54.57163,92.17732 54.26326,92.06291 53.92331,92.02076 53.55252,92.05162 53.14262,92.08624 52.79514,92.18861 52.50934,92.35946 52.22354,92.52956 51.99189,92.76289 51.8174,93.05719 L 52.28973,93.48697 C 52.3341,93.52761 52.38525,93.54493 52.44316,93.54041 52.474,93.53815 52.50258,93.52837 52.53041,93.5103 52.55749,93.49299 52.58456,93.47267 52.61013,93.44783 52.67256,93.36805 52.73649,93.30031 52.80117,93.24536 52.86585,93.18966 52.93505,93.143 53.01176,93.10461 53.08697,93.06698 53.1697,93.03762 53.25921,93.0173 53.34871,92.99773 53.44949,92.98268 53.56231,92.97364 53.75184,92.95708 53.93235,92.98493 54.10458,93.05493 54.27681,93.12493 54.431,93.23557 54.56563,93.38611 54.70176,93.53664 54.81458,93.72557 54.90634,93.95363 54.99735,94.18094 55.05526,94.44588 55.08008,94.74544 55.1049,95.04199 55.09512,95.30995 55.04924,95.54779 55.00487,95.78563 54.92965,95.98961 54.82436,96.16047 54.71907,96.33133 54.5882,96.4653 54.43025,96.56315 54.27306,96.66024 54.0933,96.71745 53.89324,96.73476 53.70822,96.74981 53.55629,96.74078 53.4337,96.70616 53.31186,96.67229 53.21032,96.6324 53.12684,96.58648 53.04486,96.54132 52.97416,96.49842 52.917,96.45853 52.85984,96.41939 52.80268,96.40133 52.74477,96.4066 52.68686,96.41112 52.64323,96.42767 52.61315,96.45477 52.58457,96.48262 52.55825,96.51197 52.53643,96.54434 L 52.21603,97.0825 C 52.42286,97.28121 52.67407,97.434 52.96814,97.54088 53.26221,97.64776 53.59239,97.68615 53.96093,97.65529 54.32345,97.62443 54.65062,97.52809 54.94169,97.36551 55.23201,97.20293 55.47569,96.98842 55.67274,96.72273 55.86904,96.45779 56.0127,96.14844 56.1037,95.79544 56.19471,95.44319 56.22329,95.06234 56.18869,94.65288 56.1556,94.24568 56.06835,93.87612 55.92846,93.54193 Z"
       id="path1524" />
    <path
       d="M 50.47186,93.01279 C 50.24848,92.75161 49.97547,92.54463 49.65356,92.39033 49.33241,92.23528 48.97139,92.14947 48.57202,92.13292 48.1719,92.11561 47.80562,92.17055 47.47168,92.29776 47.13849,92.42421 46.84893,92.60861 46.60525,92.84872 46.36232,93.09033 46.16978,93.38011 46.02838,93.71806 45.88773,94.05526 45.80876,94.42633 45.79146,94.82825 45.77491,95.22792 45.8223,95.602 45.93511,95.94898 46.04717,96.29596 46.2149,96.60004 46.43677,96.86047 46.6594,97.12165 46.93091,97.33014 47.25281,97.48669 47.57471,97.64174 47.93498,97.7283 48.3351,97.74561 48.73447,97.76217 49.10075,97.70647 49.43469,97.57852 49.76863,97.44981 50.05819,97.26616 50.30338,97.02681 50.54782,96.78671 50.74111,96.49843 50.88401,96.16048 51.02691,95.82178 51.10664,95.45297 51.12318,95.05405 51.13973,94.65137 51.09159,94.27579 50.97802,93.92655 50.86445,93.57806 50.69598,93.27398 50.47185,93.0128 Z M 49.87092,95.78789 C 49.78969,96.0167 49.67838,96.20939 49.53849,96.36594 49.39784,96.52325 49.22862,96.64142 49.03232,96.7197 48.83602,96.79873 48.6164,96.83335 48.37422,96.82282 48.13129,96.81228 47.91618,96.7596 47.72891,96.66551 47.54013,96.57067 47.38294,96.43896 47.25658,96.27036 47.12947,96.10176 47.03546,95.90004 46.97303,95.66521 46.91136,95.43113 46.88654,95.16769 46.89857,94.87566 46.91136,94.57986 46.95874,94.31718 47.03997,94.08761 47.1212,93.85729 47.23251,93.66536 47.37316,93.50956 47.51381,93.35376 47.68077,93.23709 47.87632,93.15957 48.07187,93.0828 48.28998,93.04893 48.53216,93.05871 48.77509,93.06925 48.99095,93.12118 49.17973,93.21527 49.36926,93.30785 49.52796,93.43881 49.65431,93.60591 49.78142,93.773 49.87543,93.97397 49.9371,94.20955 49.99877,94.44589 50.02359,94.71158 50.01156,95.00663 49.99877,95.29942 49.95214,95.55985 49.87091,95.78791 Z"
       id="path1526" />
    <path
       d="M 43.41327,94.97425 C 43.38619,95.11801 43.36589,95.27607 43.3516,95.44768 L 41.33744,91.47055 C 41.29532,91.39528 41.24944,91.33883 41.1998,91.29969 41.14866,91.2613 41.08172,91.23421 40.99748,91.21915 L 40.44844,91.11754 39.4564,96.5255 40.39729,96.69786 40.97792,93.52986 C 41.0065,93.36954 41.02982,93.19868 41.04636,93.01654 L 43.06353,97.01474 C 43.0876,97.05538 43.10866,97.08925 43.12746,97.11485 43.14626,97.14119 43.16807,97.16227 43.19139,97.17883 43.21471,97.19614 43.24329,97.20969 43.27487,97.21947 43.30645,97.22925 43.34482,97.23904 43.3907,97.24732 L 43.95253,97.35044 44.94382,91.94248 44.00067,91.76937 Z"
       id="path1528" />
    <path
       d="M 38.72685,90.7638 C 38.60125,90.65692 38.46436,90.56434 38.3177,90.4823 38.17179,90.40101 38.01911,90.33553 37.86117,90.28736 37.58138,90.2008 37.31965,90.16844 37.07446,90.19027 36.82927,90.2121 36.60815,90.27683 36.40959,90.38446 36.21254,90.49209 36.04256,90.63886 35.89966,90.82252 35.75826,91.00693 35.64996,91.21767 35.57625,91.45477 35.50856,91.6738 35.48299,91.86874 35.50029,92.04261 35.51759,92.21572 35.56347,92.37153 35.63717,92.50927 35.71163,92.64776 35.80564,92.77346 35.91921,92.88485 36.03353,92.997 36.15387,93.10087 36.28022,93.19646 36.40582,93.29205 36.52992,93.38312 36.65176,93.47043 36.7736,93.55699 36.87965,93.64505 36.9684,93.73462 37.0579,93.82419 37.12258,93.91827 37.1632,94.01612 37.20306,94.11472 37.20532,94.22235 37.16846,94.34052 37.11055,94.52794 37.00375,94.66116 36.84731,94.74019 36.69162,94.81922 36.49532,94.82148 36.25841,94.74772 36.12378,94.70632 36.01096,94.65063 35.91996,94.58213 35.82896,94.51363 35.75073,94.44514 35.68605,94.3774 35.62212,94.31041 35.56722,94.24869 35.52059,94.1945 35.47471,94.1388 35.42582,94.10343 35.37618,94.08837 35.32278,94.07181 35.2754,94.0688 35.23328,94.08084 35.19041,94.09213 35.14829,94.11998 35.10542,94.16439 L 34.68875,94.57234 C 34.81586,94.80567 34.9926,95.01115 35.21899,95.18878 35.44538,95.36566 35.70862,95.50039 36.00946,95.59372 36.27571,95.67651 36.52541,95.70662 36.75856,95.68479 36.99172,95.66372 37.20155,95.6035 37.38808,95.50565 37.57385,95.40705 37.7333,95.27834 37.86266,95.11727 37.99353,94.95695 38.08829,94.78082 38.14846,94.58814 38.22367,94.34578 38.25376,94.13277 38.24022,93.94987 38.22668,93.76622 38.18381,93.60289 38.11236,93.45988 38.04166,93.31612 37.9484,93.18967 37.83408,93.08053 37.71901,92.97139 37.59867,92.87053 37.47231,92.77946 37.34671,92.68839 37.2211,92.60183 37.09851,92.51828 36.97516,92.43549 36.86987,92.34893 36.78187,92.26011 36.69462,92.17129 36.63145,92.07345 36.59309,91.96958 36.55398,91.86496 36.55624,91.74528 36.5976,91.61131 36.67056,91.37422 36.7924,91.21465 36.96162,91.13487 37.1316,91.05433 37.33392,91.05057 37.57083,91.12358 37.73479,91.17551 37.86867,91.24326 37.97171,91.32831 38.07475,91.41487 38.16199,91.49992 38.23269,91.58723 38.30414,91.67454 38.36657,91.75357 38.41846,91.82206 38.47036,91.89206 38.52752,91.93722 38.59069,91.95679 38.63883,91.97109 38.68621,91.97335 38.7351,91.96206 38.78248,91.95077 38.8246,91.92894 38.8607,91.89658 L 39.32175,91.49842 C 39.25707,91.36294 39.17358,91.23273 39.07054,91.10778 38.9675,90.98434 38.85318,90.86918 38.72682,90.76381 Z"
       id="path1530" />
    <path
       d="M 33.85842,89.07706 C 33.61774,88.81438 33.31314,88.60062 32.94836,88.43804 32.58358,88.27396 32.22257,88.18966 31.86532,88.18439 31.50882,88.17762 31.17187,88.24235 30.85749,88.37632 30.5416,88.51105 30.25655,88.70825 30.00008,88.97018 29.74436,89.23211 29.53377,89.54598 29.36906,89.91479 29.20585,90.27984 29.11259,90.64413 29.08852,91.00842 29.0652,91.37347 29.10807,91.71744 29.21864,92.04184 29.32845,92.36624 29.50369,92.66054 29.74587,92.92473 29.9873,93.18817 30.2904,93.40192 30.65518,93.56601 31.02071,93.72934 31.38247,93.81289 31.73973,93.8174 32.09698,93.82116 32.43393,93.75719 32.74982,93.62472 33.06571,93.49375 33.35226,93.29731 33.60949,93.03538 33.86671,92.7742 34.0773,92.46109 34.24051,92.09529 34.40447,91.72799 34.49848,91.36143 34.5218,90.99488 34.54512,90.62908 34.50074,90.2836 34.38943,89.9577 34.27812,89.6333 34.10062,89.33976 33.85844,89.07707 Z M 33.44927,90.87369 C 33.42069,91.1153 33.34548,91.37121 33.22439,91.64066 33.1048,91.90786 32.96491,92.13291 32.80546,92.31506 32.64526,92.49645 32.47077,92.6357 32.28274,92.72903 32.09396,92.82311 31.8939,92.87053 31.6818,92.87053 31.47046,92.87128 31.25385,92.82161 31.03273,92.72301 30.81086,92.62366 30.63035,92.4957 30.49046,92.33764 30.35132,92.17958 30.2543,91.99894 30.19864,91.79572 30.14298,91.5925 30.12945,91.37046 30.15803,91.1296 30.18811,90.88874 30.26182,90.63434 30.38141,90.36789 30.50175,90.09843 30.64239,89.87113 30.80335,89.68823 30.96355,89.50458 31.13804,89.36684 31.32607,89.27351 31.5141,89.18093 31.71341,89.13427 31.92325,89.13502 32.13234,89.13502 32.34895,89.1847 32.57007,89.28405 32.79194,89.3834 32.97245,89.51136 33.11385,89.66867 33.256,89.82523 33.35453,90.00512 33.41018,90.20683 33.46659,90.4093 33.47937,90.63134 33.44929,90.8737 Z"
       id="path1532" />
    <path
       d="M 28.73728,86.33958 27.63393,88.14449 27.3203,87.95256 C 27.23982,87.90364 27.18567,87.85396 27.15559,87.80353 27.12701,87.7531 27.11197,87.68912 27.11122,87.6116 L 27.15108,85.6268 C 27.14732,85.45293 27.07136,85.32046 26.92319,85.22939 L 26.08684,84.71832 26.0906,87.06892 C 26.09436,87.1615 26.10865,87.2473 26.13272,87.32558 26.15604,87.40235 26.18687,87.47536 26.22598,87.54461 26.03946,87.50472 25.8612,87.49343 25.68972,87.50999 25.51749,87.52655 25.35653,87.56644 25.20536,87.63042 25.05494,87.6959 24.9158,87.78397 24.78944,87.89536 24.66308,88.00751 24.55328,88.13998 24.45926,88.29277 24.33667,88.49223 24.25845,88.69696 24.22159,88.90394 24.18474,89.11168 24.20128,89.31866 24.27048,89.5264 24.33967,89.73263 24.46453,89.93811 24.64804,90.14284 24.83005,90.34681 25.07825,90.54477 25.39113,90.73595 L 26.80134,91.60002 29.6684,86.91086 Z M 26.30645,90.31596 25.8266,90.02317 C 25.53553,89.84403 25.35653,89.64984 25.29034,89.43985 25.22491,89.22985 25.26176,89.01007 25.4009,88.78201 25.47235,88.66685 25.55433,88.57051 25.64759,88.49449 25.7416,88.41696 25.8454,88.36578 25.95972,88.33718 26.07254,88.31008 26.19739,88.31008 26.33126,88.33643 26.46438,88.36428 26.60653,88.42299 26.75771,88.51557 L 27.23079,88.8046 26.30644,90.31597 Z"
       id="path1534" />
    <polygon
       points="23.75002,82.91718 20.9311,86.56463 19.75931,85.65841 19.21778,86.35915 22.41803,88.8362 22.9603,88.13471 21.78851,87.22774 24.60818,83.58103 "
       id="polygon1536" />
    <rect
       x="16.85565"
       y="82.43737"
       width="5.4951801"
       height="1.09247"
       transform="rotate(-47.54068,19.603245,82.98359)"
       id="rect1538" />
    <path
       d="M 18.9395,80.41153 C 19.07563,80.14584 19.15385,79.87186 19.1719,79.58811 19.1907,79.3051 19.14708,79.01984 19.04103,78.73081 18.93423,78.44254 18.76275,78.1663 18.52508,77.90061 18.28816,77.63642 18.03245,77.43471 17.75868,77.29922 17.48566,77.16299 17.20663,77.08772 16.92308,77.07568 16.63953,77.06288 16.35899,77.10955 16.07996,77.21643 15.80168,77.32331 15.53994,77.48739 15.29325,77.70793 L 12.85264,79.8952 13.57542,80.70282 16.01603,78.5163 C 16.16871,78.38007 16.32364,78.27695 16.4846,78.2077 16.64405,78.13845 16.80199,78.10383 16.95768,78.10308 17.11262,78.10308 17.26379,78.1377 17.4112,78.2077 17.55861,78.27695 17.697,78.38383 17.82637,78.52834 17.95423,78.6721 18.04524,78.82113 18.09864,78.97543 18.15204,79.12973 18.16934,79.28403 18.15279,79.43908 18.13474,79.59263 18.08284,79.74617 17.99635,79.89746 17.90986,80.04875 17.79102,80.19251 17.63834,80.32949 L 15.19848,82.51676 15.92352,83.32739 18.36488,81.14012 C 18.61157,80.91959 18.80261,80.67723 18.93949,80.41153 Z"
       id="path1540" />
    <path
       d="M 15.60162,74.4481 12.71275,76.31172 C 12.64807,76.35462 12.57963,76.40204 12.50667,76.45473 12.43371,76.50817 12.36226,76.56462 12.28931,76.62559 L 13.93193,73.47565 C 14.01918,73.31759 14.01767,73.16705 13.92667,73.0263 L 13.84394,72.89684 C 13.75444,72.7576 13.61906,72.69588 13.4378,72.71093 L 9.91866,72.91867 C 9.99989,72.87652 10.07811,72.83287 10.15407,72.78996 10.22853,72.74555 10.29772,72.70416 10.3609,72.66351 L 13.24902,70.79839 12.73006,69.99453 8.11509,72.97512 8.55808,73.66382 C 8.5844,73.70371 8.60772,73.73758 8.62953,73.76618 8.65134,73.79478 8.67315,73.81811 8.69722,73.83618 8.71978,73.85424 8.74761,73.86629 8.77995,73.87306 8.81304,73.88059 8.85215,73.88209 8.89878,73.87833 L 12.31112,73.68941 C 12.40889,73.68264 12.50667,73.67059 12.6052,73.65253 12.70373,73.63522 12.80376,73.61565 12.90605,73.59683 12.78571,73.75564 12.67816,73.92198 12.58339,74.09585 L 11.0047,77.14493 C 10.98138,77.18557 10.96709,77.2217 10.96108,77.25331 10.95507,77.28492 10.95582,77.31653 10.96258,77.34664 10.9686,77.37675 10.97988,77.40685 10.99643,77.43771 11.01222,77.46857 11.03328,77.50319 11.05886,77.54233 L 11.50486,78.23479 16.12133,75.25496 15.60162,74.44809 Z"
       id="path1542" />
    <path
       d="M 8.31289,57.30295 4.53051,56.78737 4.36805,56.76705 C 4.30788,56.75952 4.24621,56.75425 4.18153,56.75049 4.2417,56.72716 4.29886,56.70382 4.35376,56.67899 4.40866,56.6549 4.45755,56.63082 4.50193,56.60673 L 7.93608,54.95311 7.77964,53.9799 2.09742,53.24077 2.23205,54.08301 C 2.24709,54.17032 2.28244,54.24182 2.34035,54.29827 2.39826,54.35547 2.46069,54.38784 2.52537,54.39687 L 5.79105,54.69342 C 5.87378,54.7032 5.96328,54.70998 6.05805,54.71525 6.15432,54.72127 6.2551,54.72503 6.36266,54.72805 6.26188,54.76644 6.16711,54.80482 6.07686,54.84246 5.98661,54.88085 5.90387,54.92074 5.83017,54.95988 L 2.84879,56.41179 C 2.7796,56.44792 2.72845,56.4991 2.69536,56.56383 2.66227,56.62931 2.65324,56.70985 2.66828,56.80544 L 2.71942,57.12006 C 2.73371,57.20737 2.76906,57.27812 2.82697,57.33307 2.88488,57.38802 2.94656,57.42189 3.01274,57.43393 L 6.29346,57.87951 C 6.37995,57.89607 6.47322,57.90811 6.57325,57.91413 6.67328,57.92015 6.77933,57.92542 6.88763,57.93069 6.67929,58.00596 6.49653,58.08047 6.3416,58.15273 L 3.33691,59.45711 C 3.26997,59.49023 3.21958,59.54066 3.18574,59.6084 3.15189,59.67689 3.14287,59.75893 3.15791,59.85377 L 3.30232,60.75321 8.46859,58.27165 8.3129,57.30296 Z"
       id="path1544" />
    <path
       d="M 2.82773,51.25145 C 3.07668,51.48628 3.37301,51.66768 3.71673,51.79639 4.05969,51.92585 4.43124,51.98983 4.83061,51.98983 5.23374,51.99058 5.60604,51.92661 5.95051,51.7994 6.29347,51.67069 6.59056,51.49005 6.84252,51.25522 7.09297,51.02114 7.28928,50.74039 7.43067,50.41147 7.57132,50.0833 7.64201,49.71901 7.64277,49.31859 7.64277,48.91817 7.57282,48.55463 7.43218,48.22571 7.29229,47.89754 7.09674,47.61604 6.84628,47.38272 6.59507,47.14939 6.29874,46.9695 5.95503,46.84155 5.61207,46.71435 5.23977,46.65037 4.83664,46.65037 4.43652,46.64962 4.06572,46.71284 3.72276,46.83929 3.3813,46.96574 3.08497,47.14563 2.83376,47.3782 2.58255,47.61153 2.3855,47.89228 2.2426,48.22119 2.1012,48.5486 2.02975,48.9129 2.029,49.31332 2.029,49.71374 2.09895,50.07728 2.2411,50.4062 2.3825,50.73437 2.57805,51.01662 2.82775,51.25145 Z M 3.0827,48.66225 C 3.16919,48.47032 3.29404,48.30774 3.458,48.17376 3.62046,48.04054 3.81751,47.93742 4.04991,47.86592 4.28081,47.79442 4.54254,47.75904 4.83512,47.75979 5.12995,47.75979 5.39394,47.79592 5.62785,47.86817 5.86025,47.93967 6.05731,48.04354 6.21826,48.17677 6.37921,48.31075 6.50331,48.47408 6.5883,48.66601 6.67404,48.85794 6.71616,49.07471 6.71616,49.31783 6.71616,49.56095 6.67329,49.77922 6.5868,49.9719 6.50106,50.16534 6.37771,50.32791 6.21601,50.46264 6.05506,50.59586 5.85725,50.69823 5.6241,50.76973 5.39095,50.84123 5.1262,50.87736 4.83212,50.87661 4.5403,50.87661 4.27781,50.84048 4.04616,50.76823 3.81451,50.69598 3.61746,50.59361 3.455,50.45888 3.29254,50.3249 3.16769,50.16082 3.08045,49.96814 2.99396,49.77546 2.95109,49.55643 2.95184,49.31407 2.95184,49.07096 2.99621,48.85419 3.08271,48.66225 Z"
       id="path1546" />
    <path
       d="M 7.84357,44.61362 5.74818,44.33664 5.79632,43.97159 C 5.80835,43.87901 5.83167,43.80826 5.86551,43.76159 5.89935,43.71492 5.952,43.67503 6.0227,43.64267 L 7.85184,42.87344 C 8.00828,42.79893 8.09853,42.67624 8.1211,42.50388 L 8.24896,41.53143 6.10393,42.48808 C 6.02045,42.53023 5.94824,42.57765 5.88732,42.63109 5.82565,42.68378 5.77149,42.74249 5.72486,42.80571 5.68425,42.61905 5.62332,42.45195 5.53834,42.30067 5.4541,42.15089 5.35182,42.01992 5.23148,41.90777 5.11114,41.79637 4.97426,41.70455 4.82083,41.6338 4.6674,41.5638 4.50193,41.51714 4.32444,41.4938 4.09128,41.46369 3.87317,41.47348 3.6686,41.52391 3.46553,41.57584 3.28201,41.67444 3.12106,41.82122 2.96011,41.96874 2.82322,42.16745 2.71116,42.41658 2.5991,42.66647 2.51862,42.97281 2.47124,43.33635 L 2.25463,44.97868 7.70068,45.69673 7.84358,44.61363 Z M 4.98103,44.23578 3.2256,44.00471 3.29931,43.44623 C 3.34368,43.10677 3.44898,42.86517 3.61445,42.71915 3.77916,42.57388 3.99427,42.51894 4.25976,42.55431 4.39364,42.57162 4.51473,42.60775 4.62303,42.66269 4.73058,42.71688 4.82084,42.7914 4.89229,42.88398 4.96299,42.97656 5.01413,43.09021 5.04346,43.22344 5.07354,43.35666 5.07655,43.51096 5.05399,43.68558 Z"
       id="path1548" />
    <polygon
       points="8.4573,40.69069 9.16052,37.77634 8.29108,37.56709 7.84433,39.42168 3.37226,38.34235 3.11729,39.40061 "
       id="polygon1550" />
    <path
       d="M 10.0781,35.00575 C 10.21423,34.62866 10.2744,34.26361 10.26011,33.9091 10.24507,33.55384 10.16234,33.22567 10.01342,32.9231 9.86525,32.62128 9.65316,32.35257 9.37939,32.11849 9.10562,31.88441 8.77845,31.69775 8.40014,31.56001 8.02408,31.42378 7.6563,31.35829 7.29679,31.36281 6.93728,31.36808 6.60334,31.43732 6.29648,31.57431 5.98811,31.71054 5.7151,31.91 5.47592,32.17269 5.2375,32.43537 5.05022,32.75526 4.91334,33.13084 L 4.23117,35.01478 9.39518,36.88894 Z M 9.26507,34.70995 8.95445,35.56574 5.412,34.28093 5.72262,33.42514 C 5.80535,33.19633 5.92043,33.0059 6.06709,32.85386 6.2145,32.70257 6.38824,32.59118 6.5868,32.52118 6.78536,32.45043 7.00573,32.42183 7.24716,32.43236 7.49009,32.4444 7.74807,32.5001 8.02334,32.59945 8.30087,32.70031 8.53703,32.82375 8.73183,32.97127 8.92588,33.11729 9.07705,33.28212 9.1846,33.46352 9.2914,33.64491 9.35307,33.84061 9.36661,34.05136 9.38165,34.26211 9.34781,34.48264 9.26507,34.70995 Z"
       id="path1552" />
    <path
       d="M 13.46036,27.72137 10.9483,24.84465 C 10.91521,24.80852 10.87911,24.76788 10.83849,24.72272 10.79863,24.67756 10.75501,24.63315 10.70837,24.58799 10.77004,24.60982 10.82871,24.62939 10.88587,24.6467 10.94378,24.66552 10.99568,24.67982 11.04381,24.69036 L 14.71939,25.70195 15.2406,24.86648 11.44243,20.57248 10.99191,21.2958 C 10.94453,21.37031 10.92497,21.44784 10.93174,21.52838 10.93851,21.60892 10.96408,21.67515 11.0077,21.72408 L 13.27231,24.09575 C 13.32872,24.15747 13.39114,24.22145 13.45959,24.28843 13.52878,24.35542 13.60249,24.42542 13.68071,24.49692 13.58068,24.46004 13.48366,24.42617 13.39039,24.39681 13.29713,24.3652 13.20913,24.34111 13.12715,24.32154 L 9.92691,23.45597 C 9.85095,23.43715 9.77874,23.44242 9.71181,23.46952 9.64337,23.49737 9.58395,23.55307 9.53356,23.6336 L 9.36509,23.90456 C 9.31771,23.97983 9.29815,24.0566 9.30492,24.13638 9.31244,24.21541 9.33726,24.28165 9.38013,24.33358 L 11.55975,26.82719 C 11.6139,26.89644 11.67633,26.96794 11.74853,27.03794 11.81998,27.10794 11.89444,27.18095 11.97492,27.25697 11.76734,27.17719 11.58232,27.11246 11.41685,27.06504 L 8.29558,26.07226 C 8.22338,26.05269 8.15193,26.05796 8.08123,26.08656 8.01128,26.11667 7.95036,26.17236 7.89922,26.25441 L 7.41787,27.02741 12.94139,28.55383 13.46035,27.72137 Z"
       id="path1554" />
    <polygon
       points="13.21893,18.53575 12.53225,19.38551 16.802,22.84405 17.48868,21.99353 "
       id="polygon1556" />
    <path
       d="M 19.76006,19.47508 C 20.03985,19.18906 20.24743,18.88273 20.38055,18.55305 20.51443,18.22413 20.57685,17.89145 20.56707,17.555 20.55729,17.21855 20.47606,16.88663 20.32414,16.55846 20.17221,16.2318 19.95184,15.92697 19.66529,15.64396 19.38024,15.36397 19.07262,15.15096 18.74395,15.00494 18.41528,14.85967 18.08209,14.78516 17.74665,14.7814 17.41046,14.77688 17.07877,14.84462 16.75236,14.98387 16.42519,15.12387 16.12209,15.33612 15.8423,15.62214 L 14.43886,17.05071 18.35587,20.90365 19.76007,19.47508 Z M 16.45602,16.22504 C 16.626,16.05193 16.80951,15.92698 17.00657,15.84946 17.20362,15.77344 17.40745,15.74484 17.61729,15.7629 17.82713,15.78172 18.03923,15.84645 18.25508,15.95784 18.47093,16.06923 18.68303,16.2273 18.89062,16.43278 19.10196,16.63901 19.26442,16.84976 19.381,17.06427 19.49607,17.27953 19.56602,17.49179 19.58783,17.70103 19.61039,17.91027 19.58407,18.11425 19.50961,18.31295 19.43515,18.51015 19.31256,18.69531 19.14333,18.86842 L 18.50554,19.51873 15.81749,16.87459 16.45603,16.22503 Z"
       id="path1558" />
    <polygon
       points="22.6211,12.69274 21.24999,13.79315 20.34144,12.66038 22.10289,11.24535 21.56212,10.57096 18.94853,12.66941 22.38569,16.95739 25.00003,14.85894 24.46227,14.18153 22.69631,15.59881 21.77046,14.44271 23.14081,13.34155 "
       id="polygon1560" />
    <path
       d="M 29.63456,11.90996 28.94186,8.15412 C 28.93359,8.10595 28.92231,8.05326 28.91027,7.9938 28.89823,7.93434 28.88395,7.87337 28.8674,7.81015 28.90801,7.86058 28.94863,7.908 28.98924,7.95241 29.02985,7.99682 29.06746,8.03596 29.10356,8.06983 L 31.74799,10.81784 32.62195,10.36473 31.54718,4.73172 30.79055,5.12311 C 30.71233,5.16451 30.65442,5.22096 30.61907,5.29321 30.58372,5.36697 30.57244,5.43547 30.58447,5.50095 L 31.32305,8.69755 C 31.34035,8.77959 31.36141,8.8654 31.38623,8.95873 31.4103,9.05206 31.43813,9.1484 31.46971,9.25152 31.40202,9.16797 31.33583,9.08894 31.27115,9.01593 31.20647,8.94217 31.14329,8.87593 31.08312,8.81798 L 28.77338,6.43803 C 28.71697,6.38308 28.65229,6.34997 28.58009,6.34018 28.50713,6.32889 28.42816,6.34545 28.34317,6.38986 L 28.05962,6.53663 C 27.9814,6.57727 27.92574,6.63372 27.89115,6.70598 27.8573,6.77748 27.84452,6.84673 27.8543,6.91297 L 28.45674,10.17129 C 28.46802,10.25935 28.48607,10.35043 28.51164,10.44903 28.53721,10.54537 28.56504,10.64698 28.59437,10.75311 28.45749,10.57774 28.33038,10.42796 28.21305,10.30226 L 26.03568,7.85457 C 25.98228,7.80038 25.91835,7.76877 25.84314,7.75748 25.76793,7.7477 25.68745,7.7635 25.60171,7.80791 L 24.79319,8.22715 28.7636,12.36083 29.63455,11.90998 Z"
       id="path1562" />
    <polygon
       points="36.52166,5.51299 34.86024,6.08879 34.38566,4.71516 36.52015,3.97678 36.23736,3.15863 33.07096,4.25527 34.86701,9.45022 38.03416,8.35358 37.75437,7.53467 35.61611,8.2753 35.1325,6.87533 36.79392,6.29953 "
       id="polygon1564" />
    <path
       d="M 41.07495,7.59263 C 41.37956,7.52414 41.63979,7.42253 41.8564,7.2893 42.07376,7.15683 42.24675,7.00103 42.37461,6.82415 42.50172,6.64577 42.58595,6.45082 42.62506,6.23782 42.66417,6.02482 42.65815,5.80428 42.60551,5.57547 42.46411,4.95376 42.02939,4.63839 41.30059,4.62861 41.4465,4.53678 41.56684,4.43668 41.66236,4.32829 41.75788,4.22066 41.83083,4.10776 41.88047,3.99184 41.93086,3.87593 41.96019,3.7555 41.96922,3.63206 41.97749,3.50862 41.96772,3.38443 41.93914,3.26024 41.89025,3.04272 41.80902,2.8538 41.69846,2.69423 41.58715,2.53391 41.43973,2.40972 41.25697,2.3209 41.07421,2.23284 40.85309,2.18241 40.59285,2.17037 40.33262,2.15908 40.03102,2.19295 39.68731,2.27123 L 37.8672,2.68595 39.08713,8.04574 41.07497,7.59263 Z M 41.24418,5.30826 C 41.32766,5.35493 41.39385,5.4189 41.44575,5.50019 41.49689,5.58223 41.5345,5.67782 41.56007,5.78846 41.58339,5.89082 41.59241,5.99243 41.58715,6.09405 41.58189,6.19641 41.55406,6.2905 41.50592,6.37781 41.45628,6.46587 41.37956,6.5449 41.27728,6.6134 41.17349,6.68189 41.0366,6.73609 40.86813,6.77372 L 39.96033,6.98071 39.61737,5.47461 40.52141,5.26913 C 40.68311,5.233 40.82301,5.2187 40.94184,5.22623 41.06143,5.23451 41.16221,5.26161 41.24419,5.30827 Z M 39.87157,3.08637 C 40.17317,3.01863 40.40632,3.02315 40.57179,3.10368 40.7365,3.18271 40.85007,3.36034 40.91325,3.63507 40.97342,3.89851 40.93581,4.10624 40.80043,4.25753 40.6643,4.40731 40.44769,4.51796 40.1491,4.5857 L 39.45114,4.74451 39.11419,3.25949 39.87157,3.08638 Z"
       id="path1566" />
    <path
       d="M 46.59772,5.96836 C 46.81884,6.2062 47.08283,6.38685 47.38819,6.50878 47.69355,6.63222 48.03125,6.68265 48.40354,6.66233 48.81344,6.63975 49.16393,6.54717 49.45499,6.38384 49.74531,6.22202 49.98222,5.99621 50.16499,5.70568 L 49.70545,5.26311 C 49.66183,5.22171 49.61068,5.2029 49.55352,5.20515 49.52193,5.20741 49.49335,5.21644 49.46552,5.233 49.43769,5.25031 49.41062,5.27063 49.38354,5.29321 49.31961,5.37149 49.25342,5.43772 49.18799,5.49116 49.1218,5.54385 49.0496,5.58976 48.97289,5.62514 48.89617,5.66127 48.81344,5.68761 48.72319,5.70568 48.63294,5.72224 48.5314,5.73503 48.41858,5.74106 48.2283,5.7516 48.04779,5.71999 47.87856,5.64472 47.70933,5.56945 47.55816,5.45505 47.42654,5.30075 47.29567,5.1457 47.18737,4.95377 47.10313,4.72345 47.01814,4.49388 46.967,4.22819 46.9512,3.92787 46.93465,3.63056 46.95195,3.36336 47.00385,3.12703 47.05499,2.88994 47.13622,2.68747 47.24603,2.52038 47.35509,2.35253 47.49047,2.22232 47.65067,2.12899 47.81162,2.03491 47.99213,1.98372 48.19219,1.97243 48.37721,1.96189 48.52989,1.97544 48.65098,2.01307 48.77132,2.0507 48.8721,2.09361 48.95483,2.14178 49.03606,2.1892 49.10525,2.23436 49.16091,2.275 49.21657,2.31564 49.27373,2.33521 49.33089,2.33145 49.3888,2.32919 49.43318,2.31414 49.46326,2.28779 49.49485,2.26069 49.52042,2.23209 49.54374,2.20048 L 49.87918,1.6721 C 49.67761,1.46737 49.43017,1.30705 49.13985,1.19189 48.84878,1.07748 48.5186,1.03007 48.15007,1.05039 47.7868,1.07071 47.45662,1.15727 47.16179,1.31232 46.86696,1.46662 46.61726,1.67436 46.41419,1.93403 46.21037,2.19446 46.05769,2.49929 45.95691,2.84928 45.85613,3.19927 45.81702,3.57862 45.83958,3.98958 45.86214,4.39678 45.93886,4.76935 46.06973,5.10655 46.19985,5.44375 46.37584,5.73052 46.59771,5.96836 Z"
       id="path1568" />
    <path
       d="M 55.64715,2.05295 C 55.43205,1.7865 55.1658,1.57124 54.84841,1.40565 54.53102,1.24081 54.17301,1.14522 53.77364,1.11662 53.37577,1.08877 53.00724,1.13393 52.67029,1.25361 52.33184,1.37253 52.03776,1.54791 51.78656,1.78048 51.53535,2.01381 51.33454,2.29681 51.18186,2.63025 51.03069,2.96444 50.94043,3.33099 50.91185,3.72991 50.88327,4.13108 50.92163,4.50893 51.02542,4.86043 51.12996,5.21193 51.28941,5.52203 51.50602,5.78848 51.72263,6.05568 51.98963,6.27019 52.30702,6.43352 52.62441,6.59685 52.98242,6.69244 53.38179,6.72104 53.78041,6.74889 54.14819,6.70373 54.48589,6.58631 54.82284,6.46965 55.11616,6.29352 55.36586,6.05944 55.61631,5.82536 55.81638,5.54085 55.96755,5.20741 56.11797,4.87322 56.20672,4.50517 56.2353,4.10324 56.26313,3.70357 56.22552,3.32949 56.12324,2.97875 56.02095,2.62876 55.86226,2.32016 55.64715,2.05296 Z M 55.12894,4.02571 C 55.10863,4.32001 55.05448,4.58118 54.96648,4.80924 54.87848,5.03655 54.76266,5.22622 54.61825,5.37751 54.47234,5.52955 54.30161,5.6417 54.10456,5.7132 53.90826,5.78546 53.68864,5.81255 53.44646,5.79599 53.20428,5.77868 52.98918,5.72072 52.8034,5.62212 52.61612,5.52352 52.46194,5.38804 52.3401,5.21793 52.21751,5.04707 52.12951,4.84385 52.07385,4.60601 52.01895,4.36817 52.00165,4.10172 52.02195,3.80818 52.04226,3.51614 52.09641,3.25722 52.18441,3.03067 52.27241,2.80487 52.38898,2.61519 52.53339,2.46165 52.6778,2.30886 52.85003,2.1952 53.04784,2.12219 53.24715,2.04918 53.46752,2.02133 53.7097,2.03789 53.95188,2.0552 54.16473,2.11316 54.3505,2.21402 54.53552,2.31413 54.68895,2.44961 54.81079,2.62197 54.93263,2.79358 55.02213,2.99755 55.07704,3.23314 55.1327,3.46948 55.15,3.73367 55.12894,4.02571 Z"
       id="path1570" />
    <path
       d="M 60.71339,7.75445 C 60.76228,7.79434 60.82922,7.8237 60.91195,7.84176 L 61.45874,7.95692 62.59819,2.57907 61.66331,2.38036 60.99543,5.53105 C 60.96158,5.69062 60.93451,5.86147 60.9127,6.04287 L 59.00609,1.99123 C 58.98353,1.94908 58.96247,1.91521 58.94442,1.88887 58.92637,1.86253 58.90531,1.8407 58.88199,1.82263 58.85943,1.80532 58.8316,1.79102 58.80076,1.77973 58.76842,1.76919 58.73081,1.75941 58.68418,1.74962 L 58.12611,1.6307 56.98741,7.00855 57.92605,7.20801 58.60145,4.02044 C 58.63153,3.87743 58.65635,3.72088 58.67516,3.55002 L 60.57951,7.57983 C 60.61937,7.6566 60.66375,7.71381 60.71339,7.75445 Z"
       id="path1572" />
    <path
       d="M 63.17957,8.36035 C 63.30292,8.46949 63.43604,8.56734 63.58045,8.65239 63.72486,8.73819 63.87528,8.80744 64.03172,8.86088 64.30925,8.95496 64.57023,8.99486 64.81542,8.97905 65.06136,8.96324 65.28474,8.90454 65.4848,8.80217 65.68637,8.70056 65.8601,8.55906 66.00752,8.37917 66.15494,8.19928 66.26775,7.99154 66.34823,7.75671 66.42194,7.53919 66.45202,7.34424 66.43924,7.17113 66.42721,6.99802 66.38584,6.83995 66.31589,6.69996 66.24594,6.55921 66.15494,6.43126 66.04438,6.3161 65.93382,6.20245 65.81574,6.09481 65.69239,5.99621 65.56829,5.89686 65.4472,5.80202 65.32761,5.7117 65.20802,5.62213 65.10498,5.53031 65.01849,5.43848 64.93275,5.3459 64.86957,5.25106 64.83197,5.15246 64.79436,5.05311 64.79512,4.94547 64.83573,4.82731 64.89891,4.64215 65.00947,4.51119 65.16741,4.43667 65.32535,4.36291 65.5209,4.36592 65.75631,4.4457 65.89019,4.49086 66.00075,4.54882 66.09025,4.62032 66.17975,4.69182 66.25571,4.76182 66.31814,4.83107 66.37981,4.90032 66.43397,4.96354 66.47909,5.01924 66.52346,5.07569 66.57085,5.11182 66.62049,5.12838 66.67314,5.14644 66.72052,5.15096 66.76339,5.14042 66.80626,5.12988 66.84913,5.10354 66.89351,5.06064 L 67.32071,4.66398 C 67.20112,4.42689 67.02964,4.21689 66.80702,4.03399 66.5859,3.85034 66.32567,3.70808 66.02858,3.60722 65.76534,3.5169 65.51564,3.48002 65.28248,3.49507 65.04857,3.50937 64.83723,3.56432 64.64845,3.65689 64.45892,3.75022 64.29646,3.87517 64.16258,4.03097 64.02795,4.18828 63.92792,4.36215 63.86249,4.55333 63.78126,4.79268 63.74441,5.00493 63.75419,5.18934 63.76246,5.37299 63.80007,5.53708 63.86776,5.68234 63.9347,5.82761 64.0242,5.95707 64.13626,6.06921 64.24832,6.18135 64.36565,6.28523 64.489,6.38006 64.61235,6.47414 64.73419,6.56447 64.85528,6.65102 64.97637,6.73757 65.07941,6.82639 65.1644,6.91747 65.25014,7.0093 65.31031,7.10865 65.34566,7.21402 65.38101,7.31939 65.3765,7.43832 65.33062,7.57154 65.25165,7.80713 65.12529,7.96218 64.95456,8.0382 64.78308,8.11347 64.58001,8.11196 64.3446,8.03143 64.1829,7.97648 64.05128,7.90498 63.95049,7.81692 63.84971,7.7281 63.76397,7.63854 63.69628,7.55047 63.62709,7.4609 63.56692,7.38187 63.51728,7.31037 63.46764,7.23887 63.41048,7.19295 63.34805,7.17188 63.30142,7.15607 63.25328,7.15306 63.2044,7.16285 63.15626,7.17263 63.11415,7.19296 63.07729,7.22382 L 62.60496,7.60994 C 62.66588,7.74617 62.74561,7.88015 62.84564,8.0066 62.94492,8.13305 63.05623,8.25197 63.17958,8.36036 Z"
       id="path1574" />
    <path
       d="M 67.98181,10.17129 C 68.21722,10.44075 68.51431,10.66203 68.87532,10.8344 69.23558,11.00751 69.59434,11.10235 69.95084,11.11816 70.30809,11.13246 70.64579,11.07827 70.96394,10.95182 71.28284,10.82688 71.5739,10.63645 71.83639,10.38129 72.09888,10.12689 72.31849,9.81829 72.49223,9.45475 72.66597,9.09422 72.76901,8.73218 72.80285,8.36864 72.83594,8.0051 72.80285,7.65962 72.70056,7.33296 72.59902,7.00479 72.4313,6.70674 72.19664,6.43577 71.96273,6.16556 71.66565,5.94427 71.30463,5.77041 70.94437,5.5973 70.58486,5.50396 70.22836,5.48966 69.87111,5.47536 69.53266,5.53106 69.21376,5.6545 68.89336,5.77794 68.60229,5.96611 68.3383,6.22126 68.07356,6.47491 67.85469,6.78275 67.68246,7.14329 67.50722,7.50683 67.40418,7.87113 67.37109,8.23617 67.338,8.60121 67.37335,8.9482 67.47563,9.27561 67.57867,9.60378 67.74714,9.90183 67.9818,10.17129 Z M 68.43909,8.3867 C 68.47519,8.14509 68.55792,7.89144 68.68503,7.62499 68.81214,7.36155 68.9573,7.14102 69.12201,6.96264 69.28672,6.78501 69.46497,6.65179 69.65601,6.56297 69.84705,6.4734 70.04861,6.432 70.25996,6.43803 70.4713,6.44255 70.68641,6.49824 70.90603,6.60287 71.12414,6.70824 71.30164,6.84147 71.43627,7.00329 71.5724,7.16436 71.66491,7.34726 71.7153,7.55199 71.76419,7.75672 71.77171,7.97951 71.73561,8.21886 71.70101,8.45972 71.61978,8.71111 71.49268,8.9753 71.36482,9.24099 71.21891,9.46379 71.05345,9.64292 70.88799,9.82205 70.70973,9.95603 70.51945,10.04334 70.32841,10.1299 70.12835,10.17129 69.91926,10.16527 69.70942,10.15925 69.49507,10.1043 69.2762,9.99893 69.05809,9.89356 68.87984,9.76109 68.74295,9.60001 68.60531,9.43894 68.5113,9.25754 68.46091,9.05357 68.41052,8.85035 68.403,8.62831 68.4391,8.3867 Z"
       id="path1576" />
    <path
       d="M 73.05557,13.06155 74.20781,11.28825 74.51618,11.48846 C 74.5944,11.54039 74.64855,11.59082 74.67638,11.64276 74.70421,11.69319 74.71699,11.75792 74.71624,11.83544 L 74.62147,13.81873 C 74.61997,13.99184 74.69292,14.12657 74.83808,14.22216 L 75.66014,14.75656 75.72106,12.40596 C 75.71956,12.31338 75.70752,12.22758 75.68646,12.1493 75.66465,12.07102 75.63532,11.99726 75.59846,11.92651 75.78423,11.97167 75.96173,11.98823 76.13472,11.97619 76.3062,11.9649 76.46866,11.92877 76.62134,11.86856 76.77402,11.80835 76.91542,11.72405 77.04478,11.61491 77.17414,11.50728 77.28771,11.37857 77.38549,11.22728 77.51335,11.03083 77.59834,10.82912 77.64046,10.62288 77.68183,10.41665 77.6713,10.20891 77.60812,9.99967 77.54494,9.79118 77.42536,9.58194 77.24861,9.37269 77.07186,9.1642 76.82893,8.95947 76.52207,8.76001 L 75.13442,7.8568 72.14026,12.46542 73.05558,13.06154 Z M 75.5947,9.15367 76.06703,9.46076 C 76.35283,9.64742 76.52657,9.84613 76.58599,10.05763 76.64616,10.26988 76.60254,10.48741 76.45738,10.7117 76.38367,10.82611 76.29868,10.92019 76.20241,10.99395 76.10689,11.06846 76.00235,11.11739 75.88727,11.14147 75.7722,11.16631 75.64885,11.16254 75.51648,11.13244 75.3826,11.10158 75.24271,11.0376 75.09454,10.94126 L 74.62973,10.63944 75.59469,9.15366 Z"
       id="path1578" />
    <polygon
       points="77.93453,16.61191 80.85348,13.04274 81.99895,13.98057 82.56002,13.29488 79.42898,10.73203 78.8679,11.41771 80.01412,12.35554 77.09592,15.92472 "
       id="polygon1580" />
    <rect
       x="79.348969"
       y="16.127819"
       width="5.4955001"
       height="1.09237"
       transform="rotate(-45.94214,82.096719,16.674013)"
       id="rect1582" />
    <path
       d="M 82.67134,19.24476 C 82.52769,19.50594 82.4427,19.77765 82.41637,20.06141 82.39005,20.34366 82.4254,20.63043 82.52467,20.92172 82.62244,21.21225 82.78716,21.49375 83.01655,21.76547 83.2467,22.03794 83.4964,22.24492 83.76716,22.38868 84.03642,22.53244 84.31244,22.61523 84.59524,22.6348 84.87879,22.65587 85.16008,22.61674 85.44212,22.51738 85.72266,22.41878 85.98966,22.26147 86.24237,22.04696 L 88.74239,19.92818 88.04142,19.10024 85.5414,21.22052 C 85.38571,21.35224 85.22702,21.45084 85.06531,21.51557 84.90285,21.5803 84.74491,21.61041 84.58997,21.60664 84.43428,21.60212 84.28461,21.56374 84.13795,21.48998 83.99279,21.41622 83.85816,21.30557 83.73331,21.1588 83.60846,21.01052 83.52121,20.85924 83.47233,20.70343 83.42344,20.54838 83.41066,20.39333 83.43172,20.23903 83.45278,20.08473 83.50919,19.93344 83.59944,19.78442 83.69045,19.63539 83.81379,19.49464 83.96873,19.36292 L 86.46875,17.24339 85.76628,16.41244 83.26626,18.53197 C 83.01355,18.74648 82.81574,18.98357 82.67134,19.24475 Z"
       id="path1584" />
    <path
       d="M 85.85503,25.31131 88.79504,23.52823 C 88.86123,23.48834 88.93042,23.44318 89.00413,23.39124 89.07784,23.34006 89.1523,23.28587 89.22676,23.22716 L 87.4969,26.32968 C 87.40439,26.48624 87.40213,26.63602 87.48938,26.77978 L 87.5691,26.91075 C 87.65484,27.05225 87.78797,27.11849 87.96847,27.10795 L 91.49287,26.99957 C 91.41014,27.03871 91.33041,27.08011 91.2537,27.1215 91.17774,27.16365 91.10779,27.20354 91.04386,27.24268 L 88.1046,29.02576 88.60024,29.84316 93.29719,26.99354 92.87375,26.29205 C 92.84893,26.25216 92.82561,26.21678 92.80456,26.18818 92.78425,26.15883 92.76244,26.13474 92.73988,26.11592 92.71732,26.09786 92.69024,26.08506 92.6579,26.07678 92.62556,26.0685 92.5857,26.06624 92.53982,26.0685 L 89.12222,26.16183 C 89.02445,26.16559 88.92667,26.17538 88.82814,26.19043 88.72886,26.20473 88.62808,26.22129 88.52579,26.2386 88.64989,26.08204 88.76271,25.91871 88.86198,25.74786 L 90.52565,22.74469 C 90.54972,22.7048 90.56476,22.66867 90.57153,22.63631 90.5783,22.6047 90.57905,22.57459 90.57379,22.54373 90.56777,22.51362 90.55724,22.48276 90.54145,22.4519 90.52566,22.42029 90.50685,22.38491 90.48203,22.34502 L 90.05558,21.64052 85.35713,24.49014 Z"
       id="path1586" />
    <path
       d="M 8.81131,65.89518 C 8.81131,65.2238 8.24685,64.66757 7.57634,64.66757 6.91373,64.66757 6.35754,65.2238 6.35754,65.89518 6.35754,66.55829 6.91373,67.12354 7.57634,67.12354 8.24685,67.12354 8.81131,66.55828 8.81131,65.89518 Z"
       id="path1588" />
    <path
       d="M 91.96421,33.34079 C 91.96421,34.0039 92.5204,34.56915 93.18301,34.56915 93.85352,34.56915 94.41798,34.00389 94.41798,33.34079 94.41798,32.66941 93.85352,32.11318 93.18301,32.11318 92.5204,32.11318 91.96421,32.66941 91.96421,33.34079 Z"
       id="path1590" />
  </g>
  <g
     id="g1618"
     transform="matrix(1.0340979,0,0,1.0340979,-2.0981637,-1.0814747)"
     style="fill:#005a9c">
    <path
       d="M 66.75789,49.23569 C 65.91445,48.5662 64.68306,48.70859 64.01357,49.55197 63.18429,50.5975 62.43111,51.22684 61.57247,51.59311 59.98897,52.26694 58.64669,51.98215 57.34902,50.69644 56.07735,49.4368 54.8384,48.06412 53.63631,46.73379 53.0483,46.08279 52.45931,45.43069 51.86263,44.78616 50.84316,43.68521 49.81826,42.58859 48.79445,41.49081 L 48.70418,41.39407 C 46.47725,39.01065 44.17531,36.54568 41.95491,34.06985 40.19423,32.10586 37.47383,31.13314 34.8567,31.52658 32.1819,31.92654 30.01911,33.63834 28.76594,36.34567 27.55848,38.95303 27.96717,41.9158 29.83106,44.07748 33.11011,47.8804 35.87616,51.02462 39.11603,53.98196 40.44092,55.19052 42.04401,55.83395 43.75141,55.84262 44.85895,55.84811 46.52833,55.72311 48.23139,54.57645 48.977,54.07437 49.67151,53.55808 49.97693,52.77011 50.28772,51.96371 49.99756,51.03665 49.26935,50.51388 48.56293,50.00521 47.63581,50.04104 46.96198,50.60079 46.8772,50.67141 46.78479,50.75295 46.68378,50.84102 45.62519,51.76808 44.30786,52.92226 41.62226,50.99416 39.16169,49.22701 37.25648,46.91091 35.04902,44.2286 34.32954,43.35476 33.58509,42.45046 32.7895,41.52663 31.93959,40.54091 31.75587,39.18453 32.31019,37.98574 32.79383,36.94234 33.72743,35.64468 35.43598,35.3893 36.73035,35.19472 38.18134,35.71199 39.04755,36.6772 41.2865,39.17476 43.60578,41.65926 45.849,44.06013 46.90003,45.18501 47.95099,46.31098 48.99652,47.44026 49.5824,48.07277 50.16058,48.7129 50.7475,49.36281 51.97998,50.72688 53.25373,52.13649 54.59925,53.47005 57.02839,55.8774 60.04761,56.48714 63.10493,55.18618 64.57331,54.55904 65.83515,53.54067 67.07411,51.9789 67.74251,51.13661 67.60121,49.90627 66.75789,49.23567 Z"
       id="path1594" />
    <path
       d="M 69.81392,38.38614 C 71.07686,37.78726 72.07027,36.66019 72.16481,35.29294 72.40498,32.91928 70.45082,30.6478 67.57613,30.29672 65.81112,30.07284 64.17318,30.59561 63.01247,31.55746 62.39186,32.0737 62.22451,33.02908 62.76247,33.70291 63.35042,34.40396 64.02864,34.5267 65.13832,33.91702 65.53609,33.69101 66.13393,33.50296 66.79146,33.54855 68.03151,33.63449 68.38692,34.75174 68.35213,35.25924 68.3467,35.33425 68.35433,37.06448 66.60775,36.94387 L 65.94912,36.89828 C 65.21554,36.84823 64.4819,37.53408 64.42757,38.31875 64.36885,39.15347 64.97969,39.88271 65.73934,39.936 L 66.54903,39.99142 C 68.77712,40.14578 68.54451,42.03683 68.49782,42.33902 68.45436,43.20847 67.05879,44.68332 64.5699,43.00632 63.72542,42.4379 57.7021,34.87235 57.7021,34.87235 54.8481,31.18253 49.99855,30.53257 46.17177,33.32798 45.75118,33.63554 45.47396,34.08872 45.39357,34.60502 45.31422,35.12016 45.43922,35.63645 45.74678,36.05705 46.05434,36.47765 46.50758,36.7548 47.02278,36.83519 47.54115,36.9157 48.05525,36.7896 48.47584,36.48198 51.08644,34.57457 53.4134,35.71141 54.61,37.25908 54.61,37.25908 61.0768,45.57677 62.74184,46.45818 63.82216,47.0299 64.95034,47.36028 66.09694,47.43963 69.61617,47.68304 71.75942,45.74413 72.33766,43.08788 72.71687,41.34673 71.59096,39.17089 69.81392,38.38616 Z"
       id="path1596" />
    <polygon
       points="27.38735,62.5104 27.38735,61.73306 23.3561,61.73306 23.3561,68.63052 27.38735,68.63052 27.39321,67.85318 24.31704,67.85318 24.31704,65.5231 26.78969,65.5231 26.78969,64.77212 24.31704,64.77212 24.31704,62.5104 "
       id="polygon1598" />
    <path
       d="M 33.35512,61.73306 C 33.27504,61.73306 33.20668,61.7565 33.15102,61.80142 33.09438,61.84732 33.05629,61.89908 33.03579,61.95865 L 31.33462,66.78775 C 31.29263,66.89615 31.25357,67.01431 31.21646,67.14224 31.17935,67.27017 31.14712,67.40396 31.11978,67.54361 31.08755,67.40396 31.0524,67.27017 31.01138,67.14224 30.97134,67.01431 30.93033,66.89615 30.88833,66.78775 L 29.18228,61.95377 C 29.15787,61.89029 29.11978,61.83854 29.06705,61.79654 29.01432,61.75454 28.94596,61.73306 28.86197,61.73306 H 28.09049 L 30.67838,68.63052 H 31.53971 L 34.1276,61.73306 H 33.35514 Z"
       id="path1600" />
    <path
       d="M 36.49965,61.73306 33.91176,68.63052 H 34.65199 C 34.73207,68.63052 34.8014,68.60806 34.85902,68.56216 34.91664,68.51724 34.95668,68.4645 34.97718,68.40493 L 35.56019,66.75161 H 38.40492 L 38.99281,68.40981 C 39.02113,68.47329 39.06019,68.52504 39.11097,68.56801 39.16175,68.60903 39.22913,68.63051 39.31312,68.63051 H 40.05335 L 37.47034,61.73305 H 36.49964 Z M 35.80141,66.069 36.77797,63.29752 C 36.80922,63.21354 36.84242,63.11588 36.87758,63.00357 36.91274,62.89126 36.94789,62.76919 36.98207,62.63638 37.0143,62.76529 37.0475,62.88638 37.08266,62.99868 37.11684,63.11001 37.152,63.20864 37.18715,63.29263 L 38.16371,66.069 Z"
       id="path1602" />
    <path
       d="M 45.62758,66.57779 C 45.62758,66.6481 45.63051,66.72427 45.63539,66.80631 45.64125,66.88834 45.64711,66.97233 45.65394,67.05631 L 41.90589,61.89615 C 41.85413,61.82584 41.80628,61.78189 41.76429,61.76236 41.7223,61.74283 41.66175,61.73306 41.5807,61.73306 H 41.08265 V 68.63052 H 41.92249 V 63.75943 C 41.92249,63.69302 41.92054,63.62271 41.91663,63.54947 41.9137,63.47623 41.90784,63.39908 41.90101,63.31802 L 45.64906,68.46255 C 45.69789,68.52505 45.74769,68.569 45.79847,68.59341 45.84925,68.61782 45.91077,68.63052 45.98499,68.63052 H 46.46741 V 61.73306 H 45.62757 V 66.57779 Z"
       id="path1604" />
    <path
       d="M 51.61196,65.8483 C 51.61196,65.90103 51.63051,65.94498 51.66958,65.98014 51.70767,66.01432 51.75845,66.0319 51.82192,66.0319 H 52.81313 V 67.54362 C 52.5895,67.66667 52.36196,67.76139 52.13149,67.82975 51.90004,67.89811 51.63735,67.93229 51.34438,67.93229 50.96254,67.93229 50.61782,67.87077 50.3102,67.74577 50.00161,67.62175 49.73891,67.44206 49.52016,67.20573 49.30141,66.9694 49.13344,66.68034 49.01625,66.33952 48.89906,65.99772 48.84047,65.61198 48.84047,65.18229 48.84047,64.7692 48.89613,64.39518 49.00844,64.0612 49.11977,63.72722 49.27992,63.44304 49.48793,63.20866 49.69691,62.97428 49.94887,62.79362 50.24379,62.66764 50.53969,62.54166 50.86977,62.47819 51.23402,62.47819 51.48207,62.47819 51.69691,62.49967 51.87953,62.54167 52.06117,62.58366 52.2184,62.63347 52.35219,62.69108 52.485,62.7487 52.59926,62.81022 52.69594,62.87467 52.79164,62.9401 52.88051,62.99479 52.96059,63.04069 53.04067,63.08952 53.11586,63.10514 53.18618,63.08757 53.2565,63.07 53.31216,63.02605 53.35415,62.95671 L 53.62173,62.52605 C 53.48208,62.39324 53.33071,62.27214 53.16763,62.16375 53.00552,62.05535 52.82779,61.96355 52.6354,61.88836 52.44301,61.81317 52.23403,61.75555 52.00747,61.71453 51.78188,61.67449 51.53677,61.65496 51.27017,61.65496 50.74869,61.65496 50.27798,61.73992 49.85806,61.9118 49.43814,62.08368 49.08072,62.32391 48.78482,62.63348 48.48892,62.94305 48.26138,63.31414 48.1022,63.74676 47.94302,64.1784 47.86392,64.65692 47.86392,65.18231 47.86392,65.70379 47.94595,66.18036 48.11001,66.612 48.27505,67.04462 48.50942,67.41571 48.81411,67.72528 49.11782,68.03485 49.48696,68.27508 49.9186,68.44696 50.35122,68.61786 50.83462,68.7038 51.36977,68.7038 51.81411,68.7038 52.22622,68.64325 52.6061,68.52021 52.98598,68.39814 53.3434,68.21259 53.67934,67.96357 V 65.3083 H 51.61196 V 65.84834 Z"
       id="path1606" />
    <polygon
       points="59.2477,62.5104 59.2477,61.73306 55.21645,61.73306 55.21645,68.63052 59.2477,68.63052 59.25356,67.85318 56.17739,67.85318 56.17739,65.5231 58.65004,65.5231 58.65004,64.77212 56.17739,64.77212 56.17739,62.5104 "
       id="polygon1608" />
    <polygon
       points="61.59926,67.82779 61.59926,61.73306 60.64418,61.73306 60.64418,68.63052 64.26039,68.63052 64.26039,67.82779 "
       id="polygon1610" />
    <rect
       x="65.530899"
       y="61.733059"
       width="0.95507997"
       height="6.89746"
       id="rect1612" />
    <path
       d="M 71.65395,65.31607 C 71.50844,65.1813 71.3434,65.069 71.15786,64.98013 70.97231,64.89029 70.78286,64.81118 70.59048,64.74087 70.3981,64.67056 70.20962,64.60317 70.02407,64.53677 69.83852,64.46939 69.67251,64.39224 69.52798,64.30239 69.38247,64.21352 69.26528,64.1061 69.17642,63.98012 69.08658,63.85414 69.04263,63.69496 69.04263,63.50258 69.04263,63.35512 69.06704,63.2184 69.11587,63.09047 69.1647,62.96254 69.23696,62.85024 69.33364,62.75453 69.42934,62.65785 69.55044,62.58265 69.69594,62.52894 69.84047,62.47425 70.00942,62.44691 70.20278,62.44691 70.40493,62.44691 70.57973,62.47425 70.72426,62.52894 70.86977,62.58265 70.99379,62.64222 71.09731,62.70667 71.20083,62.7721 71.28774,62.83167 71.36001,62.88538 71.4313,62.94007 71.4938,62.96643 71.54653,62.96643 71.63735,62.96643 71.70864,62.9176 71.76137,62.81995 L 71.9977,62.37366 C 71.77309,62.13928 71.50844,61.96057 71.2018,61.8385 70.89614,61.71545 70.55922,61.65491 70.19203,61.65491 69.86293,61.65491 69.57191,61.70764 69.31801,61.81507 69.0641,61.92152 68.85024,62.06312 68.67739,62.23987 68.50454,62.41662 68.37173,62.61975 68.28091,62.84827 68.19009,63.07776 68.14419,63.31311 68.14419,63.55432 68.14419,63.86291 68.18911,64.11975 68.27896,64.3258 68.36783,64.53283 68.48501,64.70568 68.63052,64.84631 68.77505,64.98596 68.94107,65.09924 69.12661,65.1842 69.31216,65.27014 69.50063,65.34631 69.69302,65.41272 69.88541,65.47913 70.07486,65.54358 70.2604,65.60413 70.44595,65.66565 70.61099,65.74085 70.75649,65.82972 70.90102,65.91956 71.01821,66.03089 71.10805,66.1637 71.19692,66.29651 71.24184,66.46643 71.24184,66.67249 71.24184,66.85804 71.21254,67.02698 71.15493,67.17933 71.09732,67.33168 71.01333,67.46156 70.90298,67.56995 70.79263,67.67834 70.65884,67.76233 70.50161,67.8219 70.34438,67.88147 70.16372,67.91174 69.96059,67.91174 69.71938,67.91174 69.51235,67.87561 69.33852,67.80334 69.16567,67.73205 69.01821,67.65295 68.89516,67.56799 68.77309,67.48205 68.67055,67.40295 68.58852,67.33166 68.50551,67.25939 68.43129,67.22424 68.36489,67.22424 68.31606,67.22424 68.27309,67.23498 68.23696,67.25744 68.19985,67.28088 68.16958,67.31115 68.14419,67.34924 L 67.86685,67.80139 C 68.1149,68.07776 68.41665,68.29748 68.77212,68.45959 69.12661,68.62268 69.51626,68.70373 69.94009,68.70373 70.2897,68.70373 70.60122,68.64807 70.87466,68.53576 71.14712,68.42443 71.37759,68.27014 71.56411,68.07385 71.75161,67.87854 71.89419,67.64807 71.99184,67.38342 72.09047,67.11975 72.1393,66.83557 72.1393,66.53088 72.1393,66.24768 72.09438,66.00744 72.00551,65.81213 71.91567,65.61584 71.79848,65.4508 71.65395,65.31604 Z"
       id="path1614" />
    <polygon
       points="72.78481,62.53091 74.80043,62.53091 74.80043,68.63052 75.76137,68.63052 75.76137,62.53091 77.77114,62.53091 77.77114,61.73306 72.78481,61.73306 "
       id="polygon1616" />
  </g>
</svg>
