<?xml version="1.0" encoding="UTF-8" standalone="no"?>
<svg
   id="Layer_1"
   width="120"
   height="120"
   version="1.1"
   viewBox="0 0 59.999999 59.999999"
   xmlns="http://www.w3.org/2000/svg"
   xmlns:svg="http://www.w3.org/2000/svg">
  <defs
     id="defs1906" />
  <g
     id="g30"
     transform="matrix(0.67158085,0,0,0.67158085,-29.734863,-1.5467196)">
    <polygon
       points="64.09655,66.02603 64.09655,65.22622 60.8983,65.22622 60.8983,62.88736 63.69616,62.88736 63.69616,62.08853 60.8983,62.08853 60.8983,59.82974 63.99596,59.82974 63.99596,59.02994 60.0487,59.02994 60.0487,66.02603 "
       id="polygon6"
       style="fill:#000000" />
    <polygon
       points="65.59752,59.02994 64.68834,59.02994 67.63659,66.06607 68.26647,66.06607 71.14537,59.02994 70.28502,59.02994 67.97643,64.78677 "
       id="polygon8"
       style="fill:#000000" />
    <path
       d="M 73.56725,58.9899 70.55944,66.02603 H 71.41882 L 72.30847,63.90689 H 75.49597 L 76.39538,66.02603 H 77.30554 L 74.29675,58.9899 H 73.56726 Z M 72.6483,63.10806 73.90709,60.1188 75.16686,63.10806 H 72.64831 Z"
       id="path10"
       style="fill:#000000" />
    <polygon
       points="83.44518,59.02994 83.44518,64.54654 79.07799,59.02994 78.3983,59.02994 78.3983,66.02603 79.19713,66.02603 79.19713,60.52896 83.5653,66.02603 84.24498,66.02603 84.24498,59.02994 "
       id="polygon12"
       style="fill:#000000" />
    <path
       d="M 89.16588,63.26724 H 91.05553 V 64.70669 C 90.68541,65.06704 89.91588,65.32681 89.25573,65.32681 87.66686,65.32681 86.58776,64.2272 86.58776,62.52798 86.58776,60.83853 87.66686,59.72915 89.22643,59.72915 89.89538,59.72915 90.54577,59.91958 90.95495,60.28872 L 91.32507,59.61001 C 90.75573,59.15981 90.07605,58.93032 89.12585,58.93032 87.03698,58.93032 85.68835,60.51919 85.68835,62.52798 85.68835,64.70669 87.05749,66.12564 89.2362,66.12564 90.10534,66.12564 91.23522,65.77603 91.85436,65.15689 V 62.46841 H 89.16588 Z"
       id="path14"
       style="fill:#000000" />
    <polygon
       points="97.44616,66.02603 97.44616,65.22622 94.24791,65.22622 94.24791,62.88736 97.04577,62.88736 97.04577,62.08853 94.24791,62.08853 94.24791,59.82974 97.34557,59.82974 97.34557,59.02994 93.3983,59.02994 93.3983,66.02603 "
       id="polygon16"
       style="fill:#000000" />
    <polygon
       points="103.33483,66.02603 103.33483,65.22622 99.88756,65.22622 99.88756,59.02994 99.03795,59.02994 99.03795,66.02603 "
       id="polygon18"
       style="fill:#000000" />
    <rect
       x="104.6278"
       y="59.029942"
       width="0.84960997"
       height="6.9960899"
       id="rect20"
       style="fill:#000000" />
    <path
       d="M 108.18737,60.75845 C 108.18737,60.13931 108.66686,59.72915 109.44616,59.72915 110.05651,59.72915 110.49596,59.92935 110.86608,60.29946 L 111.32506,59.65981 C 110.92565,59.21938 110.20592,58.93032 109.39635,58.93032 108.06725,58.93032 107.28795,59.74966 107.28795,60.75844 107.28795,63.07778 110.70592,62.52797 110.70592,64.23696 110.70592,64.94692 110.06627,65.3268 109.33678,65.3268 108.74694,65.3268 108.01744,65.03676 107.60729,64.49672 L 107.11803,65.0768 C 107.46764,65.73598 108.46666,66.12563 109.32701,66.12563 110.59556,66.12563 111.60533,65.37661 111.60533,64.22719 111.60533,61.83852 108.18736,62.48793 108.18736,60.75844 Z"
       id="path22"
       style="fill:#000000" />
    <polygon
       points="112.09752,59.82974 114.54674,59.82974 114.54674,66.02603 115.39635,66.02603 115.39635,59.82974 117.84459,59.82974 117.84459,59.02994 112.09752,59.02994 "
       id="polygon24"
       style="fill:#000000" />
    <path
       d="M 103.77605,46.81241 C 102.93261,46.14292 101.70122,46.28531 101.03173,47.12869 100.20245,48.17422 99.44927,48.80356 98.59063,49.16983 97.00713,49.84366 95.66485,49.55887 94.36718,48.27316 93.09551,47.01352 91.85656,45.64084 90.65447,44.31051 90.06646,43.65951 89.47747,43.00741 88.88079,42.36288 87.86132,41.26193 86.83642,40.16531 85.81261,39.06753 L 85.72234,38.97079 C 83.49541,36.58737 81.19347,34.1224 78.97307,31.64657 77.21239,29.68258 74.49199,28.70986 71.87486,29.1033 69.20006,29.50326 67.03727,31.21506 65.7841,33.92239 64.57664,36.52975 64.98533,39.49252 66.84922,41.6542 70.12827,45.45712 72.89432,48.60134 76.13419,51.55868 77.45908,52.76724 79.06217,53.41067 80.76957,53.41934 81.87711,53.42483 83.54649,53.29983 85.24955,52.15317 85.99516,51.65109 86.68967,51.1348 86.99509,50.34683 87.30588,49.54043 87.01572,48.61337 86.28751,48.0906 85.58109,47.58193 84.65397,47.61776 83.98014,48.17751 83.89536,48.24813 83.80295,48.32967 83.70194,48.41774 82.64335,49.3448 81.32602,50.49898 78.64042,48.57088 76.17985,46.80373 74.27464,44.48763 72.06718,41.80532 71.3477,40.93148 70.60325,40.02718 69.80766,39.10335 68.95775,38.11763 68.77403,36.76125 69.32835,35.56246 69.81199,34.51906 70.74559,33.2214 72.45414,32.96602 73.74851,32.77144 75.1995,33.28871 76.06571,34.25392 78.30466,36.75148 80.62394,39.23598 82.86716,41.63685 83.91819,42.76173 84.96915,43.8877 86.01468,45.01698 86.60056,45.64949 87.17874,46.28962 87.76566,46.93953 88.99814,48.3036 90.27189,49.71321 91.61741,51.04677 94.04655,53.45412 97.06577,54.06386 100.12309,52.7629 101.59147,52.13576 102.85331,51.11739 104.09227,49.55562 104.76067,48.71333 104.61937,47.48299 103.77605,46.81239 Z"
       id="path26"
       style="fill:#000000" />
    <path
       d="M 84.04094,34.41189 C 84.55931,34.4924 85.07341,34.3663 85.494,34.05868 88.1046,32.15127 90.43156,33.28811 91.62816,34.83578 91.62816,34.83578 98.09496,43.15347 99.76,44.03488 100.84032,44.6066 101.9685,44.93698 103.1151,45.01633 106.63433,45.25974 108.77758,43.32083 109.35582,40.66458 109.73503,38.92343 108.60912,36.74759 106.83208,35.96286 108.09502,35.36398 109.08843,34.23691 109.18297,32.86966 109.42314,30.496 107.46898,28.22452 104.59429,27.87344 102.82928,27.64956 101.19134,28.17233 100.03063,29.13418 99.41002,29.65042 99.24267,30.6058 99.78063,31.27963 100.36858,31.98068 101.0468,32.10342 102.15648,31.49374 102.55425,31.26773 103.15209,31.07968 103.80962,31.12527 105.04967,31.21121 105.40508,32.32846 105.37029,32.83596 105.36486,32.91097 105.37249,34.6412 103.62591,34.52059 L 102.96728,34.475 C 102.2337,34.42495 101.50006,35.1108 101.44573,35.89547 101.38701,36.73019 101.99785,37.45943 102.7575,37.51272 L 103.56719,37.56814 C 105.79528,37.7225 105.56267,39.61355 105.51598,39.91574 105.47252,40.78519 104.07695,42.26004 101.58806,40.58304 100.74358,40.01462 94.72026,32.44907 94.72026,32.44907 91.86626,28.75925 87.01671,28.10929 83.18993,30.9047 82.76934,31.21226 82.49212,31.66544 82.41173,32.18174 82.33238,32.69688 82.45738,33.21317 82.76494,33.63377 83.0725,34.05437 83.52574,34.33152 84.04094,34.41191 Z"
       id="path28"
       style="fill:#000000" />
  </g>
  <g
     id="g124"
     transform="matrix(0.67158085,0,0,0.67158085,-29.063279,-3.200479)">
    <polygon
       points="51.2946,68.48766 48.67057,70.71272 49.25311,71.9428 53.34473,68.28299 52.85242,67.24237 49.33021,67.71186 51.91897,65.27175 51.42666,64.23182 46.03444,65.14591 46.53055,66.19276 49.9207,65.58498 47.3513,67.92621 47.86919,69.02007 "
       id="polygon32"
       style="fill:#000000" />
    <path
       d="M 48.34421,63.62197 C 49.95873,63.16216 50.63635,61.72465 50.19797,60.18342 49.75821,58.64219 48.3449,57.80001 46.81059,58.2377 45.19676,58.69751 44.5188,60.13433 44.95787,61.67556 45.41733,63.29008 46.87559,64.04099 48.34422,63.62197 Z M 46.04343,61.36717 C 45.81076,60.5485 46.23531,59.73191 47.16115,59.46777 48.01508,59.22438 48.8379,59.53 49.11206,60.49249 49.34266,61.30286 48.86279,62.14435 47.99434,62.39189 47.06781,62.65602 46.28233,62.20658 46.04343,61.36717 Z"
       id="path34"
       style="fill:#000000" />
    <path
       d="M 49.07437,55.5466 47.25069,55.80382 47.18881,55.36475 48.83479,53.8415 48.63047,52.39777 46.78985,54.2059 C 46.60869,53.94315 46.13021,53.40244 45.16288,53.53935 44.20177,53.67487 43.56634,54.28058 43.76616,55.70219 43.7869,55.85154 43.99019,57.18188 44.03098,57.47229 L 49.24239,56.73798 49.07437,55.54662 Z M 44.97964,56.12326 C 44.93746,55.87918 44.91672,55.78376 44.89148,55.60399 44.81093,55.03147 45.06503,54.8434 45.35578,54.80261 45.79485,54.74107 46.00919,55.07504 46.0735,55.52932 L 46.13435,55.96078 44.97964,56.12327 Z"
       id="path36"
       style="fill:#000000" />
    <polygon
       points="43.35475,50.81643 43.38794,52.01954 48.64879,51.87158 48.55544,48.52706 47.42805,48.55887 47.4882,50.70096 "
       id="polygon38"
       style="opacity:1;fill:#000000" />
    <path
       d="M 48.5793,47.80243 C 48.62563,47.30113 48.70376,46.61315 48.72934,46.33588 48.91396,44.33622 47.79382,43.22023 46.32623,43.08609 44.93332,42.95679 43.64861,43.69179 43.4557,45.78825 43.42389,46.13259 43.36063,47.06327 43.33504,47.34054 L 43.32571,47.44564 48.56754,47.92965 48.57929,47.80242 Z M 47.6099,46.19482 C 47.594,46.36699 47.58432,46.47209 47.55458,46.62766 L 44.55925,46.35108 C 44.55026,46.19965 44.56582,46.0344 44.57792,45.90717 44.66746,44.93362 45.2424,44.26983 46.20869,44.35834 47.20471,44.45099 47.70532,45.16111 47.6099,46.19481 Z"
       id="path40"
       style="fill:#000000" />
    <polygon
       points="47.95112,39.0854 44.51257,38.98376 44.12225,40.28713 49.61128,40.30372 49.94075,39.20225 47.00903,37.19568 50.56478,37.11271 50.8946,36.01124 46.2761,33.08367 45.94421,34.19274 48.8704,36.00917 45.39555,36.02991 45.04879,37.19015 "
       id="polygon42"
       style="fill:#000000" />
    <rect
       x="48.945808"
       y="29.858841"
       width="1.20389"
       height="5.2645302"
       transform="rotate(-66.18191,49.547748,32.4911)"
       id="rect44"
       style="fill:#000000" />
    <path
       d="M 52.76599,31.71668 C 53.0156,31.2783 53.36997,30.68435 53.50791,30.44235 54.49909,28.69645 53.9373,27.21884 52.65536,26.49075 51.43946,25.80069 49.96737,25.94105 48.92779,27.772 48.75631,28.07278 48.31586,28.8949 48.17861,29.13622 L 48.12675,29.22818 52.70342,31.82732 52.766,31.71669 Z M 52.31724,30.22455 49.70151,28.73864 C 49.75544,28.59759 49.83772,28.45307 49.90065,28.34244 50.38397,27.49266 51.1812,27.12342 52.02442,27.60329 52.89426,28.09698 53.05709,28.95091 52.54473,29.85325 52.45968,30.00329 52.40782,30.09456 52.31725,30.22456 Z"
       id="path46"
       style="fill:#000000" />
    <polygon
       points="53.10722,21.51512 51.24931,24.02299 55.47783,27.1573 57.38138,24.58928 56.47489,23.91789 55.28838,25.51858 54.52157,24.95022 55.52831,23.59084 54.62252,22.91876 53.61439,24.27882 52.87178,23.72774 54.01336,22.18652 "
       id="polygon48"
       style="fill:#000000" />
    <polygon
       points="58.70342,20.24771 55.79106,18.41677 54.79469,19.3433 59.51725,22.1395 60.35943,21.35678 58.84966,18.14088 61.95735,19.87295 62.79988,19.08885 60.30204,14.22593 59.45398,15.01348 61.05502,18.06275 58.05,16.31893 57.16288,17.14313 "
       id="polygon50"
       style="fill:#000000" />
    <polygon
       points="63.9532,11.79412 61.38276,13.56421 64.37049,17.90095 67.00282,16.08729 66.36254,15.1573 64.72071,16.2885 64.17827,15.50233 65.57222,14.54192 64.93263,13.61261 63.53903,14.57303 63.01388,13.81175 64.59348,12.72273 "
       id="polygon52"
       style="fill:#000000" />
    <path
       d="M 69.1864,14.8904 C 70.19383,14.349 70.70343,13.48608 70.18,12.51253 69.85917,11.91581 69.35338,11.75263 68.94785,11.80795 L 68.94059,11.79481 C 69.16427,11.38478 69.17499,10.96024 68.91535,10.47623 68.56963,9.83457 67.84534,9.56629 66.73938,10.16093 66.23532,10.43198 65.60714,10.80397 65.35615,10.9554 L 67.83394,15.56595 C 68.11951,15.44633 68.74319,15.12827 69.1864,14.89041 Z M 69.09132,13.02834 C 69.259,13.34018 69.14975,13.6292 68.73868,13.84978 68.53989,13.95695 68.44343,13.98323 68.35977,14.00259 L 67.89339,13.13483 68.30411,12.91426 C 68.64845,12.72895 68.93471,12.73725 69.09132,13.02835 Z M 67.39452,12.2076 66.94266,11.3668 C 67.05467,11.28936 67.12693,11.23335 67.25934,11.16213 67.51794,11.02246 67.84499,11.02661 67.99434,11.30457 68.17584,11.64269 68.01785,11.87294 67.74611,12.01883 L 67.39451,12.20759 Z"
       id="path54"
       style="fill:#000000" />
    <path
       d="M 75.41907,12.23249 C 76.09184,11.99463 76.65191,11.52514 76.831,11.08608 L 76.09738,10.3891 C 75.85261,10.75557 75.50274,11.00656 75.14872,11.13309 74.25607,11.44839 73.42564,11.04113 73.1138,10.1623 72.76739,9.1846 73.20438,8.43922 73.9705,8.16818 74.43861,8.00223 74.76497,8.04649 75.09202,8.11356 L 75.29323,7.08469 C 74.89288,6.89938 74.25261,6.87173 73.59366,7.10543 71.88579,7.71044 71.40455,9.16524 71.9093,10.58961 72.45761,12.1343 73.88199,12.77803 75.41907,12.23248 Z"
       id="path56"
       style="fill:#000000" />
    <path
       d="M 79.80282,11.03699 C 81.36963,10.70302 82.30515,9.35056 81.97257,7.79066 81.62339,6.14986 80.23566,5.37614 78.66885,5.71011 77.02805,6.05929 76.18104,7.46154 76.49841,8.95575 76.84828,10.59655 78.23532,11.37027 79.80282,11.037 Z M 78.90394,6.81296 C 79.73575,6.63595 80.52192,7.11512 80.72244,8.05687 80.90706,8.92532 80.54612,9.72463 79.56773,9.93276 78.74353,10.10839 77.93731,9.57252 77.74992,8.68954 77.5494,7.74779 78.05001,6.99481 78.90394,6.81296 Z"
       id="path58"
       style="fill:#000000" />
    <polygon
       points="87.58018,4.76559 86.45382,4.83266 86.64327,8.00224 83.96047,4.98132 82.99937,5.03871 83.31328,10.29507 84.43895,10.22869 84.25088,7.07432 86.9323,10.07934 87.8934,10.02264 "
       id="polygon60"
       style="fill:#000000" />
    <path
       d="M 90.56929,9.13344 C 90.20144,9.10855 89.75477,8.90665 89.47957,8.50423 L 88.74387,9.27796 C 88.96167,9.85739 89.76029,10.21072 90.46556,10.25635 91.47922,10.32204 92.30757,9.7433 92.36703,8.82783 92.47835,7.11651 90.27334,7.18427 90.33004,6.31374 90.34525,6.07381 90.54992,5.93621 90.88043,5.95834 91.2704,5.98254 91.43497,6.12982 91.65277,6.36214 L 92.35666,5.50337 C 92.04966,5.1293 91.52347,4.86932 90.84862,4.82506 89.79763,4.7573 89.10618,5.42039 89.05432,6.23076 88.94438,7.92687 91.14179,7.97182 91.09062,8.75937 91.07472,9.0076 90.88388,9.15349 90.56927,9.13344 Z"
       id="path62"
       style="fill:#000000" />
    <path
       d="M 95.43152,10.89801 C 97.00455,11.20639 98.39505,10.32757 98.70136,8.76214 99.02288,7.11581 98.05071,5.86015 96.47699,5.55246 94.83066,5.22956 93.50102,6.18928 93.20784,7.68764 92.88563,9.33466 93.85918,10.59032 95.43152,10.89801 Z M 94.46281,7.93379 C 94.64812,6.98859 95.40386,6.49213 96.26056,6.66015 97.09513,6.82333 97.631,7.57216 97.44639,8.51737 97.27629,9.3879 96.63049,9.98323 95.64864,9.79032 94.82167,9.62852 94.28995,8.81953 94.46281,7.93379 Z"
       id="path64"
       style="fill:#000000" />
    <path
       d="M 100.6941,10.26534 101.11381,10.40847 101.72505,12.56854 103.10517,13.04287 102.32868,10.58064 C 102.64605,10.53777 103.34441,10.35592 103.66247,9.43077 103.97777,8.51253 103.72608,7.67035 102.3667,7.20294 102.22426,7.15454 100.94578,6.73138 100.66782,6.63596 L 98.9565,11.61712 100.09531,12.00848 100.6941,10.26535 Z M 101.44017,8.09489 C 101.67734,8.16818 101.77275,8.19307 101.94285,8.25116 102.49116,8.43923 102.54302,8.75177 102.4476,9.02973 102.30309,9.44944 101.90758,9.48816 101.47405,9.3395 L 101.06126,9.19775 101.44017,8.0949 Z"
       id="path66"
       style="fill:#000000" />
    <polygon
       points="109.00456,10.04684 105.05849,8.18132 104.57517,9.20259 106.00508,9.87744 104.23498,13.62091 105.32401,14.13535 107.09341,10.39256 108.52262,11.0681 "
       id="polygon68"
       style="fill:#000000" />
    <rect
       x="106.55565"
       y="12.62727"
       width="5.2646298"
       height="1.20285"
       transform="rotate(-59.6634,109.18798,13.228691)"
       id="rect70"
       style="fill:#000000" />
    <path
       d="M 111.23931,17.82973 C 112.15063,18.49628 113.36204,18.57234 114.31209,17.27312 L 116.13819,14.77977 115.16671,14.06897 113.48374,16.36871 C 112.9859,17.0484 112.49498,17.35056 111.90587,16.91979 111.22687,16.42195 111.3942,15.77199 111.8789,15.11028 L 113.52315,12.86516 112.55167,12.15436 110.75737,14.60553 C 109.84674,15.85013 110.14752,17.03042 111.23931,17.82973 Z"
       id="path72"
       style="fill:#000000" />
    <polygon
       points="118.02928,19.55834 118.45521,16.84166 117.60059,15.98288 113.86956,19.70008 114.71865,20.55194 117.07993,18.20034 116.6706,20.66811 116.79298,20.79118 119.28356,20.38047 116.90569,22.74866 117.75547,23.6019 121.48719,19.88539 120.68512,19.08055 "
       id="polygon74"
       style="fill:#000000" />
    <polygon
       points="124.63672,30.45342 127.2649,28.23388 126.68478,27.00242 122.58659,30.65394 123.07682,31.69456 126.59904,31.23267 124.00612,33.66725 124.49636,34.70856 129.88893,33.80554 129.39593,32.75731 126.00439,33.35748 128.57864,31.02317 128.06282,29.92723 "
       id="polygon76"
       style="fill:#000000" />
    <path
       d="M 127.57466,35.32256 C 125.96152,35.7803 125.28183,37.21504 125.71952,38.75558 126.15651,40.29681 127.56706,41.13899 129.10068,40.70407 130.71451,40.24633 131.39351,38.8109 130.95651,37.27036 130.49947,35.65722 129.04329,34.90631 127.57466,35.32256 Z M 129.87164,37.57805 C 130.10327,38.39534 129.67873,39.21193 128.75219,39.47468 127.89895,39.71669 127.07751,39.41038 126.80439,38.44789 126.57483,37.63752 127.05538,36.79811 127.92315,36.55195 128.84899,36.2892 129.63309,36.73864 129.87164,37.57805 Z"
       id="path78"
       style="fill:#000000" />
    <path
       d="M 126.8362,43.41384 128.66161,43.16077 128.72246,43.60053 127.07268,45.12032 127.27389,46.56544 129.11935,44.76077 C 129.29982,45.02352 129.7776,45.56492 130.74632,45.43078 131.70743,45.29664 132.34494,44.69163 132.14718,43.26864 132.12713,43.11998 131.92592,41.78826 131.88651,41.49785 L 126.67026,42.22179 126.83621,43.41384 Z M 130.9337,42.84478 C 130.97588,43.08955 130.99662,43.18566 131.02151,43.36405 131.10033,43.93795 130.84588,44.12464 130.55548,44.16612 130.11572,44.22697 129.90276,43.89231 129.83914,43.43734 L 129.77968,43.00519 Z"
       id="path80"
       style="fill:#000000" />
    <polygon
       points="132.54269,48.16129 132.51226,46.95818 127.25038,47.08955 127.33335,50.43406 128.46179,50.40641 128.40854,48.26362 "
       id="polygon82"
       style="fill:#000000" />
    <path
       d="M 127.32436,51.03216 127.31191,51.15939 C 127.2642,51.66138 127.1833,52.34867 127.15634,52.62663 126.96619,54.62629 128.08287,55.74642 129.5515,55.8861 130.94476,56.01955 132.23154,55.288 132.43205,53.19085 132.46455,52.84651 132.53093,51.91514 132.5572,51.63856 L 132.56757,51.53346 127.32435,51.03216 Z M 131.30915,53.06846 C 131.2165,54.0427 130.63914,54.70511 129.67319,54.61245 128.67682,54.51703 128.1776,53.80484 128.27647,52.77183 128.29306,52.59897 128.30274,52.49387 128.33317,52.3376 L 131.3285,52.62455 C 131.3368,52.77598 131.32159,52.94054 131.30914,53.06846 Z"
       id="path84"
       style="fill:#000000" />
    <polygon
       points="127.91969,59.88472 131.3617,59.99673 131.75582,58.69267 126.26161,58.66017 125.92834,59.76233 128.85729,61.77996 125.29636,61.85187 124.96308,62.95473 129.57847,65.89889 129.91313,64.78913 126.9897,62.96164 130.46905,62.95127 130.81892,61.79172 "
       id="polygon86"
       style="fill:#000000" />
    <rect
       x="125.71307"
       y="63.823631"
       width="1.20357"
       height="5.26478"
       transform="rotate(-66.09787,126.31486,66.456024)"
       id="rect88"
       style="fill:#000000" />
    <path
       d="M 123.08858,67.2396 C 122.83897,67.67728 122.48357,68.27054 122.34528,68.51324 121.35098,70.25706 121.91105,71.73606 123.19161,72.46553 124.40648,73.15836 125.87994,73.02007 126.92195,71.19051 127.09274,70.88904 127.53526,70.0683 127.67286,69.82629 L 127.7261,69.73433 123.15151,67.12828 123.08859,67.2396 Z M 123.53594,68.73174 126.1496,70.22111 C 126.09428,70.36355 126.012,70.50737 125.94908,70.61869 125.46507,71.46778 124.66714,71.83563 123.82427,71.35508 122.95513,70.86001 122.79333,70.00538 123.30707,69.10374 123.39281,68.9537 123.44467,68.86173 123.53594,68.73174 Z"
       id="path90"
       style="fill:#000000" />
    <polygon
       points="122.73041,77.42872 124.59731,74.92431 120.37328,71.77686 118.46213,74.34073 119.36654,75.01489 120.55858,73.41627 121.3254,73.98809 120.31312,75.3447 121.21822,76.01955 122.2305,74.66156 122.97241,75.2154 121.82531,76.75456 "
       id="polygon92"
       style="fill:#000000" />
    <polygon
       points="117.12626,78.69268 120.03862,80.52846 121.03706,79.60261 116.31519,76.79881 115.47094,77.58083 116.9776,80.8002 113.87094,79.06398 113.02669,79.84669 115.51865,84.71653 116.36844,83.92898 114.77051,80.87625 117.77622,82.62492 118.66403,81.80141 "
       id="polygon94"
       style="fill:#000000" />
    <polygon
       points="111.85884,87.12967 114.43101,85.36441 111.45365,81.02491 108.81856,82.83235 109.45677,83.76234 111.09964,82.63529 111.63965,83.42284 110.24501,84.38049 110.88321,85.30979 112.27786,84.35283 112.80197,85.1155 111.22064,86.20037 "
       id="polygon96"
       style="fill:#000000" />
    <path
       d="M 106.63153,84.0244 C 105.6241,84.56303 105.11243,85.42526 105.63378,86.39951 105.95254,86.99553 106.45867,87.16079 106.86455,87.10547 L 106.87146,87.11861 C 106.64743,87.52864 106.63499,87.95318 106.89428,88.4365 107.23793,89.07954 107.96256,89.34921 109.06956,88.75664 109.57362,88.48767 110.20214,88.11705 110.45383,87.96494 L 107.98538,83.35094 C 107.69912,83.47056 107.07544,83.78655 106.63153,84.02441 Z M 106.7228,85.88507 C 106.55685,85.57323 106.6661,85.2849 107.07751,85.06502 107.27595,84.95785 107.37276,84.93226 107.45711,84.9129 L 107.92107,85.78135 107.51035,86.00123 C 107.16532,86.18515 106.87906,86.17686 106.7228,85.88507 Z M 108.41753,86.70927 108.86766,87.55145 C 108.75565,87.62889 108.68304,87.6849 108.55098,87.75473 108.29238,87.89302 107.96533,87.88956 107.81667,87.61091 107.6362,87.27279 107.79385,87.04254 108.06697,86.89734 Z"
       id="path98"
       style="fill:#000000" />
    <path
       d="M 100.40646,86.66225 C 99.73299,86.89872 99.17223,87.36752 98.99246,87.8059 L 99.72401,88.50426 C 99.97016,88.13918 100.32003,87.88818 100.67544,87.76372 101.56879,87.44842 102.39852,87.85776 102.70828,88.73727 103.05262,89.71566 102.61286,90.46104 101.84674,90.7307 101.37932,90.89457 101.05296,90.85101 100.7266,90.78256 L 100.52193,91.81074 C 100.92228,91.99674 101.56186,92.02647 102.2215,91.79415 103.93144,91.1919 104.41545,89.7378 103.91346,88.31273 103.36929,86.76666 101.9463,86.12016 100.40646,86.66225 Z"
       id="path100"
       style="fill:#000000" />
    <path
       d="M 96.00542,87.8543 C 94.43723,88.18481 93.49963,89.53658 93.82806,91.09717 94.17447,92.73935 95.56082,93.51653 97.1297,93.18533 98.77119,92.83961 99.62166,91.43805 99.30636,89.94246 98.96064,88.30097 97.57429,87.52448 96.00541,87.8543 Z M 96.89669,92.0811 C 96.06488,92.25604 95.27802,91.77617 95.08027,90.83374 94.89704,89.9646 95.25866,89.16529 96.23844,88.95924 97.06333,88.785 97.86817,89.32294 98.05486,90.2066 98.2533,91.14904 97.75062,91.90064 96.89669,92.0811 Z"
       id="path102"
       style="fill:#000000" />
    <polygon
       points="92.50948,88.58585 91.38381,88.65085 91.56773,91.80383 88.89185,88.79743 87.93143,88.85275 88.23774,94.10703 89.3641,94.04134 89.1788,90.87453 91.85538,93.89545 92.81648,93.83944 "
       id="polygon104"
       style="fill:#000000" />
    <path
       d="M 85.23411,89.73503 C 85.60196,89.75923 86.04863,89.96321 86.32383,90.36632 L 87.0616,89.59329 C 86.8438,89.01248 86.04518,88.65777 85.33921,88.61075 84.32555,88.5423 83.49513,89.12104 83.43428,90.0372 83.32019,91.74991 85.52728,91.68491 85.46851,92.55682 85.45261,92.79675 85.24725,92.93435 84.91605,92.91222 84.52677,92.88595 84.3622,92.73936 84.1444,92.50634 L 83.43844,93.36373 C 83.74544,93.73918 84.27094,94.00055 84.94648,94.04618 85.99747,94.11532 86.69099,93.45361 86.74562,92.64255 86.85902,90.94506 84.65884,90.89596 84.71139,90.10703 84.72798,89.85949 84.91813,89.71429 85.23412,89.73503 Z"
       id="path106"
       style="fill:#000000" />
    <path
       d="M 80.37464,87.95871 C 78.80299,87.64963 77.41111,88.52569 77.10273,90.08974 76.77844,91.73538 77.74992,92.99173 79.32226,93.3015 80.9672,93.62648 82.29823,92.66952 82.59348,91.17185 82.91846,89.52621 81.94698,88.26848 80.37464,87.95871 Z M 81.33921,90.92431 C 81.15321,91.86882 80.39608,92.3639 79.54007,92.19518 78.70619,92.03062 78.1717,91.28178 78.3577,90.33727 78.52918,89.46605 79.17499,88.87279 80.15614,89.06571 80.98311,89.22889 81.51344,90.03857 81.3392,90.92431 Z"
       id="path108"
       style="fill:#000000" />
    <path
       d="M 75.12382,88.57894 74.70411,88.43305 74.0991,86.27229 72.72036,85.7945 73.48994,88.2595 C 73.17326,88.30099 72.47421,88.48076 72.15338,89.40384 71.83532,90.32139 72.08493,91.16426 73.44223,91.63513 73.58467,91.68422 74.86176,92.11084 75.13903,92.20695 L 76.86487,87.23201 75.72675,86.8372 75.12381,88.57895 Z M 74.37153,90.7473 C 74.13436,90.67262 74.03964,90.64773 73.86954,90.58827 73.32123,90.39812 73.27075,90.08628 73.36686,89.8097 73.51206,89.3893 73.90688,89.35196 74.3411,89.50201 L 74.75389,89.64514 74.37152,90.7473 Z"
       id="path110"
       style="fill:#000000" />
    <polygon
       points="68.70688,88.43235 67.27939,87.75266 66.79469,88.77254 70.73592,90.64912 71.22201,89.62993 69.79417,88.95024 71.57395,85.21161 70.48631,84.69371 "
       id="polygon112"
       style="fill:#000000" />
    <rect
       x="64.004967"
       y="85.001503"
       width="5.2656999"
       height="1.20362"
       transform="rotate(-59.57622,66.637824,85.603314)"
       id="rect114"
       style="fill:#000000" />
    <path
       d="M 64.58207,80.9855 C 63.67282,80.31687 62.46072,80.23736 61.50584,81.53451 L 59.67144,84.0244 60.64154,84.73866 62.33247,82.44168 C 62.83204,81.76337 63.32504,81.4626 63.91276,81.89544 64.59176,82.39535 64.42097,83.04531 63.93489,83.70564 L 62.28303,85.94868 63.25313,86.66225 65.05572,84.21385 C 65.97085,82.97133 65.67249,81.78965 64.58208,80.9855 Z"
       id="path116"
       style="fill:#000000" />
    <polygon
       points="57.80178,79.24583 57.37101,81.96113 58.22356,82.8199 61.95943,79.11307 61.11172,78.25914 58.74802,80.60521 59.16115,78.14021 59.03981,78.01783 56.55026,78.42163 58.93021,76.06104 58.0825,75.20711 54.34801,78.91394 55.14732,79.71947 "
       id="polygon118"
       style="fill:#000000" />
    <path
       d="M 53.222,72.95093 C 52.61284,72.95093 52.10152,73.46191 52.10152,74.07867 52.10152,74.68783 52.61284,75.20711 53.222,75.20711 53.83842,75.20711 54.35735,74.68784 54.35735,74.07867 54.35735,73.4619 53.83842,72.95093 53.222,72.95093 Z"
       id="path120"
       style="fill:#000000" />
    <path
       d="M 121.01053,25.02476 C 121.01053,25.63392 121.52185,26.1532 122.13101,26.1532 122.74743,26.1532 123.26636,25.63393 123.26636,25.02476 123.26636,24.40799 122.74743,23.89702 122.13101,23.89702 121.52185,23.89702 121.01053,24.408 121.01053,25.02476 Z"
       id="path122"
       style="fill:#000000" />
  </g>
</svg>
