<?xml version="1.0" encoding="UTF-8" standalone="no"?>
<svg
   id="Layer_1"
   width="100"
   height="100"
   version="1.1"
   viewBox="0 0 100 100"
   xmlns="http://www.w3.org/2000/svg"
   xmlns:svg="http://www.w3.org/2000/svg">
  <defs
     id="defs9329" />
  <g
     id="g7678"
     style="fill:#ffffff"
     transform="matrix(1.0340979,0,0,1.0340979,-1.4100076,-1.5192081)">
    <path
       d="M 91.56147,40.74293 95.35588,41.15464 C 95.40477,41.15916 95.45967,41.16367 95.51909,41.16969 95.57926,41.17571 95.64168,41.17947 95.70637,41.18098 95.64695,41.20582 95.58979,41.23141 95.53564,41.25775 95.48149,41.28259 95.4326,41.30818 95.38973,41.33377 L 92.00221,43.08223 92.18573,44.05017 97.88675,44.63199 97.72805,43.79426 C 97.71226,43.70695 97.67315,43.6362 97.61448,43.58201 97.55431,43.52706 97.49189,43.49621 97.4257,43.48868 L 94.15401,43.28169 C 94.07128,43.27492 93.98178,43.2704 93.88626,43.26739 93.78999,43.26438 93.68845,43.26287 93.58165,43.26363 93.68093,43.22223 93.77494,43.18084 93.86444,43.14019 93.95319,43.1003 94.03442,43.0589 94.10812,43.01675 L 97.04738,41.48355 C 97.11582,41.44592 97.16621,41.39323 97.1963,41.32699 97.22789,41.26 97.23466,41.17947 97.21661,41.08538 L 97.15719,40.77227 C 97.1414,40.68496 97.10304,40.61571 97.04437,40.56152 96.98495,40.50808 96.92253,40.47647 96.85559,40.46668 L 93.56359,40.11142 C 93.4771,40.09637 93.38308,40.08809 93.28305,40.08432 93.18302,40.08055 93.07772,40.0783 92.96791,40.07679 93.17474,39.9955 93.3545,39.91572 93.50793,39.83895 L 96.47577,38.45328 C 96.54196,38.41866 96.59084,38.36597 96.62243,38.29672 96.65477,38.22747 96.66154,38.14543 96.64349,38.0506 L 96.47502,37.15492 91.37945,39.77874 91.56146,40.74291 Z"
       id="path7586" />
    <path
       d="M 97.21285,46.65442 C 96.95713,46.42636 96.65629,46.25249 96.31031,46.13432 95.96283,46.01464 95.58979,45.96045 95.19041,45.97099 94.78728,45.98153 94.41649,46.05529 94.07653,46.19303 93.73657,46.33077 93.44475,46.52044 93.20032,46.7613 92.95589,47.00216 92.7671,47.28892 92.63548,47.62085 92.50386,47.95353 92.44294,48.31858 92.45347,48.719 92.464,49.11942 92.54372,49.48221 92.69339,49.80661 92.84231,50.13026 93.04613,50.40649 93.30335,50.63229 93.56057,50.85884 93.86217,51.03121 94.20814,51.14938 94.55486,51.26604 94.92942,51.32024 95.3318,51.3097 95.73192,51.29841 96.10121,51.2254 96.43966,51.08917 96.77811,50.95369 97.06993,50.76552 97.31437,50.52617 97.55881,50.28531 97.74759,50.00005 97.88146,49.66737 98.01383,49.33619 98.07551,48.96964 98.06498,48.56997 98.0537,48.1703 97.97397,47.80751 97.8228,47.48311 97.67238,47.15871 97.46855,46.88172 97.21284,46.65442 Z M 97.03009,49.24964 C 96.94811,49.44383 96.82777,49.60942 96.66908,49.74791 96.50963,49.8864 96.31483,49.99403 96.08469,50.07156 95.8553,50.14984 95.59506,50.19274 95.30249,50.20027 95.00766,50.20855 94.74292,50.17995 94.50751,50.11447 94.2736,50.04823 94.07279,49.95114 93.90808,49.82168 93.74337,49.69222 93.61551,49.53265 93.52525,49.34298 93.43424,49.15331 93.38611,48.93729 93.37934,48.69418 93.37332,48.45107 93.41018,48.23204 93.49065,48.0371 93.57112,47.84216 93.68996,47.67506 93.8479,47.53657 94.00509,47.39883 94.19989,47.2912 94.43079,47.21292 94.66169,47.13539 94.92493,47.09249 95.21976,47.08497 95.51233,47.07669 95.77482,47.10604 96.00797,47.17077 96.24188,47.23625 96.44194,47.3341 96.60816,47.46431 96.77438,47.59302 96.90299,47.75334 96.99475,47.94376 97.08651,48.13494 97.13615,48.35171 97.14292,48.59482 97.14894,48.83718 97.11133,49.05546 97.0301,49.24965 Z"
       id="path7588" />
    <path
       d="M 92.38203,53.42623 94.48419,53.64526 94.44658,54.01106 C 94.4368,54.10514 94.41499,54.17514 94.38265,54.22407 94.34956,54.27149 94.29841,54.31213 94.22847,54.34676 L 92.42189,55.16567 C 92.2662,55.24395 92.18046,55.36964 92.16241,55.54276 L 92.06087,56.51822 94.17957,55.50286 C 94.26155,55.45845 94.33225,55.40953 94.39167,55.35458 94.45259,55.29963 94.50449,55.24017 94.55037,55.17469 94.59474,55.35985 94.66093,55.52694 94.75043,55.67447 94.83843,55.82275 94.94448,55.9507 95.06782,56.05909 95.19116,56.16748 95.33031,56.25479 95.48524,56.32177 95.64093,56.38725 95.8079,56.4294 95.9854,56.44822 96.21931,56.47231 96.43667,56.45575 96.63974,56.40005 96.84281,56.34285 97.02181,56.23898 97.17976,56.08769 97.3362,55.93565 97.46857,55.73318 97.57312,55.48104 97.67766,55.22814 97.74987,54.91955 97.78822,54.55375 L 97.9582,52.9069 92.4941,52.34014 92.38204,53.42625 Z M 95.2536,53.72504 97.0143,53.90794 96.95639,54.46793 C 96.92104,54.80889 96.82327,55.05276 96.66231,55.20329 96.50136,55.35307 96.28776,55.41329 96.02151,55.38619 95.88763,55.37264 95.76504,55.33952 95.65523,55.28759 95.54542,55.23641 95.45291,55.1649 95.3792,55.07383 95.307,54.98351 95.25284,54.87061 95.21975,54.73889 95.18515,54.60642 95.17838,54.45287 95.19643,54.276 L 95.25359,53.72504 Z"
       id="path7590" />
    <polygon
       points="91.88037,57.34239 91.25912,60.27405 92.13383,60.45996 92.52869,58.59333 97.02783,59.54697 97.25422,58.48194 "
       id="polygon7592" />
    <path
       d="M 90.41224,63.09281 C 90.28588,63.47291 90.23474,63.83946 90.26031,64.19397 90.28513,64.54848 90.37614,64.87363 90.53258,65.17245 90.68977,65.46976 90.90864,65.73244 91.18993,65.95899 91.46972,66.1863 91.8014,66.36242 92.18347,66.49038 92.56329,66.61608 92.93257,66.67177 93.29133,66.65747 93.65159,66.64317 93.98177,66.56339 94.28562,66.41887 94.58947,66.2736 94.85723,66.06662 95.08963,65.79791 95.32128,65.52845 95.49953,65.20405 95.62513,64.8247 L 96.25615,62.92269 91.0425,61.19079 90.41223,63.0928 Z M 91.2328,63.36528 91.5186,62.50046 95.0949,63.68818 94.8091,64.553 C 94.73238,64.78332 94.62258,64.97751 94.47967,65.13256 94.33677,65.28836 94.16604,65.40428 93.96974,65.4803 93.77269,65.55557 93.55382,65.5917 93.31164,65.58643 93.06871,65.58191 92.80848,65.53299 92.5317,65.44041 92.25116,65.34858 92.01274,65.23041 91.81343,65.08966 91.61487,64.9474 91.45918,64.78784 91.34712,64.60945 91.23506,64.43106 91.16887,64.23688 91.14781,64.02613 91.1275,63.81613 91.15533,63.5956 91.2328,63.36528 Z"
       id="path7594" />
    <path
       d="M 87.2293,70.46751 89.81807,73.27423 C 89.85192,73.31036 89.88877,73.3495 89.93013,73.39391 89.97225,73.43757 90.01662,73.48122 90.06476,73.52488 90.00233,73.50531 89.94292,73.48649 89.88576,73.47069 89.82785,73.45413 89.77445,73.44134 89.72631,73.43155 L 86.02441,72.52082 85.52651,73.37059 89.43976,77.55922 89.87072,76.82461 C 89.91585,76.74784 89.9339,76.66956 89.92487,76.58902 89.91584,76.50848 89.88877,76.44451 89.84364,76.39634 L 87.5151,74.08714 C 87.45644,74.02768 87.39251,73.96521 87.32256,73.89897 87.25186,73.83349 87.1759,73.76725 87.09542,73.69725 87.19696,73.73037 87.29473,73.76198 87.38874,73.78983 87.48275,73.81768 87.5715,73.83951 87.65424,73.85682 L 90.87629,74.63584 C 90.95301,74.65165 91.02446,74.64487 91.09139,74.61552 91.15832,74.58617 91.21624,74.52972 91.26513,74.44617 L 91.42608,74.17144 C 91.47121,74.09542 91.48851,74.01789 91.47873,73.93886 91.4697,73.85908 91.44338,73.79359 91.39901,73.74316 L 89.1532,71.30977 C 89.09604,71.24128 89.03211,71.17354 88.95915,71.10504 88.88544,71.03579 88.80798,70.96504 88.72675,70.89128 88.93509,70.96579 89.12311,71.02526 89.28933,71.06816 L 92.43617,71.97588 C 92.50913,71.99319 92.57982,71.98566 92.64902,71.95481 92.71897,71.9232 92.77838,71.86599 92.82727,71.7832 L 93.28756,70.99741 87.72418,69.62152 87.22929,70.46752 Z"
       id="path7596" />
    <rect
       x="85.335274"
       y="74.775253"
       width="1.0921"
       height="5.4948802"
       transform="rotate(-52.57919,85.881337,77.522701)"
       id="rect7598" />
    <path
       d="M 81.16125,78.87788 C 80.88898,79.17142 80.69118,79.48378 80.56558,79.81646 80.44073,80.14914 80.38883,80.48408 80.40764,80.81977 80.42719,81.15622 80.5167,81.48589 80.67765,81.80878 80.8386,82.13167 81.06649,82.43049 81.36132,82.70521 81.65389,82.97843 81.96677,83.18165 82.29996,83.31864 82.63239,83.45487 82.96708,83.52036 83.30328,83.51509 83.64023,83.50982 83.96965,83.43305 84.29156,83.28402 84.61422,83.13574 84.9113,82.91521 85.18432,82.62242 L 86.5479,81.15546 82.5256,77.41166 81.16127,78.87787 Z M 84.55328,82.0361 C 84.38857,82.21373 84.20806,82.34394 84.01326,82.42598 83.81771,82.50877 83.61539,82.54264 83.40555,82.5306 83.19496,82.5178 82.98061,82.45759 82.76249,82.35297 82.54362,82.24684 82.32702,82.09556 82.11342,81.89534 81.89756,81.69438 81.72834,81.4889 81.6065,81.2774 81.48466,81.0659 81.4102,80.85515 81.38162,80.64741 81.35379,80.43741 81.37485,80.23344 81.44329,80.03398 81.51173,79.83452 81.62906,79.64485 81.79453,79.46797 L 82.41427,78.8011 85.17302,81.36922 84.55328,82.03609 Z"
       id="path7600" />
    <polygon
       points="78.48147,85.74076 79.82174,84.60272 80.76112,85.7114 79.03878,87.1731 79.59836,87.83319 82.15329,85.66399 78.5988,81.47235 76.04387,83.64155 76.59968,84.3039 78.32578,82.83845 79.28397,83.96896 77.94296,85.10701 "
       id="polygon7602" />
    <path
       d="M 71.48606,86.72149 72.2818,90.45701 C 72.29158,90.50518 72.30436,90.55787 72.3179,90.61658 72.33069,90.67529 72.34723,90.73626 72.36604,90.79873 72.32317,90.74981 72.28105,90.70389 72.23968,90.65949 72.19907,90.61659 72.1592,90.5782 72.12235,90.54584 L 69.40421,87.87159 68.54229,88.34803 69.77049,93.94867 70.51734,93.5362 C 70.59406,93.4933 70.64971,93.43609 70.6828,93.36233 70.71589,93.28782 70.72567,93.21932 70.71213,93.15384 L 69.88706,89.97906 C 69.86751,89.89777 69.84419,89.81197 69.81636,89.71939 69.78928,89.62756 69.7592,89.53122 69.72535,89.42961 69.79454,89.5109 69.86299,89.58767 69.92992,89.65918 69.99611,89.73068 70.06154,89.79617 70.12397,89.85262 L 72.49764,92.16784 C 72.55555,92.22128 72.62023,92.25214 72.69244,92.26042 72.76615,92.26945 72.84437,92.25064 72.9286,92.20397 L 73.20763,92.05042 C 73.28435,92.00752 73.33925,91.94956 73.37084,91.87655 73.40393,91.80354 73.41446,91.73354 73.40318,91.66806 L 72.71124,88.4278 C 72.6977,88.34049 72.67739,88.24866 72.64881,88.15307 72.62098,88.05598 72.59015,87.95512 72.55856,87.8505 72.69996,88.02136 72.83083,88.16738 72.95267,88.29006 L 75.19547,90.67754 C 75.24962,90.72947 75.3143,90.75958 75.38952,90.76861 75.46473,90.77689 75.54596,90.75807 75.62944,90.71141 L 76.42668,90.2711 72.34496,86.24731 71.48605,86.72149 Z"
       id="path7604" />
    <polygon
       points="64.78699,93.29986 66.43261,92.67965 66.94405,94.03898 64.83136,94.83682 65.13522,95.64669 68.27078,94.46424 66.33409,89.31972 63.19852,90.50217 63.49937,91.3128 65.61657,90.51497 66.13854,91.90139 64.49442,92.52159 "
       id="polygon7606" />
    <path
       d="M 60.17202,91.34516 C 59.87042,91.42269 59.6117,91.53107 59.39885,91.66956 59.18525,91.8088 59.01678,91.96912 58.89343,92.14977 58.77084,92.33116 58.69262,92.52761 58.65952,92.74212 58.62492,92.95588 58.63771,93.17641 58.69562,93.40297 58.85356,94.02091 59.29806,94.325 60.02686,94.31446 59.88396,94.4108 59.76588,94.51467 59.67261,94.62607 59.5801,94.73596 59.51091,94.85037 59.46352,94.96703 59.41689,95.0852 59.39056,95.20563 59.38455,95.32907 59.38004,95.45326 59.39358,95.57595 59.42441,95.69939 59.48007,95.91616 59.56581,96.10358 59.68163,96.26013 59.7967,96.41669 59.94713,96.53711 60.13215,96.62066 60.31717,96.70421 60.5398,96.74861 60.80003,96.75313 61.06026,96.75765 61.36111,96.7155 61.70332,96.62819 L 63.51065,96.16454 62.14782,90.83938 60.17202,91.34518 Z M 60.06372,93.63404 C 59.97948,93.59038 59.91179,93.52791 59.85764,93.44738 59.80499,93.36684 59.76438,93.27201 59.7358,93.16287 59.70948,93.06051 59.69744,92.9589 59.70045,92.85728 59.70346,92.75492 59.72753,92.66008 59.77416,92.57126 59.82154,92.48244 59.896,92.40191 59.99679,92.33116 60.09757,92.25966 60.23295,92.2017 60.40067,92.1588 L 61.30245,91.92698 61.68603,93.42329 60.78876,93.65361 C 60.62781,93.69425 60.48791,93.71232 60.36833,93.7078 60.2495,93.70253 60.14796,93.67769 60.06372,93.63404 Z M 61.49649,95.81755 C 61.19715,95.89432 60.96324,95.89508 60.79627,95.81981 60.6293,95.74454 60.50971,95.57068 60.44052,95.29821 60.37283,95.03553 60.40517,94.82779 60.53679,94.67274 60.66766,94.51844 60.88126,94.40253 61.17834,94.32651 L 61.87104,94.14888 62.24935,95.62487 61.49648,95.81755 Z"
       id="path7608" />
    <path
       d="M 55.26298,93.96522 C 55.12309,93.63254 54.93882,93.35029 54.71093,93.11846 54.48229,92.88739 54.21454,92.71427 53.90617,92.60062 53.5978,92.48621 53.25785,92.44406 52.88706,92.47492 52.47716,92.50954 52.12968,92.61191 51.84388,92.78276 51.55808,92.95286 51.32643,93.18619 51.15194,93.48049 L 51.62427,93.91027 C 51.66864,93.95091 51.71979,93.96823 51.7777,93.96371 51.80854,93.96145 51.83712,93.95167 51.86495,93.9336 51.89203,93.91629 51.9191,93.89597 51.94467,93.87113 52.0071,93.79135 52.07103,93.72361 52.13571,93.66866 52.20039,93.61296 52.26959,93.5663 52.3463,93.52791 52.42151,93.49028 52.50424,93.46092 52.59375,93.4406 52.68325,93.42103 52.78403,93.40598 52.89685,93.39694 53.08638,93.38038 53.26689,93.40823 53.43912,93.47823 53.61135,93.54823 53.76554,93.65887 53.90017,93.80941 54.0363,93.95994 54.14912,94.14887 54.24088,94.37693 54.33189,94.60424 54.3898,94.86918 54.41462,95.16874 54.43944,95.46529 54.42966,95.73325 54.38378,95.97109 54.33941,96.20893 54.26419,96.41291 54.1589,96.58377 54.05361,96.75463 53.92274,96.8886 53.76479,96.98645 53.6076,97.08354 53.42784,97.14075 53.22778,97.15806 53.04276,97.17311 52.89083,97.16408 52.76824,97.12946 52.6464,97.09559 52.54486,97.0557 52.46138,97.00978 52.3794,96.96462 52.3087,96.92172 52.25154,96.88183 52.19438,96.84269 52.13722,96.82463 52.07931,96.8299 52.0214,96.83442 51.97777,96.85097 51.94769,96.87807 51.91911,96.90592 51.89279,96.93527 51.87097,96.96764 L 51.55057,97.5058 C 51.7574,97.70451 52.00861,97.8573 52.30268,97.96418 52.59675,98.07106 52.92693,98.10945 53.29547,98.07859 53.65799,98.04773 53.98516,97.95139 54.27623,97.78881 54.56655,97.62623 54.81023,97.41172 55.00728,97.14603 55.20358,96.88109 55.34724,96.57174 55.43824,96.21874 55.52925,95.86649 55.55783,95.48564 55.52323,95.07618 55.49014,94.66898 55.40289,94.29942 55.263,93.96523 Z"
       id="path7610" />
    <path
       d="M 49.80639,93.43609 C 49.58301,93.17491 49.31,92.96793 48.98809,92.81363 48.66694,92.65858 48.30592,92.57277 47.90655,92.55622 47.50643,92.53891 47.14015,92.59385 46.80621,92.72106 46.47302,92.84751 46.18346,93.03191 45.93978,93.27202 45.69685,93.51363 45.50431,93.80341 45.36291,94.14136 45.22226,94.47856 45.14329,94.84963 45.12599,95.25155 45.10944,95.65122 45.15683,96.0253 45.26964,96.37228 45.3817,96.71926 45.54943,97.02334 45.7713,97.28377 45.99393,97.54495 46.26544,97.75344 46.58734,97.90999 46.90924,98.06504 47.26951,98.1516 47.66963,98.16891 48.069,98.18547 48.43528,98.12977 48.76922,98.00182 49.10316,97.87311 49.39272,97.68946 49.63791,97.45011 49.88235,97.21001 50.07564,96.92173 50.21854,96.58378 50.36144,96.24508 50.44117,95.87627 50.45771,95.47735 50.47426,95.07467 50.42612,94.69909 50.31255,94.34985 50.19898,94.00136 50.03051,93.69728 49.80638,93.4361 Z M 49.20545,96.2112 C 49.12422,96.44001 49.01291,96.6327 48.87302,96.78925 48.73237,96.94656 48.56315,97.06473 48.36685,97.14301 48.17055,97.22204 47.95093,97.25666 47.70875,97.24613 47.46582,97.23559 47.25071,97.18291 47.06344,97.08882 46.87466,96.99398 46.71747,96.86227 46.59111,96.69367 46.464,96.52507 46.36999,96.32335 46.30756,96.08852 46.24589,95.85444 46.22107,95.591 46.2331,95.29897 46.24589,95.00317 46.29327,94.74049 46.3745,94.51092 46.45573,94.2806 46.56704,94.08867 46.70769,93.93287 46.84834,93.77707 47.0153,93.6604 47.21085,93.58288 47.4064,93.50611 47.62451,93.47224 47.86669,93.48202 48.10962,93.49256 48.32548,93.54449 48.51426,93.63858 48.70379,93.73116 48.86249,93.86212 48.98884,94.02922 49.11595,94.19631 49.20996,94.39728 49.27163,94.63286 49.3333,94.8692 49.35812,95.13489 49.34609,95.42994 49.3333,95.72273 49.28667,95.98316 49.20544,96.21122 Z"
       id="path7612" />
    <path
       d="M 42.74781,95.39756 C 42.72073,95.54132 42.70043,95.69938 42.68614,95.87099 L 40.67198,91.89386 C 40.62986,91.81859 40.58398,91.76214 40.53434,91.723 40.4832,91.68461 40.41626,91.65752 40.33202,91.64246 L 39.78298,91.54085 38.79094,96.94881 39.73183,97.12117 40.31246,93.95317 C 40.34104,93.79285 40.36436,93.62199 40.3809,93.43985 L 42.39807,97.43805 C 42.42214,97.47869 42.4432,97.51256 42.462,97.53816 42.4808,97.5645 42.50261,97.58558 42.52593,97.60214 42.54925,97.61945 42.57783,97.633 42.60941,97.64278 42.64099,97.65256 42.67936,97.66235 42.72524,97.67063 L 43.28707,97.77375 44.27836,92.36579 43.33521,92.19268 Z"
       id="path7614" />
    <path
       d="M 38.06139,91.1871 C 37.93579,91.08022 37.7989,90.98764 37.65224,90.9056 37.50633,90.82431 37.35365,90.75883 37.19571,90.71066 36.91592,90.6241 36.65419,90.59174 36.409,90.61357 36.16381,90.6354 35.94269,90.70013 35.74413,90.80776 35.54708,90.91539 35.3771,91.06216 35.2342,91.24582 35.0928,91.43023 34.9845,91.64097 34.91079,91.87807 34.8431,92.0971 34.81753,92.29204 34.83483,92.46591 34.85213,92.63902 34.89801,92.79483 34.97171,92.93257 35.04617,93.07106 35.14018,93.19676 35.25375,93.30815 35.36807,93.4203 35.48841,93.52417 35.61476,93.61976 35.74036,93.71535 35.86446,93.80642 35.9863,93.89373 36.10814,93.98029 36.21419,94.06835 36.30294,94.15792 36.39244,94.24749 36.45712,94.34157 36.49774,94.43942 36.5376,94.53802 36.53986,94.64565 36.503,94.76382 36.44509,94.95124 36.33829,95.08446 36.18185,95.16349 36.02616,95.24252 35.82986,95.24478 35.59295,95.17102 35.45832,95.12962 35.3455,95.07393 35.2545,95.00543 35.1635,94.93693 35.08527,94.86844 35.02059,94.8007 34.95666,94.73371 34.90176,94.67199 34.85513,94.6178 34.80925,94.5621 34.76036,94.52673 34.71072,94.51167 34.65732,94.49511 34.60994,94.4921 34.56782,94.50414 34.52495,94.51543 34.48283,94.54328 34.43996,94.58769 L 34.02329,94.99564 C 34.1504,95.22897 34.32714,95.43445 34.55353,95.61208 34.77992,95.78896 35.04316,95.92369 35.344,96.01702 35.61025,96.09981 35.85995,96.12992 36.0931,96.10809 36.32626,96.08702 36.53609,96.0268 36.72262,95.92895 36.90839,95.83035 37.06784,95.70164 37.1972,95.54057 37.32807,95.38025 37.42283,95.20412 37.483,95.01144 37.55821,94.76908 37.5883,94.55607 37.57476,94.37317 37.56122,94.18952 37.51835,94.02619 37.4469,93.88318 37.3762,93.73942 37.28294,93.61297 37.16862,93.50383 37.05355,93.39469 36.93321,93.29383 36.80685,93.20276 36.68125,93.11169 36.55564,93.02513 36.43305,92.94158 36.3097,92.85879 36.20441,92.77223 36.11641,92.68341 36.02916,92.59459 35.96599,92.49675 35.92763,92.39288 35.88852,92.28826 35.89078,92.16858 35.93214,92.03461 36.0051,91.79752 36.12694,91.63795 36.29616,91.55817 36.46614,91.47763 36.66846,91.47387 36.90537,91.54688 37.06933,91.59881 37.20321,91.66656 37.30625,91.75161 37.40929,91.83817 37.49653,91.92322 37.56723,92.01053 37.63868,92.09784 37.70111,92.17687 37.753,92.24536 37.8049,92.31536 37.86206,92.36052 37.92523,92.38009 37.97337,92.39439 38.02075,92.39665 38.06964,92.38536 38.11702,92.37407 38.15914,92.35224 38.19524,92.31988 L 38.65629,91.92172 C 38.59161,91.78624 38.50812,91.65603 38.40508,91.53108 38.30204,91.40764 38.18772,91.29248 38.06136,91.18711 Z"
       id="path7616" />
    <path
       d="M 33.19296,89.50036 C 32.95228,89.23768 32.64768,89.02392 32.2829,88.86134 31.91812,88.69726 31.55711,88.61296 31.19986,88.60769 30.84336,88.60092 30.50641,88.66565 30.19203,88.79962 29.87614,88.93435 29.59109,89.13155 29.33462,89.39348 29.0789,89.65541 28.86831,89.96928 28.7036,90.33809 28.54039,90.70314 28.44713,91.06743 28.42306,91.43172 28.39974,91.79677 28.44261,92.14074 28.55318,92.46514 28.66299,92.78954 28.83823,93.08384 29.08041,93.34803 29.32184,93.61147 29.62494,93.82522 29.98972,93.98931 30.35525,94.15264 30.71701,94.23619 31.07427,94.2407 31.43152,94.24446 31.76847,94.18049 32.08436,94.04802 32.40025,93.91705 32.6868,93.72061 32.94403,93.45868 33.20125,93.1975 33.41184,92.88439 33.57505,92.51859 33.73901,92.15129 33.83302,91.78473 33.85634,91.41818 33.87966,91.05238 33.83528,90.7069 33.72397,90.381 33.61266,90.0566 33.43516,89.76306 33.19298,89.50037 Z M 32.78381,91.29699 C 32.75523,91.5386 32.68002,91.79451 32.55893,92.06396 32.43934,92.33116 32.29945,92.55621 32.14,92.73836 31.9798,92.91975 31.80531,93.059 31.61728,93.15233 31.4285,93.24641 31.22844,93.29383 31.01634,93.29383 30.805,93.29458 30.58839,93.24491 30.36727,93.14631 30.1454,93.04696 29.96489,92.919 29.825,92.76094 29.68586,92.60288 29.58884,92.42224 29.53318,92.21902 29.47752,92.0158 29.46399,91.79376 29.49257,91.5529 29.52265,91.31204 29.59636,91.05764 29.71595,90.79119 29.83629,90.52173 29.97693,90.29443 30.13789,90.11153 30.29809,89.92788 30.47258,89.79014 30.66061,89.69681 30.84864,89.60423 31.04795,89.55757 31.25779,89.55832 31.46688,89.55832 31.68349,89.608 31.90461,89.70735 32.12648,89.8067 32.30699,89.93466 32.44839,90.09197 32.59054,90.24853 32.68907,90.42842 32.74472,90.63013 32.80113,90.8326 32.81391,91.05464 32.78383,91.297 Z"
       id="path7618" />
    <path
       d="M 28.07182,86.76289 26.96847,88.5678 26.65484,88.37587 C 26.57436,88.32695 26.52021,88.27727 26.49013,88.22684 26.46155,88.17641 26.44651,88.11243 26.44576,88.03491 L 26.48562,86.05011 C 26.48186,85.87624 26.4059,85.74377 26.25773,85.6527 L 25.42138,85.14163 25.42514,87.49223 C 25.4289,87.58481 25.44319,87.67061 25.46726,87.74889 25.49058,87.82566 25.52141,87.89867 25.56052,87.96792 25.374,87.92803 25.19574,87.91674 25.02426,87.9333 24.85203,87.94986 24.69107,87.98975 24.5399,88.05373 24.38948,88.11921 24.25034,88.20728 24.12398,88.31867 23.99762,88.43082 23.88782,88.56329 23.7938,88.71608 23.67121,88.91554 23.59299,89.12027 23.55613,89.32725 23.51928,89.53499 23.53582,89.74197 23.60502,89.94971 23.67421,90.15594 23.79907,90.36142 23.98258,90.56615 24.16459,90.77012 24.41279,90.96808 24.72567,91.15926 L 26.13588,92.02333 29.00294,87.33417 Z M 25.64099,90.73926 25.16114,90.44647 C 24.87007,90.26733 24.69107,90.07314 24.62488,89.86315 24.55945,89.65315 24.5963,89.43337 24.73544,89.20531 24.80689,89.09015 24.88887,88.99381 24.98213,88.91779 25.07614,88.84026 25.17994,88.78908 25.29426,88.76048 25.40708,88.73338 25.53193,88.73338 25.6658,88.75973 25.79892,88.78758 25.94107,88.84629 26.09225,88.93887 L 26.56533,89.2279 25.64098,90.73927 Z"
       id="path7620" />
    <polygon
       points="23.08456,83.34048 20.26563,86.98794 19.09384,86.08172 18.55232,86.78246 21.75256,89.25951 22.29484,88.55801 21.12304,87.65104 23.94272,84.00434 "
       id="polygon7622" />
    <rect
       x="16.190189"
       y="82.860672"
       width="5.4951801"
       height="1.09247"
       transform="rotate(-47.54068,18.937773,83.406895)"
       id="rect7624" />
    <path
       d="M 18.27404,80.83483 C 18.41017,80.56914 18.48839,80.29516 18.50644,80.01141 18.52524,79.7284 18.48162,79.44314 18.37557,79.15411 18.26877,78.86584 18.09729,78.5896 17.85962,78.32391 17.6227,78.05972 17.36699,77.85801 17.09322,77.72252 16.8202,77.58629 16.54117,77.51102 16.25762,77.49898 15.97407,77.48618 15.69353,77.53285 15.4145,77.63973 15.13622,77.74661 14.87448,77.91069 14.62779,78.13123 L 12.18718,80.3185 12.90996,81.12612 15.35057,78.9396 C 15.50325,78.80337 15.65818,78.70025 15.81914,78.631 15.97859,78.56175 16.13653,78.52713 16.29222,78.52638 16.44716,78.52638 16.59833,78.561 16.74574,78.631 16.89315,78.70025 17.03154,78.80713 17.16091,78.95164 17.28877,79.0954 17.37978,79.24443 17.43318,79.39873 17.48658,79.55303 17.50388,79.70733 17.48733,79.86238 17.46928,80.01593 17.41738,80.16947 17.33089,80.32076 17.2444,80.47205 17.12556,80.61581 16.97288,80.75279 L 14.53302,82.94006 15.25806,83.75069 17.69942,81.56342 C 17.94611,81.34289 18.13715,81.10053 18.27403,80.83483 Z"
       id="path7626" />
    <path
       d="M 14.93616,74.8714 12.04729,76.73502 C 11.98261,76.77792 11.91417,76.82534 11.84121,76.87803 11.76825,76.93147 11.6968,76.98792 11.62385,77.04889 L 13.26647,73.89895 C 13.35372,73.74089 13.35221,73.59035 13.26121,73.4496 L 13.17848,73.32014 C 13.08898,73.1809 12.9536,73.11918 12.77234,73.13423 L 9.2532,73.34197 C 9.33443,73.29982 9.41265,73.25617 9.48861,73.21326 9.56307,73.16885 9.63226,73.12746 9.69544,73.08681 L 12.58356,71.22169 12.0646,70.41783 7.44963,73.39842 7.89262,74.08712 C 7.91894,74.12701 7.94226,74.16088 7.96407,74.18948 7.98588,74.21808 8.00769,74.24141 8.03176,74.25948 8.05432,74.27754 8.08215,74.28959 8.11449,74.29636 8.14758,74.30389 8.18669,74.30539 8.23332,74.30163 L 11.64566,74.11271 C 11.74343,74.10594 11.84121,74.09389 11.93974,74.07583 12.03827,74.05852 12.1383,74.03895 12.24059,74.02013 12.12025,74.17894 12.0127,74.34528 11.91793,74.51915 L 10.33924,77.56823 C 10.31592,77.60887 10.30163,77.645 10.29562,77.67661 10.28961,77.70822 10.29036,77.73983 10.29712,77.76994 10.30314,77.80005 10.31442,77.83015 10.33097,77.86101 10.34676,77.89187 10.36782,77.92649 10.3934,77.96563 L 10.8394,78.65809 15.45587,75.67826 14.93616,74.87139 Z"
       id="path7628" />
    <path
       d="M 7.64743,57.72625 3.86505,57.21067 3.70259,57.19035 C 3.64242,57.18282 3.58075,57.17755 3.51607,57.17379 3.57624,57.15046 3.6334,57.12712 3.6883,57.10229 3.7432,57.0782 3.79209,57.05412 3.83647,57.03003 L 7.27062,55.37641 7.11418,54.4032 1.43196,53.66407 1.56659,54.50631 C 1.58163,54.59362 1.61698,54.66512 1.67489,54.72157 1.7328,54.77877 1.79523,54.81114 1.85991,54.82017 L 5.12559,55.11672 C 5.20832,55.1265 5.29782,55.13328 5.39259,55.13855 5.48886,55.14457 5.58964,55.14833 5.6972,55.15135 5.59642,55.18974 5.50165,55.22812 5.4114,55.26576 5.32115,55.30415 5.23841,55.34404 5.16471,55.38318 L 2.18333,56.83509 C 2.11414,56.87122 2.06299,56.9224 2.0299,56.98713 1.99681,57.05261 1.98778,57.13315 2.00282,57.22874 L 2.05396,57.54336 C 2.06825,57.63067 2.1036,57.70142 2.16151,57.75637 2.21942,57.81132 2.2811,57.84519 2.34728,57.85723 L 5.628,58.30281 C 5.71449,58.31937 5.80776,58.33141 5.90779,58.33743 6.00782,58.34345 6.11387,58.34872 6.22217,58.35399 6.01383,58.42926 5.83107,58.50377 5.67614,58.57603 L 2.67145,59.88041 C 2.60451,59.91353 2.55412,59.96396 2.52028,60.0317 2.48643,60.10019 2.47741,60.18223 2.49245,60.27707 L 2.63686,61.17651 7.80313,58.69495 7.64744,57.72626 Z"
       id="path7630" />
    <path
       d="M 2.16227,51.67476 C 2.41122,51.90959 2.70755,52.09099 3.05127,52.2197 3.39423,52.34916 3.76578,52.41314 4.16515,52.41314 4.56828,52.41389 4.94058,52.34992 5.28505,52.22271 5.62801,52.094 5.9251,51.91336 6.17706,51.67853 6.42751,51.44445 6.62382,51.1637 6.76521,50.83478 6.90586,50.50661 6.97655,50.14232 6.97731,49.7419 6.97731,49.34148 6.90736,48.97794 6.76672,48.64902 6.62683,48.32085 6.43128,48.03935 6.18082,47.80603 5.92961,47.5727 5.63328,47.39281 5.28957,47.26486 4.94661,47.13766 4.57431,47.07368 4.17118,47.07368 3.77106,47.07293 3.40026,47.13615 3.0573,47.2626 2.71584,47.38905 2.41951,47.56894 2.1683,47.80151 1.91709,48.03484 1.72004,48.31559 1.57714,48.6445 1.43574,48.97191 1.36429,49.33621 1.36354,49.73663 1.36354,50.13705 1.43349,50.50059 1.57564,50.82951 1.71704,51.15768 1.91259,51.43993 2.16229,51.67476 Z M 2.41723,49.08556 C 2.50372,48.89363 2.62857,48.73105 2.79253,48.59707 2.95499,48.46385 3.15204,48.36073 3.38444,48.28923 3.61534,48.21773 3.87707,48.18235 4.16965,48.1831 4.46448,48.1831 4.72847,48.21923 4.96238,48.29148 5.19478,48.36298 5.39184,48.46685 5.55279,48.60008 5.71374,48.73406 5.83784,48.89739 5.92283,49.08932 6.00857,49.28125 6.05069,49.49802 6.05069,49.74114 6.05069,49.98426 6.00782,50.20253 5.92133,50.39521 5.83559,50.58865 5.71224,50.75122 5.55054,50.88595 5.38959,51.01917 5.19178,51.12154 4.95863,51.19304 4.72548,51.26454 4.46073,51.30067 4.16665,51.29992 3.87483,51.29992 3.61234,51.26379 3.38069,51.19154 3.14904,51.11929 2.95199,51.01692 2.78953,50.88219 2.62707,50.74821 2.50222,50.58413 2.41498,50.39145 2.32849,50.19877 2.28562,49.97974 2.28637,49.73738 2.28637,49.49427 2.33074,49.2775 2.41724,49.08556 Z"
       id="path7632" />
    <path
       d="M 7.17811,45.03693 5.08272,44.75995 5.13086,44.3949 C 5.14289,44.30232 5.16621,44.23157 5.20005,44.1849 5.23389,44.13823 5.28654,44.09834 5.35724,44.06598 L 7.18638,43.29675 C 7.34282,43.22224 7.43307,43.09955 7.45564,42.92719 L 7.5835,41.95474 5.43847,42.91139 C 5.35499,42.95354 5.28278,43.00096 5.22186,43.0544 5.16019,43.10709 5.10603,43.1658 5.0594,43.22902 5.01879,43.04236 4.95786,42.87526 4.87288,42.72398 4.78864,42.5742 4.68636,42.44323 4.56602,42.33108 4.44568,42.21968 4.3088,42.12786 4.15537,42.05711 4.00194,41.98711 3.83647,41.94045 3.65898,41.91711 3.42582,41.887 3.20771,41.89679 3.00314,41.94722 2.80007,41.99915 2.61655,42.09775 2.4556,42.24453 2.29465,42.39205 2.15776,42.59076 2.0457,42.83989 1.93364,43.08978 1.85316,43.39612 1.80578,43.75966 L 1.58917,45.40199 7.03522,46.12004 7.17812,45.03694 Z M 4.31557,44.65909 2.56014,44.42802 2.63385,43.86954 C 2.67822,43.53008 2.78352,43.28848 2.94899,43.14246 3.1137,42.99719 3.32881,42.94225 3.5943,42.97762 3.72818,42.99493 3.84927,43.03106 3.95757,43.086 4.06512,43.14019 4.15538,43.21471 4.22683,43.30729 4.29753,43.39987 4.34867,43.51352 4.378,43.64675 4.40808,43.77997 4.41109,43.93427 4.38853,44.10889 Z"
       id="path7634" />
    <polygon
       points="7.79183,41.11399 8.49506,38.19964 7.62562,37.9904 7.17886,39.84499 2.7068,38.76565 2.45183,39.82391 "
       id="polygon7636" />
    <path
       d="M 9.41264,35.42905 C 9.54877,35.05196 9.60894,34.68691 9.59465,34.3324 9.57961,33.97714 9.49688,33.64897 9.34796,33.3464 9.19979,33.04458 8.9877,32.77587 8.71393,32.54179 8.44016,32.30771 8.11299,32.12105 7.73468,31.98331 7.35862,31.84708 6.99084,31.78159 6.63133,31.78611 6.27182,31.79138 5.93788,31.86062 5.63102,31.99761 5.32265,32.13384 5.04964,32.3333 4.81046,32.59599 4.57204,32.85867 4.38476,33.17856 4.24788,33.55414 L 3.56571,35.43808 8.72972,37.31224 Z M 8.5996,35.13325 8.28898,35.98904 4.74653,34.70423 5.05715,33.84844 C 5.13988,33.61963 5.25496,33.4292 5.40162,33.27716 5.54903,33.12587 5.72277,33.01448 5.92133,32.94448 6.11989,32.87373 6.34026,32.84513 6.58169,32.85566 6.82462,32.8677 7.0826,32.9234 7.35787,33.02275 7.6354,33.12361 7.87156,33.24705 8.06636,33.39457 8.26041,33.54059 8.41158,33.70542 8.51913,33.88682 8.62593,34.06821 8.6876,34.26391 8.70114,34.47466 8.71618,34.68541 8.68234,34.90594 8.5996,35.13325 Z"
       id="path7638" />
    <path
       d="M 12.79489,28.14468 10.28283,25.26796 C 10.24974,25.23183 10.21364,25.19119 10.17302,25.14603 10.13316,25.10087 10.08954,25.05646 10.0429,25.0113 10.10457,25.03313 10.16324,25.0527 10.2204,25.07001 10.27831,25.08883 10.33021,25.10313 10.37834,25.11367 L 14.05392,26.12526 14.57513,25.28979 10.77696,20.99579 10.32644,21.71911 C 10.27906,21.79362 10.2595,21.87115 10.26627,21.95169 10.27304,22.03223 10.29861,22.09846 10.34223,22.14739 L 12.60684,24.51906 C 12.66325,24.58078 12.72567,24.64476 12.79412,24.71174 12.86331,24.77873 12.93702,24.84873 13.01524,24.92023 12.91521,24.88335 12.81819,24.84948 12.72492,24.82012 12.63166,24.78851 12.54366,24.76442 12.46168,24.74485 L 9.26144,23.87928 C 9.18548,23.86046 9.11327,23.86573 9.04634,23.89283 8.9779,23.92068 8.91848,23.97638 8.86809,24.05691 L 8.69962,24.32787 C 8.65224,24.40314 8.63268,24.47991 8.63945,24.55969 8.64697,24.63872 8.67179,24.70496 8.71466,24.75689 L 10.89428,27.2505 C 10.94843,27.31975 11.01086,27.39125 11.08306,27.46125 11.15451,27.53125 11.22897,27.60426 11.30945,27.68028 11.10187,27.6005 10.91685,27.53577 10.75138,27.48835 L 7.63011,26.49557 C 7.55791,26.476 7.48646,26.48127 7.41576,26.50987 7.34581,26.53998 7.28489,26.59567 7.23375,26.67772 L 6.7524,27.45072 12.27592,28.97714 12.79488,28.14468 Z"
       id="path7640" />
    <polygon
       points="12.55346,18.95905 11.86678,19.80882 16.13653,23.26735 16.82321,22.41683 "
       id="polygon7642" />
    <path
       d="M 19.09459,19.89839 C 19.37438,19.61237 19.58196,19.30604 19.71508,18.97636 19.84896,18.64744 19.91138,18.31476 19.9016,17.97831 19.89182,17.64186 19.81059,17.30994 19.65867,16.98177 19.50674,16.65511 19.28637,16.35028 18.99982,16.06727 18.71477,15.78728 18.40715,15.57427 18.07848,15.42825 17.74981,15.28298 17.41662,15.20847 17.08118,15.20471 16.74499,15.20019 16.4133,15.26793 16.08689,15.40718 15.75972,15.54718 15.45662,15.75943 15.17683,16.04545 L 13.77339,17.47402 17.6904,21.32696 19.0946,19.89839 Z M 15.79056,16.64834 C 15.96054,16.47523 16.14405,16.35028 16.34111,16.27276 16.53816,16.19674 16.74199,16.16814 16.95183,16.1862 17.16167,16.20502 17.37377,16.26975 17.58962,16.38114 17.80547,16.49253 18.01757,16.6506 18.22516,16.85608 18.4365,17.06231 18.59896,17.27306 18.71554,17.48757 18.83061,17.70283 18.90056,17.91509 18.92237,18.12433 18.94493,18.33357 18.91861,18.53755 18.84415,18.73625 18.76969,18.93345 18.6471,19.11861 18.47787,19.29172 L 17.84008,19.94203 15.15203,17.29789 15.79057,16.64833 Z"
       id="path7644" />
    <polygon
       points="21.95563,13.11605 20.58453,14.21646 19.67598,13.08368 21.43743,11.66866 20.89666,10.99426 18.28306,13.09271 21.72022,17.3807 24.33457,15.28224 23.79681,14.60484 22.03085,16.02212 21.10499,14.86601 22.47534,13.76485 "
       id="polygon7646" />
    <path
       d="M 28.96909,12.33327 28.27639,8.57743 C 28.26812,8.52926 28.25684,8.47657 28.2448,8.41711 28.23276,8.35765 28.21848,8.29668 28.20193,8.23346 28.24254,8.28389 28.28316,8.33131 28.32377,8.37572 28.36438,8.42013 28.40199,8.45927 28.43809,8.49314 L 31.08252,11.24115 31.95648,10.78804 30.88171,5.15503 30.12508,5.54642 C 30.04686,5.58782 29.98895,5.64427 29.9536,5.71652 29.91825,5.79028 29.90697,5.85878 29.919,5.92426 L 30.65758,9.12086 C 30.67488,9.2029 30.69594,9.28871 30.72076,9.38204 30.74483,9.47537 30.77266,9.57171 30.80424,9.67483 30.73655,9.59128 30.67036,9.51225 30.60568,9.43924 30.541,9.36548 30.47782,9.29924 30.41765,9.24129 L 28.10791,6.86134 C 28.0515,6.80639 27.98682,6.77328 27.91462,6.76349 27.84166,6.7522 27.76269,6.76876 27.6777,6.81317 L 27.39415,6.95994 C 27.31593,7.00058 27.26027,7.05703 27.22568,7.12929 27.19183,7.20079 27.17905,7.27004 27.18883,7.33628 L 27.79127,10.5946 C 27.80255,10.68266 27.8206,10.77374 27.84617,10.87234 27.87174,10.96868 27.89957,11.07029 27.9289,11.17642 27.79202,11.00105 27.66491,10.85127 27.54758,10.72557 L 25.37021,8.27788 C 25.31681,8.22369 25.25288,8.19208 25.17767,8.18079 25.10246,8.17101 25.02198,8.18681 24.93624,8.23122 L 24.12772,8.65046 28.09813,12.78414 28.96908,12.33329 Z"
       id="path7648" />
    <polygon
       points="35.85619,5.93629 34.19478,6.51209 33.72019,5.13846 35.85469,4.40009 35.57189,3.58193 32.4055,4.67858 34.20154,9.87353 37.36869,8.77688 37.08891,7.95798 34.95065,8.69861 34.46704,7.29863 36.12846,6.72284 "
       id="polygon7650" />
    <path
       d="M 40.40949,8.01593 C 40.7141,7.94744 40.97433,7.84583 41.19094,7.7126 41.4083,7.58013 41.58129,7.42433 41.70915,7.24745 41.83626,7.06907 41.92049,6.87412 41.9596,6.66112 41.99871,6.44812 41.99269,6.22758 41.94005,5.99877 41.79865,5.37706 41.36393,5.06169 40.63513,5.05191 40.78104,4.96008 40.90138,4.85998 40.9969,4.75159 41.09242,4.64396 41.16537,4.53106 41.21501,4.41514 41.2654,4.29923 41.29473,4.1788 41.30376,4.05536 41.31203,3.93192 41.30226,3.80773 41.27368,3.68354 41.22479,3.46602 41.14356,3.2771 41.033,3.11753 40.92169,2.95721 40.77427,2.83302 40.59151,2.7442 40.40875,2.65614 40.18763,2.60571 39.92739,2.59367 39.66716,2.58238 39.36556,2.61625 39.02185,2.69453 L 37.20174,3.10925 38.42167,8.46904 40.40951,8.01593 Z M 40.57871,5.73157 C 40.66219,5.77824 40.72838,5.84221 40.78028,5.9235 40.83142,6.00554 40.86903,6.10113 40.8946,6.21177 40.91792,6.31413 40.92694,6.41574 40.92168,6.51736 40.91642,6.61972 40.88859,6.71381 40.84045,6.80112 40.79081,6.88918 40.71409,6.96821 40.61181,7.03671 40.50802,7.1052 40.37113,7.1594 40.20266,7.19703 L 39.29486,7.40402 38.9519,5.89792 39.85594,5.69244 C 40.01764,5.65631 40.15754,5.64201 40.27637,5.64954 40.39596,5.65782 40.49674,5.68492 40.57872,5.73158 Z M 39.20611,3.50968 C 39.50771,3.44194 39.74086,3.44646 39.90633,3.52699 40.07104,3.60602 40.18461,3.78365 40.24779,4.05838 40.30796,4.32182 40.27035,4.52955 40.13497,4.68084 39.99884,4.83062 39.78223,4.94127 39.48364,5.00901 L 38.78568,5.16782 38.44873,3.6828 39.20611,3.50969 Z"
       id="path7652" />
    <path
       d="M 45.93226,6.39166 C 46.15338,6.6295 46.41737,6.81015 46.72273,6.93208 47.02809,7.05552 47.36579,7.10595 47.73808,7.08563 48.14798,7.06305 48.49847,6.97047 48.78953,6.80714 49.07985,6.64532 49.31676,6.41951 49.49953,6.12898 L 49.03999,5.68641 C 48.99637,5.64501 48.94522,5.6262 48.88806,5.62845 48.85647,5.63071 48.82789,5.63974 48.80006,5.6563 48.77223,5.67361 48.74516,5.69393 48.71808,5.71651 48.65415,5.79479 48.58796,5.86102 48.52253,5.91446 48.45634,5.96715 48.38414,6.01306 48.30743,6.04844 48.23071,6.08457 48.14798,6.11091 48.05773,6.12898 47.96748,6.14554 47.86594,6.15833 47.75312,6.16436 47.56284,6.1749 47.38233,6.14329 47.2131,6.06802 47.04387,5.99275 46.8927,5.87835 46.76108,5.72405 46.63021,5.569 46.52191,5.37707 46.43767,5.14675 46.35268,4.91718 46.30154,4.65149 46.28574,4.35117 46.26919,4.05386 46.28649,3.78666 46.33839,3.55033 46.38953,3.31324 46.47076,3.11077 46.58057,2.94368 46.68963,2.77583 46.82501,2.64562 46.98521,2.55229 47.14616,2.45821 47.32667,2.40702 47.52673,2.39573 47.71175,2.38519 47.86443,2.39874 47.98552,2.43637 48.10586,2.474 48.20664,2.51691 48.28937,2.56508 48.3706,2.6125 48.43979,2.65766 48.49545,2.6983 48.55111,2.73894 48.60827,2.75851 48.66543,2.75475 48.72334,2.75249 48.76772,2.73744 48.7978,2.71109 48.82939,2.68399 48.85496,2.65539 48.87828,2.62378 L 49.21372,2.0954 C 49.01215,1.89067 48.76471,1.73035 48.47439,1.61519 48.18332,1.50078 47.85314,1.45337 47.48461,1.47369 47.12134,1.49401 46.79116,1.58057 46.49633,1.73562 46.2015,1.88992 45.9518,2.09766 45.74873,2.35733 45.54491,2.61776 45.39223,2.92259 45.29145,3.27258 45.19067,3.62257 45.15156,4.00192 45.17412,4.41288 45.19668,4.82008 45.2734,5.19265 45.40427,5.52985 45.53439,5.86705 45.71038,6.15382 45.93225,6.39166 Z"
       id="path7654" />
    <path
       d="M 54.98169,2.47626 C 54.76659,2.20981 54.50034,1.99455 54.18295,1.82896 53.86556,1.66412 53.50755,1.56853 53.10818,1.53993 52.71031,1.51208 52.34178,1.55724 52.00483,1.67692 51.66638,1.79584 51.3723,1.97122 51.1211,2.20379 50.86989,2.43712 50.66908,2.72012 50.5164,3.05356 50.36523,3.38775 50.27497,3.7543 50.24639,4.15322 50.21781,4.55439 50.25617,4.93224 50.35996,5.28374 50.4645,5.63524 50.62395,5.94534 50.84056,6.21179 51.05717,6.47899 51.32417,6.6935 51.64156,6.85683 51.95895,7.02016 52.31696,7.11575 52.71633,7.14435 53.11495,7.1722 53.48273,7.12704 53.82043,7.00962 54.15738,6.89296 54.4507,6.71683 54.7004,6.48275 54.95085,6.24867 55.15092,5.96416 55.30209,5.63072 55.45251,5.29653 55.54126,4.92848 55.56984,4.52655 55.59767,4.12688 55.56006,3.7528 55.45778,3.40206 55.35549,3.05207 55.1968,2.74347 54.98169,2.47627 Z M 54.46348,4.44901 C 54.44317,4.74331 54.38902,5.00448 54.30102,5.23254 54.21302,5.45985 54.0972,5.64952 53.95279,5.80081 53.80688,5.95285 53.63615,6.065 53.4391,6.1365 53.2428,6.20876 53.02318,6.23585 52.781,6.21929 52.53882,6.20198 52.32372,6.14402 52.13794,6.04542 51.95066,5.94682 51.79648,5.81134 51.67464,5.64123 51.55205,5.47037 51.46405,5.26715 51.40839,5.02931 51.35349,4.79147 51.33619,4.52502 51.35649,4.23148 51.3768,3.93944 51.43095,3.68052 51.51895,3.45397 51.60695,3.22817 51.72352,3.03849 51.86793,2.88495 52.01234,2.73216 52.18457,2.6185 52.38238,2.54549 52.58169,2.47248 52.80206,2.44463 53.04424,2.46119 53.28642,2.4785 53.49927,2.53646 53.68504,2.63732 53.87006,2.73743 54.02349,2.87291 54.14533,3.04527 54.26717,3.21688 54.35667,3.42085 54.41158,3.65644 54.46724,3.89278 54.48454,4.15697 54.46348,4.44901 Z"
       id="path7656" />
    <path
       d="M 60.04792,8.17776 C 60.09681,8.21765 60.16375,8.24701 60.24648,8.26507 L 60.79327,8.38023 61.93272,3.00238 60.99784,2.80367 60.32996,5.95436 C 60.29611,6.11393 60.26904,6.28478 60.24723,6.46618 L 58.34062,2.41454 C 58.31806,2.37239 58.297,2.33852 58.27895,2.31218 58.2609,2.28584 58.23984,2.26401 58.21652,2.24594 58.19396,2.22863 58.16613,2.21433 58.13529,2.20304 58.10295,2.1925 58.06534,2.18272 58.01871,2.17293 L 57.46064,2.05401 56.32194,7.43186 57.26058,7.63132 57.93598,4.44375 C 57.96606,4.30074 57.99088,4.14419 58.00969,3.97333 L 59.91404,8.00314 C 59.9539,8.07991 59.99828,8.13712 60.04792,8.17776 Z"
       id="path7658" />
    <path
       d="M 62.5141,8.78366 C 62.63745,8.8928 62.77057,8.99065 62.91498,9.0757 63.05939,9.1615 63.20981,9.23075 63.36625,9.28419 63.64378,9.37827 63.90476,9.41817 64.14995,9.40236 64.39589,9.38655 64.61927,9.32785 64.81933,9.22548 65.0209,9.12387 65.19463,8.98237 65.34205,8.80248 65.48947,8.62259 65.60228,8.41485 65.68276,8.18002 65.75647,7.9625 65.78655,7.76755 65.77377,7.59444 65.76174,7.42133 65.72037,7.26326 65.65042,7.12327 65.58047,6.98252 65.48947,6.85457 65.37891,6.73941 65.26835,6.62576 65.15027,6.51812 65.02692,6.41952 64.90282,6.32017 64.78173,6.22533 64.66214,6.13501 64.54255,6.04544 64.43951,5.95362 64.35302,5.86179 64.26728,5.76921 64.2041,5.67437 64.1665,5.57577 64.12889,5.47642 64.12965,5.36878 64.17026,5.25062 64.23344,5.06546 64.344,4.9345 64.50194,4.85998 64.65988,4.78622 64.85543,4.78923 65.09084,4.86901 65.22472,4.91417 65.33528,4.97213 65.42478,5.04363 65.51428,5.11513 65.59024,5.18513 65.65267,5.25438 65.71434,5.32363 65.7685,5.38685 65.81362,5.44255 65.85799,5.499 65.90538,5.53513 65.95502,5.55169 66.00767,5.56975 66.05505,5.57427 66.09792,5.56373 66.14079,5.55319 66.18366,5.52685 66.22804,5.48395 L 66.65524,5.08729 C 66.53565,4.8502 66.36417,4.6402 66.14155,4.4573 65.92043,4.27365 65.6602,4.13139 65.36311,4.03053 65.09987,3.94021 64.85017,3.90333 64.61701,3.91838 64.3831,3.93268 64.17176,3.98763 63.98298,4.0802 63.79345,4.17353 63.63099,4.29848 63.49711,4.45428 63.36248,4.61159 63.26245,4.78546 63.19702,4.97664 63.11579,5.21599 63.07894,5.42824 63.08872,5.61265 63.09699,5.7963 63.1346,5.96039 63.20229,6.10565 63.26923,6.25092 63.35873,6.38038 63.47079,6.49252 63.58285,6.60466 63.70018,6.70854 63.82353,6.80337 63.94688,6.89745 64.06872,6.98778 64.18981,7.07433 64.3109,7.16088 64.41394,7.2497 64.49893,7.34078 64.58467,7.43261 64.64484,7.53196 64.68019,7.63733 64.71554,7.7427 64.71103,7.86163 64.66515,7.99485 64.58618,8.23044 64.45982,8.38549 64.28909,8.46151 64.11761,8.53678 63.91454,8.53527 63.67913,8.45474 63.51743,8.39979 63.38581,8.32829 63.28502,8.24023 63.18424,8.15141 63.0985,8.06185 63.03081,7.97378 62.96162,7.88421 62.90145,7.80518 62.85181,7.73368 62.80217,7.66218 62.74501,7.61626 62.68258,7.59519 62.63595,7.57938 62.58781,7.57637 62.53893,7.58616 62.49079,7.59594 62.44868,7.61627 62.41182,7.64713 L 61.93949,8.03325 C 62.00041,8.16948 62.08014,8.30346 62.18017,8.42991 62.27945,8.55636 62.39076,8.67528 62.51411,8.78367 Z"
       id="path7660" />
    <path
       d="M 67.31635,10.59459 C 67.55176,10.86405 67.84885,11.08533 68.20986,11.2577 68.57012,11.43081 68.92888,11.52565 69.28538,11.54146 69.64263,11.55576 69.98033,11.50157 70.29848,11.37512 70.61738,11.25018 70.90844,11.05975 71.17093,10.80459 71.43342,10.55019 71.65303,10.24159 71.82677,9.87805 72.00051,9.51752 72.10355,9.15548 72.13739,8.79194 72.17048,8.4284 72.13739,8.08292 72.0351,7.75626 71.93356,7.42809 71.76584,7.13004 71.53118,6.85907 71.29727,6.58886 71.00019,6.36757 70.63917,6.19371 70.27891,6.0206 69.9194,5.92726 69.5629,5.91296 69.20565,5.89866 68.8672,5.95436 68.5483,6.0778 68.2279,6.20124 67.93683,6.38941 67.67284,6.64456 67.4081,6.89821 67.18923,7.20605 67.017,7.56659 66.84176,7.93013 66.73872,8.29443 66.70563,8.65947 66.67254,9.02451 66.70789,9.3715 66.81017,9.69891 66.91321,10.02708 67.08168,10.32513 67.31634,10.59459 Z M 67.77363,8.81 C 67.80973,8.56839 67.89246,8.31474 68.01957,8.04829 68.14668,7.78485 68.29184,7.56432 68.45655,7.38594 68.62126,7.20831 68.79951,7.07509 68.99055,6.98627 69.18159,6.8967 69.38315,6.8553 69.5945,6.86133 69.80584,6.86585 70.02095,6.92154 70.24057,7.02617 70.45868,7.13154 70.63618,7.26477 70.77081,7.42659 70.90694,7.58766 70.99945,7.77056 71.04984,7.97529 71.09873,8.18002 71.10625,8.40281 71.07015,8.64216 71.03555,8.88302 70.95432,9.13441 70.82722,9.3986 70.69936,9.66429 70.55345,9.88709 70.38799,10.06622 70.22253,10.24535 70.04427,10.37933 69.85399,10.46664 69.66295,10.5532 69.46289,10.59459 69.2538,10.58857 69.04396,10.58255 68.82961,10.5276 68.61074,10.42223 68.39263,10.31686 68.21438,10.18439 68.07749,10.02331 67.93985,9.86224 67.84584,9.68084 67.79545,9.47687 67.74506,9.27365 67.73754,9.05161 67.77364,8.81 Z"
       id="path7662" />
    <path
       d="M 72.3901,13.48486 73.54234,11.71156 73.85071,11.91177 C 73.92893,11.9637 73.98308,12.01413 74.01091,12.06607 74.03874,12.1165 74.05152,12.18123 74.05077,12.25875 L 73.956,14.24204 C 73.9545,14.41515 74.02745,14.54988 74.17261,14.64547 L 74.99467,15.17987 75.05559,12.82927 C 75.05409,12.73669 75.04205,12.65089 75.02099,12.57261 74.99918,12.49433 74.96985,12.42057 74.93299,12.34982 75.11876,12.39498 75.29626,12.41154 75.46925,12.3995 75.64073,12.38821 75.80319,12.35208 75.95587,12.29187 76.10855,12.23166 76.24995,12.14736 76.37931,12.03822 76.50867,11.93059 76.62224,11.80188 76.72002,11.65059 76.84788,11.45414 76.93287,11.25243 76.97499,11.04619 77.01636,10.83996 77.00583,10.63222 76.94265,10.42298 76.87947,10.21449 76.75989,10.00525 76.58314,9.796 76.40639,9.58751 76.16346,9.38278 75.8566,9.18332 L 74.46895,8.28011 71.47479,12.88873 72.39011,13.48485 Z M 74.92924,9.57698 75.40157,9.88407 C 75.68737,10.07073 75.86111,10.26944 75.92053,10.48094 75.9807,10.69319 75.93708,10.91072 75.79192,11.13501 75.71821,11.24942 75.63322,11.3435 75.53695,11.41726 75.44143,11.49177 75.33689,11.5407 75.22181,11.56478 75.10674,11.58962 74.98339,11.58585 74.85102,11.55575 74.71714,11.52489 74.57725,11.46091 74.42908,11.36457 L 73.96427,11.06275 74.92923,9.57697 Z"
       id="path7664" />
    <polygon
       points="77.26906,17.03522 80.18801,13.46604 81.33348,14.40387 81.89456,13.71819 78.76351,11.15533 78.20243,11.84102 79.34866,12.77885 76.43046,16.34803 "
       id="polygon7666" />
    <rect
       x="78.68351"
       y="16.55113"
       width="5.4955001"
       height="1.09237"
       transform="rotate(-45.94214,81.431259,17.097314)"
       id="rect7668" />
    <path
       d="M 82.00587,19.66807 C 81.86222,19.92925 81.77723,20.20096 81.7509,20.48472 81.72458,20.76697 81.75993,21.05374 81.8592,21.34503 81.95697,21.63556 82.12169,21.91706 82.35108,22.18878 82.58123,22.46125 82.83093,22.66823 83.10169,22.81199 83.37095,22.95575 83.64697,23.03854 83.92977,23.05811 84.21332,23.07918 84.49461,23.04005 84.77665,22.94069 85.05719,22.84209 85.32419,22.68478 85.5769,22.47027 L 88.07692,20.35149 87.37595,19.52355 84.87593,21.64383 C 84.72024,21.77555 84.56155,21.87415 84.39984,21.93888 84.23738,22.00361 84.07944,22.03372 83.9245,22.02995 83.76881,22.02543 83.61914,21.98705 83.47248,21.91329 83.32732,21.83953 83.19269,21.72888 83.06784,21.58211 82.94299,21.43383 82.85574,21.28255 82.80686,21.12674 82.75797,20.97169 82.74519,20.81664 82.76625,20.66234 82.78731,20.50804 82.84372,20.35675 82.93397,20.20773 83.02498,20.0587 83.14832,19.91795 83.30326,19.78623 L 85.80328,17.6667 85.10081,16.83575 82.60079,18.95528 C 82.34808,19.16979 82.15027,19.40688 82.00587,19.66806 Z"
       id="path7670" />
    <path
       d="M 85.18957,25.73462 88.12958,23.95154 C 88.19577,23.91165 88.26496,23.86649 88.33867,23.81455 88.41238,23.76337 88.48684,23.70918 88.5613,23.65047 L 86.83144,26.75299 C 86.73893,26.90955 86.73667,27.05933 86.82392,27.20309 L 86.90364,27.33406 C 86.98938,27.47556 87.12251,27.5418 87.30301,27.53126 L 90.82741,27.42288 C 90.74468,27.46202 90.66495,27.50342 90.58824,27.54481 90.51228,27.58696 90.44233,27.62685 90.3784,27.66599 L 87.43914,29.44907 87.93478,30.26647 92.63173,27.41685 92.20829,26.71536 C 92.18347,26.67547 92.16015,26.64009 92.1391,26.61149 92.11879,26.58214 92.09698,26.55805 92.07442,26.53923 92.05186,26.52117 92.02478,26.50837 91.99244,26.50009 91.9601,26.49181 91.92024,26.48955 91.87436,26.49181 L 88.45676,26.58514 C 88.35899,26.5889 88.26121,26.59869 88.16268,26.61374 88.0634,26.62804 87.96262,26.6446 87.86033,26.66191 87.98443,26.50535 88.09725,26.34202 88.19652,26.17117 L 89.86019,23.168 C 89.88426,23.12811 89.8993,23.09198 89.90607,23.05962 89.91284,23.02801 89.91359,22.9979 89.90833,22.96704 89.90231,22.93693 89.89178,22.90607 89.87599,22.87521 89.8602,22.8436 89.84139,22.80822 89.81657,22.76833 L 89.39012,22.06383 84.69167,24.91345 Z"
       id="path7672" />
    <path
       d="M 8.14584,66.31849 C 8.14584,65.64711 7.58138,65.09088 6.91087,65.09088 6.24826,65.09088 5.69207,65.64711 5.69207,66.31849 5.69207,66.9816 6.24826,67.54685 6.91087,67.54685 7.58138,67.54685 8.14584,66.98159 8.14584,66.31849 Z"
       id="path7674" />
    <path
       d="M 91.29875,33.76409 C 91.29875,34.4272 91.85494,34.99245 92.51755,34.99245 93.18806,34.99245 93.75252,34.42719 93.75252,33.76409 93.75252,33.09271 93.18806,32.53648 92.51755,32.53648 91.85494,32.53648 91.29875,33.09271 91.29875,33.76409 Z"
       id="path7676" />
  </g>
  <g
     id="g7696"
     style="fill:#ffffff"
     transform="matrix(1.0340979,0,0,1.0340979,-1.4100076,-1.5192081)">
    <path
       d="M 66.54305,52.43686 C 67.21138,51.59457 67.07015,50.36423 66.22677,49.69363 65.38333,49.02414 64.15194,49.16653 63.48245,50.00998 62.65323,51.05545 61.90005,51.68478 61.04141,52.05106 59.45785,52.72489 58.11557,52.4401 56.8179,51.15439 55.54629,49.89475 54.30728,48.52207 53.10525,47.19174 52.51724,46.54074 51.92819,45.88864 51.33151,45.24411 50.31204,44.14316 49.2872,43.04654 48.26333,41.94882 L 48.17312,41.85202 C 45.94619,39.4686 43.64425,37.00363 41.42379,34.5278 39.66311,32.56387 36.94271,31.59109 34.32558,31.98453 31.65084,32.38455 29.48799,34.09635 28.23488,36.80368 27.02742,39.41098 27.43605,42.37375 29.3,44.53549 32.57899,48.33835 35.34504,51.48257 38.58491,54.43997 39.9098,55.64847 41.51295,56.2919 43.22035,56.30057 44.32783,56.30606 45.99721,56.18106 47.70033,55.0344 48.44594,54.53232 49.14039,54.01603 49.44581,53.22806 49.75666,52.42166 49.46644,51.4946 48.73829,50.97183 48.03181,50.46316 47.10475,50.49899 46.43092,51.05874 46.34608,51.12936 46.25373,51.2109 46.15266,51.29897 45.09407,52.22603 43.77681,53.38021 41.0912,51.45217 38.63057,49.68496 36.72536,47.36886 34.51796,44.68655 33.79848,43.81271 33.05397,42.90847 32.25838,41.98458 31.40847,40.99886 31.22481,39.64248 31.77907,38.44369 32.26277,37.40036 33.19637,36.10263 34.90486,35.84725 36.19929,35.65267 37.65022,36.17 38.51649,37.13515 40.75538,39.63271 43.07472,42.11721 45.31794,44.51808 46.36897,45.64296 47.41987,46.76893 48.46546,47.89821 49.05128,48.53078 49.62946,49.17085 50.21638,49.82082 51.44886,51.18483 52.72267,52.59444 54.06819,53.92806 56.49727,56.33535 59.51655,56.94509 62.57387,55.64412 64.04219,55.01704 65.30403,53.99861 66.54305,52.43684 Z"
       id="path7680" />
    <path
       d="M 69.28286,38.84408 C 70.5458,38.2452 71.53915,37.11813 71.63369,35.75088 71.87392,33.37728 69.91976,31.10574 67.04501,30.75466 65.28,30.53078 63.64212,31.05355 62.48141,32.01546 61.8608,32.5317 61.69339,33.48702 62.23141,34.16085 62.81936,34.8619 63.49758,34.98464 64.60726,34.37502 65.00503,34.14895 65.6028,33.9609 66.26034,34.00649 67.50045,34.09243 67.8558,35.20968 67.82107,35.71724 67.81558,35.79219 67.82327,37.52248 66.07669,37.40181 L 65.41806,37.35622 C 64.68442,37.30617 63.95077,37.99202 63.89645,38.77669 63.83773,39.61141 64.44857,40.34065 65.20828,40.39394 L 66.01797,40.44936 C 68.24606,40.60372 68.01345,42.49477 67.9667,42.79696 67.92324,43.66647 66.52767,45.14126 64.03884,43.46426 63.19436,42.89584 57.17104,35.33029 57.17104,35.33029 54.31698,31.64047 49.46743,30.99051 45.64064,33.78592 45.22005,34.09348 44.94289,34.54666 44.86244,35.06296 44.78309,35.5781 44.90809,36.09439 45.21571,36.51499 45.52327,36.93558 45.97651,37.21274 46.49165,37.29319 47.01002,37.37363 47.52412,37.24754 47.94477,36.93992 50.55537,35.03257 52.88227,36.16935 54.07893,37.71708 54.07893,37.71708 60.54567,46.03471 62.2107,46.91612 63.29108,47.48784 64.4192,47.81822 65.5658,47.89757 69.08503,48.14104 71.22828,46.20207 71.80652,43.54582 72.18579,41.80467 71.05982,39.62883 69.28284,38.8441 Z"
       id="path7682" />
    <path
       d="M 36.30709,61.7565 C 36.25729,61.7731 36.21236,61.81705 36.17037,61.89029 L 33.73482,66.11588 C 33.69283,66.19303 33.65279,66.27408 33.61666,66.35807 33.57955,66.44205 33.54342,66.52897 33.50924,66.61979 33.47408,66.53288 33.43795,66.44694 33.40084,66.36295 33.36471,66.27897 33.32369,66.19693 33.27779,66.11588 L 30.81099,61.89615 C 30.76509,61.819 30.71919,61.7731 30.67134,61.7565 30.62446,61.74088 30.55904,61.73306 30.47505,61.73306 H 29.77193 V 68.63052 H 30.61177 V 63.59634 C 30.61177,63.44595 30.60103,63.28384 30.57954,63.10904 L 33.09907,67.42838 C 33.18012,67.57193 33.29536,67.6442 33.44575,67.6442 H 33.58247 C 33.73286,67.6442 33.84809,67.57193 33.92915,67.42838 L 36.39106,63.10318 C 36.38325,63.19107 36.37739,63.27701 36.37251,63.36295 36.36665,63.44889 36.3647,63.52701 36.3647,63.59635 V 68.63053 H 37.20943 V 61.73307 H 36.50631 C 36.42233,61.73307 36.35592,61.74088 36.30709,61.75651 Z"
       id="path7684" />
    <polygon
       points="43.09322,62.5104 43.09322,61.73306 39.06197,61.73306 39.06197,68.63052 43.09322,68.63052 43.09908,67.85318 40.02291,67.85318 40.02291,65.5231 42.49557,65.5231 42.49557,64.77212 40.02291,64.77212 40.02291,62.5104 "
       id="polygon7686" />
    <path
       d="M 51.17721,61.7565 C 51.12741,61.7731 51.08248,61.81705 51.04049,61.89029 L 48.60494,66.11588 C 48.56295,66.19303 48.52291,66.27408 48.48678,66.35807 48.44967,66.44205 48.41354,66.52897 48.37936,66.61979 48.3442,66.53288 48.30807,66.44694 48.27096,66.36295 48.23483,66.27897 48.19381,66.19693 48.14791,66.11588 L 45.68111,61.89615 C 45.63521,61.819 45.58931,61.7731 45.54146,61.7565 45.49458,61.74088 45.42916,61.73306 45.34517,61.73306 H 44.64205 V 68.63052 H 45.48189 V 63.59634 C 45.48189,63.44595 45.47115,63.28384 45.44966,63.10904 L 47.96919,67.42838 C 48.05024,67.57193 48.16548,67.6442 48.31587,67.6442 H 48.45259 C 48.60298,67.6442 48.71821,67.57193 48.79927,67.42838 L 51.26118,63.10318 C 51.25337,63.19107 51.24751,63.27701 51.24263,63.36295 51.23677,63.44889 51.23482,63.52701 51.23482,63.59635 V 68.63053 H 52.07955 V 61.73307 H 51.37643 C 51.29245,61.73307 51.22604,61.74088 51.17721,61.75651 Z"
       id="path7688" />
    <path
       d="M 57.10787,65.08169 C 57.31783,65.01528 57.50045,64.92837 57.65377,64.81997 57.80807,64.71157 57.936,64.59048 58.03756,64.45767 58.13912,64.32486 58.21432,64.17935 58.2651,64.02212 58.31588,63.86489 58.34127,63.70181 58.34127,63.53384 58.34127,63.25357 58.2983,63.00259 58.21041,62.78091 58.12252,62.55825 57.9858,62.36978 57.7983,62.21353 57.6108,62.05826 57.37154,61.93912 57.07955,61.85708 56.78658,61.77407 56.43795,61.73306 56.0317,61.73306 H 53.92721 V 68.63052 H 56.25729 C 56.62545,68.63052 56.95163,68.58364 57.23678,68.48892 57.52193,68.3942 57.76217,68.2604 57.95846,68.08755 58.15475,67.91372 58.30319,67.70669 58.40475,67.46548 58.50631,67.22427 58.55709,66.95571 58.55709,66.66177 58.55709,66.23208 58.43502,65.88443 58.19186,65.61978 57.9487,65.35611 57.58737,65.17642 57.10788,65.08169 Z M 54.88228,62.48404 H 56.03169 C 56.50142,62.48404 56.84517,62.57779 57.06392,62.76431 57.28169,62.95181 57.39204,63.24673 57.39204,63.64908 57.39204,63.82388 57.36274,63.98306 57.30513,64.12662 57.24752,64.27018 57.1606,64.39322 57.04536,64.49381 56.92915,64.59537 56.78462,64.67545 56.60981,64.73307 56.43403,64.79069 56.22993,64.81998 55.99555,64.81998 H 54.88227 V 62.48404 Z M 57.53072,67.13736 C 57.47994,67.2897 57.39986,67.41959 57.28951,67.52798 57.17916,67.63637 57.03756,67.72134 56.86373,67.78286 56.69088,67.84438 56.48385,67.87466 56.24166,67.87466 H 54.88228 V 65.49185 H 56.24166 C 56.70748,65.49185 57.05123,65.59439 57.27389,65.80142 57.49557,66.00747 57.6069,66.28775 57.6069,66.64126 57.6069,66.81997 57.58151,66.98501 57.53073,67.13735 Z"
       id="path7690" />
    <polygon
       points="64.02584,62.5104 64.02584,61.73306 59.99459,61.73306 59.99459,68.63052 64.02584,68.63052 64.0317,67.85318 60.95553,67.85318 60.95553,65.5231 63.42818,65.5231 63.42818,64.77212 60.95553,64.77212 60.95553,62.5104 "
       id="polygon7692" />
    <path
       d="M 68.37154,65.73013 C 68.31978,65.68325 68.26314,65.64029 68.20357,65.6022 68.45259,65.53872 68.67427,65.44693 68.87056,65.32583 69.06685,65.20571 69.23189,65.06118 69.36665,64.89321 69.50141,64.72524 69.60493,64.53676 69.67622,64.32583 69.74849,64.11685 69.78364,63.89028 69.78364,63.64907 69.78364,63.35512 69.73676,63.09048 69.64204,62.85415 69.54732,62.61782 69.40181,62.41665 69.20356,62.25063 69.00629,62.08461 68.75434,61.95668 68.4477,61.86684 68.14204,61.77797 67.77875,61.73305 67.35883,61.73305 H 65.46918 V 68.63051 H 66.42426 V 65.7643 H 67.06488 C 67.18793,65.7643 67.27972,65.7809 67.34027,65.8141 67.40179,65.8473 67.45843,65.90297 67.51117,65.98012 L 69.14398,68.43617 C 69.2348,68.56605 69.36273,68.63051 69.52679,68.63051 H 70.37738 L 68.52386,65.90102 C 68.47503,65.83461 68.42425,65.77797 68.37152,65.73012 Z M 67.32271,65.06607 H 66.42427 V 62.48404 H 67.35884 C 68.35591,62.48404 68.85493,62.89517 68.85493,63.71744 68.85493,63.91666 68.8227,64.10025 68.75825,64.26627 68.69282,64.43229 68.59614,64.57486 68.46626,64.694 68.33735,64.81314 68.1772,64.90494 67.98579,64.96939 67.79536,65.03384 67.57466,65.06607 67.3227,65.06607 Z"
       id="path7694" />
  </g>
</svg>
