<?xml version="1.0" encoding="UTF-8" standalone="no"?>
<svg
   id="Layer_1"
   width="120"
   height="120"
   version="1.1"
   viewBox="0 0 120 120"
   xmlns="http://www.w3.org/2000/svg"
   xmlns:svg="http://www.w3.org/2000/svg">
  <defs
     id="defs9329" />
  <g
     id="g7678"
     style="fill:#ffffff"
     transform="matrix(1.2409175,0,0,1.2409175,-1.6920406,-1.8230509)">
    <path
       d="m 91.56147,40.74293 3.79441,0.41171 c 0.04889,0.0045 0.10379,0.009 0.16321,0.01505 0.06017,0.006 0.12259,0.0098 0.18728,0.01129 -0.05942,0.02484 -0.11658,0.05043 -0.17073,0.07677 -0.05415,0.02484 -0.10304,0.05043 -0.14591,0.07602 l -3.38752,1.74846 0.18352,0.96794 5.70102,0.58182 -0.1587,-0.83773 c -0.01579,-0.08731 -0.0549,-0.15806 -0.11357,-0.21225 -0.06017,-0.05495 -0.12259,-0.0858 -0.18878,-0.09333 l -3.27169,-0.20699 c -0.08273,-0.0068 -0.17223,-0.01129 -0.26775,-0.0143 -0.09627,-0.003 -0.19781,-0.0045 -0.30461,-0.0038 0.09928,-0.0414 0.19329,-0.08279 0.28279,-0.12344 0.08875,-0.03989 0.16998,-0.08129 0.24368,-0.12344 l 2.93926,-1.5332 c 0.06844,-0.03763 0.11883,-0.09032 0.14892,-0.15656 0.03159,-0.06699 0.03836,-0.14752 0.02031,-0.24161 L 97.15719,40.77227 C 97.1414,40.68496 97.10304,40.61571 97.04437,40.56152 96.98495,40.50808 96.92253,40.47647 96.85559,40.46668 l -3.292,-0.35526 c -0.08649,-0.01505 -0.18051,-0.02333 -0.28054,-0.0271 -0.10003,-0.0038 -0.20533,-0.006 -0.31514,-0.0075 0.20683,-0.08129 0.38659,-0.16107 0.54002,-0.23784 l 2.96784,-1.38567 c 0.06619,-0.03462 0.11507,-0.08731 0.14666,-0.15656 0.03234,-0.06925 0.03911,-0.15129 0.02106,-0.24612 l -0.16847,-0.89568 -5.09557,2.62382 0.18201,0.96417 z"
       id="path7586" />
    <path
       d="m 97.21285,46.65442 c -0.25572,-0.22806 -0.55656,-0.40193 -0.90254,-0.5201 -0.34748,-0.11968 -0.72052,-0.17387 -1.1199,-0.16333 -0.40313,0.01054 -0.77392,0.0843 -1.11388,0.22204 -0.33996,0.13774 -0.63178,0.32741 -0.87621,0.56827 -0.24443,0.24086 -0.43322,0.52762 -0.56484,0.85955 -0.13162,0.33268 -0.19254,0.69773 -0.18201,1.09815 0.01053,0.40042 0.09025,0.76321 0.23992,1.08761 0.14892,0.32365 0.35274,0.59988 0.60996,0.82568 0.25722,0.22655 0.55882,0.39892 0.90479,0.51709 0.34672,0.11666 0.72128,0.17086 1.12366,0.16032 0.40012,-0.01129 0.76941,-0.0843 1.10786,-0.22053 0.33845,-0.13548 0.63027,-0.32365 0.87471,-0.563 0.24444,-0.24086 0.43322,-0.52612 0.56709,-0.8588 0.13237,-0.33118 0.19405,-0.69773 0.18352,-1.0974 -0.01128,-0.39967 -0.09101,-0.76246 -0.24218,-1.08686 -0.15042,-0.3244 -0.35425,-0.60139 -0.60996,-0.82869 z m -0.18276,2.59522 c -0.08198,0.19419 -0.20232,0.35978 -0.36101,0.49827 -0.15945,0.13849 -0.35425,0.24612 -0.58439,0.32365 -0.22939,0.07828 -0.48963,0.12118 -0.7822,0.12871 -0.29483,0.0083 -0.55957,-0.02032 -0.79498,-0.0858 -0.23391,-0.06624 -0.43472,-0.16333 -0.59943,-0.29279 -0.16471,-0.12946 -0.29257,-0.28903 -0.38283,-0.4787 -0.09101,-0.18967 -0.13914,-0.40569 -0.14591,-0.6488 -0.006,-0.24311 0.03084,-0.46214 0.11131,-0.65708 0.08047,-0.19494 0.19931,-0.36204 0.35725,-0.50053 0.15719,-0.13774 0.35199,-0.24537 0.58289,-0.32365 0.2309,-0.07753 0.49414,-0.12043 0.78897,-0.12795 0.29257,-0.0083 0.55506,0.02107 0.78821,0.0858 0.23391,0.06548 0.43397,0.16333 0.60019,0.29354 0.16622,0.12871 0.29483,0.28903 0.38659,0.47945 0.09176,0.19118 0.1414,0.40795 0.14817,0.65106 0.006,0.24236 -0.03159,0.46064 -0.11282,0.65483 z"
       id="path7588" />
    <path
       d="m 92.38203,53.42623 2.10216,0.21903 -0.03761,0.3658 c -0.0098,0.09408 -0.03159,0.16408 -0.06393,0.21301 -0.03309,0.04742 -0.08424,0.08806 -0.15418,0.12269 l -1.80658,0.81891 c -0.15569,0.07828 -0.24143,0.20397 -0.25948,0.37709 l -0.10154,0.97546 2.1187,-1.01536 c 0.08198,-0.04441 0.15268,-0.09333 0.2121,-0.14828 0.06092,-0.05495 0.11282,-0.11441 0.1587,-0.17989 0.04437,0.18516 0.11056,0.35225 0.20006,0.49978 0.088,0.14828 0.19405,0.27623 0.31739,0.38462 0.12334,0.10839 0.26249,0.1957 0.41742,0.26268 0.15569,0.06548 0.32266,0.10763 0.50016,0.12645 0.23391,0.02409 0.45127,0.0075 0.65434,-0.04817 0.20307,-0.0572 0.38207,-0.16107 0.54002,-0.31236 0.15644,-0.15204 0.28881,-0.35451 0.39336,-0.60665 0.10454,-0.2529 0.17675,-0.56149 0.2151,-0.92729 l 0.16998,-1.64685 -5.4641,-0.56676 -0.11206,1.08611 z m 2.87157,0.29881 1.7607,0.1829 -0.05791,0.55999 c -0.03535,0.34096 -0.13312,0.58483 -0.29408,0.73536 -0.16095,0.14978 -0.37455,0.21 -0.6408,0.1829 -0.13388,-0.01355 -0.25647,-0.04667 -0.36628,-0.0986 C 95.54542,55.23641 95.45291,55.1649 95.3792,55.07383 95.307,54.98351 95.25284,54.87061 95.21975,54.73889 95.18515,54.60642 95.17838,54.45287 95.19643,54.276 l 0.05716,-0.55096 z"
       id="path7590" />
    <polygon
       points="92.52869,58.59333 97.02783,59.54697 97.25422,58.48194 91.88037,57.34239 91.25912,60.27405 92.13383,60.45996 "
       id="polygon7592" />
    <path
       d="m 90.41224,63.09281 c -0.12636,0.3801 -0.1775,0.74665 -0.15193,1.10116 0.02482,0.35451 0.11583,0.67966 0.27227,0.97848 0.15719,0.29731 0.37606,0.55999 0.65735,0.78654 0.27979,0.22731 0.61147,0.40343 0.99354,0.53139 0.37982,0.1257 0.7491,0.18139 1.10786,0.16709 0.36026,-0.0143 0.69044,-0.09408 0.99429,-0.2386 0.30385,-0.14527 0.57161,-0.35225 0.80401,-0.62096 0.23165,-0.26946 0.4099,-0.59386 0.5355,-0.97321 l 0.63102,-1.90201 -5.21365,-1.7319 -0.63027,1.90201 z m 0.82056,0.27247 0.2858,-0.86482 3.5763,1.18772 -0.2858,0.86482 c -0.07672,0.23032 -0.18652,0.42451 -0.32943,0.57956 -0.1429,0.1558 -0.31363,0.27172 -0.50993,0.34774 -0.19705,0.07527 -0.41592,0.1114 -0.6581,0.10613 -0.24293,-0.0045 -0.50316,-0.05344 -0.77994,-0.14602 -0.28054,-0.09183 -0.51896,-0.21 -0.71827,-0.35075 -0.19856,-0.14226 -0.35425,-0.30182 -0.46631,-0.48021 -0.11206,-0.17839 -0.17825,-0.37257 -0.19931,-0.58332 -0.02031,-0.21 0.0075,-0.43053 0.08499,-0.66085 z"
       id="path7594" />
    <path
       d="m 87.2293,70.46751 2.58877,2.80672 c 0.03385,0.03613 0.0707,0.07527 0.11206,0.11968 0.04212,0.04366 0.08649,0.08731 0.13463,0.13097 -0.06243,-0.01957 -0.12184,-0.03839 -0.179,-0.05419 -0.05791,-0.01656 -0.11131,-0.02935 -0.15945,-0.03914 l -3.7019,-0.91073 -0.4979,0.84977 3.91325,4.18863 0.43096,-0.73461 c 0.04513,-0.07677 0.06318,-0.15505 0.05415,-0.23559 -0.009,-0.08054 -0.0361,-0.14451 -0.08123,-0.19268 l -2.32854,-2.3092 c -0.05866,-0.05946 -0.12259,-0.12193 -0.19254,-0.18817 -0.0707,-0.06548 -0.14666,-0.13172 -0.22714,-0.20172 0.10154,0.03312 0.19931,0.06473 0.29332,0.09258 0.09401,0.02785 0.18276,0.04968 0.2655,0.06699 l 3.22205,0.77902 c 0.07672,0.01581 0.14817,0.009 0.2151,-0.02032 0.06693,-0.02935 0.12485,-0.0858 0.17374,-0.16935 l 0.16095,-0.27473 c 0.04513,-0.07602 0.06243,-0.15355 0.05265,-0.23258 -0.009,-0.07978 -0.03535,-0.14527 -0.07972,-0.1957 L 89.1532,71.30977 c -0.05716,-0.06849 -0.12109,-0.13623 -0.19405,-0.20473 -0.07371,-0.06925 -0.15117,-0.14 -0.2324,-0.21376 0.20834,0.07451 0.39636,0.13398 0.56258,0.17688 l 3.14684,0.90772 c 0.07296,0.01731 0.14365,0.0098 0.21285,-0.02107 0.06995,-0.03161 0.12936,-0.08882 0.17825,-0.17161 l 0.46029,-0.78579 -5.56338,-1.37589 -0.49489,0.846 z"
       id="path7596" />
    <rect
       x="85.335274"
       y="74.775253"
       width="1.0921"
       height="5.4948802"
       transform="rotate(-52.57919,85.881337,77.522701)"
       id="rect7598" />
    <path
       d="m 81.16125,78.87788 c -0.27227,0.29354 -0.47007,0.6059 -0.59567,0.93858 -0.12485,0.33268 -0.17675,0.66762 -0.15794,1.00331 0.01955,0.33645 0.10906,0.66612 0.27001,0.98901 0.16095,0.32289 0.38884,0.62171 0.68367,0.89643 0.29257,0.27322 0.60545,0.47644 0.93864,0.61343 0.33243,0.13623 0.66712,0.20172 1.00332,0.19645 0.33695,-0.0053 0.66637,-0.08204 0.98828,-0.23107 0.32266,-0.14828 0.61974,-0.36881 0.89276,-0.6616 l 1.36358,-1.46696 -4.0223,-3.7438 -1.36433,1.46621 z m 3.39203,3.15822 c -0.16471,0.17763 -0.34522,0.30784 -0.54002,0.38988 -0.19555,0.08279 -0.39787,0.11666 -0.60771,0.10462 -0.21059,-0.0128 -0.42494,-0.07301 -0.64306,-0.17763 -0.21887,-0.10613 -0.43547,-0.25741 -0.64907,-0.45763 -0.21586,-0.20096 -0.38508,-0.40644 -0.50692,-0.61794 -0.12184,-0.2115 -0.1963,-0.42225 -0.22488,-0.62999 -0.02783,-0.21 -0.0068,-0.41397 0.06167,-0.61343 0.06844,-0.19946 0.18577,-0.38913 0.35124,-0.56601 l 0.61974,-0.66687 2.75875,2.56812 -0.61974,0.66687 z"
       id="path7600" />
    <polygon
       points="79.03878,87.1731 79.59836,87.83319 82.15329,85.66399 78.5988,81.47235 76.04387,83.64155 76.59968,84.3039 78.32578,82.83845 79.28397,83.96896 77.94296,85.10701 78.48147,85.74076 79.82174,84.60272 80.76112,85.7114 "
       id="polygon7602" />
    <path
       d="m 71.48606,86.72149 0.79574,3.73552 c 0.0098,0.04817 0.02256,0.10086 0.0361,0.15957 0.01279,0.05871 0.02933,0.11968 0.04814,0.18215 -0.04287,-0.04892 -0.08499,-0.09484 -0.12636,-0.13924 -0.04061,-0.0429 -0.08048,-0.08129 -0.11733,-0.11365 l -2.71814,-2.67425 -0.86192,0.47644 1.2282,5.60064 0.74685,-0.41247 c 0.07672,-0.0429 0.13237,-0.10011 0.16546,-0.17387 0.03309,-0.07451 0.04287,-0.14301 0.02933,-0.20849 l -0.82507,-3.17478 c -0.01955,-0.08129 -0.04287,-0.16709 -0.0707,-0.25967 -0.02708,-0.09183 -0.05716,-0.18817 -0.09101,-0.28978 0.06919,0.08129 0.13764,0.15806 0.20457,0.22957 0.06619,0.0715 0.13162,0.13699 0.19405,0.19344 l 2.37367,2.31522 c 0.05791,0.05344 0.12259,0.0843 0.1948,0.09258 0.07371,0.009 0.15193,-0.0098 0.23616,-0.05645 l 0.27903,-0.15355 c 0.07672,-0.0429 0.13162,-0.10086 0.16321,-0.17387 0.03309,-0.07301 0.04362,-0.14301 0.03234,-0.20849 L 72.71124,88.4278 c -0.01354,-0.08731 -0.03385,-0.17914 -0.06243,-0.27473 -0.02783,-0.09709 -0.05866,-0.19795 -0.09025,-0.30257 0.1414,0.17086 0.27227,0.31688 0.39411,0.43956 l 2.2428,2.38748 c 0.05415,0.05193 0.11883,0.08204 0.19405,0.09107 0.07521,0.0083 0.15644,-0.01054 0.23992,-0.0572 l 0.79724,-0.44031 -4.08172,-4.02379 -0.85891,0.47418 z"
       id="path7604" />
    <polygon
       points="64.83136,94.83682 65.13522,95.64669 68.27078,94.46424 66.33409,89.31972 63.19852,90.50217 63.49937,91.3128 65.61657,90.51497 66.13854,91.90139 64.49442,92.52159 64.78699,93.29986 66.43261,92.67965 66.94405,94.03898 "
       id="polygon7606" />
    <path
       d="m 60.17202,91.34516 c -0.3016,0.07753 -0.56032,0.18591 -0.77317,0.3244 -0.2136,0.13924 -0.38207,0.29956 -0.50542,0.48021 -0.12259,0.18139 -0.20081,0.37784 -0.23391,0.59235 -0.0346,0.21376 -0.02181,0.43429 0.0361,0.66085 0.15794,0.61794 0.60244,0.92203 1.33124,0.91149 -0.1429,0.09634 -0.26098,0.20021 -0.35425,0.31161 -0.09251,0.10989 -0.1617,0.2243 -0.20909,0.34096 -0.04663,0.11817 -0.07296,0.2386 -0.07897,0.36204 -0.0045,0.12419 0.009,0.24688 0.03986,0.37032 0.05566,0.21677 0.1414,0.40419 0.25722,0.56074 0.11507,0.15656 0.2655,0.27698 0.45052,0.36053 0.18502,0.08355 0.40765,0.12795 0.66788,0.13247 0.26023,0.0045 0.56108,-0.03763 0.90329,-0.12494 l 1.80733,-0.46365 -1.36283,-5.32516 -1.9758,0.5058 z m -0.1083,2.28888 c -0.08424,-0.04366 -0.15193,-0.10613 -0.20608,-0.18666 -0.05265,-0.08054 -0.09326,-0.17537 -0.12184,-0.28451 -0.02632,-0.10236 -0.03836,-0.20397 -0.03535,-0.30559 0.003,-0.10236 0.02708,-0.1972 0.07371,-0.28602 0.04738,-0.08882 0.12184,-0.16935 0.22263,-0.2401 0.10078,-0.0715 0.23616,-0.12946 0.40388,-0.17236 l 0.90178,-0.23182 0.38358,1.49631 -0.89727,0.23032 c -0.16095,0.04064 -0.30085,0.05871 -0.42043,0.05419 -0.11883,-0.0053 -0.22037,-0.03011 -0.30461,-0.07376 z m 1.43277,2.18351 c -0.29934,0.07677 -0.53325,0.07753 -0.70022,0.0023 -0.16697,-0.07527 -0.28656,-0.24913 -0.35575,-0.5216 -0.06769,-0.26268 -0.03535,-0.47042 0.09627,-0.62547 0.13087,-0.1543 0.34447,-0.27021 0.64155,-0.34623 l 0.6927,-0.17763 0.37831,1.47599 -0.75287,0.19268 z"
       id="path7608" />
    <path
       d="m 55.26298,93.96522 c -0.13989,-0.33268 -0.32416,-0.61493 -0.55205,-0.84676 -0.22864,-0.23107 -0.49639,-0.40419 -0.80476,-0.51784 -0.30837,-0.11441 -0.64832,-0.15656 -1.01911,-0.1257 -0.4099,0.03462 -0.75738,0.13699 -1.04318,0.30784 -0.2858,0.1701 -0.51745,0.40343 -0.69194,0.69773 l 0.47233,0.42978 c 0.04437,0.04064 0.09552,0.05796 0.15343,0.05344 0.03084,-0.0023 0.05942,-0.01204 0.08725,-0.03011 0.02708,-0.01731 0.05415,-0.03763 0.07972,-0.06247 0.06243,-0.07978 0.12636,-0.14752 0.19104,-0.20247 0.06468,-0.0557 0.13388,-0.10236 0.21059,-0.14075 0.07521,-0.03763 0.15794,-0.06699 0.24745,-0.08731 0.0895,-0.01957 0.19028,-0.03462 0.3031,-0.04366 0.18953,-0.01656 0.37004,0.01129 0.54227,0.08129 0.17223,0.07 0.32642,0.18064 0.46105,0.33118 0.13613,0.15053 0.24895,0.33946 0.34071,0.56752 0.09101,0.22731 0.14892,0.49225 0.17374,0.79181 0.02482,0.29655 0.01504,0.56451 -0.03084,0.80235 -0.04437,0.23784 -0.11959,0.44182 -0.22488,0.61268 -0.10529,0.17086 -0.23616,0.30483 -0.39411,0.40268 -0.15719,0.09709 -0.33695,0.1543 -0.53701,0.17161 -0.18502,0.01505 -0.33695,0.006 -0.45954,-0.0286 -0.12184,-0.03387 -0.22338,-0.07376 -0.30686,-0.11968 -0.08198,-0.04516 -0.15268,-0.08806 -0.20984,-0.12795 -0.05716,-0.03914 -0.11432,-0.0572 -0.17223,-0.05193 -0.05791,0.0045 -0.10154,0.02107 -0.13162,0.04817 -0.02858,0.02785 -0.0549,0.0572 -0.07672,0.08957 l -0.3204,0.53816 c 0.20683,0.19871 0.45804,0.3515 0.75211,0.45838 0.29407,0.10688 0.62425,0.14527 0.99279,0.11441 0.36252,-0.03086 0.68969,-0.1272 0.98076,-0.28978 0.29032,-0.16258 0.534,-0.37709 0.73105,-0.64278 0.1963,-0.26494 0.33996,-0.57429 0.43096,-0.92729 0.09101,-0.35225 0.11959,-0.7331 0.08499,-1.14256 -0.03309,-0.4072 -0.12034,-0.77676 -0.26023,-1.11095 z"
       id="path7610" />
    <path
       d="m 49.80639,93.43609 c -0.22338,-0.26118 -0.49639,-0.46816 -0.8183,-0.62246 -0.32115,-0.15505 -0.68217,-0.24086 -1.08154,-0.25741 -0.40012,-0.01731 -0.7664,0.03763 -1.10034,0.16484 -0.33319,0.12645 -0.62275,0.31085 -0.86643,0.55096 -0.24293,0.24161 -0.43547,0.53139 -0.57687,0.86934 -0.14065,0.3372 -0.21962,0.70827 -0.23692,1.11019 -0.01655,0.39967 0.03084,0.77375 0.14365,1.12073 0.11206,0.34698 0.27979,0.65106 0.50166,0.91149 0.22263,0.26118 0.49414,0.46967 0.81604,0.62622 0.3219,0.15505 0.68217,0.24161 1.08229,0.25892 0.39937,0.01656 0.76565,-0.03914 1.09959,-0.16709 0.33394,-0.12871 0.6235,-0.31236 0.86869,-0.55171 0.24444,-0.2401 0.43773,-0.52838 0.58063,-0.86633 0.1429,-0.3387 0.22263,-0.70751 0.23917,-1.10643 0.01655,-0.40268 -0.03159,-0.77826 -0.14516,-1.1275 -0.11357,-0.34849 -0.28204,-0.65257 -0.50617,-0.91375 z m -0.60094,2.77511 c -0.08123,0.22881 -0.19254,0.4215 -0.33243,0.57805 -0.14065,0.15731 -0.30987,0.27548 -0.50617,0.35376 -0.1963,0.07903 -0.41592,0.11365 -0.6581,0.10312 -0.24293,-0.01054 -0.45804,-0.06322 -0.64531,-0.15731 -0.18878,-0.09484 -0.34597,-0.22655 -0.47233,-0.39515 -0.12711,-0.1686 -0.22112,-0.37032 -0.28355,-0.60515 -0.06167,-0.23408 -0.08649,-0.49752 -0.07446,-0.78955 0.01279,-0.2958 0.06017,-0.55848 0.1414,-0.78805 0.08123,-0.23032 0.19254,-0.42225 0.33319,-0.57805 0.14065,-0.1558 0.30761,-0.27247 0.50316,-0.34999 0.19555,-0.07677 0.41366,-0.11064 0.65584,-0.10086 0.24293,0.01054 0.45879,0.06247 0.64757,0.15656 0.18953,0.09258 0.34823,0.22354 0.47458,0.39064 0.12711,0.16709 0.22112,0.36806 0.28279,0.60364 0.06167,0.23634 0.08649,0.50203 0.07446,0.79708 -0.01279,0.29279 -0.05942,0.55322 -0.14065,0.78128 z"
       id="path7612" />
    <path
       d="m 42.74781,95.39756 c -0.02708,0.14376 -0.04738,0.30182 -0.06167,0.47343 L 40.67198,91.89386 C 40.62986,91.81859 40.58398,91.76214 40.53434,91.723 40.4832,91.68461 40.41626,91.65752 40.33202,91.64246 l -0.54904,-0.10161 -0.99204,5.40796 0.94089,0.17236 0.58063,-3.168 c 0.02858,-0.16032 0.0519,-0.33118 0.06844,-0.51332 l 2.01717,3.9982 c 0.02407,0.04064 0.04513,0.07451 0.06393,0.10011 0.0188,0.02634 0.04061,0.04742 0.06393,0.06398 0.02332,0.01731 0.0519,0.03086 0.08348,0.04064 0.03158,0.0098 0.06995,0.01957 0.11583,0.02785 l 0.56183,0.10312 0.99129,-5.40796 -0.94315,-0.17311 z"
       id="path7614" />
    <path
       d="M 38.06139,91.1871 C 37.93579,91.08022 37.7989,90.98764 37.65224,90.9056 37.50633,90.82431 37.35365,90.75883 37.19571,90.71066 36.91592,90.6241 36.65419,90.59174 36.409,90.61357 c -0.24519,0.02183 -0.46631,0.08656 -0.66487,0.19419 -0.19705,0.10763 -0.36703,0.2544 -0.50993,0.43806 -0.1414,0.18441 -0.2497,0.39515 -0.32341,0.63225 -0.06769,0.21903 -0.09326,0.41397 -0.07596,0.58784 0.0173,0.17311 0.06318,0.32892 0.13688,0.46666 0.07446,0.13849 0.16847,0.26419 0.28204,0.37558 0.11432,0.11215 0.23466,0.21602 0.36101,0.31161 0.1256,0.09559 0.2497,0.18666 0.37154,0.27397 0.12184,0.08656 0.22789,0.17462 0.31664,0.26419 0.0895,0.08957 0.15418,0.18365 0.1948,0.2815 0.03986,0.0986 0.04212,0.20623 0.0053,0.3244 -0.05791,0.18742 -0.16471,0.32064 -0.32115,0.39967 -0.15569,0.07903 -0.35199,0.08129 -0.5889,0.0075 -0.13463,-0.0414 -0.24745,-0.09709 -0.33845,-0.16559 -0.091,-0.0685 -0.16923,-0.13699 -0.23391,-0.20473 -0.06393,-0.06699 -0.11883,-0.12871 -0.16546,-0.1829 -0.04588,-0.0557 -0.09477,-0.09107 -0.14441,-0.10613 -0.0534,-0.01656 -0.10078,-0.01957 -0.1429,-0.0075 -0.04287,0.01129 -0.08499,0.03914 -0.12786,0.08355 l -0.41667,0.40795 c 0.12711,0.23333 0.30385,0.43881 0.53024,0.61644 0.22639,0.17688 0.48963,0.31161 0.79047,0.40494 0.26625,0.08279 0.51595,0.1129 0.7491,0.09107 0.23316,-0.02107 0.44299,-0.08129 0.62952,-0.17914 0.18577,-0.0986 0.34522,-0.22731 0.47458,-0.38838 0.13087,-0.16032 0.22563,-0.33645 0.2858,-0.52913 0.07521,-0.24236 0.1053,-0.45537 0.09176,-0.63827 -0.01354,-0.18365 -0.05641,-0.34698 -0.12786,-0.48999 -0.0707,-0.14376 -0.16396,-0.27021 -0.27828,-0.37935 -0.11507,-0.10914 -0.23541,-0.21 -0.36177,-0.30107 -0.1256,-0.09107 -0.25121,-0.17763 -0.3738,-0.26118 -0.12335,-0.08279 -0.22864,-0.16935 -0.31664,-0.25817 -0.08725,-0.08882 -0.15042,-0.18666 -0.18878,-0.29053 -0.03911,-0.10462 -0.03685,-0.2243 0.0045,-0.35827 0.07296,-0.23709 0.1948,-0.39666 0.36402,-0.47644 0.16998,-0.08054 0.3723,-0.0843 0.60921,-0.01129 0.16396,0.05193 0.29784,0.11968 0.40088,0.20473 0.10304,0.08656 0.19028,0.17161 0.26098,0.25892 0.07145,0.08731 0.13388,0.16634 0.18577,0.23483 0.0519,0.07 0.10906,0.11516 0.17223,0.13473 0.04814,0.0143 0.09552,0.01656 0.14441,0.0053 0.04738,-0.01129 0.0895,-0.03312 0.1256,-0.06548 l 0.46105,-0.39816 c -0.06468,-0.13548 -0.14817,-0.26569 -0.25121,-0.39064 -0.10304,-0.12344 -0.21736,-0.2386 -0.34372,-0.34397 z"
       id="path7616" />
    <path
       d="m 33.19296,89.50036 c -0.24068,-0.26268 -0.54528,-0.47644 -0.91006,-0.63902 -0.36478,-0.16408 -0.72579,-0.24838 -1.08304,-0.25365 -0.3565,-0.0068 -0.69345,0.05796 -1.00783,0.19193 -0.31589,0.13473 -0.60094,0.33193 -0.85741,0.59386 -0.25572,0.26193 -0.46631,0.5758 -0.63102,0.94461 -0.16321,0.36505 -0.25647,0.72934 -0.28054,1.09363 -0.02332,0.36505 0.01955,0.70902 0.13012,1.03342 0.10981,0.3244 0.28505,0.6187 0.52723,0.88289 0.24143,0.26344 0.54453,0.47719 0.90931,0.64128 0.36553,0.16333 0.72729,0.24688 1.08455,0.25139 0.35725,0.0038 0.6942,-0.06021 1.01009,-0.19268 0.31589,-0.13097 0.60244,-0.32741 0.85967,-0.58934 0.25722,-0.26118 0.46781,-0.57429 0.63102,-0.94009 0.16396,-0.3673 0.25797,-0.73386 0.28129,-1.10041 0.02332,-0.3658 -0.02106,-0.71128 -0.13237,-1.03718 -0.11131,-0.3244 -0.28881,-0.61794 -0.53099,-0.88063 z m -0.40915,1.79663 c -0.02858,0.24161 -0.10379,0.49752 -0.22488,0.76697 -0.11959,0.2672 -0.25948,0.49225 -0.41893,0.6744 -0.1602,0.18139 -0.33469,0.32064 -0.52272,0.41397 -0.18878,0.09408 -0.38884,0.1415 -0.60094,0.1415 C 30.805,93.29458 30.58839,93.24491 30.36727,93.14631 30.1454,93.04696 29.96489,92.919 29.825,92.76094 29.68586,92.60288 29.58884,92.42224 29.53318,92.21902 29.47752,92.0158 29.46399,91.79376 29.49257,91.5529 c 0.03008,-0.24086 0.10379,-0.49526 0.22338,-0.76171 0.12034,-0.26946 0.26098,-0.49676 0.42194,-0.67966 0.1602,-0.18365 0.33469,-0.32139 0.52272,-0.41472 0.18803,-0.09258 0.38734,-0.13924 0.59718,-0.13849 0.20909,0 0.4257,0.04968 0.64682,0.14903 0.22187,0.09935 0.40238,0.22731 0.54378,0.38462 0.14215,0.15656 0.24068,0.33645 0.29633,0.53816 0.05641,0.20247 0.06919,0.42451 0.03911,0.66687 z"
       id="path7618" />
    <path
       d="m 28.07182,86.76289 -1.10335,1.80491 -0.31363,-0.19193 c -0.08048,-0.04892 -0.13463,-0.0986 -0.16471,-0.14903 -0.02858,-0.05043 -0.04362,-0.11441 -0.04437,-0.19193 l 0.03986,-1.9848 C 26.48186,85.87624 26.4059,85.74377 26.25773,85.6527 l -0.83635,-0.51107 0.0038,2.3506 c 0.0038,0.09258 0.01805,0.17838 0.04212,0.25666 0.02332,0.07677 0.05415,0.14978 0.09326,0.21903 -0.18652,-0.03989 -0.36478,-0.05118 -0.53626,-0.03462 -0.17223,0.01656 -0.33319,0.05645 -0.48436,0.12043 -0.15042,0.06548 -0.28956,0.15355 -0.41592,0.26494 -0.12636,0.11215 -0.23616,0.24462 -0.33018,0.39741 -0.12259,0.19946 -0.20081,0.40419 -0.23767,0.61117 -0.03685,0.20774 -0.02031,0.41472 0.04889,0.62246 0.06919,0.20623 0.19405,0.41171 0.37756,0.61644 0.18201,0.20397 0.43021,0.40193 0.74309,0.59311 l 1.41021,0.86407 2.86706,-4.68916 z m -2.43083,3.97637 -0.47985,-0.29279 c -0.29107,-0.17914 -0.47007,-0.37333 -0.53626,-0.58332 -0.06543,-0.21 -0.02858,-0.42978 0.11056,-0.65784 0.07145,-0.11516 0.15343,-0.2115 0.24669,-0.28752 0.09401,-0.07753 0.19781,-0.12871 0.31213,-0.15731 0.11282,-0.0271 0.23767,-0.0271 0.37154,-7.5e-4 0.13312,0.02785 0.27527,0.08656 0.42645,0.17914 l 0.47308,0.28903 -0.92435,1.51137 z"
       id="path7620" />
    <polygon
       points="18.55232,86.78246 21.75256,89.25951 22.29484,88.55801 21.12304,87.65104 23.94272,84.00434 23.08456,83.34048 20.26563,86.98794 19.09384,86.08172 "
       id="polygon7622" />
    <rect
       x="16.190189"
       y="82.860672"
       width="5.4951801"
       height="1.09247"
       transform="rotate(-47.54068,18.937773,83.406895)"
       id="rect7624" />
    <path
       d="m 18.27404,80.83483 c 0.13613,-0.26569 0.21435,-0.53967 0.2324,-0.82342 0.0188,-0.28301 -0.02482,-0.56827 -0.13087,-0.8573 -0.1068,-0.28827 -0.27828,-0.56451 -0.51595,-0.8302 -0.23692,-0.26419 -0.49263,-0.4659 -0.7664,-0.60139 -0.27302,-0.13623 -0.55205,-0.2115 -0.8356,-0.22354 -0.28355,-0.0128 -0.56409,0.03387 -0.84312,0.14075 -0.27828,0.10688 -0.54002,0.27096 -0.78671,0.4915 l -2.44061,2.18727 0.72278,0.80762 2.44061,-2.18652 c 0.15268,-0.13623 0.30761,-0.23935 0.46857,-0.3086 0.15945,-0.06925 0.31739,-0.10387 0.47308,-0.10462 0.15494,0 0.30611,0.03462 0.45352,0.10462 0.14741,0.06925 0.2858,0.17613 0.41517,0.32064 0.12786,0.14376 0.21887,0.29279 0.27227,0.44709 0.0534,0.1543 0.0707,0.3086 0.05415,0.46365 -0.01805,0.15355 -0.06995,0.30709 -0.15644,0.45838 -0.08649,0.15129 -0.20533,0.29505 -0.35801,0.43203 l -2.43986,2.18727 0.72504,0.81063 2.44136,-2.18727 c 0.24669,-0.22053 0.43773,-0.46289 0.57461,-0.72859 z"
       id="path7626" />
    <path
       d="m 14.93616,74.8714 -2.88887,1.86362 c -0.06468,0.0429 -0.13312,0.09032 -0.20608,0.14301 -0.07296,0.05344 -0.14441,0.10989 -0.21736,0.17086 l 1.64262,-3.14994 c 0.08725,-0.15806 0.08574,-0.3086 -0.0053,-0.44935 L 13.17848,73.32014 C 13.08898,73.1809 12.9536,73.11918 12.77234,73.13423 L 9.2532,73.34197 c 0.08123,-0.04215 0.15945,-0.0858 0.23541,-0.12871 0.07446,-0.04441 0.14365,-0.0858 0.20683,-0.12645 l 2.88812,-1.86512 -0.51896,-0.80386 -4.61497,2.98059 0.44299,0.6887 c 0.02632,0.03989 0.04964,0.07376 0.07145,0.10236 0.02181,0.0286 0.04362,0.05193 0.06769,0.07 0.02256,0.01806 0.05039,0.03011 0.08273,0.03688 0.03309,0.0075 0.0722,0.009 0.11883,0.0053 l 3.41234,-0.18892 c 0.09777,-0.0068 0.19555,-0.01882 0.29408,-0.03688 0.09853,-0.01731 0.19856,-0.03688 0.30085,-0.0557 -0.12034,0.15881 -0.22789,0.32515 -0.32266,0.49902 l -1.57869,3.04908 c -0.02332,0.04064 -0.03761,0.07677 -0.04362,0.10838 -0.006,0.03161 -0.0053,0.06322 0.0015,0.09333 0.006,0.03011 0.0173,0.06021 0.03385,0.09107 0.01579,0.03086 0.03685,0.06548 0.06243,0.10462 l 0.446,0.69246 4.61647,-2.97983 -0.51971,-0.80687 z"
       id="path7628" />
    <path
       d="M 7.64743,57.72625 3.86505,57.21067 3.70259,57.19035 C 3.64242,57.18282 3.58075,57.17755 3.51607,57.17379 3.57624,57.15046 3.6334,57.12712 3.6883,57.10229 3.7432,57.0782 3.79209,57.05412 3.83647,57.03003 L 7.27062,55.37641 7.11418,54.4032 1.43196,53.66407 1.56659,54.50631 c 0.01504,0.08731 0.05039,0.15881 0.1083,0.21526 0.05791,0.0572 0.12034,0.08957 0.18502,0.0986 l 3.26568,0.29655 c 0.08273,0.0098 0.17223,0.01656 0.267,0.02183 0.09627,0.006 0.19705,0.0098 0.30461,0.0128 -0.10078,0.03839 -0.19555,0.07677 -0.2858,0.11441 -0.09025,0.03839 -0.17299,0.07828 -0.24669,0.11742 L 2.18333,56.83509 C 2.11414,56.87122 2.06299,56.9224 2.0299,56.98713 1.99681,57.05261 1.98778,57.13315 2.00282,57.22874 l 0.05114,0.31462 c 0.01429,0.08731 0.04964,0.15806 0.10755,0.21301 0.05791,0.05495 0.11959,0.08882 0.18577,0.10086 L 5.628,58.30281 c 0.08649,0.01656 0.17976,0.0286 0.27979,0.03462 0.10003,0.006 0.20608,0.01129 0.31438,0.01656 -0.20834,0.07527 -0.3911,0.14978 -0.54603,0.22204 L 2.67145,59.88041 C 2.60451,59.91353 2.55412,59.96396 2.52028,60.0317 2.48643,60.10019 2.47741,60.18223 2.49245,60.27707 l 0.14441,0.89944 5.16627,-2.48156 -0.15569,-0.96869 z"
       id="path7630" />
    <path
       d="m 2.16227,51.67476 c 0.24895,0.23483 0.54528,0.41623 0.889,0.54494 0.34296,0.12946 0.71451,0.19344 1.11388,0.19344 0.40313,7.5e-4 0.77543,-0.06322 1.1199,-0.19043 C 5.62801,52.094 5.9251,51.91336 6.17706,51.67853 6.42751,51.44445 6.62382,51.1637 6.76521,50.83478 6.90586,50.50661 6.97655,50.14232 6.97731,49.7419 6.97731,49.34148 6.90736,48.97794 6.76672,48.64902 6.62683,48.32085 6.43128,48.03935 6.18082,47.80603 5.92961,47.5727 5.63328,47.39281 5.28957,47.26486 4.94661,47.13766 4.57431,47.07368 4.17118,47.07368 3.77106,47.07293 3.40026,47.13615 3.0573,47.2626 c -0.34146,0.12645 -0.63779,0.30634 -0.889,0.53891 -0.25121,0.23333 -0.44826,0.51408 -0.59116,0.84299 -0.1414,0.32741 -0.21285,0.69171 -0.2136,1.09213 0,0.40042 0.06995,0.76396 0.2121,1.09288 0.1414,0.32817 0.33695,0.61042 0.58665,0.84525 z m 0.25496,-2.5892 c 0.08649,-0.19193 0.21134,-0.35451 0.3753,-0.48849 0.16246,-0.13322 0.35951,-0.23634 0.59191,-0.30784 0.2309,-0.0715 0.49263,-0.10688 0.78521,-0.10613 0.29483,0 0.55882,0.03613 0.79273,0.10838 0.2324,0.0715 0.42946,0.17537 0.59041,0.3086 0.16095,0.13398 0.28505,0.29731 0.37004,0.48924 0.08574,0.19193 0.12786,0.4087 0.12786,0.65182 0,0.24312 -0.04287,0.46139 -0.12936,0.65407 -0.08574,0.19344 -0.20909,0.35601 -0.37079,0.49074 -0.16095,0.13322 -0.35876,0.23559 -0.59191,0.30709 -0.23315,0.0715 -0.4979,0.10763 -0.79198,0.10688 -0.29182,0 -0.55431,-0.03613 -0.78596,-0.10838 C 3.14904,51.11929 2.95199,51.01692 2.78953,50.88219 2.62707,50.74821 2.50222,50.58413 2.41498,50.39145 2.32849,50.19877 2.28562,49.97974 2.28637,49.73738 c 0,-0.24311 0.04437,-0.45988 0.13087,-0.65182 z"
       id="path7632" />
    <path
       d="M 7.17811,45.03693 5.08272,44.75995 5.13086,44.3949 c 0.01203,-0.09258 0.03535,-0.16333 0.06919,-0.21 0.03384,-0.04667 0.08649,-0.08656 0.15719,-0.11892 l 1.82914,-0.76923 c 0.15644,-0.07451 0.24669,-0.1972 0.26926,-0.36956 L 7.5835,41.95474 5.43847,42.91139 C 5.35499,42.95354 5.28278,43.00096 5.22186,43.0544 5.16019,43.10709 5.10603,43.1658 5.0594,43.22902 5.01879,43.04236 4.95786,42.87526 4.87288,42.72398 4.78864,42.5742 4.68636,42.44323 4.56602,42.33108 4.44568,42.21968 4.3088,42.12786 4.15537,42.05711 4.00194,41.98711 3.83647,41.94045 3.65898,41.91711 3.42582,41.887 3.20771,41.89679 3.00314,41.94722 2.80007,41.99915 2.61655,42.09775 2.4556,42.24453 2.29465,42.39205 2.15776,42.59076 2.0457,42.83989 1.93364,43.08978 1.85316,43.39612 1.80578,43.75966 l -0.21661,1.64233 5.44605,0.71805 0.1429,-1.0831 z M 4.31557,44.65909 2.56014,44.42802 2.63385,43.86954 c 0.04437,-0.33946 0.14967,-0.58106 0.31514,-0.72708 0.16471,-0.14527 0.37982,-0.20021 0.64531,-0.16484 0.13388,0.01731 0.25497,0.05344 0.36327,0.10838 0.10755,0.05419 0.19781,0.12871 0.26926,0.22129 0.0707,0.09258 0.12184,0.20623 0.15117,0.33946 0.03008,0.13322 0.03309,0.28752 0.01053,0.46214 z"
       id="path7634" />
    <polygon
       points="7.17886,39.84499 2.7068,38.76565 2.45183,39.82391 7.79183,41.11399 8.49506,38.19964 7.62562,37.9904 "
       id="polygon7636" />
    <path
       d="M 9.41264,35.42905 C 9.54877,35.05196 9.60894,34.68691 9.59465,34.3324 9.57961,33.97714 9.49688,33.64897 9.34796,33.3464 9.19979,33.04458 8.9877,32.77587 8.71393,32.54179 8.44016,32.30771 8.11299,32.12105 7.73468,31.98331 7.35862,31.84708 6.99084,31.78159 6.63133,31.78611 c -0.35951,0.0053 -0.69345,0.07451 -1.00031,0.2115 -0.30837,0.13623 -0.58138,0.33569 -0.82056,0.59838 -0.23842,0.26268 -0.4257,0.58257 -0.56258,0.95815 l -0.68217,1.88394 5.16401,1.87416 z M 8.5996,35.13325 8.28898,35.98904 4.74653,34.70423 5.05715,33.84844 c 0.08273,-0.22881 0.19781,-0.41924 0.34447,-0.57128 0.14741,-0.15129 0.32115,-0.26268 0.51971,-0.33268 0.19856,-0.07075 0.41893,-0.09935 0.66036,-0.08882 0.24293,0.01204 0.50091,0.06774 0.77618,0.16709 0.27753,0.10086 0.51369,0.2243 0.70849,0.37182 0.19405,0.14602 0.34522,0.31085 0.45277,0.49225 0.1068,0.18139 0.16847,0.37709 0.18201,0.58784 0.01504,0.21075 -0.0188,0.43128 -0.10154,0.65859 z"
       id="path7638" />
    <path
       d="m 12.79489,28.14468 -2.51206,-2.87672 c -0.03309,-0.03613 -0.06919,-0.07677 -0.10981,-0.12193 -0.03986,-0.04516 -0.08348,-0.08957 -0.13012,-0.13473 0.06167,0.02183 0.12034,0.0414 0.1775,0.05871 0.05791,0.01882 0.10981,0.03312 0.15794,0.04366 l 3.67558,1.01159 0.52121,-0.83547 -3.79817,-4.294 -0.45052,0.72332 c -0.04738,0.07451 -0.06694,0.15204 -0.06017,0.23258 0.0068,0.08054 0.03234,0.14677 0.07596,0.1957 l 2.26461,2.37167 c 0.05641,0.06172 0.11883,0.1257 0.18728,0.19268 0.06919,0.06699 0.1429,0.13699 0.22112,0.20849 -0.10003,-0.03688 -0.19705,-0.07075 -0.29032,-0.10011 -0.09326,-0.03161 -0.18126,-0.0557 -0.26324,-0.07527 L 9.26144,23.87928 C 9.18548,23.86046 9.11327,23.86573 9.04634,23.89283 8.9779,23.92068 8.91848,23.97638 8.86809,24.05691 l -0.16847,0.27096 c -0.04738,0.07527 -0.06694,0.15204 -0.06017,0.23182 0.00752,0.07903 0.03234,0.14527 0.07521,0.1972 l 2.17962,2.49361 c 0.05415,0.06925 0.11658,0.14075 0.18878,0.21075 0.07145,0.07 0.14591,0.14301 0.22639,0.21903 -0.20758,-0.07978 -0.3926,-0.14451 -0.55807,-0.19193 L 7.63011,26.49557 c -0.0722,-0.01957 -0.14365,-0.0143 -0.21435,0.0143 -0.06995,0.03011 -0.13087,0.0858 -0.18201,0.16785 l -0.48135,0.773 5.52352,1.52642 0.51896,-0.83246 z"
       id="path7640" />
    <polygon
       points="16.82321,22.41683 12.55346,18.95905 11.86678,19.80882 16.13653,23.26735 "
       id="polygon7642" />
    <path
       d="m 19.09459,19.89839 c 0.27979,-0.28602 0.48737,-0.59235 0.62049,-0.92203 0.13388,-0.32892 0.1963,-0.6616 0.18652,-0.99805 -0.0098,-0.33645 -0.09101,-0.66837 -0.24293,-0.99654 -0.15193,-0.32666 -0.3723,-0.63149 -0.65885,-0.9145 -0.28505,-0.27999 -0.59267,-0.493 -0.92134,-0.63902 -0.32867,-0.14527 -0.66186,-0.21978 -0.9973,-0.22354 -0.33619,-0.0045 -0.66788,0.06322 -0.99429,0.20247 -0.32717,0.14 -0.63027,0.35225 -0.91006,0.63827 l -1.40344,1.42857 3.91701,3.85294 1.4042,-1.42857 z m -3.30403,-3.25005 c 0.16998,-0.17311 0.35349,-0.29806 0.55055,-0.37558 0.19705,-0.07602 0.40088,-0.10462 0.61072,-0.08656 0.20984,0.01882 0.42194,0.08355 0.63779,0.19494 0.21585,0.11139 0.42795,0.26946 0.63554,0.47494 0.21134,0.20623 0.3738,0.41698 0.49038,0.63149 0.11507,0.21526 0.18502,0.42752 0.20683,0.63676 0.02256,0.20924 -0.0038,0.41322 -0.07822,0.61192 -0.07446,0.1972 -0.19705,0.38236 -0.36628,0.55547 l -0.63779,0.65031 -2.68805,-2.64414 0.63854,-0.64956 z"
       id="path7644" />
    <polygon
       points="21.43743,11.66866 20.89666,10.99426 18.28306,13.09271 21.72022,17.3807 24.33457,15.28224 23.79681,14.60484 22.03085,16.02212 21.10499,14.86601 22.47534,13.76485 21.95563,13.11605 20.58453,14.21646 19.67598,13.08368 "
       id="polygon7646" />
    <path
       d="M 28.96909,12.33327 28.27639,8.57743 C 28.26812,8.52926 28.25684,8.47657 28.2448,8.41711 28.23276,8.35765 28.21848,8.29668 28.20193,8.23346 c 0.04061,0.05043 0.08123,0.09785 0.12184,0.14226 0.04061,0.04441 0.07822,0.08355 0.11432,0.11742 l 2.64443,2.74801 0.87396,-0.45311 -1.07477,-5.63301 -0.75663,0.39139 c -0.07822,0.0414 -0.13613,0.09785 -0.17148,0.1701 -0.03535,0.07376 -0.04663,0.14226 -0.0346,0.20774 l 0.73858,3.1966 c 0.0173,0.08204 0.03836,0.16785 0.06318,0.26118 0.02407,0.09333 0.0519,0.18967 0.08348,0.29279 C 30.73655,9.59128 30.67036,9.51225 30.60568,9.43924 30.541,9.36548 30.47782,9.29924 30.41765,9.24129 L 28.10791,6.86134 C 28.0515,6.80639 27.98682,6.77328 27.91462,6.76349 27.84166,6.7522 27.76269,6.76876 27.6777,6.81317 l -0.28355,0.14677 c -0.07822,0.04064 -0.13388,0.09709 -0.16847,0.16935 -0.03385,0.0715 -0.04663,0.14075 -0.03685,0.20699 l 0.60244,3.25832 c 0.01128,0.08806 0.02933,0.17914 0.0549,0.27774 0.02557,0.09634 0.0534,0.19795 0.08273,0.30408 -0.13688,-0.17537 -0.26399,-0.32515 -0.38132,-0.45085 L 25.37021,8.27788 C 25.31681,8.22369 25.25288,8.19208 25.17767,8.18079 25.10246,8.17101 25.02198,8.18681 24.93624,8.23122 l -0.80852,0.41924 3.97041,4.13368 0.87095,-0.45085 z"
       id="path7648" />
    <polygon
       points="35.85469,4.40009 35.57189,3.58193 32.4055,4.67858 34.20154,9.87353 37.36869,8.77688 37.08891,7.95798 34.95065,8.69861 34.46704,7.29863 36.12846,6.72284 35.85619,5.93629 34.19478,6.51209 33.72019,5.13846 "
       id="polygon7650" />
    <path
       d="M 40.40949,8.01593 C 40.7141,7.94744 40.97433,7.84583 41.19094,7.7126 41.4083,7.58013 41.58129,7.42433 41.70915,7.24745 41.83626,7.06907 41.92049,6.87412 41.9596,6.66112 41.99871,6.44812 41.99269,6.22758 41.94005,5.99877 41.79865,5.37706 41.36393,5.06169 40.63513,5.05191 40.78104,4.96008 40.90138,4.85998 40.9969,4.75159 41.09242,4.64396 41.16537,4.53106 41.21501,4.41514 41.2654,4.29923 41.29473,4.1788 41.30376,4.05536 41.31203,3.93192 41.30226,3.80773 41.27368,3.68354 41.22479,3.46602 41.14356,3.2771 41.033,3.11753 40.92169,2.95721 40.77427,2.83302 40.59151,2.7442 40.40875,2.65614 40.18763,2.60571 39.92739,2.59367 39.66716,2.58238 39.36556,2.61625 39.02185,2.69453 l -1.82011,0.41472 1.21993,5.35979 1.98784,-0.45311 z m 0.16922,-2.28436 c 0.08348,0.04667 0.14967,0.11064 0.20157,0.19193 0.05114,0.08204 0.08875,0.17763 0.11432,0.28827 0.02332,0.10236 0.03234,0.20397 0.02708,0.30559 -0.0053,0.10236 -0.03309,0.19645 -0.08123,0.28376 -0.04964,0.08806 -0.12636,0.16709 -0.22864,0.23559 -0.10379,0.06849 -0.24068,0.12269 -0.40915,0.16032 l -0.9078,0.20699 -0.34296,-1.5061 0.90404,-0.20548 c 0.1617,-0.03613 0.3016,-0.05043 0.42043,-0.0429 0.11959,0.00828 0.22037,0.03538 0.30235,0.08204 z m -1.3726,-2.22189 c 0.3016,-0.06774 0.53475,-0.06322 0.70022,0.01731 0.16471,0.07903 0.27828,0.25666 0.34146,0.53139 0.06017,0.26344 0.02256,0.47117 -0.11282,0.62246 -0.13613,0.14978 -0.35274,0.26043 -0.65133,0.32817 L 38.78568,5.16782 38.44873,3.6828 39.20611,3.50969 Z"
       id="path7652" />
    <path
       d="m 45.93226,6.39166 c 0.22112,0.23784 0.48511,0.41849 0.79047,0.54042 0.30536,0.12344 0.64306,0.17387 1.01535,0.15355 0.4099,-0.02258 0.76039,-0.11516 1.05145,-0.27849 0.29032,-0.16182 0.52723,-0.38763 0.71,-0.67816 L 49.03999,5.68641 C 48.99637,5.64501 48.94522,5.6262 48.88806,5.62845 c -0.03159,0.00226 -0.06017,0.01129 -0.088,0.02785 -0.02783,0.01731 -0.0549,0.03763 -0.08198,0.06021 -0.06393,0.07828 -0.13012,0.14451 -0.19555,0.19795 -0.06619,0.05269 -0.13839,0.0986 -0.2151,0.13398 -0.07672,0.03613 -0.15945,0.06247 -0.2497,0.08054 C 47.96748,6.14554 47.86594,6.15833 47.75312,6.16436 47.56284,6.1749 47.38233,6.14329 47.2131,6.06802 47.04387,5.99275 46.8927,5.87835 46.76108,5.72405 46.63021,5.569 46.52191,5.37707 46.43767,5.14675 46.35268,4.91718 46.30154,4.65149 46.28574,4.35117 c -0.01655,-0.29731 7.5e-4,-0.56451 0.05265,-0.80084 0.05114,-0.23709 0.13237,-0.43956 0.24218,-0.60665 0.10906,-0.16785 0.24444,-0.29806 0.40464,-0.39139 0.16095,-0.09408 0.34146,-0.14527 0.54152,-0.15656 0.18502,-0.01054 0.3377,0.00301 0.45879,0.04064 0.12034,0.03763 0.22112,0.08054 0.30385,0.12871 0.08123,0.04742 0.15042,0.09258 0.20608,0.13322 0.05566,0.04064 0.11282,0.06021 0.16998,0.05645 0.05791,-0.00226 0.10229,-0.01731 0.13237,-0.04366 0.03159,-0.0271 0.05716,-0.0557 0.08048,-0.08731 L 49.21372,2.0954 C 49.01215,1.89067 48.76471,1.73035 48.47439,1.61519 48.18332,1.50078 47.85314,1.45337 47.48461,1.47369 c -0.36327,0.02032 -0.69345,0.10688 -0.98828,0.26193 -0.29483,0.1543 -0.54453,0.36204 -0.7476,0.62171 -0.20382,0.26043 -0.3565,0.56526 -0.45728,0.91525 -0.10078,0.34999 -0.13989,0.72934 -0.11733,1.1403 0.02256,0.4072 0.09928,0.77977 0.23015,1.11697 0.13012,0.3372 0.30611,0.62397 0.52798,0.86181 z"
       id="path7654" />
    <path
       d="M 54.98169,2.47626 C 54.76659,2.20981 54.50034,1.99455 54.18295,1.82896 53.86556,1.66412 53.50755,1.56853 53.10818,1.53993 52.71031,1.51208 52.34178,1.55724 52.00483,1.67692 51.66638,1.79584 51.3723,1.97122 51.1211,2.20379 50.86989,2.43712 50.66908,2.72012 50.5164,3.05356 50.36523,3.38775 50.27497,3.7543 50.24639,4.15322 c -0.02858,0.40117 0.0098,0.77902 0.11357,1.13052 0.10454,0.3515 0.26399,0.6616 0.4806,0.92805 0.21661,0.2672 0.48361,0.48171 0.801,0.64504 0.31739,0.16333 0.6754,0.25892 1.07477,0.28752 0.39862,0.02785 0.7664,-0.01731 1.1041,-0.13473 C 54.15738,6.89296 54.4507,6.71683 54.7004,6.48275 54.95085,6.24867 55.15092,5.96416 55.30209,5.63072 55.45251,5.29653 55.54126,4.92848 55.56984,4.52655 55.59767,4.12688 55.56006,3.7528 55.45778,3.40206 55.35549,3.05207 55.1968,2.74347 54.98169,2.47627 Z M 54.46348,4.44901 C 54.44317,4.74331 54.38902,5.00448 54.30102,5.23254 54.21302,5.45985 54.0972,5.64952 53.95279,5.80081 53.80688,5.95285 53.63615,6.065 53.4391,6.1365 53.2428,6.20876 53.02318,6.23585 52.781,6.21929 52.53882,6.20198 52.32372,6.14402 52.13794,6.04542 51.95066,5.94682 51.79648,5.81134 51.67464,5.64123 51.55205,5.47037 51.46405,5.26715 51.40839,5.02931 51.35349,4.79147 51.33619,4.52502 51.35649,4.23148 51.3768,3.93944 51.43095,3.68052 51.51895,3.45397 c 0.088,-0.2258 0.20457,-0.41548 0.34898,-0.56902 0.14441,-0.15279 0.31664,-0.26645 0.51445,-0.33946 0.19931,-0.07301 0.41968,-0.10086 0.66186,-0.0843 0.24218,0.01731 0.45503,0.07527 0.6408,0.17613 0.18502,0.10011 0.33845,0.23559 0.46029,0.40795 0.12184,0.17161 0.21134,0.37558 0.26625,0.61117 0.05566,0.23634 0.07296,0.50053 0.0519,0.79257 z"
       id="path7656" />
    <path
       d="m 60.04792,8.17776 c 0.04889,0.03989 0.11583,0.06925 0.19856,0.08731 L 60.79327,8.38023 61.93272,3.00238 60.99784,2.80367 60.32996,5.95436 C 60.29611,6.11393 60.26904,6.28478 60.24723,6.46618 L 58.34062,2.41454 C 58.31806,2.37239 58.297,2.33852 58.27895,2.31218 58.2609,2.28584 58.23984,2.26401 58.21652,2.24594 58.19396,2.22863 58.16613,2.21433 58.13529,2.20304 58.10295,2.1925 58.06534,2.18272 58.01871,2.17293 l -0.55807,-0.11892 -1.1387,5.37785 0.93864,0.19946 0.6754,-3.18757 c 0.03008,-0.14301 0.0549,-0.29956 0.07371,-0.47042 l 1.90435,4.02981 c 0.03986,0.07677 0.08424,0.13398 0.13388,0.17462 z"
       id="path7658" />
    <path
       d="m 62.5141,8.78366 c 0.12335,0.10914 0.25647,0.20699 0.40088,0.29204 0.14441,0.0858 0.29483,0.15505 0.45127,0.20849 0.27753,0.09408 0.53851,0.13398 0.7837,0.11817 0.24594,-0.01581 0.46932,-0.07451 0.66938,-0.17688 0.20157,-0.10161 0.3753,-0.24311 0.52272,-0.423 C 65.48947,8.62259 65.60228,8.41485 65.68276,8.18002 65.75647,7.9625 65.78655,7.76755 65.77377,7.59444 65.76174,7.42133 65.72037,7.26326 65.65042,7.12327 65.58047,6.98252 65.48947,6.85457 65.37891,6.73941 65.26835,6.62576 65.15027,6.51812 65.02692,6.41952 64.90282,6.32017 64.78173,6.22533 64.66214,6.13501 64.54255,6.04544 64.43951,5.95362 64.35302,5.86179 64.26728,5.76921 64.2041,5.67437 64.1665,5.57577 64.12889,5.47642 64.12965,5.36878 64.17026,5.25062 64.23344,5.06546 64.344,4.9345 64.50194,4.85998 c 0.15794,-0.07376 0.35349,-0.07075 0.5889,0.00903 0.13388,0.04516 0.24444,0.10312 0.33394,0.17462 0.0895,0.0715 0.16546,0.1415 0.22789,0.21075 0.06167,0.06925 0.11583,0.13247 0.16095,0.18817 0.04437,0.05645 0.09176,0.09258 0.1414,0.10914 0.05265,0.01806 0.10003,0.02258 0.1429,0.01204 0.04287,-0.01054 0.08574,-0.03688 0.13012,-0.07978 l 0.4272,-0.39666 C 66.53565,4.8502 66.36417,4.6402 66.14155,4.4573 65.92043,4.27365 65.6602,4.13139 65.36311,4.03053 65.09987,3.94021 64.85017,3.90333 64.61701,3.91838 64.3831,3.93268 64.17176,3.98763 63.98298,4.0802 c -0.18953,0.09333 -0.35199,0.21828 -0.48587,0.37408 -0.13463,0.15731 -0.23466,0.33118 -0.30009,0.52236 -0.08123,0.23935 -0.11808,0.4516 -0.1083,0.63601 0.0083,0.18365 0.04588,0.34774 0.11357,0.493 0.06694,0.14527 0.15644,0.27473 0.2685,0.38687 0.11206,0.11214 0.22939,0.21602 0.35274,0.31085 0.12335,0.09408 0.24519,0.18441 0.36628,0.27096 0.12109,0.08655 0.22413,0.17537 0.30912,0.26645 0.08574,0.09183 0.14591,0.19118 0.18126,0.29655 0.03535,0.10537 0.03084,0.2243 -0.01504,0.35752 C 64.58618,8.23044 64.45982,8.38549 64.28909,8.46151 64.11761,8.53678 63.91454,8.53527 63.67913,8.45474 63.51743,8.39979 63.38581,8.32829 63.28502,8.24023 63.18424,8.15141 63.0985,8.06185 63.03081,7.97378 62.96162,7.88421 62.90145,7.80518 62.85181,7.73368 62.80217,7.66218 62.74501,7.61626 62.68258,7.59519 62.63595,7.57938 62.58781,7.57637 62.53893,7.58616 62.49079,7.59594 62.44868,7.61627 62.41182,7.64713 l -0.47233,0.38612 c 0.06092,0.13623 0.14065,0.27021 0.24068,0.39666 0.09928,0.12645 0.21059,0.24537 0.33394,0.35376 z"
       id="path7660" />
    <path
       d="m 67.31635,10.59459 c 0.23541,0.26946 0.5325,0.49074 0.89351,0.66311 0.36026,0.17311 0.71902,0.26795 1.07552,0.28376 0.35725,0.0143 0.69495,-0.03989 1.0131,-0.16634 0.3189,-0.12494 0.60996,-0.31537 0.87245,-0.57053 0.26249,-0.2544 0.4821,-0.563 0.65584,-0.92654 0.17374,-0.36053 0.27678,-0.72257 0.31062,-1.08611 0.03309,-0.36354 0,-0.70902 -0.10229,-1.03568 C 71.93356,7.42809 71.76584,7.13004 71.53118,6.85907 71.29727,6.58886 71.00019,6.36757 70.63917,6.19371 70.27891,6.0206 69.9194,5.92726 69.5629,5.91296 69.20565,5.89866 68.8672,5.95436 68.5483,6.0778 68.2279,6.20124 67.93683,6.38941 67.67284,6.64456 67.4081,6.89821 67.18923,7.20605 67.017,7.56659 c -0.17524,0.36354 -0.27828,0.72784 -0.31137,1.09288 -0.03309,0.36504 0.0023,0.71203 0.10454,1.03944 0.10304,0.32817 0.27151,0.62622 0.50617,0.89568 z M 67.77363,8.81 c 0.0361,-0.24161 0.11883,-0.49526 0.24594,-0.76171 0.12711,-0.26344 0.27227,-0.48397 0.43698,-0.66235 0.16471,-0.17763 0.34296,-0.31085 0.534,-0.39967 0.19104,-0.08957 0.3926,-0.13097 0.60395,-0.12494 0.21134,0.00452 0.42645,0.06021 0.64607,0.16484 0.21811,0.10537 0.39561,0.2386 0.53024,0.40042 0.13613,0.16107 0.22864,0.34397 0.27903,0.5487 0.04889,0.20473 0.05641,0.42752 0.02031,0.66687 -0.0346,0.24086 -0.11583,0.49225 -0.24293,0.75644 -0.12786,0.26569 -0.27377,0.48849 -0.43923,0.66762 -0.16546,0.17913 -0.34372,0.31311 -0.534,0.40042 -0.19104,0.08656 -0.3911,0.12795 -0.60019,0.12193 -0.20984,-0.006 -0.42419,-0.06097 -0.64306,-0.16634 C 68.39263,10.31686 68.21438,10.18439 68.07749,10.02331 67.93985,9.86224 67.84584,9.68084 67.79545,9.47687 67.74506,9.27365 67.73754,9.05161 67.77364,8.81 Z"
       id="path7662" />
    <path
       d="m 72.3901,13.48486 1.15224,-1.7733 0.30837,0.20021 c 0.07822,0.05193 0.13237,0.10236 0.1602,0.1543 0.02783,0.05043 0.04061,0.11516 0.03986,0.19268 L 73.956,14.24204 c -0.0015,0.17311 0.07145,0.30784 0.21661,0.40343 l 0.82206,0.5344 0.06092,-2.3506 c -0.0015,-0.09258 -0.01354,-0.17838 -0.0346,-0.25666 -0.02181,-0.07828 -0.05114,-0.15204 -0.088,-0.22279 0.18577,0.04516 0.36327,0.06172 0.53626,0.04968 0.17148,-0.01129 0.33394,-0.04742 0.48662,-0.10763 0.15268,-0.06021 0.29408,-0.14451 0.42344,-0.25365 0.12936,-0.10763 0.24293,-0.23634 0.34071,-0.38763 0.12786,-0.19645 0.21285,-0.39816 0.25497,-0.6044 0.04137,-0.20623 0.03084,-0.41397 -0.03234,-0.62321 C 76.87947,10.21449 76.75989,10.00525 76.58314,9.796 76.40639,9.58751 76.16346,9.38278 75.8566,9.18332 l -1.38765,-0.90321 -2.99416,4.60862 0.91532,0.59612 z m 2.53914,-3.90788 0.47233,0.30709 c 0.2858,0.18666 0.45954,0.38537 0.51896,0.59687 0.06017,0.21225 0.01655,0.42978 -0.12861,0.65407 -0.07371,0.11441 -0.1587,0.20849 -0.25497,0.28225 -0.09552,0.07451 -0.20006,0.12344 -0.31514,0.14752 -0.11507,0.02484 -0.23842,0.02107 -0.37079,-0.009 -0.13388,-0.03086 -0.27377,-0.09484 -0.42194,-0.19118 L 73.96427,11.06278 74.92923,9.577 Z"
       id="path7664" />
    <polygon
       points="81.89456,13.71819 78.76351,11.15533 78.20243,11.84102 79.34866,12.77885 76.43046,16.34803 77.26906,17.03522 80.18801,13.46604 81.33348,14.40387 "
       id="polygon7666" />
    <rect
       x="78.68351"
       y="16.55113"
       width="5.4955001"
       height="1.09237"
       transform="rotate(-45.94214,81.431259,17.097314)"
       id="rect7668" />
    <path
       d="m 82.00587,19.66807 c -0.14365,0.26118 -0.22864,0.53289 -0.25497,0.81665 -0.02632,0.28225 0.009,0.56902 0.1083,0.86031 0.09777,0.29053 0.26249,0.57203 0.49188,0.84375 0.23015,0.27247 0.47985,0.47945 0.75061,0.62321 0.26926,0.14376 0.54528,0.22655 0.82808,0.24612 0.28355,0.02107 0.56484,-0.01806 0.84688,-0.11742 0.28054,-0.0986 0.54754,-0.25591 0.80025,-0.47042 l 2.50002,-2.11878 -0.70097,-0.82794 -2.50002,2.12028 c -0.15569,0.13172 -0.31438,0.23032 -0.47609,0.29505 -0.16246,0.06473 -0.3204,0.09484 -0.47534,0.09107 -0.15569,-0.0045 -0.30536,-0.0429 -0.45202,-0.11666 -0.14516,-0.07376 -0.27979,-0.18441 -0.40464,-0.33118 -0.12485,-0.14828 -0.2121,-0.29956 -0.26098,-0.45537 -0.04889,-0.15505 -0.06167,-0.3101 -0.04061,-0.4644 0.02106,-0.1543 0.07747,-0.30559 0.16772,-0.45461 0.09101,-0.14903 0.21435,-0.28978 0.36929,-0.4215 l 2.50002,-2.11953 -0.70247,-0.83095 -2.50002,2.11953 c -0.25271,0.21451 -0.45052,0.4516 -0.59492,0.71278 z"
       id="path7670" />
    <path
       d="m 85.18957,25.73462 2.94001,-1.78308 c 0.06619,-0.03989 0.13538,-0.08505 0.20909,-0.13699 0.07371,-0.05118 0.14817,-0.10537 0.22263,-0.16408 l -1.72986,3.10252 c -0.09251,0.15656 -0.09477,0.30634 -0.0075,0.4501 l 0.07972,0.13097 c 0.08574,0.1415 0.21887,0.20774 0.39937,0.1972 l 3.5244,-0.10838 c -0.08273,0.03914 -0.16246,0.08054 -0.23917,0.12193 -0.07596,0.04215 -0.14591,0.08204 -0.20984,0.12118 l -2.93926,1.78308 0.49564,0.8174 4.69695,-2.84962 -0.42344,-0.70149 C 92.18349,26.67547 92.16017,26.64009 92.13912,26.61149 92.11881,26.58214 92.097,26.55805 92.07444,26.53923 92.05188,26.52117 92.0248,26.50837 91.99246,26.50009 c -0.03234,-0.0083 -0.0722,-0.01054 -0.11808,-0.0083 l -3.4176,0.09333 c -0.09777,0.0038 -0.19555,0.01355 -0.29408,0.0286 -0.09928,0.0143 -0.20006,0.03086 -0.30235,0.04817 0.1241,-0.15656 0.23692,-0.31989 0.33619,-0.49074 L 89.86019,23.168 c 0.02407,-0.03989 0.03911,-0.07602 0.04588,-0.10838 0.0068,-0.03161 0.0075,-0.06172 0.0023,-0.09258 -0.006,-0.03011 -0.01655,-0.06097 -0.03234,-0.09183 -0.01579,-0.03161 -0.0346,-0.06699 -0.05942,-0.10688 l -0.42645,-0.7045 -4.69845,2.84962 z"
       id="path7672" />
    <path
       d="m 8.14584,66.31849 c 0,-0.67138 -0.56446,-1.22761 -1.23497,-1.22761 -0.66261,0 -1.2188,0.55623 -1.2188,1.22761 0,0.66311 0.55619,1.22836 1.2188,1.22836 0.67051,0 1.23497,-0.56526 1.23497,-1.22836 z"
       id="path7674" />
    <path
       d="m 91.29875,33.76409 c 0,0.66311 0.55619,1.22836 1.2188,1.22836 0.67051,0 1.23497,-0.56526 1.23497,-1.22836 0,-0.67138 -0.56446,-1.22761 -1.23497,-1.22761 -0.66261,0 -1.2188,0.55623 -1.2188,1.22761 z"
       id="path7676" />
  </g>
  <g
     id="g7696"
     style="fill:#ffffff"
     transform="matrix(1.2409175,0,0,1.2409175,-1.6920406,-1.8230509)">
    <path
       d="m 66.54305,52.43686 c 0.66833,-0.84229 0.5271,-2.07263 -0.31628,-2.74323 -0.84344,-0.66949 -2.07483,-0.5271 -2.74432,0.31635 -0.82922,1.04547 -1.5824,1.6748 -2.44104,2.04108 -1.58356,0.67383 -2.92584,0.38904 -4.22351,-0.89667 -1.27161,-1.25964 -2.51062,-2.63232 -3.71265,-3.96265 -0.58801,-0.651 -1.17706,-1.3031 -1.77374,-1.94763 -1.01947,-1.10095 -2.04431,-2.19757 -3.06818,-3.29529 l -0.09021,-0.0968 c -2.22693,-2.38342 -4.52887,-4.84839 -6.74933,-7.32422 -1.76068,-1.96393 -4.48108,-2.93671 -7.09821,-2.54327 -2.67474,0.40002 -4.83759,2.11182 -6.0907,4.81915 -1.20746,2.6073 -0.79883,5.57007 1.06512,7.73181 3.27899,3.80286 6.04504,6.94708 9.28491,9.90448 1.32489,1.2085 2.92804,1.85193 4.63544,1.8606 1.10748,0.0055 2.77686,-0.11951 4.47998,-1.26617 0.74561,-0.50208 1.44006,-1.01837 1.74548,-1.80634 0.31085,-0.8064 0.02063,-1.73346 -0.70752,-2.25623 -0.70648,-0.50867 -1.63354,-0.47284 -2.30737,0.08691 -0.08484,0.07062 -0.17719,0.15216 -0.27826,0.24023 -1.05859,0.92706 -2.37585,2.08124 -5.06146,0.1532 -2.46063,-1.76721 -4.36584,-4.08331 -6.57324,-6.76562 -0.71948,-0.87384 -1.46399,-1.77808 -2.25958,-2.70197 -0.84991,-0.98572 -1.03357,-2.3421 -0.47931,-3.54089 0.4837,-1.04333 1.4173,-2.34106 3.12579,-2.59644 1.29443,-0.19458 2.74536,0.32275 3.61163,1.2879 2.23889,2.49756 4.55823,4.98206 6.80145,7.38293 1.05103,1.12488 2.10193,2.25085 3.14752,3.38013 0.58582,0.63257 1.164,1.27264 1.75092,1.92261 1.23248,1.36401 2.50629,2.77362 3.85181,4.10724 2.42908,2.40729 5.44836,3.01703 8.50568,1.71606 1.46832,-0.62708 2.73016,-1.64551 3.96918,-3.20728 z"
       id="path7680" />
    <path
       d="m 69.28286,38.84408 c 1.26294,-0.59888 2.25629,-1.72595 2.35083,-3.0932 0.24023,-2.3736 -1.71393,-4.64514 -4.58868,-4.99622 -1.76501,-0.22388 -3.40289,0.29889 -4.5636,1.2608 -0.62061,0.51624 -0.78802,1.47156 -0.25,2.14539 0.58795,0.70105 1.26617,0.82379 2.37585,0.21417 0.39777,-0.22607 0.99554,-0.41412 1.65308,-0.36853 1.24011,0.08594 1.59546,1.20319 1.56073,1.71075 -0.0055,0.07495 0.0022,1.80524 -1.74438,1.68457 l -0.65863,-0.04559 c -0.73364,-0.05005 -1.46729,0.6358 -1.52161,1.42047 -0.05872,0.83472 0.55212,1.56396 1.31183,1.61725 l 0.80969,0.05542 c 2.22809,0.15436 1.99548,2.04541 1.94873,2.3476 -0.04346,0.86951 -1.43903,2.3443 -3.92786,0.6673 -0.84448,-0.56842 -6.8678,-8.13397 -6.8678,-8.13397 -2.85406,-3.68982 -7.70361,-4.33978 -11.5304,-1.54437 -0.42059,0.30756 -0.69775,0.76074 -0.7782,1.27704 -0.07935,0.51514 0.04565,1.03143 0.35327,1.45203 0.30756,0.42059 0.7608,0.69775 1.27594,0.7782 0.51837,0.08044 1.03247,-0.04565 1.45312,-0.35327 2.6106,-1.90735 4.9375,-0.77057 6.13416,0.77716 0,0 6.46674,8.31763 8.13177,9.19904 1.08038,0.57172 2.2085,0.9021 3.3551,0.98145 3.51923,0.24347 5.66248,-1.6955 6.24072,-4.35175 0.37927,-1.74115 -0.7467,-3.91699 -2.52368,-4.70172 z"
       id="path7682" />
    <path
       d="m 36.30709,61.7565 c -0.0498,0.0166 -0.09473,0.06055 -0.13672,0.13379 l -2.43555,4.22559 c -0.04199,0.07715 -0.08203,0.1582 -0.11816,0.24219 -0.03711,0.08398 -0.07324,0.1709 -0.10742,0.26172 -0.03516,-0.08691 -0.07129,-0.17285 -0.1084,-0.25684 -0.03613,-0.08398 -0.07715,-0.16602 -0.12305,-0.24707 l -2.4668,-4.21973 C 30.76509,61.819 30.71919,61.7731 30.67134,61.7565 30.62446,61.74088 30.55904,61.73306 30.47505,61.73306 h -0.70312 v 6.89746 h 0.83984 v -5.03418 c 0,-0.15039 -0.01074,-0.3125 -0.03223,-0.4873 l 2.51953,4.31934 c 0.08105,0.14355 0.19629,0.21582 0.34668,0.21582 h 0.13672 c 0.15039,0 0.26562,-0.07227 0.34668,-0.21582 l 2.46191,-4.3252 c -0.0078,0.08789 -0.01367,0.17383 -0.01855,0.25977 -0.0059,0.08594 -0.0078,0.16406 -0.0078,0.2334 v 5.03418 h 0.84473 v -6.89746 h -0.70312 c -0.08398,0 -0.15039,0.0078 -0.19922,0.02344 z"
       id="path7684" />
    <polygon
       points="39.06197,68.63052 43.09322,68.63052 43.09908,67.85318 40.02291,67.85318 40.02291,65.5231 42.49557,65.5231 42.49557,64.77212 40.02291,64.77212 40.02291,62.5104 43.09322,62.5104 43.09322,61.73306 39.06197,61.73306 "
       id="polygon7686" />
    <path
       d="m 51.17721,61.7565 c -0.0498,0.0166 -0.09473,0.06055 -0.13672,0.13379 l -2.43555,4.22559 c -0.04199,0.07715 -0.08203,0.1582 -0.11816,0.24219 -0.03711,0.08398 -0.07324,0.1709 -0.10742,0.26172 -0.03516,-0.08691 -0.07129,-0.17285 -0.1084,-0.25684 -0.03613,-0.08398 -0.07715,-0.16602 -0.12305,-0.24707 l -2.4668,-4.21973 C 45.63521,61.819 45.58931,61.7731 45.54146,61.7565 45.49458,61.74088 45.42916,61.73306 45.34517,61.73306 h -0.70312 v 6.89746 h 0.83984 v -5.03418 c 0,-0.15039 -0.01074,-0.3125 -0.03223,-0.4873 l 2.51953,4.31934 c 0.08105,0.14355 0.19629,0.21582 0.34668,0.21582 h 0.13672 c 0.15039,0 0.26562,-0.07227 0.34668,-0.21582 l 2.46191,-4.3252 c -0.0078,0.08789 -0.01367,0.17383 -0.01855,0.25977 -0.0059,0.08594 -0.0078,0.16406 -0.0078,0.2334 v 5.03418 h 0.84473 v -6.89746 h -0.70312 c -0.08398,0 -0.15039,0.0078 -0.19922,0.02344 z"
       id="path7688" />
    <path
       d="m 57.10787,65.08169 c 0.20996,-0.06641 0.39258,-0.15332 0.5459,-0.26172 0.1543,-0.1084 0.28223,-0.22949 0.38379,-0.3623 0.10156,-0.13281 0.17676,-0.27832 0.22754,-0.43555 0.05078,-0.15723 0.07617,-0.32031 0.07617,-0.48828 0,-0.28027 -0.04297,-0.53125 -0.13086,-0.75293 -0.08789,-0.22266 -0.22461,-0.41113 -0.41211,-0.56738 -0.1875,-0.15527 -0.42676,-0.27441 -0.71875,-0.35645 -0.29297,-0.08301 -0.6416,-0.12402 -1.04785,-0.12402 h -2.10449 v 6.89746 h 2.33008 c 0.36816,0 0.69434,-0.04688 0.97949,-0.1416 0.28515,-0.09472 0.52539,-0.22852 0.72168,-0.40137 0.19629,-0.17383 0.34473,-0.38086 0.44629,-0.62207 0.10156,-0.24121 0.15234,-0.50977 0.15234,-0.80371 0,-0.42969 -0.12207,-0.77734 -0.36523,-1.04199 -0.24316,-0.26367 -0.60449,-0.44336 -1.08398,-0.53809 z m -2.22559,-2.59765 h 1.14941 c 0.46973,0 0.81348,0.09375 1.03223,0.28027 0.21777,0.1875 0.32812,0.48242 0.32812,0.88477 0,0.1748 -0.0293,0.33398 -0.08691,0.47754 -0.05761,0.14356 -0.14453,0.2666 -0.25977,0.36719 -0.11621,0.10156 -0.26074,0.18164 -0.43555,0.23926 -0.17578,0.05762 -0.37988,0.08691 -0.61426,0.08691 h -1.11328 v -2.33594 z m 2.64844,4.65332 c -0.05078,0.15234 -0.13086,0.28223 -0.24121,0.39062 -0.11035,0.10839 -0.25195,0.19336 -0.42578,0.25488 -0.17285,0.06152 -0.37988,0.0918 -0.62207,0.0918 h -1.35938 v -2.38281 h 1.35938 c 0.46582,0 0.80957,0.10254 1.03223,0.30957 0.22168,0.20605 0.33301,0.48633 0.33301,0.83984 0,0.17871 -0.02539,0.34375 -0.07617,0.49609 z"
       id="path7690" />
    <polygon
       points="59.99459,68.63052 64.02584,68.63052 64.0317,67.85318 60.95553,67.85318 60.95553,65.5231 63.42818,65.5231 63.42818,64.77212 60.95553,64.77212 60.95553,62.5104 64.02584,62.5104 64.02584,61.73306 59.99459,61.73306 "
       id="polygon7692" />
    <path
       d="m 68.37154,65.73013 c -0.05176,-0.04688 -0.1084,-0.08984 -0.16797,-0.12793 0.24902,-0.06348 0.4707,-0.15527 0.66699,-0.27637 0.19629,-0.12012 0.36133,-0.26465 0.49609,-0.43262 0.13476,-0.16797 0.23828,-0.35645 0.30957,-0.56738 0.07227,-0.20898 0.10742,-0.43555 0.10742,-0.67676 0,-0.29395 -0.04688,-0.55859 -0.1416,-0.79492 -0.09472,-0.23633 -0.24023,-0.4375 -0.43848,-0.60352 -0.19727,-0.16602 -0.44922,-0.29395 -0.75586,-0.38379 -0.30566,-0.08887 -0.66895,-0.13379 -1.08887,-0.13379 h -1.88965 v 6.89746 h 0.95508 V 65.7643 h 0.64062 c 0.12305,0 0.21484,0.0166 0.27539,0.0498 0.06152,0.0332 0.11816,0.08887 0.1709,0.16602 l 1.63281,2.45605 c 0.09082,0.12988 0.21875,0.19434 0.38281,0.19434 h 0.85059 l -1.85352,-2.72949 c -0.04883,-0.06641 -0.09961,-0.12305 -0.15234,-0.1709 z m -1.04883,-0.66406 h -0.89844 v -2.58203 h 0.93457 c 0.99707,0 1.49609,0.41113 1.49609,1.2334 0,0.19922 -0.03223,0.38281 -0.09668,0.54883 -0.06543,0.16602 -0.16211,0.30859 -0.29199,0.42773 -0.12891,0.11914 -0.28906,0.21094 -0.48047,0.27539 -0.19043,0.06445 -0.41113,0.09668 -0.66309,0.09668 z"
       id="path7694" />
  </g>
</svg>
