<?xml version="1.0" encoding="UTF-8"?>
<svg id="Layer_1" xmlns="http://www.w3.org/2000/svg" width="175" height="100" version="1.1" viewBox="0 0 175 100">
  <!-- Generator: Adobe Illustrator 29.1.0, SVG Export Plug-In . SVG Version: 2.1.0 Build 142)  -->
  <defs>
    <style>
      .st0 {
        fill: #fff;
      }
    </style>
  </defs>
  <g>
    <g>
      <path class="st0" d="M67.75449,61.09082h.85938l2.62793,3.58789,2.51855-3.58789h.80957v6.99609h-.84863v-5.65723l-2.47949,3.47852h-.12988l-2.50781-3.44824v5.62695h-.84961v-6.99609Z"/>
      <path class="st0" d="M76.56406,61.09082h3.94727v.7998h-3.09766v2.25879h2.79785v.79883h-2.79785v2.33887h3.19824v.7998h-4.04785v-6.99609Z"/>
      <path class="st0" d="M82.20469,61.09082h.85938l2.62793,3.58789,2.51855-3.58789h.80957v6.99609h-.84863v-5.65723l-2.47949,3.47852h-.12988l-2.50781-3.44824v5.62695h-.84961v-6.99609Z"/>
      <path class="st0" d="M91.01426,61.10058c.38965-.00977,1.26855-.04004,1.91895-.04004,1.66895,0,2.24805.75977,2.24805,1.72949,0,.87891-.5293,1.39941-1.19922,1.61914v.01953c.87012.14062,1.44922.7002,1.44922,1.65918,0,1.41895-1.08887,2.0293-2.53809,2.0293-.62011,0-1.46972-.02051-1.8789-.04004v-6.97656ZM91.86387,61.89062v2.25879h1.11914c.73926,0,1.34863-.41016,1.34863-1.16992,0-.72949-.48926-1.11914-1.41895-1.11914-.37012,0-.7998.01953-1.04883.03027ZM91.86387,64.89844v2.37891c.22949.01953.67871.04004,1.0791.04004,1.0293,0,1.63867-.41992,1.63867-1.2793,0-.73926-.5791-1.13965-1.58887-1.13965h-1.12891Z"/>
      <path class="st0" d="M97.0748,61.09082h3.94727v.7998h-3.09766v2.25879h2.79785v.79883h-2.79785v2.33887h3.19824v.7998h-4.04785v-6.99609Z"/>
      <path class="st0" d="M102.71445,68.08691v-6.99609c.38965,0,1.6787-.02051,1.87891-.02051,1.9082,0,2.48828.9502,2.48828,2.0791,0,1.08984-.75,1.7793-1.51953,1.97949l2.3291,2.95801h-1.03906l-2.14941-2.79883h-1.13867v2.79883h-.84961ZM103.56406,61.89062v2.59863h1.0293c.80957,0,1.58887-.5,1.58887-1.33008,0-.71875-.39941-1.28906-1.63867-1.28906-.2207,0-.6504.00977-.97949.02051Z"/>
    </g>
    <g>
      <path class="st0" d="M103.62052,48.87322c-.84343-.66949-2.07483-.52712-2.74433.31631-.82924,1.04551-1.58242,1.67482-2.44105,2.0411-1.58353.67384-2.92581.38905-4.2235-.89665-1.27163-1.25966-2.51062-2.63232-3.71268-3.96266-.58799-.65101-1.17703-1.30311-1.77371-1.94762-1.01946-1.10096-2.04433-2.1976-3.06817-3.29532l-.09024-.09675c-2.22693-2.38343-4.52887-4.84841-6.74929-7.32425-1.76068-1.96394-4.48106-2.93669-7.09821-2.54324-2.67476.39997-4.83759,2.11177-6.09071,4.8191-1.20747,2.60735-.79882,5.57009,1.0651,7.73182,3.27904,3.8029,6.04509,6.94713,9.28494,9.90447,1.32489,1.20855,2.92801,1.85196,4.63541,1.86065,1.10752.00546,2.7769-.11952,4.48-1.26617.74559-.50209,1.44008-1.01838,1.74549-1.80634.31085-.80641.02064-1.73348-.70753-2.25626-.70647-.50865-1.63354-.47281-2.30738.08693-.0848.07061-.1772.15216-.27823.24022-1.05859.92707-2.3759,2.08127-5.0615.15319-2.46059-1.76721-4.36581-4.08328-6.57322-6.7656-.7195-.87386-1.46399-1.77811-2.25955-2.70195-.84993-.98574-1.03362-2.34211-.47932-3.54092.48367-1.04336,1.41725-2.34107,3.12579-2.59645,1.2944-.19458,2.74536.32274,3.61159,1.28791,2.23892,2.49757,4.55824,4.98208,6.80147,7.38292,1.051,1.12491,2.10195,2.25086,3.14752,3.38013.58584.63256,1.16404,1.27266,1.75093,1.92261,1.2325,1.36402,2.50626,2.77366,3.85179,4.10723,2.4291,2.40732,5.44835,3.01706,8.50568,1.71611,1.46834-.62712,2.73018-1.6455,3.96916-3.20728.66838-.84229.52712-2.07264-.31625-2.74323Z"/>
      <path class="st0" d="M106.6766,38.02368c1.26292-.59887,2.25632-1.72595,2.35086-3.09321.2402-2.37363-1.71396-4.64515-4.58869-4.99624-1.76502-.22386-3.40291.29892-4.56364,1.26079-.62058.51624-.78798,1.4716-.25,2.14544.58797.70101,1.26617.82378,2.37588.21412.39776-.22607.99555-.41411,1.65309-.36849,1.24009.08591,1.59547,1.20317,1.5607,1.71071-.00546.07501.00219,1.80524-1.74438,1.68461l-.65864-.04562c-.73361-.05003-1.46726.6358-1.52157,1.42046-.05872.83475.55211,1.56399,1.31179,1.61727l.8097.05541c2.22809.15435,1.99548,2.04544,1.94876,2.34761-.04347.86947-1.43901,2.3443-3.92788.66728-.84449-.5684-6.8678-8.13396-6.8678-8.13396-2.85403-3.68983-7.70357-4.33978-11.53036-1.5444-.42059.30756-.69777.76077-.77818,1.27707-.07934.51513.04564,1.03141.35323,1.452.30756.42059.76079.69777,1.27597.77818.51839.08045,1.03248-.04564,1.45311-.35323,2.6106-1.90739,4.93753-.77059,6.13414.77712,0,0,6.46679,8.31764,8.13183,9.19906,1.08034.57171,2.2085.90209,3.35509.98146,3.51924.24343,5.66247-1.69551,6.24072-4.35175.37926-1.74113-.7467-3.91698-2.5237-4.70171Z"/>
    </g>
  </g>
  <g>
    <polygon class="st0" points="52.01436 67.80606 48.49215 68.27555 51.08091 65.83544 50.5886 64.79551 45.19638 65.7096 45.69249 66.75645 49.08264 66.14867 46.51323 68.48989 47.03113 69.58376 50.45654 69.05135 47.83251 71.27641 48.41505 72.50649 52.50667 68.84668 52.01436 67.80606"/>
    <path class="st0" d="M47.50615,64.18566c1.61452-.45981,2.29214-1.89732,1.85376-3.43855-.43976-1.54123-1.85307-2.38341-3.38738-1.94572-1.61383.45981-2.29179,1.89663-1.85272,3.43786.45946,1.61452,1.91772,2.36543,3.38635,1.94641ZM45.20537,61.93086c-.23267-.81867.19188-1.63526,1.11772-1.8994.85393-.24339,1.67675.06223,1.95091,1.02472.2306.81037-.24927,1.65186-1.11772,1.8994-.92653.26413-1.71201-.18531-1.95091-1.02472Z"/>
    <path class="st0" d="M48.23631,56.11029l-1.82368.25722-.06188-.43907,1.64598-1.52325-.20432-1.44373-1.84062,1.80813c-.18116-.26275-.65964-.80346-1.62697-.66655-.96111.13552-1.59654.74123-1.39672,2.16284.02074.14935.22403,1.47969.26482,1.7701l5.21141-.73431-.16802-1.19136ZM44.14158,56.68695c-.04218-.24408-.06292-.3395-.08816-.51927-.08055-.57252.17355-.76059.4643-.80138.43907-.06154.65341.27243.71772.72671l.06085.43146-1.15471.16249Z"/>
    <polygon class="st0" points="47.71738 49.09075 46.58998 49.12256 46.65014 51.26465 42.51669 51.38012 42.54988 52.58323 47.81073 52.43526 47.71738 49.09075"/>
    <path class="st0" d="M47.74124,48.36612c.04633-.5013.12446-1.18928.15004-1.46655.18462-1.99966-.93552-3.11565-2.40311-3.24979-1.39291-.1293-2.67762.6057-2.87053,2.70216-.03181.34434-.09507,1.27502-.12066,1.55229l-.00933.1051,5.24183.48401.01175-.12723ZM46.77183,46.75851c-.0159.17217-.02558.27727-.05532.43284l-2.99533-.27658c-.00899-.15143.00657-.31668.01867-.44391.08954-.97355.66448-1.63734,1.63077-1.54883.99602.09265,1.49663.80277,1.40121,1.83647Z"/>
    <polygon class="st0" points="49.10269 39.76594 46.17097 37.75937 49.72672 37.6764 50.05654 36.57493 45.43804 33.64736 45.10615 34.75643 48.03234 36.57286 44.55749 36.5936 44.21073 37.75384 47.11306 39.64909 43.67451 39.54745 43.28419 40.85082 48.77322 40.86741 49.10269 39.76594"/>
    <rect class="st0" x="48.10775" y="30.42252" width="1.20389" height="5.26453" transform="translate(-1.20053 64.26733) rotate(-66.18191)"/>
    <path class="st0" d="M51.92793,32.28037c.24961-.43838.60398-1.03233.74192-1.27433.99118-1.7459.42939-3.22351-.85255-3.9516-1.2159-.69006-2.68799-.5497-3.72757,1.28125-.17148.30078-.61193,1.1229-.74918,1.36422l-.05186.09196,4.57667,2.59914.06258-.11063ZM51.47918,30.78824l-2.61573-1.48591c.05393-.14105.13621-.28557.19914-.3962.48332-.84978,1.28055-1.21902,2.12377-.73915.86984.49369,1.03267,1.34762.52031,2.24996-.08505.15004-.13691.24131-.22748.37131Z"/>
    <polygon class="st0" points="56.54332 25.15297 55.63683 24.48158 54.45032 26.08227 53.6835 25.51391 54.69025 24.15453 53.78446 23.48244 52.77633 24.84251 52.03372 24.29143 53.17529 22.75021 52.26916 22.07881 50.41125 24.58668 54.63977 27.72099 56.54332 25.15297"/>
    <polygon class="st0" points="59.52136 21.92047 58.0116 18.70457 61.11929 20.43663 61.96181 19.65254 59.46397 14.78961 58.61592 15.57717 60.21696 18.62644 57.21194 16.88261 56.32482 17.70682 57.86536 20.8114 54.953 18.98045 53.95663 19.90699 58.67919 22.70319 59.52136 21.92047"/>
    <polygon class="st0" points="66.16475 16.65098 65.52448 15.72099 63.88264 16.85219 63.34021 16.06602 64.73416 15.1056 64.09457 14.1763 62.70097 15.13672 62.17582 14.37544 63.75542 13.28642 63.11514 12.35781 60.5447 14.1279 63.53243 18.46464 66.16475 16.65098"/>
    <path class="st0" d="M68.34833,15.45409c1.00743-.5414,1.51703-1.40432.9936-2.37787-.32083-.59672-.82662-.7599-1.23215-.70458l-.00726-.01314c.22368-.41003.2344-.83457-.02524-1.31858-.34572-.64166-1.07001-.90994-2.17597-.3153-.50406.27105-1.13224.64304-1.38323.79447l2.47779,4.61055c.28557-.11962.90925-.43768,1.35246-.67554ZM68.25326,13.59203c.16768.31184.05843.60086-.35264.82144-.19879.10717-.29525.13345-.37891.15281l-.46638-.86776.41072-.22057c.34434-.18531.6306-.17701.78721.11409ZM66.55646,12.77129l-.45186-.8408c.11201-.07744.18427-.13345.31668-.20467.2586-.13967.58565-.13552.735.14244.1815.33812.02351.56837-.24823.71426l-.3516.18876Z"/>
    <path class="st0" d="M74.58101,12.79618c.67277-.23786,1.23284-.70735,1.41193-1.14641l-.73362-.69698c-.24477.36647-.59464.61746-.94866.74399-.89265.3153-1.72308-.09196-2.03492-.97079-.34641-.9777.09058-1.72308.8567-1.99412.46811-.16595.79447-.12169,1.12152-.05462l.20121-1.02887c-.40035-.18531-1.04062-.21296-1.69957.02074-1.70787.60501-2.18911,2.05981-1.68436,3.48418.54831,1.54469,1.97269,2.18842,3.50977,1.64287Z"/>
    <path class="st0" d="M78.96476,11.60068c1.56681-.33397,2.50233-1.68643,2.16975-3.24633-.34918-1.6408-1.73691-2.41452-3.30372-2.08055-1.6408.34918-2.48781,1.75143-2.17044,3.24564.34987,1.6408,1.73691,2.41452,3.30441,2.08125ZM78.06588,7.37665c.83181-.17701,1.61798.30216,1.8185,1.24391.18462.86845-.17632,1.66776-1.15471,1.87589-.8242.17563-1.63042-.36024-1.81781-1.24322-.20052-.94175.30009-1.69473,1.15402-1.87658Z"/>
    <polygon class="st0" points="85.61576 5.39635 85.80521 8.56593 83.12241 5.54501 82.1613 5.6024 82.47522 10.85876 83.60089 10.79238 83.41282 7.63801 86.09424 10.64303 87.05534 10.58633 86.74212 5.32928 85.61576 5.39635"/>
    <path class="st0" d="M89.73123,9.69713c-.36785-.02489-.81452-.22679-1.08972-.62921l-.7357.77373c.2178.57943,1.01642.93276,1.72169.97839,1.01366.06569,1.84201-.51305,1.90147-1.42852.11132-1.71132-2.09369-1.64356-2.03699-2.51409.01521-.23993.21988-.37753.55039-.3554.38997.0242.55454.17148.77234.4038l.70389-.85877c-.307-.37407-.83319-.63405-1.50804-.67831-1.05099-.06776-1.74244.59533-1.7943,1.4057-.10994,1.69611,2.08747,1.74106,2.0363,2.52861-.0159.24823-.20674.39412-.52135.37407Z"/>
    <path class="st0" d="M94.59346,11.4617c1.57303.30838,2.96353-.57044,3.26984-2.13587.32152-1.64633-.65065-2.90199-2.22437-3.20968-1.64633-.3229-2.97597.63682-3.26915,2.13518-.32221,1.64702.65134,2.90268,2.22368,3.21037ZM93.62475,8.49748c.18531-.9452.94105-1.44166,1.79775-1.27364.83457.16318,1.37044.91201,1.18583,1.85722-.1701.87053-.8159,1.46586-1.79775,1.27295-.82697-.1618-1.35869-.97079-1.18583-1.85653Z"/>
    <path class="st0" d="M99.85604,10.82903l.41971.14313.61124,2.16007,1.38012.47433-.77649-2.46223c.31737-.04287,1.01573-.22472,1.33379-1.14987.3153-.91824.06361-1.76042-1.29577-2.22783-.14244-.0484-1.42092-.47156-1.69888-.56698l-1.71132,4.98116,1.13881.39136.59879-1.74313ZM100.60211,8.65858c.23717.07329.33258.09818.50268.15627.54831.18807.60017.50061.50475.77857-.14451.41971-.54002.45843-.97355.30977l-.41279-.14175.37891-1.10285Z"/>
    <polygon class="st0" points="107.68456 11.63179 108.1665 10.61053 104.22043 8.74501 103.73711 9.76628 105.16702 10.44113 103.39692 14.1846 104.48594 14.69904 106.25535 10.95625 107.68456 11.63179"/>
    <rect class="st0" x="105.71759" y="13.19096" width="5.26463" height="1.20285" transform="translate(41.72081 100.34003) rotate(-59.6634)"/>
    <path class="st0" d="M110.40125,18.39342c.91132.66655,2.12273.74261,3.07278-.55661l1.8261-2.49335-.97148-.7108-1.68297,2.29974c-.49784.67969-.98876.98185-1.57787.55108-.679-.49784-.51167-1.1478-.02697-1.80951l1.64425-2.24512-.97148-.7108-1.7943,2.45117c-.91063,1.2446-.60985,2.42489.48194,3.2242Z"/>
    <polygon class="st0" points="113.88059 21.11563 116.24187 18.76403 115.83254 21.2318 115.95492 21.35487 118.4455 20.94415 116.06763 23.31235 116.91741 24.16559 120.64913 20.44908 119.84706 19.64424 117.19122 20.12203 117.61715 17.40535 116.76253 16.54657 113.0315 20.26377 113.88059 21.11563"/>
    <polygon class="st0" points="122.23876 32.25825 125.76097 31.79636 123.16806 34.23094 123.65829 35.27225 129.05086 34.36922 128.55786 33.321 125.16633 33.92117 127.74058 31.58686 127.22476 30.49092 123.79866 31.01711 126.42684 28.79757 125.84671 27.56611 121.74853 31.21762 122.23876 32.25825"/>
    <path class="st0" d="M126.7366,35.88625c-1.61314.45774-2.29283,1.89248-1.85514,3.43302.43699,1.54123,1.84754,2.38341,3.38116,1.94849,1.61383-.45774,2.29283-1.89317,1.85583-3.43371-.45704-1.61314-1.91322-2.36405-3.38185-1.9478ZM129.03358,38.14174c.23163.81729-.19291,1.63388-1.11945,1.89663-.85324.24201-1.67468-.0643-1.9478-1.02679-.22956-.81037.25099-1.64978,1.11876-1.89594.92584-.26275,1.70994.18669,1.94849,1.0261Z"/>
    <path class="st0" d="M125.99814,43.97753l1.82541-.25307.06085.43976-1.64978,1.51979.20121,1.44512,1.84546-1.80467c.18047.26275.65825.80415,1.62697.67001.96111-.13414,1.59862-.73915,1.40086-2.16214-.02005-.14866-.22126-1.48038-.26067-1.77079l-5.21625.72394.16595,1.19205ZM130.09564,43.40847c.04218.24477.06292.34088.08781.51927.07882.5739-.17563.76059-.46603.80207-.43976.06085-.65272-.27381-.71634-.72878l-.05946-.43215,1.15402-.16041Z"/>
    <polygon class="st0" points="126.49529 50.99775 127.62372 50.9701 127.57048 48.82731 131.70462 48.72498 131.6742 47.52187 126.41231 47.65324 126.49529 50.99775"/>
    <path class="st0" d="M126.4863,51.59585l-.01245.12723c-.04771.50199-.12861,1.18928-.15557,1.46724-.19015,1.99966.92653,3.11979,2.39516,3.25947,1.39326.13345,2.68004-.5981,2.88055-2.69525.0325-.34434.09888-1.27571.12515-1.55229l.01037-.1051-5.24322-.5013ZM130.47109,53.63215c-.09265.97424-.67001,1.63665-1.63596,1.54399-.99637-.09542-1.49559-.80761-1.39672-1.84062.01659-.17286.02627-.27796.0567-.43423l2.99533.28695c.0083.15143-.00691.31599-.01936.44391Z"/>
    <polygon class="st0" points="125.09027 60.32602 128.01923 62.34365 124.4583 62.41556 124.12502 63.51841 128.74041 66.46258 129.07506 65.35282 126.15164 63.52533 129.63099 63.51496 129.98086 62.35541 127.08163 60.44841 130.52364 60.56042 130.91776 59.25636 125.42355 59.22386 125.09027 60.32602"/>
    <rect class="st0" x="124.87501" y="64.38732" width="1.20357" height="5.26478" transform="translate(13.36463 154.58073) rotate(-66.09787)"/>
    <path class="st0" d="M122.25052,67.80329c-.24961.43768-.60501,1.03094-.7433,1.27364-.9943,1.74382-.43423,3.22282.84633,3.95229,1.21487.69283,2.68833.55454,3.73034-1.27502.17079-.30147.61331-1.12221.75091-1.36422l.05324-.09196-4.57459-2.60605-.06292.11132ZM122.69788,69.29543l2.61366,1.48937c-.05532.14244-.1376.28626-.20052.39758-.48401.84909-1.28194,1.21694-2.12481.73639-.86914-.49507-1.03094-1.3497-.5172-2.25134.08574-.15004.1376-.24201.22887-.372Z"/>
    <polygon class="st0" points="117.62407 74.90442 118.52847 75.57858 119.72052 73.97996 120.48733 74.55178 119.47506 75.90839 120.38016 76.58324 121.39243 75.22525 122.13435 75.77909 120.98725 77.31825 121.89235 77.99241 123.75925 75.488 119.53522 72.34054 117.62407 74.90442"/>
    <polygon class="st0" points="114.63288 78.14452 116.13954 81.36388 113.03288 79.62767 112.18863 80.41038 114.68059 85.28022 115.53037 84.49267 113.93245 81.43994 116.93815 83.1886 117.82597 82.36509 116.2882 79.25636 119.20056 81.09215 120.199 80.1663 115.47713 77.3625 114.63288 78.14452"/>
    <polygon class="st0" points="107.9805 83.39604 108.6187 84.32603 110.26157 83.19898 110.80159 83.98653 109.40695 84.94418 110.04515 85.87348 111.43979 84.91652 111.96391 85.67918 110.38258 86.76406 111.02078 87.69336 113.59295 85.9281 110.61559 81.5886 107.9805 83.39604"/>
    <path class="st0" d="M105.79346,84.58809c-1.00743.53863-1.5191,1.40086-.99775,2.37511.31876.59602.82489.76128,1.23077.70596l.00691.01314c-.22403.41003-.23647.83457.02282,1.31789.34365.64304,1.06828.91271,2.17528.32014.50406-.26897,1.13258-.63959,1.38427-.7917l-2.46845-4.614c-.28626.11962-.90994.43561-1.35385.67347ZM105.88474,86.44876c-.16595-.31184-.0567-.60017.35471-.82005.19844-.10717.29525-.13276.3796-.15212l.46396.86845-.41072.21988c-.34503.18392-.63129.17563-.78755-.11616ZM107.57946,87.27296l.45013.84218c-.11201.07744-.18462.13345-.31668.20328-.2586.13829-.58565.13483-.73431-.14382-.18047-.33812-.02282-.56837.2503-.71357l.35056-.18807Z"/>
    <path class="st0" d="M99.5684,87.22594c-.67347.23647-1.23423.70527-1.414,1.14365l.73155.69836c.24615-.36508.59602-.61608.95143-.74054.89335-.3153,1.72308.09404,2.03284.97355.34434.97839-.09542,1.72377-.86154,1.99343-.46742.16387-.79378.12031-1.12014.05186l-.20467,1.02818c.40035.186,1.03993.21573,1.69957-.01659,1.70994-.60225,2.19395-2.05635,1.69196-3.48142-.54417-1.54607-1.96716-2.19257-3.507-1.65048Z"/>
    <path class="st0" d="M95.16736,88.41799c-1.56819.33051-2.50579,1.68228-2.17736,3.24287.34641,1.64218,1.73276,2.41936,3.30164,2.08816,1.64149-.34572,2.49196-1.74728,2.17666-3.24287-.34572-1.64149-1.73207-2.41798-3.30095-2.08816ZM96.05863,92.64479c-.83181.17494-1.61867-.30493-1.81642-1.24736-.18323-.86914.17839-1.66845,1.15817-1.8745.82489-.17424,1.62973.3637,1.81642,1.24736.19844.94244-.30424,1.69404-1.15817,1.8745Z"/>
    <polygon class="st0" points="90.54575 89.21454 90.72967 92.36752 88.05379 89.36112 87.09337 89.41644 87.39968 94.67072 88.52604 94.60503 88.34074 91.43822 91.01731 94.45914 91.97842 94.40313 91.67142 89.14954 90.54575 89.21454"/>
    <path class="st0" d="M84.39605,90.29872c.36785.0242.81452.22818,1.08972.63129l.73777-.77303c-.2178-.58081-1.01642-.93552-1.72239-.98254-1.01366-.06845-1.84408.51029-1.90493,1.42645-.11409,1.71271,2.093,1.64771,2.03423,2.51962-.0159.23993-.22126.37753-.55246.3554-.38928-.02627-.55385-.17286-.77165-.40588l-.70596.85739c.307.37545.8325.63682,1.50804.68245,1.05099.06914,1.74451-.59257,1.79914-1.40363.1134-1.69749-2.08678-1.74659-2.03423-2.53552.01659-.24754.20674-.39274.52273-.372Z"/>
    <path class="st0" d="M79.53658,88.5224c-1.57165-.30908-2.96353.56698-3.27191,2.13103-.32429,1.64564.64719,2.90199,2.21953,3.21176,1.64494.32498,2.97597-.63198,3.27122-2.12965.32498-1.64564-.6465-2.90337-2.21884-3.21314ZM80.50115,91.488c-.186.94451-.94313,1.43959-1.79914,1.27087-.83388-.16456-1.36837-.9134-1.18237-1.85791.17148-.87122.81729-1.46448,1.79844-1.27156.82697.16318,1.3573.97286,1.18306,1.8586Z"/>
    <path class="st0" d="M74.28576,89.14263l-.41971-.14589-.60501-2.16076-1.37874-.47779.76958,2.465c-.31668.04149-1.01573.22126-1.33656,1.14434-.31806.91755-.06845,1.76042,1.28885,2.23129.14244.04909,1.41953.47571,1.6968.57182l1.72584-4.97494-1.13812-.39481-.60294,1.74175ZM73.53347,91.31099c-.23717-.07468-.33189-.09957-.50199-.15903-.54831-.19015-.59879-.50199-.50268-.77857.1452-.4204.54002-.45774.97424-.30769l.41279.14313-.38237,1.10216Z"/>
    <polygon class="st0" points="69.64825 85.2574 67.86882 88.99604 66.44133 88.31635 65.95663 89.33623 69.89786 91.21281 70.38394 90.19362 68.95611 89.51393 70.73589 85.77529 69.64825 85.2574"/>
    <rect class="st0" x="63.16691" y="85.56519" width="5.2657" height="1.20362" transform="translate(-41.8228 99.27212) rotate(-59.57622)"/>
    <path class="st0" d="M63.74401,81.54919c-.90925-.66863-2.12135-.74814-3.07623.54901l-1.8344,2.48989.9701.71426,1.69093-2.29698c.49957-.67831.99257-.97908,1.58029-.54624.679.49991.50821,1.14987.02213,1.8102l-1.65186,2.24304.9701.71357,1.80259-2.4484c.91513-1.24252.61677-2.4242-.47364-3.22835Z"/>
    <polygon class="st0" points="60.27365 78.82283 57.90995 81.1689 58.32309 78.7039 58.20174 78.58152 55.7122 78.98532 58.09215 76.62473 57.24444 75.7708 53.50995 79.47763 54.30926 80.28316 56.96371 79.80952 56.53294 82.52482 57.38549 83.38359 61.12136 79.67676 60.27365 78.82283"/>
    <path class="st0" d="M52.38394,73.51462c-.60916,0-1.12048.51098-1.12048,1.12774,0,.60916.51132,1.12844,1.12048,1.12844.61642,0,1.13535-.51927,1.13535-1.12844,0-.61677-.51893-1.12774-1.13535-1.12774Z"/>
    <path class="st0" d="M120.17247,25.58845c0,.60916.51132,1.12844,1.12048,1.12844.61642,0,1.13535-.51927,1.13535-1.12844,0-.61677-.51893-1.12774-1.13535-1.12774-.60916,0-1.12048.51098-1.12048,1.12774Z"/>
  </g>
</svg>