<?xml version="1.0" encoding="UTF-8" standalone="no"?>
<svg
   id="Layer_1"
   width="120"
   height="120"
   version="1.1"
   viewBox="0 0 59.999999 59.999999"
   xmlns="http://www.w3.org/2000/svg"
   xmlns:svg="http://www.w3.org/2000/svg">
  <!-- Generator: Adobe Illustrator 29.1.0, SVG Export Plug-In . SVG Version: 2.1.0 Build 142)  -->
  <defs
     id="defs4">
    <style
       id="style2">
      .st0 {
        fill: #005b9d;
      }

      .st1 {
        fill: #002a56;
      }

      .st2 {
        fill: #005a9c;
      }
    </style>
  </defs>
  <g
     id="g26"
     transform="matrix(0.67158085,0,0,0.67158085,-28.500466,-2.5288927)">
    <g
       id="g18">
      <path
         class="st2"
         d="M 67.75449,60.52713 H 68.61387 L 71.2418,64.11502 73.76035,60.52713 H 74.56992 V 67.52322 H 73.72129 V 61.86599 L 71.2418,65.34451 H 71.11192 L 68.60411,61.89627 V 67.52322 H 67.7545 V 60.52713 Z"
         id="path6" />
      <path
         class="st2"
         d="M 76.56406,60.52713 H 80.51133 V 61.32693 H 77.41367 V 63.58572 H 80.21152 V 64.38455 H 77.41367 V 66.72342 H 80.61191 V 67.52322 H 76.56406 Z"
         id="path8" />
      <path
         class="st2"
         d="M 82.20469,60.52713 H 83.06407 L 85.692,64.11502 88.21055,60.52713 H 89.02012 V 67.52322 H 88.17149 V 61.86599 L 85.692,65.34451 H 85.56212 L 83.05431,61.89627 V 67.52322 H 82.2047 V 60.52713 Z"
         id="path10" />
      <path
         class="st2"
         d="M 91.01426,60.53689 C 91.40391,60.52712 92.28281,60.49685 92.93321,60.49685 94.60216,60.49685 95.18126,61.25662 95.18126,62.22634 95.18126,63.10525 94.65196,63.62575 93.98204,63.84548 V 63.86501 C 94.85216,64.00563 95.43126,64.56521 95.43126,65.52419 95.43126,66.94314 94.34239,67.55349 92.89317,67.55349 92.27306,67.55349 91.42345,67.53298 91.01427,67.51345 V 60.53689 Z M 91.86387,61.32693 V 63.58572 H 92.98301 C 93.72227,63.58572 94.33164,63.17556 94.33164,62.4158 94.33164,61.68631 93.84238,61.29666 92.91269,61.29666 92.54257,61.29666 92.11289,61.31619 91.86386,61.32693 Z M 91.86387,64.33475 V 66.71366 C 92.09336,66.73319 92.54258,66.7537 92.94297,66.7537 93.97227,66.7537 94.58164,66.33378 94.58164,65.4744 94.58164,64.73514 94.00254,64.33475 92.99277,64.33475 H 91.86386 Z"
         id="path12" />
      <path
         class="st2"
         d="M 97.0748,60.52713 H 101.02207 V 61.32693 H 97.92441 V 63.58572 H 100.72226 V 64.38455 H 97.92441 V 66.72342 H 101.12265 V 67.52322 H 97.0748 Z"
         id="path14" />
      <path
         class="st2"
         d="M 102.71445,67.52322 V 60.52713 C 103.1041,60.52713 104.39315,60.50662 104.59336,60.50662 106.50156,60.50662 107.08164,61.45682 107.08164,62.58572 107.08164,63.67556 106.33164,64.36502 105.56211,64.56521 L 107.89121,67.52322 H 106.85215 L 104.70274,64.72439 H 103.56407 V 67.52322 H 102.71446 Z M 103.56406,61.32693 V 63.92556 H 104.59336 C 105.40293,63.92556 106.18223,63.42556 106.18223,62.59548 106.18223,61.87673 105.78282,61.30642 104.54356,61.30642 104.32286,61.30642 103.89316,61.31619 103.56407,61.32693 Z"
         id="path16" />
    </g>
    <g
       id="g24">
      <path
         class="st0"
         d="M 103.62052,48.30954 C 102.77709,47.64005 101.54569,47.78242 100.87619,48.62585 100.04695,49.67136 99.29377,50.30067 98.43514,50.66695 96.85161,51.34079 95.50933,51.056 94.21164,49.7703 92.94001,48.51064 91.70102,47.13798 90.49896,45.80764 89.91097,45.15663 89.32193,44.50453 88.72525,43.86002 87.70579,42.75906 86.68092,41.66242 85.65708,40.5647 L 85.56684,40.46795 C 83.33991,38.08452 81.03797,35.61954 78.81755,33.1437 77.05687,31.17976 74.33649,30.20701 71.71934,30.60046 69.04458,31.00043 66.88175,32.71223 65.62863,35.41956 64.42116,38.02691 64.82981,40.98965 66.69373,43.15138 69.97277,46.95428 72.73882,50.09851 75.97867,53.05585 77.30356,54.2644 78.90668,54.90781 80.61408,54.9165 81.7216,54.92196 83.39098,54.79698 85.09408,53.65033 85.83967,53.14824 86.53416,52.63195 86.83957,51.84399 87.15042,51.03758 86.86021,50.11051 86.13204,49.58773 85.42557,49.07908 84.4985,49.11492 83.82466,49.67466 83.73986,49.74527 83.64746,49.82682 83.54643,49.91488 82.48784,50.84195 81.17053,51.99615 78.48493,50.06807 76.02434,48.30086 74.11912,45.98479 71.91171,43.30247 71.19221,42.42861 70.44772,41.52436 69.65216,40.60052 68.80223,39.61478 68.61854,38.25841 69.17284,37.0596 69.65651,36.01624 70.59009,34.71853 72.29863,34.46315 73.59303,34.26857 75.04399,34.78589 75.91022,35.75106 78.14914,38.24863 80.46846,40.73314 82.71169,43.13398 83.76269,44.25889 84.81364,45.38484 85.85921,46.51411 86.44505,47.14667 87.02325,47.78677 87.61014,48.43672 88.84264,49.80074 90.1164,51.21038 91.46193,52.54395 93.89103,54.95127 96.91028,55.56101 99.96761,54.26006 101.43595,53.63294 102.69779,52.61456 103.93677,51.05278 104.60515,50.21049 104.46389,48.98014 103.62052,48.30955 Z"
         id="path20"
         style="fill:#005a9c;fill-opacity:1" />
      <path
         class="st0"
         d="M 106.6766,37.45999 C 107.93952,36.86112 108.93292,35.73404 109.02746,34.36678 109.26766,31.99315 107.3135,29.72163 104.43877,29.37054 102.67375,29.14668 101.03586,29.66946 99.87513,30.63133 99.25455,31.14757 99.08715,32.10293 99.62513,32.77677 100.2131,33.47778 100.8913,33.60055 102.00101,32.99089 102.39877,32.76482 102.99656,32.57678 103.6541,32.6224 104.89419,32.70831 105.24957,33.82557 105.2148,34.33311 105.20934,34.40812 105.21699,36.13835 103.47042,36.01772 L 102.81178,35.9721 C 102.07817,35.92207 101.34452,36.6079 101.29021,37.39256 101.23149,38.22731 101.84232,38.95655 102.602,39.00983 L 103.4117,39.06524 C 105.63979,39.21959 105.40718,41.11068 105.36046,41.41285 105.31699,42.28232 103.92145,43.75715 101.43258,42.08013 100.58809,41.51173 94.56478,33.94617 94.56478,33.94617 91.71075,30.25634 86.86121,29.60639 83.03442,32.40177 82.61383,32.70933 82.33665,33.16254 82.25624,33.67884 82.1769,34.19397 82.30188,34.71025 82.60947,35.13084 82.91703,35.55143 83.37026,35.82861 83.88544,35.90902 84.40383,35.98947 84.91792,35.86338 85.33855,35.55579 87.94915,33.6484 90.27608,34.7852 91.47269,36.33291 91.47269,36.33291 97.93948,44.65055 99.60452,45.53197 100.68486,46.10368 101.81302,46.43406 102.95961,46.51343 106.47885,46.75686 108.62208,44.81792 109.20033,42.16168 109.57959,40.42055 108.45363,38.2447 106.67663,37.45997 Z"
         id="path22" />
    </g>
  </g>
  <g
     id="g120"
     transform="matrix(0.67158085,0,0,0.67158085,-28.500454,-3.200479)">
    <polygon
       class="st1"
       points="48.41505,71.9428 52.50667,68.28299 52.01436,67.24237 48.49215,67.71186 51.08091,65.27175 50.5886,64.23182 45.19638,65.14591 45.69249,66.19276 49.08264,65.58498 46.51323,67.92621 47.03113,69.02007 50.45654,68.48766 47.83251,70.71272 "
       id="polygon28" />
    <path
       class="st1"
       d="M 47.50615,63.62197 C 49.12067,63.16216 49.79829,61.72465 49.35991,60.18342 48.92015,58.64219 47.50684,57.80001 45.97253,58.2377 44.3587,58.69751 43.68074,60.13433 44.11981,61.67556 44.57927,63.29008 46.03753,64.04099 47.50616,63.62197 Z M 45.20537,61.36717 C 44.9727,60.5485 45.39725,59.73191 46.32309,59.46777 47.17702,59.22438 47.99984,59.53 48.274,60.49249 48.5046,61.30286 48.02473,62.14435 47.15628,62.39189 46.22975,62.65602 45.44427,62.20658 45.20537,61.36717 Z"
       id="path30" />
    <path
       class="st1"
       d="M 48.23631,55.5466 46.41263,55.80382 46.35075,55.36475 47.99673,53.8415 47.79241,52.39777 45.95179,54.2059 C 45.77063,53.94315 45.29215,53.40244 44.32482,53.53935 43.36371,53.67487 42.72828,54.28058 42.9281,55.70219 42.94884,55.85154 43.15213,57.18188 43.19292,57.47229 L 48.40433,56.73798 48.23631,55.54662 Z M 44.14158,56.12326 C 44.0994,55.87918 44.07866,55.78376 44.05342,55.60399 43.97287,55.03147 44.22697,54.8434 44.51772,54.80261 44.95679,54.74107 45.17113,55.07504 45.23544,55.52932 L 45.29629,55.96078 44.14158,56.12327 Z"
       id="path32" />
    <polygon
       class="st1"
       points="47.81073,51.87158 47.71738,48.52706 46.58998,48.55887 46.65014,50.70096 42.51669,50.81643 42.54988,52.01954 "
       id="polygon34" />
    <path
       class="st1"
       d="M 47.74124,47.80243 C 47.78757,47.30113 47.8657,46.61315 47.89128,46.33588 48.0759,44.33622 46.95576,43.22023 45.48817,43.08609 44.09526,42.95679 42.81055,43.69179 42.61764,45.78825 42.58583,46.13259 42.52257,47.06327 42.49698,47.34054 L 42.48765,47.44564 47.72948,47.92965 47.74123,47.80242 Z M 46.77183,46.19482 C 46.75593,46.36699 46.74625,46.47209 46.71651,46.62766 L 43.72118,46.35108 C 43.71219,46.19965 43.72775,46.0344 43.73985,45.90717 43.82939,44.93362 44.40433,44.26983 45.37062,44.35834 46.36664,44.45099 46.86725,45.16111 46.77183,46.19481 Z"
       id="path36" />
    <polygon
       class="st1"
       points="43.28419,40.28713 48.77322,40.30372 49.10269,39.20225 46.17097,37.19568 49.72672,37.11271 50.05654,36.01124 45.43804,33.08367 45.10615,34.19274 48.03234,36.00917 44.55749,36.02991 44.21073,37.19015 47.11306,39.0854 43.67451,38.98376 "
       id="polygon38" />
    <rect
       class="st1"
       x="48.10775"
       y="29.858841"
       width="1.20389"
       height="5.2645302"
       transform="rotate(-66.18191,48.709693,32.4911)"
       id="rect40" />
    <path
       class="st1"
       d="M 51.92793,31.71668 C 52.17754,31.2783 52.53191,30.68435 52.66985,30.44235 53.66103,28.69645 53.09924,27.21884 51.8173,26.49075 50.6014,25.80069 49.12931,25.94105 48.08973,27.772 47.91825,28.07278 47.4778,28.8949 47.34055,29.13622 L 47.28869,29.22818 51.86536,31.82732 51.92794,31.71669 Z M 51.47918,30.22455 48.86345,28.73864 C 48.91738,28.59759 48.99966,28.45307 49.06259,28.34244 49.54591,27.49266 50.34314,27.12342 51.18636,27.60329 52.0562,28.09698 52.21903,28.95091 51.70667,29.85325 51.62162,30.00329 51.56976,30.09456 51.47919,30.22456 Z"
       id="path42" />
    <polygon
       class="st1"
       points="54.63977,27.1573 56.54332,24.58928 55.63683,23.91789 54.45032,25.51858 53.6835,24.95022 54.69025,23.59084 53.78446,22.91876 52.77633,24.27882 52.03372,23.72774 53.17529,22.18652 52.26916,21.51512 50.41125,24.02299 "
       id="polygon44" />
    <polygon
       class="st1"
       points="53.95663,19.3433 58.67919,22.1395 59.52136,21.35678 58.0116,18.14088 61.11929,19.87295 61.96181,19.08885 59.46397,14.22593 58.61592,15.01348 60.21696,18.06275 57.21194,16.31893 56.32482,17.14313 57.86536,20.24771 54.953,18.41677 "
       id="polygon46" />
    <polygon
       class="st1"
       points="63.53243,17.90095 66.16475,16.08729 65.52448,15.1573 63.88264,16.2885 63.34021,15.50233 64.73416,14.54192 64.09457,13.61261 62.70097,14.57303 62.17582,13.81175 63.75542,12.72273 63.11514,11.79412 60.5447,13.56421 "
       id="polygon48" />
    <path
       class="st1"
       d="M 68.34833,14.8904 C 69.35576,14.349 69.86536,13.48608 69.34193,12.51253 69.0211,11.91581 68.51531,11.75263 68.10978,11.80795 L 68.10252,11.79481 C 68.3262,11.38478 68.33692,10.96024 68.07728,10.47623 67.73156,9.83457 67.00727,9.56629 65.90131,10.16093 65.39725,10.43198 64.76907,10.80397 64.51808,10.9554 L 66.99587,15.56595 C 67.28144,15.44633 67.90512,15.12827 68.34833,14.89041 Z M 68.25326,13.02834 C 68.42094,13.34018 68.31169,13.6292 67.90062,13.84978 67.70183,13.95695 67.60537,13.98323 67.52171,14.00259 L 67.05533,13.13483 67.46605,12.91426 C 67.81039,12.72895 68.09665,12.73725 68.25326,13.02835 Z M 66.55646,12.2076 66.1046,11.3668 C 66.21661,11.28936 66.28887,11.23335 66.42128,11.16213 66.67988,11.02246 67.00693,11.02661 67.15628,11.30457 67.33778,11.64269 67.17979,11.87294 66.90805,12.01883 L 66.55645,12.20759 Z"
       id="path50" />
    <path
       class="st1"
       d="M 74.58101,12.23249 C 75.25378,11.99463 75.81385,11.52514 75.99294,11.08608 L 75.25932,10.3891 C 75.01455,10.75557 74.66468,11.00656 74.31066,11.13309 73.41801,11.44839 72.58758,11.04113 72.27574,10.1623 71.92933,9.1846 72.36632,8.43922 73.13244,8.16818 73.60055,8.00223 73.92691,8.04649 74.25396,8.11356 L 74.45517,7.08469 C 74.05482,6.89938 73.41455,6.87173 72.7556,7.10543 71.04773,7.71044 70.56649,9.16524 71.07124,10.58961 71.61955,12.1343 73.04393,12.77803 74.58101,12.23248 Z"
       id="path52" />
    <path
       class="st1"
       d="M 78.96476,11.03699 C 80.53157,10.70302 81.46709,9.35056 81.13451,7.79066 80.78533,6.14986 79.3976,5.37614 77.83079,5.71011 76.18999,6.05929 75.34298,7.46154 75.66035,8.95575 76.01022,10.59655 77.39726,11.37027 78.96476,11.037 Z M 78.06588,6.81296 C 78.89769,6.63595 79.68386,7.11512 79.88438,8.05687 80.069,8.92532 79.70806,9.72463 78.72967,9.93276 77.90547,10.10839 77.09925,9.57252 76.91186,8.68954 76.71134,7.74779 77.21195,6.99481 78.06588,6.81296 Z"
       id="path54" />
    <polygon
       class="st1"
       points="85.80521,8.00224 83.12241,4.98132 82.1613,5.03871 82.47522,10.29507 83.60089,10.22869 83.41282,7.07432 86.09424,10.07934 87.05534,10.02264 86.74212,4.76559 85.61576,4.83266 "
       id="polygon56" />
    <path
       class="st1"
       d="M 89.73123,9.13344 C 89.36338,9.10855 88.91671,8.90665 88.64151,8.50423 L 87.90581,9.27796 C 88.12361,9.85739 88.92223,10.21072 89.6275,10.25635 90.64116,10.32204 91.46951,9.7433 91.52897,8.82783 91.64029,7.11651 89.43528,7.18427 89.49198,6.31374 89.50719,6.07381 89.71186,5.93621 90.04237,5.95834 90.43234,5.98254 90.59691,6.12982 90.81471,6.36214 L 91.5186,5.50337 C 91.2116,5.1293 90.68541,4.86932 90.01056,4.82506 88.95957,4.7573 88.26812,5.42039 88.21626,6.23076 88.10632,7.92687 90.30373,7.97182 90.25256,8.75937 90.23666,9.0076 90.04582,9.15349 89.73121,9.13344 Z"
       id="path58" />
    <path
       class="st1"
       d="M 94.59346,10.89801 C 96.16649,11.20639 97.55699,10.32757 97.8633,8.76214 98.18482,7.11581 97.21265,5.86015 95.63893,5.55246 93.9926,5.22956 92.66296,6.18928 92.36978,7.68764 92.04757,9.33466 93.02112,10.59032 94.59346,10.89801 Z M 93.62475,7.93379 C 93.81006,6.98859 94.5658,6.49213 95.4225,6.66015 96.25707,6.82333 96.79294,7.57216 96.60833,8.51737 96.43823,9.3879 95.79243,9.98323 94.81058,9.79032 93.98361,9.62852 93.45189,8.81953 93.62475,7.93379 Z"
       id="path60" />
    <path
       class="st1"
       d="M 99.85604,10.26534 100.27575,10.40847 100.88699,12.56854 102.26711,13.04287 101.49062,10.58064 C 101.80799,10.53777 102.50635,10.35592 102.82441,9.43077 103.13971,8.51253 102.88802,7.67035 101.52864,7.20294 101.3862,7.15454 100.10772,6.73138 99.82976,6.63596 L 98.11844,11.61712 99.25725,12.00848 99.85604,10.26535 Z M 100.60211,8.09489 C 100.83928,8.16818 100.93469,8.19307 101.10479,8.25116 101.6531,8.43923 101.70496,8.75177 101.60954,9.02973 101.46503,9.44944 101.06952,9.48816 100.63599,9.3395 L 100.2232,9.19775 100.60211,8.0949 Z"
       id="path62" />
    <polygon
       class="st1"
       points="103.73711,9.20259 105.16702,9.87744 103.39692,13.62091 104.48594,14.13535 106.25535,10.39256 107.68456,11.0681 108.1665,10.04684 104.22043,8.18132 "
       id="polygon64" />
    <rect
       class="st1"
       x="105.71759"
       y="12.62727"
       width="5.2646298"
       height="1.20285"
       transform="rotate(-59.6634,108.34992,13.228686)"
       id="rect66" />
    <path
       class="st1"
       d="M 110.40125,17.82973 C 111.31257,18.49628 112.52398,18.57234 113.47403,17.27312 L 115.30013,14.77977 114.32865,14.06897 112.64568,16.36871 C 112.14784,17.0484 111.65692,17.35056 111.06781,16.91979 110.38881,16.42195 110.55614,15.77199 111.04084,15.11028 L 112.68509,12.86516 111.71361,12.15436 109.91931,14.60553 C 109.00868,15.85013 109.30946,17.03042 110.40125,17.82973 Z"
       id="path68" />
    <polygon
       class="st1"
       points="116.76253,15.98288 113.0315,19.70008 113.88059,20.55194 116.24187,18.20034 115.83254,20.66811 115.95492,20.79118 118.4455,20.38047 116.06763,22.74866 116.91741,23.6019 120.64913,19.88539 119.84706,19.08055 117.19122,19.55834 117.61715,16.84166 "
       id="polygon70" />
    <polygon
       class="st1"
       points="125.84671,27.00242 121.74853,30.65394 122.23876,31.69456 125.76097,31.23267 123.16806,33.66725 123.65829,34.70856 129.05086,33.80554 128.55786,32.75731 125.16633,33.35748 127.74058,31.02317 127.22476,29.92723 123.79866,30.45342 126.42684,28.23388 "
       id="polygon72" />
    <path
       class="st1"
       d="M 126.7366,35.32256 C 125.12346,35.7803 124.44377,37.21504 124.88146,38.75558 125.31845,40.29681 126.729,41.13899 128.26262,40.70407 129.87645,40.24633 130.55545,38.8109 130.11845,37.27036 129.66141,35.65722 128.20523,34.90631 126.7366,35.32256 Z M 129.03358,37.57805 C 129.26521,38.39534 128.84067,39.21193 127.91413,39.47468 127.06089,39.71669 126.23945,39.41038 125.96633,38.44789 125.73677,37.63752 126.21732,36.79811 127.08509,36.55195 128.01093,36.2892 128.79503,36.73864 129.03358,37.57805 Z"
       id="path74" />
    <path
       class="st1"
       d="M 125.99814,43.41384 127.82355,43.16077 127.8844,43.60053 126.23462,45.12032 126.43583,46.56544 128.28129,44.76077 C 128.46176,45.02352 128.93954,45.56492 129.90826,45.43078 130.86937,45.29664 131.50688,44.69163 131.30912,43.26864 131.28907,43.11998 131.08786,41.78826 131.04845,41.49785 L 125.8322,42.22179 125.99815,43.41384 Z M 130.09564,42.84478 C 130.13782,43.08955 130.15856,43.18566 130.18345,43.36405 130.26227,43.93795 130.00782,44.12464 129.71742,44.16612 129.27766,44.22697 129.0647,43.89231 129.00108,43.43734 L 128.94162,43.00519 Z"
       id="path76" />
    <polygon
       class="st1"
       points="126.41231,47.08955 126.49529,50.43406 127.62372,50.40641 127.57048,48.26362 131.70462,48.16129 131.6742,46.95818 "
       id="polygon78" />
    <path
       class="st1"
       d="M 126.4863,51.03216 126.47385,51.15939 C 126.42614,51.66138 126.34524,52.34867 126.31828,52.62663 126.12813,54.62629 127.24481,55.74642 128.71344,55.8861 130.1067,56.01955 131.39348,55.288 131.59399,53.19085 131.62649,52.84651 131.69287,51.91514 131.71914,51.63856 L 131.72951,51.53346 126.48629,51.03216 Z M 130.47109,53.06846 C 130.37844,54.0427 129.80108,54.70511 128.83513,54.61245 127.83876,54.51703 127.33954,53.80484 127.43841,52.77183 127.455,52.59897 127.46468,52.49387 127.49511,52.3376 L 130.49044,52.62455 C 130.49874,52.77598 130.48353,52.94054 130.47108,53.06846 Z"
       id="path80" />
    <polygon
       class="st1"
       points="130.91776,58.69267 125.42355,58.66017 125.09027,59.76233 128.01923,61.77996 124.4583,61.85187 124.12502,62.95473 128.74041,65.89889 129.07506,64.78913 126.15164,62.96164 129.63099,62.95127 129.98086,61.79172 127.08163,59.88472 130.52364,59.99673 "
       id="polygon82" />
    <rect
       class="st1"
       x="124.87501"
       y="63.823631"
       width="1.20357"
       height="5.26478"
       transform="rotate(-66.09787,125.47679,66.456023)"
       id="rect84" />
    <path
       class="st1"
       d="M 122.25052,67.2396 C 122.00091,67.67728 121.64551,68.27054 121.50722,68.51324 120.51292,70.25706 121.07299,71.73606 122.35355,72.46553 123.56842,73.15836 125.04188,73.02007 126.08389,71.19051 126.25468,70.88904 126.6972,70.0683 126.8348,69.82629 L 126.88804,69.73433 122.31345,67.12828 122.25053,67.2396 Z M 122.69788,68.73174 125.31154,70.22111 C 125.25622,70.36355 125.17394,70.50737 125.11102,70.61869 124.62701,71.46778 123.82908,71.83563 122.98621,71.35508 122.11707,70.86001 121.95527,70.00538 122.46901,69.10374 122.55475,68.9537 122.60661,68.86173 122.69788,68.73174 Z"
       id="path86" />
    <polygon
       class="st1"
       points="119.53522,71.77686 117.62407,74.34073 118.52847,75.01489 119.72052,73.41627 120.48733,73.98809 119.47506,75.3447 120.38016,76.01955 121.39243,74.66156 122.13435,75.2154 120.98725,76.75456 121.89235,77.42872 123.75925,74.92431 "
       id="polygon88" />
    <polygon
       class="st1"
       points="120.199,79.60261 115.47713,76.79881 114.63288,77.58083 116.13954,80.8002 113.03288,79.06398 112.18863,79.84669 114.68059,84.71653 115.53037,83.92898 113.93245,80.87625 116.93815,82.62492 117.82597,81.80141 116.2882,78.69268 119.20056,80.52846 "
       id="polygon90" />
    <polygon
       class="st1"
       points="110.61559,81.02491 107.9805,82.83235 108.6187,83.76234 110.26157,82.63529 110.80159,83.42284 109.40695,84.38049 110.04515,85.30979 111.43979,84.35283 111.96391,85.1155 110.38258,86.20037 111.02078,87.12967 113.59295,85.36441 "
       id="polygon92" />
    <path
       class="st1"
       d="M 105.79346,84.0244 C 104.78603,84.56303 104.27436,85.42526 104.79571,86.39951 105.11447,86.99553 105.6206,87.16079 106.02648,87.10547 L 106.03339,87.11861 C 105.80936,87.52864 105.79692,87.95318 106.05621,88.4365 106.39986,89.07954 107.12449,89.34921 108.23149,88.75664 108.73555,88.48767 109.36407,88.11705 109.61576,87.96494 L 107.14731,83.35094 C 106.86105,83.47056 106.23737,83.78655 105.79346,84.02441 Z M 105.88474,85.88507 C 105.71879,85.57323 105.82804,85.2849 106.23945,85.06502 106.43789,84.95785 106.5347,84.93226 106.61905,84.9129 L 107.08301,85.78135 106.67229,86.00123 C 106.32726,86.18515 106.041,86.17686 105.88474,85.88507 Z M 107.57946,86.70927 108.02959,87.55145 C 107.91758,87.62889 107.84497,87.6849 107.71291,87.75473 107.45431,87.89302 107.12726,87.88956 106.9786,87.61091 106.79813,87.27279 106.95578,87.04254 107.2289,86.89734 Z"
       id="path94" />
    <path
       class="st1"
       d="M 99.5684,86.66225 C 98.89493,86.89872 98.33417,87.36752 98.1544,87.8059 L 98.88595,88.50426 C 99.1321,88.13918 99.48197,87.88818 99.83738,87.76372 100.73073,87.44842 101.56046,87.85776 101.87022,88.73727 102.21456,89.71566 101.7748,90.46104 101.00868,90.7307 100.54126,90.89457 100.2149,90.85101 99.88854,90.78256 L 99.68387,91.81074 C 100.08422,91.99674 100.7238,92.02647 101.38344,91.79415 103.09338,91.1919 103.57739,89.7378 103.0754,88.31273 102.53123,86.76666 101.10824,86.12016 99.5684,86.66225 Z"
       id="path96" />
    <path
       class="st1"
       d="M 95.16736,87.8543 C 93.59917,88.18481 92.66157,89.53658 92.99,91.09717 93.33641,92.73935 94.72276,93.51653 96.29164,93.18533 97.93313,92.83961 98.7836,91.43805 98.4683,89.94246 98.12258,88.30097 96.73623,87.52448 95.16735,87.8543 Z M 96.05863,92.0811 C 95.22682,92.25604 94.43996,91.77617 94.24221,90.83374 94.05898,89.9646 94.4206,89.16529 95.40038,88.95924 96.22527,88.785 97.03011,89.32294 97.2168,90.2066 97.41524,91.14904 96.91256,91.90064 96.05863,92.0811 Z"
       id="path98" />
    <polygon
       class="st1"
       points="90.72967,91.80383 88.05379,88.79743 87.09337,88.85275 87.39968,94.10703 88.52604,94.04134 88.34074,90.87453 91.01731,93.89545 91.97842,93.83944 91.67142,88.58585 90.54575,88.65085 "
       id="polygon100" />
    <path
       class="st1"
       d="M 84.39605,89.73503 C 84.7639,89.75923 85.21057,89.96321 85.48577,90.36632 L 86.22354,89.59329 C 86.00574,89.01248 85.20712,88.65777 84.50115,88.61075 83.48749,88.5423 82.65707,89.12104 82.59622,90.0372 82.48213,91.74991 84.68922,91.68491 84.63045,92.55682 84.61455,92.79675 84.40919,92.93435 84.07799,92.91222 83.68871,92.88595 83.52414,92.73936 83.30634,92.50634 L 82.60038,93.36373 C 82.90738,93.73918 83.43288,94.00055 84.10842,94.04618 85.15941,94.11532 85.85293,93.45361 85.90756,92.64255 86.02096,90.94506 83.82078,90.89596 83.87333,90.10703 83.88992,89.85949 84.08007,89.71429 84.39606,89.73503 Z"
       id="path102" />
    <path
       class="st1"
       d="M 79.53658,87.95871 C 77.96493,87.64963 76.57305,88.52569 76.26467,90.08974 75.94038,91.73538 76.91186,92.99173 78.4842,93.3015 80.12914,93.62648 81.46017,92.66952 81.75542,91.17185 82.0804,89.52621 81.10892,88.26848 79.53658,87.95871 Z M 80.50115,90.92431 C 80.31515,91.86882 79.55802,92.3639 78.70201,92.19518 77.86813,92.03062 77.33364,91.28178 77.51964,90.33727 77.69112,89.46605 78.33693,88.87279 79.31808,89.06571 80.14505,89.22889 80.67538,90.03857 80.50114,90.92431 Z"
       id="path104" />
    <path
       class="st1"
       d="M 74.28576,88.57894 73.86605,88.43305 73.26104,86.27229 71.8823,85.7945 72.65188,88.2595 C 72.3352,88.30099 71.63615,88.48076 71.31532,89.40384 70.99726,90.32139 71.24687,91.16426 72.60417,91.63513 72.74661,91.68422 74.0237,92.11084 74.30097,92.20695 L 76.02681,87.23201 74.88869,86.8372 74.28575,88.57895 Z M 73.53347,90.7473 C 73.2963,90.67262 73.20158,90.64773 73.03148,90.58827 72.48317,90.39812 72.43269,90.08628 72.5288,89.8097 72.674,89.3893 73.06882,89.35196 73.50304,89.50201 L 73.91583,89.64514 73.53346,90.7473 Z"
       id="path106" />
    <polygon
       class="st1"
       points="65.95663,88.77254 69.89786,90.64912 70.38394,89.62993 68.95611,88.95024 70.73589,85.21161 69.64825,84.69371 67.86882,88.43235 66.44133,87.75266 "
       id="polygon108" />
    <rect
       class="st1"
       x="63.166908"
       y="85.001503"
       width="5.2656999"
       height="1.20362"
       transform="rotate(-59.57622,65.799768,85.603312)"
       id="rect110" />
    <path
       class="st1"
       d="M 63.74401,80.9855 C 62.83476,80.31687 61.62266,80.23736 60.66778,81.53451 L 58.83338,84.0244 59.80348,84.73866 61.49441,82.44168 C 61.99398,81.76337 62.48698,81.4626 63.0747,81.89544 63.7537,82.39535 63.58291,83.04531 63.09683,83.70564 L 61.44497,85.94868 62.41507,86.66225 64.21766,84.21385 C 65.13279,82.97133 64.83443,81.78965 63.74402,80.9855 Z"
       id="path112" />
    <polygon
       class="st1"
       points="57.38549,82.8199 61.12136,79.11307 60.27365,78.25914 57.90995,80.60521 58.32309,78.14021 58.20174,78.01783 55.7122,78.42163 58.09215,76.06104 57.24444,75.20711 53.50995,78.91394 54.30926,79.71947 56.96371,79.24583 56.53294,81.96113 "
       id="polygon114" />
    <path
       class="st1"
       d="M 52.38394,72.95093 C 51.77478,72.95093 51.26346,73.46191 51.26346,74.07867 51.26346,74.68783 51.77478,75.20711 52.38394,75.20711 53.00036,75.20711 53.51929,74.68784 53.51929,74.07867 53.51929,73.4619 53.00036,72.95093 52.38394,72.95093 Z"
       id="path116" />
    <path
       class="st1"
       d="M 120.17247,25.02476 C 120.17247,25.63392 120.68379,26.1532 121.29295,26.1532 121.90937,26.1532 122.4283,25.63393 122.4283,25.02476 122.4283,24.40799 121.90937,23.89702 121.29295,23.89702 120.68379,23.89702 120.17247,24.408 120.17247,25.02476 Z"
       id="path118" />
  </g>
</svg>
