<?xml version="1.0" encoding="UTF-8" standalone="no"?>
<svg xmlns:dc="http://purl.org/dc/elements/1.1/" xmlns:cc="http://creativecommons.org/ns#" xmlns:rdf="http://www.w3.org/1999/02/22-rdf-syntax-ns#" xmlns:svg="http://www.w3.org/2000/svg" xmlns="http://www.w3.org/2000/svg" version="1.1" viewBox="0 0 72 48" id="svg36" width="72" height="48">
  <metadata id="metadata1654">
    <rdf:RDF>
      <cc:Work rdf:about="">
        <dc:format>image/svg+xml</dc:format>
        <dc:type rdf:resource="http://purl.org/dc/dcmitype/StillImage" />
        <dc:title></dc:title>
      </cc:Work>
    </rdf:RDF>
  </metadata>
  <defs id="defs1652" />
  <rect fill-rule="evenodd" width="72" fill="#ffffff" clip-rule="evenodd" height="48" id="rect4" x="0" y="0" style="shape-rendering:geometricPrecision" />
  <g id="g2981" transform="translate(1.5000002,1.1157589)">
    <path d="M 0.5322266,1.0648303 10.063477,33.234752 h 0.396485 l 5.95703,-19.935547 5.958984,19.935547 h 0.396485 L 29.915039,9.1292832 c 1.364136,-4.603602 0.687308,-4.09375 4.757812,-4.09375 h 3.357422 L 31.393554,16.555065 h 2.664063 c 1.721607,0 3.534281,0.621234 4.488281,1.865234 0.133648,0.172602 0.253747,0.360478 0.365234,0.55664 0.02583,0.04519 0.04955,0.09224 0.07422,0.138672 0.104919,0.198597 0.202906,0.404193 0.28711,0.625 0.334699,0.878194 0.503906,1.933265 0.503906,3.167969 0,1.748 -0.384344,3.243281 -1.152344,4.488281 -0.208483,0.337699 -0.430231,0.625068 -0.664062,0.871094 -0.149564,0.157361 -0.305105,0.293883 -0.464844,0.414063 -0.01343,0.01005 -0.02751,0.01951 -0.04102,0.0293 -0.16287,0.11871 -0.328479,0.220536 -0.501953,0.300781 -0.158112,0.07314 -0.323214,0.125 -0.490234,0.166015 -0.04266,0.01039 -0.08568,0.01904 -0.128907,0.02734 -0.171803,0.03328 -0.346243,0.05664 -0.527343,0.05664 -0.0081,0 -0.01537,-0.0019 -0.02344,-0.002 -0.0081,-4.1e-5 -0.01539,-0.0019 -0.02344,-0.002 -0.0041,-3.9e-5 -0.0078,-0.0015 -0.01172,-0.002 -0.0094,-1.18e-4 -0.01799,-0.0018 -0.02734,-0.002 -0.238184,-0.0043 -0.471291,-0.0224 -0.695312,-0.0625 -0.0013,-2.26e-4 -0.0027,2.27e-4 -0.0039,0 -0.06129,-0.01103 -0.117505,-0.03511 -0.177734,-0.04883 -0.01254,-0.0028 -0.02493,-0.0059 -0.03711,-0.0098 -0.01528,-0.0037 -0.02971,-0.0098 -0.04492,-0.01367 -0.152838,-0.03546 -0.306311,-0.06965 -0.451172,-0.125 -0.228292,-0.08723 -0.447099,-0.195603 -0.658203,-0.326172 -0.211107,-0.130346 -0.413662,-0.282644 -0.607425,-0.456807 -0.414242,-0.450082 -0.72618,-0.961707 -1.056641,-1.460938 h -4.054687 c 0.274888,0.816985 0.616402,1.555996 1.009765,2.234375 l -0.01172,0.02148 c 0.04254,0.07684 0.09949,0.148778 0.146484,0.22461 0.280031,0.454876 0.581602,0.886262 0.917969,1.27539 0.299571,0.346562 0.620593,0.666438 0.964844,0.960938 0.171266,0.146622 0.346691,0.28372 0.52539,0.412109 0,0 0.002,0.002 0.002,0.002 0.177989,0.127783 0.35957,0.245774 0.544922,0.355469 0.115046,0.06809 0.233683,0.126384 0.351563,0.1875 0.01577,0.0082 0.03106,0.01734 0.04687,0.02539 0.05701,0.03134 0.113495,0.06405 0.171875,0.0918 0.0018,8.68e-4 0.004,0.0011 0.0059,0.002 0.191895,0.09099 0.386651,0.17313 0.585937,0.246093 0.0027,0.001 0.0051,0.0029 0.0078,0.0039 0,0 0.002,0 0.002,0 0.19779,0.07217 0.398564,0.134947 0.603516,0.189453 0.004,0.0011 0.0077,0.0029 0.01172,0.0039 0,0 0.002,0 0.002,0 0.20397,0.05382 0.412003,0.09842 0.623046,0.134766 0.0051,8.82e-4 0.01049,0.0011 0.01563,0.002 0.188465,0.03187 0.380106,0.05416 0.574218,0.07227 0.0046,4.32e-4 0.009,0.0015 0.01367,0.002 0.0071,0.0014 0.01417,0.0032 0.02148,0.0039 0.01093,0.0019 0.02197,0.0029 0.0332,0.0039 0,0 0.002,0 0.002,0 0.0053,4.46e-4 0.01031,0.0015 0.01563,0.002 0,0 0.002,0 0.002,0 0.116936,0.0096 0.238074,0.0091 0.357422,0.01367 0.02479,9.55e-4 0.04934,0.0032 0.07422,0.0039 0.0156,8.44e-4 0.03113,0.0016 0.04687,0.002 0.06026,0.0036 0.120272,0.0077 0.181641,0.0078 0.0079,2.2e-5 0.0155,0 0.02344,0 0.178244,0 0.34802,-0.01694 0.521484,-0.02734 v -0.0098 c 0.186606,-0.01341 0.378263,-0.0155 0.560547,-0.03906 0.02559,-0.0035 0.05069,-0.0079 0.07617,-0.01172 0.342257,-0.04769 0.6738,-0.119812 0.996094,-0.210937 1.50249,-0.424817 2.793149,-1.310157 3.861328,-2.679688 1.549,-1.986 2.324218,-4.434656 2.324218,-7.347656 0,-2.356 -0.530843,-4.407297 -1.589843,-6.154297 -0.804245,-1.326738 -1.898881,-2.339405 -3.283203,-3.041015 -0.04289,-0.02175 -0.08941,-0.03939 -0.132813,-0.06055 -0.178828,-0.087 -0.358606,-0.17317 -0.546875,-0.25 -0.233487,-0.09575 -0.473854,-0.183791 -0.722656,-0.263672 2.324763,-4.0255218 4.690291,-8.0277568 6.978515,-12.0742187 H 32.305664 c -3.624299,0 -4.352809,0.6176449 -5.611329,4.8964849 L 22.375976,20.644908 16.616211,1.0648303 h -4.167969 l 0.953125,3.1992189 c 0.794005,2.664306 0.723497,3.97222 -0.02148,6.4941398 L 10.459962,20.644908 4.7021485,1.0648303 Z" style="fill:#005a9c" id="path1599" />
    <path id="path6" d="m 65.419773,1.0653772 c -0.818999,0 -1.554,0.295 -2.111,0.861 -0.591,0.6 -0.92,1.376 -0.92,2.178 0,0.802 0.313,1.545 0.887,2.128 0.583,0.591 1.334,0.912 2.145,0.912 0.793001,0 1.562,-0.321 2.161,-0.903 0.574001,-0.557 0.886,-1.301 0.886,-2.137 0,-0.811 -0.321,-1.57 -0.877999,-2.136 -0.583,-0.591 -1.343001,-0.903 -2.170001,-0.903 z m 2.643,3.065 c 0,0.701 -0.270999,1.351 -0.769,1.832 -0.523,0.507 -1.173,0.777 -1.891,0.777 -0.675,0 -1.342,-0.278 -1.84,-0.785 -0.498,-0.506 -0.777,-1.157 -0.777,-1.849 0,-0.692 0.287,-1.368 0.802,-1.891 0.481,-0.49 1.131,-0.751 1.84,-0.751 0.726,0 1.376001,0.271 1.883,0.785 0.49,0.489 0.752,1.148 0.752,1.882 z m -2.558,-1.807 h -1.299999 v 3.445 h 0.65 v -1.469 h 0.642 l 0.701,1.469 h 0.726 l -0.769,-1.571 c 0.497999,-0.101 0.784999,-0.439 0.784999,-0.928 0,-0.625 -0.473,-0.946 -1.435,-0.946 z m -0.119,0.422 c 0.608001,0 0.886,0.169 0.886,0.591 0,0.405 -0.277999,0.549 -0.87,0.549 h -0.549 v -1.14 z" />
    <path id="path8" d="m 60.306773,0.8843772 0.338,2.0535 c 0.315497,1.916783 -0.0054,2.710653 -0.8575,4.341 l -1.195499,2.2875 c 0,0 -0.918,-1.941 -2.443,-3.015 -1.285,-0.905 -2.122,-1.102 -3.431,-0.832 -1.681,0.347 -3.587,2.357 -4.419,4.8349998 -0.995,2.965 -1.005,4.4 -1.04,5.718 -0.056,2.113 0.277,3.362 0.277,3.362 0,0 -1.451,-2.686 -1.438,-6.62 0.009,-2.808 0.451,-5.3539998 1.75,-7.8669998 1.143,-2.209 2.842,-3.535 4.35,-3.691 1.559,-0.161 2.791,0.59 3.743,1.404 0.999,0.854 2.01,2.72 2.01,2.72 z" />
    <path id="path10" d="m 60.601773,24.122377 c 0,0 -1.057,1.889 -1.715,2.617 -0.659,0.728 -1.837,2.01 -3.292,2.651 -1.456,0.641 -2.218,0.762 -3.656,0.624 -1.437,-0.138 -2.773,-0.97 -3.241,-1.317 -0.468,-0.347 -1.664,-1.369 -2.339,-2.322 -0.676,-0.954 -1.733,-2.859 -1.733,-2.859 0,0 0.589,1.911 0.958,2.721 0.212001,0.466 0.864,1.894 1.79,3.136 0.862,1.159 2.539,3.154 5.086,3.604 2.547,0.451 4.297,-0.693 4.73,-0.971 0.433,-0.277 1.432309,-0.93042 2.010243,-1.548482 0.603066,-0.644938 0.923083,-1.107393 1.325112,-1.920775 0.292057,-0.590889 0.544763,-1.977304 0.381146,-2.829243 z" />
  </g>
  <g aria-label="EVANGELIST" id="text4678" style="font-weight:bold;font-size:12px;font-family:'Source Sans Pro';-inkscape-font-specification:'Source Sans Pro, Bold';letter-spacing:0.025em;word-spacing:0px;fill:#000000;stroke-width:1.00157" transform="translate(1.4999999,1.1157589)">
    <path d="m 1.2360582,44.740105 v -7.824 h 4.896 v 1.488 h -3.132 v 1.572 h 2.664 v 1.476 h -2.664 v 1.8 h 3.252 v 1.488 z" id="path4785" />
    <path d="m 9.4680395,44.740105 -2.364,-7.824 h 1.872 l 0.936,3.648 q 0.1800005,0.636 0.3120005,1.248 0.144,0.612 0.324,1.26 h 0.048 q 0.168,-0.648 0.312,-1.26 0.144,-0.612 0.312,-1.248 l 0.924,-3.648 h 1.8 l -2.352,7.824 z" id="path4787" />
    <path d="m 16.704018,40.780105 -0.192,0.72 h 1.668 l -0.18,-0.72 q -0.156,-0.588 -0.324,-1.248 -0.156,-0.66 -0.312,-1.272 h -0.048 q -0.144,0.624 -0.3,1.284 -0.144,0.648 -0.312,1.236 z m -2.832,3.96 2.448,-7.824 h 2.124 l 2.448,7.824 h -1.872 l -0.48,-1.86 h -2.388 l -0.48,1.86 z" id="path4789" />
    <path d="m 22.044017,44.740105 v -7.824 h 1.812 l 2.04,3.888 0.768,1.728 h 0.048 q -0.048,-0.624 -0.132,-1.392 -0.084,-0.768 -0.084,-1.464 v -2.76 h 1.68 v 7.824 h -1.812 l -2.04,-3.9 -0.768,-1.704 h -0.048 q 0.06,0.648 0.132,1.392 0.084,0.744 0.084,1.44 v 2.772 z" id="path4791" />
    <path d="m 33.780006,44.884105 q -1.068,0 -1.944,-0.456 -0.864,-0.456 -1.38,-1.344 -0.504,-0.9 -0.504,-2.208 0,-1.296 0.516,-2.208 0.528,-0.924 1.392,-1.404 0.864,-0.492 1.908,-0.492 0.852,0 1.464,0.312 0.612,0.312 0.996,0.708 l -0.924,1.128 q -0.3,-0.264 -0.636,-0.444 -0.336,-0.18 -0.84,-0.18 -0.912,0 -1.488,0.672 -0.576,0.672 -0.576,1.848 0,1.2 0.552,1.872 0.552,0.672 1.644,0.672 0.24,0 0.468,-0.06 0.228,-0.06 0.372,-0.18 v -1.344 h -1.296 v -1.44 h 2.856 v 3.6 q -0.408,0.396 -1.092,0.672 -0.672,0.276 -1.488,0.276 z" id="path4793" />
    <path d="m 38.279988,44.740105 v -7.824 h 4.896 v 1.488 h -3.132 v 1.572 h 2.664 v 1.476 h -2.664 v 1.8 h 3.252 v 1.488 z" id="path4795" />
    <path d="m 45.155969,44.740105 v -7.824 h 1.764 v 6.336 h 3.096 v 1.488 z" id="path4797" />
    <path d="m 51.671964,44.740105 v -7.824 h 1.764 v 7.824 z" id="path4799" />
    <path d="m 57.971951,44.884105 q -0.768,0 -1.536,-0.288 -0.756,-0.288 -1.356,-0.84 l 1.008,-1.212 q 0.42,0.36 0.936,0.588 0.516,0.228 0.996,0.228 0.552,0 0.816,-0.204 0.276,-0.204 0.276,-0.552 0,-0.372 -0.312,-0.54 -0.3,-0.18 -0.816,-0.396 l -1.02,-0.432 q -0.396,-0.168 -0.756,-0.444 -0.36,-0.288 -0.588,-0.708 -0.228,-0.42 -0.228,-0.984 0,-0.648 0.348,-1.176 0.36,-0.528 0.984,-0.84 0.636,-0.312 1.452,-0.312 0.672,0 1.344,0.264 0.672,0.264 1.176,0.768 l -0.9,1.116 q -0.384,-0.3 -0.768,-0.456 -0.384,-0.168 -0.852,-0.168 -0.456,0 -0.732,0.192 -0.264,0.18 -0.264,0.516 0,0.36 0.336,0.54 0.348,0.18 0.852,0.384 l 1.008,0.408 q 0.708,0.288 1.128,0.792 0.42,0.504 0.42,1.332 0,0.648 -0.348,1.2 -0.348,0.552 -1.008,0.888 -0.66,0.336 -1.596,0.336 z" id="path4801" />
    <path d="m 63.839942,44.740105 v -6.336 h -2.148 v -1.488 h 6.072 v 1.488 h -2.148 v 6.336 z" id="path4803" />
  </g>
</svg>
