<?xml version="1.0" encoding="UTF-8" standalone="no"?>
<svg
   id="svg"
   version="1.1"
   viewBox="0 0 231 110"
   width="231"
   height="110"
   xmlns="http://www.w3.org/2000/svg"
   xmlns:svg="http://www.w3.org/2000/svg"
   xmlns:rdf="http://www.w3.org/1999/02/22-rdf-syntax-ns#"
   xmlns:cc="http://creativecommons.org/ns#"
   xmlns:dc="http://purl.org/dc/elements/1.1/">
  <metadata
     id="metadata1">
    <rdf:RDF>
      <cc:Work
         rdf:about="">
        <dc:title>W3C</dc:title>
      </cc:Work>
    </rdf:RDF>
  </metadata>
  <defs
     id="defs1" />
  <title
     id="title1">W3C</title>
  <path
     fill="#005a9c"
     d="M 8.1427701e-8,0.61359163 32.408934,110.00039 h 1.348161 L 54.012679,42.213915 74.274904,110.00039 h 1.348161 L 99.909843,28.035005 C 104.54829,12.381461 102.24688,14.115102 116.08774,14.115102 h 11.41619 l -22.56672,39.169655 h 9.05857 c 5.85394,0 12.01755,2.11237 15.26142,6.342321 0.45444,0.586895 0.86281,1.225727 1.24189,1.892733 0.0878,0.153659 0.16849,0.313642 0.25237,0.471524 0.35676,0.675286 0.68994,1.37437 0.97626,2.125176 1.13807,2.986107 1.71342,6.573646 1.71342,10.771987 0,5.943693 -1.30688,11.02807 -3.91829,15.26142 -0.70891,1.148272 -1.46291,2.125408 -2.258,2.961965 -0.50856,0.535072 -1.03745,0.999286 -1.5806,1.407931 -0.0457,0.03417 -0.0935,0.06634 -0.13948,0.09963 -0.55381,0.403647 -1.11692,0.749884 -1.70678,1.02274 -0.53763,0.248696 -1.09902,0.425035 -1.66694,0.564498 -0.14505,0.03533 -0.29133,0.06474 -0.43832,0.09296 -0.58418,0.113162 -1.17732,0.192592 -1.79311,0.192592 -0.0275,0 -0.0523,-0.0065 -0.0797,-0.0068 -0.0275,-1.4e-4 -0.0523,-0.0065 -0.0797,-0.0068 -0.0139,-1.33e-4 -0.0265,-0.0051 -0.0399,-0.0068 -0.032,-4.02e-4 -0.0612,-0.0061 -0.093,-0.0068 -0.8099,-0.01462 -1.60252,-0.07617 -2.36426,-0.212518 -0.004,-7.68e-4 -0.009,7.72e-4 -0.0133,0 -0.2084,-0.0375 -0.39955,-0.119384 -0.60435,-0.166035 -0.0426,-0.0095 -0.0848,-0.02006 -0.12618,-0.03332 -0.052,-0.01258 -0.10102,-0.03332 -0.15274,-0.04648 -0.51969,-0.120574 -1.04155,-0.23683 -1.53411,-0.425035 -0.77626,-0.296607 -1.52027,-0.665106 -2.23808,-1.109077 -0.71782,-0.443213 -1.40657,-0.961069 -2.06542,-1.553272 -1.40853,-1.530406 -2.46921,-3.270075 -3.59287,-4.967601 H 93.169049 c 0.934697,2.777979 2.095941,5.290825 3.433486,7.597504 l -0.03985,0.07304 c 0.144648,0.261278 0.338294,0.505887 0.498087,0.763738 0.952185,1.546706 1.977611,3.01354 3.121348,4.336692 1.01863,1.1784 2.11019,2.26607 3.28075,3.26746 0.58235,0.49855 1.17885,0.96472 1.78647,1.40128 0,0 0.007,0.007 0.007,0.007 0.60521,0.4345 1.22264,0.8357 1.85289,1.2087 0.39119,0.23152 0.79459,0.42974 1.19541,0.63755 0.0536,0.0279 0.10561,0.059 0.15937,0.0863 0.19385,0.10657 0.38592,0.21779 0.58443,0.31215 0.006,0.003 0.0136,0.004 0.0201,0.007 0.6525,0.30939 1.31472,0.58869 1.99235,0.83679 0.009,0.003 0.0173,0.01 0.0265,0.0133 0,0 0.007,0 0.007,0 0.67254,0.2454 1.35523,0.45885 2.05213,0.64419 0.0136,0.004 0.0262,0.01 0.0399,0.0133 0,0 0.007,0 0.007,0 0.69355,0.18301 1.40092,0.33466 2.11853,0.45824 0.0173,0.003 0.0357,0.004 0.0532,0.007 0.64083,0.10837 1.29246,0.18416 1.9525,0.24574 0.0156,0.001 0.0306,0.005 0.0465,0.007 0.0241,0.005 0.0482,0.0109 0.073,0.0133 0.0372,0.006 0.0747,0.01 0.11289,0.0133 0,0 0.007,0 0.007,0 0.018,0.002 0.0351,0.005 0.0532,0.007 0,0 0.007,0 0.007,0 0.39761,0.0326 0.80951,0.0309 1.21533,0.0465 0.0843,0.003 0.16777,0.0109 0.25237,0.0133 0.053,0.003 0.10585,0.005 0.15937,0.007 0.2049,0.0122 0.40896,0.0262 0.61763,0.0265 0.0269,8e-5 0.0527,0 0.0797,0 0.60608,0 1.18337,-0.0576 1.7732,-0.093 v -0.0333 c 0.63451,-0.0456 1.2862,-0.0527 1.90602,-0.13282 0.087,-0.0119 0.17236,-0.0269 0.25899,-0.0398 1.16377,-0.16216 2.29111,-0.4074 3.387,-0.71725 5.10889,-1.44449 9.4975,-4.4549 13.12961,-9.111693 5.26703,-6.75296 7.90299,-15.07908 7.90299,-24.984101 0,-8.011064 -1.80501,-14.986052 -5.40591,-20.926344 -2.73466,-4.511283 -6.45673,-7.954636 -11.16382,-10.340308 -0.14583,-0.07396 -0.30401,-0.133937 -0.4516,-0.205887 -0.60806,-0.295825 -1.21936,-0.588827 -1.85953,-0.850071 -0.79392,-0.325577 -1.61123,-0.624941 -2.45723,-0.896559 7.90485,-13.687909 15.94831,-27.296636 23.72892,-41.05574791 h -42.65049 c -12.323635,0 -14.800774,2.10016671 -19.080097,16.64942991 L 74.274904,67.191376 54.69008,0.61359163 H 40.517811 L 43.758704,11.491839 c 2.699838,9.059391 2.460094,13.506667 -0.07304,22.081906 L 33.757095,67.191376 14.17891,0.61359163 Z"
     id="path1599-5"
     style="stroke-width:3.40028" />
  <path
     id="path6-4"
     d="m 220.63594,0.61545124 c -2.78482,0 -5.28403,1.00308316 -7.17799,2.92764266 -2.00957,2.0401691 -3.12826,4.6787891 -3.12826,7.4058151 0,2.727026 1.06429,5.253435 3.01605,7.2358 1.98236,2.009566 4.53598,3.101057 7.2936,3.101057 2.69643,0 5.31125,-1.091491 7.34801,-3.070455 C 229.93912,16.321354 231,13.791545 231,10.948909 231,8.1912805 229.90851,5.6104652 228.01456,3.6859057 226.03219,1.6763392 223.44798,0.61545124 220.63594,0.61545124 Z m 8.98695,10.42186476 c 0,2.383598 -0.92147,4.593781 -2.61482,6.229317 -1.77835,1.723942 -3.98853,2.642019 -6.42993,2.642019 -2.29519,0 -4.56318,-0.945279 -6.25652,-2.669222 -1.69334,-1.720542 -2.64202,-3.934126 -2.64202,-6.287121 0,-2.3529947 0.97588,-4.6515866 2.72703,-6.429934 1.63553,-1.6661381 3.84572,-2.5536116 6.25652,-2.5536116 2.4686,0 4.67878,0.9214764 6.40273,2.6692212 1.66613,1.6627378 2.55701,3.9035249 2.55701,6.3993314 z M 220.92497,4.8930057 H 216.5046 V 16.606978 h 2.21018 v -4.995014 h 2.18299 l 2.38359,4.995014 h 2.46861 l -2.61482,-5.341843 c 1.69334,-0.343428 2.66922,-1.4927235 2.66922,-3.1554613 0,-2.1251775 -1.60833,-3.216668 -4.8794,-3.216668 z m -0.40464,1.434919 c 2.06738,0 3.01265,0.5746476 3.01265,2.0095679 0,1.3771141 -0.94527,1.8667544 -2.95824,1.8667544 h -1.86676 V 6.3279247 Z"
     style="stroke-width:3.40028" />
  <path
     id="path8-9"
     d="M 203.2503,2.3724748e-7 204.3996,6.9824789 c 1.07278,6.5176041 -0.0184,9.2169851 -2.91574,14.7606251 l -4.06504,7.778144 c 0,0 -3.12146,-6.599947 -8.30689,-10.251849 -4.36936,-3.077255 -7.2154,-3.747111 -11.66637,-2.829035 -5.71587,1.179898 -12.19681,8.014464 -15.02584,16.440363 -3.38328,10.081835 -3.41728,14.96124 -3.53629,19.442811 -0.19042,7.184795 0.94188,11.431747 0.94188,11.431747 0,0 -4.93381,-9.133157 -4.88961,-22.509865 0.0306,-9.547991 1.53353,-18.205109 5.9505,-26.750017 3.88652,-7.5112239 9.66359,-12.0199976 14.79122,-12.5504416 5.30104,-0.5474453 9.49018,2.0061663 12.72726,4.7739957 3.39688,2.903842 6.83456,9.2487679 6.83456,9.2487679 z"
     style="stroke-width:3.40028" />
  <path
     id="path10-1"
     d="m 204.25339,79.01575 c 0,0 -3.5941,6.423132 -5.83149,8.898538 -2.24078,2.475405 -6.24632,6.834566 -11.19373,9.014147 -4.95081,2.17958 -7.54182,2.591014 -12.43143,2.121775 -4.8862,-0.469238 -9.42898,-3.298273 -11.02031,-4.478171 -1.59133,-1.179897 -5.65807,-4.654985 -7.95326,-7.895454 -2.29859,-3.243869 -5.89269,-9.721406 -5.89269,-9.721406 0,0 2.00277,6.497939 3.25747,9.252167 0.72087,1.584531 2.93785,6.440134 6.08651,10.663284 2.93104,3.94093 8.63331,10.72449 17.29383,12.25462 8.66052,1.53352 14.61101,-2.3564 16.08333,-3.30168 1.47233,-0.94188 4.87026,-3.16369 6.8354,-5.26527 2.05059,-2.192974 3.13874,-3.765452 4.50575,-6.53118 0.99307,-2.009189 1.85235,-6.72339 1.296,-9.620223 z"
     style="stroke-width:3.40028" />
</svg>
