<svg
id="svg"
version="1.1"
viewBox="0 0 231 110"
width="231"
height="110"
xmlns="http://www.w3.org/2000/svg">
<title>W3C</title>
<path
fill="#005a9c"
d="M 0,0.61359 32.409,110 h 1.348 L 54.013,42.214 74.275,110 h 1.348 L 99.91,28.035 c 4.64,-15.654 2.34,-13.92 16.18,-13.92 h 11.41 l -22.56,39.17 H 114 c 5.85,0 12.01,2.112 15.26,6.342 0.45,0.587 0.86,1.226 1.24,1.893 0.1,0.153 0.17,0.313 0.25,0.471 0.36,0.676 0.69,1.375 0.98,2.126 1.14,2.986 1.71,6.573 1.71,10.771 0,5.944 -1.31,11.029 -3.92,15.262 -0.71,1.148 -1.46,2.125 -2.26,2.962 -0.5,0.535 -1.03,0.999 -1.58,1.408 0,0.03 -0.1,0.07 -0.14,0.1 -0.55,0.404 -1.11,0.75 -1.7,1.023 -0.54,0.249 -1.1,0.425 -1.67,0.565 -0.14,0.04 -0.29,0.06 -0.44,0.09 -0.58,0.113 -1.17,0.192 -1.79,0.192 0,0 0,0 -0.1,0 0,0 0,0 -0.1,0 0,0 0,0 0,0 0,-10e-4 -0.1,0 -0.1,0 -0.81,-0.02 -1.61,-0.08 -2.37,-0.212 0,0 0,0 0,0 -0.21,-0.04 -0.4,-0.12 -0.6,-0.167 0,0 -0.1,-0.02 -0.13,-0.03 -0.1,-0.01 -0.1,-0.03 -0.15,-0.05 -0.52,-0.121 -1.05,-0.237 -1.54,-0.425 -0.77,-0.297 -1.52,-0.665 -2.24,-1.109 -0.71,-0.444 -1.4,-0.961 -2.06,-1.554 -1.41,-1.53 -2.47,-3.27 -3.59,-4.967 H 93.169 c 0.935,2.778 2.096,5.291 3.434,7.597 l -0.04,0.07 c 0.144,0.262 0.338,0.506 0.498,0.764 0.952,1.547 1.977,3.014 3.119,4.333 1.02,1.18 2.11,2.27 3.28,3.27 0.59,0.5 1.18,0.96 1.79,1.4 0,0 0,0 0,0 0.6,0.43 1.22,0.83 1.85,1.21 0.39,0.23 0.79,0.43 1.19,0.63 0.1,0 0.11,0.1 0.16,0.1 0.2,0.11 0.39,0.22 0.59,0.31 0,0 0,0 0,0 0.65,0.31 1.31,0.59 1.99,0.84 0,0 0,0 0,0 0,0 0,0 0,0 0.68,0.25 1.36,0.46 2.06,0.64 0,0 0,0 0,0 0,0 0,0 0,0 0.7,0.18 1.4,0.33 2.12,0.46 0,0 0,0 0.1,0 0.64,0.11 1.29,0.19 1.95,0.25 0,0 0,0 0,0 0,0 0,0 0.1,0 0,0 0.1,0 0.11,0 0,0 0,0 0,0 0,0 0,0 0,0 0,0 0,0 0,0 0.39,0 0.81,0 1.21,0 0.1,0 0.17,0 0.25,0 0.1,0 0.11,0 0.16,0 0.21,0 0.41,0 0.62,0 0,0 0,0 0.1,0 0.61,0 1.19,-0.1 1.77,-0.1 v 0 c 0.64,0 1.29,-0.1 1.91,-0.14 0.1,0 0.17,0 0.26,0 1.16,-0.16 2.29,-0.4 3.39,-0.71 5.11,-1.45 9.49,-4.46 13.13,-9.114 5.26,-6.753 7.9,-15.079 7.9,-24.984 0,-8.011 -1.81,-14.986 -5.41,-20.927 -2.73,-4.511 -6.45,-7.954 -11.16,-10.34 -0.15,-0.07 -0.3,-0.134 -0.45,-0.206 -0.61,-0.296 -1.22,-0.589 -1.86,-0.85 -0.8,-0.326 -1.61,-0.625 -2.46,-0.897 7.91,-13.687 15.95,-27.296 23.73,-41.05531 H 108.04 C 95.716,0.61569 93.239,2.7159 88.96,17.265 L 74.275,67.191 54.69,0.61359 H 40.518 L 43.759,11.492 c 2.7,9.059 2.46,13.507 -0.07,22.082 L 33.757,67.191 14.179,0.61359 Z"/>
<path
d="m 220.64,0.61545 c -2.79,0 -5.29,1.00305 -7.18,2.92765 -2.01,2.0402 -3.13,4.6788 -3.13,7.4059 0,2.727 1.06,5.253 3.02,7.236 1.98,2.009 4.53,3.101 7.29,3.101 2.7,0 5.31,-1.092 7.35,-3.071 1.95,-1.894 3.01,-4.423 3.01,-7.266 0,-2.7577 -1.09,-5.3385 -2.99,-7.2631 -1.98,-2.0096 -4.56,-3.07045 -7.37,-3.07045 z m 8.98,10.42155 c 0,2.384 -0.92,4.594 -2.61,6.23 -1.78,1.724 -3.99,2.642 -6.43,2.642 -2.3,0 -4.57,-0.946 -6.26,-2.67 -1.69,-1.72 -2.64,-3.934 -2.64,-6.287 0,-2.3527 0.98,-4.6513 2.73,-6.4296 1.63,-1.6662 3.84,-2.5536 6.25,-2.5536 2.47,0 4.68,0.9214 6.41,2.6692 1.66,1.6627 2.55,3.9035 2.55,6.399 z m -8.7,-6.144 h -4.42 v 11.714 h 2.21 v -4.995 h 2.19 l 2.38,4.995 h 2.47 l -2.61,-5.342 c 1.69,-0.343 2.66,-1.4926 2.66,-3.1553 0,-2.1252 -1.6,-3.2167 -4.88,-3.2167 z m -0.4,1.4349 c 2.07,0 3.01,0.5747 3.01,2.0096 0,1.3771 -0.94,1.8665 -2.96,1.8665 h -1.86 V 6.3279 Z"/>
<path
d="m 203.25,0 1.15,6.9825 c 1.07,6.5175 0,9.2165 -2.92,14.7605 l -4.06,7.778 c 0,0 -3.12,-6.6 -8.31,-10.252 -4.37,-3.077 -7.21,-3.747 -11.66,-2.829 -5.72,1.18 -12.2,8.015 -15.03,16.441 -3.38,10.082 -3.42,14.961 -3.54,19.443 -0.19,7.184 0.95,11.431 0.95,11.431 0,0 -4.94,-9.133 -4.89,-22.51 0,-9.548 1.53,-18.205 5.95,-26.75 3.88,-7.5108 9.66,-12.0196 14.79,-12.55 5.3,-0.5475 9.49,2.0061 12.72,4.774 3.4,2.9038 6.84,9.249 6.84,9.249 z"/>
<path
d="m 204.25,79.016 c 0,0 -3.59,6.423 -5.83,8.898 -2.24,2.476 -6.24,6.835 -11.19,9.014 -4.95,2.18 -7.54,2.591 -12.43,2.122 -4.89,-0.469 -9.43,-3.298 -11.02,-4.478 -1.59,-1.18 -5.66,-4.655 -7.96,-7.895 -2.3,-3.244 -5.89,-9.722 -5.89,-9.722 0,0 2,6.498 3.26,9.252 0.72,1.585 2.94,6.44 6.08,10.664 2.94,3.939 8.64,10.729 17.3,12.259 8.66,1.53 14.61,-2.36 16.08,-3.31 1.47,-0.94 4.87,-3.16 6.84,-5.26 2.05,-2.195 3.14,-3.767 4.5,-6.533 1,-2.009 1.86,-6.723 1.3,-9.62 z"/>
</svg>
