<?xml version="1.0" encoding="UTF-8" standalone="no"?>
<svg
   xmlns:usvg="https://github.com/RazrFalcon/usvg"
   xmlns:dc="http://purl.org/dc/elements/1.1/"
   xmlns:cc="http://creativecommons.org/ns#"
   xmlns:rdf="http://www.w3.org/1999/02/22-rdf-syntax-ns#"
   xmlns:svg="http://www.w3.org/2000/svg"
   xmlns="http://www.w3.org/2000/svg"
   xmlns:sodipodi="http://sodipodi.sourceforge.net/DTD/sodipodi-0.dtd"
   xmlns:inkscape="http://www.inkscape.org/namespaces/inkscape"
   width="315"
   height="48"
   viewBox="0 0 315 48"
   usvg:version="0.8.0"
   version="1.1"
   id="svg60"
   sodipodi:docname="w3c_logo_rounded4.svg"
   inkscape:version="1.0.2 (e86c870879, 2021-01-15)">
  <metadata
     id="metadata64">
    <rdf:RDF>
      <cc:Work
         rdf:about="">
        <dc:format>image/svg+xml</dc:format>
        <dc:type
           rdf:resource="http://purl.org/dc/dcmitype/StillImage" />
        <dc:title></dc:title>
      </cc:Work>
    </rdf:RDF>
  </metadata>
  <sodipodi:namedview
     pagecolor="#ffffff"
     bordercolor="#666666"
     borderopacity="1"
     objecttolerance="10"
     gridtolerance="10"
     guidetolerance="10"
     inkscape:pageopacity="0"
     inkscape:pageshadow="2"
     inkscape:window-width="2560"
     inkscape:window-height="1375"
     id="namedview62"
     showgrid="false"
     inkscape:zoom="7.65"
     inkscape:cx="120.7291"
     inkscape:cy="24"
     inkscape:window-x="0"
     inkscape:window-y="0"
     inkscape:window-maximized="1"
     inkscape:current-layer="svg60" />
  <defs
     id="defs2" />
  <path
     fill="#ffffff"
     fill-rule="evenodd"
     d="M 0 0 L 315 0 L 315 48 L 0 48 Z"
     id="path4" />
  <path
     id="path1599"
     style="fill:#005a9c;stroke-width:1.4815"
     d="m 4.192,0.339 14.120586,47.659869 h 0.587402 l 8.825364,-29.534584 8.828254,29.534584 h 0.587401 L 47.722769,12.286531 c 2.020965,-6.8202674 1.018238,-6.0649077 7.048715,-6.0649077 h 4.974032 L 49.913188,23.287855 h 3.946816 c 2.550572,0 5.23605,0.920354 6.649405,2.763346 0.198003,0.255707 0.375932,0.534052 0.541105,0.824664 0.03822,0.06696 0.07333,0.136595 0.109927,0.20544 0.15544,0.294227 0.300598,0.598824 0.425355,0.92594 0.495859,1.301057 0.74653,2.864148 0.74653,4.693361 0,2.589669 -0.569401,4.804933 -1.707196,6.649405 -0.308864,0.500304 -0.637388,0.926044 -0.983808,1.290539 -0.221589,0.233129 -0.452022,0.435384 -0.688677,0.613431 -0.01985,0.01496 -0.04074,0.02889 -0.06074,0.04341 -0.241293,0.17587 -0.48663,0.326731 -0.743641,0.445607 -0.234241,0.108298 -0.478837,0.185188 -0.726278,0.245959 -0.06326,0.01541 -0.126965,0.02815 -0.19098,0.04045 -0.254523,0.04933 -0.512956,0.08385 -0.781257,0.08385 -0.01185,0 -0.02282,-0.003 -0.03467,-0.003 -0.01185,-6e-5 -0.02282,-0.003 -0.03467,-0.003 -0.0059,-6e-5 -0.01185,-0.003 -0.01733,-0.003 -0.01333,-1.78e-4 -0.02667,-0.003 -0.04044,-0.003 -0.352879,-0.0059 -0.698218,-0.03319 -1.030105,-0.0926 -0.0015,-3.4e-4 -0.0044,3.26e-4 -0.0059,0 -0.09082,-0.0163 -0.174091,-0.052 -0.263322,-0.0723 -0.01852,-0.0044 -0.03689,-0.0089 -0.05496,-0.01481 -0.02267,-0.0059 -0.044,-0.01481 -0.06652,-0.0203 -0.226434,-0.05259 -0.4538,-0.103112 -0.668411,-0.185188 -0.338212,-0.129187 -0.66238,-0.289797 -0.975126,-0.483237 -0.31276,-0.193099 -0.612853,-0.418732 -0.89991,-0.676751 -0.613698,-0.666795 -1.075838,-1.424777 -1.565416,-2.164388 h -6.00704 c 0.40725,1.210359 0.913214,2.30522 1.495978,3.310228 l -0.01733,0.03185 c 0.06296,0.11378 0.147409,0.220419 0.21701,0.332761 0.414866,0.673907 0.861643,1.313013 1.359977,1.889496 0.443814,0.513444 0.919421,0.987333 1.429429,1.423636 0.253722,0.217218 0.513623,0.420333 0.778367,0.610543 0,0 0.003,0.003 0.003,0.003 0.263678,0.189321 0.532705,0.364124 0.807302,0.52663 0.170432,0.100891 0.346197,0.187233 0.520837,0.277782 0.02341,0.01185 0.04607,0.02563 0.06948,0.03763 0.08445,0.04637 0.16815,0.09482 0.254641,0.136002 0.003,0.0013 0.0059,0.0015 0.0089,0.003 0.284286,0.134817 0.572823,0.256493 0.868057,0.364584 0.0044,0.0015 0.0074,0.0044 0.01185,0.0059 0,0 0.003,0 0.003,0 0.293027,0.106964 0.590484,0.199929 0.894118,0.280686 0.0059,0.0015 0.01185,0.0044 0.01733,0.0059 0,0 0.003,0 0.003,0 0.302183,0.0797 0.61038,0.14578 0.923052,0.199647 0.0074,0.0013 0.01555,0.0015 0.02311,0.003 0.279219,0.04726 0.563135,0.0803 0.850709,0.107113 0.0074,6.37e-4 0.01333,0.0015 0.0203,0.003 0.01037,0.0015 0.02104,0.0044 0.03185,0.0059 0.01615,0.003 0.03259,0.0044 0.04919,0.0059 0,0 0.003,0 0.003,0 0.0074,6.67e-4 0.01526,0.0015 0.02311,0.003 0,0 0.003,0 0.003,0 0.173247,0.01481 0.352716,0.01333 0.529519,0.0203 0.03674,0.0014 0.07304,0.0044 0.109928,0.0059 0.02311,0.0013 0.04607,0.003 0.06948,0.003 0.08933,0.0059 0.178181,0.01185 0.2691,0.01185 0.01185,4.4e-5 0.02296,0 0.03467,0 0.264063,0 0.515593,-0.02504 0.772574,-0.04044 v -0.01482 c 0.276464,-0.01985 0.560394,-0.02296 0.830458,-0.05793 0.03793,-0.0059 0.07511,-0.01185 0.11289,-0.01733 0.507045,-0.07067 0.998238,-0.177499 1.475712,-0.312494 2.225945,-0.629372 4.138063,-1.941007 5.720576,-3.969971 2.29485,-2.942268 3.443342,-6.569968 3.443342,-10.885589 0,-3.490424 -0.786457,-6.529418 -2.35537,-9.117606 -1.191485,-1.965571 -2.813198,-3.465846 -4.864074,-4.505284 -0.06356,-0.03215 -0.132447,-0.05837 -0.196759,-0.08978 C 61.125078,18.859846 60.858733,18.732185 60.57981,18.618361 60.233909,18.476581 59.8778,18.346075 59.509201,18.227733 62.953343,12.263908 66.457885,6.3345732 69.847893,0.33972594 H 51.26506 c -5.369415,0 -6.448706,0.91503616 -8.313208,7.25415536 L 36.554184,29.347384 28.021075,0.33941482 h -6.174864 l 1.412051,4.73965768 c 1.176329,3.9471863 1.071868,5.8848605 -0.03185,9.6210955 L 18.900536,29.347384 10.370302,0.33941482 Z" />
  <path
     fill="#005a9c"
     d="m 28.022,0.339 8.532,29.009 8.532,-29.009 h 0.185 5.993 16.955 v 2.883 l -8.708,15.004 c 3.06,0.982 5.374,2.767 6.943,5.356 1.568,2.589 2.354,5.628 2.354,9.119 0,4.316 -1.147,7.945 -3.442,10.886 C 63.07,46.529 60.099,48 56.451,48 c -2.746,0 -5.139,-0.873 -7.179,-2.618 -2.04,-1.745 -3.55,-4.108 -4.531,-7.09 l 4.825,-2 c 0.707,1.805 1.639,3.227 2.796,4.266 1.157,1.04 2.52,1.559 4.089,1.559 1.647,0 3.041,-0.921 4.178,-2.765 1.138,-1.843 1.707,-4.06 1.707,-6.65 0,-2.864 -0.608,-5.08 -1.824,-6.648 -1.414,-1.844 -3.63,-2.766 -6.65,-2.766 H 51.509 V 20.464 L 59.747,6.224 H 49.802 L 49.236,7.187 37.143,48 H 36.555 L 27.729,18.462 18.902,48 H 18.314 L 4.192,0.339 H 10.37 L 18.902,29.348 24.668,9.813 21.844,0.339 Z"
     id="path6"
     style="display:none" />
  <path
     fill-rule="evenodd"
     d="M 99.054 0 C 98.235 0 97.501 0.295 96.944 0.861 C 96.353 1.46 96.024 2.237 96.024 3.039 C 96.024 3.841 96.337 4.584 96.911 5.166 C 97.494 5.757 98.245 6.078 99.055 6.078 C 99.849 6.078 100.617 5.757 101.217 5.175 C 101.791 4.618 102.103 3.875 102.103 3.039 C 102.103 2.228 101.782 1.469 101.225 0.903 C 100.642 0.313 99.882 0 99.054 0 Z M 101.697 3.065 C 101.697 3.766 101.427 4.416 100.929 4.897 C 100.406 5.403 99.756 5.673 99.038 5.673 C 98.363 5.673 97.696 5.395 97.197 4.888 C 96.699 4.382 96.42 3.732 96.42 3.04 C 96.42 2.348 96.707 1.672 97.222 1.149 C 97.703 0.659 98.353 0.398 99.062 0.398 C 99.788 0.398 100.438 0.668 100.945 1.183 C 101.436 1.672 101.697 2.33 101.697 3.065 Z M 99.139 1.258 L 97.839 1.258 L 97.839 4.702 L 98.489 4.702 L 98.489 3.234 L 99.131 3.234 L 99.832 4.703 L 100.558 4.703 L 99.79 3.133 C 100.288 3.032 100.575 2.694 100.575 2.204 C 100.574 1.579 100.101 1.258 99.139 1.258 Z M 99.021 1.68 C 99.629 1.68 99.908 1.849 99.908 2.271 C 99.908 2.676 99.629 2.82 99.038 2.82 L 98.489 2.82 L 98.489 1.68 L 99.021 1.68 Z"
     id="path8" />
  <path
     fill="#005a9c"
     fill-rule="evenodd"
     d="M 104.421 27.316 L 310.808 27.316 L 310.808 44.666 L 104.421 44.666 Z"
     id="path10" />
  <path
     fill="#ffffff"
     d="M 116.264 38.784 C 115.506 39.862 114.647 41.074 112.863 41.074 C 111.752 41.074 110.354 40.35 110.354 38.481 C 110.354 35.905 112.779 33.076 115.103 33.076 C 116.434 33.076 117.04 33.817 117.04 34.558 C 117.04 35.316 116.619 35.77 115.979 35.77 C 115.524 35.77 115.019 35.467 115.019 34.894 C 115.019 34.423 115.373 34.153 115.373 33.917 C 115.373 33.698 115.137 33.631 114.986 33.631 C 113.521 33.631 112.51 37.167 112.51 38.363 C 112.51 39.71 113.251 39.996 113.739 39.996 C 114.497 39.996 115.12 39.457 115.793 38.48 L 116.264 38.784 Z"
     id="path12" />
  <path
     fill="#ffffff"
     d="M 137.978 35.668 C 137.978 38.177 135.89 41.073 133.196 41.073 C 131.815 41.073 130.502 40.18 130.502 38.564 C 130.502 35.971 132.674 33.075 135.335 33.075 C 135.974 33.075 137.978 33.412 137.978 35.668 Z M 132.505 39.407 C 132.505 39.743 132.505 40.586 133.38 40.586 C 134.997 40.586 135.973 35.905 135.973 34.642 C 135.973 33.8 135.603 33.564 135.165 33.564 C 133.347 33.563 132.505 38.329 132.505 39.407 Z"
     id="path14" />
  <path
     fill="#ffffff"
     d="M 159.913 38.8 C 159.374 39.709 158.583 41.006 157.269 41.006 C 156.999 41.006 156.09 41.006 156.09 39.911 C 156.09 38.716 157.572 35.028 157.572 34.658 C 157.572 34.456 157.37 34.287 157.151 34.287 C 156.73 34.287 155.029 35.129 153.547 40.854 L 151.509 40.854 C 152.368 37.638 153.226 34.859 153.226 34.438 C 153.226 34 152.771 34 152.317 34 L 152.317 33.545 C 152.688 33.545 154.355 33.393 155.685 33.09 L 154.675 36.222 L 154.726 36.256 C 155.938 34.471 156.848 33.073 158.312 33.073 C 158.716 33.073 159.592 33.107 159.592 34.404 C 159.592 35.498 158.127 39.068 158.127 39.556 C 158.127 39.707 158.194 39.859 158.379 39.859 C 158.715 39.859 159.103 39.253 159.541 38.579 L 159.913 38.8 Z"
     id="path16" />
  <path
     fill="#ffffff"
     d="M 178.833 35.668 L 178.378 35.634 C 178.243 34.792 177.89 33.63 176.896 33.63 C 176.003 33.63 176.003 34.455 176.003 34.539 C 176.003 35.6 178.31 37.082 178.31 38.816 C 178.31 40.449 176.862 41.072 175.784 41.072 C 175.043 41.072 174.622 40.735 174.235 40.735 C 174.168 40.735 173.831 40.786 173.746 41.072 L 173.291 41.072 L 173.662 38.277 L 174.117 38.328 C 174.369 40.567 175.582 40.567 175.734 40.567 C 176.374 40.567 176.693 40.062 176.693 39.641 C 176.693 39.203 176.289 38.53 175.75 37.906 C 174.875 36.896 174.403 36.205 174.403 35.178 C 174.403 33.679 175.565 33.073 176.659 33.073 C 177.501 33.073 177.703 33.444 178.259 33.444 C 178.511 33.444 178.562 33.377 178.73 33.09 L 179.218 33.09 L 178.833 35.668 Z"
     id="path18" />
  <path
     fill="#ffffff"
     d="M 200.228 35.668 C 200.228 38.177 198.14 41.073 195.446 41.073 C 194.065 41.073 192.752 40.18 192.752 38.564 C 192.752 35.971 194.924 33.075 197.585 33.075 C 198.224 33.075 200.228 33.412 200.228 35.668 Z M 194.755 39.407 C 194.755 39.743 194.755 40.586 195.63 40.586 C 197.247 40.586 198.223 35.905 198.223 34.642 C 198.223 33.8 197.852 33.564 197.414 33.564 C 195.597 33.563 194.755 38.329 194.755 39.407 Z"
     id="path20" />
  <path
     fill="#ffffff"
     d="M 214.316 33.547 C 216.034 33.395 216.556 33.361 217.684 33.075 L 216.741 36.073 L 216.825 36.107 C 217.33 35.096 218.324 33.076 219.435 33.076 C 219.502 33.076 220.412 33.076 220.412 34.187 C 220.412 34.961 219.941 35.416 219.419 35.416 C 218.83 35.416 218.644 34.776 218.408 34.776 C 217.937 34.776 217.061 36.46 216.691 37.352 C 216.253 38.48 216.085 39.289 215.546 40.855 L 213.508 40.855 C 214.401 37.824 215.226 34.995 215.226 34.456 C 215.226 34.035 214.923 34.018 214.316 34.001 L 214.316 33.547 Z"
     id="path22" />
  <path
     fill="#ffffff"
     d="M 237.782 34.001 L 236.384 34.001 C 235.828 36.055 234.919 39.002 234.919 39.574 C 234.919 39.776 235.155 39.827 235.171 39.827 C 235.592 39.827 236.249 38.833 236.468 38.48 L 236.838 38.716 C 236.215 39.693 235.39 41.006 234.077 41.006 C 232.865 41.006 232.865 39.996 232.865 39.878 C 232.865 39.188 233.673 36.662 234.414 34.002 L 233.556 34.002 L 233.556 33.413 C 234.213 33.161 235.492 32.638 236.638 30.853 L 237.227 30.853 L 236.571 33.294 L 237.783 33.294 L 237.783 34.001 Z"
     id="path24" />
  <path
     fill="#ffffff"
     d="M 254.375 38.716 C 253.516 40.029 252.809 41.006 251.563 41.006 C 250.586 41.006 250.401 40.282 250.401 39.878 C 250.401 39.137 251.714 34.927 251.714 34.54 C 251.714 34.001 251.209 33.984 250.72 34.001 L 250.72 33.546 C 251.394 33.495 252.976 33.344 254.122 33.074 C 253.465 35.482 252.438 39.035 252.438 39.574 C 252.438 39.742 252.589 39.827 252.69 39.827 C 253.094 39.827 253.667 38.985 254.003 38.48 L 254.375 38.716 Z M 253.634 29.337 C 254.274 29.337 254.796 29.859 254.796 30.482 C 254.796 31.088 254.291 31.593 253.634 31.593 C 252.843 31.593 252.523 30.886 252.523 30.448 C 252.522 30.044 252.876 29.337 253.634 29.337 Z"
     id="path26" />
  <path
     fill="#ffffff"
     d="M 275.969 38.834 C 275.649 39.407 274.706 41.006 273.292 41.006 C 273.039 41.006 272.164 41.006 272.164 40.063 C 272.164 39.339 272.366 38.766 272.535 38.261 L 272.501 38.244 C 271.221 40.029 270.514 41.006 269.234 41.006 C 267.937 41.006 267.937 40.08 267.937 39.693 C 267.937 38.531 269.2 35.466 269.2 34.49 C 269.2 34.052 268.829 34.035 268.257 34.002 L 268.257 33.547 C 269.756 33.48 271.54 33.092 271.776 33.075 L 270.193 38.262 C 269.991 38.902 269.94 39.087 269.94 39.39 C 269.94 39.71 270.108 39.794 270.327 39.794 C 271.001 39.794 272.028 38.194 272.247 37.79 C 273.005 36.426 273.392 35.096 273.914 33.294 L 275.901 33.294 C 275.565 34.473 274.167 39.002 274.167 39.542 C 274.167 39.828 274.335 39.862 274.419 39.862 C 274.823 39.862 275.463 38.852 275.615 38.616 L 275.969 38.834 Z"
     id="path28" />
  <path
     fill="#ffffff"
     d="M 290.258 33.547 C 292.043 33.395 292.464 33.361 293.626 33.092 L 292.615 36.224 L 292.666 36.258 C 293.643 34.759 294.737 33.075 296.236 33.075 C 296.32 33.075 297.347 33.075 297.347 34.203 C 297.347 34.859 297.111 35.432 296.96 35.819 L 296.977 35.853 C 297.836 34.489 298.83 33.075 300.21 33.075 C 301.136 33.075 301.54 33.664 301.54 34.406 C 301.54 35.517 300.041 38.952 300.041 39.609 C 300.041 39.811 300.227 39.861 300.328 39.861 C 300.648 39.861 301.187 39.019 301.473 38.581 L 301.843 38.8 C 301.322 39.693 300.547 41.006 299.199 41.006 C 298.913 41.006 298.02 41.006 298.02 39.911 C 298.02 38.682 299.502 35.095 299.502 34.691 C 299.502 34.489 299.367 34.303 299.098 34.303 C 298.39 34.303 297.498 35.768 297.228 36.257 C 296.605 37.335 296.37 38.092 295.527 40.854 L 293.506 40.854 C 294.803 36.661 295.359 35.179 295.359 34.708 C 295.359 34.388 295.157 34.304 295.039 34.304 C 294.921 34.304 293.052 34.725 291.486 40.855 L 289.448 40.855 C 290.408 37.335 291.166 34.995 291.166 34.439 C 291.166 33.951 290.509 33.984 290.256 34.001 L 290.256 33.547 Z"
     id="path30" />
  <path
     d="M 124.153 9.354 L 126.695 9.354 L 120.918 28.851 L 120.658 28.851 L 117.047 16.777 L 113.437 28.851 L 113.206 28.851 L 107.429 9.354 L 109.971 9.354 L 113.437 21.226 L 115.805 13.225 L 114.65 9.355 L 117.192 9.355 L 120.658 21.227 L 124.153 9.354 Z"
     id="path32" />
  <path
     d="M 208.393 8.953 L 210.935 8.953 L 205.158 28.45 L 204.898 28.45 L 201.287 16.376 L 197.677 28.45 L 197.446 28.45 L 191.669 8.953 L 194.211 8.953 L 197.677 20.825 L 200.045 12.824 L 198.89 8.953 L 201.432 8.953 L 204.898 20.825 L 208.393 8.953 Z"
     id="path34" />
  <path
     d="M 277.791 8.953 L 280.333 8.953 L 274.556 28.45 L 274.296 28.45 L 270.686 16.376 L 267.075 28.45 L 266.844 28.45 L 261.067 8.953 L 263.609 8.953 L 267.075 20.825 L 269.444 12.824 L 268.288 8.953 L 270.83 8.953 L 274.296 20.825 L 277.791 8.953 Z"
     id="path36" />
  <path
     d="M 282.077 11.208 L 289.78 11.208 L 289.78 13.765 L 284.665 13.765 L 284.665 16.847 L 289.78 16.847 L 289.78 19.435 L 284.665 19.435 L 284.665 24.057 L 289.78 24.057 L 289.78 26.615 L 282.077 26.615 L 282.077 11.208 Z"
     id="path38" />
  <path
     d="M 294.139 11.208 L 299.531 11.208 C 301.811 11.208 303.66 13.057 303.66 15.306 C 303.66 16.353 303.321 17.155 302.766 17.863 C 303.936 18.757 304.676 20.051 304.676 21.745 C 304.676 24.426 302.488 26.614 299.808 26.614 C 299.53 26.614 294.139 26.614 294.139 26.614 L 294.139 11.208 Z M 296.727 16.847 L 299.531 16.847 C 300.394 16.847 301.072 16.169 301.072 15.306 C 301.072 14.474 300.394 13.765 299.531 13.765 C 299.316 13.765 296.727 13.765 296.727 13.765 L 296.727 16.847 Z M 296.727 24.057 L 299.809 24.057 C 301.072 24.057 302.12 23.01 302.12 21.746 C 302.12 20.452 301.072 19.435 299.809 19.435 C 299.316 19.435 296.727 19.435 296.727 19.435 L 296.727 24.057 Z"
     id="path40" />
  <path
     d="M 132.783 10.961 C 136.265 10.961 138.175 14.535 138.175 18.911 C 138.175 23.287 136.265 26.861 132.783 26.861 C 129.332 26.861 127.391 23.287 127.391 18.911 C 127.391 14.535 129.332 10.961 132.783 10.961 Z M 132.783 24.303 C 134.262 24.303 135.464 21.869 135.464 18.911 C 135.464 15.953 134.262 13.518 132.783 13.518 C 131.335 13.518 130.102 15.953 130.102 18.911 C 130.102 21.869 131.334 24.303 132.783 24.303 Z"
     id="path42" />
  <path
     d="M 153.58 26.614 L 150.437 26.614 L 146.74 21.468 C 146.123 21.468 144.86 21.468 144.86 21.468 L 144.86 26.614 L 142.272 26.614 L 142.272 11.208 L 147.171 11.208 C 149.975 11.208 152.286 13.519 152.286 16.354 C 152.286 18.326 151.177 20.052 149.513 20.915 L 153.58 26.614 Z M 149.729 16.354 C 149.729 14.937 148.589 13.766 147.171 13.766 C 146.894 13.766 144.86 13.766 144.86 13.766 L 144.86 18.912 L 147.171 18.912 C 148.588 18.911 149.729 17.74 149.729 16.354 Z"
     id="path44" />
  <path
     d="M 159.495 24.057 L 164.61 24.057 L 164.61 26.615 L 156.907 26.615 L 156.907 11.208 L 159.495 11.208 L 159.495 24.057 Z"
     id="path46" />
  <path
     d="M 166.403 11.208 L 170.008 11.208 C 173.829 11.208 176.941 14.659 176.941 18.911 C 176.941 23.163 173.829 26.614 170.008 26.614 C 169.669 26.614 166.403 26.614 166.403 26.614 L 166.403 11.208 Z M 168.991 24.057 L 170.008 24.057 C 172.258 24.057 174.106 21.746 174.106 18.911 C 174.106 16.076 172.257 13.765 170.008 13.765 C 169.607 13.765 168.991 13.765 168.991 13.765 L 168.991 24.057 Z"
     id="path48" />
  <path
     d="M 221.504 11.208 L 225.109 11.208 C 228.93 11.208 232.042 14.659 232.042 18.911 C 232.042 23.163 228.93 26.614 225.109 26.614 C 224.77 26.614 221.504 26.614 221.504 26.614 L 221.504 11.208 Z M 224.092 24.057 L 225.109 24.057 C 227.359 24.057 229.207 21.746 229.207 18.911 C 229.207 16.076 227.358 13.765 225.109 13.765 C 224.708 13.765 224.092 13.765 224.092 13.765 L 224.092 24.057 Z"
     id="path50" />
  <path
     d="M 236.139 11.208 L 243.842 11.208 L 243.842 13.765 L 238.727 13.765 L 238.727 16.847 L 243.842 16.847 L 243.842 19.435 L 238.727 19.435 L 238.727 24.057 L 243.842 24.057 L 243.842 26.615 L 236.139 26.615 L 236.139 11.208 Z"
     id="path52" />
  <path
     id="rect1645"
     d="m 214.158,11.145 h 2.588 v 15.419 h -2.588 z" />
  <path
     d="M 92.752 0.07 L 93.753 6.154 L 90.21 12.932 C 90.21 12.932 88.85 10.056 86.59 8.464 C 84.686 7.123 83.446 6.832 81.507 7.232 C 79.017 7.745 76.193 10.724 74.96 14.395 C 73.485 18.788 73.471 20.914 73.42 22.867 C 73.337 25.998 73.831 27.848 73.831 27.848 C 73.831 27.848 71.681 23.869 71.7 18.04 C 71.714 13.881 72.367 10.107 74.293 6.385 C 75.986 3.111 78.503 1.147 80.737 0.916 C 83.047 0.677 84.872 1.791 86.282 2.996 C 87.762 4.261 89.26 7.027 89.26 7.027 L 92.752 0.07 Z"
     id="path56" />
  <path
     d="M 93.189 34.499 C 93.189 34.499 91.623 37.297 90.647 38.375 C 89.671 39.454 87.926 41.353 85.769 42.303 C 83.613 43.253 82.483 43.432 80.352 43.227 C 78.224 43.021 76.245 41.789 75.551 41.276 C 74.858 40.762 73.086 39.248 72.085 37.836 C 71.084 36.424 69.518 33.6 69.518 33.6 C 69.518 33.6 70.391 36.43 70.936 37.631 C 71.25 38.322 72.216 40.437 73.587 42.277 C 74.865 43.994 77.348 46.949 81.122 47.617 C 84.896 48.284 87.489 46.59 88.131 46.179 C 88.773 45.768 90.125 44.637 90.981 43.721 C 91.875 42.765 92.72 41.545 93.189 40.813 C 93.531 40.279 94.087 39.196 94.087 39.196 L 93.189 34.499 Z"
     id="path58" />
</svg>
