<?xml version="1.0" encoding="UTF-8" standalone="no"?>
<svg xmlns:dc="http://purl.org/dc/elements/1.1/" xmlns:cc="http://creativecommons.org/ns#" xmlns:rdf="http://www.w3.org/1999/02/22-rdf-syntax-ns#" xmlns:svg="http://www.w3.org/2000/svg" xmlns="http://www.w3.org/2000/svg" version="1.1" id="svg2" xml:space="preserve" width="72" height="48" viewBox="0 0 72.000001 47.999998"><metadata id="metadata8"><rdf:RDF><cc:Work rdf:about=""><dc:format>image/svg+xml</dc:format><dc:type rdf:resource="http://purl.org/dc/dcmitype/StillImage" /><dc:title></dc:title></cc:Work></rdf:RDF></metadata><defs id="defs6" /><g id="g3585" transform="matrix(0.24354564,0,0,0.24354564,1.2221709,9.7345716)"><path d="m 252.29599,79.032934 -17.308,-36.064132 h 15.70534 l 9.164,20.939599 9.15866,-20.939599 h 15.70534 l -17.59334,36.064132 18.468,37.661966 h -15.70666 l -10.032,-22.538499 -10.03334,22.538499 h -15.70666 l 18.17866,-37.661966" style="fill:#005a9c;stroke-width:0.133333" id="path20" /><path d="M 0,0.66160291 34.513487,117.15169 h 1.435706 L 57.520121,44.963341 79.098122,117.15169 h 1.435706 l 25.863902,-87.288 c 4.93965,-16.670044 2.4888,-14.823826 17.22845,-14.823826 h 12.15751 l -24.03213,41.71323 h 9.6468 c 6.23409,0 12.79794,2.249542 16.25246,6.754174 0.48395,0.625007 0.91884,1.305323 1.32254,2.015642 0.0935,0.163637 0.17943,0.334009 0.26876,0.502144 0.37992,0.719137 0.73474,1.463618 1.03965,2.263179 1.21197,3.180017 1.82469,7.000521 1.82469,11.471492 0,6.32966 -1.39175,11.744203 -4.17274,16.252456 -0.75494,1.222838 -1.55791,2.263426 -2.40463,3.154308 -0.54158,0.569818 -1.10481,1.064171 -1.68324,1.499361 -0.0486,0.0364 -0.0996,0.0706 -0.14854,0.10609 -0.58976,0.42986 -1.18945,0.79858 -1.81761,1.08916 -0.57254,0.26485 -1.17039,0.45263 -1.77518,0.60115 -0.15448,0.0376 -0.31026,0.069 -0.46678,0.099 -0.62212,0.12051 -1.25378,0.2051 -1.90956,0.2051 -0.0293,0 -0.0557,-0.007 -0.0849,-0.007 -0.0293,-1.5e-4 -0.0557,-0.007 -0.0849,-0.007 -0.0148,-1.4e-4 -0.0282,-0.005 -0.0424,-0.007 -0.034,-4.3e-4 -0.0652,-0.007 -0.099,-0.007 -0.86248,-0.0156 -1.70658,-0.0811 -2.51778,-0.22631 -0.005,-8.2e-4 -0.01,8.2e-4 -0.0141,0 -0.22194,-0.0399 -0.4255,-0.12714 -0.64359,-0.17682 -0.0454,-0.0101 -0.0903,-0.0214 -0.13438,-0.0355 -0.0553,-0.0134 -0.10758,-0.0355 -0.16266,-0.0495 -0.55344,-0.1284 -1.10918,-0.25221 -1.63373,-0.45263 -0.82667,-0.31587 -1.61899,-0.7083 -2.38341,-1.1811 -0.76444,-0.472 -1.49791,-1.02348 -2.19954,-1.65414 -1.50001,-1.629786 -2.62956,-3.482425 -3.82619,-5.290183 H 99.219203 c 0.995397,2.958373 2.232047,5.634397 3.656447,8.090863 l -0.0424,0.0778 c 0.15404,0.27825 0.36026,0.53874 0.53043,0.81334 1.01402,1.64714 2.10603,3.20923 3.32405,4.61829 1.08477,1.25494 2.24722,2.41323 3.49378,3.47964 0.62017,0.53094 1.2554,1.02738 1.90248,1.49229 0,0 0.007,0.007 0.007,0.007 0.64451,0.46271 1.30203,0.88997 1.97321,1.28718 0.41659,0.24656 0.84618,0.45765 1.27304,0.67896 0.0571,0.0297 0.11247,0.0628 0.16972,0.0919 0.20644,0.11348 0.41097,0.23193 0.62237,0.33241 0.007,0.003 0.0145,0.004 0.0214,0.007 0.69487,0.32948 1.40009,0.62691 2.12173,0.89112 0.01,0.004 0.0185,0.0105 0.0282,0.0141 0,0 0.007,0 0.007,0 0.71622,0.26134 1.44324,0.48866 2.18539,0.68603 0.0145,0.004 0.0279,0.0105 0.0424,0.0141 0,0 0.007,0 0.007,0 0.73859,0.19489 1.4919,0.35639 2.2561,0.488 0.0185,0.003 0.038,0.004 0.0566,0.007 0.68245,0.11541 1.3764,0.19612 2.07929,0.2617 0.0167,0.002 0.0326,0.005 0.0495,0.007 0.0257,0.005 0.0513,0.0116 0.0778,0.0141 0.0396,0.007 0.0796,0.0105 0.12022,0.0141 0,0 0.007,0 0.007,0 0.0192,0.002 0.0373,0.005 0.0566,0.007 0,0 0.007,0 0.007,0 0.42343,0.0348 0.86208,0.0329 1.29425,0.0495 0.0898,0.003 0.17867,0.0116 0.26876,0.0141 0.0565,0.003 0.11272,0.006 0.16972,0.007 0.21821,0.013 0.43551,0.0279 0.65774,0.0282 0.0286,7e-5 0.0561,0 0.0849,0 0.64543,0 1.26021,-0.0613 1.88833,-0.099 v -0.0355 c 0.67572,-0.0486 1.36973,-0.0561 2.02979,-0.14144 0.0927,-0.0127 0.18356,-0.0286 0.27582,-0.0424 1.23934,-0.17269 2.43989,-0.43385 3.60695,-0.76382 5.44064,-1.5383 10.11423,-4.74419 13.9822,-9.70339 5.60906,-7.191475 8.4162,-16.058272 8.4162,-26.606498 0,-8.531282 -1.92223,-15.959207 -5.75696,-22.285246 -2.91225,-4.804234 -6.87602,-8.471189 -11.88877,-11.01178 -0.15531,-0.07876 -0.32376,-0.142635 -0.48093,-0.219257 -0.64755,-0.315034 -1.29854,-0.627064 -1.98028,-0.905272 -0.84547,-0.346719 -1.71586,-0.665523 -2.6168,-0.954779 C 143.62165,29.806742 152.18743,15.3143 160.47329,0.66170885 H 115.0532 c -13.12391,0 -15.761904,2.23654635 -20.319114,17.73059915 L 79.098122,71.562771 58.241511,0.66160291 H 43.148932 L 46.600281,12.246254 c 2.875157,9.647684 2.619842,14.383754 -0.07778,23.515847 L 35.949193,71.562771 15.099651,0.66160291 Z" style="fill:#005a9c;stroke-width:3.62109" id="path1599" /><path id="path8" d="m 216.47298,-0.00403575 1.22414,7.43720055 c 1.14265,6.9420502 -0.0181,9.8172242 -3.10563,15.7218832 l -4.32976,8.284683 c 0,0 -3.32474,-7.029757 -8.84786,-10.919484 -4.65391,-3.277655 -7.68529,-3.991134 -12.42612,-3.01327 -6.08811,1.256737 -12.99111,8.536392 -16.00438,17.511013 -3.60361,10.738398 -3.63983,15.935565 -3.76659,20.708991 -0.20281,7.652693 1.00322,12.17622 1.00322,12.17622 0,0 -5.25511,-9.727938 -5.20803,-23.975782 0.0326,-10.169787 1.63339,-19.390685 6.33801,-28.492065 4.13962,-8.0003783 10.29292,-12.8027781 15.75448,-13.3677663 5.64626,-0.5830968 10.10821,2.1368144 13.55609,5.0848939 3.6181,3.0929484 7.27966,9.8510764 7.27966,9.8510764 z" style="stroke-width:3.62172" /><path id="path10" d="m 217.53444,84.155698 c 0,0 -3.82793,6.841016 -6.21088,9.477469 -2.38657,2.636454 -6.65269,7.279223 -11.92198,9.600603 -5.27291,2.32138 -8.03249,2.75958 -13.24021,2.25982 -5.2041,-0.49977 -10.04242,-3.51286 -11.73729,-4.76952 -1.69486,-1.256664 -6.02617,-4.957838 -8.47069,-8.409129 -2.44813,-3.454913 -6.27606,-10.353873 -6.27606,-10.353873 0,0 2.13306,6.920689 3.4694,9.854106 0.76776,1.687619 3.12898,6.859124 6.48249,11.357026 3.12173,4.19732 9.19499,11.42222 18.41895,13.05189 9.22397,1.6333 15.5616,-2.5097 17.12971,-3.51647 1.56811,-1.00316 5.18711,-3.36952 7.28008,-5.60783 2.18402,-2.33565 3.34297,-4.01045 4.79889,-6.9561 1.0577,-2.139913 1.97289,-7.160799 1.38034,-10.246101 z" style="stroke-width:3.6215" /></g></svg>
