<?xml version="1.0" encoding="UTF-8" standalone="no"?>
<svg
   id="Layer_1"
   width="120"
   height="120"
   version="1.1"
   viewBox="0 0 120 120"
   xmlns="http://www.w3.org/2000/svg"
   xmlns:svg="http://www.w3.org/2000/svg">
  <defs
     id="defs2929" />
  <g
     id="g28"
     transform="matrix(1.3431617,0,0,1.3431617,-54.79556,-5.2372341)">
    <g
       aria-label="CHAPTER"
       id="g20">
      <path
         d="M 69.94572,66.7399 C 69.47599,67.21939 68.60588,67.5192 67.73674,67.5192 65.63811,67.5192 64.18889,66.10025 64.18889,63.92154 64.18889,61.91275 65.48772,60.32388 67.67717,60.32388 68.57658,60.32388 69.30608,60.5729 69.8051,61.00357 L 69.41545,61.64322 C 68.95647,61.30338 68.41643,61.12271 67.68692,61.12271 66.1674,61.12271 65.0883,62.26236 65.0883,63.92154 65.0883,65.59049 66.19768,66.72037 67.81682,66.72037 68.48674,66.72037 69.12541,66.4899 69.60588,66.10025 Z"
         id="path6"
         style="fill:#005a9c" />
      <path
         d="M 75.88615,64.25162 H 72.03849 V 67.41959 H 71.18888 V 60.4235 H 72.03849 V 63.45182 H 75.88615 V 60.4235 H 76.73576 V 67.41959 H 75.88615 Z"
         id="path8"
         style="fill:#005a9c" />
      <path
         d="M 80.83732,60.38345 H 81.56681 L 84.5756,67.41958 H 83.66544 L 82.76603,65.30044 H 79.57853 L 78.68888,67.41958 H 77.8295 L 80.83731,60.38345 Z M 79.91838,64.50162 H 82.43692 L 81.17717,61.51236 Z"
         id="path10"
         style="fill:#005a9c" />
      <path
         d="M 85.66838,67.41958 V 60.42349 C 86.05803,60.42349 87.05705,60.40298 87.4965,60.40298 89.49552,60.40298 90.08537,61.48306 90.08537,62.57193 90.08537,63.71158 89.2758,64.77115 87.56682,64.77115 87.28752,64.77115 86.8676,64.76138 86.51799,64.73111 V 67.41959 H 85.66838 Z M 86.51799,61.2233 V 63.92154 C 86.85783,63.95181 87.18692,63.97134 87.53654,63.97134 88.56681,63.97134 89.18595,63.44204 89.18595,62.56216 89.18595,61.73306 88.68595,61.20278 87.57657,61.20278 87.29727,61.20278 86.84708,61.21255 86.51798,61.22329 Z"
         id="path12"
         style="fill:#005a9c" />
      <path
         d="M 90.39787,60.42349 H 96.14494 V 61.22329 H 93.6967 V 67.41958 H 92.84709 V 61.22329 H 90.39787 Z"
         id="path14"
         style="fill:#005a9c" />
      <path
         d="M 97.18791,60.42349 H 101.13518 V 61.22329 H 98.03752 V 63.48208 H 100.83537 V 64.28091 H 98.03752 V 66.61978 H 101.23576 V 67.41958 H 97.18791 Z"
         id="path16"
         style="fill:#005a9c" />
      <path
         d="M 102.82853,67.41958 V 60.42349 C 103.21818,60.42349 104.50724,60.40298 104.70744,60.40298 106.61564,60.40298 107.19572,61.35318 107.19572,62.48208 107.19572,63.57192 106.44572,64.26138 105.67619,64.46157 L 108.00529,67.41958 H 106.96623 L 104.81682,64.62075 H 103.67815 V 67.41958 H 102.82854 Z M 103.67814,61.2233 V 63.82193 H 104.70744 C 105.51701,63.82193 106.29631,63.32193 106.29631,62.49185 106.29631,61.7731 105.8969,61.20279 104.65666,61.20279 104.43692,61.20279 104.00725,61.21256 103.67814,61.2233 Z"
         id="path18"
         style="fill:#005a9c" />
    </g>
    <path
       style="fill:none;stroke:#005a9c;stroke-width:3.94036;stroke-linecap:round"
       d="M 88.928364,50.807354 88.941841,50.822162 C 90.007917,51.955197 91.629547,52.44997 92.851451,52.44997 95.084059,52.44997 96.823011,50.790513 96.823011,50.790513 M 81.491687,35.471483 C 81.491687,35.471483 83.195474,33.814717 85.39726,33.814717 86.770305,33.814717 88.294004,34.251613 89.334483,35.427703 L 96.356959,43.366041 C 97.343686,44.481382 99.038341,44.995869 100.30564,44.995869 104.15447,44.995869 105.28761,43.495491 105.28761,41.644619 105.28761,39.793759 103.78721,38.293372 101.93632,38.293372 M 88.928364,50.807354 74.467195,35.43915 C 73.794098,34.723805 72.469555,33.814717 70.488882,33.814717 67.537882,33.814717 64.901691,36.19504 64.898237,39.405298 64.896517,41.005067 65.40599,42.191412 66.59341,43.37952 L 74.034806,50.824866 C 75.222227,52.012955 76.436499,52.454175 77.943073,52.44997 80.158866,52.443776 80.904678,51.846473 81.89579,50.822835 M 99.566335,32.572355 C 100.16293,31.956186 101.01064,31.590787 101.93608,31.590787 103.78698,31.590787 105.2874,33.091213 105.2874,34.942074 105.2874,36.790968 103.78493,38.293372 101.93608,38.293372"
       id="path2" />
  </g>
  <g
     aria-label="WORLD WIDE WEB CONSORTIUM"
     id="g122"
     transform="matrix(1.3431617,0,0,1.3431617,-55.537574,-6.4009582)">
    <polygon
       points="45.94165,69.02007 49.36707,68.48766 46.74304,70.71272 47.32558,71.9428 51.4172,68.28299 50.92489,67.24237 47.40267,67.71186 49.99144,65.27175 49.49913,64.23182 44.10691,65.14591 44.60302,66.19276 47.99317,65.58498 45.42376,67.92621 "
       id="polygon30"
       style="fill:#002a56" />
    <path
       d="M 46.41668,63.62197 C 48.0312,63.16216 48.70882,61.72465 48.27044,60.18342 47.83068,58.64219 46.41737,57.80001 44.88306,58.2377 43.26923,58.69751 42.59127,60.13433 43.03034,61.67556 43.4898,63.29008 44.94806,64.04099 46.41669,63.62197 Z M 44.1159,61.36717 C 43.88323,60.5485 44.30778,59.73191 45.23362,59.46777 46.08755,59.22438 46.91037,59.53 47.18453,60.49249 47.41513,61.30286 46.93526,62.14435 46.06681,62.39189 45.14028,62.65602 44.3548,62.20658 44.1159,61.36717 Z"
       id="path32"
       style="fill:#002a56" />
    <path
       d="M 47.14684,55.5466 45.32316,55.80382 45.26128,55.36475 46.90726,53.8415 46.70294,52.39777 44.86232,54.2059 C 44.68116,53.94315 44.20268,53.40244 43.23535,53.53935 42.27424,53.67487 41.63881,54.28058 41.83863,55.70219 41.85937,55.85154 42.06266,57.18188 42.10345,57.47229 L 47.31486,56.73798 47.14684,55.54662 Z M 43.05211,56.12326 C 43.00993,55.87918 42.98919,55.78376 42.96395,55.60399 42.8834,55.03147 43.1375,54.8434 43.42825,54.80261 43.86732,54.74107 44.08166,55.07504 44.14597,55.52932 L 44.20682,55.96078 43.05211,56.12327 Z"
       id="path34"
       style="fill:#002a56" />
    <polygon
       points="45.56067,50.70096 41.42722,50.81643 41.46041,52.01954 46.72126,51.87158 46.62791,48.52706 45.50051,48.55887 "
       id="polygon36"
       style="fill:#002a56" />
    <path
       d="M 46.65177,47.80243 C 46.6981,47.30113 46.77623,46.61315 46.80181,46.33588 46.98643,44.33622 45.86629,43.22023 44.3987,43.08609 43.00579,42.95679 41.72108,43.69179 41.52817,45.78825 41.49636,46.13259 41.4331,47.06327 41.40751,47.34054 L 41.39818,47.44564 46.64001,47.92965 46.65176,47.80242 Z M 45.68236,46.19482 C 45.66646,46.36699 45.65678,46.47209 45.62704,46.62766 L 42.63171,46.35108 C 42.62272,46.19965 42.63828,46.0344 42.65038,45.90717 42.73992,44.93362 43.31486,44.26983 44.28115,44.35834 45.27717,44.45099 45.77778,45.16111 45.68236,46.19481 Z"
       id="path38"
       style="fill:#002a56" />
    <polygon
       points="43.12125,37.19015 46.02359,39.0854 42.58504,38.98376 42.19472,40.28713 47.68375,40.30372 48.01322,39.20225 45.0815,37.19568 48.63725,37.11271 48.96707,36.01124 44.34857,33.08367 44.01667,34.19274 46.94286,36.00917 43.46801,36.02991 "
       id="polygon40"
       style="fill:#002a56" />
    <rect
       x="47.01828"
       y="29.858841"
       width="1.20389"
       height="5.2645302"
       transform="rotate(-66.18191,47.620214,32.4911)"
       id="rect42"
       style="fill:#002a56" />
    <path
       d="M 50.83846,31.71668 C 51.08807,31.2783 51.44244,30.68435 51.58038,30.44235 52.57156,28.69645 52.00977,27.21884 50.72783,26.49075 49.51193,25.80069 48.03984,25.94105 47.00026,27.772 46.82878,28.07278 46.38833,28.8949 46.25108,29.13622 L 46.19922,29.22818 50.77589,31.82732 50.83847,31.71669 Z M 50.38971,30.22455 47.77398,28.73864 C 47.82791,28.59759 47.91019,28.45307 47.97312,28.34244 48.45644,27.49266 49.25367,27.12342 50.09689,27.60329 50.96673,28.09698 51.12956,28.95091 50.6172,29.85325 50.53215,30.00329 50.48029,30.09456 50.38972,30.22456 Z"
       id="path44"
       style="fill:#002a56" />
    <polygon
       points="52.08582,22.18652 51.17969,21.51512 49.32178,24.02299 53.5503,27.1573 55.45384,24.58928 54.54736,23.91789 53.36084,25.51858 52.59403,24.95022 53.60078,23.59084 52.69498,22.91876 51.68686,24.27882 50.94425,23.72774 "
       id="polygon46"
       style="fill:#002a56" />
    <polygon
       points="55.23535,17.14313 56.77588,20.24771 53.86352,18.41677 52.86715,19.3433 57.58971,22.1395 58.43189,21.35678 56.92212,18.14088 60.02982,19.87295 60.87234,19.08885 58.3745,14.22593 57.52645,15.01348 59.12748,18.06275 56.12247,16.31893 "
       id="polygon48"
       style="fill:#002a56" />
    <polygon
       points="62.66595,12.72273 62.02567,11.79412 59.45523,13.56421 62.44296,17.90095 65.07528,16.08729 64.43501,15.1573 62.79317,16.2885 62.25074,15.50233 63.64469,14.54192 63.0051,13.61261 61.6115,14.57303 61.08634,13.81175 "
       id="polygon50"
       style="fill:#002a56" />
    <path
       d="M 67.25886,14.8904 C 68.26629,14.349 68.77589,13.48608 68.25246,12.51253 67.93163,11.91581 67.42584,11.75263 67.02031,11.80795 L 67.01305,11.79481 C 67.23673,11.38478 67.24745,10.96024 66.98781,10.47623 66.64209,9.83457 65.9178,9.56629 64.81184,10.16093 64.30778,10.43198 63.6796,10.80397 63.42861,10.9554 L 65.9064,15.56595 C 66.19197,15.44633 66.81565,15.12827 67.25886,14.89041 Z M 67.16379,13.02834 C 67.33147,13.34018 67.22222,13.6292 66.81115,13.84978 66.61236,13.95695 66.5159,13.98323 66.43224,14.00259 L 65.96586,13.13483 66.37658,12.91426 C 66.72092,12.72895 67.00718,12.73725 67.16379,13.02835 Z M 65.46699,12.2076 65.01513,11.3668 C 65.12714,11.28936 65.1994,11.23335 65.33181,11.16213 65.59041,11.02246 65.91746,11.02661 66.06681,11.30457 66.24831,11.64269 66.09032,11.87294 65.81858,12.01883 L 65.46698,12.20759 Z"
       id="path52"
       style="fill:#002a56" />
    <path
       d="M 73.49153,12.23249 C 74.1643,11.99463 74.72437,11.52514 74.90346,11.08608 L 74.16984,10.3891 C 73.92507,10.75557 73.5752,11.00656 73.22118,11.13309 72.32853,11.44839 71.4981,11.04113 71.18626,10.1623 70.83985,9.1846 71.27684,8.43922 72.04296,8.16818 72.51107,8.00223 72.83743,8.04649 73.16448,8.11356 L 73.36569,7.08469 C 72.96534,6.89938 72.32507,6.87173 71.66612,7.10543 69.95825,7.71044 69.47701,9.16524 69.98176,10.58961 70.53007,12.1343 71.95445,12.77803 73.49153,12.23248 Z"
       id="path54"
       style="fill:#002a56" />
    <path
       d="M 77.87529,11.03699 C 79.4421,10.70302 80.37762,9.35056 80.04504,7.79066 79.69586,6.14986 78.30813,5.37614 76.74132,5.71011 75.10052,6.05929 74.25351,7.46154 74.57088,8.95575 74.92075,10.59655 76.30779,11.37027 77.87529,11.037 Z M 76.97641,6.81296 C 77.80822,6.63595 78.59439,7.11512 78.79491,8.05687 78.97953,8.92532 78.61859,9.72463 77.6402,9.93276 76.816,10.10839 76.00978,9.57252 75.82239,8.68954 75.62187,7.74779 76.12248,6.99481 76.97641,6.81296 Z"
       id="path56"
       style="fill:#002a56" />
    <polygon
       points="85.96587,10.02264 85.65265,4.76559 84.52628,4.83266 84.71574,8.00224 82.03294,4.98132 81.07183,5.03871 81.38575,10.29507 82.51142,10.22869 82.32334,7.07432 85.00476,10.07934 "
       id="polygon58"
       style="fill:#002a56" />
    <path
       d="M 88.64176,9.13344 C 88.27391,9.10855 87.82724,8.90665 87.55204,8.50423 L 86.81634,9.27796 C 87.03414,9.85739 87.83276,10.21072 88.53803,10.25635 89.55169,10.32204 90.38004,9.7433 90.4395,8.82783 90.55082,7.11651 88.34581,7.18427 88.40251,6.31374 88.41772,6.07381 88.62239,5.93621 88.9529,5.95834 89.34287,5.98254 89.50744,6.12982 89.72524,6.36214 L 90.42913,5.50337 C 90.12213,5.1293 89.59594,4.86932 88.92109,4.82506 87.8701,4.7573 87.17865,5.42039 87.12679,6.23076 87.01685,7.92687 89.21426,7.97182 89.16309,8.75937 89.14719,9.0076 88.95635,9.15349 88.64174,9.13344 Z"
       id="path60"
       style="fill:#002a56" />
    <path
       d="M 93.50399,10.89801 C 95.07702,11.20639 96.46752,10.32757 96.77383,8.76214 97.09535,7.11581 96.12318,5.86015 94.54946,5.55246 92.90313,5.22956 91.57349,6.18928 91.28031,7.68764 90.9581,9.33466 91.93165,10.59032 93.50399,10.89801 Z M 92.53528,7.93379 C 92.72059,6.98859 93.47633,6.49213 94.33303,6.66015 95.1676,6.82333 95.70347,7.57216 95.51886,8.51737 95.34876,9.3879 94.70296,9.98323 93.72111,9.79032 92.89414,9.62852 92.36242,8.81953 92.53528,7.93379 Z"
       id="path62"
       style="fill:#002a56" />
    <path
       d="M 98.76657,10.26534 99.18628,10.40847 99.79752,12.56854 101.17764,13.04287 100.40115,10.58064 C 100.71852,10.53777 101.41688,10.35592 101.73494,9.43077 102.05024,8.51253 101.79855,7.67035 100.43917,7.20294 100.29673,7.15454 99.01825,6.73138 98.74029,6.63596 L 97.02897,11.61712 98.16778,12.00848 98.76657,10.26535 Z M 99.51263,8.09489 C 99.7498,8.16818 99.84521,8.19307 100.01531,8.25116 100.56362,8.43923 100.61548,8.75177 100.52006,9.02973 100.37555,9.44944 99.98004,9.48816 99.54651,9.3395 L 99.13372,9.19775 99.51263,8.0949 Z"
       id="path64"
       style="fill:#002a56" />
    <polygon
       points="106.59509,11.0681 107.07703,10.04684 103.13096,8.18132 102.64764,9.20259 104.07755,9.87744 102.30745,13.62091 103.39647,14.13535 105.16588,10.39256 "
       id="polygon66"
       style="fill:#002a56" />
    <rect
       x="104.62812"
       y="12.62727"
       width="5.2646298"
       height="1.20285"
       transform="rotate(-59.6634,107.26043,13.22869)"
       id="rect68"
       style="fill:#002a56" />
    <path
       d="M 109.31177,17.82973 C 110.22309,18.49628 111.4345,18.57234 112.38455,17.27312 L 114.21065,14.77977 113.23917,14.06897 111.5562,16.36871 C 111.05836,17.0484 110.56744,17.35056 109.97833,16.91979 109.29933,16.42195 109.46666,15.77199 109.95136,15.11028 L 111.59561,12.86516 110.62413,12.15436 108.82983,14.60553 C 107.9192,15.85013 108.21998,17.03042 109.31177,17.82973 Z"
       id="path70"
       style="fill:#002a56" />
    <polygon
       points="118.75759,19.08055 116.10175,19.55834 116.52768,16.84166 115.67306,15.98288 111.94203,19.70008 112.79112,20.55194 115.1524,18.20034 114.74306,20.66811 114.86545,20.79118 117.35603,20.38047 114.97815,22.74866 115.82794,23.6019 119.55966,19.88539 "
       id="polygon72"
       style="fill:#002a56" />
    <polygon
       points="126.13529,29.92723 122.70919,30.45342 125.33736,28.23388 124.75724,27.00242 120.65906,30.65394 121.14929,31.69456 124.6715,31.23267 122.07859,33.66725 122.56882,34.70856 127.96139,33.80554 127.46839,32.75731 124.07686,33.35748 126.65111,31.02317 "
       id="polygon74"
       style="fill:#002a56" />
    <path
       d="M 125.64713,35.32256 C 124.03399,35.7803 123.3543,37.21504 123.79199,38.75558 124.22898,40.29681 125.63953,41.13899 127.17315,40.70407 128.78698,40.24633 129.46598,38.8109 129.02898,37.27036 128.57194,35.65722 127.11576,34.90631 125.64713,35.32256 Z M 127.94411,37.57805 C 128.17574,38.39534 127.7512,39.21193 126.82466,39.47468 125.97142,39.71669 125.14998,39.41038 124.87686,38.44789 124.6473,37.63752 125.12785,36.79811 125.99562,36.55195 126.92146,36.2892 127.70556,36.73864 127.94411,37.57805 Z"
       id="path76"
       style="fill:#002a56" />
    <path
       d="M 124.90867,43.41384 126.73408,43.16077 126.79493,43.60053 125.14515,45.12032 125.34636,46.56544 127.19182,44.76077 C 127.37229,45.02352 127.85007,45.56492 128.81879,45.43078 129.7799,45.29664 130.41741,44.69163 130.21965,43.26864 130.1996,43.11998 129.99839,41.78826 129.95898,41.49785 L 124.74273,42.22179 124.90868,43.41384 Z M 129.00616,42.84478 C 129.04834,43.08955 129.06908,43.18566 129.09397,43.36405 129.17279,43.93795 128.91834,44.12464 128.62794,44.16612 128.18818,44.22697 127.97522,43.89231 127.9116,43.43734 L 127.85214,43.00519 Z"
       id="path78"
       style="fill:#002a56" />
    <polygon
       points="126.48101,48.26362 130.61515,48.16129 130.58473,46.95818 125.32284,47.08955 125.40582,50.43406 126.53425,50.40641 "
       id="polygon80"
       style="fill:#002a56" />
    <path
       d="M 125.39683,51.03216 125.38438,51.15939 C 125.33667,51.66138 125.25577,52.34867 125.22881,52.62663 125.03866,54.62629 126.15534,55.74642 127.62397,55.8861 129.01723,56.01955 130.30401,55.288 130.50452,53.19085 130.53702,52.84651 130.6034,51.91514 130.62967,51.63856 L 130.64004,51.53346 125.39682,51.03216 Z M 129.38162,53.06846 C 129.28897,54.0427 128.71161,54.70511 127.74566,54.61245 126.74929,54.51703 126.25007,53.80484 126.34894,52.77183 126.36553,52.59897 126.37521,52.49387 126.40564,52.3376 L 129.40097,52.62455 C 129.40927,52.77598 129.39406,52.94054 129.38161,53.06846 Z"
       id="path82"
       style="fill:#002a56" />
    <polygon
       points="128.89138,61.79172 125.99216,59.88472 129.43417,59.99673 129.82829,58.69267 124.33408,58.66017 124.0008,59.76233 126.92976,61.77996 123.36882,61.85187 123.03555,62.95473 127.65093,65.89889 127.98559,64.78913 125.06217,62.96164 128.54151,62.95127 "
       id="polygon84"
       style="fill:#002a56" />
    <rect
       x="123.78554"
       y="63.823631"
       width="1.20357"
       height="5.26478"
       transform="rotate(-66.09787,124.38732,66.456019)"
       id="rect86"
       style="fill:#002a56" />
    <path
       d="M 121.16104,67.2396 C 120.91143,67.67728 120.55603,68.27054 120.41774,68.51324 119.42344,70.25706 119.98351,71.73606 121.26407,72.46553 122.47894,73.15836 123.9524,73.02007 124.99441,71.19051 125.1652,70.88904 125.60772,70.0683 125.74532,69.82629 L 125.79856,69.73433 121.22397,67.12828 121.16105,67.2396 Z M 121.60841,68.73174 124.22207,70.22111 C 124.16675,70.36355 124.08447,70.50737 124.02155,70.61869 123.53754,71.46778 122.73961,71.83563 121.89674,71.35508 121.0276,70.86001 120.8658,70.00538 121.37954,69.10374 121.46528,68.9537 121.51714,68.86173 121.60841,68.73174 Z"
       id="path88"
       style="fill:#002a56" />
    <polygon
       points="119.89778,76.75456 120.80288,77.42872 122.66977,74.92431 118.44574,71.77686 116.53459,74.34073 117.439,75.01489 118.63105,73.41627 119.39786,73.98809 118.38559,75.3447 119.29069,76.01955 120.30296,74.66156 121.04488,75.2154 "
       id="polygon90"
       style="fill:#002a56" />
    <polygon
       points="116.7365,81.80141 115.19872,78.69268 118.11109,80.52846 119.10953,79.60261 114.38766,76.79881 113.54341,77.58083 115.05006,80.8002 111.94341,79.06398 111.09916,79.84669 113.59112,84.71653 114.4409,83.92898 112.84298,80.87625 115.84868,82.62492 "
       id="polygon92"
       style="fill:#002a56" />
    <polygon
       points="109.2931,86.20037 109.93131,87.12967 112.50348,85.36441 109.52612,81.02491 106.89103,82.83235 107.52923,83.76234 109.1721,82.63529 109.71212,83.42284 108.31748,84.38049 108.95568,85.30979 110.35032,84.35283 110.87444,85.1155 "
       id="polygon94"
       style="fill:#002a56" />
    <path
       d="M 104.70399,84.0244 C 103.69656,84.56303 103.18489,85.42526 103.70624,86.39951 104.025,86.99553 104.53113,87.16079 104.93701,87.10547 L 104.94392,87.11861 C 104.71989,87.52864 104.70745,87.95318 104.96674,88.4365 105.31039,89.07954 106.03502,89.34921 107.14202,88.75664 107.64608,88.48767 108.2746,88.11705 108.52629,87.96494 L 106.05784,83.35094 C 105.77158,83.47056 105.1479,83.78655 104.70399,84.02441 Z M 104.79526,85.88507 C 104.62931,85.57323 104.73856,85.2849 105.14997,85.06502 105.34841,84.95785 105.44522,84.93226 105.52957,84.9129 L 105.99353,85.78135 105.58281,86.00123 C 105.23778,86.18515 104.95152,86.17686 104.79526,85.88507 Z M 106.48999,86.70927 106.94012,87.55145 C 106.82811,87.62889 106.7555,87.6849 106.62344,87.75473 106.36484,87.89302 106.03779,87.88956 105.88913,87.61091 105.70866,87.27279 105.86631,87.04254 106.13943,86.89734 Z"
       id="path96"
       style="fill:#002a56" />
    <path
       d="M 98.47893,86.66225 C 97.80546,86.89872 97.2447,87.36752 97.06493,87.8059 L 97.79648,88.50426 C 98.04263,88.13918 98.3925,87.88818 98.74791,87.76372 99.64126,87.44842 100.47099,87.85776 100.78075,88.73727 101.12509,89.71566 100.68533,90.46104 99.91921,90.7307 99.45179,90.89457 99.12543,90.85101 98.79907,90.78256 L 98.5944,91.81074 C 98.99475,91.99674 99.63433,92.02647 100.29397,91.79415 102.00391,91.1919 102.48792,89.7378 101.98593,88.31273 101.44176,86.76666 100.01877,86.12016 98.47893,86.66225 Z"
       id="path98"
       style="fill:#002a56" />
    <path
       d="M 94.07789,87.8543 C 92.5097,88.18481 91.5721,89.53658 91.90053,91.09717 92.24694,92.73935 93.63329,93.51653 95.20217,93.18533 96.84366,92.83961 97.69413,91.43805 97.37883,89.94246 97.03311,88.30097 95.64676,87.52448 94.07788,87.8543 Z M 94.96916,92.0811 C 94.13735,92.25604 93.35049,91.77617 93.15274,90.83374 92.96951,89.9646 93.33113,89.16529 94.31091,88.95924 95.1358,88.785 95.94064,89.32294 96.12733,90.2066 96.32577,91.14904 95.82309,91.90064 94.96916,92.0811 Z"
       id="path100"
       style="fill:#002a56" />
    <polygon
       points="90.88895,93.83944 90.58195,88.58585 89.45628,88.65085 89.6402,91.80383 86.96431,88.79743 86.0039,88.85275 86.31021,94.10703 87.43657,94.04134 87.25126,90.87453 89.92784,93.89545 "
       id="polygon102"
       style="fill:#002a56" />
    <path
       d="M 83.30658,89.73503 C 83.67443,89.75923 84.1211,89.96321 84.3963,90.36632 L 85.13407,89.59329 C 84.91627,89.01248 84.11765,88.65777 83.41168,88.61075 82.39802,88.5423 81.5676,89.12104 81.50675,90.0372 81.39266,91.74991 83.59975,91.68491 83.54098,92.55682 83.52508,92.79675 83.31972,92.93435 82.98852,92.91222 82.59924,92.88595 82.43467,92.73936 82.21687,92.50634 L 81.51091,93.36373 C 81.81791,93.73918 82.34341,94.00055 83.01895,94.04618 84.06994,94.11532 84.76346,93.45361 84.81809,92.64255 84.93149,90.94506 82.73131,90.89596 82.78386,90.10703 82.80045,89.85949 82.9906,89.71429 83.30659,89.73503 Z"
       id="path104"
       style="fill:#002a56" />
    <path
       d="M 78.44711,87.95871 C 76.87546,87.64963 75.48358,88.52569 75.1752,90.08974 74.85091,91.73538 75.82239,92.99173 77.39473,93.3015 79.03967,93.62648 80.3707,92.66952 80.66595,91.17185 80.99093,89.52621 80.01945,88.26848 78.44711,87.95871 Z M 79.41168,90.92431 C 79.22568,91.86882 78.46855,92.3639 77.61254,92.19518 76.77866,92.03062 76.24417,91.28178 76.43017,90.33727 76.60165,89.46605 77.24746,88.87279 78.22861,89.06571 79.05558,89.22889 79.58591,90.03857 79.41167,90.92431 Z"
       id="path106"
       style="fill:#002a56" />
    <path
       d="M 73.19629,88.57894 72.77658,88.43305 72.17157,86.27229 70.79283,85.7945 71.56241,88.2595 C 71.24573,88.30099 70.54668,88.48076 70.22585,89.40384 69.90779,90.32139 70.1574,91.16426 71.5147,91.63513 71.65714,91.68422 72.93423,92.11084 73.2115,92.20695 L 74.93734,87.23201 73.79922,86.8372 73.19628,88.57895 Z M 72.444,90.7473 C 72.20683,90.67262 72.11211,90.64773 71.94201,90.58827 71.3937,90.39812 71.34322,90.08628 71.43933,89.8097 71.58453,89.3893 71.97935,89.35196 72.41357,89.50201 L 72.82636,89.64514 72.44399,90.7473 Z"
       id="path108"
       style="fill:#002a56" />
    <polygon
       points="68.55878,84.69371 66.77935,88.43235 65.35186,87.75266 64.86716,88.77254 68.80839,90.64912 69.29447,89.62993 67.86664,88.95024 69.64642,85.21161 "
       id="polygon110"
       style="fill:#002a56" />
    <rect
       x="62.077438"
       y="85.001503"
       width="5.2656999"
       height="1.20362"
       transform="rotate(-59.57622,64.710293,85.603308)"
       id="rect112"
       style="fill:#002a56" />
    <path
       d="M 62.65454,80.9855 C 61.74529,80.31687 60.53319,80.23736 59.57831,81.53451 L 57.74391,84.0244 58.71401,84.73866 60.40494,82.44168 C 60.90451,81.76337 61.39751,81.4626 61.98523,81.89544 62.66423,82.39535 62.49344,83.04531 62.00736,83.70564 L 60.3555,85.94868 61.3256,86.66225 63.12819,84.21385 C 64.04332,82.97133 63.74496,81.78965 62.65455,80.9855 Z"
       id="path114"
       style="fill:#002a56" />
    <polygon
       points="53.21979,79.71947 55.87424,79.24583 55.44347,81.96113 56.29602,82.8199 60.03189,79.11307 59.18418,78.25914 56.82048,80.60521 57.23362,78.14021 57.11227,78.01783 54.62273,78.42163 57.00268,76.06104 56.15497,75.20711 52.42048,78.91394 "
       id="polygon116"
       style="fill:#002a56" />
    <path
       d="M 51.29446,72.95093 C 50.6853,72.95093 50.17398,73.46191 50.17398,74.07867 50.17398,74.68783 50.6853,75.20711 51.29446,75.20711 51.91088,75.20711 52.42981,74.68784 52.42981,74.07867 52.42981,73.4619 51.91088,72.95093 51.29446,72.95093 Z"
       id="path118"
       style="fill:#002a56" />
    <path
       d="M 119.083,25.02476 C 119.083,25.63392 119.59432,26.1532 120.20348,26.1532 120.8199,26.1532 121.33883,25.63393 121.33883,25.02476 121.33883,24.40799 120.8199,23.89702 120.20348,23.89702 119.59432,23.89702 119.083,24.408 119.083,25.02476 Z"
       id="path120"
       style="fill:#002a56" />
  </g>
</svg>
