<?xml version="1.0" encoding="UTF-8" standalone="no"?>
<svg
   id="Layer_1"
   width="120"
   height="120"
   version="1.1"
   viewBox="0 0 120 120"
   xmlns="http://www.w3.org/2000/svg"
   xmlns:svg="http://www.w3.org/2000/svg">
  <defs
     id="defs2929" />
  <path
     style="fill:none;stroke:#005a9c;stroke-width:5.29254;stroke-linecap:round"
     d="m 65.151619,63.005258 0.01811,0.01989 c 1.431913,1.521849 3.610024,2.186409 5.251238,2.186409 2.998754,0 5.334448,-2.228919 5.334448,-2.228919 M 55.16296,42.406703 c 0,0 2.288461,-2.225304 5.245816,-2.225304 1.844221,0 3.890795,0.586822 5.288327,2.166501 l 9.432321,10.662471 c 1.325333,1.498084 3.601529,2.189123 5.303717,2.189123 5.169601,0 6.691591,-2.01525 6.691591,-4.501271 0,-2.486004 -2.01528,-4.501266 -4.501324,-4.501266 M 65.151619,63.005258 45.727931,42.363275 c -0.904078,-0.960824 -2.683154,-2.181876 -5.343518,-2.181876 -3.96367,0 -7.504501,3.197158 -7.50914,7.509054 -0.0023,2.148748 0.681994,3.742202 2.276891,5.338023 l 9.994999,10.000303 c 1.594898,1.595796 3.225862,2.188426 5.249434,2.182778 2.976168,-0.0083 3.977915,-0.810594 5.309138,-2.185506 M 79.440134,38.512706 c 0.801324,-0.827615 1.939936,-1.318405 3.182951,-1.318405 2.486058,0 4.501365,2.015315 4.501365,4.50132 0,2.483364 -2.01806,4.501336 -4.501365,4.501336"
     id="path2" />
  <path
     d="m 105.7841,28.822894 q 0.17447,-0.115044 0.36591,-0.147405 0.1958,-0.03524 0.37675,0.0019 0.18818,0.03863 0.35427,0.148145 0.16609,0.109519 0.27826,0.279627 0.11504,0.174469 0.15028,0.37027 0.0352,0.195802 -0.003,0.383985 -0.0343,0.185307 -0.14378,0.351397 -0.10516,0.163212 -0.27963,0.278256 -0.17011,0.112168 -0.36591,0.147405 -0.19144,0.03236 -0.37962,-0.0063 -0.18382,-0.0415 -0.34991,-0.151021 -0.16173,-0.112395 -0.27677,-0.286864 -0.11217,-0.170108 -0.15177,-0.363033 -0.0352,-0.195802 -9.7e-4,-0.381109 0.0415,-0.183822 0.14666,-0.347035 0.10952,-0.166089 0.27962,-0.278256 z m 6.90139,3.4626 0.45588,1.055142 q 0.0725,0.167864 0.0414,0.306533 -0.0291,0.143465 -0.1372,0.235711 l -3.27246,2.529399 q -0.25254,0.205865 -0.60035,0.441508 0.20362,-0.04245 0.38806,-0.0766 0.18924,-0.03623 0.35592,-0.04564 l 4.15456,-0.474595 q 0.12689,-0.0093 0.25608,0.06579 0.13399,0.07301 0.2003,0.226487 l 0.15956,0.3693 q 0.0725,0.167863 0.0393,0.301736 -0.0264,0.136597 -0.1372,0.235711 l -3.19786,2.702059 q -0.11837,0.108054 -0.26965,0.218949 -0.14442,0.113619 -0.31009,0.230731 0.19675,-0.04517 0.37433,-0.08205 0.17964,-0.03209 0.3353,-0.05381 l 4.08956,-0.651399 q 0.12482,-0.01409 0.25401,0.061 0.13606,0.07781 0.20237,0.231283 l 0.42687,0.987997 -7.18566,0.862191 -0.49318,-1.141472 3.68997,-3.091111 q 0.0691,-0.064 0.15739,-0.136296 0.0904,-0.0675 0.1903,-0.139137 -0.12067,0.02368 -0.23382,0.03842 -0.11315,0.01474 -0.20504,0.02599 l -4.79031,0.54438 -0.4911,-1.136676 z m 2.46178,17.756125 q -0.74048,0.18315 -1.43215,0.106656 -0.68661,-0.07775 -1.25477,-0.394694 -0.56691,-0.311874 -0.97485,-0.851437 -0.40794,-0.539564 -0.58983,-1.274971 -0.1819,-0.735407 -0.0725,-1.402925 0.10938,-0.667519 0.46428,-1.212775 0.35491,-0.545256 0.92485,-0.939182 0.57626,-0.390109 1.31674,-0.573259 0.73541,-0.181897 1.42201,-0.104148 0.69293,0.08157 1.25602,0.399766 0.56816,0.316945 0.9761,0.856509 0.41302,0.538309 0.59491,1.273716 0.1819,0.735407 0.0675,1.40418 -0.10938,0.667518 -0.46554,1.207703 -0.3549,0.545256 -0.9261,0.93411 -0.57119,0.388854 -1.3066,0.570751 z m -0.33619,-1.359235 q 0.5376,-0.132973 0.93102,-0.370213 0.39341,-0.237241 0.63118,-0.559771 0.23902,-0.317458 0.30843,-0.71137 0.0757,-0.390095 -0.0346,-0.836411 -0.11039,-0.446316 -0.3605,-0.761197 -0.24504,-0.316136 -0.60574,-0.49064 -0.35945,-0.169432 -0.8181,-0.195924 -0.45864,-0.02649 -0.99625,0.106481 -0.54268,0.134226 -0.94116,0.372721 -0.39342,0.237241 -0.63244,0.554699 -0.23269,0.321275 -0.30211,0.715187 -0.0694,0.393913 0.041,0.840229 0.1104,0.446316 0.35418,0.75738 0.24504,0.316136 0.59941,0.486822 0.36071,0.174504 0.81935,0.200996 0.46372,0.02524 1.0064,-0.108989 z m -0.0918,4.411936 -2.65339,0.295349 -0.15259,-1.37083 6.8957,-0.767561 0.23119,2.077017 q 0.0769,0.690608 -0.0188,1.20066 -0.0905,0.509475 -0.32063,0.850505 -0.22956,0.346222 -0.58205,0.53265 -0.35248,0.186428 -0.79385,0.235556 -0.33751,0.03757 -0.65428,-0.0218 -0.31157,-0.05994 -0.58623,-0.21336 -0.2689,-0.148804 -0.49511,-0.386467 -0.22102,-0.238242 -0.37802,-0.562464 -0.0583,0.137906 -0.14938,0.263701 -0.0859,0.125218 -0.22035,0.240059 l -2.34153,1.821928 -0.13699,-1.230632 q -0.0364,-0.32713 0.21914,-0.534309 l 2.00985,-1.49588 q 0.11595,-0.09176 0.15689,-0.196197 0.0415,-0.09925 0.0219,-0.275792 z m 0.97101,-0.108082 0.0774,0.6958 q 0.037,0.332323 0.15186,0.561354 0.11543,0.234224 0.28855,0.372661 0.17312,0.138436 0.3941,0.187435 0.22676,0.05361 0.48119,0.02529 0.50368,-0.05606 0.73901,-0.397671 0.24053,-0.342186 0.16886,-0.986061 l -0.0786,-0.706185 z m -2.06354,6.626122 0.0122,2.408514 -1.1285,0.0057 -0.0191,-3.782569 6.93819,-0.03509 0.007,1.374055 z m 1.68859,9.715495 q -0.75838,-0.08192 -1.37148,-0.38988 -0.6079,-0.307397 -1.01731,-0.798298 -0.40998,-0.485706 -0.59773,-1.131333 -0.18775,-0.645627 -0.10639,-1.398814 l 0.27157,-2.514085 6.89816,0.745151 -0.27158,2.514085 q -0.0814,0.753187 -0.40266,1.343825 -0.3213,0.590638 -0.82553,0.97759 -0.50481,0.392145 -1.16433,0.562632 -0.65953,0.170487 -1.41272,0.08913 z m 0.14982,-1.386903 q 0.55061,0.05948 1.00152,-0.02844 0.45092,-0.08792 0.78488,-0.309341 0.33341,-0.216225 0.53371,-0.562438 0.2055,-0.345652 0.25488,-0.802758 l 0.12344,-1.142766 -4.73209,-0.511169 -0.12344,1.142766 q -0.0494,0.457106 0.0724,0.838108 0.12174,0.381002 0.40128,0.663438 0.27898,0.28763 0.70072,0.469817 0.42693,0.182749 0.98273,0.242787 z m 2.45339,6.460523 -0.36259,1.090725 q -0.0577,0.173524 -0.17327,0.256226 -0.11723,0.08766 -0.25932,0.08447 l -4.1257,-0.292385 q -0.32548,-0.01461 -0.74188,-0.07044 0.18017,0.10394 0.34051,0.201287 0.1653,0.099 0.29591,0.202976 l 3.41534,2.412693 q 0.10084,0.07757 0.14722,0.219618 0.0513,0.143697 -10e-4,0.302348 l -0.12691,0.381754 q -0.0577,0.173524 -0.17162,0.251269 -0.11062,0.08435 -0.25932,0.08447 l -4.18503,-0.113902 q -0.16026,0.0018 -0.34697,-0.01624 -0.1834,-0.01142 -0.38498,-0.03438 0.17686,0.09733 0.33389,0.188076 0.15538,0.0957 0.28597,0.183158 l 3.48459,2.237506 q 0.10249,0.07261 0.14887,0.214661 0.0497,0.148655 -0.003,0.307306 l -0.33951,1.021315 -5.93465,-4.142116 0.39226,-1.179966 4.81123,0.151393 q 0.0942,-0.0017 0.20818,0.0031 0.11235,0.0098 0.23462,0.02294 -0.10579,-0.0627 -0.20001,-0.127054 -0.0942,-0.06436 -0.17027,-0.117166 l -3.93607,-2.784006 0.39061,-1.175009 z m -10.84621,9.064825 0.59472,-1.244498 6.2602,2.991592 -0.59471,1.244498 z m -0.74955,8.318998 q -0.65325,-0.393833 -1.07952,-0.931447 -0.42179,-0.534915 -0.58625,-1.152617 -0.16715,-0.613227 -0.0654,-1.277855 0.10176,-0.664629 0.4929,-1.313414 l 1.30558,-2.1656 5.94198,3.582271 -1.30559,2.165599 q -0.39113,0.648786 -0.93138,1.04906 -0.54025,0.400274 -1.16058,0.538742 -0.62303,0.142943 -1.29299,0.01967 -0.66996,-0.123273 -1.31875,-0.514409 z m 0.72024,-1.194659 q 0.47428,0.285934 0.92026,0.39619 0.44598,0.110255 0.84215,0.05016 0.39347,-0.05562 0.721,-0.285203 0.332,-0.226887 0.56938,-0.620632 l 0.59345,-0.984364 -4.07616,-2.457415 -0.59345,0.984363 q -0.23738,0.393746 -0.2875,0.790574 -0.0501,0.396829 0.0844,0.770752 0.13182,0.378396 0.43753,0.72132 0.31019,0.34562 0.78895,0.634252 z m -1.5286,7.910601 -0.86141,-0.67105 1.75308,-2.250389 -1.44668,-1.12698 -1.36458,1.751677 -0.82844,-0.645364 1.36458,-1.751677 -1.47553,-1.149454 -1.75629,2.254511 -0.8582,-0.675172 2.60072,-3.33849 5.47347,4.263898 z m -3.12118,3.64461 -0.87154,0.74939 q -0.13865,0.11922 -0.2803,0.13077 -0.14562,0.015 -0.26588,-0.0608 l -3.389087,-2.37085 q -0.271724,-0.17979 -0.600244,-0.44166 0.101153,0.18175 0.188681,0.34766 0.09094,0.16986 0.149547,0.32618 l 1.690147,3.82479 q 0.04665,0.11836 0.01344,0.26405 -0.0298,0.14966 -0.15657,0.25866 l -0.305038,0.26228 q -0.138653,0.11922 -0.276346,0.12737 -0.138248,0.0155 -0.265872,-0.0608 l -3.531702,-2.24823 q -0.138398,-0.0808 -0.28931,-0.19222 -0.151468,-0.10404 -0.3126,-0.22733 0.101709,0.17439 0.189792,0.33292 0.08412,0.16194 0.151212,0.30408 l 1.839575,3.71009 q 0.05061,0.11495 0.01741,0.26065 -0.03376,0.15305 -0.160532,0.26206 l -0.816075,0.70169 -2.962717,-6.60299 0.942843,-0.81069 4.04964,2.60217 q 0.08168,0.0469 0.176978,0.10966 0.09134,0.0662 0.189492,0.14025 -0.05854,-0.10815 -0.1063,-0.21178 -0.04776,-0.10363 -0.08586,-0.18801 l -1.946068,-4.410917 0.938882,-0.807292 z m -12.573266,9.52743 -0.582599,-0.92354 2.412682,-1.522 -0.978432,-1.55101 -1.878003,1.18471 -0.560299,-0.88819 1.878004,-1.18471 -0.997945,-1.58194 -2.417101,1.52479 -0.578181,-0.92632 3.579254,-2.25792 3.701874,5.86821 z m -4.814842,-5.24161 3.021747,6.2457 -2.121093,1.02621 q -0.601996,0.29126 -1.086862,0.38074 -0.484866,0.0895 -0.857611,0.003 -0.377449,-0.0844 -0.649906,-0.33561 -0.274885,-0.24426 -0.459193,-0.62521 -0.104669,-0.21634 -0.141372,-0.44816 -0.0367,-0.23181 0.0061,-0.46726 0.04279,-0.23545 0.174488,-0.47909 0.129267,-0.23666 0.358966,-0.46967 -1.349769,0.29319 -1.875389,-0.79323 -0.19341,-0.39976 -0.211444,-0.80892 -0.01803,-0.40916 0.143554,-0.79495 0.159161,-0.37881 0.504771,-0.72014 0.343182,-0.33435 0.874631,-0.59147 z m 0.076,3.31212 -0.848728,-1.75425 -1.058195,0.51196 q -0.296295,0.14335 -0.457418,0.31417 -0.161123,0.17082 -0.212561,0.35241 -0.05614,0.18387 -0.02353,0.37123 0.03488,0.19207 0.12135,0.37078 0.09329,0.19283 0.224817,0.32073 0.126823,0.13017 0.301438,0.17918 0.169912,0.0513 0.394746,0.0122 0.222407,-0.0322 0.504593,-0.16868 z m 0.41185,0.85126 -0.813634,0.39364 q -0.522043,0.25257 -0.708661,0.58663 -0.184343,0.33876 0.03865,0.79966 0.232092,0.47971 0.569945,0.55422 0.340128,0.0792 0.866874,-0.17564 l 0.88418,-0.42778 z m -12.277949,2.19766 q -0.105336,0.0307 -0.203962,-0.0276 l -0.691845,-0.41333 q 0.213524,-0.61185 0.6828,-1.03702 0.464259,-0.42371 1.211641,-0.64149 0.677158,-0.19733 1.291967,-0.10438 0.616271,0.0979 1.129034,0.43831 0.509209,0.34683 0.896109,0.90888 0.383346,0.56853 0.59967,1.3109 0.217786,0.74738 0.183343,1.43221 -0.038,0.69132 -0.302711,1.25823 -0.264715,0.5669 -0.743391,0.97849 -0.478676,0.41158 -1.140786,0.60451 -0.672142,0.19586 -1.258948,0.10565 -0.585344,-0.0852 -1.045456,-0.3756 l 0.261624,-0.74559 q 0.02907,-0.0683 0.0761,-0.13101 0.04202,-0.0612 0.147357,-0.0919 0.105335,-0.0307 0.229041,0.0203 0.118691,0.0525 0.291925,0.1054 0.168219,0.0544 0.407293,0.0718 0.239074,0.0174 0.575145,-0.0805 0.366167,-0.1067 0.621815,-0.3499 0.25711,-0.23818 0.38656,-0.59697 0.130912,-0.35378 0.127055,-0.81522 -0.0074,-0.45496 -0.165269,-0.99669 -0.15932,-0.54674 -0.413976,-0.93509 -0.254656,-0.38836 -0.561597,-0.61999 -0.310495,-0.22515 -0.656765,-0.29295 -0.344809,-0.0628 -0.690912,0.0381 -0.205655,0.0599 -0.365336,0.12823 -0.15822,0.0733 -0.282589,0.16941 -0.127924,0.10258 -0.227014,0.22941 -0.09909,0.12683 -0.185025,0.29881 -0.03847,0.0547 -0.08132,0.0944 -0.04641,0.0462 -0.101582,0.0622 z m -7.843882,3.23291 q -0.118588,-0.75351 0.01729,-1.43601 0.136691,-0.67734 0.501469,-1.21604 0.359616,-0.53789 0.932361,-0.89776 0.572744,-0.35987 1.321101,-0.47765 0.748358,-0.11778 1.403951,0.0488 0.655594,0.16656 1.168201,0.56718 0.512607,0.40062 0.855896,1.00241 0.338941,0.60778 0.45753,1.36129 0.117776,0.74836 -0.01892,1.4257 -0.141039,0.68331 -0.506629,1.21685 -0.364778,0.5387 -0.937522,0.89857 -0.571933,0.36504 -1.32029,0.48281 -0.748357,0.11778 -1.404763,-0.0539 -0.655594,-0.16656 -1.16304,-0.56799 -0.512606,-0.40062 -0.850735,-1.00323 -0.338129,-0.60261 -0.455905,-1.35097 z m 1.383171,-0.21768 q 0.0861,0.54708 0.288515,0.95949 0.202417,0.41241 0.503233,0.67712 0.295655,0.26551 0.682111,0.36865 0.382106,0.10911 0.836282,0.0376 0.454175,-0.0715 0.789459,-0.29349 0.336096,-0.21685 0.541067,-0.56115 0.199809,-0.3435 0.265769,-0.79815 0.06596,-0.45465 -0.02014,-1.00172 -0.08691,-0.55224 -0.29014,-0.96981 -0.202417,-0.41241 -0.498072,-0.67793 -0.300003,-0.25954 -0.686459,-0.36268 -0.386456,-0.10313 -0.840631,-0.0317 -0.454175,0.0715 -0.785111,0.28752 -0.336096,0.21685 -0.536718,0.55518 -0.20497,0.34431 -0.270929,0.79896 -0.06515,0.45981 0.02176,1.01204 z m -3.713633,3.79956 q -0.08881,0.001 -0.151651,-0.008 -0.06276,-0.004 -0.110166,-0.0297 -0.05255,-0.0201 -0.09496,-0.0613 -0.04763,-0.0411 -0.106095,-0.10817 L 59.09502,114.9475 q 0.03642,0.34432 0.04096,0.65254 l 0.05982,4.06431 -1.206754,0.0178 -0.102115,-6.93753 0.705246,-0.0104 q 0.161945,-0.002 0.272419,0.0482 0.105327,0.0559 0.211653,0.17977 l 3.471974,4.42687 q -0.03611,-0.32343 -0.04019,-0.60031 l -0.06052,-4.11132 1.211978,-0.0178 0.102115,6.93753 -0.720918,0.0106 z m -10.936387,-1.77971 q 0.063,-0.0984 0.140706,-0.13741 0.07196,-0.0344 0.175864,-0.0233 0.09871,0.0105 0.205276,0.0954 0.106565,0.0849 0.253588,0.18459 0.141275,0.10433 0.336161,0.19861 0.194886,0.0943 0.459848,0.12244 0.46758,0.0497 0.730867,-0.15348 0.258092,-0.20374 0.297306,-0.57261 0.02485,-0.23379 -0.08326,-0.4029 -0.113866,-0.16448 -0.309528,-0.30087 -0.20141,-0.13174 -0.456983,-0.24823 -0.260768,-0.11704 -0.53027,-0.25077 -0.270054,-0.12854 -0.520103,-0.29698 -0.255797,-0.1638 -0.441518,-0.39371 -0.190916,-0.23046 -0.28357,-0.54504 -0.09785,-0.31514 -0.05201,-0.74635 0.04971,-0.46758 0.249201,-0.86144 0.194298,-0.39442 0.523019,-0.66946 0.328168,-0.26985 0.77816,-0.40065 0.444796,-0.13135 0.995501,-0.0728 0.31172,0.0331 0.61626,0.13382 0.299897,0.0949 0.572937,0.2448 0.27304,0.14987 0.509937,0.34318 0.236897,0.19331 0.407032,0.42156 l -0.474276,0.60634 q -0.05504,0.073 -0.137943,0.11143 -0.0881,0.0379 -0.181613,0.028 -0.124688,-0.0132 -0.244077,-0.12577 -0.125137,-0.10788 -0.289075,-0.24615 -0.16449,-0.13308 -0.387786,-0.25664 -0.223849,-0.11837 -0.545959,-0.15262 -0.46758,-0.0497 -0.752753,0.16166 -0.285174,0.21137 -0.334882,0.67895 -0.02817,0.26497 0.08404,0.44502 0.107014,0.17951 0.303228,0.31071 0.195663,0.13639 0.457535,0.24304 0.256125,0.11129 0.526732,0.23463 0.265411,0.12279 0.52176,0.28139 0.250602,0.16325 0.435218,0.40355 0.184616,0.24029 0.280256,0.57621 0.09044,0.33537 0.03963,0.81334 -0.04032,0.37926 -0.223899,0.72227 -0.184131,0.34821 -0.494504,0.59893 -0.310373,0.25073 -0.733283,0.3739 -0.428658,0.12781 -0.953387,0.072 -0.592268,-0.063 -1.075779,-0.30876 -0.488707,-0.24636 -0.81018,-0.63255 z M 44.0455,113.9657 q 0.172662,-0.743 0.554584,-1.32472 0.380738,-0.57664 0.920922,-0.93922 0.535094,-0.36376 1.200999,-0.48256 0.665905,-0.11881 1.403811,0.0527 0.737905,0.17148 1.283183,0.57175 0.545278,0.40027 0.870225,0.96389 0.324947,0.56362 0.417486,1.25024 0.08627,0.69053 -0.0864,1.43352 -0.17148,0.73791 -0.552218,1.31454 -0.387011,0.58055 -0.926012,0.93803 -0.540183,0.36258 -1.206088,0.48139 -0.667088,0.1239 -1.404993,-0.0476 -0.737906,-0.17148 -1.282001,-0.57684 -0.545278,-0.40027 -0.865136,-0.96271 -0.324947,-0.56363 -0.412397,-1.24906 -0.08745,-0.68544 0.08403,-1.42334 z m 1.363853,0.31694 q -0.125357,0.53943 -0.09238,0.99766 0.03297,0.45822 0.212561,0.81642 0.174498,0.35702 0.494067,0.59756 0.313297,0.24445 0.76113,0.34852 0.447832,0.10407 0.841906,0.024 0.392891,-0.075 0.712027,-0.31728 0.314047,-0.24348 0.5457,-0.64021 0.231654,-0.39673 0.357012,-0.93616 0.12654,-0.54453 0.09475,-1.00784 -0.03297,-0.45822 -0.207472,-0.81524 -0.180769,-0.35311 -0.500338,-0.59365 -0.319569,-0.24054 -0.767402,-0.34462 -0.447832,-0.10407 -0.835634,-0.0279 -0.392892,0.075 -0.705756,0.31338 -0.319135,0.2423 -0.550789,0.63903 -0.232837,0.40181 -0.359377,0.94634 z m -3.887813,-2.08319 0.93791,-2.49961 1.291381,0.48456 -2.437465,6.49604 -1.956638,-0.73418 q -0.650582,-0.24411 -1.062056,-0.56034 -0.413309,-0.31133 -0.613197,-0.67093 -0.20478,-0.36143 -0.211428,-0.76013 -0.0066,-0.39869 0.149364,-0.81448 0.119303,-0.31795 0.315643,-0.57352 0.194504,-0.25067 0.455647,-0.42612 0.254415,-0.17239 0.568742,-0.2665 0.312491,-0.0892 0.672659,-0.0824 -0.09659,-0.11437 -0.1675,-0.25258 -0.07274,-0.13332 -0.114289,-0.30516 l -0.564451,-2.91265 1.159308,0.43499 q 0.308171,0.11564 0.377207,0.4373 l 0.423893,2.46929 q 0.02932,0.14493 0.103909,0.22872 0.06969,0.082 0.236009,0.14436 z m -0.343228,0.91472 -0.655473,-0.24594 q -0.313062,-0.11747 -0.569278,-0.11875 -0.261108,-0.003 -0.462919,0.0886 -0.201811,0.0917 -0.345546,0.26654 -0.150463,0.17792 -0.240399,0.41761 -0.178038,0.47448 0.02002,0.83897 0.196217,0.36938 0.802775,0.59698 l 0.665257,0.24962 z m -10.433307,-1.10365 0.507491,-0.99625 1.666634,0.84898 2.641797,-5.18612 1.219715,0.62132 -2.641797,5.18612 1.666633,0.84898 -0.50749,0.99625 z m 1.044792,-7.52117 1.17292,0.72575 -3.650763,5.90015 -1.17292,-0.72576 z m -4.367455,-1.70909 q -0.290451,-0.22224 -0.587536,-0.29825 -0.301233,-0.0792 -0.588102,-0.0224 -0.291019,0.0536 -0.564497,0.23909 -0.273479,0.18546 -0.50842,0.49251 l -2.514503,3.28624 -1.087116,-0.83181 2.514502,-3.28625 q 0.380986,-0.49792 0.863471,-0.79318 0.478336,-0.29843 1.012026,-0.37689 0.530516,-0.0743 1.088064,0.0826 0.557548,0.15689 1.092808,0.56645 0.53526,0.40956 0.836617,0.90986 0.297208,0.49714 0.364192,1.02863 0.06381,0.53564 -0.09503,1.07854 -0.16299,0.53972 -0.543975,1.03764 l -2.514503,3.28624 -1.091266,-0.83499 2.514503,-3.28625 q 0.234941,-0.30704 0.342448,-0.6195 0.107506,-0.31245 0.08733,-0.6042 -0.02433,-0.29491 -0.175369,-0.56179 -0.155189,-0.27005 -0.44564,-0.49229 z m -7.543315,-4.278799 q 0.117365,-0.355134 0.286007,-0.694014 -0.183173,0.07236 -0.358749,0.137546 -0.179374,0.06877 -0.358113,0.11539 l -4.194555,1.021727 q -0.08568,0.02341 -0.144762,0.02172 -0.06647,-0.0019 -0.113737,-0.02913 -0.05106,-0.02364 -0.101493,-0.06944 -0.05043,-0.0458 -0.111406,-0.110376 l -0.710212,-0.752152 5.044736,-4.763442 0.828581,0.877511 -3.156759,2.980738 q -0.102566,0.09685 -0.223915,0.204243 -0.128733,0.107185 -0.264853,0.214157 l 4.321594,-1.069826 q 0.331522,-0.09028 0.546738,0.137644 l 0.132716,0.140554 q 0.218803,0.231723 0.109671,0.557526 l -1.313008,4.286523 q 0.11481,-0.13715 0.232994,-0.26312 0.114387,-0.12238 0.220751,-0.22281 l 3.156759,-2.980743 0.832168,0.881309 -5.044736,4.763444 -0.713799,-0.75595 q -0.06098,-0.0646 -0.100223,-0.11375 -0.04283,-0.053 -0.0635,-0.10531 -0.02426,-0.0561 -0.02257,-0.11522 -0.0019,-0.0629 0.02639,-0.14707 l 1.257283,-4.147679 z m -5.640376,-6.877767 q -0.17439,0.115163 -0.365808,0.147656 -0.195777,0.03537 -0.376748,-0.0016 -0.18821,-0.0385 -0.354374,-0.147901 -0.166164,-0.109405 -0.278449,-0.279435 -0.115164,-0.17439 -0.150536,-0.370167 -0.03537,-0.195777 0.0031,-0.383987 0.03414,-0.185331 0.143542,-0.351495 0.105044,-0.163286 0.279434,-0.278449 0.17003,-0.112285 0.365808,-0.147657 0.191417,-0.03249 0.379627,0.006 0.18385,0.04138 0.350015,0.15078 0.161804,0.112284 0.276968,0.286674 0.112285,0.17003 0.152016,0.362928 0.03537,0.195778 0.0012,0.381108 -0.04138,0.18385 -0.146421,0.347136 -0.109404,0.166164 -0.279434,0.278449 z M 7.3346443,88.165343 6.878048,87.11051 q -0.07264,-0.167814 -0.041585,-0.306504 0.02898,-0.143485 0.1370386,-0.235804 l 3.2707454,-2.531621 q 0.252399,-0.206036 0.600049,-0.441916 -0.203597,0.04258 -0.388015,0.07687 -0.189212,0.03636 -0.355883,0.04588 L 5.9461603,84.194828 Q 5.8192788,84.204205 5.690034,84.12921 5.5559944,84.05629 5.4895804,83.902859 L 5.3297717,83.533668 q -0.07264,-0.167814 -0.039509,-0.30171 0.026261,-0.136615 0.1370387,-0.235804 l 3.1960297,-2.70423 Q 8.7416229,80.18379 8.8928337,80.072792 9.0371744,79.959075 9.2027693,79.84185 9.0060428,79.88715 8.8284951,79.92416 8.648872,79.95637 8.4932224,79.9782 l -4.0891117,0.654175 q -0.124806,0.01417 -0.2540509,-0.06082 -0.136115,-0.07771 -0.202529,-0.231145 l -0.4275401,-0.987707 7.1850763,-0.867071 0.493955,1.141137 -3.6878755,3.093616 q -0.069057,0.06405 -0.1572931,0.136403 -0.090312,0.06756 -0.1902123,0.139266 0.1206552,-0.02376 0.2337964,-0.03858 0.1131413,-0.01482 0.2050283,-0.02613 l 4.7899322,-0.547633 0.491879,1.136343 z M 4.860719,70.410408 q 0.7403559,-0.183647 1.4320836,-0.107616 0.6866568,0.07729 1.2550293,0.393853 0.5671146,0.311493 0.9754169,0.850783 0.4083024,0.53929 0.5906915,1.274575 0.1823891,0.735285 0.073457,1.402877 -0.1089326,0.667591 -0.4634696,1.213085 -0.3545369,0.545494 -0.9242131,0.939802 -0.576005,0.390495 -1.3163609,0.574142 -0.735285,0.182389 -1.4219418,0.1051 Q 4.3684258,76.975908 3.8051242,76.658086 3.2367518,76.341521 2.8284494,75.802231 2.4150761,75.264199 2.232687,74.528914 2.0502979,73.793629 2.1643015,73.12478 2.2732341,72.457188 2.6290289,71.916765 2.9835658,71.371271 3.5544999,70.982034 4.125434,70.592797 4.860719,70.410408 Z m 0.3371054,1.35901 Q 4.6603057,71.90275 4.2670517,72.140254 3.8737978,72.377758 3.6362478,72.700448 3.39744,73.018066 3.328291,73.412024 q -0.075478,0.390146 0.035214,0.836388 0.1106914,0.446242 0.3610111,0.760956 0.2452487,0.315971 0.6060686,0.490233 0.359562,0.169192 0.8182245,0.195376 0.4586624,0.02618 0.9961811,-0.107148 0.5425896,-0.134591 0.9409145,-0.373353 0.3932539,-0.237504 0.6320618,-0.555122 0.232479,-0.321432 0.301628,-0.71539 0.069149,-0.393959 -0.041542,-0.840201 Q 7.8673604,72.657521 7.6233695,72.34662 7.3781207,72.030649 7.0236297,71.8602 6.6628098,71.685938 6.2041473,71.659753 5.740414,71.634827 5.1978244,71.769418 Z m 0.08875,-4.412387 2.6531918,-0.297109 0.1534964,1.370729 -6.8951834,0.772134 -0.23257036,-2.076863 q -0.0773296,-0.690556 0.0180074,-1.200673 0.0901449,-0.509534 0.32005936,-0.850716 0.229333,-0.346375 0.5816962,-0.533036 0.3523631,-0.186662 0.7936964,-0.236083 0.3374902,-0.03779 0.654293,0.02136 0.3116108,0.05974 0.5863763,0.212972 0.268992,0.148625 0.4953652,0.386138 0.2211811,0.238095 0.3783934,0.562213 0.058155,-0.137944 0.1492063,-0.2638 0.08586,-0.125275 0.2201929,-0.240206 l 2.3403201,-1.82348 0.1377979,1.230541 q 0.03663,0.327106 -0.218786,0.534455 l -2.0088476,1.497212 q -0.1158903,0.09184 -0.1567648,0.196301 -0.041456,0.09927 -0.021687,0.275807 z M 4.3156413,67.465757 4.2377302,66.770008 Q 4.2005189,66.43771 4.0855067,66.208756 3.969913,65.974608 3.7967056,65.836287 3.6234981,65.697965 3.4024797,65.649113 3.1756878,65.59565 2.9212721,65.62414 2.417633,65.680539 2.1825264,66.022302 1.9422277,66.364647 2.0143245,67.008474 l 0.079074,0.706134 z m 2.0591473,-6.627793 -0.013766,-2.408506 1.1284972,-0.0064 0.02162,3.782555 -6.93816784,0.03966 -0.007854,-1.37405 z M 4.6798538,51.123238 q 0.7584343,0.08143 1.3717339,0.388986 0.6081049,0.307001 1.0178368,0.797635 0.4102897,0.48544 0.5984636,1.130944 0.1881738,0.645504 0.1073039,1.398744 L 7.5052535,57.353809 0.60661803,56.613151 0.87655648,54.098889 q 0.08087,-0.753239 0.40178222,-1.344087 0.3209121,-0.590847 0.8248995,-0.978127 0.504545,-0.392474 1.1639605,-0.563391 0.6594155,-0.170916 1.4126551,-0.09005 z m -0.1489124,1.387 q -0.5506441,-0.05912 -1.0015044,0.0291 -0.4508603,0.08821 -0.7846793,0.309852 -0.3332614,0.216438 -0.5333395,0.562782 -0.2052728,0.345785 -0.2543525,0.802924 L 1.8343664,55.357742 6.5667887,55.865829 6.689488,54.722983 Q 6.7385677,54.265844 6.616571,53.884922 6.4945743,53.503999 6.2148544,53.221745 5.9356923,52.934297 5.5138337,52.752384 5.0867803,52.569914 4.5309414,52.510238 Z M 2.0735033,46.050639 2.4353958,44.959682 q 0.057574,-0.173561 0.1731054,-0.256337 0.1171765,-0.08774 0.2592675,-0.08464 l 4.1258849,0.289745 q 0.3254981,0.0144 0.7419252,0.06997 Q 7.5553417,44.874594 7.3949401,44.777349 7.2295797,44.678459 7.0989075,44.574562 L 3.6820268,42.164055 Q 3.581132,42.086555 3.534665,41.944531 3.483239,41.800867 3.535875,41.642182 l 0.1266654,-0.381835 q 0.057574,-0.173561 0.1714604,-0.251378 0.1105727,-0.08442 0.2592675,-0.08464 l 4.1851037,0.111225 q 0.1602576,-0.0019 0.3469786,0.01602 0.1834071,0.0113 0.3850048,0.03414 -0.1769232,-0.09722 -0.3340108,-0.187862 -0.1554427,-0.0956 -0.2860909,-0.182975 l -3.4860172,-2.23528 q -0.1025398,-0.07255 -0.1490068,-0.214566 -0.049781,-0.148623 0.00286,-0.307307 l 0.338863,-1.021532 5.9372943,4.138319 -0.391502,1.180216 -4.811329,-0.148315 q -0.094171,0.0018 -0.2081776,-0.003 -0.1123616,-0.0097 -0.234641,-0.02279 0.1058298,0.06263 0.2000967,0.126926 0.094267,0.0643 0.1703434,0.117057 L 9.69689,45.106094 9.307033,46.281351 Z M 12.914056,36.978562 12.32013,38.223436 6.0580363,35.235808 6.6519623,33.990934 Z m 0.744446,-8.319719 q 0.653507,0.393424 1.080108,0.930769 0.422126,0.534651 0.586972,1.152249 0.167541,0.613123 0.0662,1.277815 -0.10134,0.664692 -0.492069,1.313722 l -1.304227,2.166419 -5.9442235,-3.57854 1.304227,-2.166419 q 0.3907292,-0.649031 0.9307241,-1.049644 0.5399944,-0.400613 1.1602424,-0.53947 0.622942,-0.143334 1.292979,-0.02048 0.670036,0.122852 1.319066,0.513581 z m -0.71948,1.195111 q -0.474464,-0.285636 -0.920516,-0.395612 -0.446052,-0.109975 -0.842179,-0.04963 -0.393433,0.05586 -0.72082,0.285655 -0.331862,0.227095 -0.5689935,0.620989 l -0.5928305,0.984736 4.077701,2.454857 0.592831,-0.984736 q 0.237132,-0.393894 0.287002,-0.790754 0.04987,-0.396861 -0.08487,-0.770698 -0.132049,-0.378314 -0.437977,-0.721046 -0.310405,-0.345426 -0.789344,-0.633757 z m 1.523898,-7.911845 0.86183,0.670515 -1.75168,2.251478 1.447378,1.12608 1.363488,-1.752524 0.82884,0.644849 -1.363487,1.752524 1.476244,1.148538 1.754888,-2.255602 0.858621,0.674639 -2.598646,3.340104 -5.476122,-4.260496 z m 3.119375,-3.647007 0.871078,-0.749917 q 0.138581,-0.119305 0.280228,-0.130945 0.145607,-0.01505 0.265909,0.06063 l 3.390534,2.368788 q 0.271834,0.179619 0.600514,0.441285 -0.101265,-0.181689 -0.188894,-0.347539 -0.09104,-0.16981 -0.149745,-0.326089 l -1.692483,-3.823762 q -0.04672,-0.118337 -0.0136,-0.264048 0.02971,-0.14967 0.156412,-0.258749 l 0.304878,-0.262471 q 0.13858,-0.119305 0.276268,-0.127537 0.138239,-0.0156 0.265909,0.06063 l 3.533074,2.246075 q 0.138447,0.08074 0.289428,0.192047 0.151531,0.103943 0.312738,0.227132 -0.101815,-0.17432 -0.189995,-0.332802 -0.08422,-0.161891 -0.151398,-0.303984 l -1.84184,-3.708963 q -0.05068,-0.114929 -0.01757,-0.26064 0.03367,-0.153079 0.160372,-0.262157 l 0.815646,-0.702195 2.966749,6.601178 -0.942348,0.811274 -4.051228,-2.599701 q -0.0817,-0.04686 -0.177045,-0.109554 -0.09138,-0.06611 -0.189578,-0.140128 0.0586,0.10811 0.10643,0.211711 0.04783,0.103601 0.08598,0.187955 l 1.948762,4.409726 -0.938389,0.807865 z m 12.567713,-9.5352622 0.583158,0.9231831 -2.411761,1.5234651 0.979371,1.550417 1.877286,-1.185847 0.560836,0.887846 -1.877286,1.185847 0.998902,1.581338 2.416178,-1.526255 0.57874,0.925973 -3.577886,2.260086 -3.705425,-5.865968 z m 4.817994,5.2386932 -3.025526,-6.2438724 2.120472,-1.0274941 q 0.601819,-0.2916169 1.086631,-0.3813956 0.484812,-0.089779 0.85761,-0.00336 0.377499,0.08414 0.650108,0.3352181 0.275033,0.2440982 0.459572,0.6249368 0.1048,0.2162787 0.141643,0.4480696 0.03684,0.2317909 -0.0058,0.4672672 -0.04265,0.2354762 -0.174199,0.4791943 -0.129124,0.2367382 -0.358681,0.4698913 1.349591,-0.2940061 1.875869,0.7920892 0.193652,0.3996456 0.211933,0.8087946 0.01828,0.409149 -0.143073,0.795035 -0.158932,0.378907 -0.504335,0.720445 -0.342979,0.334558 -0.874273,0.592001 z m -0.078,-3.312069 0.849789,1.753738 1.057885,-0.512608 q 0.296208,-0.14353 0.457228,-0.314444 0.16102,-0.170915 0.212348,-0.352539 0.05603,-0.183903 0.02331,-0.371245 -0.035,-0.192044 -0.121574,-0.370709 -0.09342,-0.19277 -0.225018,-0.320588 -0.126901,-0.130095 -0.301545,-0.179 -0.169943,-0.051183 -0.394754,-0.01192 -0.222388,0.03229 -0.50449,0.168982 z M 34.477633,9.8354541 35.291029,9.4413156 q 0.52189,-0.2528865 0.708306,-0.5870538 0.184137,-0.338869 -0.03913,-0.7996367 -0.232382,-0.4795745 -0.57028,-0.5538753 -0.340175,-0.079003 -0.866767,0.1761623 L 33.639234,8.1052245 Z M 46.754275,7.6303645 q 0.105317,-0.030758 0.203978,0.027513 L 47.650348,8.070792 Q 47.437194,8.6827746 46.968176,9.1082256 46.504174,9.5322119 45.756924,9.7504499 45.079885,9.9481824 44.46502,9.8556133 43.84869,9.7580291 43.335721,9.417986 42.826302,9.0714631 42.439062,8.5096427 42.055372,7.9413424 41.838599,7.1991074 41.620361,6.4518573 41.654389,5.7670033 q 0.03758,-0.6913338 0.30195,-1.258403 0.264372,-0.5670692 0.742799,-0.9789396 0.478426,-0.4118704 1.14042,-0.6052088 0.672023,-0.1962677 1.258884,-0.1064054 0.585395,0.084847 1.045683,0.3749619 l -0.261173,0.7457497 q -0.02902,0.068348 -0.07602,0.1310604 -0.04198,0.061247 -0.147301,0.092006 -0.105318,0.030758 -0.229055,-0.020189 -0.118721,-0.052413 -0.291988,-0.1052237 -0.168252,-0.054276 -0.407337,-0.071536 -0.239084,-0.01726 -0.575096,0.080874 -0.366102,0.106922 -0.621603,0.3502712 -0.256965,0.2383341 -0.386198,0.5972066 -0.130698,0.3538573 -0.126562,0.8152933 0.0077,0.4549563 0.165872,0.9965872 0.159651,0.546646 0.414541,0.9348478 0.254891,0.3882018 0.561972,0.6196467 0.310631,0.224965 0.656943,0.2925521 0.344846,0.062572 0.690888,-0.038491 0.205619,-0.060052 0.365259,-0.1284471 0.158175,-0.07341 0.282486,-0.1695874 0.127862,-0.1026571 0.226875,-0.229546 0.09901,-0.1268889 0.184844,-0.2989138 0.03843,-0.054768 0.08126,-0.09449 0.04638,-0.046202 0.101544,-0.062314 z M 54.596177,4.3926964 Q 54.715221,5.1461429 54.579757,5.828724 54.443476,6.5061445 54.079024,7.0450649 53.719733,7.5831699 53.147207,7.9433893 52.574678,8.3036086 51.826392,8.4218374 51.078106,8.5400661 50.422412,8.373905 49.766717,8.207744 49.253868,7.8074366 48.741019,7.4071292 48.397365,6.8055382 48.058057,6.1979712 47.939013,5.4445247 47.820784,4.6962389 47.957063,4.0188184 48.09769,3.3354219 48.462957,2.8016621 q 0.364451,-0.5389204 0.936978,-0.8991398 0.571711,-0.3653799 1.319997,-0.4836087 0.748286,-0.1182287 1.404796,0.053093 0.655694,0.1661611 1.163382,0.5672839 0.51285,0.4003074 0.851343,1.0027137 0.338493,0.6024064 0.456722,1.3506923 z M 53.213138,4.6112158 Q 53.126709,4.064193 52.924042,3.6519029 52.721376,3.2396128 52.4204,2.975091 52.124584,2.7097539 51.738066,2.6068515 51.355894,2.4979731 50.901762,2.5697257 q -0.454133,0.071753 -0.789282,0.2939676 -0.335965,0.2170543 -0.540727,0.5614824 -0.199602,0.3436127 -0.265286,0.7983021 -0.06568,0.4546894 0.02074,1.0017122 0.08725,0.5521834 0.290727,0.9696341 0.202666,0.4122901 0.498481,0.6776272 0.300161,0.2593612 0.686679,0.3622636 0.386518,0.1029024 0.84065,0.03115 0.454132,-0.071753 0.784937,-0.2879916 0.335964,-0.2170543 0.536381,-0.5555065 0.204763,-0.3444281 0.270447,-0.7991175 0.06487,-0.4598499 -0.02238,-1.0120333 z m 3.71134,-3.80180587 q 0.08881,-0.001361 0.151656,0.008126 0.06277,0.004263 0.110184,0.0296628 0.05256,0.0200954 0.09499,0.061247 0.04766,0.0410715 0.106161,0.10810277 l 3.4855,4.4507288 q -0.03663,-0.3443034 -0.04135,-0.6525192 l -0.06228,-4.06426884 1.206743,-0.0184926 0.106313,6.93746654 -0.70524,0.010807 Q 61.215211,7.6827527 61.104707,7.6321939 60.999346,7.576331 60.892945,7.4525562 L 57.418293,3.0277874 q 0.03631,0.3234074 0.04055,0.6002792 l 0.063,4.1112848 -1.211967,0.018573 -0.106312,-6.93746662 0.720911,-0.0110476 z M 67.861944,2.5825072 q -0.06294,0.098422 -0.140622,0.1374941 -0.07194,0.034426 -0.17585,0.023443 -0.09872,-0.010434 -0.205334,-0.095255 -0.106617,-0.084821 -0.2537,-0.184427 Q 66.9451,2.3595092 66.750157,2.2653521 66.555215,2.171195 66.290236,2.1431872 q -0.46761,-0.049426 -0.730775,0.1539217 -0.257968,0.2038966 -0.29696,0.5727889 -0.02471,0.233805 0.08351,0.4028552 0.113965,0.1644036 0.30971,0.3006752 0.20149,0.1316251 0.457133,0.2479593 0.260838,0.1168833 0.530421,0.250452 0.270132,0.128373 0.520283,0.2966638 0.255896,0.1636444 0.441756,0.3934379 0.191055,0.2303428 0.283899,0.5448716 0.09804,0.315078 0.05246,0.7463183 -0.04943,0.46761 -0.248681,0.8615925 -0.194061,0.3945316 -0.522615,0.6697731 -0.328005,0.2700458 -0.777917,0.4011171 -0.444717,0.1316204 -0.995457,0.073408 -0.31174,-0.03295 -0.616341,-0.1334445 Q 64.480708,7.8308282 64.207577,7.6811234 63.934446,7.5314185 63.697432,7.3382477 63.460418,7.1450769 63.290145,6.9169308 L 63.764054,6.310308 q 0.055,-0.072992 0.137876,-0.1115158 0.08807,-0.037974 0.181595,-0.028089 0.124696,0.01318 0.244154,0.1256271 0.125202,0.1078005 0.289224,0.2459727 0.16457,0.1329766 0.387941,0.256407 0.22392,0.1182348 0.546051,0.1522835 0.46761,0.049426 0.752656,-0.1621164 0.285045,-0.211542 0.33447,-0.679152 0.02801,-0.264979 -0.08431,-0.4449696 Q 66.446589,5.4853139 66.250295,5.354238 66.05455,5.2179664 65.792613,5.1114744 65.536421,5.0003359 65.26574,4.8771585 65.000254,4.7545304 64.743809,4.5960817 64.493109,4.4329865 64.308347,4.1928016 64.123586,3.9526167 64.027743,3.616756 63.937096,3.2814446 63.98762,2.8034432 64.02771,2.4241596 64.211081,2.0810354 64.395002,1.7327156 64.705223,1.481805 65.015444,1.2308943 65.43828,1.1074685 q 0.42858,-0.12807235 0.953343,-0.072606 0.592306,0.062606 1.075966,0.3081152 0.488856,0.2460586 0.810562,0.6320612 z M 75.923069,6.43972 Q 75.750857,7.1828189 75.369288,7.7647751 74.988898,8.3416415 74.448934,8.7045453 73.91406,9.0686286 73.248227,9.1878394 72.582394,9.3070502 71.844385,9.1360174 71.106376,8.9649846 70.560856,8.5650441 70.015336,8.1651036 69.690047,7.6016786 69.364759,7.0382536 69.271805,6.3516903 q -0.08669,-0.6904735 0.08553,-1.4335724 0.171033,-0.7380092 0.551423,-1.3148757 0.386658,-0.5807766 0.925443,-0.9385906 0.539964,-0.3629038 1.205797,-0.4821146 0.667012,-0.1243006 1.405021,0.046732 0.738009,0.1710328 1.28235,0.5760631 0.54552,0.3999405 0.865719,0.9621859 0.325288,0.563425 0.413152,1.2488088 0.08786,0.6853838 -0.08317,1.423393 z M 74.559025,6.1236042 Q 74.684055,5.584094 74.650805,5.1258897 74.617555,4.6676854 74.43775,4.3095947 74.263036,3.9526836 73.943321,3.7123347 73.629876,3.4680757 73.181981,3.3642765 72.734085,3.2604773 72.34006,3.3407805 71.947214,3.4159945 71.628225,3.6584903 71.314326,3.902166 71.082912,4.2990344 70.851498,4.6959028 70.726467,5.235413 q -0.12621,0.5445999 -0.09414,1.0078939 0.03325,0.4582043 0.207966,0.8151155 0.180983,0.353001 0.500697,0.5933498 0.319715,0.2403488 0.76761,0.344148 0.447896,0.1037993 0.835652,0.027406 0.392846,-0.075214 0.705565,-0.3137996 0.318989,-0.2424962 0.550403,-0.6393646 0.232593,-0.4019581 0.358804,-0.946558 z m 3.889091,2.0808346 -0.936397,2.5001722 -1.291674,-0.483775 2.433532,-6.4975116 1.957082,0.7329917 q 0.65073,0.2437197 1.062395,0.5596937 0.413498,0.3110813 0.613603,0.670558 0.204999,0.3613092 0.211889,0.7600006 0.0069,0.3986915 -0.148871,0.8145714 Q 82.230564,7.5791657 82.034379,7.8348506 81.840026,8.0856429 81.57899,8.2612487 81.324679,8.4337942 81.010409,8.528093 80.697973,8.617499 80.3378,8.61092 q 0.09666,0.1143098 0.167653,0.2524785 0.07282,0.1332759 0.114474,0.3050888 l 0.566213,2.9123157 -1.159571,-0.434298 q -0.30824,-0.115446 -0.377471,-0.437064 L 79.22371,8.7404017 Q 79.1943,8.5954896 79.119662,8.5117455 79.049922,8.4298335 78.883567,8.3675295 Z m 0.342673,-0.9149358 0.655623,0.2455522 q 0.313133,0.1172787 0.56935,0.1183968 0.261109,0.00295 0.462864,-0.088856 0.201756,-0.091807 0.345385,-0.266753 0.150355,-0.1780064 0.240147,-0.417749 0.17775,-0.4745924 -0.02052,-0.8389618 -0.196444,-0.3692623 -0.80314,-0.5964897 L 79.575091,5.1954253 Z M 89.224753,8.3868446 88.717866,9.3834074 87.050718,8.5354366 84.412061,13.723151 83.19197,13.102569 85.830627,7.9148546 84.16348,7.0668838 84.670368,6.070321 Z m -1.040218,7.5218134 -1.173359,-0.725045 3.647194,-5.902348 1.173359,0.725045 z m 4.368481,1.70644 q 0.290586,0.222066 0.587716,0.297896 0.301282,0.079 0.588116,0.02203 0.290986,-0.0538 0.564352,-0.239428 0.273367,-0.185626 0.508122,-0.492816 l 2.512513,-3.287768 1.08762,0.83116 -2.512513,3.287768 q -0.380684,0.498146 -0.862991,0.793697 -0.478155,0.298724 -1.011798,0.377504 -0.530471,0.07463 -1.088113,-0.08192 -0.557643,-0.156553 -1.093151,-0.565788 -0.535507,-0.409235 -0.837167,-0.909361 -0.297509,-0.496954 -0.364815,-1.028404 -0.06413,-0.5356 0.09438,-1.078596 0.162662,-0.539823 0.543346,-1.03797 l 2.512513,-3.287767 1.091771,0.834332 -2.512513,3.287767 q -0.234755,0.307191 -0.342072,0.619711 -0.107318,0.312521 -0.08696,0.60425 0.02451,0.294901 0.175709,0.561687 0.155353,0.269958 0.445938,0.492023 z m 7.545904,4.274215 q -0.117157,0.355205 -0.285593,0.694187 0.183129,-0.07247 0.358673,-0.137763 0.17933,-0.06888 0.35804,-0.115606 l 4.19393,-1.024268 q 0.0857,-0.02347 0.14475,-0.02181 0.0665,0.0019 0.11376,0.02906 0.0511,0.02361 0.10153,0.06938 0.0505,0.04577 0.11148,0.110308 l 0.71066,0.751722 -5.04185,4.766496 -0.82911,-0.877009 3.15495,-2.982649 q 0.10251,-0.09691 0.22379,-0.204379 0.12867,-0.107262 0.26473,-0.214317 l -4.320951,1.072444 q -0.331467,0.09048 -0.546821,-0.137313 l -0.132801,-0.140474 q -0.218943,-0.231591 -0.110008,-0.55746 L 99.87849,18.68255 q -0.114726,0.13722 -0.232835,0.263258 -0.114312,0.122448 -0.220616,0.222946 l -3.154953,2.98265 -0.832701,-0.880806 5.041855,-4.766496 0.71426,0.755519 q 0.061,0.06454 0.10029,0.11369 0.0429,0.05294 0.0636,0.105267 0.0243,0.05612 0.0226,0.115206 0.002,0.06288 -0.0263,0.147094 l -1.25477,4.148433 z"
     id="text30701-2"
     style="font-weight:bold;font-size:10.7px;line-height:125%;font-family:Carlito;-inkscape-font-specification:'Carlito Bold';text-align:center;letter-spacing:0.28px;word-spacing:0px;text-anchor:middle;fill:#002a56"
     aria-label="· WORLD WIDE WEB CONSORTIUM · WORLD WIDE WEB CONSORTIUM " />
  <path
     style="font-size:14.9564px;line-height:1.1;font-family:Carlito;-inkscape-font-specification:Carlito;text-align:center;letter-spacing:0.391382px;text-anchor:middle;fill:#005a9c;stroke-width:5.28301"
     d="m 27.340915,75.82536 v 1.080834 h -4.272214 v 3.147562 h 3.43968 v 1.044319 h -3.43968 v 3.242501 h 4.279517 l -0.0073,1.080834 h -5.60865 v -9.59605 z m 1.070555,0 H 29.485 q 0.175271,0 0.284815,0.08763 0.109544,0.08764 0.160664,0.219088 l 2.373452,6.725998 q 0.08763,0.226391 0.167968,0.4966 0.08763,0.262905 0.153361,0.555022 0.05842,-0.292117 0.131453,-0.555022 0.08033,-0.270209 0.167967,-0.4966 l 2.366149,-6.718695 q 0.04382,-0.12415 0.160665,-0.219088 0.116847,-0.09494 0.284814,-0.09494 h 1.073531 l -3.600345,9.59605 h -1.19768 z m 16.735338,9.59605 h -1.029713 q -0.17527,0 -0.284814,-0.08764 -0.102241,-0.08764 -0.160665,-0.219087 L 42.853688,82.806961 H 38.8955 l -0.810625,2.300423 q -0.04382,0.124149 -0.167967,0.219088 -0.116847,0.09494 -0.284815,0.09494 H 36.60238 l 3.600345,-9.59605 h 1.351042 z m -5.915373,-3.56383 h 3.286318 l -1.358345,-3.86325 q -0.07303,-0.17527 -0.146058,-0.408964 -0.07303,-0.233694 -0.138756,-0.503902 -0.07303,0.277511 -0.146058,0.511205 -0.07303,0.233694 -0.138756,0.408964 z m 8.132487,-6.03222 q 0.167967,0 0.255602,0.04382 0.08763,0.03651 0.197179,0.182573 l 5.214292,7.17878 q -0.01461,-0.175271 -0.02921,-0.343238 -0.0073,-0.17527 -0.0073,-0.321329 V 75.82536 h 1.168468 v 9.59605 H 53.49108 q -0.153362,0 -0.262906,-0.05112 -0.102241,-0.05112 -0.204482,-0.182573 L 47.8094,78.030845 q 0.01461,0.167967 0.02191,0.321329 0.0073,0.153361 0.0073,0.292117 v 6.777119 h -1.168469 v -9.59605 h 0.693779 z m 16.925216,8.668578 q -0.701081,0.518508 -1.497101,0.77411 -0.788716,0.255603 -1.716188,0.255603 -1.117348,0 -2.022912,-0.357844 -0.89826,-0.357843 -1.533615,-1.000501 -0.635355,-0.649961 -0.978592,-1.548221 -0.343238,-0.905564 -0.343238,-1.9937 0,-1.09544 0.328632,-1.9937 0.335935,-0.905563 0.949381,-1.548221 0.620749,-0.649961 1.4971,-1.007804 0.876352,-0.357844 1.964488,-0.357844 0.555023,0 1.02241,0.08763 0.474691,0.08033 0.876352,0.240997 0.401661,0.153361 0.737596,0.379752 0.343238,0.226391 0.635355,0.503902 l -0.37245,0.598841 q -0.08763,0.146058 -0.233693,0.182573 -0.146059,0.03652 -0.314026,-0.06573 -0.167968,-0.09494 -0.37245,-0.226391 -0.197179,-0.138756 -0.47469,-0.255603 -0.277512,-0.12415 -0.657264,-0.211785 -0.379752,-0.08764 -0.89826,-0.08764 -0.759505,0 -1.380254,0.262906 -0.613446,0.262905 -1.051622,0.752201 -0.430873,0.489297 -0.664566,1.190378 -0.233694,0.693778 -0.233694,1.555524 0,0.89826 0.240997,1.613947 0.248299,0.708384 0.701081,1.204984 0.460084,0.489296 1.102742,0.752201 0.642658,0.255603 1.438677,0.255603 0.613446,0 1.09544,-0.138756 0.481993,-0.146058 0.949381,-0.401661 v -2.103244 h -1.380254 q -0.131453,0 -0.211785,-0.07303 -0.08033,-0.07303 -0.08033,-0.182573 v -0.752202 h 2.877354 v 3.695283 z m 7.84037,-8.668578 v 1.080834 h -4.272214 v 3.147562 h 3.43968 v 1.044319 h -3.43968 v 3.242501 h 4.279517 l -0.0073,1.080834 h -5.60865 v -9.59605 z m 3.363676,8.478701 h 3.702585 v 1.117349 h -5.031718 v -9.59605 h 1.329133 z m 6.890988,1.117349 h -1.329133 v -9.59605 h 1.329133 z m 7.431407,-8.084344 q -0.109544,0.204483 -0.29942,0.204483 -0.109544,0 -0.262906,-0.109544 -0.146058,-0.116847 -0.365146,-0.2483 -0.211785,-0.138756 -0.518508,-0.2483 -0.29942,-0.116847 -0.72299,-0.116847 -0.401661,0 -0.708384,0.116847 -0.29942,0.109544 -0.503902,0.314026 -0.19718,0.197179 -0.299421,0.467388 -0.102241,0.262905 -0.102241,0.569628 0,0.401661 0.182574,0.664567 0.189876,0.262905 0.489296,0.452782 0.306723,0.182573 0.693778,0.321328 0.387056,0.138756 0.788717,0.284815 0.401661,0.146058 0.788716,0.335935 0.387055,0.182573 0.686475,0.467387 0.306724,0.277511 0.489297,0.686475 0.189876,0.408964 0.189876,1.000502 0,0.635355 -0.204482,1.190377 -0.204482,0.54772 -0.59884,0.956684 -0.387056,0.408964 -0.956684,0.642658 -0.569629,0.233694 -1.299922,0.233694 -0.883654,0 -1.628553,-0.335935 -0.737596,-0.343238 -1.256104,-0.920169 l 0.387055,-0.628052 q 0.05112,-0.08033 0.12415,-0.12415 0.08033,-0.05112 0.182574,-0.05112 0.138755,0 0.306723,0.153362 0.17527,0.146059 0.430872,0.328632 0.255603,0.17527 0.613446,0.328632 0.365147,0.146058 0.869049,0.146058 0.42357,0 0.752202,-0.12415 0.328632,-0.124149 0.555023,-0.35054 0.233693,-0.226391 0.35054,-0.540417 0.12415,-0.321329 0.12415,-0.708384 0,-0.430873 -0.189876,-0.708384 -0.182573,-0.277512 -0.489296,-0.460085 -0.299421,-0.189876 -0.686476,-0.314026 -0.387055,-0.131453 -0.788716,-0.270208 -0.401661,-0.138756 -0.788717,-0.314026 -0.387055,-0.182573 -0.693778,-0.474691 -0.29942,-0.292117 -0.489296,-0.72299 -0.182574,-0.430873 -0.182574,-1.07353 0,-0.503903 0.189877,-0.978593 0.189876,-0.481993 0.547719,-0.84714 0.365147,-0.372449 0.890958,-0.591537 0.533114,-0.226391 1.219589,-0.226391 0.766808,0 1.402163,0.255603 0.642657,0.255602 1.110045,0.744898 z m 8.453816,-1.511706 v 1.110045 H 95.472373 V 85.42141 H 94.135937 V 76.935405 H 91.331612 V 75.82536 Z"
     id="text1"
     aria-label="EVANGELIST" />
</svg>
