<?xml version="1.0" encoding="UTF-8" standalone="no"?>
<svg
   id="Layer_1"
   width="120"
   height="120"
   version="1.1"
   viewBox="0 0 120 120"
   sodipodi:docname="member-black.svg"
   xml:space="preserve"
   inkscape:version="1.3.2 (091e20ef0f, 2023-11-25)"
   xmlns:inkscape="http://www.inkscape.org/namespaces/inkscape"
   xmlns:sodipodi="http://sodipodi.sourceforge.net/DTD/sodipodi-0.dtd"
   xmlns="http://www.w3.org/2000/svg"
   xmlns:svg="http://www.w3.org/2000/svg"><sodipodi:namedview
     id="namedview1"
     pagecolor="#ffffff"
     bordercolor="#000000"
     borderopacity="0.25"
     inkscape:showpageshadow="2"
     inkscape:pageopacity="0.0"
     inkscape:pagecheckerboard="true"
     inkscape:deskcolor="#d1d1d1"
     inkscape:zoom="4.719882"
     inkscape:cx="59.959126"
     inkscape:cy="68.222045"
     inkscape:window-width="1382"
     inkscape:window-height="853"
     inkscape:window-x="0"
     inkscape:window-y="1"
     inkscape:window-maximized="1"
     inkscape:current-layer="Layer_1" /><defs
     id="defs2929" /><g
     id="g28"
     transform="matrix(1.3431617,0,0,1.3431617,-54.79556,-5.2372341)"><g
       aria-label="CHAPTER"
       id="g20"
       style="display:none"><path
         d="m 69.94572,66.7399 c -0.46973,0.47949 -1.33984,0.7793 -2.20898,0.7793 -2.09863,0 -3.54785,-1.41895 -3.54785,-3.59766 0,-2.00879 1.29883,-3.59766 3.48828,-3.59766 0.89941,0 1.62891,0.24902 2.12793,0.67969 l -0.38965,0.63965 c -0.45898,-0.33984 -0.99902,-0.52051 -1.72853,-0.52051 -1.51952,0 -2.59862,1.13965 -2.59862,2.79883 0,1.66895 1.10938,2.79883 2.72852,2.79883 0.66992,0 1.30859,-0.23047 1.78906,-0.62012 z"
         id="path6"
         style="fill:#005a9c" /><path
         d="m 75.88615,64.25162 h -3.84766 v 3.16797 H 71.18888 V 60.4235 h 0.84961 v 3.02832 h 3.84766 V 60.4235 h 0.84961 v 6.99609 h -0.84961 z"
         id="path8"
         style="fill:#005a9c" /><path
         d="m 80.83732,60.38345 h 0.72949 l 3.00879,7.03613 h -0.91016 l -0.89941,-2.11914 h -3.1875 l -0.88965,2.11914 H 77.8295 l 3.00781,-7.03613 z m -0.91894,4.11817 h 2.51854 l -1.25975,-2.98926 z"
         id="path10"
         style="fill:#005a9c" /><path
         d="m 85.66838,67.41958 v -6.99609 c 0.38965,0 1.38867,-0.02051 1.82812,-0.02051 1.99902,0 2.58887,1.08008 2.58887,2.16895 0,1.13965 -0.80957,2.19922 -2.51855,2.19922 -0.2793,0 -0.69922,-0.0098 -1.04883,-0.04004 v 2.68848 h -0.84961 z m 0.84961,-6.19628 v 2.69824 c 0.33984,0.03027 0.66893,0.0498 1.01855,0.0498 1.03027,0 1.64941,-0.5293 1.64941,-1.40918 0,-0.8291 -0.5,-1.35938 -1.60938,-1.35938 -0.2793,0 -0.72949,0.0098 -1.05859,0.02051 z"
         id="path12"
         style="fill:#005a9c" /><path
         d="m 90.39787,60.42349 h 5.74707 v 0.7998 H 93.6967 v 6.19629 h -0.84961 v -6.19629 h -2.44922 z"
         id="path14"
         style="fill:#005a9c" /><path
         d="m 97.18791,60.42349 h 3.94727 v 0.7998 h -3.09766 v 2.25879 h 2.79785 v 0.79883 h -2.79785 v 2.33887 h 3.19824 v 0.7998 h -4.04785 z"
         id="path16"
         style="fill:#005a9c" /><path
         d="m 102.82853,67.41958 v -6.99609 c 0.38965,0 1.67871,-0.02051 1.87891,-0.02051 1.9082,0 2.48828,0.9502 2.48828,2.0791 0,1.08984 -0.75,1.7793 -1.51953,1.97949 l 2.3291,2.95801 h -1.03906 l -2.14941,-2.79883 h -1.13867 v 2.79883 h -0.84961 z m 0.84961,-6.19628 v 2.59863 h 1.0293 c 0.80957,0 1.58887,-0.5 1.58887,-1.33008 0,-0.71875 -0.39941,-1.28906 -1.63965,-1.28906 -0.21974,0 -0.64941,0.0098 -0.97852,0.02051 z"
         id="path18"
         style="fill:#005a9c" /></g><path
       style="fill:none;stroke:#000000;stroke-width:3.94036;stroke-linecap:round;stroke-opacity:1"
       d="m 89.302114,50.807354 0.01348,0.01481 c 1.066076,1.133035 2.687706,1.627808 3.90961,1.627808 2.232608,0 3.97156,-1.659457 3.97156,-1.659457 M 81.865437,35.471483 c 0,0 1.703787,-1.656766 3.905573,-1.656766 1.373045,0 2.896744,0.436896 3.937223,1.612986 l 7.022476,7.938338 c 0.986727,1.115341 2.681382,1.629828 3.948681,1.629828 3.84883,0 4.98197,-1.500378 4.98197,-3.35125 0,-1.85086 -1.5004,-3.351247 -3.35129,-3.351247 M 89.302114,50.807354 74.840945,35.43915 c -0.673097,-0.715345 -1.99764,-1.624433 -3.978313,-1.624433 -2.951,0 -5.587191,2.380323 -5.590645,5.590581 -0.0017,1.599769 0.507753,2.786114 1.695173,3.974222 l 7.441396,7.445346 c 1.187421,1.188089 2.401693,1.629309 3.908267,1.625104 2.215793,-0.0062 2.961605,-0.603497 3.952717,-1.627135 m 17.670545,-18.25048 c 0.596595,-0.616169 1.444305,-0.981568 2.369745,-0.981568 1.8509,0 3.35132,1.500426 3.35132,3.351287 0,1.848894 -1.50247,3.351298 -3.35132,3.351298"
       id="path2" /><path
       d="m 36.191406,82.014259 q 0.101563,0.179688 0.179688,0.367188 0.08594,0.1875 0.164062,0.382812 0.07813,-0.203125 0.15625,-0.390625 0.08594,-0.1875 0.179688,-0.359375 l 3.625,-6.289062 q 0.09375,-0.164063 0.203125,-0.195313 0.109375,-0.03906 0.296875,-0.03906 h 1.046875 v 10.265625 h -1.257813 v -7.492188 q 0,-0.15625 0.0078,-0.34375 0.01563,-0.195312 0.03125,-0.390625 l -3.664063,6.4375 q -0.179687,0.320313 -0.515625,0.320313 h -0.203125 q -0.335937,0 -0.515625,-0.320313 l -3.75,-6.429687 q 0.04687,0.390625 0.04687,0.726562 v 7.492188 h -1.25 V 75.490822 h 1.046875 q 0.1875,0 0.289063,0.03906 0.109375,0.03125 0.210937,0.203125 l 3.671875,6.28125 z m 14.289063,-6.523437 v 1.15625 h -4.570313 v 3.367187 h 3.679688 v 1.117188 h -3.679688 v 3.46875 h 4.578125 l -0.0078,1.15625 h -6 V 75.490822 Z m 7.203125,6.523437 q 0.101562,0.179688 0.179687,0.367188 0.08594,0.1875 0.164063,0.382812 0.07813,-0.203125 0.15625,-0.390625 0.08594,-0.1875 0.179687,-0.359375 l 3.625,-6.289062 q 0.09375,-0.164063 0.203125,-0.195313 0.109375,-0.03906 0.296875,-0.03906 h 1.046875 v 10.265625 h -1.257812 v -7.492188 q 0,-0.15625 0.0078,-0.34375 0.01563,-0.195312 0.03125,-0.390625 l -3.664062,6.4375 q -0.179688,0.320313 -0.515625,0.320313 h -0.203125 q -0.335938,0 -0.515625,-0.320313 l -3.75,-6.429687 q 0.04687,0.390625 0.04687,0.726562 v 7.492188 h -1.25 V 75.490822 h 1.046875 q 0.1875,0 0.289062,0.03906 0.109375,0.03125 0.210938,0.203125 l 3.671875,6.28125 z m 8.28125,3.742188 V 75.490822 h 3.132812 q 0.90625,0 1.554688,0.1875 0.65625,0.179687 1.070312,0.53125 0.421875,0.34375 0.617188,0.84375 0.195312,0.492187 0.195312,1.117187 0,0.375 -0.117187,0.726563 -0.109375,0.351562 -0.335938,0.648437 -0.226562,0.296875 -0.570312,0.539063 -0.34375,0.242187 -0.8125,0.390625 1.070312,0.210937 1.609375,0.804687 0.546875,0.585938 0.546875,1.546875 0,0.65625 -0.226563,1.195313 -0.226562,0.539062 -0.664062,0.929687 -0.4375,0.382813 -1.078125,0.59375 -0.632813,0.210938 -1.453125,0.210938 z m 1.421875,-4.671875 v 3.546875 h 2.023437 q 0.539063,0 0.921875,-0.132813 0.390625,-0.140625 0.632813,-0.382812 0.25,-0.242188 0.359375,-0.578125 0.117187,-0.34375 0.117187,-0.742188 0,-0.789062 -0.5,-1.25 -0.492187,-0.460937 -1.53125,-0.460937 z m 0,-1 h 1.65625 q 0.523437,0 0.914062,-0.125 0.390625,-0.132813 0.648438,-0.359375 0.257812,-0.226563 0.382812,-0.546875 0.132813,-0.320313 0.132813,-0.710938 0,-0.898437 -0.492188,-1.3125 -0.484375,-0.421875 -1.53125,-0.421875 h -1.710937 z m 13.289062,-4.59375 v 1.15625 h -4.570312 v 3.367187 h 3.679687 v 1.117188 h -3.679687 v 3.46875 h 4.578125 l -0.0078,1.15625 h -6 V 75.490822 Z m 3.25,6 v 4.265625 H 82.503906 V 75.490822 h 2.8125 q 0.9375,0 1.617188,0.203125 0.6875,0.195312 1.125,0.570312 0.445312,0.367188 0.65625,0.898438 0.210937,0.523437 0.210937,1.179687 0,0.539063 -0.164062,1.007813 -0.15625,0.46875 -0.460938,0.84375 -0.296875,0.375 -0.734375,0.648437 -0.4375,0.265625 -0.992187,0.40625 0.132812,0.08594 0.25,0.195313 0.117187,0.101562 0.226562,0.25 l 2.757813,4.0625 h -1.265625 q -0.367188,0 -0.570313,-0.289063 l -2.429687,-3.65625 q -0.117188,-0.171875 -0.257813,-0.242187 -0.132812,-0.07813 -0.40625,-0.07813 z m 0,-1.039063 h 1.335938 q 0.5625,0 0.984375,-0.140625 0.429687,-0.148437 0.71875,-0.414062 0.289062,-0.265625 0.429687,-0.632813 0.148438,-0.375 0.148438,-0.820312 0,-1.835938 -2.226563,-1.835938 h -1.390625 z"
       id="text1"
       style="font-size:16px;line-height:1.1;font-family:Carlito;-inkscape-font-specification:'Carlito, Normal';text-align:center;letter-spacing:0px;text-anchor:middle;stroke-width:9.458;stroke-linecap:round;fill-opacity:1"
       transform="matrix(0.744512,0,0,0.744512,40.795952,3.8991836)"
       aria-label="MEMBER" /></g><circle
     style="fill:none;stroke:none;stroke-width:1;stroke-dasharray:none;stroke-opacity:1"
     id="path27992"
     cx="14.735628"
     cy="83.545952"
     r="52.5"
     transform="rotate(-35)" /><path
     d="m 106.9378,30.105625 q 0.18672,-0.113967 0.38816,-0.140821 0.20612,-0.0297 0.39404,0.01576 0.19545,0.04729 0.36519,0.167925 0.16974,0.120639 0.28086,0.302688 0.11397,0.186716 0.14367,0.392831 0.0297,0.206114 -0.0176,0.401559 -0.0426,0.192595 -0.16325,0.362335 -0.11597,0.166891 -0.30269,0.280859 -0.18205,0.111118 -0.38816,0.140821 -0.20145,0.02685 -0.39689,-0.02043 -0.19078,-0.05014 -0.36052,-0.170775 -0.16507,-0.123488 -0.27904,-0.310204 -0.11112,-0.182049 -0.14549,-0.385314 -0.0297,-0.206115 0.0129,-0.39871 0.0501,-0.190776 0.1661,-0.357667 0.12064,-0.169741 0.30269,-0.280859 z m 6.82328,3.329662 0.44166,1.119129 q 0.0703,0.178044 0.033,0.322077 -0.0352,0.14912 -0.15142,0.242011 l -3.50822,2.536814 q -0.27109,0.206929 -0.64284,0.441828 0.21445,-0.0376 0.40855,-0.06717 0.19919,-0.03158 0.37388,-0.03584 l 4.36235,-0.357591 q 0.13306,-0.0055 0.26571,0.0774 0.13774,0.08086 0.20198,0.243647 l 0.15458,0.391695 q 0.0703,0.178043 0.031,0.31699 -0.0321,0.142025 -0.15142,0.242011 l -3.43594,2.719944 q -0.12745,0.109087 -0.28943,0.220046 -0.15489,0.114039 -0.33213,0.23102 0.20735,-0.04068 0.39436,-0.07332 0.18902,-0.02756 0.3526,-0.04508 l 4.30025,-0.544736 q 0.13106,-0.01056 0.26371,0.07231 0.13974,0.08595 0.20398,0.248734 l 0.41355,1.047912 -7.54643,0.661732 -0.47779,-1.210694 3.9638,-3.110512 q 0.0744,-0.06465 0.16921,-0.137329 0.0968,-0.06759 0.20375,-0.139201 -0.12704,0.02074 -0.24591,0.03238 -0.11887,0.01164 -0.21538,0.02033 l -5.0298,0.409341 -0.47578,-1.205607 z m 1.88226,18.390091 q -0.78117,0.165175 -1.50202,0.06047 -0.71549,-0.105835 -1.29855,-0.457671 -0.58192,-0.346486 -0.98942,-0.925492 -0.40751,-0.579005 -0.57155,-1.35482 -0.16404,-0.775815 -0.0258,-1.470217 0.13825,-0.694401 0.52897,-1.252141 0.39073,-0.55774 1.00101,-0.949496 0.61677,-0.387538 1.39793,-0.552713 0.77582,-0.164044 1.49132,-0.05821 0.72197,0.110054 1.29968,0.463022 0.58305,0.351837 0.99055,0.930842 0.41286,0.577874 0.5769,1.353689 0.16404,0.775815 0.0204,1.471348 -0.13824,0.694402 -0.5301,1.246791 -0.39073,0.55774 -1.00214,0.944146 -0.61142,0.386406 -1.38723,0.55045 z m -0.3032,-1.43392 q 0.56715,-0.119922 0.98717,-0.354066 0.42002,-0.234144 0.68026,-0.563064 0.26138,-0.323571 0.34805,-0.733174 0.0931,-0.405383 -0.006,-0.876223 -0.0996,-0.470839 -0.34997,-0.809168 -0.24505,-0.33946 -0.61616,-0.534883 -0.36999,-0.190073 -0.84884,-0.234152 -0.47885,-0.04408 -1.046,0.07584 -0.5725,0.121053 -0.99787,0.356328 -0.42002,0.234144 -0.68139,0.557714 -0.2549,0.32779 -0.34157,0.737392 -0.0867,0.409603 0.0129,0.880443 0.0996,0.470839 0.34349,0.804949 0.24505,0.33946 0.60968,0.530664 0.37111,0.195423 0.84997,0.239503 0.4842,0.04295 1.0567,-0.07811 z m -0.29626,4.324014 -2.78642,0.212707 -0.1099,-1.439562 7.24144,-0.552789 0.1665,2.181154 q 0.0554,0.725234 -0.0632,1.255329 -0.11313,0.52968 -0.36626,0.878082 -0.2527,0.353855 -0.6282,0.53609 -0.3755,0.182235 -0.839,0.217617 -0.35443,0.02706 -0.68365,-0.04654 -0.32376,-0.07401 -0.60552,-0.244464 -0.27589,-0.165418 -0.50391,-0.422244 -0.22257,-0.257243 -0.37504,-0.602106 -0.0659,0.142149 -0.16584,0.270438 -0.0944,0.127872 -0.23922,0.243132 l -2.51556,1.820975 -0.0987,-1.292333 q -0.0262,-0.343532 0.24863,-0.550992 l 2.15676,-1.491928 q 0.12462,-0.09178 0.17124,-0.199551 0.047,-0.102315 0.0329,-0.287713 z m 1.01969,-0.07784 0.0558,0.730687 q 0.0266,0.348985 0.13849,0.592741 0.11226,0.249209 0.28833,0.400308 0.17608,0.151099 0.40547,0.210373 0.23527,0.06431 0.50246,0.04391 0.52893,-0.04038 0.7875,-0.389196 0.26403,-0.349234 0.21242,-1.025392 l -0.0566,-0.741592 z m -2.40432,6.563088 -0.073,2.520036 -1.18076,-0.03421 0.11468,-3.957714 7.25945,0.210349 -0.0417,1.437678 z m 1.44761,9.930968 q -0.79047,-0.112454 -1.421,-0.456248 -0.6251,-0.343023 -1.03608,-0.871014 -0.41176,-0.522576 -0.5854,-1.204612 -0.17364,-0.682036 -0.0619,-1.4671 l 0.37279,-2.620491 7.19011,1.022869 -0.3728,2.620491 q -0.11168,0.785064 -0.46864,1.391617 -0.35695,0.606553 -0.8981,0.993569 -0.54193,0.392429 -1.23789,0.547516 -0.69597,0.155086 -1.48104,0.0434 z m 0.20566,-1.445602 q 0.57391,0.08164 1.04873,0.0056 0.47482,-0.07607 0.832,-0.295924 0.35641,-0.21444 0.57817,-0.569559 0.22717,-0.354349 0.29495,-0.830802 l 0.16945,-1.191133 -4.93237,-0.701682 -0.16945,1.191133 q -0.0678,0.476453 0.0461,0.879326 0.11392,0.402874 0.39639,0.708201 0.2817,0.310742 0.71647,0.516211 0.44018,0.20624 1.01951,0.288655 z m 2.48605,6.269579 -0.41645,1.128753 q -0.0662,0.179574 -0.18998,0.262163 -0.12563,0.08772 -0.27417,0.07955 l -4.30626,-0.446261 q -0.34002,-0.02635 -0.77374,-0.09893 0.18495,0.114869 0.34938,0.222168 0.16956,0.109191 0.30266,0.222416 l 3.49096,2.640307 q 0.10286,0.08458 0.14654,0.234768 0.0488,0.152079 -0.0118,0.316261 L 115.97,80.911916 q -0.0662,0.179574 -0.1881,0.257032 -0.1186,0.08448 -0.27417,0.07955 l -4.3744,-0.261557 q -0.16772,-0.0036 -0.36244,-0.0288 -0.19148,-0.01818 -0.40159,-0.04907 0.18172,0.107846 0.34291,0.208121 0.1593,0.105405 0.29295,0.201345 l 3.56936,2.459388 q 0.10475,0.07945 0.14844,0.229638 0.0469,0.157209 -0.0136,0.321391 l -0.38995,1.056924 -6.06775,-4.535306 0.45052,-1.221106 5.02825,0.322085 q 0.0986,0.0014 0.21768,0.01036 0.11721,0.0141 0.24468,0.03198 -0.10854,-0.06919 -0.20493,-0.139727 -0.0964,-0.07054 -0.17415,-0.128369 l -4.02309,-3.046484 0.44862,-1.215975 z m -11.53804,8.846 0.66484,-1.281561 6.44664,3.344354 -0.66484,1.281561 z m -0.91477,8.424157 q -0.67037,-0.433703 -1.0985,-1.010298 -0.42353,-0.573624 -0.57509,-1.225321 -0.15453,-0.647106 -0.026,-1.339067 0.12851,-0.69196 0.55925,-1.357744 l 1.43775,-2.222342 6.09767,3.944918 -1.43776,2.222342 q -0.43073,0.665785 -1.00922,1.066629 -0.57849,0.400844 -1.23208,0.52513 -0.65656,0.128877 -1.35338,-0.02232 -0.69682,-0.151195 -1.36261,-0.581928 z m 0.79314,-1.225961 q 0.48672,0.31488 0.94965,0.445026 0.46293,0.130146 0.87939,0.08042 0.41349,-0.04513 0.76377,-0.274459 0.35488,-0.226355 0.61629,-0.630417 l 0.65352,-1.010156 -4.18296,-2.70619 -0.65353,1.010155 q -0.26141,0.404062 -0.32701,0.817563 -0.0656,0.413501 0.0627,0.809162 0.12535,0.400253 0.43381,0.769163 0.31305,0.371881 0.80435,0.689732 z m -1.68813,7.98935 -0.87895,-0.730627 1.90872,-2.296218 -1.47615,-1.227033 -1.48572,1.78735 -0.84531,-0.70266 1.48572,-1.78735 -1.50558,-1.251503 -1.912209,2.300424 -0.87546,-0.734831 2.831609,-3.406479 5.58495,4.642448 z m -2.95815,3.29003 -0.93525,0.75685 q -0.14878,0.12041 -0.29735,0.12808 -0.15282,0.0111 -0.276277,-0.0719 l -3.471893,-2.5863 q -0.278684,-0.19658 -0.614231,-0.48082 0.100161,0.19332 0.186562,0.36963 0.08984,0.18056 0.146286,0.34594 l 1.648981,4.05448 q 0.04512,0.1253 0.0058,0.27669 -0.03585,0.15565 -0.171886,0.26574 l -0.327335,0.2649 q -0.148788,0.12041 -0.293106,0.12463 -0.145128,0.0119 -0.276275,-0.0719 l -3.624932,-2.46245 q -0.142278,-0.0889 -0.296696,-0.21015 -0.155229,-0.11357 -0.319967,-0.24759 0.100972,0.18562 0.188183,0.35424 0.08296,0.17206 0.148718,0.32287 l 1.808902,3.93913 q 0.04937,0.12186 0.01008,0.27325 -0.0401,0.15909 -0.176137,0.26918 l -0.875727,0.70869 -2.893727,-7.00092 1.011762,-0.81878 4.155786,2.84893 q 0.08399,0.0516 0.181743,0.12026 0.0935,0.0721 0.193883,0.15264 -0.05787,-0.11497 -0.10461,-0.22489 -0.04674,-0.10991 -0.08397,-0.19938 l -1.898452,-4.675712 1.007511,-0.815341 z m -13.22428,9.40685 -0.579446,-0.9852 2.573777,-1.51377 -0.973136,-1.65457 -2.003398,1.1783 -0.557267,-0.94749 2.003398,-1.1783 -0.992543,-1.68757 -2.578491,1.51654 -0.574733,-0.98797 3.818241,-2.2457 3.681839,6.26003 z m -4.606109,-5.77472 2.960241,6.63181 -2.252218,1.00532 q -0.639211,0.28533 -1.149377,0.36333 -0.510166,0.078 -0.897353,-0.0247 -0.39218,-0.10042 -0.66914,-0.37206 -0.279725,-0.26441 -0.460282,-0.66891 -0.102538,-0.22972 -0.13347,-0.47343 -0.03093,-0.24372 0.02143,-0.48867 0.05236,-0.24496 0.197989,-0.49562 0.142868,-0.24344 0.390693,-0.47983 -1.421618,0.26327 -1.93654,-0.89031 -0.189473,-0.42448 -0.195159,-0.85313 -0.0057,-0.42866 0.175801,-0.82708 0.178723,-0.3912 0.551308,-0.73717 0.369819,-0.33875 0.934122,-0.59064 z m -0.02719,3.4677 -0.831453,-1.8627 -1.123612,0.50154 q -0.314611,0.14044 -0.488687,0.31396 -0.174075,0.17352 -0.233741,0.36186 -0.06466,0.19056 -0.03658,0.38763 0.03031,0.20207 0.115015,0.39184 0.09139,0.20474 0.224879,0.34279 0.128493,0.14028 0.309602,0.19718 0.176115,0.0591 0.412605,0.0254 0.233725,-0.0265 0.533355,-0.16022 z m 0.403467,0.90388 -0.863933,0.38563 q -0.554315,0.24743 -0.760323,0.59092 -0.203779,0.34848 0.01467,0.83788 0.227368,0.50937 0.57844,0.5982 0.353301,0.0938 0.91261,-0.15583 l 0.93884,-0.41907 z m -12.351771,1.72964 q -0.111098,0.0291 -0.212619,-0.0348 l -0.712039,-0.45234 q 0.240979,-0.63408 0.744201,-1.06548 0.497932,-0.43001 1.286195,-0.63644 0.714198,-0.18703 1.354827,-0.0721 0.642014,0.12018 1.168768,0.49102 0.522849,0.37752 0.911544,0.97672 0.384791,0.60588 0.589832,1.38885 0.206426,0.78826 0.150731,1.50384 -0.0596,0.72225 -0.35285,1.30783 -0.293251,0.58558 -0.80592,1.00249 -0.512669,0.41692 -1.210996,0.59979 -0.708907,0.18565 -1.320314,0.0744 -0.610021,-0.10595 -1.083117,-0.42301 l 0.295146,-0.77263 q 0.03237,-0.0707 0.08339,-0.1349 0.04573,-0.0628 0.156823,-0.0919 0.111097,-0.0291 0.239071,0.0278 0.122683,0.0583 0.302426,0.11866 0.174453,0.0617 0.424105,0.0868 0.249652,0.0251 0.604106,-0.0678 0.386196,-0.10113 0.660669,-0.34826 0.275859,-0.24184 0.421605,-0.61354 0.147132,-0.36641 0.156341,-0.84934 0.0053,-0.47626 -0.144321,-1.04761 -0.15101,-0.57665 -0.406319,-0.99031 -0.255309,-0.41366 -0.569824,-0.66484 -0.31842,-0.24449 -0.678789,-0.32537 -0.358983,-0.0756 -0.724018,0.02 -0.216904,0.0568 -0.385945,0.12368 -0.167654,0.0722 -0.300545,0.16916 -0.136795,0.10366 -0.244117,0.23352 -0.107321,0.12986 -0.202174,0.30733 -0.04182,0.0562 -0.0878,0.0965 -0.04988,0.047 -0.108075,0.0622 z m -8.014336,3.09922 q -0.102161,-0.79187 0.05987,-1.50204 0.162727,-0.70474 0.560075,-1.25778 0.391923,-0.55234 1.001669,-0.91222 0.609745,-0.35989 1.396196,-0.46135 0.786451,-0.10146 1.46757,0.0919 0.681118,0.19334 1.205817,0.62743 0.524699,0.43409 0.866384,1.07375 0.336961,0.64579 0.439123,1.43766 0.101461,0.78646 -0.06127,1.49119 -0.167452,0.71087 -0.565499,1.25849 -0.397347,0.55304 -1.007093,0.91292 -0.609046,0.36531 -1.395497,0.46677 -0.78645,0.10146 -1.468269,-0.0973 -0.681118,-0.19335 -1.200393,-0.62813 -0.524699,-0.43409 -0.86096,-1.07446 -0.336262,-0.64036 -0.437724,-1.42681 z m 1.453579,-0.18753 q 0.07417,0.57492 0.273968,1.01233 0.199796,0.43741 0.506847,0.72312 0.301626,0.28642 0.702984,0.40558 0.396634,0.12528 0.873928,0.0637 0.477294,-0.0616 0.834569,-0.28412 0.357974,-0.21712 0.582456,-0.57141 0.219058,-0.35359 0.301299,-0.82738 0.08224,-0.47379 0.0081,-1.04872 -0.07487,-0.58034 -0.275368,-1.02317 -0.199796,-0.43741 -0.501423,-0.72383 -0.306351,-0.28029 -0.707708,-0.39945 -0.401358,-0.11915 -0.878652,-0.0576 -0.477295,0.0616 -0.829845,0.278 -0.357974,0.21712 -0.577732,0.56529 -0.224482,0.35429 -0.306723,0.82808 -0.08154,0.47922 -0.0067,1.05956 z m -3.711422,3.84907 q -0.09296,-0.001 -0.158424,-0.0132 -0.06554,-0.006 -0.11437,-0.0344 -0.05437,-0.0226 -0.0975,-0.067 -0.0486,-0.0444 -0.107745,-0.11637 l -3.509733,-4.76403 q 0.02772,0.36137 0.02317,0.68399 l -0.06,4.25426 -1.263156,-0.0178 0.10241,-7.26178 0.738208,0.0104 q 0.169514,0.002 0.283576,0.0587 0.108515,0.0617 0.216029,0.19447 l 3.499182,4.73653 q -0.02803,-0.33949 -0.02394,-0.62931 l 0.06069,-4.30348 1.268624,0.0179 -0.10241,7.26177 -0.754612,-0.0106 z m -11.09717,-2.1705 q 0.06889,-0.10104 0.151371,-0.13952 0.07633,-0.0338 0.184711,-0.0191 0.102964,0.014 0.211897,0.10599 0.108933,0.092 0.259749,0.20079 0.144663,0.11344 0.345721,0.21797 0.201059,0.10453 0.477435,0.14201 0.487724,0.0661 0.769339,-0.1385 0.276197,-0.20538 0.328373,-0.59014 0.03307,-0.24386 -0.07494,-0.42407 -0.114167,-0.17553 -0.314766,-0.32414 -0.206752,-0.14393 -0.470636,-0.27354 -0.269303,-0.13034 -0.547239,-0.27841 -0.278672,-0.14264 -0.535206,-0.32644 -0.262689,-0.17911 -0.45006,-0.42527 -0.19279,-0.2469 -0.280226,-0.57885 -0.09286,-0.33268 -0.03186,-0.78247 0.06614,-0.48772 0.28677,-0.89379 0.215211,-0.4068 0.56746,-0.68464 0.351515,-0.27242 0.82629,-0.39568 0.469356,-0.12399 1.043786,-0.0461 0.325149,0.0441 0.640744,0.15863 0.310912,0.10839 0.592063,0.27345 0.28115,0.16506 0.523173,0.37448 0.242022,0.20942 0.413135,0.45338 l -0.514554,0.62007 q -0.0598,0.0747 -0.147697,0.11242 -0.09332,0.037 -0.190865,0.0238 -0.130059,-0.0176 -0.251575,-0.13897 -0.12767,-0.11665 -0.295019,-0.26628 -0.168084,-0.14421 -0.397983,-0.28024 -0.230633,-0.13062 -0.566621,-0.17618 -0.487723,-0.0661 -0.792485,0.1464 -0.304762,0.21254 -0.370901,0.70026 -0.03748,0.27638 0.07448,0.46816 0.106544,0.19105 0.307877,0.33425 0.200599,0.14862 0.471371,0.26812 0.264619,0.12418 0.544025,0.26141 0.273987,0.13649 0.537411,0.31019 0.257269,0.17837 0.44317,0.43537 0.185901,0.257 0.275817,0.61136 0.0845,0.35363 0.01689,0.85219 -0.05365,0.39559 -0.256089,0.74894 -0.203178,0.35876 -0.535496,0.61171 -0.332317,0.25295 -0.778527,0.36905 -0.452364,0.12077 -0.999698,0.0465 -0.617783,-0.0838 -1.11625,-0.35557 -0.503886,-0.27253 -0.82857,-0.68632 z m -8.028123,-4.2284 q 0.203214,-0.77214 0.620477,-1.3692 0.415871,-0.59176 0.992067,-0.95472 0.570908,-0.36435 1.271244,-0.46844 0.700337,-0.10409 1.467192,0.0977 0.766855,0.20182 1.32522,0.63718 0.558365,0.43535 0.88124,1.03493 0.322875,0.59958 0.39885,1.32079 0.06929,0.72511 -0.13392,1.49725 -0.201822,0.76686 -0.617693,1.35863 -0.422552,0.59566 -0.997357,0.95333 -0.576196,0.36296 -1.276532,0.46705 -0.701728,0.10937 -1.468584,-0.0924 -0.766855,-0.20182 -1.323828,-0.64246 -0.558365,-0.43536 -0.875951,-1.03354 -0.322875,-0.59958 -0.393561,-1.3194 -0.07069,-0.71982 0.131136,-1.48668 z m 1.417361,0.37303 q -0.147539,0.56059 -0.126952,1.04103 0.02059,0.48044 0.197612,0.86067 0.171734,0.37884 0.498792,0.64022 0.320378,0.26528 0.78578,0.38776 0.465402,0.12249 0.880148,0.0507 0.413354,-0.0665 0.754619,-0.31035 0.335976,-0.24522 0.590399,-0.65327 0.254423,-0.40806 0.401961,-0.96866 0.148931,-0.56589 0.129735,-1.05161 -0.02059,-0.48044 -0.192322,-0.85928 -0.178415,-0.37494 -0.505473,-0.63632 -0.327058,-0.26138 -0.79246,-0.38387 -0.465402,-0.12248 -0.873468,-0.0546 -0.413354,0.0665 -0.747938,0.30645 -0.341265,0.24382 -0.595688,0.65188 -0.255815,0.41335 -0.404745,0.97924 z m -3.727711,-2.20655 1.058569,-2.58628 1.33616,0.54689 -2.751037,6.72129 -2.024484,-0.82863 q -0.673141,-0.27551 -1.093881,-0.61909 -0.422811,-0.33851 -0.620834,-0.72093 -0.203084,-0.38448 -0.197717,-0.80183 0.0054,-0.41735 0.18145,-0.84756 0.134652,-0.32897 0.347976,-0.5903 0.211253,-0.25626 0.489902,-0.43175 0.271516,-0.17251 0.603296,-0.26126 0.329708,-0.0837 0.706333,-0.0654 -0.09753,-0.12265 -0.167444,-0.26944 -0.07199,-0.14174 -0.110146,-0.32281 l -0.500542,-3.06489 1.199506,0.49097 q 0.318857,0.1305 0.381145,0.46918 l 0.367185,2.59666 q 0.0262,0.15254 0.101648,0.24252 0.07039,0.0879 0.242467,0.15833 z m -0.387382,0.94644 -0.678203,-0.27759 q -0.323917,-0.13258 -0.591949,-0.14183 -0.273094,-0.0113 -0.487077,0.0784 -0.213983,0.0897 -0.369774,0.2682 -0.162924,0.18149 -0.264431,0.42949 -0.200941,0.49094 -0.005,0.87842 0.19388,0.39254 0.82147,0.64941 l 0.688324,0.28173 z m -10.616192,-1.34831 0.561416,-1.02686 1.717833,0.93919 2.922511,-5.34544 1.257185,0.68734 -2.922511,5.34544 1.717833,0.93919 -0.561416,1.02686 z m 1.571391,-7.68214 1.206388,0.79313 -3.989642,6.06849 -1.206388,-0.79312 z M 26.262,101.71854 q -0.297746,-0.24061 -0.606493,-0.32839 -0.313,-0.0912 -0.614746,-0.0398 -0.305999,0.048 -0.597306,0.2345 -0.291307,0.18646 -0.545665,0.50122 l -2.722325,3.36878 -1.11442,-0.90056 2.722325,-3.36878 q 0.412474,-0.51042 0.925526,-0.80597 0.508798,-0.29899 1.06941,-0.36627 0.557174,-0.06302 1.136214,0.11663 0.579039,0.17964 1.127742,0.62305 0.548703,0.44341 0.850139,0.97528 0.297183,0.52843 0.352514,1.08642 0.05189,0.56225 -0.129384,1.12591 -0.185532,0.56022 -0.598005,1.07064 l -2.722325,3.36878 -1.118673,-0.90401 2.722325,-3.36878 q 0.254359,-0.31476 0.375525,-0.63871 0.121167,-0.32396 0.108153,-0.62978 -0.01727,-0.30927 -0.1679,-0.59271 -0.154886,-0.28688 -0.452631,-0.52749 z m -7.560614,-4.4948 q 0.133381,-0.368082 0.319928,-0.717629 -0.193811,0.07025 -0.379459,0.133227 -0.189729,0.06661 -0.378134,0.110062 l -4.419224,0.944065 q -0.09034,0.02195 -0.152112,0.01841 -0.06949,-0.004 -0.118136,-0.03387 -0.05272,-0.02626 -0.104124,-0.07568 -0.0514,-0.04942 -0.113276,-0.118806 l -0.720689,-0.80814 5.420255,-4.833709 0.840803,0.942831 -3.39174,3.024708 q -0.110201,0.09828 -0.240368,0.207029 -0.137889,0.108312 -0.283498,0.216182 l 4.553579,-0.990606 q 0.349563,-0.08458 0.567954,0.160307 l 0.134674,0.151016 q 0.22203,0.248973 0.09814,0.58661 l -1.501519,4.445887 q 0.124212,-0.14008 0.251622,-0.26836 0.123329,-0.12464 0.237612,-0.22655 l 3.391741,-3.024712 0.844443,0.946912 -5.420255,4.83371 -0.724329,-0.81222 q -0.06188,-0.0694 -0.101473,-0.12201 -0.04324,-0.0567 -0.06331,-0.11207 -0.02371,-0.0595 -0.02018,-0.12123 -1.06e-4,-0.0658 0.032,-0.1531 l 1.439078,-4.30227 z m -5.349567,-6.880885 q -0.18554,0.115872 -0.386701,0.144786 -0.2058,0.03181 -0.394183,-0.01173 -0.195918,-0.04528 -0.366884,-0.16418 -0.170966,-0.118896 -0.283941,-0.299798 -0.115872,-0.18554 -0.147683,-0.39134 -0.03181,-0.2058 0.01347,-0.401718 0.04065,-0.193021 0.159542,-0.363987 0.114257,-0.168069 0.299797,-0.283941 0.180902,-0.112975 0.386702,-0.144786 0.201161,-0.02891 0.397079,0.01637 0.19128,0.04818 0.362246,0.167077 0.166327,0.121792 0.282199,0.307333 0.112975,0.180902 0.149424,0.383805 0.03181,0.205799 -0.0088,0.398821 -0.04818,0.191279 -0.162438,0.359348 -0.118896,0.170966 -0.299798,0.283941 z M 6.4945659,87.0827 6.0414924,85.968145 q -0.07208,-0.177316 -0.036329,-0.321722 0.033692,-0.149473 0.1489366,-0.243547 l 3.4820987,-2.572547 q 0.2689595,-0.20969 0.6382949,-0.448377 -0.214056,0.03979 -0.4078468,0.07134 -0.1988572,0.03361 -0.3734957,0.03967 L 5.134685,82.895126 Q 5.0016879,82.901963 4.8681964,82.820452 4.7296387,82.741 4.6637371,82.578882 L 4.5051614,82.188788 q -0.07208,-0.177316 -0.034269,-0.316656 0.030685,-0.142347 0.1489366,-0.243547 l 3.4079594,-2.754928 q 0.1263244,-0.110385 0.2871647,-0.222994 0.1537147,-0.115616 0.3297534,-0.234404 -0.2069301,0.04279 -0.3935956,0.07735 -0.1887249,0.02949 -0.352119,0.04869 L 3.6045323,79.130968 Q 3.4735946,79.142871 3.340103,79.06136 3.1994859,78.976841 3.1335843,78.814724 l -0.4242415,-1.043629 7.5392762,-0.738849 0.490143,1.205747 -3.9317919,3.150873 q -0.073768,0.06541 -0.167801,0.139052 -0.096092,0.06858 -0.2023169,0.141276 0.1268188,-0.02204 0.2455648,-0.03489 0.1187459,-0.01285 0.2151678,-0.02253 l 5.0253462,-0.460741 0.488084,1.20068 z M 4.4243113,68.712295 q 0.7794377,-0.173145 1.5013171,-0.07581 0.7165408,0.09852 1.3031586,0.444384 0.5854318,0.340524 0.9988265,0.915337 0.4133946,0.574813 0.5853541,1.348912 0.1719595,0.774099 0.040816,1.469876 -0.131144,0.695778 -0.516154,1.257479 -0.3850101,0.561702 -0.9912597,0.959672 -0.6127741,0.393817 -1.3922117,0.566962 -0.7740991,0.17196 -1.4906399,0.07344 Q 3.7404525,75.569872 3.1591734,75.222823 2.5725557,74.87696 2.159161,74.302147 1.7404277,73.72852 1.5684682,72.954421 1.3965087,72.180322 1.5329912,71.483359 q 0.131144,-0.695777 0.51734,-1.25214 0.38501,-0.561702 0.9924455,-0.954333 0.6074355,-0.392631 1.3815346,-0.564591 z m 0.3178286,1.430749 q -0.5658931,0.125708 -0.9835026,0.36413 -0.4176095,0.238422 -0.6744773,0.569984 -0.2580537,0.326223 -0.3405358,0.736689 -0.089007,0.406315 0.015355,0.876113 0.1043617,0.469798 0.3582122,0.805551 0.248512,0.336939 0.6216007,0.528562 0.3719027,0.186283 0.8511804,0.225469 0.4792778,0.03919 1.0451709,-0.08652 Q 6.206375,74.036126 6.6293231,73.796518 7.0469325,73.558096 7.3049863,73.231873 7.5565154,72.901497 7.6389976,72.49103 7.7214797,72.080564 7.6171181,71.610766 7.5127564,71.140968 7.2654304,70.809367 7.0169184,70.472428 6.6503543,70.284958 6.2772656,70.093336 5.7979879,70.05415 q -0.4846163,-0.038 -1.055848,0.08889 z m 0.2520581,-4.32721 2.7841081,-0.241137 0.1245796,1.438365 -7.23541184,0.626674 -0.18875704,-2.179341 q -0.0627617,-0.724631 0.0504107,-1.25591 0.10772407,-0.530806 0.35727648,-0.881774 0.24908051,-0.356416 0.62270051,-0.542474 0.37362,-0.186058 0.83673,-0.226169 0.3541429,-0.03067 0.6840897,0.03956 0.3244985,0.0707 0.6079841,0.23827 0.2775652,0.162593 0.5081972,0.417079 0.2251837,0.254957 0.3811688,0.598247 0.06448,-0.142816 0.163065,-0.272117 0.093137,-0.12883 0.236725,-0.245562 l 2.4968504,-1.846556 0.1118386,1.291259 q 0.029729,0.343246 -0.2429891,0.553501 l -2.1414199,1.513864 q -0.123682,0.09305 -0.1691996,0.201289 -0.045989,0.102789 -0.029945,0.288033 z m -1.0188418,0.08824 -0.063234,-0.730079 Q 3.8819214,64.825304 3.7675924,64.582702 3.6527914,64.334652 3.4751841,64.185358 3.2975767,64.036064 3.0675878,63.979135 2.8316786,63.917229 2.5647093,63.940352 2.0362192,63.986126 1.7812184,64.337565 1.5207693,64.689477 1.579284,65.365072 l 0.064177,0.740976 z m 2.3371918,-6.587587 0.047309,-2.52065 1.181042,0.02217 -0.074298,3.958678 -7.26122113,-0.136282 0.0269896,-1.438028 z M 4.7637569,49.400482 q 0.7915841,0.104388 1.4255769,0.441736 0.6285711,0.336632 1.0449159,0.860405 0.4170598,0.518351 0.5976444,1.198581 0.1805845,0.68023 0.076911,1.466392 l -0.3460563,2.624156 -7.20016218,-0.94951 0.3460563,-2.624155 q 0.10367389,-0.786163 0.45442658,-1.396323 0.3507528,-0.610161 0.8879313,-1.002674 0.5378935,-0.397934 1.2322439,-0.560108 0.6943503,-0.162174 1.4805126,-0.0585 z m -0.190903,1.447623 q -0.5747117,-0.07579 -1.0487335,0.0051 -0.4740217,0.08091 -0.8289431,0.304392 -0.3542063,0.218062 -0.5723319,0.575424 -0.2235473,0.356647 -0.2864666,0.833766 l -0.1572983,1.192798 4.9392678,0.651358 0.1572984,-1.192798 Q 6.838566,52.741044 6.7205394,52.339352 6.6025128,51.937661 6.3169457,51.63523 6.0320936,51.327377 5.5952514,51.12635 5.1529875,50.924609 4.5728539,50.848105 Z M 2.02321,44.603521 2.4281381,43.470586 q 0.06442,-0.18024 0.1873085,-0.264084 0.1247288,-0.08899 0.2733458,-0.08234 l 4.3105794,0.402384 Q 7.5396441,43.549439 7.9740797,43.6176 7.7879658,43.504619 7.6224507,43.399001 7.4517859,43.291543 7.3175411,43.179678 L 3.7998807,40.57506 q -0.1037186,-0.08353 -0.1489303,-0.233264 -0.050361,-0.151574 0.00854,-0.316364 l 0.1417249,-0.396528 q 0.06442,-0.180239 0.1854679,-0.258934 0.1177384,-0.08569 0.2733458,-0.08234 l 4.3768403,0.216994 q 0.1677474,0.0019 0.3627118,0.0251 0.1916552,0.01623 0.4020688,0.04498 Q 9.2188424,39.468718 9.0566364,39.37009 8.896271,39.266312 8.7616542,39.171738 L 5.1674334,36.748828 Q 5.0618742,36.670447 5.0166626,36.520714 4.9681418,36.36399 5.0270405,36.199199 l 0.3791599,-1.060839 6.1136216,4.473278 -0.438059,1.22563 -5.0312642,-0.270861 q -0.098588,-3.92e-4 -0.2177758,-0.0081 -0.1173468,-0.0129 -0.244993,-0.02949 0.1092404,0.06808 0.2063407,0.137633 0.0971,0.06955 0.1754425,0.126589 l 4.0539148,3.005356 -0.4362176,1.22048 z m 11.447524,-8.963353 -0.651765,1.288261 -6.4803443,-3.278573 0.6517646,-1.288261 z m 0.829162,-8.433275 q 0.674753,0.426862 1.108718,0.999072 0.429344,0.569287 0.587528,1.219409 0.161109,0.645501 0.03964,1.338732 -0.121464,0.693232 -0.545402,1.363363 l -1.415077,2.236851 -6.1374767,-3.882691 1.415077,-2.236851 q 0.4239384,-0.670131 0.9983187,-1.076839 0.57438,-0.406708 1.226672,-0.537635 0.655216,-0.135548 1.353541,0.0086 0.698325,0.1441 1.368456,0.568038 z m -0.780631,1.233966 q -0.489889,-0.309914 -0.95412,-0.435344 -0.46423,-0.125431 -0.880166,-0.07147 -0.413012,0.04934 -0.760942,0.282214 -0.35255,0.229953 -0.609837,0.636653 l -0.643217,1.016751 4.210272,2.663502 0.643217,-1.01675 q 0.257286,-0.4067 0.318677,-0.820847 0.06139,-0.414147 -0.07095,-0.808482 -0.129412,-0.398958 -0.44161,-0.764711 -0.316819,-0.368677 -0.811329,-0.681514 z m 1.607013,-8.006389 0.886337,0.721654 -1.885276,2.315503 1.488538,1.211963 1.467477,-1.80236 0.85241,0.69403 -1.467477,1.802361 1.518224,1.236133 1.888729,-2.319744 0.882885,0.725895 -2.796839,3.435087 -5.631847,-4.585435 z m 2.925004,-3.320372 0.927507,-0.766316 q 0.147558,-0.121914 0.296041,-0.13109 0.152699,-0.01266 0.276991,0.06909 l 3.497979,2.550912 q 0.280666,0.193741 0.619082,0.474552 -0.102119,-0.192288 -0.190306,-0.367712 -0.09167,-0.17964 -0.149791,-0.344434 l -1.690072,-4.037528 q -0.04639,-0.124832 -0.0086,-0.276618 0.03427,-0.156002 0.169178,-0.267466 l 0.324628,-0.26821 q 0.147558,-0.121914 0.291825,-0.127607 0.144999,-0.01339 0.27699,0.06909 l 3.649753,2.425515 q 0.143174,0.08743 0.298815,0.207121 0.156374,0.111993 0.322465,0.244333 -0.102852,-0.184588 -0.19177,-0.352313 -0.0847,-0.171208 -0.15199,-0.321337 L 24.77116,11.973516 q -0.0506,-0.12135 -0.01285,-0.273136 0.03848,-0.159485 0.173394,-0.270949 l 0.868485,-0.717549 2.964676,6.971175 -1.003395,0.829013 -4.184504,-2.806583 q -0.08451,-0.05077 -0.182955,-0.118407 -0.09423,-0.07112 -0.195423,-0.150669 0.05904,0.114383 0.106888,0.223817 0.04785,0.109434 0.08599,0.198522 l 1.945838,4.65619 -0.999179,0.82553 z m 13.128271,-9.540766 0.589417,0.9792677 -2.558279,1.5398163 0.989882,1.644608 1.991334,-1.198575 0.566856,0.941783 -1.991334,1.198575 1.009623,1.677406 2.562964,-1.542636 0.584731,0.982088 -3.795248,2.284343 -3.745194,-6.2223331 z m 4.664504,5.727657 -3.027407,-6.6014172 2.241897,-1.0281329 q 0.636281,-0.2917983 1.145629,-0.3749749 0.509348,-0.083177 0.897557,0.015545 0.39318,0.096443 0.672883,0.3652535 0.282395,0.2615603 0.467048,0.664207 0.104865,0.2286636 0.138269,0.4720501 0.0334,0.2433864 -0.01646,0.4888627 -0.04987,0.2454762 -0.192948,0.4976015 -0.14039,0.2448747 -0.385803,0.4837654 1.418873,-0.2776775 1.945478,0.8706112 0.193772,0.4225305 0.20381,0.8511082 0.01004,0.428578 -0.167397,0.828819 -0.174743,0.39299 -0.543796,0.74273 -0.366362,0.342489 -0.928079,0.600092 z m -0.008,-3.4677904 0.850319,1.8541634 1.118463,-0.512927 q 0.313169,-0.143619 0.485474,-0.318901 0.172305,-0.175281 0.230057,-0.364209 0.06272,-0.191207 0.03264,-0.387987 Q 38.520641,9.901587 38.434014,9.712691 38.340547,9.5088822 38.205667,9.372197 38.075757,9.2332322 37.89408,9.1781719 37.717374,9.120832 37.481238,9.1569269 37.247793,9.1857712 36.949536,9.3225517 Z M 35.423423,8.9334573 36.283397,8.5390737 q 0.551775,-0.2530438 0.754286,-0.598604 0.20023,-0.3505312 -0.02318,-0.837684 Q 36.781979,6.5957492 36.430023,6.5104834 36.075787,6.4202467 35.519041,6.6755701 L 34.584503,7.1041488 Z M 47.756996,7.0785295 q 0.110797,-0.03022 0.212962,0.032611 l 0.716593,0.4450909 Q 48.452021,8.1927202 47.953204,8.6292048 47.459663,9.0642503 46.673536,9.2786675 45.961274,9.4729381 45.319511,9.3645536 44.67631,9.2508931 44.145819,8.8854185 43.619165,8.5132288 43.224407,7.918003 42.833486,7.3160622 42.620508,6.5352113 42.40609,5.7490843 42.454518,5.0329791 q 0.05226,-0.7228203 0.339557,-1.3113464 0.287292,-0.5885261 0.795702,-1.0106216 0.50841,-0.4220956 1.204844,-0.6120491 0.706987,-0.1928315 1.319491,-0.087804 0.611065,0.099752 1.087356,0.4119873 L 46.91418,3.1987316 q -0.03166,0.070988 -0.08202,0.1357403 -0.04508,0.063314 -0.155881,0.093533 -0.110796,0.03022 -0.239341,-0.025416 -0.123269,-0.057075 -0.303616,-0.1155867 -0.17507,-0.059951 -0.424964,-0.082489 -0.249893,-0.022537 -0.603386,0.073878 -0.38515,0.10505 -0.657101,0.3549491 -0.27339,0.2446231 -0.415355,0.617787 -0.143405,0.367888 -0.147711,0.8508866 -4.68e-4,0.4762837 0.154948,1.0460938 0.156856,0.5750862 0.416351,0.9861328 0.259495,0.4110466 0.576543,0.6590139 0.320885,0.2412523 0.682057,0.3184664 0.359732,0.071938 0.723777,-0.027356 0.216317,-0.059001 0.38467,-0.1275932 0.166913,-0.073868 0.298812,-0.1721978 0.135736,-0.1050445 0.241734,-0.2359889 0.105998,-0.1309444 0.199044,-0.3093729 0.04125,-0.056599 0.08681,-0.097369 0.0494,-0.047486 0.107438,-0.063315 z M 55.739468,3.898114 Q 55.849662,4.6889109 55.694851,5.4006816 55.539286,6.107036 55.147573,6.664084 54.761276,7.2203772 54.155215,7.5864302 53.549154,7.9524831 52.763774,8.0619224 51.978393,8.1713616 51.295347,7.9849401 50.612301,7.7985185 50.083223,7.3697786 49.554145,6.9410387 49.205984,6.3048764 48.862485,5.6625429 48.75229,4.8717461 q -0.109439,-0.7853805 0.04613,-1.4917349 0.160227,-0.7125255 0.552695,-1.2641571 0.391713,-0.557048 0.997774,-0.9231009 0.605306,-0.37146936 1.390687,-0.48090862 0.78538,-0.10943927 1.469181,0.0823987 0.683046,0.1864216 1.206708,0.61591628 0.529078,0.4287399 0.871822,1.0656569 0.342745,0.636917 0.452184,1.4222975 z m -1.451599,0.2022739 q -0.08,-0.5741402 -0.28423,-1.0094956 Q 53.799412,2.6555369 53.489478,2.3729512 53.184959,2.0896108 52.782413,1.9745346 52.384528,1.8532872 51.907883,1.9197056 51.431238,1.9861239 51.076241,2.212282 50.720489,2.4330236 50.499615,2.7895752 50.284158,3.1453719 50.20673,3.6199745 q -0.07743,0.4746027 0.0026,1.0487429 0.08076,0.5795566 0.285739,1.0203284 0.204226,0.4353555 0.508745,0.7186959 0.30918,0.2771692 0.711726,0.3922454 0.402547,0.1150762 0.879192,0.048658 0.476644,-0.066418 0.82698,-0.2864052 0.355752,-0.2207417 0.571964,-0.5711221 0.220874,-0.3565515 0.298301,-0.8311541 0.07667,-0.480019 -0.0041,-1.0595757 z m 3.672158,-3.8865485 q 0.09297,3.6727e-4 0.158549,0.0115639 0.0656,0.005728 0.114713,0.0332659 0.0546,0.0220909 0.09818,0.0660134 0.04904,0.0439441 0.10892,0.11527495 l 3.557912,4.72815491 q -0.03139,-0.3610643 -0.03011,-0.683718 l 0.01681,-4.25465425 1.263272,0.004991 -0.02869,7.26244323 -0.738275,-0.00292 Q 62.311771,7.4935877 62.197144,7.438447 62.088007,7.3778591 61.979152,7.2461781 L 58.43207,2.5454099 q 0.03147,0.3391894 0.03033,0.6290309 l -0.017,4.3038726 -1.26874,-0.00501 0.02869,-7.26244321 0.754682,0.002981 z M 69.078653,2.271587 q -0.06786,0.1017282 -0.149947,0.1410475 -0.07598,0.034573 -0.184508,0.020976 -0.1031,-0.012917 -0.212962,-0.1038419 Q 68.421375,2.2388438 68.269462,2.1316274 68.123656,2.0196646 67.921547,1.9171825 67.719438,1.8147003 67.442695,1.7800287 q -0.48837,-0.061185 -0.767894,0.1463009 -0.274097,0.2081659 -0.322366,0.5934353 -0.03059,0.2441848 0.07925,0.4232908 0.115943,0.1743594 0.318039,0.320932 0.208203,0.1418262 0.473389,0.2687454 0.270612,0.127599 0.550037,0.2728367 0.280105,0.1398113 0.538492,0.3209938 0.264494,0.176436 0.454353,0.4206825 0.195287,0.2449264 0.286088,0.5759696 0.09623,0.331723 0.0398,0.7821083 -0.06119,0.4883696 -0.277682,0.8966546 -0.21107,0.4089648 -0.560481,0.6903676 -0.348731,0.2759765 -0.822231,0.4040454 -0.468073,0.1287488 -1.043264,0.056686 -0.32558,-0.04079 -0.642322,-0.1521225 Q 65.433904,7.6957292 65.151092,7.5335327 64.86828,7.3713362 64.624144,7.1643817 64.380009,6.9574273 64.206428,6.7152202 l 0.508233,-0.6252641 q 0.05903,-0.075276 0.146548,-0.1139158 0.09294,-0.03796 0.190614,-0.025723 0.130232,0.016316 0.252973,0.1364122 0.128848,0.1153496 0.297707,0.2632696 0.169539,0.1424936 0.400807,0.2761865 0.231947,0.1282665 0.56838,0.1704162 0.488369,0.061185 0.790958,-0.1544342 Q 67.665237,6.4265486 67.726422,5.9381789 67.761094,5.6614361 67.64719,5.4707977 67.538713,5.2808391 67.335937,5.1396928 67.13384,4.9931202 66.861868,4.8763738 66.596003,4.754881 66.315218,4.620496 66.039859,4.4867908 65.774686,4.3157811 65.515619,4.140025 65.327119,3.8849257 65.138619,3.6298265 65.04511,3.2763982 q -0.08808,-0.3527484 -0.02554,-0.8519707 0.04963,-0.3961221 0.248474,-0.7515034 0.199526,-0.3608077 0.529259,-0.6171184 0.329732,-0.25631068 0.774741,-0.37692609 0.451114,-0.1253619 0.999174,-0.0566986 0.618601,0.0775012 1.119801,0.34421937 0.506627,0.26739799 0.835494,0.67787069 z m 8.070615,4.1466809 Q 76.953903,7.192435 76.542722,7.7936959 76.13288,8.3896543 75.560397,8.7584431 74.993217,9.12857 74.293974,9.2397621 73.594731,9.3509542 72.825866,9.156927 72.057001,8.9628998 71.494246,8.5332355 70.931491,8.1035711 70.602546,7.5073021 70.273601,6.9110332 70.190309,6.1906298 q -0.07665,-0.7243678 0.118715,-1.498535 0.194027,-0.7688647 0.603869,-1.3648231 0.416484,-0.5999227 0.987628,-0.963409 0.572483,-0.3687888 1.271726,-0.4799809 0.700581,-0.1164947 1.469446,0.077533 0.768865,0.1940272 1.330282,0.6289941 0.562755,0.4296643 0.886397,1.0245952 0.328945,0.5962689 0.406934,1.3153342 0.07799,0.7190653 -0.116038,1.48793 z M 75.728194,6.0596521 Q 75.870035,5.4975855 75.844571,5.0173831 75.819108,4.5371808 75.638234,4.1587646 75.462662,3.7816865 75.132968,3.5236403 74.809914,3.2616296 74.343292,3.1438752 73.876671,3.0261207 73.462675,3.1021329 q -0.412657,0.07071 -0.75143,0.3179902 -0.333469,0.2486187 -0.583737,0.6592389 -0.250267,0.4106201 -0.392108,0.9726867 -0.143178,0.5673691 -0.119053,1.0528739 0.02546,0.4802024 0.201035,0.8572804 0.182212,0.3731137 0.511907,0.63116 0.329694,0.2580463 0.796316,0.3758007 0.466621,0.1177544 0.873976,0.045707 0.412658,-0.07071 0.744789,-0.3140258 0.338773,-0.2472806 0.58904,-0.6579008 0.251605,-0.4159227 0.394784,-0.9832917 z m 3.749911,2.1685875 -1.032261,2.5968914 -1.341642,-0.533301 2.682666,-6.7488677 2.032791,0.8080318 q 0.675903,0.2686706 1.100109,0.6079556 0.426226,0.3342029 0.62812,0.7145886 0.206977,0.3824058 0.205847,0.7997885 -0.0011,0.4173826 -0.172838,0.8493508 -0.131305,0.3303286 -0.341965,0.5938039 -0.20864,0.2583933 -0.485493,0.4367074 -0.269751,0.1752523 -0.600613,0.2673635 -0.328842,0.087029 -0.705633,0.07261 0.09877,0.1216497 0.170171,0.267731 0.07342,0.1409994 0.113417,0.3216763 L 82.26241,12.34221 81.057981,11.863451 Q 80.737816,11.736186 80.672093,11.398159 L 80.278568,8.8053606 q -0.02775,-0.1522687 -0.104105,-0.24147 -0.07127,-0.087181 -0.244062,-0.1558639 z m 0.377755,-0.9503299 0.680985,0.2706906 q 0.325247,0.1292851 0.593359,0.1358152 0.273194,0.00855 0.486256,-0.083307 0.213062,-0.091857 0.367033,-0.2719369 0.161073,-0.1831419 0.260057,-0.4321589 0.195947,-0.4929519 -0.0039,-0.8784195 -0.197855,-0.3905497 -0.82802,-0.6410395 L 80.720454,5.1028229 Z m 10.629349,1.2404907 -0.550963,1.032507 -1.727278,-0.921705 -2.868099,5.3748266 -1.264097,-0.674544 2.868099,-5.3748265 -1.727278,-0.9217051 0.550963,-1.032507 z m -1.493311,7.6976956 -1.214377,-0.780835 3.927837,-6.1086828 1.214377,0.7808348 z m 4.302153,1.694796 q 0.300173,0.237574 0.609795,0.322218 0.31391,0.08804 0.615118,0.03351 0.305496,-0.05113 0.594895,-0.240546 0.289399,-0.189413 0.54055,-0.506738 l 2.687988,-3.39624 1.123504,0.889209 -2.687989,3.396239 q -0.407271,0.514582 -0.917297,0.815325 -0.505737,0.304137 -1.065636,0.3771 -0.556506,0.06867 -1.13734,-0.105084 -0.580833,-0.173759 -1.134009,-0.611575 -0.553175,-0.437817 -0.859995,-0.9666 -0.302532,-0.52539 -0.363524,-1.08279 -0.0576,-0.561688 0.117949,-1.127157 0.179835,-0.562076 0.587106,-1.076658 l 2.687989,-3.396239 1.127792,0.892602 -2.687989,3.39624 q -0.25115,0.317325 -0.369022,0.642495 -0.117872,0.325169 -0.101754,0.630848 0.02041,0.309073 0.173907,0.590973 0.15779,0.285294 0.457962,0.522869 z m 7.605819,4.417807 q -0.12964,0.369417 -0.31263,0.72084 0.19309,-0.07222 0.37809,-0.137072 0.18904,-0.06854 0.377,-0.113896 l 4.40941,-0.988877 q 0.0901,-0.02286 0.15192,-0.01995 0.0695,0.0033 0.11847,0.03267 0.053,0.02572 0.10489,0.07461 0.0519,0.0489 0.11447,0.11765 l 0.72886,0.800783 -5.37091,4.888482 -0.85033,-0.934247 3.36086,-3.058982 q 0.1092,-0.09939 0.23826,-0.209459 0.13678,-0.109706 0.28129,-0.219048 l -4.54329,1.036779 q -0.34869,0.08813 -0.569555,-0.154533 l -0.1362,-0.149642 q -0.224546,-0.246705 -0.104087,-0.585584 l 1.456312,-4.460897 q -0.12279,0.141334 -0.24889,0.270898 -0.12205,0.125884 -0.2353,0.228954 l -3.360858,3.058983 -0.854012,-0.938291 5.37091,-4.888482 0.73253,0.804827 q 0.0626,0.06875 0.10271,0.120967 0.0438,0.05626 0.0644,0.111426 0.0243,0.05921 0.0214,0.121016 7.8e-4,0.06585 -0.0304,0.153419 l -1.39533,4.316657 z"
     id="text30701"
     style="font-weight:bold;font-size:11.2px;line-height:125%;font-family:Carlito;-inkscape-font-specification:'Carlito Bold';text-align:center;letter-spacing:0px;word-spacing:0px;text-anchor:middle"
     aria-label="· WORLD WIDE WEB CONSORTIUM · WORLD WIDE WEB CONSORTIUM" /></svg>
