<?xml version="1.0" encoding="UTF-8" standalone="no"?>
<svg
   id="Layer_1"
   width="120"
   height="120"
   version="1.1"
   viewBox="0 0 120 120"
   xmlns="http://www.w3.org/2000/svg"
   xmlns:svg="http://www.w3.org/2000/svg">
  <defs
     id="defs1">
    <style>
      @media (prefers-color-scheme: dark) { path, rect, polygon {fill: #FFF} }
    </style>
  </defs>
  <g
     id="g34"
     fill="#002a56"
     transform="matrix(1.2409176,0,0,1.2409176,-2.4241077,-0.92147477)">
    <path
       d="m 92.15142,40.01638 3.79441,0.41171 c 0.04889,0.0045 0.10379,0.009 0.16321,0.01505 0.06017,0.006 0.12259,0.0098 0.18728,0.01129 -0.05942,0.02484 -0.11658,0.05043 -0.17073,0.07677 -0.05415,0.02484 -0.10304,0.05043 -0.14591,0.07602 l -3.38752,1.74846 0.18352,0.96794 5.70102,0.58182 -0.1587,-0.83773 c -0.01579,-0.08731 -0.0549,-0.15806 -0.11357,-0.21225 -0.06017,-0.05495 -0.12259,-0.0858 -0.18878,-0.09333 l -3.27169,-0.20699 c -0.08273,-0.0068 -0.17223,-0.01129 -0.26775,-0.0143 -0.09627,-0.003 -0.19781,-0.0045 -0.30461,-0.0038 0.09928,-0.0414 0.19329,-0.08279 0.28279,-0.12344 0.08875,-0.03989 0.16998,-0.08129 0.24368,-0.12344 l 2.93926,-1.5332 c 0.06844,-0.03763 0.11883,-0.09032 0.14892,-0.15656 0.03159,-0.06699 0.03836,-0.14752 0.02031,-0.24161 L 97.74714,40.04572 C 97.73135,39.95841 97.69299,39.88916 97.63432,39.83497 97.5749,39.78153 97.51248,39.74992 97.44554,39.74013 l -3.292,-0.35526 c -0.08649,-0.01505 -0.18051,-0.02333 -0.28054,-0.0271 -0.10003,-0.0038 -0.20533,-0.006 -0.31514,-0.0075 0.20683,-0.08129 0.38659,-0.16107 0.54002,-0.23784 l 2.96784,-1.38567 c 0.06619,-0.03462 0.11507,-0.08731 0.14666,-0.15656 0.03234,-0.06925 0.03911,-0.15129 0.02106,-0.24612 l -0.16847,-0.89568 -5.09557,2.62382 0.18201,0.96417 z"
       id="path1" />
    <path
       d="m 97.8028,45.92788 c -0.25572,-0.22806 -0.55656,-0.40193 -0.90254,-0.5201 -0.34748,-0.11968 -0.72052,-0.17387 -1.1199,-0.16333 -0.40313,0.01054 -0.77392,0.0843 -1.11388,0.22204 -0.33996,0.13774 -0.63178,0.32741 -0.87621,0.56827 -0.24443,0.24086 -0.43322,0.52762 -0.56484,0.85955 -0.13162,0.33268 -0.19254,0.69773 -0.18201,1.09815 0.01053,0.40042 0.09025,0.76321 0.23992,1.08761 0.14892,0.32365 0.35274,0.59988 0.60996,0.82568 0.25722,0.22655 0.55882,0.39892 0.90479,0.51709 0.34672,0.11666 0.72128,0.17086 1.12366,0.16032 0.40012,-0.01129 0.76941,-0.0843 1.10786,-0.22053 0.33845,-0.13548 0.63027,-0.32365 0.87471,-0.563 0.24444,-0.24086 0.43322,-0.52612 0.56709,-0.8588 0.13237,-0.33118 0.19405,-0.69773 0.18352,-1.0974 -0.01128,-0.39967 -0.09101,-0.76246 -0.24218,-1.08686 -0.15042,-0.3244 -0.35425,-0.60139 -0.60996,-0.82869 z m -0.18276,2.59522 c -0.08198,0.19419 -0.20232,0.35978 -0.36101,0.49827 -0.15945,0.13849 -0.35425,0.24612 -0.58439,0.32365 -0.22939,0.07828 -0.48963,0.12118 -0.7822,0.12871 -0.29483,0.0083 -0.55957,-0.02032 -0.79498,-0.0858 -0.23391,-0.06624 -0.43472,-0.16333 -0.59943,-0.29279 -0.16471,-0.12946 -0.29257,-0.28903 -0.38283,-0.4787 -0.09101,-0.18967 -0.13914,-0.40569 -0.14591,-0.6488 -0.006,-0.24311 0.03084,-0.46214 0.11131,-0.65708 0.08047,-0.19494 0.19931,-0.36204 0.35725,-0.50053 0.15719,-0.13774 0.35199,-0.24537 0.58289,-0.32365 0.2309,-0.07753 0.49414,-0.12043 0.78897,-0.12795 0.29257,-0.0083 0.55506,0.02107 0.78821,0.0858 0.23391,0.06548 0.43397,0.16333 0.60019,0.29354 0.16622,0.12871 0.29483,0.28903 0.38659,0.47945 0.09176,0.19118 0.1414,0.40795 0.14817,0.65106 0.006,0.24236 -0.03159,0.46064 -0.11282,0.65483 z"
       id="path2" />
    <path
       d="m 92.97198,52.69968 2.10216,0.21903 -0.03761,0.3658 c -0.0098,0.09408 -0.03159,0.16408 -0.06393,0.21301 -0.03309,0.04742 -0.08424,0.08806 -0.15418,0.12269 l -1.80658,0.81891 c -0.15569,0.07828 -0.24143,0.20397 -0.25948,0.37709 l -0.10154,0.97546 2.1187,-1.01536 c 0.08198,-0.04441 0.15268,-0.09333 0.2121,-0.14828 0.06092,-0.05495 0.11282,-0.11441 0.1587,-0.17989 0.04437,0.18516 0.11056,0.35225 0.20006,0.49978 0.088,0.14828 0.19405,0.27623 0.31739,0.38462 0.12334,0.10839 0.26249,0.1957 0.41742,0.26268 0.15569,0.06548 0.32266,0.10763 0.50016,0.12645 0.23391,0.02409 0.45127,0.0075 0.65434,-0.04817 0.20307,-0.0572 0.38207,-0.16107 0.54002,-0.31236 0.15644,-0.15204 0.28881,-0.35451 0.39336,-0.60665 0.10454,-0.2529 0.17675,-0.56149 0.2151,-0.92729 l 0.16998,-1.64685 -5.4641,-0.56676 -0.11206,1.08611 z m 2.87157,0.29881 1.7607,0.1829 -0.05791,0.55999 c -0.03535,0.34096 -0.13312,0.58483 -0.29408,0.73536 -0.16095,0.14978 -0.37455,0.21 -0.6408,0.1829 -0.13388,-0.01355 -0.25647,-0.04667 -0.36628,-0.0986 -0.10981,-0.05118 -0.20232,-0.12269 -0.27603,-0.21376 -0.0722,-0.09032 -0.12636,-0.20322 -0.15945,-0.33494 -0.0346,-0.13247 -0.04137,-0.28602 -0.02332,-0.46289 l 0.05716,-0.55096 z"
       id="path3" />
    <polygon
       points="93.11864,57.86678 97.61778,58.82042 97.84417,57.75539 92.47032,56.61584 91.84907,59.5475 92.72378,59.73341 "
       id="polygon3" />
    <path
       d="m 91.00219,62.36627 c -0.12636,0.3801 -0.1775,0.74665 -0.15193,1.10116 0.02482,0.35451 0.11583,0.67966 0.27227,0.97848 0.15719,0.29731 0.37606,0.55999 0.65735,0.78654 0.27979,0.22731 0.61147,0.40343 0.99354,0.53139 0.37982,0.1257 0.7491,0.18139 1.10786,0.16709 0.36026,-0.0143 0.69044,-0.09408 0.99429,-0.2386 0.30385,-0.14527 0.57161,-0.35225 0.80401,-0.62096 0.23165,-0.26946 0.4099,-0.59386 0.5355,-0.97321 l 0.63102,-1.90201 -5.21365,-1.7319 -0.63027,1.90201 z m 0.82056,0.27246 0.2858,-0.86482 3.5763,1.18772 -0.2858,0.86482 c -0.07672,0.23032 -0.18652,0.42451 -0.32943,0.57956 -0.1429,0.1558 -0.31363,0.27172 -0.50993,0.34774 -0.19705,0.07527 -0.41592,0.1114 -0.6581,0.10613 -0.24293,-0.0045 -0.50316,-0.05344 -0.77994,-0.14602 -0.28054,-0.09183 -0.51896,-0.21 -0.71827,-0.35075 -0.19856,-0.14226 -0.35425,-0.30182 -0.46631,-0.48021 -0.11206,-0.17839 -0.17825,-0.37257 -0.19931,-0.58332 -0.02031,-0.21 0.0075,-0.43053 0.08499,-0.66085 z"
       id="path4" />
    <path
       d="m 87.81925,69.74096 2.58877,2.80672 c 0.03385,0.03613 0.0707,0.07527 0.11206,0.11968 0.04212,0.04366 0.08649,0.08731 0.13463,0.13097 -0.06243,-0.01957 -0.12184,-0.03839 -0.179,-0.05419 C 90.4178,72.72758 90.3644,72.71479 90.31626,72.705 l -3.7019,-0.91073 -0.4979,0.84977 3.91325,4.18863 0.43096,-0.73461 c 0.04513,-0.07677 0.06318,-0.15505 0.05415,-0.23559 -0.009,-0.08054 -0.0361,-0.14451 -0.08123,-0.19268 l -2.32854,-2.3092 c -0.05866,-0.05946 -0.12259,-0.12193 -0.19254,-0.18817 -0.0707,-0.06548 -0.14666,-0.13172 -0.22714,-0.20172 0.10154,0.03312 0.19931,0.06473 0.29332,0.09258 0.09401,0.02785 0.18276,0.04968 0.2655,0.06699 l 3.22205,0.77902 c 0.07672,0.01581 0.14817,0.009 0.2151,-0.02032 0.06693,-0.02935 0.12485,-0.0858 0.17374,-0.16935 l 0.16095,-0.27473 c 0.04513,-0.07602 0.06243,-0.15355 0.05265,-0.23258 -0.009,-0.07978 -0.03535,-0.14527 -0.07972,-0.1957 l -2.24581,-2.43339 c -0.05716,-0.06849 -0.12109,-0.13623 -0.19405,-0.20473 -0.07371,-0.06925 -0.15117,-0.14 -0.2324,-0.21376 0.20834,0.07451 0.39636,0.13398 0.56258,0.17688 l 3.14684,0.90772 c 0.07296,0.01731 0.14365,0.0098 0.21285,-0.02107 0.06995,-0.03161 0.12936,-0.08882 0.17825,-0.17161 l 0.46029,-0.78579 -5.56338,-1.37589 -0.49489,0.846 z"
       id="path5" />
    <rect
       x="85.925217"
       y="74.048714"
       width="1.0921"
       height="5.4948802"
       transform="rotate(-52.57919,86.471283,76.796149)"
       id="rect5" />
    <path
       d="m 81.7512,78.15133 c -0.27227,0.29354 -0.47007,0.6059 -0.59567,0.93858 -0.12485,0.33268 -0.17675,0.66762 -0.15794,1.00331 0.01955,0.33645 0.10906,0.66612 0.27001,0.98901 0.16095,0.32289 0.38884,0.62171 0.68367,0.89643 0.29257,0.27322 0.60545,0.47644 0.93864,0.61343 0.33243,0.13623 0.66712,0.20172 1.00332,0.19645 0.33695,-0.0053 0.66637,-0.08204 0.98828,-0.23107 0.32266,-0.14828 0.61974,-0.36881 0.89276,-0.6616 l 1.36358,-1.46696 -4.0223,-3.7438 -1.36433,1.46621 z m 3.39203,3.15822 c -0.16471,0.17763 -0.34522,0.30784 -0.54002,0.38988 -0.19555,0.08279 -0.39787,0.11666 -0.60771,0.10462 -0.21059,-0.0128 -0.42494,-0.07301 -0.64306,-0.17763 -0.21887,-0.10613 -0.43547,-0.25741 -0.64907,-0.45763 -0.21586,-0.20096 -0.38508,-0.40644 -0.50692,-0.61794 -0.12184,-0.2115 -0.1963,-0.42225 -0.22488,-0.62999 -0.02783,-0.21 -0.0068,-0.41397 0.06167,-0.61343 0.06844,-0.19946 0.18577,-0.38913 0.35124,-0.56601 l 0.61974,-0.66687 2.75875,2.56812 -0.61974,0.66687 z"
       id="path6" />
    <polygon
       points="79.62873,86.44655 80.1883,87.10664 82.74323,84.93744 79.18875,80.7458 76.63382,82.915 77.18963,83.57736 78.91573,82.1119 79.87392,83.24242 78.5329,84.38046 79.07142,85.01421 80.41168,83.87617 81.35107,84.98486 "
       id="polygon6" />
    <path
       d="m 72.07601,85.99494 0.79574,3.73552 c 0.0098,0.04817 0.02256,0.10086 0.0361,0.15957 0.01279,0.05871 0.02933,0.11968 0.04814,0.18215 -0.04287,-0.04892 -0.08499,-0.09484 -0.12636,-0.13924 -0.04061,-0.0429 -0.08048,-0.08129 -0.11733,-0.11365 l -2.71814,-2.67425 -0.86192,0.47644 1.2282,5.60064 0.74685,-0.41247 c 0.07672,-0.0429 0.13237,-0.10011 0.16546,-0.17387 0.03309,-0.07451 0.04287,-0.14301 0.02933,-0.20849 l -0.82507,-3.17478 c -0.01955,-0.08129 -0.04287,-0.16709 -0.0707,-0.25967 -0.02708,-0.09183 -0.05716,-0.18817 -0.09101,-0.28978 0.06919,0.08129 0.13764,0.15806 0.20457,0.22957 0.06619,0.0715 0.13162,0.13699 0.19405,0.19344 l 2.37367,2.31522 c 0.05791,0.05344 0.12259,0.0843 0.1948,0.09258 0.07371,0.009 0.15193,-0.0098 0.23616,-0.05645 l 0.27903,-0.15355 c 0.07672,-0.0429 0.13162,-0.10086 0.16321,-0.17387 0.03309,-0.07301 0.04362,-0.14301 0.03234,-0.20849 l -0.69194,-3.24026 c -0.01354,-0.08731 -0.03385,-0.17914 -0.06243,-0.27473 -0.02783,-0.09709 -0.05866,-0.19795 -0.09025,-0.30257 0.1414,0.17086 0.27227,0.31688 0.39411,0.43956 l 2.2428,2.38748 c 0.05415,0.05193 0.11883,0.08204 0.19405,0.09107 0.07521,0.0083 0.15644,-0.01054 0.23992,-0.0572 l 0.79724,-0.44031 -4.08172,-4.02379 -0.85891,0.47418 z"
       id="path7" />
    <polygon
       points="65.42131,94.11027 65.72516,94.92015 68.86072,93.7377 66.92403,88.59317 63.78847,89.77562 64.08932,90.58625 66.20652,89.78842 66.72848,91.17484 65.08436,91.79505 65.37694,92.57331 67.02256,91.95311 67.534,93.31244 "
       id="polygon7" />
    <path
       d="m 60.76197,90.61862 c -0.3016,0.07753 -0.56032,0.18591 -0.77317,0.3244 -0.2136,0.13924 -0.38207,0.29956 -0.50542,0.48021 -0.12259,0.18139 -0.20081,0.37784 -0.23391,0.59235 -0.0346,0.21376 -0.02181,0.43429 0.0361,0.66085 0.15794,0.61794 0.60244,0.92203 1.33124,0.91149 -0.1429,0.09634 -0.26098,0.20021 -0.35425,0.31161 -0.09251,0.10989 -0.1617,0.2243 -0.20909,0.34096 -0.04663,0.11817 -0.07296,0.2386 -0.07897,0.36204 -0.0045,0.12419 0.009,0.24688 0.03986,0.37032 0.05566,0.21677 0.1414,0.40419 0.25722,0.56074 0.11507,0.15656 0.2655,0.27698 0.45052,0.36053 0.18502,0.08355 0.40765,0.12795 0.66788,0.13247 0.26023,0.0045 0.56108,-0.03763 0.90329,-0.12494 l 1.80733,-0.46365 -1.36283,-5.32516 -1.9758,0.5058 z m -0.10831,2.28888 c -0.08424,-0.04366 -0.15193,-0.10613 -0.20608,-0.18666 -0.05265,-0.08054 -0.09326,-0.17537 -0.12184,-0.28451 -0.02632,-0.10236 -0.03836,-0.20397 -0.03535,-0.30559 0.003,-0.10236 0.02708,-0.1972 0.07371,-0.28602 0.04738,-0.08882 0.12184,-0.16935 0.22263,-0.2401 0.10078,-0.0715 0.23616,-0.12946 0.40388,-0.17236 l 0.90178,-0.23182 0.38358,1.49631 -0.89727,0.23032 c -0.16095,0.04064 -0.30085,0.05871 -0.42043,0.05419 -0.11883,-0.0053 -0.22037,-0.03011 -0.30461,-0.07376 z m 1.43278,2.1835 c -0.29934,0.07677 -0.53325,0.07753 -0.70022,0.0023 -0.16697,-0.07527 -0.28656,-0.24913 -0.35575,-0.5216 -0.06769,-0.26268 -0.03535,-0.47042 0.09627,-0.62547 0.13087,-0.1543 0.34447,-0.27021 0.64155,-0.34623 l 0.6927,-0.17763 0.37831,1.47599 -0.75287,0.19268 z"
       id="path8" />
    <path
       d="m 55.85292,93.23867 c -0.13989,-0.33268 -0.32416,-0.61493 -0.55205,-0.84676 -0.22864,-0.23107 -0.49639,-0.40419 -0.80476,-0.51784 -0.30837,-0.11441 -0.64832,-0.15656 -1.01911,-0.1257 -0.4099,0.03462 -0.75738,0.13699 -1.04318,0.30784 -0.2858,0.1701 -0.51745,0.40343 -0.69194,0.69773 l 0.47233,0.42978 c 0.04437,0.04064 0.09552,0.05796 0.15343,0.05344 0.03084,-0.0023 0.05942,-0.01204 0.08725,-0.03011 0.02708,-0.01731 0.05415,-0.03763 0.07972,-0.06247 0.06243,-0.07978 0.12636,-0.14752 0.19104,-0.20247 0.06468,-0.0557 0.13388,-0.10236 0.21059,-0.14075 0.07521,-0.03763 0.15794,-0.06699 0.24745,-0.08731 0.0895,-0.01957 0.19028,-0.03462 0.3031,-0.04366 0.18953,-0.01656 0.37004,0.01129 0.54227,0.08129 0.17223,0.07 0.32642,0.18064 0.46105,0.33118 0.13613,0.15053 0.24895,0.33946 0.34071,0.56752 0.09101,0.22731 0.14892,0.49225 0.17374,0.79181 0.02482,0.29655 0.01504,0.56451 -0.03084,0.80235 -0.04437,0.23784 -0.11959,0.44182 -0.22488,0.61268 -0.10529,0.17086 -0.23616,0.30483 -0.39411,0.40268 -0.15719,0.09709 -0.33695,0.1543 -0.53701,0.17161 -0.18502,0.01505 -0.33695,0.006 -0.45954,-0.0286 -0.12184,-0.03387 -0.22338,-0.07376 -0.30686,-0.11968 -0.08198,-0.04516 -0.15268,-0.08806 -0.20984,-0.12795 -0.05716,-0.03914 -0.11432,-0.0572 -0.17223,-0.05193 -0.05791,0.0045 -0.10154,0.02107 -0.13162,0.04817 -0.02858,0.02785 -0.0549,0.0572 -0.07672,0.08957 l -0.3204,0.53816 c 0.20683,0.19871 0.45804,0.3515 0.75211,0.45838 0.29407,0.10688 0.62425,0.14527 0.99279,0.11441 0.36252,-0.03086 0.68969,-0.1272 0.98076,-0.28978 0.29032,-0.16258 0.534,-0.37709 0.73105,-0.64278 0.1963,-0.26494 0.33996,-0.57429 0.43096,-0.92729 0.09101,-0.35225 0.11959,-0.7331 0.08499,-1.14256 -0.03309,-0.4072 -0.12034,-0.77676 -0.26023,-1.11095 z"
       id="path9" />
    <path
       d="m 50.39634,92.70954 c -0.22338,-0.26118 -0.49639,-0.46816 -0.8183,-0.62246 -0.32115,-0.15505 -0.68217,-0.24086 -1.08154,-0.25741 -0.40012,-0.01731 -0.7664,0.03763 -1.10034,0.16484 -0.33319,0.12645 -0.62275,0.31085 -0.86643,0.55096 -0.24293,0.24161 -0.43547,0.53139 -0.57687,0.86934 -0.14065,0.3372 -0.21962,0.70827 -0.23692,1.11019 -0.01655,0.39967 0.03084,0.77375 0.14365,1.12073 0.11206,0.34698 0.27979,0.65106 0.50166,0.91149 0.22263,0.26118 0.49414,0.46967 0.81604,0.62622 0.3219,0.15505 0.68217,0.24161 1.08229,0.25892 0.39937,0.01656 0.76565,-0.03914 1.09959,-0.16709 0.33394,-0.12871 0.6235,-0.31236 0.86869,-0.55171 0.24444,-0.2401 0.43773,-0.52838 0.58063,-0.86633 0.1429,-0.3387 0.22263,-0.70751 0.23917,-1.10643 0.01655,-0.40268 -0.03159,-0.77826 -0.14516,-1.1275 -0.11357,-0.34849 -0.28204,-0.65257 -0.50617,-0.91375 z m -0.60094,2.77511 c -0.08123,0.22881 -0.19254,0.4215 -0.33243,0.57805 -0.14065,0.15731 -0.30987,0.27548 -0.50617,0.35376 -0.1963,0.07903 -0.41592,0.11365 -0.6581,0.10312 -0.24293,-0.01054 -0.45804,-0.06322 -0.64531,-0.15731 -0.18878,-0.09484 -0.34597,-0.22655 -0.47233,-0.39515 -0.12711,-0.1686 -0.22112,-0.37032 -0.28355,-0.60515 -0.06167,-0.23408 -0.08649,-0.49752 -0.07446,-0.78955 0.01279,-0.2958 0.06017,-0.55848 0.1414,-0.78805 0.08123,-0.23032 0.19254,-0.42225 0.33319,-0.57805 0.14065,-0.1558 0.30761,-0.27247 0.50316,-0.34999 0.19555,-0.07677 0.41366,-0.11064 0.65584,-0.10086 0.24293,0.01054 0.45879,0.06247 0.64757,0.15656 0.18953,0.09258 0.34823,0.22354 0.47458,0.39064 0.12711,0.16709 0.22112,0.36806 0.28279,0.60364 0.06167,0.23634 0.08649,0.50203 0.07446,0.79708 -0.01279,0.29279 -0.05942,0.55322 -0.14065,0.78128 z"
       id="path10" />
    <path
       d="m 43.33776,94.67101 c -0.02708,0.14376 -0.04738,0.30182 -0.06167,0.47343 l -2.01416,-3.97713 c -0.04212,-0.07527 -0.088,-0.13172 -0.13764,-0.17086 -0.05114,-0.03839 -0.11808,-0.06548 -0.20232,-0.08054 l -0.54904,-0.10161 -0.99204,5.40796 0.94089,0.17236 0.58063,-3.168 c 0.02858,-0.16032 0.0519,-0.33118 0.06844,-0.51332 l 2.01717,3.9982 c 0.02407,0.04064 0.04513,0.07451 0.06393,0.10011 0.0188,0.02634 0.04061,0.04742 0.06393,0.06398 0.02332,0.01731 0.0519,0.03086 0.08348,0.04064 0.03158,0.0098 0.06995,0.01957 0.11583,0.02785 l 0.56183,0.10312 0.99129,-5.40796 -0.94315,-0.17311 z"
       id="path11" />
    <path
       d="m 38.65134,90.46056 c -0.1256,-0.10688 -0.26249,-0.19946 -0.40915,-0.2815 -0.14591,-0.08129 -0.29859,-0.14677 -0.45653,-0.19494 -0.27979,-0.08656 -0.54152,-0.11892 -0.78671,-0.09709 -0.24519,0.02183 -0.46631,0.08656 -0.66487,0.19419 -0.19705,0.10763 -0.36703,0.2544 -0.50993,0.43806 -0.1414,0.18441 -0.2497,0.39515 -0.32341,0.63225 -0.06769,0.21903 -0.09326,0.41397 -0.07596,0.58784 0.0173,0.17311 0.06318,0.32892 0.13688,0.46666 0.07446,0.13849 0.16847,0.26419 0.28204,0.37558 0.11432,0.11215 0.23466,0.21602 0.36101,0.31161 0.1256,0.09559 0.2497,0.18666 0.37154,0.27397 0.12184,0.08656 0.22789,0.17462 0.31664,0.26419 0.0895,0.08957 0.15418,0.18365 0.1948,0.2815 0.03986,0.0986 0.04212,0.20623 0.0053,0.3244 -0.05791,0.18742 -0.16471,0.32064 -0.32115,0.39967 -0.15569,0.07903 -0.35199,0.08129 -0.5889,0.0075 -0.13463,-0.0414 -0.24745,-0.09709 -0.33845,-0.16559 -0.091,-0.0685 -0.16923,-0.13699 -0.23391,-0.20473 -0.06393,-0.06699 -0.11883,-0.12871 -0.16546,-0.1829 -0.04588,-0.0557 -0.09477,-0.09107 -0.14441,-0.10613 -0.0534,-0.01656 -0.10078,-0.01957 -0.1429,-0.0075 -0.04287,0.01129 -0.08499,0.03914 -0.12786,0.08355 l -0.41667,0.40795 c 0.12711,0.23333 0.30385,0.43881 0.53024,0.61644 0.22639,0.17688 0.48963,0.31161 0.79047,0.40494 0.26625,0.08279 0.51595,0.1129 0.7491,0.09107 0.23316,-0.02107 0.44299,-0.08129 0.62952,-0.17914 0.18577,-0.0986 0.34522,-0.22731 0.47458,-0.38838 0.13087,-0.16032 0.22563,-0.33645 0.2858,-0.52913 0.07521,-0.24236 0.1053,-0.45537 0.09176,-0.63827 -0.01354,-0.18365 -0.05641,-0.34698 -0.12786,-0.48999 -0.0707,-0.14376 -0.16396,-0.27021 -0.27828,-0.37935 -0.11507,-0.10914 -0.23541,-0.21 -0.36177,-0.30107 -0.1256,-0.09107 -0.25121,-0.17763 -0.3738,-0.26118 -0.12335,-0.08279 -0.22864,-0.16935 -0.31664,-0.25817 -0.08725,-0.08882 -0.15042,-0.18666 -0.18878,-0.29053 -0.03911,-0.10462 -0.03685,-0.2243 0.0045,-0.35827 0.07296,-0.23709 0.1948,-0.39666 0.36402,-0.47644 0.16998,-0.08054 0.3723,-0.0843 0.60921,-0.01129 0.16396,0.05193 0.29784,0.11968 0.40088,0.20473 0.10304,0.08656 0.19028,0.17161 0.26098,0.25892 0.07145,0.08731 0.13388,0.16634 0.18577,0.23483 0.0519,0.07 0.10906,0.11516 0.17223,0.13473 0.04814,0.0143 0.09552,0.01656 0.14441,0.0053 0.04738,-0.01129 0.0895,-0.03312 0.1256,-0.06548 l 0.46105,-0.39816 c -0.06471,-0.13551 -0.1482,-0.26572 -0.25124,-0.39067 -0.10304,-0.12344 -0.21736,-0.2386 -0.34372,-0.34397 z"
       id="path12" />
    <path
       d="m 33.78291,88.77382 c -0.24068,-0.26268 -0.54528,-0.47644 -0.91006,-0.63902 -0.36478,-0.16408 -0.72579,-0.24838 -1.08304,-0.25365 -0.3565,-0.0068 -0.69345,0.05796 -1.00783,0.19193 -0.31589,0.13473 -0.60094,0.33193 -0.85741,0.59386 -0.25572,0.26193 -0.46631,0.5758 -0.63102,0.94461 -0.16321,0.36505 -0.25647,0.72934 -0.28054,1.09363 -0.02332,0.36505 0.01955,0.70902 0.13012,1.03342 0.10981,0.3244 0.28505,0.6187 0.52723,0.88289 0.24143,0.26344 0.54453,0.47719 0.90931,0.64128 0.36553,0.16333 0.72729,0.24688 1.08455,0.25139 0.35725,0.0038 0.6942,-0.06021 1.01009,-0.19268 0.31589,-0.13097 0.60244,-0.32741 0.85967,-0.58934 0.25722,-0.26118 0.46781,-0.57429 0.63102,-0.94009 0.16396,-0.3673 0.25797,-0.73386 0.28129,-1.10041 0.02332,-0.3658 -0.02106,-0.71128 -0.13237,-1.03718 -0.11131,-0.3244 -0.28881,-0.61794 -0.53099,-0.88063 z m -0.40915,1.79663 c -0.02858,0.24161 -0.10379,0.49752 -0.22488,0.76697 -0.11959,0.2672 -0.25948,0.49225 -0.41893,0.6744 -0.1602,0.18139 -0.33469,0.32064 -0.52272,0.41397 -0.18878,0.09408 -0.38884,0.1415 -0.60094,0.1415 -0.21134,7.5e-4 -0.42795,-0.04892 -0.64907,-0.14752 -0.22187,-0.09935 -0.40238,-0.22731 -0.54227,-0.38537 -0.13914,-0.15806 -0.23616,-0.3387 -0.29182,-0.54192 -0.05566,-0.20322 -0.06919,-0.42526 -0.04061,-0.66612 0.03008,-0.24086 0.10379,-0.49526 0.22338,-0.76171 0.12034,-0.26946 0.26098,-0.49676 0.42194,-0.67966 0.1602,-0.18365 0.33469,-0.32139 0.52272,-0.41472 0.18803,-0.09258 0.38734,-0.13924 0.59718,-0.13849 0.20909,0 0.4257,0.04968 0.64682,0.14903 0.22187,0.09935 0.40238,0.22731 0.54378,0.38462 0.14215,0.15656 0.24068,0.33645 0.29633,0.53816 0.05641,0.20247 0.06919,0.42451 0.03911,0.66687 z"
       id="path13" />
    <path
       d="m 28.66177,86.03634 -1.10335,1.80491 -0.31363,-0.19193 C 27.16431,87.6004 27.11016,87.55072 27.08008,87.50029 27.0515,87.44986 27.03646,87.38588 27.03571,87.30836 l 0.03986,-1.9848 c -0.0038,-0.17387 -0.07972,-0.30634 -0.22789,-0.39741 l -0.83635,-0.51107 0.0038,2.3506 c 0.0038,0.09258 0.01805,0.17838 0.04212,0.25666 0.02332,0.07677 0.05415,0.14978 0.09326,0.21903 -0.18652,-0.03989 -0.36478,-0.05118 -0.53626,-0.03462 -0.17223,0.01656 -0.33319,0.05645 -0.48436,0.12043 -0.15042,0.06548 -0.28956,0.15355 -0.41592,0.26494 -0.12636,0.11215 -0.23616,0.24462 -0.33018,0.39741 -0.12259,0.19946 -0.20081,0.40419 -0.23767,0.61117 -0.03685,0.20774 -0.02031,0.41472 0.04889,0.62246 0.06919,0.20623 0.19405,0.41171 0.37756,0.61644 0.18201,0.20397 0.43021,0.40193 0.74309,0.59311 l 1.41021,0.86407 2.86706,-4.68916 z m -2.43083,3.97638 -0.47985,-0.29279 c -0.29107,-0.17914 -0.47007,-0.37333 -0.53626,-0.58332 -0.06543,-0.21 -0.02858,-0.42978 0.11056,-0.65784 0.07145,-0.11516 0.15343,-0.2115 0.24669,-0.28752 0.09401,-0.07753 0.19781,-0.12871 0.31213,-0.15731 0.11282,-0.0271 0.23767,-0.0271 0.37154,-7.5e-4 0.13312,0.02785 0.27527,0.08656 0.42645,0.17914 l 0.47308,0.28903 -0.92435,1.51137 z"
       id="path14" />
    <polygon
       points="24.53266,83.27779 23.6745,82.61394 20.85558,86.26139 19.68379,85.35517 19.14227,86.05591 22.34251,88.53296 22.88478,87.83147 21.71299,86.9245 "
       id="polygon14" />
    <rect
       x="16.78014"
       y="82.134117"
       width="5.4951801"
       height="1.09247"
       transform="rotate(-47.54068,19.527723,82.680347)"
       id="rect14" />
    <path
       d="m 18.86399,80.10829 c 0.13613,-0.26569 0.21435,-0.53967 0.2324,-0.82342 0.0188,-0.28301 -0.02482,-0.56827 -0.13087,-0.8573 -0.1068,-0.28827 -0.27828,-0.56451 -0.51595,-0.8302 -0.23692,-0.26419 -0.49263,-0.4659 -0.7664,-0.60139 -0.27302,-0.13623 -0.55205,-0.2115 -0.8356,-0.22354 -0.28355,-0.0128 -0.56409,0.03387 -0.84312,0.14075 -0.27828,0.10688 -0.54002,0.27096 -0.78671,0.4915 l -2.44061,2.18727 0.72278,0.80762 2.44061,-2.18652 c 0.15268,-0.13623 0.30761,-0.23935 0.46857,-0.3086 0.15945,-0.06925 0.31739,-0.10387 0.47308,-0.10462 0.15494,0 0.30611,0.03462 0.45352,0.10462 0.14741,0.06925 0.2858,0.17613 0.41517,0.32064 0.12786,0.14376 0.21887,0.29279 0.27227,0.44709 0.0534,0.1543 0.0707,0.3086 0.05415,0.46365 -0.01805,0.15355 -0.06995,0.30709 -0.15644,0.45838 -0.08649,0.15129 -0.20533,0.29505 -0.35801,0.43203 l -2.43986,2.18727 0.72504,0.81063 2.44136,-2.18727 c 0.24669,-0.22053 0.43773,-0.46289 0.57461,-0.72859 z"
       id="path15" />
    <path
       d="m 15.52611,74.14485 -2.88887,1.86362 c -0.06468,0.0429 -0.13312,0.09032 -0.20608,0.14301 -0.07296,0.05344 -0.14441,0.10989 -0.21736,0.17086 l 1.64262,-3.14994 c 0.08725,-0.15806 0.08574,-0.3086 -0.0053,-0.44935 l -0.08273,-0.12946 c -0.0895,-0.13924 -0.22488,-0.20096 -0.40614,-0.18591 l -3.51914,0.20774 c 0.08123,-0.04215 0.15945,-0.0858 0.23541,-0.12871 0.07446,-0.04441 0.14365,-0.0858 0.20683,-0.12645 l 2.88812,-1.86512 -0.51896,-0.80386 -4.61497,2.98059 0.44299,0.6887 c 0.02632,0.03989 0.04964,0.07376 0.07145,0.10236 0.02181,0.0286 0.04362,0.05193 0.06769,0.07 0.02256,0.01806 0.05039,0.03011 0.08273,0.03688 0.03309,0.0075 0.0722,0.009 0.11883,0.0053 l 3.41234,-0.18892 c 0.09777,-0.0068 0.19555,-0.01882 0.29408,-0.03688 0.09853,-0.01731 0.19856,-0.03688 0.30085,-0.0557 -0.12034,0.15881 -0.22789,0.32515 -0.32266,0.49902 l -1.57869,3.04908 c -0.02332,0.04064 -0.03761,0.07677 -0.04362,0.10838 -0.006,0.03161 -0.0053,0.06322 0.0015,0.09333 0.006,0.03011 0.0173,0.06021 0.03385,0.09107 0.01579,0.03086 0.03685,0.06548 0.06243,0.10462 l 0.446,0.69246 4.61647,-2.97983 -0.51971,-0.80687 z"
       id="path16" />
    <path
       d="M 8.23738,56.9997 4.455,56.48412 4.29254,56.4638 C 4.23237,56.45627 4.1707,56.451 4.10602,56.44724 4.16619,56.42391 4.22335,56.40057 4.27825,56.37574 4.33315,56.35165 4.38204,56.32757 4.42642,56.30348 L 7.86057,54.64986 7.70413,53.67665 2.02191,52.93752 2.15654,53.77976 c 0.01504,0.08731 0.05039,0.15881 0.1083,0.21526 0.05791,0.0572 0.12034,0.08957 0.18502,0.0986 l 3.26568,0.29655 c 0.08273,0.0098 0.17223,0.01656 0.267,0.02183 0.09627,0.006 0.19705,0.0098 0.30461,0.0128 C 6.18637,54.46319 6.0916,54.50157 6.00135,54.53921 5.9111,54.5776 5.82836,54.61749 5.75466,54.65663 L 2.77328,56.10854 C 2.70409,56.14467 2.65294,56.19585 2.61985,56.26058 2.58676,56.32606 2.57773,56.4066 2.59277,56.50219 l 0.05114,0.31462 c 0.01429,0.08731 0.04964,0.15806 0.10755,0.21301 0.05791,0.05495 0.11959,0.08882 0.18577,0.10086 l 3.28072,0.44558 c 0.08649,0.01656 0.17976,0.0286 0.27979,0.03462 0.10003,0.006 0.20608,0.01129 0.31438,0.01656 -0.20834,0.07527 -0.3911,0.14978 -0.54603,0.22204 L 3.2614,59.15386 C 3.19446,59.18698 3.14407,59.23741 3.11023,59.30515 3.07638,59.37364 3.06736,59.45568 3.0824,59.55052 L 3.22681,60.44996 8.39308,57.9684 8.23739,56.99971 Z"
       id="path17" />
    <path
       d="m 2.75221,50.94821 c 0.24895,0.23483 0.54528,0.41623 0.889,0.54494 0.34296,0.12946 0.71451,0.19344 1.11388,0.19344 0.40313,7.5e-4 0.77543,-0.06322 1.1199,-0.19043 C 6.21795,51.36745 6.51504,51.18681 6.767,50.95198 7.01745,50.7179 7.21376,50.43715 7.35515,50.10823 7.4958,49.78006 7.56649,49.41577 7.56725,49.01535 7.56725,48.61493 7.4973,48.25139 7.35666,47.92247 7.21677,47.5943 7.02122,47.3128 6.77076,47.07948 6.51955,46.84615 6.22322,46.66626 5.87951,46.53831 5.53655,46.41111 5.16425,46.34713 4.76112,46.34713 4.361,46.34638 3.9902,46.4096 3.64724,46.53605 c -0.34146,0.12645 -0.63779,0.30634 -0.889,0.53891 -0.25121,0.23333 -0.44826,0.51408 -0.59116,0.84299 -0.1414,0.32741 -0.21285,0.69171 -0.2136,1.09213 0,0.40042 0.06995,0.76396 0.2121,1.09288 0.1414,0.32817 0.33695,0.61042 0.58665,0.84525 z m 0.25497,-2.5892 c 0.08649,-0.19193 0.21134,-0.35451 0.3753,-0.48849 0.16246,-0.13322 0.35951,-0.23634 0.59191,-0.30784 0.2309,-0.0715 0.49263,-0.10688 0.78521,-0.10613 0.29483,0 0.55882,0.03613 0.79273,0.10838 0.2324,0.0715 0.42946,0.17537 0.59041,0.3086 0.16095,0.13398 0.28505,0.29731 0.37004,0.48924 0.08574,0.19193 0.12786,0.4087 0.12786,0.65182 0,0.24312 -0.04287,0.46139 -0.12936,0.65407 -0.08574,0.19344 -0.20909,0.35601 -0.37079,0.49074 -0.16095,0.13322 -0.35876,0.23559 -0.59191,0.30709 -0.23315,0.0715 -0.4979,0.10763 -0.79198,0.10688 -0.29182,0 -0.55431,-0.03613 -0.78596,-0.10838 C 3.73899,50.39274 3.54194,50.29037 3.37948,50.15564 3.21702,50.02166 3.09217,49.85758 3.00493,49.6649 2.91844,49.47222 2.87557,49.25319 2.87632,49.01083 c 0,-0.24311 0.04437,-0.45988 0.13087,-0.65182 z"
       id="path18" />
    <path
       d="M 7.76806,44.31038 5.67267,44.0334 5.72081,43.66835 C 5.73284,43.57577 5.75616,43.50502 5.79,43.45835 5.82384,43.41168 5.87649,43.37179 5.94719,43.33943 L 7.77633,42.5702 C 7.93277,42.49569 8.02302,42.373 8.04559,42.20064 L 8.17345,41.22819 6.02842,42.18484 C 5.94494,42.22699 5.87273,42.27441 5.81181,42.32785 5.75014,42.38054 5.69598,42.43925 5.64935,42.50247 5.60874,42.31581 5.54781,42.14871 5.46283,41.99743 5.37859,41.84765 5.27631,41.71668 5.15597,41.60453 5.03563,41.49313 4.89875,41.40131 4.74532,41.33056 4.59189,41.26056 4.42642,41.2139 4.24893,41.19056 4.01577,41.16045 3.79766,41.17024 3.59309,41.22067 3.39002,41.2726 3.2065,41.3712 3.04555,41.51798 2.8846,41.6655 2.74771,41.86421 2.63565,42.11334 2.52359,42.36323 2.44311,42.66957 2.39573,43.03311 l -0.21661,1.64233 5.44605,0.71805 0.1429,-1.0831 z M 4.90551,43.93254 3.15008,43.70147 3.22379,43.14299 c 0.04437,-0.33946 0.14967,-0.58106 0.31514,-0.72708 0.16471,-0.14527 0.37982,-0.20021 0.64531,-0.16484 0.13388,0.01731 0.25497,0.05344 0.36327,0.10838 0.10755,0.05419 0.19781,0.12871 0.26926,0.22129 0.0707,0.09258 0.12184,0.20623 0.15117,0.33946 0.03008,0.13322 0.03309,0.28752 0.01053,0.46214 z"
       id="path19" />
    <polygon
       points="7.76881,39.11844 3.29674,38.03911 3.04178,39.09737 8.38178,40.38745 9.08501,37.4731 8.21556,37.26385 "
       id="polygon19" />
    <path
       d="m 10.00259,34.70251 c 0.13613,-0.37709 0.1963,-0.74214 0.18201,-1.09665 C 10.16956,33.2506 10.08683,32.92243 9.93791,32.61986 9.78974,32.31804 9.57765,32.04933 9.30388,31.81525 9.03011,31.58117 8.70294,31.39451 8.32463,31.25677 7.94857,31.12054 7.58079,31.05505 7.22128,31.05957 6.86177,31.06484 6.52783,31.13408 6.22097,31.27107 5.9126,31.4073 5.63959,31.60676 5.40041,31.86945 5.16199,32.13213 4.97471,32.45202 4.83783,32.8276 L 4.15566,34.71154 9.31967,36.5857 Z M 9.18955,34.40671 8.87893,35.2625 5.33648,33.97769 5.6471,33.1219 c 0.08273,-0.22881 0.19781,-0.41924 0.34447,-0.57128 0.14741,-0.15129 0.32115,-0.26268 0.51971,-0.33268 0.19856,-0.07075 0.41893,-0.09935 0.66036,-0.08882 0.24293,0.01204 0.50091,0.06774 0.77618,0.16709 0.27753,0.10086 0.51369,0.2243 0.70849,0.37182 0.19405,0.14602 0.34522,0.31085 0.45277,0.49225 0.1068,0.18139 0.16847,0.37709 0.18201,0.58784 0.01504,0.21075 -0.0188,0.43128 -0.10154,0.65859 z"
       id="path20" />
    <path
       d="m 13.38484,27.41813 -2.51206,-2.87672 c -0.03309,-0.03613 -0.06919,-0.07677 -0.10981,-0.12193 -0.03986,-0.04516 -0.08348,-0.08957 -0.13012,-0.13473 0.06167,0.02183 0.12034,0.0414 0.1775,0.05871 0.05791,0.01882 0.10981,0.03312 0.15794,0.04366 l 3.67558,1.01159 0.52121,-0.83547 -3.79817,-4.294 -0.45052,0.72332 c -0.04738,0.07451 -0.06694,0.15204 -0.06017,0.23258 0.0068,0.08054 0.03234,0.14677 0.07596,0.1957 l 2.26461,2.37167 c 0.05641,0.06172 0.11883,0.1257 0.18728,0.19268 0.06919,0.06699 0.1429,0.13699 0.22112,0.20849 -0.10003,-0.03688 -0.19705,-0.07075 -0.29032,-0.10011 -0.09326,-0.03161 -0.18126,-0.0557 -0.26324,-0.07527 L 9.85139,23.15273 C 9.77543,23.13391 9.70322,23.13918 9.63629,23.16628 9.56785,23.19413 9.50843,23.24983 9.45804,23.33036 l -0.16847,0.27096 c -0.04738,0.07527 -0.06694,0.15204 -0.06017,0.23182 0.00752,0.07903 0.03234,0.14527 0.07521,0.1972 l 2.17962,2.49361 c 0.05415,0.06925 0.11658,0.14075 0.18878,0.21075 0.07145,0.07 0.14591,0.14301 0.22639,0.21903 -0.20758,-0.07978 -0.3926,-0.14451 -0.55807,-0.19193 L 8.22006,25.76902 c -0.0722,-0.01957 -0.14365,-0.0143 -0.21435,0.0143 -0.06995,0.03011 -0.13087,0.0858 -0.18201,0.16785 l -0.48135,0.773 5.52352,1.52642 0.51896,-0.83246 z"
       id="path21" />
    <polygon
       points="17.41316,21.69029 13.14341,18.2325 12.45673,19.08227 16.72648,22.54081 "
       id="polygon21" />
    <path
       d="m 19.68454,19.17184 c 0.27979,-0.28602 0.48737,-0.59235 0.62049,-0.92203 0.13388,-0.32892 0.1963,-0.6616 0.18652,-0.99805 -0.0098,-0.33645 -0.09101,-0.66837 -0.24293,-0.99654 -0.15193,-0.32666 -0.3723,-0.63149 -0.65885,-0.9145 -0.28505,-0.27999 -0.59267,-0.493 -0.92134,-0.63902 -0.32867,-0.14527 -0.66186,-0.21978 -0.9973,-0.22354 -0.33619,-0.0045 -0.66788,0.06322 -0.99429,0.20247 -0.32717,0.14 -0.63027,0.35225 -0.91006,0.63827 l -1.40344,1.42857 3.91701,3.85294 1.4042,-1.42857 z M 16.38051,15.9218 c 0.16998,-0.17311 0.35349,-0.29806 0.55055,-0.37558 0.19705,-0.07602 0.40088,-0.10462 0.61072,-0.08656 0.20984,0.01882 0.42194,0.08355 0.63779,0.19494 0.21585,0.11139 0.42795,0.26946 0.63554,0.47494 0.21134,0.20623 0.3738,0.41698 0.49038,0.63149 0.11507,0.21526 0.18502,0.42752 0.20683,0.63676 0.02256,0.20924 -0.0038,0.41322 -0.07822,0.61192 -0.07446,0.1972 -0.19705,0.38236 -0.36628,0.55547 l -0.63779,0.65031 -2.68805,-2.64414 0.63854,-0.64956 z"
       id="path22" />
    <polygon
       points="22.02738,10.94211 21.48661,10.26771 18.87301,12.36617 22.31017,16.65415 24.92452,14.55569 24.38675,13.87829 22.62079,15.29557 21.69494,14.13947 23.06529,13.03831 22.54558,12.3895 21.17448,13.48991 20.26593,12.35714 "
       id="polygon22" />
    <path
       d="M 29.55904,11.60672 28.86634,7.85088 C 28.85807,7.80271 28.84679,7.75002 28.83475,7.69056 28.82271,7.6311 28.80843,7.57013 28.79188,7.50691 c 0.04061,0.05043 0.08123,0.09785 0.12184,0.14226 0.04061,0.04441 0.07822,0.08355 0.11432,0.11742 l 2.64443,2.74801 0.87396,-0.45311 -1.07477,-5.63301 -0.75663,0.39139 c -0.07822,0.0414 -0.13613,0.09785 -0.17148,0.1701 -0.03535,0.07376 -0.04663,0.14226 -0.0346,0.20774 l 0.73858,3.1966 c 0.0173,0.08204 0.03836,0.16785 0.06318,0.26118 0.02407,0.09333 0.0519,0.18967 0.08348,0.29279 C 31.3265,8.86473 31.26031,8.7857 31.19563,8.71269 31.13095,8.63893 31.06777,8.57269 31.0076,8.51474 L 28.69786,6.13479 C 28.64145,6.07984 28.57677,6.04673 28.50457,6.03694 28.43161,6.02565 28.35264,6.04221 28.26765,6.08662 L 27.9841,6.23339 C 27.90588,6.27403 27.85022,6.33048 27.81563,6.40274 27.78178,6.47424 27.769,6.54349 27.77878,6.60973 l 0.60244,3.25832 c 0.01128,0.08806 0.02933,0.17914 0.0549,0.27774 0.02557,0.09634 0.0534,0.19795 0.08273,0.30408 C 28.38197,10.2745 28.25486,10.12472 28.13753,9.99902 L 25.96016,7.55133 C 25.90676,7.49714 25.84283,7.46553 25.76762,7.45424 25.69241,7.44446 25.61193,7.46026 25.52619,7.50467 l -0.80852,0.41924 3.97041,4.13368 0.87095,-0.45085 z"
       id="path23" />
    <polygon
       points="36.44464,3.67354 36.16184,2.85539 32.99544,3.95203 34.79149,9.14698 37.95864,8.05034 37.67886,7.23143 35.5406,7.97206 35.05699,6.57209 36.71841,5.99629 36.44614,5.20975 34.78472,5.78554 34.31014,4.41191 "
       id="polygon23" />
    <path
       d="M 40.99944,7.28939 C 41.30405,7.2209 41.56428,7.11929 41.78089,6.98606 41.99825,6.85359 42.17124,6.69779 42.2991,6.52091 42.42621,6.34253 42.51044,6.14758 42.54955,5.93458 42.58866,5.72158 42.58264,5.50104 42.53,5.27223 42.3886,4.65052 41.95388,4.33515 41.22508,4.32537 41.37099,4.23354 41.49133,4.13344 41.58685,4.02505 41.68237,3.91742 41.75532,3.80452 41.80496,3.6886 41.85535,3.57269 41.88468,3.45226 41.89371,3.32882 41.90198,3.20538 41.89221,3.08119 41.86363,2.957 41.81474,2.73948 41.73351,2.55056 41.62295,2.39099 41.51164,2.23067 41.36422,2.10648 41.18146,2.01766 40.9987,1.9296 40.77758,1.87917 40.51734,1.86713 40.25711,1.85584 39.95551,1.88971 39.6118,1.96799 l -1.82011,0.41472 1.21993,5.35979 1.98784,-0.45311 z m 0.16922,-2.28437 c 0.08348,0.04667 0.14967,0.11064 0.20157,0.19193 0.05114,0.08204 0.08875,0.17763 0.11432,0.28827 0.02332,0.10236 0.03234,0.20397 0.02708,0.30559 -0.0053,0.10236 -0.03309,0.19645 -0.08123,0.28376 -0.04964,0.08806 -0.12636,0.16709 -0.22864,0.23559 -0.10379,0.06849 -0.24068,0.12269 -0.40915,0.16032 l -0.9078,0.20699 -0.34296,-1.5061 0.90404,-0.20548 c 0.1617,-0.03613 0.3016,-0.05043 0.42043,-0.0429 0.11959,0.00828 0.22037,0.03538 0.30235,0.08204 z M 39.79605,2.78313 c 0.3016,-0.06774 0.53475,-0.06322 0.70022,0.01731 0.16471,0.07903 0.27828,0.25666 0.34146,0.53139 0.06017,0.26344 0.02256,0.47117 -0.11282,0.62246 -0.13613,0.14978 -0.35274,0.26043 -0.65133,0.32817 L 39.37562,4.44127 39.03867,2.95625 39.79605,2.78314 Z"
       id="path24" />
    <path
       d="m 46.5222,5.66512 c 0.22112,0.23784 0.48511,0.41849 0.79047,0.54042 0.30536,0.12344 0.64306,0.17387 1.01535,0.15355 0.4099,-0.02258 0.76039,-0.11516 1.05145,-0.27849 0.29032,-0.16182 0.52723,-0.38763 0.71,-0.67816 L 49.62993,4.95987 C 49.58631,4.91847 49.53516,4.89966 49.478,4.90191 49.44641,4.90417 49.41783,4.9132 49.39,4.92976 49.36217,4.94707 49.3351,4.96739 49.30802,4.98997 49.24409,5.06825 49.1779,5.13448 49.11247,5.18792 49.04628,5.24061 48.97408,5.28652 48.89737,5.3219 48.82065,5.35803 48.73792,5.38437 48.64767,5.40244 48.55742,5.419 48.45588,5.43179 48.34306,5.43782 48.15278,5.44836 47.97227,5.41675 47.80304,5.34148 47.63381,5.26621 47.48264,5.15181 47.35102,4.99751 47.22015,4.84246 47.11185,4.65053 47.02761,4.42021 46.94262,4.19064 46.89148,3.92495 46.87568,3.62463 46.85913,3.32732 46.87643,3.06012 46.92833,2.82379 46.97947,2.5867 47.0607,2.38423 47.17051,2.21714 47.27957,2.04929 47.41495,1.91908 47.57515,1.82575 47.7361,1.73167 47.91661,1.68048 48.11667,1.66919 c 0.18502,-0.01054 0.3377,0.00301 0.45879,0.04064 0.12034,0.03763 0.22112,0.08054 0.30385,0.12871 0.08123,0.04742 0.15042,0.09258 0.20608,0.13322 0.05566,0.04064 0.11282,0.06021 0.16998,0.05645 0.05791,-0.00226 0.10229,-0.01731 0.13237,-0.04366 0.03159,-0.0271 0.05716,-0.0557 0.08048,-0.08731 L 49.80366,1.36886 C 49.60209,1.16413 49.35465,1.00381 49.06433,0.88865 48.77326,0.77424 48.44308,0.72683 48.07455,0.74715 47.71128,0.76747 47.3811,0.85403 47.08627,1.00908 c -0.29483,0.1543 -0.54453,0.36204 -0.7476,0.62171 -0.20382,0.26043 -0.3565,0.56526 -0.45728,0.91525 -0.10078,0.34999 -0.13989,0.72934 -0.11733,1.1403 0.02256,0.4072 0.09928,0.77977 0.23015,1.11697 0.13012,0.3372 0.30611,0.62397 0.52798,0.86181 z"
       id="path25" />
    <path
       d="M 55.57163,1.74971 C 55.35653,1.48326 55.09028,1.268 54.77289,1.10241 54.4555,0.93757 54.09749,0.84198 53.69812,0.81338 c -0.39787,-0.02785 -0.7664,0.01731 -1.10335,0.13699 -0.33845,0.11892 -0.63253,0.2943 -0.88373,0.52687 -0.25121,0.23333 -0.45202,0.51633 -0.6047,0.84977 -0.15117,0.33419 -0.24143,0.70074 -0.27001,1.09966 -0.02858,0.40117 0.0098,0.77902 0.11357,1.13052 0.10454,0.3515 0.26399,0.6616 0.4806,0.92805 0.21661,0.2672 0.48361,0.48171 0.801,0.64504 0.31739,0.16333 0.6754,0.25892 1.07477,0.28752 0.39862,0.02785 0.7664,-0.01731 1.1041,-0.13473 C 54.74732,6.16641 55.04064,5.99028 55.29034,5.7562 55.54079,5.52212 55.74086,5.23761 55.89203,4.90417 56.04245,4.56998 56.1312,4.20193 56.15978,3.8 56.18761,3.40033 56.15,3.02625 56.04772,2.67551 55.94543,2.32552 55.78674,2.01692 55.57163,1.74972 Z m -0.5182,1.97276 C 55.03312,4.01677 54.97897,4.27794 54.89097,4.506 54.80297,4.73331 54.68715,4.92298 54.54274,5.07427 54.39683,5.22631 54.2261,5.33846 54.02905,5.40996 53.83275,5.48222 53.61313,5.50931 53.37095,5.49275 53.12877,5.47544 52.91367,5.41748 52.72789,5.31888 52.54061,5.22028 52.38643,5.0848 52.26459,4.91469 52.142,4.74383 52.054,4.54061 51.99834,4.30277 51.94344,4.06493 51.92614,3.79848 51.94644,3.50494 51.96675,3.2129 52.0209,2.95398 52.1089,2.72743 c 0.088,-0.2258 0.20457,-0.41548 0.34898,-0.56902 0.14441,-0.15279 0.31664,-0.26645 0.51445,-0.33946 0.19931,-0.07301 0.41968,-0.10086 0.66186,-0.0843 0.24218,0.01731 0.45503,0.07527 0.6408,0.17613 0.18502,0.10011 0.33845,0.23559 0.46029,0.40795 0.12184,0.17161 0.21134,0.37558 0.26625,0.61117 0.05566,0.23634 0.07296,0.50053 0.0519,0.79257 z"
       id="path26" />
    <path
       d="m 60.63787,7.45121 c 0.04889,0.03989 0.11583,0.06925 0.19856,0.08731 L 61.38322,7.65368 62.52267,2.27583 61.58779,2.07712 60.91991,5.22781 C 60.88606,5.38738 60.85899,5.55823 60.83718,5.73963 L 58.93057,1.68799 C 58.90801,1.64584 58.88695,1.61197 58.8689,1.58563 58.85085,1.55929 58.82979,1.53746 58.80647,1.51939 58.78391,1.50208 58.75608,1.48778 58.72524,1.47649 58.6929,1.46595 58.65529,1.45617 58.60866,1.44638 l -0.55807,-0.11892 -1.1387,5.37785 0.93864,0.19946 0.6754,-3.18757 c 0.03008,-0.14301 0.0549,-0.29956 0.07371,-0.47042 l 1.90435,4.02981 c 0.03986,0.07677 0.08424,0.13398 0.13388,0.17462 z"
       id="path27" />
    <path
       d="m 63.10405,8.05711 c 0.12335,0.10914 0.25647,0.20699 0.40088,0.29204 0.14441,0.0858 0.29483,0.15505 0.45127,0.20849 0.27753,0.09408 0.53851,0.13398 0.7837,0.11817 C 64.98584,8.66 65.20922,8.6013 65.40928,8.49893 65.61085,8.39732 65.78458,8.25582 65.932,8.07593 66.07942,7.89604 66.19223,7.6883 66.27271,7.45347 66.34642,7.23595 66.3765,7.041 66.36372,6.86789 66.35169,6.69478 66.31032,6.53671 66.24037,6.39672 66.17042,6.25597 66.07942,6.12802 65.96886,6.01286 65.8583,5.89921 65.74022,5.79157 65.61687,5.69297 65.49277,5.59362 65.37168,5.49878 65.25209,5.40846 65.1325,5.31889 65.02946,5.22707 64.94297,5.13524 64.85723,5.04266 64.79405,4.94782 64.75645,4.84922 64.71884,4.74987 64.7196,4.64223 64.76021,4.52407 c 0.06318,-0.18516 0.17374,-0.31612 0.33168,-0.39064 0.15794,-0.07376 0.35349,-0.07075 0.5889,0.00903 0.13388,0.04516 0.24444,0.10312 0.33394,0.17462 0.0895,0.0715 0.16546,0.1415 0.22789,0.21075 0.06167,0.06925 0.11583,0.13247 0.16095,0.18817 0.04437,0.05645 0.09176,0.09258 0.1414,0.10914 0.05265,0.01806 0.10003,0.02258 0.1429,0.01204 0.04287,-0.01054 0.08574,-0.03688 0.13012,-0.07978 l 0.4272,-0.39666 C 67.1256,4.12365 66.95412,3.91365 66.7315,3.73075 66.51038,3.5471 66.25015,3.40484 65.95306,3.30398 65.68982,3.21366 65.44012,3.17678 65.20696,3.19183 64.97305,3.20613 64.76171,3.26108 64.57293,3.35365 64.3834,3.44698 64.22094,3.57193 64.08706,3.72773 63.95243,3.88504 63.8524,4.05891 63.78697,4.25009 c -0.08123,0.23935 -0.11808,0.4516 -0.1083,0.63601 0.0083,0.18365 0.04588,0.34774 0.11357,0.493 0.06694,0.14527 0.15644,0.27473 0.2685,0.38687 0.11206,0.11214 0.22939,0.21602 0.35274,0.31085 0.12335,0.09408 0.24519,0.18441 0.36628,0.27096 0.12109,0.08655 0.22413,0.17537 0.30912,0.26645 0.08574,0.09183 0.14591,0.19118 0.18126,0.29655 0.03535,0.10537 0.03084,0.2243 -0.01504,0.35752 C 65.17613,7.50389 65.04977,7.65894 64.87904,7.73496 64.70756,7.81023 64.50449,7.80872 64.26908,7.72819 64.10738,7.67324 63.97576,7.60174 63.87497,7.51368 63.77419,7.42486 63.68845,7.3353 63.62076,7.24723 63.55157,7.15766 63.4914,7.07863 63.44176,7.00713 63.39212,6.93563 63.33496,6.88971 63.27253,6.86864 63.2259,6.85283 63.17776,6.84982 63.12888,6.85961 63.08074,6.86939 63.03863,6.88972 63.00177,6.92058 L 62.52944,7.3067 c 0.06092,0.13623 0.14065,0.27021 0.24068,0.39666 0.09928,0.12645 0.21059,0.24537 0.33394,0.35376 z"
       id="path28" />
    <path
       d="m 67.90629,9.86804 c 0.23541,0.26946 0.5325,0.49074 0.89351,0.66311 0.36026,0.17311 0.71902,0.26795 1.07552,0.28376 0.35725,0.0143 0.69495,-0.03989 1.0131,-0.16634 0.3189,-0.12494 0.60996,-0.31537 0.87245,-0.57053 0.26249,-0.2544 0.4821,-0.563 0.65584,-0.92654 0.17374,-0.36053 0.27678,-0.72257 0.31062,-1.08611 0.03309,-0.36354 0,-0.70902 -0.10229,-1.03568 C 72.5235,6.70154 72.35578,6.40349 72.12112,6.13252 71.88721,5.86231 71.59013,5.64102 71.22911,5.46716 70.86885,5.29405 70.50934,5.20071 70.15284,5.18641 c -0.35725,-0.0143 -0.6957,0.0414 -1.0146,0.16484 -0.3204,0.12344 -0.61147,0.31161 -0.87546,0.56676 -0.26474,0.25365 -0.48361,0.56149 -0.65584,0.92203 -0.17524,0.36354 -0.27828,0.72784 -0.31137,1.09288 -0.03309,0.36504 0.0023,0.71203 0.10454,1.03944 0.10304,0.32817 0.27151,0.62622 0.50617,0.89568 z m 0.45729,-1.78458 c 0.0361,-0.24161 0.11883,-0.49526 0.24594,-0.76171 0.12711,-0.26344 0.27227,-0.48397 0.43698,-0.66235 0.16471,-0.17763 0.34296,-0.31085 0.534,-0.39967 0.19104,-0.08957 0.3926,-0.13097 0.60395,-0.12494 0.21134,0.00452 0.42645,0.06021 0.64607,0.16484 0.21811,0.10537 0.39561,0.2386 0.53024,0.40042 0.13613,0.16107 0.22864,0.34397 0.27903,0.5487 0.04889,0.20473 0.05641,0.42752 0.02031,0.66687 C 71.6255,8.15648 71.54427,8.40787 71.41717,8.67206 71.28931,8.93775 71.1434,9.16055 70.97794,9.33968 70.81248,9.51881 70.63422,9.65279 70.44394,9.7401 70.2529,9.82666 70.05284,9.86805 69.84375,9.86203 69.63391,9.85601 69.41956,9.80106 69.20069,9.69569 68.98258,9.59032 68.80433,9.45785 68.66744,9.29677 68.5298,9.1357 68.43579,8.9543 68.3854,8.75033 68.33501,8.54711 68.32749,8.32507 68.36359,8.08346 Z"
       id="path29" />
    <path
       d="m 72.98005,12.75831 1.15224,-1.7733 0.30837,0.20021 c 0.07822,0.05193 0.13237,0.10236 0.1602,0.1543 0.02783,0.05043 0.04061,0.11516 0.03986,0.19268 l -0.09477,1.98329 c -0.0015,0.17311 0.07145,0.30784 0.21661,0.40343 l 0.82206,0.5344 0.06092,-2.3506 c -0.0015,-0.09258 -0.01354,-0.17838 -0.0346,-0.25666 -0.02181,-0.07828 -0.05114,-0.15204 -0.088,-0.22279 0.18577,0.04516 0.36327,0.06172 0.53626,0.04968 0.17148,-0.01129 0.33394,-0.04742 0.48662,-0.10763 0.15268,-0.06021 0.29408,-0.14451 0.42344,-0.25365 0.12936,-0.10763 0.24293,-0.23634 0.34071,-0.38763 0.12786,-0.19645 0.21285,-0.39816 0.25497,-0.6044 C 77.60631,10.11341 77.59578,9.90567 77.5326,9.69643 77.46942,9.48794 77.34984,9.2787 77.17309,9.06945 76.99634,8.86096 76.75341,8.65623 76.44655,8.45677 l -1.38765,-0.90321 -2.99416,4.60862 0.91532,0.59612 z m 2.53913,-3.90788 0.47233,0.30709 c 0.2858,0.18666 0.45954,0.38537 0.51896,0.59687 0.06017,0.21225 0.01655,0.42978 -0.12861,0.65407 -0.07371,0.11441 -0.1587,0.20849 -0.25497,0.28225 -0.09552,0.07451 -0.20006,0.12344 -0.31514,0.14752 -0.11507,0.02484 -0.23842,0.02107 -0.37079,-0.009 -0.13388,-0.03086 -0.27377,-0.09484 -0.42194,-0.19118 L 74.55421,10.3362 75.51917,8.85042 Z"
       id="path30" />
    <polygon
       points="77.0204,15.62148 77.85901,16.30867 80.77796,12.73949 81.92343,13.67732 82.48451,12.99164 79.35346,10.42879 78.79238,11.11447 79.9386,12.0523 "
       id="polygon30" />
    <rect
       x="79.273453"
       y="15.82458"
       width="5.4955001"
       height="1.09237"
       transform="rotate(-45.94214,82.021205,16.370768)"
       id="rect30" />
    <path
       d="m 82.59582,18.94152 c -0.14365,0.26118 -0.22864,0.53289 -0.25497,0.81665 -0.02632,0.28225 0.009,0.56902 0.1083,0.86031 0.09777,0.29053 0.26249,0.57203 0.49188,0.84375 0.23015,0.27247 0.47985,0.47945 0.75061,0.62321 0.26926,0.14376 0.54528,0.22655 0.82808,0.24612 0.28355,0.02107 0.56484,-0.01806 0.84688,-0.11742 0.28054,-0.0986 0.54754,-0.25591 0.80025,-0.47042 L 88.66687,19.62494 87.9659,18.797 85.46588,20.91728 c -0.15569,0.13172 -0.31438,0.23032 -0.47609,0.29505 -0.16246,0.06473 -0.3204,0.09484 -0.47534,0.09107 -0.15569,-0.0045 -0.30536,-0.0429 -0.45202,-0.11666 -0.14516,-0.07376 -0.27979,-0.18441 -0.40464,-0.33118 -0.12485,-0.14828 -0.2121,-0.29956 -0.26098,-0.45537 -0.04889,-0.15505 -0.06167,-0.3101 -0.04061,-0.4644 0.02106,-0.1543 0.07747,-0.30559 0.16772,-0.45461 0.09101,-0.14903 0.21435,-0.28978 0.36929,-0.4215 l 2.50002,-2.11953 -0.70247,-0.83095 -2.50002,2.11953 c -0.25271,0.21451 -0.45052,0.4516 -0.59492,0.71278 z"
       id="path31" />
    <path
       d="m 85.77952,25.00807 2.94001,-1.78308 c 0.06619,-0.03989 0.13538,-0.08505 0.20909,-0.13699 0.07371,-0.05118 0.14817,-0.10537 0.22263,-0.16408 l -1.72986,3.10252 c -0.09251,0.15656 -0.09477,0.30634 -0.0075,0.4501 l 0.07972,0.13097 c 0.08574,0.1415 0.21887,0.20774 0.39937,0.1972 l 3.5244,-0.10838 c -0.08273,0.03914 -0.16246,0.08054 -0.23917,0.12193 -0.07596,0.04215 -0.14591,0.08204 -0.20984,0.12118 l -2.93926,1.78308 0.49564,0.8174 4.69695,-2.84962 -0.42344,-0.70149 C 92.77342,25.94892 92.7501,25.91354 92.72905,25.88494 92.70874,25.85559 92.68693,25.8315 92.66437,25.81268 92.64181,25.79462 92.61473,25.78182 92.58239,25.77354 92.55005,25.76526 92.51019,25.763 92.46431,25.76526 l -3.4176,0.09333 c -0.09777,0.0038 -0.19555,0.01355 -0.29408,0.0286 -0.09928,0.0143 -0.20006,0.03086 -0.30235,0.04817 0.1241,-0.15656 0.23692,-0.31989 0.33619,-0.49074 l 1.66367,-3.00317 c 0.02407,-0.03989 0.03911,-0.07602 0.04588,-0.10838 0.0068,-0.03161 0.0075,-0.06172 0.0023,-0.09258 -0.006,-0.03011 -0.01655,-0.06097 -0.03234,-0.09183 -0.01579,-0.03161 -0.0346,-0.06699 -0.05942,-0.10688 l -0.42645,-0.7045 -4.69845,2.84962 z"
       id="path32" />
    <path
       d="m 8.73579,65.59194 c 0,-0.67138 -0.56446,-1.22761 -1.23497,-1.22761 -0.66261,0 -1.2188,0.55623 -1.2188,1.22761 0,0.66311 0.55619,1.22836 1.2188,1.22836 0.67051,0 1.23497,-0.56526 1.23497,-1.22836 z"
       id="path33" />
    <path
       d="m 91.8887,33.03754 c 0,0.66311 0.55619,1.22836 1.2188,1.22836 0.67051,0 1.23497,-0.56526 1.23497,-1.22836 0,-0.67138 -0.56446,-1.22761 -1.23497,-1.22761 -0.66261,0 -1.2188,0.55623 -1.2188,1.22761 z"
       id="path34" />
  </g>
  <g
     id="g40"
     fill="#005a9c"
     transform="matrix(1.2409176,0,0,1.2409176,-2.4241077,-0.92147477)">
    <path
       d="m 66.60074,51.67563 c 0.66833,-0.84229 0.5271,-2.07263 -0.31628,-2.74323 -0.84344,-0.66943 -2.07483,-0.5271 -2.74432,0.31635 -0.82922,1.04547 -1.5824,1.6748 -2.44104,2.04108 -1.58356,0.67383 -2.92578,0.38904 -4.22351,-0.89667 -1.27161,-1.25964 -2.51062,-2.63232 -3.71265,-3.96265 -0.58801,-0.651 -1.17706,-1.3031 -1.77374,-1.94763 -1.01947,-1.10095 -2.04431,-2.19757 -3.06818,-3.29529 L 48.23081,41.09085 C 46.00388,38.70743 43.70194,36.2424 41.48148,33.76657 39.7208,31.80264 37.0004,30.82986 34.38327,31.22336 c -2.67474,0.39996 -4.83759,2.11176 -6.0907,4.81909 -1.20746,2.60736 -0.79883,5.57007 1.06512,7.73181 3.27899,3.80292 6.04504,6.94714 9.28491,9.90448 1.32489,1.20856 2.92804,1.85193 4.63544,1.86066 1.10748,0.0054 2.77686,-0.11957 4.47998,-1.26617 0.74561,-0.50208 1.44006,-1.01837 1.74548,-1.80634 0.31085,-0.80646 0.02063,-1.73352 -0.70752,-2.25629 -0.70648,-0.50867 -1.63354,-0.47278 -2.30737,0.08691 -0.08484,0.07062 -0.17719,0.15216 -0.27826,0.24023 -1.05859,0.92706 -2.37585,2.0813 -5.06146,0.1532 -2.46063,-1.76721 -4.36584,-4.08331 -6.57324,-6.76562 -0.71948,-0.87384 -1.46399,-1.77808 -2.25958,-2.7019 -0.84991,-0.98578 -1.03357,-2.3421 -0.47931,-3.54095 0.4837,-1.04333 1.4173,-2.34106 3.12579,-2.59644 1.29443,-0.19458 2.74536,0.32275 3.61163,1.2879 2.23889,2.49756 4.55823,4.98212 6.80145,7.38293 1.05103,1.12488 2.10193,2.25085 3.14752,3.38013 0.58582,0.63257 1.164,1.27264 1.75092,1.92261 1.23248,1.36401 2.50629,2.77368 3.85181,4.10724 2.42908,2.40729 5.44836,3.01703 8.50568,1.71613 1.46832,-0.62714 2.73016,-1.64551 3.96918,-3.20734 z"
       id="path35" />
    <path
       d="m 69.34055,38.08291 c 1.26294,-0.59888 2.25629,-1.72595 2.35083,-3.09326 0.24023,-2.3736 -1.71393,-4.64514 -4.58868,-4.99622 -1.76501,-0.22388 -3.40289,0.29895 -4.5636,1.2608 -0.62061,0.51624 -0.78802,1.47156 -0.25,2.14545 0.58795,0.70099 1.26617,0.82373 2.37585,0.21411 0.39777,-0.22607 0.99554,-0.41412 1.65308,-0.36847 1.24011,0.08588 1.59546,1.20312 1.56073,1.71069 -0.0055,0.07501 0.0022,1.80524 -1.74438,1.68463 l -0.65863,-0.04565 c -0.73364,-0.05005 -1.46729,0.6358 -1.52161,1.42047 -0.05872,0.83478 0.55212,1.56396 1.31183,1.61725 l 0.80969,0.05542 c 2.22809,0.15436 1.99548,2.04547 1.94873,2.34766 -0.04346,0.86945 -1.43903,2.3443 -3.92786,0.66724 -0.84448,-0.56836 -6.8678,-8.13397 -6.8678,-8.13397 -2.85406,-3.68982 -7.70361,-4.33978 -11.5304,-1.54437 -0.42059,0.30756 -0.69775,0.7608 -0.7782,1.2771 -0.07935,0.51514 0.04565,1.03137 0.35327,1.45197 0.30756,0.42059 0.7608,0.69781 1.27594,0.7782 0.51843,0.08044 1.03247,-0.04565 1.45312,-0.35321 2.6106,-1.90741 4.9375,-0.77063 6.13416,0.7771 0,0 6.46674,8.31763 8.13177,9.19904 1.08038,0.57172 2.2085,0.9021 3.3551,0.98145 3.51923,0.24347 5.66248,-1.6955 6.24072,-4.35175 0.37927,-1.74109 -0.7467,-3.91699 -2.52368,-4.70166 z"
       id="path36" />
    <path
       d="m 33.89493,67.19205 c -0.05273,0 -0.10742,0.02441 -0.16309,0.07324 -0.10156,0.10938 -0.2041,0.20215 -0.30664,0.28125 -0.10352,0.0791 -0.21387,0.14355 -0.33105,0.19434 -0.11718,0.05079 -0.24512,0.08789 -0.38281,0.1123 -0.13867,0.02539 -0.29492,0.03711 -0.46973,0.03711 -0.28418,0 -0.54883,-0.06152 -0.7959,-0.18359 -0.24609,-0.12207 -0.46094,-0.29883 -0.64258,-0.53027 -0.18164,-0.23047 -0.3252,-0.51465 -0.43066,-0.85059 -0.10449,-0.33594 -0.15723,-0.7168 -0.15723,-1.14355 0,-0.42383 0.0498,-0.80273 0.14941,-1.13672 0.09961,-0.33399 0.23926,-0.61719 0.41992,-0.85059 0.18066,-0.23242 0.39551,-0.41016 0.64551,-0.53223 0.25,-0.12305 0.52637,-0.18457 0.82715,-0.18457 0.25488,0 0.46875,0.03223 0.63965,0.09473 0.17188,0.06348 0.31543,0.13281 0.43066,0.20801 0.11621,0.0752 0.20898,0.14355 0.28125,0.20703 0.07129,0.0625 0.13672,0.09473 0.19629,0.09473 0.0498,0 0.08984,-0.01074 0.12109,-0.03223 0.03125,-0.02051 0.05762,-0.04688 0.0791,-0.07812 l 0.31445,-0.44141 C 34.06777,62.26139 33.77284,62.0485 33.43495,61.8903 33.09804,61.73307 32.70643,61.65495 32.2621,61.65495 c -0.44824,0 -0.85742,0.08496 -1.22852,0.25684 -0.37012,0.17188 -0.68945,0.41309 -0.95508,0.72461 -0.26563,0.31152 -0.47266,0.68262 -0.61914,1.11523 -0.14746,0.43262 -0.2207,0.90918 -0.2207,1.43066 0,0.52148 0.06934,0.99805 0.20703,1.42969 0.13867,0.43262 0.33594,0.80371 0.59375,1.11328 0.25684,0.30957 0.56641,0.5498 0.92871,0.72168 0.3623,0.1709 0.76758,0.25684 1.21582,0.25684 0.50684,0 0.94238,-0.09082 1.30664,-0.27246 0.36426,-0.18262 0.66992,-0.4375 0.91797,-0.7666 l -0.37695,-0.40918 c -0.04297,-0.04199 -0.08789,-0.06348 -0.13672,-0.06348 z"
       id="path37" />
    <polygon
       points="39.83633,68.63052 40.79727,68.63052 40.79727,61.73306 39.83633,61.73306 39.83633,64.80435 36.52969,64.80435 36.52969,61.73306 35.56876,61.73306 35.56876,68.63052 36.52969,68.63052 36.52969,65.50162 39.83633,65.50162 "
       id="polygon37" />
    <path
       d="m 44.37637,61.73306 -2.58789,6.89746 h 0.74023 c 0.08008,0 0.14941,-0.02246 0.20703,-0.06836 0.05762,-0.04492 0.09766,-0.09766 0.11816,-0.15723 l 0.58301,-1.65332 h 2.84473 l 0.58789,1.6582 c 0.02832,0.06348 0.06738,0.11523 0.11816,0.1582 0.05078,0.04102 0.11816,0.0625 0.20215,0.0625 h 0.74023 l -2.58301,-6.89746 h -0.9707 z m -0.69824,4.33594 0.97656,-2.77148 c 0.03125,-0.08398 0.06445,-0.18164 0.09961,-0.29395 0.03516,-0.11231 0.07031,-0.23438 0.10449,-0.36719 0.03223,0.12891 0.06543,0.25 0.10059,0.3623 0.03418,0.11133 0.06934,0.20996 0.10449,0.29395 l 0.97656,2.77637 z"
       id="path38" />
    <path
       d="m 52.79629,62.31607 c -0.20312,-0.18555 -0.45996,-0.3291 -0.76953,-0.43066 -0.30957,-0.10156 -0.6748,-0.15234 -1.09473,-0.15234 h -1.97852 v 6.89746 h 0.95508 v -2.57227 h 1.02344 c 0.40332,0 0.75684,-0.05273 1.06348,-0.16016 0.30566,-0.10645 0.56348,-0.25684 0.77148,-0.45117 0.208,-0.19433 0.36523,-0.42383 0.47266,-0.69043 0.10645,-0.26562 0.16016,-0.55957 0.16016,-0.88184 0,-0.3252 -0.0498,-0.62012 -0.14941,-0.88379 -0.10059,-0.26465 -0.25195,-0.48926 -0.4541,-0.6748 z m -0.44921,2.13672 c -0.06445,0.1748 -0.16113,0.3252 -0.28906,0.45117 -0.12695,0.12598 -0.28613,0.22363 -0.47461,0.29395 -0.18848,0.06934 -0.40625,0.10449 -0.65137,0.10449 H 49.9086 v -2.81836 h 1.02344 c 0.51172,0 0.89062,0.12109 1.13965,0.36426 0.24805,0.24414 0.37207,0.58594 0.37207,1.02637 0,0.20996 -0.03223,0.40234 -0.09668,0.57812 z"
       id="path39" />
    <polygon
       points="54.02872,62.53091 56.04434,62.53091 56.04434,68.63052 57.00528,68.63052 57.00528,62.53091 59.01504,62.53091 59.01504,61.73306 54.02872,61.73306 "
       id="polygon39" />
    <polygon
       points="60.11758,68.63052 64.14883,68.63052 64.15469,67.85318 61.07852,67.85318 61.07852,65.5231 63.55118,65.5231 63.55118,64.77212 61.07852,64.77212 61.07852,62.5104 64.14883,62.5104 64.14883,61.73306 60.11758,61.73306 "
       id="polygon40" />
    <path
       d="m 68.49454,65.73013 c -0.05176,-0.04688 -0.1084,-0.08984 -0.16797,-0.12793 0.24902,-0.06348 0.4707,-0.15527 0.66699,-0.27637 0.19629,-0.12012 0.36133,-0.26465 0.49609,-0.43262 0.13476,-0.16797 0.23828,-0.35645 0.30957,-0.56738 0.07227,-0.20898 0.10742,-0.43555 0.10742,-0.67676 0,-0.29395 -0.04688,-0.55859 -0.1416,-0.79492 -0.09472,-0.23633 -0.24023,-0.4375 -0.43848,-0.60352 -0.19727,-0.16602 -0.44922,-0.29395 -0.75586,-0.38379 -0.30566,-0.08887 -0.66895,-0.13379 -1.08887,-0.13379 h -1.88965 v 6.89746 h 0.95508 V 65.7643 h 0.64062 c 0.12305,0 0.21484,0.0166 0.27539,0.0498 0.06152,0.0332 0.11816,0.08887 0.1709,0.16602 l 1.63281,2.45605 c 0.09082,0.12988 0.21875,0.19434 0.38281,0.19434 h 0.85059 l -1.85352,-2.72949 c -0.04883,-0.06641 -0.09961,-0.12305 -0.15234,-0.1709 z m -1.04883,-0.66406 h -0.89844 v -2.58203 h 0.93457 c 0.99707,0 1.49609,0.41113 1.49609,1.2334 0,0.19922 -0.03223,0.38281 -0.09668,0.54883 -0.06543,0.16602 -0.16211,0.30859 -0.29199,0.42773 -0.12891,0.11914 -0.28906,0.21094 -0.48047,0.27539 -0.19043,0.06445 -0.41113,0.09668 -0.66309,0.09668 z"
       id="path40" />
  </g>
</svg>
