<?xml version="1.0" encoding="UTF-8" standalone="no"?>
<!-- Created with Inkscape (http://www.inkscape.org/) -->

<svg
   width="72"
   height="48"
   viewBox="0 0 72 48.000002"
   version="1.1"
   id="svg1"
   xml:space="preserve"
   xmlns="http://www.w3.org/2000/svg"
   xmlns:svg="http://www.w3.org/2000/svg"><defs
     id="defs1" /><g
     id="layer1"
     transform="translate(-61.401722,-80.80912)"><rect
       style="fill:#ffffff;fill-opacity:1;stroke:none;stroke-width:2.86784;stroke-linecap:round"
       id="rect1"
       width="72"
       height="48"
       x="61.401722"
       y="80.80912" /><g
       id="g1"
       transform="matrix(1.1140094,0,0,1.1140094,-11.104713,-10.140488)"><path
         style="opacity:1;fill:none;stroke:#005a9c;stroke-width:4.26661;stroke-linecap:round;stroke-dasharray:none"
         d="m 101.55471,106.37789 0.0147,0.0161 c 1.15433,1.22683 2.91021,1.76257 4.23328,1.76257 2.41746,0 4.30039,-1.79686 4.30039,-1.79686 M 93.50232,89.772302 c 0,0 1.844851,-1.793935 4.228934,-1.793935 1.486718,0 3.136566,0.47307 4.263196,1.746532 l 7.60389,8.595573 c 1.06844,1.207685 2.90339,1.764778 4.27562,1.764778 4.16749,0 5.39446,-1.624603 5.39446,-3.628715 0,-2.004101 -1.62465,-3.628706 -3.62877,-3.628706 M 101.55471,106.37789 85.89624,89.737293 c -0.72883,-0.774571 -2.163031,-1.758926 -4.307693,-1.758926 -3.19532,0 -6.049783,2.577398 -6.053516,6.053451 -0.0021,1.732213 0.549792,3.01678 1.835517,4.303255 l 8.057509,8.061777 c 1.285723,1.28645 2.600535,1.76421 4.231843,1.75965 2.399248,-0.007 3.206806,-0.65345 4.279983,-1.76185 M 113.07344,86.633145 c 0.646,-0.667183 1.56389,-1.062835 2.56594,-1.062835 2.00414,0 3.62881,1.624649 3.62881,3.628751 0,2.001973 -1.62688,3.628768 -3.62881,3.628768"
         id="path2" /><g
         aria-label="CHAPTER"
         id="g20"
         transform="matrix(1.1728441,0,0,1.1728441,-3.5767418,43.744484)"><path
           d="m 69.94572,66.7399 c -0.46973,0.47949 -1.33984,0.7793 -2.20898,0.7793 -2.09863,0 -3.54785,-1.41895 -3.54785,-3.59766 0,-2.00879 1.29883,-3.59766 3.48828,-3.59766 0.89941,0 1.62891,0.24902 2.12793,0.67969 l -0.38965,0.63965 c -0.45898,-0.33984 -0.99902,-0.52051 -1.72853,-0.52051 -1.51952,0 -2.59862,1.13965 -2.59862,2.79883 0,1.66895 1.10938,2.79883 2.72852,2.79883 0.66992,0 1.30859,-0.23047 1.78906,-0.62012 z"
           id="path6-9"
           style="fill:#005a9c" /><path
           d="m 75.88615,64.25162 h -3.84766 v 3.16797 H 71.18888 V 60.4235 h 0.84961 v 3.02832 h 3.84766 V 60.4235 h 0.84961 v 6.99609 h -0.84961 z"
           id="path8-3"
           style="fill:#005a9c" /><path
           d="m 80.83732,60.38345 h 0.72949 l 3.00879,7.03613 h -0.91016 l -0.89941,-2.11914 h -3.1875 l -0.88965,2.11914 H 77.8295 l 3.00781,-7.03613 z m -0.91894,4.11817 h 2.51854 l -1.25975,-2.98926 z"
           id="path10-8"
           style="fill:#005a9c" /><path
           d="m 85.66838,67.41958 v -6.99609 c 0.38965,0 1.38867,-0.02051 1.82812,-0.02051 1.99902,0 2.58887,1.08008 2.58887,2.16895 0,1.13965 -0.80957,2.19922 -2.51855,2.19922 -0.2793,0 -0.69922,-0.0098 -1.04883,-0.04004 v 2.68848 h -0.84961 z m 0.84961,-6.19628 v 2.69824 c 0.33984,0.03027 0.66893,0.0498 1.01855,0.0498 1.03027,0 1.64941,-0.5293 1.64941,-1.40918 0,-0.8291 -0.5,-1.35938 -1.60938,-1.35938 -0.2793,0 -0.72949,0.0098 -1.05859,0.02051 z"
           id="path12-0"
           style="fill:#005a9c" /><path
           d="m 90.39787,60.42349 h 5.74707 v 0.7998 H 93.6967 v 6.19629 h -0.84961 v -6.19629 h -2.44922 z"
           id="path14-2"
           style="fill:#005a9c" /><path
           d="m 97.18791,60.42349 h 3.94727 v 0.7998 h -3.09766 v 2.25879 h 2.79785 v 0.79883 h -2.79785 v 2.33887 h 3.19824 v 0.7998 h -4.04785 z"
           id="path16-4"
           style="fill:#005a9c" /><path
           d="m 102.82853,67.41958 v -6.99609 c 0.38965,0 1.67871,-0.02051 1.87891,-0.02051 1.9082,0 2.48828,0.9502 2.48828,2.0791 0,1.08984 -0.75,1.7793 -1.51953,1.97949 l 2.3291,2.95801 h -1.03906 l -2.14941,-2.79883 h -1.13867 v 2.79883 h -0.84961 z m 0.84961,-6.19628 v 2.59863 h 1.0293 c 0.80957,0 1.58887,-0.5 1.58887,-1.33008 0,-0.71875 -0.39941,-1.28906 -1.63965,-1.28906 -0.21974,0 -0.64941,0.0098 -0.97852,0.02051 z"
           id="path18"
           style="fill:#005a9c" /></g></g></g><g
     id="g2"
     transform="translate(6.0334346,-6.0000001)" /></svg>
