<?xml version="1.0" encoding="UTF-8" standalone="no"?>
<svg
   id="Layer_1"
   width="72"
   height="48"
   version="1.1"
   viewBox="0 0 72.000001 48"
   xmlns="http://www.w3.org/2000/svg"
   xmlns:svg="http://www.w3.org/2000/svg">
  <defs
     id="defs2929" />
  <rect
     style="fill:#fafdff;stroke-width:19.8167;stroke-linecap:round"
     id="rect1"
     width="72"
     height="48"
     x="0"
     y="8.6169599e-08" />
  <g
     id="g1"
     transform="matrix(0.8,0,0,0.8,12.026748,1.36388e-8)">
    <g
       id="g28"
       transform="matrix(0.67158085,0,0,0.67158085,-27.802225,-3.200479)">
      <g
         aria-label="CHAPTER"
         id="g20">
        <path
           d="m 69.94572,66.7399 c -0.46973,0.47949 -1.33984,0.7793 -2.20898,0.7793 -2.09863,0 -3.54785,-1.41895 -3.54785,-3.59766 0,-2.00879 1.29883,-3.59766 3.48828,-3.59766 0.89941,0 1.62891,0.24902 2.12793,0.67969 l -0.38965,0.63965 c -0.45898,-0.33984 -0.99902,-0.52051 -1.72853,-0.52051 -1.51952,0 -2.59862,1.13965 -2.59862,2.79883 0,1.66895 1.10938,2.79883 2.72852,2.79883 0.66992,0 1.30859,-0.23047 1.78906,-0.62012 z"
           id="path6"
           style="fill:#005a9c" />
        <path
           d="m 75.88615,64.25162 h -3.84766 v 3.16797 H 71.18888 V 60.4235 h 0.84961 v 3.02832 h 3.84766 V 60.4235 h 0.84961 v 6.99609 h -0.84961 z"
           id="path8"
           style="fill:#005a9c" />
        <path
           d="m 80.83732,60.38345 h 0.72949 l 3.00879,7.03613 h -0.91016 l -0.89941,-2.11914 h -3.1875 l -0.88965,2.11914 H 77.8295 l 3.00781,-7.03613 z m -0.91894,4.11817 h 2.51854 l -1.25975,-2.98926 z"
           id="path10"
           style="fill:#005a9c" />
        <path
           d="m 85.66838,67.41958 v -6.99609 c 0.38965,0 1.38867,-0.02051 1.82812,-0.02051 1.99902,0 2.58887,1.08008 2.58887,2.16895 0,1.13965 -0.80957,2.19922 -2.51855,2.19922 -0.2793,0 -0.69922,-0.0098 -1.04883,-0.04004 v 2.68848 h -0.84961 z m 0.84961,-6.19628 v 2.69824 c 0.33984,0.03027 0.66893,0.0498 1.01855,0.0498 1.03027,0 1.64941,-0.5293 1.64941,-1.40918 0,-0.8291 -0.5,-1.35938 -1.60938,-1.35938 -0.2793,0 -0.72949,0.0098 -1.05859,0.02051 z"
           id="path12"
           style="fill:#005a9c" />
        <path
           d="m 90.39787,60.42349 h 5.74707 v 0.7998 H 93.6967 v 6.19629 h -0.84961 v -6.19629 h -2.44922 z"
           id="path14"
           style="fill:#005a9c" />
        <path
           d="m 97.18791,60.42349 h 3.94727 v 0.7998 h -3.09766 v 2.25879 h 2.79785 v 0.79883 h -2.79785 v 2.33887 h 3.19824 v 0.7998 h -4.04785 z"
           id="path16"
           style="fill:#005a9c" />
        <path
           d="m 102.82853,67.41958 v -6.99609 c 0.38965,0 1.67871,-0.02051 1.87891,-0.02051 1.9082,0 2.48828,0.9502 2.48828,2.0791 0,1.08984 -0.75,1.7793 -1.51953,1.97949 l 2.3291,2.95801 h -1.03906 l -2.14941,-2.79883 h -1.13867 v 2.79883 h -0.84961 z m 0.84961,-6.19628 v 2.59863 h 1.0293 c 0.80957,0 1.58887,-0.5 1.58887,-1.33008 0,-0.71875 -0.39941,-1.28906 -1.63965,-1.28906 -0.21974,0 -0.64941,0.0098 -0.97852,0.02051 z"
           id="path18"
           style="fill:#005a9c" />
      </g>
      <path
         style="fill:none;stroke:#005a9c;stroke-width:3.94036;stroke-linecap:round"
         d="m 88.928364,50.807354 0.01348,0.01481 c 1.066076,1.133035 2.687706,1.627808 3.90961,1.627808 2.232608,0 3.97156,-1.659457 3.97156,-1.659457 M 81.491687,35.471483 c 0,0 1.703787,-1.656766 3.905573,-1.656766 1.373045,0 2.896744,0.436896 3.937223,1.612986 l 7.022476,7.938338 c 0.986727,1.115341 2.681382,1.629828 3.948681,1.629828 3.84883,0 4.98197,-1.500378 4.98197,-3.35125 0,-1.85086 -1.5004,-3.351247 -3.35129,-3.351247 M 88.928364,50.807354 74.467195,35.43915 c -0.673097,-0.715345 -1.99764,-1.624433 -3.978313,-1.624433 -2.951,0 -5.587191,2.380323 -5.590645,5.590581 -0.0017,1.599769 0.507753,2.786114 1.695173,3.974222 l 7.441396,7.445346 c 1.187421,1.188089 2.401693,1.629309 3.908267,1.625104 2.215793,-0.0062 2.961605,-0.603497 3.952717,-1.627135 m 17.670545,-18.25048 c 0.596595,-0.616169 1.444305,-0.981568 2.369745,-0.981568 1.8509,0 3.35132,1.500426 3.35132,3.351287 0,1.848894 -1.50247,3.351298 -3.35132,3.351298"
         id="path2" />
    </g>
    <g
       aria-label="WORLD WIDE WEB CONSORTIUM"
       id="g122"
       transform="matrix(0.67158085,0,0,0.67158085,-27.802225,-3.200479)">
      <polygon
         points="47.99317,65.58498 45.42376,67.92621 45.94165,69.02007 49.36707,68.48766 46.74304,70.71272 47.32558,71.9428 51.4172,68.28299 50.92489,67.24237 47.40267,67.71186 49.99144,65.27175 49.49913,64.23182 44.10691,65.14591 44.60302,66.19276 "
         id="polygon30"
         style="fill:#002a56" />
      <path
         d="m 46.41668,63.62197 c 1.61452,-0.45981 2.29214,-1.89732 1.85376,-3.43855 -0.43976,-1.54123 -1.85307,-2.38341 -3.38738,-1.94572 -1.61383,0.45981 -2.29179,1.89663 -1.85272,3.43786 0.45946,1.61452 1.91772,2.36543 3.38635,1.94641 z m -2.30078,-2.2548 c -0.23267,-0.81867 0.19188,-1.63526 1.11772,-1.8994 0.85393,-0.24339 1.67675,0.06223 1.95091,1.02472 0.2306,0.81037 -0.24927,1.65186 -1.11772,1.8994 -0.92653,0.26413 -1.71201,-0.18531 -1.95091,-1.02472 z"
         id="path32"
         style="fill:#002a56" />
      <path
         d="m 47.14684,55.5466 -1.82368,0.25722 -0.06188,-0.43907 1.64598,-1.52325 -0.20432,-1.44373 -1.84062,1.80813 c -0.18116,-0.26275 -0.65964,-0.80346 -1.62697,-0.66655 -0.96111,0.13552 -1.59654,0.74123 -1.39672,2.16284 0.02074,0.14935 0.22403,1.47969 0.26482,1.7701 l 5.21141,-0.73431 -0.16802,-1.19136 z m -4.09473,0.57666 c -0.04218,-0.24408 -0.06292,-0.3395 -0.08816,-0.51927 -0.08055,-0.57252 0.17355,-0.76059 0.4643,-0.80138 0.43907,-0.06154 0.65341,0.27243 0.71772,0.72671 l 0.06085,0.43146 -1.15471,0.16249 z"
         id="path34"
         style="fill:#002a56" />
      <polygon
         points="46.62791,48.52706 45.50051,48.55887 45.56067,50.70096 41.42722,50.81643 41.46041,52.01954 46.72126,51.87158 "
         id="polygon36"
         style="fill:#002a56" />
      <path
         d="m 46.65177,47.80243 c 0.04633,-0.5013 0.12446,-1.18928 0.15004,-1.46655 0.18462,-1.99966 -0.93552,-3.11565 -2.40311,-3.24979 -1.39291,-0.1293 -2.67762,0.6057 -2.87053,2.70216 -0.03181,0.34434 -0.09507,1.27502 -0.12066,1.55229 l -0.0093,0.1051 5.24183,0.48401 0.01175,-0.12723 z m -0.96941,-1.60761 c -0.0159,0.17217 -0.02558,0.27727 -0.05532,0.43284 l -2.99533,-0.27658 c -0.009,-0.15143 0.0066,-0.31668 0.01867,-0.44391 0.08954,-0.97355 0.66448,-1.63734 1.63077,-1.54883 0.99602,0.09265 1.49663,0.80277 1.40121,1.83647 z"
         id="path38"
         style="fill:#002a56" />
      <polygon
         points="46.94286,36.00917 43.46801,36.02991 43.12125,37.19015 46.02359,39.0854 42.58504,38.98376 42.19472,40.28713 47.68375,40.30372 48.01322,39.20225 45.0815,37.19568 48.63725,37.11271 48.96707,36.01124 44.34857,33.08367 44.01667,34.19274 "
         id="polygon40"
         style="fill:#002a56" />
      <rect
         x="47.01828"
         y="29.858841"
         width="1.20389"
         height="5.2645302"
         transform="rotate(-66.18191,47.620214,32.4911)"
         id="rect42"
         style="fill:#002a56" />
      <path
         d="m 50.83846,31.71668 c 0.24961,-0.43838 0.60398,-1.03233 0.74192,-1.27433 0.99118,-1.7459 0.42939,-3.22351 -0.85255,-3.9516 -1.2159,-0.69006 -2.68799,-0.5497 -3.72757,1.28125 -0.17148,0.30078 -0.61193,1.1229 -0.74918,1.36422 l -0.05186,0.09196 4.57667,2.59914 0.06258,-0.11063 z m -0.44875,-1.49213 -2.61573,-1.48591 c 0.05393,-0.14105 0.13621,-0.28557 0.19914,-0.3962 0.48332,-0.84978 1.28055,-1.21902 2.12377,-0.73915 0.86984,0.49369 1.03267,1.34762 0.52031,2.24996 -0.08505,0.15004 -0.13691,0.24131 -0.22748,0.37131 z"
         id="path44"
         style="fill:#002a56" />
      <polygon
         points="51.68686,24.27882 50.94425,23.72774 52.08582,22.18652 51.17969,21.51512 49.32178,24.02299 53.5503,27.1573 55.45384,24.58928 54.54736,23.91789 53.36084,25.51858 52.59403,24.95022 53.60078,23.59084 52.69498,22.91876 "
         id="polygon46"
         style="fill:#002a56" />
      <polygon
         points="59.12748,18.06275 56.12247,16.31893 55.23535,17.14313 56.77588,20.24771 53.86352,18.41677 52.86715,19.3433 57.58971,22.1395 58.43189,21.35678 56.92212,18.14088 60.02982,19.87295 60.87234,19.08885 58.3745,14.22593 57.52645,15.01348 "
         id="polygon48"
         style="fill:#002a56" />
      <polygon
         points="61.6115,14.57303 61.08634,13.81175 62.66595,12.72273 62.02567,11.79412 59.45523,13.56421 62.44296,17.90095 65.07528,16.08729 64.43501,15.1573 62.79317,16.2885 62.25074,15.50233 63.64469,14.54192 63.0051,13.61261 "
         id="polygon50"
         style="fill:#002a56" />
      <path
         d="m 67.25886,14.8904 c 1.00743,-0.5414 1.51703,-1.40432 0.9936,-2.37787 -0.32083,-0.59672 -0.82662,-0.7599 -1.23215,-0.70458 l -0.0073,-0.01314 c 0.22368,-0.41003 0.2344,-0.83457 -0.02524,-1.31858 -0.34572,-0.64166 -1.07001,-0.90994 -2.17597,-0.3153 -0.50406,0.27105 -1.13224,0.64304 -1.38323,0.79447 l 2.47779,4.61055 c 0.28557,-0.11962 0.90925,-0.43768 1.35246,-0.67554 z m -0.09507,-1.86206 c 0.16768,0.31184 0.05843,0.60086 -0.35264,0.82144 -0.19879,0.10717 -0.29525,0.13345 -0.37891,0.15281 l -0.46638,-0.86776 0.41072,-0.22057 c 0.34434,-0.18531 0.6306,-0.17701 0.78721,0.11409 z m -1.6968,-0.82074 -0.45186,-0.8408 c 0.11201,-0.07744 0.18427,-0.13345 0.31668,-0.20467 0.2586,-0.13967 0.58565,-0.13552 0.735,0.14244 0.1815,0.33812 0.02351,0.56837 -0.24823,0.71426 l -0.3516,0.18876 z"
         id="path52"
         style="fill:#002a56" />
      <path
         d="m 73.49153,12.23249 c 0.67277,-0.23786 1.23284,-0.70735 1.41193,-1.14641 L 74.16984,10.3891 c -0.24477,0.36647 -0.59464,0.61746 -0.94866,0.74399 -0.89265,0.3153 -1.72308,-0.09196 -2.03492,-0.97079 -0.34641,-0.9777 0.09058,-1.72308 0.8567,-1.99412 0.46811,-0.16595 0.79447,-0.12169 1.12152,-0.05462 l 0.20121,-1.02887 c -0.40035,-0.18531 -1.04062,-0.21296 -1.69957,0.02074 -1.70787,0.60501 -2.18911,2.05981 -1.68436,3.48418 0.54831,1.54469 1.97269,2.18842 3.50977,1.64287 z"
         id="path54"
         style="fill:#002a56" />
      <path
         d="m 77.87529,11.03699 c 1.56681,-0.33397 2.50233,-1.68643 2.16975,-3.24633 -0.34918,-1.6408 -1.73691,-2.41452 -3.30372,-2.08055 -1.6408,0.34918 -2.48781,1.75143 -2.17044,3.24564 0.34987,1.6408 1.73691,2.41452 3.30441,2.08125 z M 76.97641,6.81296 c 0.83181,-0.17701 1.61798,0.30216 1.8185,1.24391 C 78.97953,8.92532 78.61859,9.72463 77.6402,9.93276 76.816,10.10839 76.00978,9.57252 75.82239,8.68954 75.62187,7.74779 76.12248,6.99481 76.97641,6.81296 Z"
         id="path56"
         style="fill:#002a56" />
      <polygon
         points="82.32334,7.07432 85.00476,10.07934 85.96587,10.02264 85.65265,4.76559 84.52628,4.83266 84.71574,8.00224 82.03294,4.98132 81.07183,5.03871 81.38575,10.29507 82.51142,10.22869 "
         id="polygon58"
         style="fill:#002a56" />
      <path
         d="M 88.64176,9.13344 C 88.27391,9.10855 87.82724,8.90665 87.55204,8.50423 l -0.7357,0.77373 c 0.2178,0.57943 1.01642,0.93276 1.72169,0.97839 1.01366,0.06569 1.84201,-0.51305 1.90147,-1.42852 0.11132,-1.71132 -2.09369,-1.64356 -2.03699,-2.51409 0.01521,-0.23993 0.21988,-0.37753 0.55039,-0.3554 0.38997,0.0242 0.55454,0.17148 0.77234,0.4038 L 90.42913,5.50337 C 90.12213,5.1293 89.59594,4.86932 88.92109,4.82506 87.8701,4.7573 87.17865,5.42039 87.12679,6.23076 c -0.10994,1.69611 2.08747,1.74106 2.0363,2.52861 -0.0159,0.24823 -0.20674,0.39412 -0.52135,0.37407 z"
         id="path60"
         style="fill:#002a56" />
      <path
         d="m 93.50399,10.89801 c 1.57303,0.30838 2.96353,-0.57044 3.26984,-2.13587 0.32152,-1.64633 -0.65065,-2.90199 -2.22437,-3.20968 -1.64633,-0.3229 -2.97597,0.63682 -3.26915,2.13518 -0.32221,1.64702 0.65134,2.90268 2.22368,3.21037 z M 92.53528,7.93379 c 0.18531,-0.9452 0.94105,-1.44166 1.79775,-1.27364 0.83457,0.16318 1.37044,0.91201 1.18583,1.85722 -0.1701,0.87053 -0.8159,1.46586 -1.79775,1.27295 -0.82697,-0.1618 -1.35869,-0.97079 -1.18583,-1.85653 z"
         id="path62"
         style="fill:#002a56" />
      <path
         d="m 98.76657,10.26534 0.41971,0.14313 0.61124,2.16007 1.38012,0.47433 -0.77649,-2.46223 c 0.31737,-0.04287 1.01573,-0.22472 1.33379,-1.14987 0.3153,-0.91824 0.0636,-1.76042 -1.29577,-2.22783 -0.14244,-0.0484 -1.42092,-0.47156 -1.69888,-0.56698 l -1.71132,4.98116 1.13881,0.39136 0.59879,-1.74313 z m 0.74606,-2.17045 c 0.23717,0.07329 0.33258,0.09818 0.50268,0.15627 0.54831,0.18807 0.60017,0.50061 0.50475,0.77857 -0.14451,0.41971 -0.54002,0.45843 -0.97355,0.30977 L 99.13372,9.19775 99.51263,8.0949 Z"
         id="path64"
         style="fill:#002a56" />
      <polygon
         points="103.39647,14.13535 105.16588,10.39256 106.59509,11.0681 107.07703,10.04684 103.13096,8.18132 102.64764,9.20259 104.07755,9.87744 102.30745,13.62091 "
         id="polygon66"
         style="fill:#002a56" />
      <rect
         x="104.62812"
         y="12.62727"
         width="5.2646298"
         height="1.20285"
         transform="rotate(-59.6634,107.26043,13.22869)"
         id="rect68"
         style="fill:#002a56" />
      <path
         d="m 109.31177,17.82973 c 0.91132,0.66655 2.12273,0.74261 3.07278,-0.55661 l 1.8261,-2.49335 -0.97148,-0.7108 -1.68297,2.29974 c -0.49784,0.67969 -0.98876,0.98185 -1.57787,0.55108 -0.679,-0.49784 -0.51167,-1.1478 -0.027,-1.80951 l 1.64425,-2.24512 -0.97148,-0.7108 -1.7943,2.45117 c -0.91063,1.2446 -0.60985,2.42489 0.48194,3.2242 z"
         id="path70"
         style="fill:#002a56" />
      <polygon
         points="115.82794,23.6019 119.55966,19.88539 118.75759,19.08055 116.10175,19.55834 116.52768,16.84166 115.67306,15.98288 111.94203,19.70008 112.79112,20.55194 115.1524,18.20034 114.74306,20.66811 114.86545,20.79118 117.35603,20.38047 114.97815,22.74866 "
         id="polygon72"
         style="fill:#002a56" />
      <polygon
         points="124.07686,33.35748 126.65111,31.02317 126.13529,29.92723 122.70919,30.45342 125.33736,28.23388 124.75724,27.00242 120.65906,30.65394 121.14929,31.69456 124.6715,31.23267 122.07859,33.66725 122.56882,34.70856 127.96139,33.80554 127.46839,32.75731 "
         id="polygon74"
         style="fill:#002a56" />
      <path
         d="m 125.64713,35.32256 c -1.61314,0.45774 -2.29283,1.89248 -1.85514,3.43302 0.43699,1.54123 1.84754,2.38341 3.38116,1.94849 1.61383,-0.45774 2.29283,-1.89317 1.85583,-3.43371 -0.45704,-1.61314 -1.91322,-2.36405 -3.38185,-1.9478 z m 2.29698,2.25549 c 0.23163,0.81729 -0.19291,1.63388 -1.11945,1.89663 -0.85324,0.24201 -1.67468,-0.0643 -1.9478,-1.02679 -0.22956,-0.81037 0.25099,-1.64978 1.11876,-1.89594 0.92584,-0.26275 1.70994,0.18669 1.94849,1.0261 z"
         id="path76"
         style="fill:#002a56" />
      <path
         d="m 124.90867,43.41384 1.82541,-0.25307 0.0608,0.43976 -1.64978,1.51979 0.20121,1.44512 1.84546,-1.80467 c 0.18047,0.26275 0.65825,0.80415 1.62697,0.67001 0.96111,-0.13414 1.59862,-0.73915 1.40086,-2.16214 -0.02,-0.14866 -0.22126,-1.48038 -0.26067,-1.77079 l -5.21625,0.72394 0.16595,1.19205 z m 4.09749,-0.56906 c 0.0422,0.24477 0.0629,0.34088 0.0878,0.51927 0.0788,0.5739 -0.17563,0.76059 -0.46603,0.80207 -0.43976,0.06085 -0.65272,-0.27381 -0.71634,-0.72878 l -0.0595,-0.43215 z"
         id="path78"
         style="fill:#002a56" />
      <polygon
         points="125.40582,50.43406 126.53425,50.40641 126.48101,48.26362 130.61515,48.16129 130.58473,46.95818 125.32284,47.08955 "
         id="polygon80"
         style="fill:#002a56" />
      <path
         d="m 125.39683,51.03216 -0.0125,0.12723 c -0.0477,0.50199 -0.12861,1.18928 -0.15557,1.46724 -0.19015,1.99966 0.92653,3.11979 2.39516,3.25947 1.39326,0.13345 2.68004,-0.5981 2.88055,-2.69525 0.0325,-0.34434 0.0989,-1.27571 0.12515,-1.55229 l 0.0104,-0.1051 -5.24322,-0.5013 z m 3.98479,2.0363 c -0.0926,0.97424 -0.67001,1.63665 -1.63596,1.54399 -0.99637,-0.09542 -1.49559,-0.80761 -1.39672,-1.84062 0.0166,-0.17286 0.0263,-0.27796 0.0567,-0.43423 l 2.99533,0.28695 c 0.008,0.15143 -0.007,0.31599 -0.0194,0.44391 z"
         id="path82"
         style="fill:#002a56" />
      <polygon
         points="125.06217,62.96164 128.54151,62.95127 128.89138,61.79172 125.99216,59.88472 129.43417,59.99673 129.82829,58.69267 124.33408,58.66017 124.0008,59.76233 126.92976,61.77996 123.36882,61.85187 123.03555,62.95473 127.65093,65.89889 127.98559,64.78913 "
         id="polygon84"
         style="fill:#002a56" />
      <rect
         x="123.78554"
         y="63.823631"
         width="1.20357"
         height="5.26478"
         transform="rotate(-66.09787,124.38732,66.456019)"
         id="rect86"
         style="fill:#002a56" />
      <path
         d="m 121.16104,67.2396 c -0.24961,0.43768 -0.60501,1.03094 -0.7433,1.27364 -0.9943,1.74382 -0.43423,3.22282 0.84633,3.95229 1.21487,0.69283 2.68833,0.55454 3.73034,-1.27502 0.17079,-0.30147 0.61331,-1.12221 0.75091,-1.36422 l 0.0532,-0.09196 -4.57459,-2.60605 -0.0629,0.11132 z m 0.44737,1.49214 2.61366,1.48937 c -0.0553,0.14244 -0.1376,0.28626 -0.20052,0.39758 -0.48401,0.84909 -1.28194,1.21694 -2.12481,0.73639 -0.86914,-0.49507 -1.03094,-1.3497 -0.5172,-2.25134 0.0857,-0.15004 0.1376,-0.24201 0.22887,-0.372 z"
         id="path88"
         style="fill:#002a56" />
      <polygon
         points="120.30296,74.66156 121.04488,75.2154 119.89778,76.75456 120.80288,77.42872 122.66977,74.92431 118.44574,71.77686 116.53459,74.34073 117.439,75.01489 118.63105,73.41627 119.39786,73.98809 118.38559,75.3447 119.29069,76.01955 "
         id="polygon90"
         style="fill:#002a56" />
      <polygon
         points="112.84298,80.87625 115.84868,82.62492 116.7365,81.80141 115.19872,78.69268 118.11109,80.52846 119.10953,79.60261 114.38766,76.79881 113.54341,77.58083 115.05006,80.8002 111.94341,79.06398 111.09916,79.84669 113.59112,84.71653 114.4409,83.92898 "
         id="polygon92"
         style="fill:#002a56" />
      <polygon
         points="110.35032,84.35283 110.87444,85.1155 109.2931,86.20037 109.93131,87.12967 112.50348,85.36441 109.52612,81.02491 106.89103,82.83235 107.52923,83.76234 109.1721,82.63529 109.71212,83.42284 108.31748,84.38049 108.95568,85.30979 "
         id="polygon94"
         style="fill:#002a56" />
      <path
         d="m 104.70399,84.0244 c -1.00743,0.53863 -1.5191,1.40086 -0.99775,2.37511 0.31876,0.59602 0.82489,0.76128 1.23077,0.70596 l 0.007,0.01314 c -0.22403,0.41003 -0.23647,0.83457 0.0228,1.31789 0.34365,0.64304 1.06828,0.91271 2.17528,0.32014 0.50406,-0.26897 1.13258,-0.63959 1.38427,-0.7917 l -2.46845,-4.614 c -0.28626,0.11962 -0.90994,0.43561 -1.35385,0.67347 z m 0.0913,1.86067 c -0.16595,-0.31184 -0.0567,-0.60017 0.35471,-0.82005 0.19844,-0.10717 0.29525,-0.13276 0.3796,-0.15212 l 0.46396,0.86845 -0.41072,0.21988 c -0.34503,0.18392 -0.63129,0.17563 -0.78755,-0.11616 z m 1.69473,0.8242 0.45013,0.84218 c -0.11201,0.07744 -0.18462,0.13345 -0.31668,0.20328 -0.2586,0.13829 -0.58565,0.13483 -0.73431,-0.14382 -0.18047,-0.33812 -0.0228,-0.56837 0.2503,-0.71357 z"
         id="path96"
         style="fill:#002a56" />
      <path
         d="m 98.47893,86.66225 c -0.67347,0.23647 -1.23423,0.70527 -1.414,1.14365 l 0.73155,0.69836 c 0.24615,-0.36508 0.59602,-0.61608 0.95143,-0.74054 0.89335,-0.3153 1.72308,0.09404 2.03284,0.97355 0.34434,0.97839 -0.0954,1.72377 -0.86154,1.99343 -0.46742,0.16387 -0.79378,0.12031 -1.12014,0.05186 l -0.20467,1.02818 c 0.40035,0.186 1.03993,0.21573 1.69957,-0.01659 1.70994,-0.60225 2.19395,-2.05635 1.69196,-3.48142 -0.54417,-1.54607 -1.96716,-2.19257 -3.507,-1.65048 z"
         id="path98"
         style="fill:#002a56" />
      <path
         d="m 94.07789,87.8543 c -1.56819,0.33051 -2.50579,1.68228 -2.17736,3.24287 0.34641,1.64218 1.73276,2.41936 3.30164,2.08816 1.64149,-0.34572 2.49196,-1.74728 2.17666,-3.24287 -0.34572,-1.64149 -1.73207,-2.41798 -3.30095,-2.08816 z m 0.89127,4.2268 c -0.83181,0.17494 -1.61867,-0.30493 -1.81642,-1.24736 -0.18323,-0.86914 0.17839,-1.66845 1.15817,-1.8745 0.82489,-0.17424 1.62973,0.3637 1.81642,1.24736 0.19844,0.94244 -0.30424,1.69404 -1.15817,1.8745 z"
         id="path100"
         style="fill:#002a56" />
      <polygon
         points="87.25126,90.87453 89.92784,93.89545 90.88895,93.83944 90.58195,88.58585 89.45628,88.65085 89.6402,91.80383 86.96431,88.79743 86.0039,88.85275 86.31021,94.10703 87.43657,94.04134 "
         id="polygon102"
         style="fill:#002a56" />
      <path
         d="m 83.30658,89.73503 c 0.36785,0.0242 0.81452,0.22818 1.08972,0.63129 l 0.73777,-0.77303 c -0.2178,-0.58081 -1.01642,-0.93552 -1.72239,-0.98254 -1.01366,-0.06845 -1.84408,0.51029 -1.90493,1.42645 -0.11409,1.71271 2.093,1.64771 2.03423,2.51962 -0.0159,0.23993 -0.22126,0.37753 -0.55246,0.3554 -0.38928,-0.02627 -0.55385,-0.17286 -0.77165,-0.40588 l -0.70596,0.85739 c 0.307,0.37545 0.8325,0.63682 1.50804,0.68245 1.05099,0.06914 1.74451,-0.59257 1.79914,-1.40363 0.1134,-1.69749 -2.08678,-1.74659 -2.03423,-2.53552 0.01659,-0.24754 0.20674,-0.39274 0.52273,-0.372 z"
         id="path104"
         style="fill:#002a56" />
      <path
         d="m 78.44711,87.95871 c -1.57165,-0.30908 -2.96353,0.56698 -3.27191,2.13103 -0.32429,1.64564 0.64719,2.90199 2.21953,3.21176 1.64494,0.32498 2.97597,-0.63198 3.27122,-2.12965 0.32498,-1.64564 -0.6465,-2.90337 -2.21884,-3.21314 z m 0.96457,2.9656 c -0.186,0.94451 -0.94313,1.43959 -1.79914,1.27087 -0.83388,-0.16456 -1.36837,-0.9134 -1.18237,-1.85791 0.17148,-0.87122 0.81729,-1.46448 1.79844,-1.27156 0.82697,0.16318 1.3573,0.97286 1.18306,1.8586 z"
         id="path106"
         style="fill:#002a56" />
      <path
         d="m 73.19629,88.57894 -0.41971,-0.14589 -0.60501,-2.16076 -1.37874,-0.47779 0.76958,2.465 c -0.31668,0.04149 -1.01573,0.22126 -1.33656,1.14434 -0.31806,0.91755 -0.06845,1.76042 1.28885,2.23129 0.14244,0.04909 1.41953,0.47571 1.6968,0.57182 l 1.72584,-4.97494 -1.13812,-0.39481 -0.60294,1.74175 z M 72.444,90.7473 c -0.23717,-0.07468 -0.33189,-0.09957 -0.50199,-0.15903 -0.54831,-0.19015 -0.59879,-0.50199 -0.50268,-0.77857 0.1452,-0.4204 0.54002,-0.45774 0.97424,-0.30769 l 0.41279,0.14313 -0.38237,1.10216 z"
         id="path108"
         style="fill:#002a56" />
      <polygon
         points="67.86664,88.95024 69.64642,85.21161 68.55878,84.69371 66.77935,88.43235 65.35186,87.75266 64.86716,88.77254 68.80839,90.64912 69.29447,89.62993 "
         id="polygon110"
         style="fill:#002a56" />
      <rect
         x="62.077438"
         y="85.001503"
         width="5.2656999"
         height="1.20362"
         transform="rotate(-59.57622,64.710293,85.603308)"
         id="rect112"
         style="fill:#002a56" />
      <path
         d="m 62.65454,80.9855 c -0.90925,-0.66863 -2.12135,-0.74814 -3.07623,0.54901 l -1.8344,2.48989 0.9701,0.71426 1.69093,-2.29698 c 0.49957,-0.67831 0.99257,-0.97908 1.58029,-0.54624 0.679,0.49991 0.50821,1.14987 0.02213,1.8102 l -1.65186,2.24304 0.9701,0.71357 1.80259,-2.4484 c 0.91513,-1.24252 0.61677,-2.4242 -0.47364,-3.22835 z"
         id="path114"
         style="fill:#002a56" />
      <polygon
         points="56.15497,75.20711 52.42048,78.91394 53.21979,79.71947 55.87424,79.24583 55.44347,81.96113 56.29602,82.8199 60.03189,79.11307 59.18418,78.25914 56.82048,80.60521 57.23362,78.14021 57.11227,78.01783 54.62273,78.42163 57.00268,76.06104 "
         id="polygon116"
         style="fill:#002a56" />
      <path
         d="m 51.29446,72.95093 c -0.60916,0 -1.12048,0.51098 -1.12048,1.12774 0,0.60916 0.51132,1.12844 1.12048,1.12844 0.61642,0 1.13535,-0.51927 1.13535,-1.12844 0,-0.61677 -0.51893,-1.12774 -1.13535,-1.12774 z"
         id="path118"
         style="fill:#002a56" />
      <path
         d="m 119.083,25.02476 c 0,0.60916 0.51132,1.12844 1.12048,1.12844 0.61642,0 1.13535,-0.51927 1.13535,-1.12844 0,-0.61677 -0.51893,-1.12774 -1.13535,-1.12774 -0.60916,0 -1.12048,0.51098 -1.12048,1.12774 z"
         id="path120"
         style="fill:#002a56" />
    </g>
  </g>
</svg>
