<?xml version="1.0" encoding="UTF-8" standalone="no"?>
<!-- Created with Inkscape (http://www.inkscape.org/) -->

<svg
   width="72"
   height="48"
   viewBox="0 0 72 48.000002"
   version="1.1"
   id="svg1"
   xml:space="preserve"
   xmlns="http://www.w3.org/2000/svg"
   xmlns:svg="http://www.w3.org/2000/svg"><defs
     id="defs1" /><rect
     style="fill:#ffffff;stroke-width:2.86784;stroke-linecap:round"
     id="rect1"
     width="72"
     height="48"
     x="-4.5654296e-08"
     y="1.7822266e-07" /><g
     id="g40"
     style="fill:#005a9c"
     transform="matrix(1.186736,0,0,1.186736,-23.06683,-34.533248)"><path
       d="m 66.60074,51.67563 c 0.66833,-0.84229 0.5271,-2.07263 -0.31628,-2.74323 -0.84344,-0.66943 -2.07483,-0.5271 -2.74432,0.31635 -0.82922,1.04547 -1.5824,1.6748 -2.44104,2.04108 -1.58356,0.67383 -2.92578,0.38904 -4.22351,-0.89667 -1.27161,-1.25964 -2.51062,-2.63232 -3.71265,-3.96265 -0.58801,-0.651 -1.17706,-1.3031 -1.77374,-1.94763 -1.01947,-1.10095 -2.04431,-2.19757 -3.06818,-3.29529 L 48.23081,41.09085 C 46.00388,38.70743 43.70194,36.2424 41.48148,33.76657 39.7208,31.80264 37.0004,30.82986 34.38327,31.22336 c -2.67474,0.39996 -4.83759,2.11176 -6.0907,4.81909 -1.20746,2.60736 -0.79883,5.57007 1.06512,7.73181 3.27899,3.80292 6.04504,6.94714 9.28491,9.90448 1.32489,1.20856 2.92804,1.85193 4.63544,1.86066 1.10748,0.0054 2.77686,-0.11957 4.47998,-1.26617 0.74561,-0.50208 1.44006,-1.01837 1.74548,-1.80634 0.31085,-0.80646 0.02063,-1.73352 -0.70752,-2.25629 -0.70648,-0.50867 -1.63354,-0.47278 -2.30737,0.08691 -0.08484,0.07062 -0.17719,0.15216 -0.27826,0.24023 -1.05859,0.92706 -2.37585,2.0813 -5.06146,0.1532 -2.46063,-1.76721 -4.36584,-4.08331 -6.57324,-6.76562 -0.71948,-0.87384 -1.46399,-1.77808 -2.25958,-2.7019 -0.84991,-0.98578 -1.03357,-2.3421 -0.47931,-3.54095 0.4837,-1.04333 1.4173,-2.34106 3.12579,-2.59644 1.29443,-0.19458 2.74536,0.32275 3.61163,1.2879 2.23889,2.49756 4.55823,4.98212 6.80145,7.38293 1.05103,1.12488 2.10193,2.25085 3.14752,3.38013 0.58582,0.63257 1.164,1.27264 1.75092,1.92261 1.23248,1.36401 2.50629,2.77368 3.85181,4.10724 2.42908,2.40729 5.44836,3.01703 8.50568,1.71613 1.46832,-0.62714 2.73016,-1.64551 3.96918,-3.20734 z"
       id="path35" /><path
       d="m 69.34055,38.08291 c 1.26294,-0.59888 2.25629,-1.72595 2.35083,-3.09326 0.24023,-2.3736 -1.71393,-4.64514 -4.58868,-4.99622 -1.76501,-0.22388 -3.40289,0.29895 -4.5636,1.2608 -0.62061,0.51624 -0.78802,1.47156 -0.25,2.14545 0.58795,0.70099 1.26617,0.82373 2.37585,0.21411 0.39777,-0.22607 0.99554,-0.41412 1.65308,-0.36847 1.24011,0.08588 1.59546,1.20312 1.56073,1.71069 -0.0055,0.07501 0.0022,1.80524 -1.74438,1.68463 l -0.65863,-0.04565 c -0.73364,-0.05005 -1.46729,0.6358 -1.52161,1.42047 -0.05872,0.83478 0.55212,1.56396 1.31183,1.61725 l 0.80969,0.05542 c 2.22809,0.15436 1.99548,2.04547 1.94873,2.34766 -0.04346,0.86945 -1.43903,2.3443 -3.92786,0.66724 -0.84448,-0.56836 -6.8678,-8.13397 -6.8678,-8.13397 -2.85406,-3.68982 -7.70361,-4.33978 -11.5304,-1.54437 -0.42059,0.30756 -0.69775,0.7608 -0.7782,1.2771 -0.07935,0.51514 0.04565,1.03137 0.35327,1.45197 0.30756,0.42059 0.7608,0.69781 1.27594,0.7782 0.51843,0.08044 1.03247,-0.04565 1.45312,-0.35321 2.6106,-1.90741 4.9375,-0.77063 6.13416,0.7771 0,0 6.46674,8.31763 8.13177,9.19904 1.08038,0.57172 2.2085,0.9021 3.3551,0.98145 3.51923,0.24347 5.66248,-1.6955 6.24072,-4.35175 0.37927,-1.74109 -0.7467,-3.91699 -2.52368,-4.70166 z"
       id="path36" /><path
       d="m 33.89493,67.19205 c -0.05273,0 -0.10742,0.02441 -0.16309,0.07324 -0.10156,0.10938 -0.2041,0.20215 -0.30664,0.28125 -0.10352,0.0791 -0.21387,0.14355 -0.33105,0.19434 -0.11718,0.05079 -0.24512,0.08789 -0.38281,0.1123 -0.13867,0.02539 -0.29492,0.03711 -0.46973,0.03711 -0.28418,0 -0.54883,-0.06152 -0.7959,-0.18359 -0.24609,-0.12207 -0.46094,-0.29883 -0.64258,-0.53027 -0.18164,-0.23047 -0.3252,-0.51465 -0.43066,-0.85059 -0.10449,-0.33594 -0.15723,-0.7168 -0.15723,-1.14355 0,-0.42383 0.0498,-0.80273 0.14941,-1.13672 0.09961,-0.33399 0.23926,-0.61719 0.41992,-0.85059 0.18066,-0.23242 0.39551,-0.41016 0.64551,-0.53223 0.25,-0.12305 0.52637,-0.18457 0.82715,-0.18457 0.25488,0 0.46875,0.03223 0.63965,0.09473 0.17188,0.06348 0.31543,0.13281 0.43066,0.20801 0.11621,0.0752 0.20898,0.14355 0.28125,0.20703 0.07129,0.0625 0.13672,0.09473 0.19629,0.09473 0.0498,0 0.08984,-0.01074 0.12109,-0.03223 0.03125,-0.02051 0.05762,-0.04688 0.0791,-0.07812 l 0.31445,-0.44141 C 34.06777,62.26139 33.77284,62.0485 33.43495,61.8903 33.09804,61.73307 32.70643,61.65495 32.2621,61.65495 c -0.44824,0 -0.85742,0.08496 -1.22852,0.25684 -0.37012,0.17188 -0.68945,0.41309 -0.95508,0.72461 -0.26563,0.31152 -0.47266,0.68262 -0.61914,1.11523 -0.14746,0.43262 -0.2207,0.90918 -0.2207,1.43066 0,0.52148 0.06934,0.99805 0.20703,1.42969 0.13867,0.43262 0.33594,0.80371 0.59375,1.11328 0.25684,0.30957 0.56641,0.5498 0.92871,0.72168 0.3623,0.1709 0.76758,0.25684 1.21582,0.25684 0.50684,0 0.94238,-0.09082 1.30664,-0.27246 0.36426,-0.18262 0.66992,-0.4375 0.91797,-0.7666 l -0.37695,-0.40918 c -0.04297,-0.04199 -0.08789,-0.06348 -0.13672,-0.06348 z"
       id="path37" /><polygon
       points="36.52969,61.73306 35.56876,61.73306 35.56876,68.63052 36.52969,68.63052 36.52969,65.50162 39.83633,65.50162 39.83633,68.63052 40.79727,68.63052 40.79727,61.73306 39.83633,61.73306 39.83633,64.80435 36.52969,64.80435 "
       id="polygon37" /><path
       d="m 44.37637,61.73306 -2.58789,6.89746 h 0.74023 c 0.08008,0 0.14941,-0.02246 0.20703,-0.06836 0.05762,-0.04492 0.09766,-0.09766 0.11816,-0.15723 l 0.58301,-1.65332 h 2.84473 l 0.58789,1.6582 c 0.02832,0.06348 0.06738,0.11523 0.11816,0.1582 0.05078,0.04102 0.11816,0.0625 0.20215,0.0625 h 0.74023 l -2.58301,-6.89746 h -0.9707 z m -0.69824,4.33594 0.97656,-2.77148 c 0.03125,-0.08398 0.06445,-0.18164 0.09961,-0.29395 0.03516,-0.11231 0.07031,-0.23438 0.10449,-0.36719 0.03223,0.12891 0.06543,0.25 0.10059,0.3623 0.03418,0.11133 0.06934,0.20996 0.10449,0.29395 l 0.97656,2.77637 z"
       id="path38" /><path
       d="m 52.79629,62.31607 c -0.20312,-0.18555 -0.45996,-0.3291 -0.76953,-0.43066 -0.30957,-0.10156 -0.6748,-0.15234 -1.09473,-0.15234 h -1.97852 v 6.89746 h 0.95508 v -2.57227 h 1.02344 c 0.40332,0 0.75684,-0.05273 1.06348,-0.16016 0.30566,-0.10645 0.56348,-0.25684 0.77148,-0.45117 0.208,-0.19433 0.36523,-0.42383 0.47266,-0.69043 0.10645,-0.26562 0.16016,-0.55957 0.16016,-0.88184 0,-0.3252 -0.0498,-0.62012 -0.14941,-0.88379 -0.10059,-0.26465 -0.25195,-0.48926 -0.4541,-0.6748 z m -0.44921,2.13672 c -0.06445,0.1748 -0.16113,0.3252 -0.28906,0.45117 -0.12695,0.12598 -0.28613,0.22363 -0.47461,0.29395 -0.18848,0.06934 -0.40625,0.10449 -0.65137,0.10449 H 49.9086 v -2.81836 h 1.02344 c 0.51172,0 0.89062,0.12109 1.13965,0.36426 0.24805,0.24414 0.37207,0.58594 0.37207,1.02637 0,0.20996 -0.03223,0.40234 -0.09668,0.57812 z"
       id="path39" /><polygon
       points="59.01504,61.73306 54.02872,61.73306 54.02872,62.53091 56.04434,62.53091 56.04434,68.63052 57.00528,68.63052 57.00528,62.53091 59.01504,62.53091 "
       id="polygon39" /><polygon
       points="63.55118,64.77212 61.07852,64.77212 61.07852,62.5104 64.14883,62.5104 64.14883,61.73306 60.11758,61.73306 60.11758,68.63052 64.14883,68.63052 64.15469,67.85318 61.07852,67.85318 61.07852,65.5231 63.55118,65.5231 "
       id="polygon40" /><path
       d="m 68.49454,65.73013 c -0.05176,-0.04688 -0.1084,-0.08984 -0.16797,-0.12793 0.24902,-0.06348 0.4707,-0.15527 0.66699,-0.27637 0.19629,-0.12012 0.36133,-0.26465 0.49609,-0.43262 0.13476,-0.16797 0.23828,-0.35645 0.30957,-0.56738 0.07227,-0.20898 0.10742,-0.43555 0.10742,-0.67676 0,-0.29395 -0.04688,-0.55859 -0.1416,-0.79492 -0.09472,-0.23633 -0.24023,-0.4375 -0.43848,-0.60352 -0.19727,-0.16602 -0.44922,-0.29395 -0.75586,-0.38379 -0.30566,-0.08887 -0.66895,-0.13379 -1.08887,-0.13379 h -1.88965 v 6.89746 h 0.95508 V 65.7643 h 0.64062 c 0.12305,0 0.21484,0.0166 0.27539,0.0498 0.06152,0.0332 0.11816,0.08887 0.1709,0.16602 l 1.63281,2.45605 c 0.09082,0.12988 0.21875,0.19434 0.38281,0.19434 h 0.85059 l -1.85352,-2.72949 c -0.04883,-0.06641 -0.09961,-0.12305 -0.15234,-0.1709 z m -1.04883,-0.66406 h -0.89844 v -2.58203 h 0.93457 c 0.99707,0 1.49609,0.41113 1.49609,1.2334 0,0.19922 -0.03223,0.38281 -0.09668,0.54883 -0.06543,0.16602 -0.16211,0.30859 -0.29199,0.42773 -0.12891,0.11914 -0.28906,0.21094 -0.48047,0.27539 -0.19043,0.06445 -0.41113,0.09668 -0.66309,0.09668 z"
       id="path40" /></g></svg>
