<?xml version="1.0" encoding="UTF-8" standalone="no"?>
<svg
   id="Layer_1"
   width="72"
   height="48"
   version="1.1"
   viewBox="0 0 72.000001 48"
   xmlns="http://www.w3.org/2000/svg"
   xmlns:svg="http://www.w3.org/2000/svg">
  <defs
     id="defs1906" />
  <rect
     style="fill:#fafdff;stroke-width:48.4761;stroke-linecap:round"
     id="rect1"
     width="72"
     height="48"
     x="0"
     y="8.6169599e-08" />
  <g
     aria-label="EVANGELIST"
     id="g30"
     transform="matrix(0.53726468,0,0,0.53726468,-11.250626,-2.5603832)">
    <polygon
       points="60.0487,66.02603 64.09655,66.02603 64.09655,65.22622 60.8983,65.22622 60.8983,62.88736 63.69616,62.88736 63.69616,62.08853 60.8983,62.08853 60.8983,59.82974 63.99596,59.82974 63.99596,59.02994 60.0487,59.02994 "
       id="polygon6"
       style="fill:#005a9c" />
    <polygon
       points="67.97643,64.78677 65.59752,59.02994 64.68834,59.02994 67.63659,66.06607 68.26647,66.06607 71.14537,59.02994 70.28502,59.02994 "
       id="polygon8"
       style="fill:#005a9c" />
    <path
       d="m 73.56725,58.9899 -3.00781,7.03613 h 0.85938 l 0.88965,-2.11914 h 3.1875 l 0.89941,2.11914 h 0.91016 L 74.29675,58.9899 h -0.72949 z m -0.91895,4.11816 1.25879,-2.98926 1.25977,2.98926 h -2.51855 z"
       id="path10"
       style="fill:#005a9c" />
    <polygon
       points="84.24498,59.02994 83.44518,59.02994 83.44518,64.54654 79.07799,59.02994 78.3983,59.02994 78.3983,66.02603 79.19713,66.02603 79.19713,60.52896 83.5653,66.02603 84.24498,66.02603 "
       id="polygon12"
       style="fill:#005a9c" />
    <path
       d="m 89.16588,63.26724 h 1.88965 v 1.43945 c -0.37012,0.36035 -1.13965,0.62012 -1.7998,0.62012 -1.58887,0 -2.66797,-1.09961 -2.66797,-2.79883 0,-1.68945 1.0791,-2.79883 2.63867,-2.79883 0.66895,0 1.31934,0.19043 1.72852,0.55957 l 0.37012,-0.67871 c -0.56934,-0.4502 -1.24902,-0.67969 -2.19922,-0.67969 -2.08887,0 -3.4375,1.58887 -3.4375,3.59766 0,2.17871 1.36914,3.59766 3.54785,3.59766 0.86914,0 1.99902,-0.34961 2.61816,-0.96875 v -2.68848 h -2.68848 z"
       id="path14"
       style="fill:#005a9c" />
    <polygon
       points="93.3983,66.02603 97.44616,66.02603 97.44616,65.22622 94.24791,65.22622 94.24791,62.88736 97.04577,62.88736 97.04577,62.08853 94.24791,62.08853 94.24791,59.82974 97.34557,59.82974 97.34557,59.02994 93.3983,59.02994 "
       id="polygon16"
       style="fill:#005a9c" />
    <polygon
       points="99.03795,66.02603 103.33483,66.02603 103.33483,65.22622 99.88756,65.22622 99.88756,59.02994 99.03795,59.02994 "
       id="polygon18"
       style="fill:#005a9c" />
    <rect
       x="104.6278"
       y="59.029942"
       width="0.84960997"
       height="6.9960899"
       id="rect20"
       style="fill:#005a9c" />
    <path
       d="m 108.18737,60.75845 c 0,-0.61914 0.47949,-1.0293 1.25879,-1.0293 0.61035,0 1.0498,0.2002 1.41992,0.57031 l 0.45898,-0.63965 c -0.39941,-0.44043 -1.11914,-0.72949 -1.92871,-0.72949 -1.3291,0 -2.1084,0.81934 -2.1084,1.82812 0,2.31934 3.41797,1.76953 3.41797,3.47852 0,0.70996 -0.63965,1.08984 -1.36914,1.08984 -0.58984,0 -1.31934,-0.29004 -1.72949,-0.83008 l -0.48926,0.58008 c 0.34961,0.65918 1.34863,1.04883 2.20898,1.04883 1.26855,0 2.27832,-0.74902 2.27832,-1.89844 0,-2.38867 -3.41797,-1.73926 -3.41797,-3.46875 z"
       id="path22"
       style="fill:#005a9c" />
    <polygon
       points="112.09752,59.02994 112.09752,59.82974 114.54674,59.82974 114.54674,66.02603 115.39635,66.02603 115.39635,59.82974 117.84459,59.82974 117.84459,59.02994 "
       id="polygon24"
       style="fill:#005a9c" />
    <path
       style="fill:none;stroke:#005a9c;stroke-width:2.64627;stroke-linecap:round"
       d="m 32.083977,29.984921 0.0091,0.0099 c 0.715957,0.760925 1.805012,1.093205 2.62562,1.093205 1.499377,0 2.667223,-1.11446 2.667223,-1.11446 M 27.089647,19.685644 c 0,0 1.144231,-1.112652 2.622908,-1.112652 0.922111,0 1.945397,0.293411 2.644164,1.08325 l 4.716159,5.331236 c 0.662667,0.749042 1.800766,1.094561 2.651858,1.094561 2.584804,0 3.345798,-1.007625 3.345798,-2.250635 0,-1.243002 -1.007643,-2.250633 -2.250661,-2.250633 m -8.735896,8.40415 -9.711844,-10.320991 c -0.452039,-0.480412 -1.341578,-1.090938 -2.671759,-1.090938 -1.981835,0 -3.752251,1.598579 -3.75457,3.754527 -0.0012,1.074374 0.340997,1.871101 1.138445,2.66901 l 4.9975,5.000153 c 0.797449,0.797898 1.61293,1.094213 2.624717,1.091389 1.488084,-0.0042 1.988956,-0.405297 2.654569,-1.092753 M 39.228234,17.738645 c 0.400661,-0.413807 0.96997,-0.659202 1.591474,-0.659202 1.243028,0 2.250687,1.007657 2.250687,2.25066 0,1.241682 -1.009032,2.250668 -2.250687,2.250668"
       id="path2"
       transform="matrix(1.489024,0,0,1.489024,43.32571,4.76559)" />
  </g>
  <g
     aria-label="WORLD WIDE WEB CONSORTIUM"
     id="g124"
     transform="matrix(0.53726468,0,0,0.53726468,-11.250626,-2.5603832)">
    <polygon
       points="47.86919,69.02007 51.2946,68.48766 48.67057,70.71272 49.25311,71.9428 53.34473,68.28299 52.85242,67.24237 49.33021,67.71186 51.91897,65.27175 51.42666,64.23182 46.03444,65.14591 46.53055,66.19276 49.9207,65.58498 47.3513,67.92621 "
       id="polygon32"
       style="fill:#002a56" />
    <path
       d="m 48.34421,63.62197 c 1.61452,-0.45981 2.29214,-1.89732 1.85376,-3.43855 -0.43976,-1.54123 -1.85307,-2.38341 -3.38738,-1.94572 -1.61383,0.45981 -2.29179,1.89663 -1.85272,3.43786 0.45946,1.61452 1.91772,2.36543 3.38635,1.94641 z m -2.30078,-2.2548 c -0.23267,-0.81867 0.19188,-1.63526 1.11772,-1.8994 0.85393,-0.24339 1.67675,0.06223 1.95091,1.02472 0.2306,0.81037 -0.24927,1.65186 -1.11772,1.8994 -0.92653,0.26413 -1.71201,-0.18531 -1.95091,-1.02472 z"
       id="path34"
       style="fill:#002a56" />
    <path
       d="m 49.07437,55.5466 -1.82368,0.25722 -0.06188,-0.43907 1.64598,-1.52325 -0.20432,-1.44373 -1.84062,1.80813 c -0.18116,-0.26275 -0.65964,-0.80346 -1.62697,-0.66655 -0.96111,0.13552 -1.59654,0.74123 -1.39672,2.16284 0.02074,0.14935 0.22403,1.47969 0.26482,1.7701 l 5.21141,-0.73431 -0.16802,-1.19136 z m -4.09473,0.57666 c -0.04218,-0.24408 -0.06292,-0.3395 -0.08816,-0.51927 -0.08055,-0.57252 0.17355,-0.76059 0.4643,-0.80138 0.43907,-0.06154 0.65341,0.27243 0.71772,0.72671 l 0.06085,0.43146 -1.15471,0.16249 z"
       id="path36"
       style="fill:#002a56" />
    <polygon
       points="47.4882,50.70096 43.35475,50.81643 43.38794,52.01954 48.64879,51.87158 48.55544,48.52706 47.42805,48.55887 "
       id="polygon38"
       style="fill:#002a56" />
    <path
       d="m 48.5793,47.80243 c 0.04633,-0.5013 0.12446,-1.18928 0.15004,-1.46655 0.18462,-1.99966 -0.93552,-3.11565 -2.40311,-3.24979 -1.39291,-0.1293 -2.67762,0.6057 -2.87053,2.70216 -0.03181,0.34434 -0.09507,1.27502 -0.12066,1.55229 l -0.0093,0.1051 5.24183,0.48401 0.01175,-0.12723 z m -0.9694,-1.60761 c -0.0159,0.17217 -0.02558,0.27727 -0.05532,0.43284 l -2.99533,-0.27658 c -0.009,-0.15143 0.0066,-0.31668 0.01867,-0.44391 0.08954,-0.97355 0.66448,-1.63734 1.63077,-1.54883 0.99602,0.09265 1.49663,0.80277 1.40121,1.83647 z"
       id="path40"
       style="fill:#002a56" />
    <polygon
       points="45.04879,37.19015 47.95112,39.0854 44.51257,38.98376 44.12225,40.28713 49.61128,40.30372 49.94075,39.20225 47.00903,37.19568 50.56478,37.11271 50.8946,36.01124 46.2761,33.08367 45.94421,34.19274 48.8704,36.00917 45.39555,36.02991 "
       id="polygon42"
       style="fill:#002a56" />
    <rect
       x="48.945808"
       y="29.858841"
       width="1.20389"
       height="5.2645302"
       transform="rotate(-66.18191,49.547748,32.4911)"
       id="rect44"
       style="fill:#002a56" />
    <path
       d="m 52.76599,31.71668 c 0.24961,-0.43838 0.60398,-1.03233 0.74192,-1.27433 0.99118,-1.7459 0.42939,-3.22351 -0.85255,-3.9516 -1.2159,-0.69006 -2.68799,-0.5497 -3.72757,1.28125 -0.17148,0.30078 -0.61193,1.1229 -0.74918,1.36422 l -0.05186,0.09196 4.57667,2.59914 0.06258,-0.11063 z m -0.44875,-1.49213 -2.61573,-1.48591 c 0.05393,-0.14105 0.13621,-0.28557 0.19914,-0.3962 0.48332,-0.84978 1.28055,-1.21902 2.12377,-0.73915 0.86984,0.49369 1.03267,1.34762 0.52031,2.24996 -0.08505,0.15004 -0.13691,0.24131 -0.22748,0.37131 z"
       id="path46"
       style="fill:#002a56" />
    <polygon
       points="54.01336,22.18652 53.10722,21.51512 51.24931,24.02299 55.47783,27.1573 57.38138,24.58928 56.47489,23.91789 55.28838,25.51858 54.52157,24.95022 55.52831,23.59084 54.62252,22.91876 53.61439,24.27882 52.87178,23.72774 "
       id="polygon48"
       style="fill:#002a56" />
    <polygon
       points="57.16288,17.14313 58.70342,20.24771 55.79106,18.41677 54.79469,19.3433 59.51725,22.1395 60.35943,21.35678 58.84966,18.14088 61.95735,19.87295 62.79988,19.08885 60.30204,14.22593 59.45398,15.01348 61.05502,18.06275 58.05,16.31893 "
       id="polygon50"
       style="fill:#002a56" />
    <polygon
       points="64.59348,12.72273 63.9532,11.79412 61.38276,13.56421 64.37049,17.90095 67.00282,16.08729 66.36254,15.1573 64.72071,16.2885 64.17827,15.50233 65.57222,14.54192 64.93263,13.61261 63.53903,14.57303 63.01388,13.81175 "
       id="polygon52"
       style="fill:#002a56" />
    <path
       d="m 69.1864,14.8904 c 1.00743,-0.5414 1.51703,-1.40432 0.9936,-2.37787 -0.32083,-0.59672 -0.82662,-0.7599 -1.23215,-0.70458 l -0.0073,-0.01314 c 0.22368,-0.41003 0.2344,-0.83457 -0.02524,-1.31858 -0.34572,-0.64166 -1.07001,-0.90994 -2.17597,-0.3153 -0.50406,0.27105 -1.13224,0.64304 -1.38323,0.79447 l 2.47779,4.61055 c 0.28557,-0.11962 0.90925,-0.43768 1.35246,-0.67554 z m -0.09508,-1.86206 c 0.16768,0.31184 0.05843,0.60086 -0.35264,0.82144 -0.19879,0.10717 -0.29525,0.13345 -0.37891,0.15281 l -0.46638,-0.86776 0.41072,-0.22057 c 0.34434,-0.18531 0.6306,-0.17701 0.78721,0.11409 z m -1.6968,-0.82074 -0.45186,-0.8408 c 0.11201,-0.07744 0.18427,-0.13345 0.31668,-0.20467 0.2586,-0.13967 0.58565,-0.13552 0.735,0.14244 0.1815,0.33812 0.02351,0.56837 -0.24823,0.71426 l -0.3516,0.18876 z"
       id="path54"
       style="fill:#002a56" />
    <path
       d="m 75.41907,12.23249 c 0.67277,-0.23786 1.23284,-0.70735 1.41193,-1.14641 L 76.09738,10.3891 c -0.24477,0.36647 -0.59464,0.61746 -0.94866,0.74399 -0.89265,0.3153 -1.72308,-0.09196 -2.03492,-0.97079 -0.34641,-0.9777 0.09058,-1.72308 0.8567,-1.99412 0.46811,-0.16595 0.79447,-0.12169 1.12152,-0.05462 l 0.20121,-1.02887 c -0.40035,-0.18531 -1.04062,-0.21296 -1.69957,0.02074 -1.70787,0.60501 -2.18911,2.05981 -1.68436,3.48418 0.54831,1.54469 1.97269,2.18842 3.50977,1.64287 z"
       id="path56"
       style="fill:#002a56" />
    <path
       d="m 79.80282,11.03699 c 1.56681,-0.33397 2.50233,-1.68643 2.16975,-3.24633 -0.34918,-1.6408 -1.73691,-2.41452 -3.30372,-2.08055 -1.6408,0.34918 -2.48781,1.75143 -2.17044,3.24564 0.34987,1.6408 1.73691,2.41452 3.30441,2.08125 z M 78.90394,6.81296 c 0.83181,-0.17701 1.61798,0.30216 1.8185,1.24391 0.18462,0.86845 -0.17632,1.66776 -1.15471,1.87589 -0.8242,0.17563 -1.63042,-0.36024 -1.81781,-1.24322 -0.20052,-0.94175 0.30009,-1.69473 1.15402,-1.87658 z"
       id="path58"
       style="fill:#002a56" />
    <polygon
       points="87.8934,10.02264 87.58018,4.76559 86.45382,4.83266 86.64327,8.00224 83.96047,4.98132 82.99937,5.03871 83.31328,10.29507 84.43895,10.22869 84.25088,7.07432 86.9323,10.07934 "
       id="polygon60"
       style="fill:#002a56" />
    <path
       d="M 90.56929,9.13344 C 90.20144,9.10855 89.75477,8.90665 89.47957,8.50423 l -0.7357,0.77373 c 0.2178,0.57943 1.01642,0.93276 1.72169,0.97839 1.01366,0.06569 1.84201,-0.51305 1.90147,-1.42852 0.11132,-1.71132 -2.09369,-1.64356 -2.03699,-2.51409 0.01521,-0.23993 0.21988,-0.37753 0.55039,-0.3554 0.38997,0.0242 0.55454,0.17148 0.77234,0.4038 l 0.70389,-0.85877 c -0.307,-0.37407 -0.83319,-0.63405 -1.50804,-0.67831 -1.05099,-0.06776 -1.74244,0.59533 -1.7943,1.4057 -0.10994,1.69611 2.08747,1.74106 2.0363,2.52861 -0.0159,0.24823 -0.20674,0.39412 -0.52135,0.37407 z"
       id="path62"
       style="fill:#002a56" />
    <path
       d="m 95.43152,10.89801 c 1.57303,0.30838 2.96353,-0.57044 3.26984,-2.13587 0.32152,-1.64633 -0.65065,-2.90199 -2.22437,-3.20968 -1.64633,-0.3229 -2.97597,0.63682 -3.26915,2.13518 -0.32221,1.64702 0.65134,2.90268 2.22368,3.21037 z M 94.46281,7.93379 c 0.18531,-0.9452 0.94105,-1.44166 1.79775,-1.27364 0.83457,0.16318 1.37044,0.91201 1.18583,1.85722 -0.1701,0.87053 -0.8159,1.46586 -1.79775,1.27295 -0.82697,-0.1618 -1.35869,-0.97079 -1.18583,-1.85653 z"
       id="path64"
       style="fill:#002a56" />
    <path
       d="m 100.6941,10.26534 0.41971,0.14313 0.61124,2.16007 1.38012,0.47433 -0.77649,-2.46223 c 0.31737,-0.04287 1.01573,-0.22472 1.33379,-1.14987 0.3153,-0.91824 0.0636,-1.76042 -1.29577,-2.22783 -0.14244,-0.0484 -1.42092,-0.47156 -1.69888,-0.56698 l -1.71132,4.98116 1.13881,0.39136 0.59879,-1.74313 z m 0.74607,-2.17045 c 0.23717,0.07329 0.33258,0.09818 0.50268,0.15627 0.54831,0.18807 0.60017,0.50061 0.50475,0.77857 -0.14451,0.41971 -0.54002,0.45843 -0.97355,0.30977 l -0.41279,-0.14175 0.37891,-1.10285 z"
       id="path66"
       style="fill:#002a56" />
    <polygon
       points="108.52262,11.0681 109.00456,10.04684 105.05849,8.18132 104.57517,9.20259 106.00508,9.87744 104.23498,13.62091 105.32401,14.13535 107.09341,10.39256 "
       id="polygon68"
       style="fill:#002a56" />
    <rect
       x="106.55565"
       y="12.62727"
       width="5.2646298"
       height="1.20285"
       transform="rotate(-59.6634,109.18798,13.228691)"
       id="rect70"
       style="fill:#002a56" />
    <path
       d="m 111.23931,17.82973 c 0.91132,0.66655 2.12273,0.74261 3.07278,-0.55661 l 1.8261,-2.49335 -0.97148,-0.7108 -1.68297,2.29974 c -0.49784,0.67969 -0.98876,0.98185 -1.57787,0.55108 -0.679,-0.49784 -0.51167,-1.1478 -0.027,-1.80951 l 1.64425,-2.24512 -0.97148,-0.7108 -1.7943,2.45117 c -0.91063,1.2446 -0.60985,2.42489 0.48194,3.2242 z"
       id="path72"
       style="fill:#002a56" />
    <polygon
       points="120.68512,19.08055 118.02928,19.55834 118.45521,16.84166 117.60059,15.98288 113.86956,19.70008 114.71865,20.55194 117.07993,18.20034 116.6706,20.66811 116.79298,20.79118 119.28356,20.38047 116.90569,22.74866 117.75547,23.6019 121.48719,19.88539 "
       id="polygon74"
       style="fill:#002a56" />
    <polygon
       points="128.06282,29.92723 124.63672,30.45342 127.2649,28.23388 126.68478,27.00242 122.58659,30.65394 123.07682,31.69456 126.59904,31.23267 124.00612,33.66725 124.49636,34.70856 129.88893,33.80554 129.39593,32.75731 126.00439,33.35748 128.57864,31.02317 "
       id="polygon76"
       style="fill:#002a56" />
    <path
       d="m 127.57466,35.32256 c -1.61314,0.45774 -2.29283,1.89248 -1.85514,3.43302 0.43699,1.54123 1.84754,2.38341 3.38116,1.94849 1.61383,-0.45774 2.29283,-1.89317 1.85583,-3.43371 -0.45704,-1.61314 -1.91322,-2.36405 -3.38185,-1.9478 z m 2.29698,2.25549 c 0.23163,0.81729 -0.19291,1.63388 -1.11945,1.89663 -0.85324,0.24201 -1.67468,-0.0643 -1.9478,-1.02679 -0.22956,-0.81037 0.25099,-1.64978 1.11876,-1.89594 0.92584,-0.26275 1.70994,0.18669 1.94849,1.0261 z"
       id="path78"
       style="fill:#002a56" />
    <path
       d="m 126.8362,43.41384 1.82541,-0.25307 0.0609,0.43976 -1.64978,1.51979 0.20121,1.44512 1.84546,-1.80467 c 0.18047,0.26275 0.65825,0.80415 1.62697,0.67001 0.96111,-0.13414 1.59862,-0.73915 1.40086,-2.16214 -0.02,-0.14866 -0.22126,-1.48038 -0.26067,-1.77079 l -5.21625,0.72394 0.16595,1.19205 z m 4.0975,-0.56906 c 0.0422,0.24477 0.0629,0.34088 0.0878,0.51927 0.0788,0.5739 -0.17563,0.76059 -0.46603,0.80207 -0.43976,0.06085 -0.65272,-0.27381 -0.71634,-0.72878 l -0.0595,-0.43215 z"
       id="path80"
       style="fill:#002a56" />
    <polygon
       points="128.40854,48.26362 132.54269,48.16129 132.51226,46.95818 127.25038,47.08955 127.33335,50.43406 128.46179,50.40641 "
       id="polygon82"
       style="fill:#002a56" />
    <path
       d="m 127.32436,51.03216 -0.0125,0.12723 c -0.0477,0.50199 -0.12861,1.18928 -0.15557,1.46724 -0.19015,1.99966 0.92653,3.11979 2.39516,3.25947 1.39326,0.13345 2.68004,-0.5981 2.88055,-2.69525 0.0325,-0.34434 0.0989,-1.27571 0.12515,-1.55229 l 0.0104,-0.1051 -5.24322,-0.5013 z m 3.98479,2.0363 c -0.0926,0.97424 -0.67001,1.63665 -1.63596,1.54399 -0.99637,-0.09542 -1.49559,-0.80761 -1.39672,-1.84062 0.0166,-0.17286 0.0263,-0.27796 0.0567,-0.43423 l 2.99533,0.28695 c 0.008,0.15143 -0.007,0.31599 -0.0194,0.44391 z"
       id="path84"
       style="fill:#002a56" />
    <polygon
       points="130.81892,61.79172 127.91969,59.88472 131.3617,59.99673 131.75582,58.69267 126.26161,58.66017 125.92834,59.76233 128.85729,61.77996 125.29636,61.85187 124.96308,62.95473 129.57847,65.89889 129.91313,64.78913 126.9897,62.96164 130.46905,62.95127 "
       id="polygon86"
       style="fill:#002a56" />
    <rect
       x="125.71307"
       y="63.823631"
       width="1.20357"
       height="5.26478"
       transform="rotate(-66.09787,126.31486,66.456024)"
       id="rect88"
       style="fill:#002a56" />
    <path
       d="m 123.08858,67.2396 c -0.24961,0.43768 -0.60501,1.03094 -0.7433,1.27364 -0.9943,1.74382 -0.43423,3.22282 0.84633,3.95229 1.21487,0.69283 2.68833,0.55454 3.73034,-1.27502 0.17079,-0.30147 0.61331,-1.12221 0.75091,-1.36422 l 0.0532,-0.09196 -4.57459,-2.60605 -0.0629,0.11132 z m 0.44736,1.49214 2.61366,1.48937 c -0.0553,0.14244 -0.1376,0.28626 -0.20052,0.39758 -0.48401,0.84909 -1.28194,1.21694 -2.12481,0.73639 -0.86914,-0.49507 -1.03094,-1.3497 -0.5172,-2.25134 0.0857,-0.15004 0.1376,-0.24201 0.22887,-0.372 z"
       id="path90"
       style="fill:#002a56" />
    <polygon
       points="121.82531,76.75456 122.73041,77.42872 124.59731,74.92431 120.37328,71.77686 118.46213,74.34073 119.36654,75.01489 120.55858,73.41627 121.3254,73.98809 120.31312,75.3447 121.21822,76.01955 122.2305,74.66156 122.97241,75.2154 "
       id="polygon92"
       style="fill:#002a56" />
    <polygon
       points="118.66403,81.80141 117.12626,78.69268 120.03862,80.52846 121.03706,79.60261 116.31519,76.79881 115.47094,77.58083 116.9776,80.8002 113.87094,79.06398 113.02669,79.84669 115.51865,84.71653 116.36844,83.92898 114.77051,80.87625 117.77622,82.62492 "
       id="polygon94"
       style="fill:#002a56" />
    <polygon
       points="111.22064,86.20037 111.85884,87.12967 114.43101,85.36441 111.45365,81.02491 108.81856,82.83235 109.45677,83.76234 111.09964,82.63529 111.63965,83.42284 110.24501,84.38049 110.88321,85.30979 112.27786,84.35283 112.80197,85.1155 "
       id="polygon96"
       style="fill:#002a56" />
    <path
       d="m 106.63153,84.0244 c -1.00743,0.53863 -1.5191,1.40086 -0.99775,2.37511 0.31876,0.59602 0.82489,0.76128 1.23077,0.70596 l 0.007,0.01314 c -0.22403,0.41003 -0.23647,0.83457 0.0228,1.31789 0.34365,0.64304 1.06828,0.91271 2.17528,0.32014 0.50406,-0.26897 1.13258,-0.63959 1.38427,-0.7917 l -2.46845,-4.614 c -0.28626,0.11962 -0.90994,0.43561 -1.35385,0.67347 z m 0.0913,1.86067 c -0.16595,-0.31184 -0.0567,-0.60017 0.35471,-0.82005 0.19844,-0.10717 0.29525,-0.13276 0.3796,-0.15212 l 0.46396,0.86845 -0.41072,0.21988 c -0.34503,0.18392 -0.63129,0.17563 -0.78755,-0.11616 z m 1.69473,0.8242 0.45013,0.84218 c -0.11201,0.07744 -0.18462,0.13345 -0.31668,0.20328 -0.2586,0.13829 -0.58565,0.13483 -0.73431,-0.14382 -0.18047,-0.33812 -0.0228,-0.56837 0.2503,-0.71357 z"
       id="path98"
       style="fill:#002a56" />
    <path
       d="m 100.40646,86.66225 c -0.67347,0.23647 -1.23423,0.70527 -1.414,1.14365 l 0.73155,0.69836 c 0.24615,-0.36508 0.59602,-0.61608 0.95143,-0.74054 0.89335,-0.3153 1.72308,0.09404 2.03284,0.97355 0.34434,0.97839 -0.0954,1.72377 -0.86154,1.99343 -0.46742,0.16387 -0.79378,0.12031 -1.12014,0.05186 l -0.20467,1.02818 c 0.40035,0.186 1.03993,0.21573 1.69957,-0.01659 1.70994,-0.60225 2.19395,-2.05635 1.69196,-3.48142 -0.54417,-1.54607 -1.96716,-2.19257 -3.507,-1.65048 z"
       id="path100"
       style="fill:#002a56" />
    <path
       d="m 96.00542,87.8543 c -1.56819,0.33051 -2.50579,1.68228 -2.17736,3.24287 0.34641,1.64218 1.73276,2.41936 3.30164,2.08816 1.64149,-0.34572 2.49196,-1.74728 2.17666,-3.24287 -0.34572,-1.64149 -1.73207,-2.41798 -3.30095,-2.08816 z m 0.89127,4.2268 c -0.83181,0.17494 -1.61867,-0.30493 -1.81642,-1.24736 -0.18323,-0.86914 0.17839,-1.66845 1.15817,-1.8745 0.82489,-0.17424 1.62973,0.3637 1.81642,1.24736 0.19844,0.94244 -0.30424,1.69404 -1.15817,1.8745 z"
       id="path102"
       style="fill:#002a56" />
    <polygon
       points="92.81648,93.83944 92.50948,88.58585 91.38381,88.65085 91.56773,91.80383 88.89185,88.79743 87.93143,88.85275 88.23774,94.10703 89.3641,94.04134 89.1788,90.87453 91.85538,93.89545 "
       id="polygon104"
       style="fill:#002a56" />
    <path
       d="m 85.23411,89.73503 c 0.36785,0.0242 0.81452,0.22818 1.08972,0.63129 l 0.73777,-0.77303 c -0.2178,-0.58081 -1.01642,-0.93552 -1.72239,-0.98254 -1.01366,-0.06845 -1.84408,0.51029 -1.90493,1.42645 -0.11409,1.71271 2.093,1.64771 2.03423,2.51962 -0.0159,0.23993 -0.22126,0.37753 -0.55246,0.3554 -0.38928,-0.02627 -0.55385,-0.17286 -0.77165,-0.40588 l -0.70596,0.85739 c 0.307,0.37545 0.8325,0.63682 1.50804,0.68245 1.05099,0.06914 1.74451,-0.59257 1.79914,-1.40363 0.1134,-1.69749 -2.08678,-1.74659 -2.03423,-2.53552 0.01659,-0.24754 0.20674,-0.39274 0.52273,-0.372 z"
       id="path106"
       style="fill:#002a56" />
    <path
       d="m 80.37464,87.95871 c -1.57165,-0.30908 -2.96353,0.56698 -3.27191,2.13103 -0.32429,1.64564 0.64719,2.90199 2.21953,3.21176 1.64494,0.32498 2.97597,-0.63198 3.27122,-2.12965 0.32498,-1.64564 -0.6465,-2.90337 -2.21884,-3.21314 z m 0.96457,2.9656 c -0.186,0.94451 -0.94313,1.43959 -1.79914,1.27087 -0.83388,-0.16456 -1.36837,-0.9134 -1.18237,-1.85791 0.17148,-0.87122 0.81729,-1.46448 1.79844,-1.27156 0.82697,0.16318 1.3573,0.97286 1.18306,1.8586 z"
       id="path108"
       style="fill:#002a56" />
    <path
       d="m 75.12382,88.57894 -0.41971,-0.14589 -0.60501,-2.16076 -1.37874,-0.47779 0.76958,2.465 c -0.31668,0.04149 -1.01573,0.22126 -1.33656,1.14434 -0.31806,0.91755 -0.06845,1.76042 1.28885,2.23129 0.14244,0.04909 1.41953,0.47571 1.6968,0.57182 l 1.72584,-4.97494 -1.13812,-0.39481 -0.60294,1.74175 z m -0.75229,2.16836 c -0.23717,-0.07468 -0.33189,-0.09957 -0.50199,-0.15903 -0.54831,-0.19015 -0.59879,-0.50199 -0.50268,-0.77857 0.1452,-0.4204 0.54002,-0.45774 0.97424,-0.30769 l 0.41279,0.14313 -0.38237,1.10216 z"
       id="path110"
       style="fill:#002a56" />
    <polygon
       points="70.48631,84.69371 68.70688,88.43235 67.27939,87.75266 66.79469,88.77254 70.73592,90.64912 71.22201,89.62993 69.79417,88.95024 71.57395,85.21161 "
       id="polygon112"
       style="fill:#002a56" />
    <rect
       x="64.004967"
       y="85.001503"
       width="5.2656999"
       height="1.20362"
       transform="rotate(-59.57622,66.637824,85.603314)"
       id="rect114"
       style="fill:#002a56" />
    <path
       d="m 64.58207,80.9855 c -0.90925,-0.66863 -2.12135,-0.74814 -3.07623,0.54901 l -1.8344,2.48989 0.9701,0.71426 1.69093,-2.29698 c 0.49957,-0.67831 0.99257,-0.97908 1.58029,-0.54624 0.679,0.49991 0.50821,1.14987 0.02213,1.8102 l -1.65186,2.24304 0.9701,0.71357 1.80259,-2.4484 c 0.91513,-1.24252 0.61677,-2.4242 -0.47364,-3.22835 z"
       id="path116"
       style="fill:#002a56" />
    <polygon
       points="55.14732,79.71947 57.80178,79.24583 57.37101,81.96113 58.22356,82.8199 61.95943,79.11307 61.11172,78.25914 58.74802,80.60521 59.16115,78.14021 59.03981,78.01783 56.55026,78.42163 58.93021,76.06104 58.0825,75.20711 54.34801,78.91394 "
       id="polygon118"
       style="fill:#002a56" />
    <path
       d="m 53.222,72.95093 c -0.60916,0 -1.12048,0.51098 -1.12048,1.12774 0,0.60916 0.51132,1.12844 1.12048,1.12844 0.61642,0 1.13535,-0.51927 1.13535,-1.12844 0,-0.61677 -0.51893,-1.12774 -1.13535,-1.12774 z"
       id="path120"
       style="fill:#002a56" />
    <path
       d="m 121.01053,25.02476 c 0,0.60916 0.51132,1.12844 1.12048,1.12844 0.61642,0 1.13535,-0.51927 1.13535,-1.12844 0,-0.61677 -0.51893,-1.12774 -1.13535,-1.12774 -0.60916,0 -1.12048,0.51098 -1.12048,1.12774 z"
       id="path122"
       style="fill:#002a56" />
  </g>
</svg>
