<?xml version="1.0" encoding="UTF-8" standalone="no"?>
<!-- Created with Inkscape (http://www.inkscape.org/) -->

<svg
   width="72"
   height="48"
   viewBox="0 0 72 48.000002"
   version="1.1"
   id="svg1"
   xml:space="preserve"
   xmlns="http://www.w3.org/2000/svg"
   xmlns:svg="http://www.w3.org/2000/svg"><defs
     id="defs1" /><rect
     style="fill:#ffffff;stroke-width:2.86784;stroke-linecap:round"
     id="rect1"
     width="72"
     height="48"
     x="-4.5654296e-08"
     y="1.7822266e-07" /><g
     id="g1618"
     transform="matrix(1.196094,0,0,1.196094,-24.478843,-35.176203)"
     style="fill:#005a9c"><path
       d="m 66.75789,49.23569 c -0.84344,-0.66949 -2.07483,-0.5271 -2.74432,0.31628 -0.82928,1.04553 -1.58246,1.67487 -2.4411,2.04114 -1.5835,0.67383 -2.92578,0.38904 -4.22345,-0.89667 -1.27167,-1.25964 -2.51062,-2.63232 -3.71271,-3.96265 -0.58801,-0.651 -1.177,-1.3031 -1.77368,-1.94763 -1.01947,-1.10095 -2.04437,-2.19757 -3.06818,-3.29535 l -0.09027,-0.09674 c -2.22693,-2.38342 -4.52887,-4.84839 -6.74927,-7.32422 -1.76068,-1.96399 -4.48108,-2.93671 -7.09821,-2.54327 -2.6748,0.39996 -4.83759,2.11176 -6.09076,4.81909 -1.20746,2.60736 -0.79877,5.57013 1.06512,7.73181 3.27905,3.80292 6.0451,6.94714 9.28497,9.90448 1.32489,1.20856 2.92798,1.85199 4.63538,1.86066 1.10754,0.0055 2.77692,-0.11951 4.47998,-1.26617 0.74561,-0.50208 1.44012,-1.01837 1.74554,-1.80634 0.31079,-0.8064 0.02063,-1.73346 -0.70758,-2.25623 -0.70642,-0.50867 -1.63354,-0.47284 -2.30737,0.08691 -0.08478,0.07062 -0.17719,0.15216 -0.2782,0.24023 -1.05859,0.92706 -2.37592,2.08124 -5.06152,0.15314 -2.46057,-1.76715 -4.36578,-4.08325 -6.57324,-6.76556 -0.71948,-0.87384 -1.46393,-1.77814 -2.25952,-2.70197 -0.84991,-0.98572 -1.03363,-2.3421 -0.47931,-3.54089 0.48364,-1.0434 1.41724,-2.34106 3.12579,-2.59644 1.29437,-0.19458 2.74536,0.32269 3.61157,1.2879 2.23895,2.49756 4.55823,4.98206 6.80145,7.38293 1.05103,1.12488 2.10199,2.25085 3.14752,3.38013 0.58588,0.63251 1.16406,1.27264 1.75098,1.92255 1.23248,1.36407 2.50623,2.77368 3.85175,4.10724 2.42914,2.40735 5.44836,3.01709 8.50568,1.71613 1.46838,-0.62714 2.73022,-1.64551 3.96918,-3.20728 0.6684,-0.84229 0.5271,-2.07263 -0.31622,-2.74323 z"
       id="path1594" /><path
       d="m 69.81392,38.38614 c 1.26294,-0.59888 2.25635,-1.72595 2.35089,-3.0932 0.24017,-2.37366 -1.71399,-4.64514 -4.58868,-4.99622 -1.76501,-0.22388 -3.40295,0.29889 -4.56366,1.26074 -0.62061,0.51624 -0.78796,1.47162 -0.25,2.14545 0.58795,0.70105 1.26617,0.82379 2.37585,0.21411 0.39777,-0.22601 0.99561,-0.41406 1.65314,-0.36847 1.24005,0.08594 1.59546,1.20319 1.56067,1.71069 -0.0054,0.07501 0.0022,1.80524 -1.74438,1.68463 l -0.65863,-0.04559 c -0.73358,-0.05005 -1.46722,0.6358 -1.52155,1.42047 -0.05872,0.83472 0.55212,1.56396 1.31177,1.61725 l 0.80969,0.05542 c 2.22809,0.15436 1.99548,2.04541 1.94879,2.3476 -0.04346,0.86945 -1.43903,2.3443 -3.92792,0.6673 -0.84448,-0.56842 -6.8678,-8.13397 -6.8678,-8.13397 -2.854,-3.68982 -7.70355,-4.33978 -11.53033,-1.54437 -0.42059,0.30756 -0.69781,0.76074 -0.7782,1.27704 -0.07935,0.51514 0.04565,1.03143 0.35321,1.45203 0.30756,0.4206 0.7608,0.69775 1.276,0.77814 0.51837,0.08051 1.03247,-0.04559 1.45306,-0.35321 2.6106,-1.90741 4.93756,-0.77057 6.13416,0.7771 0,0 6.4668,8.31769 8.13184,9.1991 1.08032,0.57172 2.2085,0.9021 3.3551,0.98145 3.51923,0.24341 5.66248,-1.6955 6.24072,-4.35175 0.37921,-1.74115 -0.7467,-3.91699 -2.52374,-4.70172 z"
       id="path1596" /><polygon
       points="26.78969,64.77212 24.31704,64.77212 24.31704,62.5104 27.38735,62.5104 27.38735,61.73306 23.3561,61.73306 23.3561,68.63052 27.38735,68.63052 27.39321,67.85318 24.31704,67.85318 24.31704,65.5231 26.78969,65.5231 "
       id="polygon1598" /><path
       d="m 33.35512,61.73306 c -0.08008,0 -0.14844,0.02344 -0.2041,0.06836 -0.05664,0.0459 -0.09473,0.09766 -0.11523,0.15723 l -1.70117,4.8291 c -0.04199,0.1084 -0.08105,0.22656 -0.11816,0.35449 -0.03711,0.12793 -0.06934,0.26172 -0.09668,0.40137 -0.03223,-0.13965 -0.06738,-0.27344 -0.1084,-0.40137 -0.04004,-0.12793 -0.08105,-0.24609 -0.12305,-0.35449 l -1.70605,-4.83398 c -0.02441,-0.06348 -0.0625,-0.11523 -0.11523,-0.15723 -0.05273,-0.042 -0.12109,-0.06348 -0.20508,-0.06348 h -0.77148 l 2.58789,6.89746 h 0.86133 l 2.58789,-6.89746 h -0.77246 z"
       id="path1600" /><path
       d="m 36.49965,61.73306 -2.58789,6.89746 h 0.74023 c 0.08008,0 0.14941,-0.02246 0.20703,-0.06836 0.05762,-0.04492 0.09766,-0.09766 0.11816,-0.15723 l 0.58301,-1.65332 h 2.84473 l 0.58789,1.6582 c 0.02832,0.06348 0.06738,0.11523 0.11816,0.1582 0.05078,0.04102 0.11816,0.0625 0.20215,0.0625 h 0.74023 l -2.58301,-6.89746 h -0.9707 z m -0.69824,4.33594 0.97656,-2.77148 c 0.03125,-0.08398 0.06445,-0.18164 0.09961,-0.29395 0.03516,-0.11231 0.07031,-0.23438 0.10449,-0.36719 0.03223,0.12891 0.06543,0.25 0.10059,0.3623 0.03418,0.11133 0.06934,0.20996 0.10449,0.29395 l 0.97656,2.77637 z"
       id="path1602" /><path
       d="m 45.62758,66.57779 c 0,0.07031 0.0029,0.14648 0.0078,0.22852 0.0059,0.08203 0.01172,0.16602 0.01855,0.25 l -3.74805,-5.16016 c -0.05176,-0.07031 -0.09961,-0.11426 -0.1416,-0.13379 -0.04199,-0.01953 -0.10254,-0.0293 -0.18359,-0.0293 h -0.49805 v 6.89746 h 0.83984 v -4.87109 c 0,-0.06641 -0.002,-0.13672 -0.0059,-0.20996 -0.0029,-0.07324 -0.0088,-0.15039 -0.01562,-0.23145 l 3.74805,5.14453 c 0.04883,0.0625 0.09863,0.10645 0.14941,0.13086 0.05078,0.02441 0.1123,0.03711 0.18652,0.03711 h 0.48242 v -6.89746 h -0.83984 v 4.84473 z"
       id="path1604" /><path
       d="m 51.61196,65.8483 c 0,0.05273 0.01855,0.09668 0.05762,0.13184 0.03809,0.03418 0.08887,0.05176 0.15234,0.05176 h 0.99121 v 1.51172 c -0.22363,0.12305 -0.45117,0.21777 -0.68164,0.28613 -0.23145,0.06836 -0.49414,0.10254 -0.78711,0.10254 -0.38184,0 -0.72656,-0.06152 -1.03418,-0.18652 -0.30859,-0.12402 -0.57129,-0.30371 -0.79004,-0.54004 -0.21875,-0.23633 -0.38672,-0.52539 -0.50391,-0.86621 -0.11719,-0.3418 -0.17578,-0.72754 -0.17578,-1.15723 0,-0.41309 0.05566,-0.78711 0.16797,-1.12109 0.11133,-0.33398 0.27148,-0.61816 0.47949,-0.85254 0.20898,-0.23438 0.46094,-0.41504 0.75586,-0.54102 0.2959,-0.12598 0.62598,-0.18945 0.99023,-0.18945 0.24805,0 0.46289,0.02148 0.64551,0.06348 0.18164,0.04199 0.33887,0.0918 0.47266,0.14941 0.13281,0.05762 0.24707,0.11914 0.34375,0.18359 0.0957,0.06543 0.18457,0.12012 0.26465,0.16602 0.08008,0.04883 0.15527,0.06445 0.22559,0.04688 0.07032,-0.01757 0.12598,-0.06152 0.16797,-0.13086 l 0.26758,-0.43066 c -0.13965,-0.13281 -0.29102,-0.25391 -0.4541,-0.3623 -0.16211,-0.1084 -0.33984,-0.2002 -0.53223,-0.27539 -0.19239,-0.07519 -0.40137,-0.13281 -0.62793,-0.17383 -0.22559,-0.04004 -0.4707,-0.05957 -0.7373,-0.05957 -0.52148,0 -0.99219,0.08496 -1.41211,0.25684 -0.41992,0.17188 -0.77734,0.41211 -1.07324,0.72168 -0.2959,0.30957 -0.52344,0.68066 -0.68262,1.11328 -0.15918,0.43164 -0.23828,0.91016 -0.23828,1.43555 0,0.52148 0.08203,0.99805 0.24609,1.42969 0.16504,0.43262 0.39941,0.80371 0.7041,1.11328 0.30371,0.30957 0.67285,0.5498 1.10449,0.72168 0.43262,0.1709 0.91602,0.25684 1.45117,0.25684 0.44434,0 0.85645,-0.06055 1.23633,-0.18359 0.37988,-0.12207 0.7373,-0.30762 1.07324,-0.55664 V 65.3083 h -2.06738 v 0.54004 z"
       id="path1606" /><polygon
       points="58.65004,64.77212 56.17739,64.77212 56.17739,62.5104 59.2477,62.5104 59.2477,61.73306 55.21645,61.73306 55.21645,68.63052 59.2477,68.63052 59.25356,67.85318 56.17739,67.85318 56.17739,65.5231 58.65004,65.5231 "
       id="polygon1608" /><polygon
       points="60.64418,68.63052 64.26039,68.63052 64.26039,67.82779 61.59926,67.82779 61.59926,61.73306 60.64418,61.73306 "
       id="polygon1610" /><rect
       x="65.530899"
       y="61.733059"
       width="0.95507997"
       height="6.89746"
       id="rect1612" /><path
       d="M 71.65395,65.31607 C 71.50844,65.1813 71.3434,65.069 71.15786,64.98013 c -0.18555,-0.08984 -0.375,-0.16895 -0.56738,-0.23926 -0.19238,-0.07031 -0.38086,-0.1377 -0.56641,-0.2041 -0.18555,-0.06738 -0.35156,-0.14453 -0.49609,-0.23438 -0.14551,-0.08887 -0.2627,-0.19629 -0.35156,-0.32227 -0.08984,-0.12598 -0.13379,-0.28516 -0.13379,-0.47754 0,-0.14746 0.02441,-0.28418 0.07324,-0.41211 0.04883,-0.12793 0.12109,-0.24023 0.21777,-0.33594 0.0957,-0.09668 0.2168,-0.17188 0.3623,-0.22559 0.14453,-0.05469 0.31348,-0.08203 0.50684,-0.08203 0.20215,0 0.37695,0.02734 0.52148,0.08203 0.14551,0.05371 0.26953,0.11328 0.37305,0.17773 0.10352,0.06543 0.19043,0.125 0.2627,0.17871 0.07129,0.05469 0.13379,0.08105 0.18652,0.08105 0.09082,0 0.16211,-0.04883 0.21484,-0.14648 l 0.23633,-0.44629 c -0.22461,-0.23438 -0.48926,-0.41309 -0.7959,-0.53516 -0.30566,-0.12305 -0.64258,-0.18359 -1.00977,-0.18359 -0.3291,0 -0.62012,0.05273 -0.87402,0.16016 -0.25391,0.10645 -0.46777,0.24805 -0.64062,0.4248 -0.17285,0.17675 -0.30566,0.37988 -0.39648,0.6084 -0.09082,0.22949 -0.13672,0.46484 -0.13672,0.70605 0,0.30859 0.04492,0.56543 0.13477,0.77148 0.08887,0.20703 0.20605,0.37988 0.35156,0.52051 0.14453,0.13965 0.31055,0.25293 0.49609,0.33789 0.18555,0.08594 0.37402,0.16211 0.56641,0.22852 0.19239,0.06641 0.38184,0.13086 0.56738,0.19141 0.18555,0.06152 0.35059,0.13672 0.49609,0.22559 0.14453,0.08984 0.26172,0.20117 0.35156,0.33398 0.08887,0.13281 0.13379,0.30273 0.13379,0.50879 0,0.18555 -0.0293,0.35449 -0.08691,0.50684 -0.05761,0.15235 -0.1416,0.28223 -0.25195,0.39062 -0.11035,0.10839 -0.24414,0.19238 -0.40137,0.25195 -0.15723,0.05957 -0.33789,0.08984 -0.54102,0.08984 -0.24121,0 -0.44824,-0.03613 -0.62207,-0.1084 -0.17285,-0.07129 -0.32031,-0.15039 -0.44336,-0.23535 -0.12207,-0.08594 -0.22461,-0.16504 -0.30664,-0.23633 -0.08301,-0.07227 -0.15723,-0.10742 -0.22363,-0.10742 -0.04883,0 -0.0918,0.01074 -0.12793,0.0332 -0.03711,0.02344 -0.06738,0.05371 -0.09277,0.0918 l -0.27734,0.45215 c 0.24805,0.27637 0.5498,0.49609 0.90527,0.6582 0.35449,0.16309 0.74414,0.24414 1.16797,0.24414 0.34961,0 0.66113,-0.05566 0.93457,-0.16797 0.27246,-0.11133 0.50293,-0.26562 0.68945,-0.46191 0.1875,-0.19531 0.33008,-0.42578 0.42773,-0.69043 0.09863,-0.26367 0.14746,-0.54785 0.14746,-0.85254 0,-0.2832 -0.04492,-0.52344 -0.13379,-0.71875 -0.08984,-0.19629 -0.20703,-0.36133 -0.35156,-0.49609 z"
       id="path1614" /><polygon
       points="74.80043,62.53091 74.80043,68.63052 75.76137,68.63052 75.76137,62.53091 77.77114,62.53091 77.77114,61.73306 72.78481,61.73306 72.78481,62.53091 "
       id="polygon1616" /></g></svg>
