<?xml version="1.0" encoding="UTF-8" standalone="no"?>
<!-- Created with Inkscape (http://www.inkscape.org/) -->

<svg
   width="72"
   height="48"
   viewBox="0 0 72 48.000002"
   version="1.1"
   id="svg1"
   xmlns="http://www.w3.org/2000/svg"
   xmlns:svg="http://www.w3.org/2000/svg">
  <defs
     id="defs1" />
  <rect
     style="fill:#ffffff"
     id="rect1"
     width="72"
     height="48"
     x="-4.5654296e-08"
     y="1.7822266e-07" />
  <g
     id="g1618"
     transform="matrix(1.196094,0,0,1.196094,-24.478843,-35.176203)"
     style="fill:#005a9c">
    <path
       d="m 66.75789,49.23569 c -0.84344,-0.66949 -2.07483,-0.5271 -2.74432,0.31628 -0.82928,1.04553 -1.58246,1.67487 -2.4411,2.04114 -1.5835,0.67383 -2.92578,0.38904 -4.22345,-0.89667 -1.27167,-1.25964 -2.51062,-2.63232 -3.71271,-3.96265 -0.58801,-0.651 -1.177,-1.3031 -1.77368,-1.94763 -1.01947,-1.10095 -2.04437,-2.19757 -3.06818,-3.29535 l -0.09027,-0.09674 c -2.22693,-2.38342 -4.52887,-4.84839 -6.74927,-7.32422 -1.76068,-1.96399 -4.48108,-2.93671 -7.09821,-2.54327 -2.6748,0.39996 -4.83759,2.11176 -6.09076,4.81909 -1.20746,2.60736 -0.79877,5.57013 1.06512,7.73181 3.27905,3.80292 6.0451,6.94714 9.28497,9.90448 1.32489,1.20856 2.92798,1.85199 4.63538,1.86066 1.10754,0.0055 2.77692,-0.11951 4.47998,-1.26617 0.74561,-0.50208 1.44012,-1.01837 1.74554,-1.80634 0.31079,-0.8064 0.02063,-1.73346 -0.70758,-2.25623 -0.70642,-0.50867 -1.63354,-0.47284 -2.30737,0.08691 -0.08478,0.07062 -0.17719,0.15216 -0.2782,0.24023 -1.05859,0.92706 -2.37592,2.08124 -5.06152,0.15314 -2.46057,-1.76715 -4.36578,-4.08325 -6.57324,-6.76556 -0.71948,-0.87384 -1.46393,-1.77814 -2.25952,-2.70197 -0.84991,-0.98572 -1.03363,-2.3421 -0.47931,-3.54089 0.48364,-1.0434 1.41724,-2.34106 3.12579,-2.59644 1.29437,-0.19458 2.74536,0.32269 3.61157,1.2879 2.23895,2.49756 4.55823,4.98206 6.80145,7.38293 1.05103,1.12488 2.10199,2.25085 3.14752,3.38013 0.58588,0.63251 1.16406,1.27264 1.75098,1.92255 1.23248,1.36407 2.50623,2.77368 3.85175,4.10724 2.42914,2.40735 5.44836,3.01709 8.50568,1.71613 1.46838,-0.62714 2.73022,-1.64551 3.96918,-3.20728 0.6684,-0.84229 0.5271,-2.07263 -0.31622,-2.74323 z"
       id="path1594" />
    <path
       d="m 69.81392,38.38614 c 1.26294,-0.59888 2.25635,-1.72595 2.35089,-3.0932 0.24017,-2.37366 -1.71399,-4.64514 -4.58868,-4.99622 -1.76501,-0.22388 -3.40295,0.29889 -4.56366,1.26074 -0.62061,0.51624 -0.78796,1.47162 -0.25,2.14545 0.58795,0.70105 1.26617,0.82379 2.37585,0.21411 0.39777,-0.22601 0.99561,-0.41406 1.65314,-0.36847 1.24005,0.08594 1.59546,1.20319 1.56067,1.71069 -0.0054,0.07501 0.0022,1.80524 -1.74438,1.68463 l -0.65863,-0.04559 c -0.73358,-0.05005 -1.46722,0.6358 -1.52155,1.42047 -0.05872,0.83472 0.55212,1.56396 1.31177,1.61725 l 0.80969,0.05542 c 2.22809,0.15436 1.99548,2.04541 1.94879,2.3476 -0.04346,0.86945 -1.43903,2.3443 -3.92792,0.6673 -0.84448,-0.56842 -6.8678,-8.13397 -6.8678,-8.13397 -2.854,-3.68982 -7.70355,-4.33978 -11.53033,-1.54437 -0.42059,0.30756 -0.69781,0.76074 -0.7782,1.27704 -0.07935,0.51514 0.04565,1.03143 0.35321,1.45203 0.30756,0.4206 0.7608,0.69775 1.276,0.77814 0.51837,0.08051 1.03247,-0.04559 1.45306,-0.35321 2.6106,-1.90741 4.93756,-0.77057 6.13416,0.7771 0,0 6.4668,8.31769 8.13184,9.1991 1.08032,0.57172 2.2085,0.9021 3.3551,0.98145 3.51923,0.24341 5.66248,-1.6955 6.24072,-4.35175 0.37921,-1.74115 -0.7467,-3.91699 -2.52374,-4.70172 z"
       id="path1596" />
    <path
       d="m 8.2280147,38.75317 v 0.919075 H 4.5951874 v 2.676493 h 2.9248917 v 0.888024 H 4.5951874 v 2.757223 h 3.6390372 l -0.00621,0.919074 H 3.4587645 V 38.75317 Z m 0.9103351,0 h 0.9128642 q 0.149039,0 0.242189,0.07452 0.09315,0.07452 0.136619,0.186299 l 2.018237,5.719374 q 0.07452,0.192509 0.142829,0.422277 0.07452,0.223559 0.130409,0.471957 0.04968,-0.248398 0.11178,-0.471957 0.06831,-0.229768 0.142829,-0.422277 l 2.012027,-5.713164 q 0.03726,-0.10557 0.136619,-0.186299 0.09936,-0.08073 0.242189,-0.08073 h 0.912864 l -3.061511,8.159889 h -1.018433 z m 14.2307022,8.159889 h -0.875605 q -0.149039,0 -0.242188,-0.07452 -0.08694,-0.07452 -0.136619,-0.186299 l -0.695516,-1.962348 h -3.365799 l -0.689305,1.956138 q -0.03726,0.105569 -0.14283,0.186299 -0.09936,0.08073 -0.242188,0.08073 h -0.875605 l 3.061511,-8.159889 h 1.148843 z m -5.030069,-3.030461 h 2.794483 l -1.155053,-3.285069 q -0.0621,-0.149039 -0.124199,-0.347758 -0.0621,-0.198719 -0.117989,-0.428487 -0.0621,0.235978 -0.1242,0.434697 -0.0621,0.198719 -0.117989,0.347758 z m 6.915368,-5.129428 q 0.142829,0 0.217348,0.03726 0.07452,0.03105 0.167669,0.155249 l 4.433912,6.104392 q -0.01242,-0.149039 -0.02484,-0.291868 -0.0062,-0.149039 -0.0062,-0.273239 V 38.75317 h 0.993593 v 8.159889 h -0.571316 q -0.130409,0 -0.223559,-0.04347 -0.08694,-0.04347 -0.173879,-0.15525 l -4.433912,-6.085761 q 0.01242,0.142829 0.01863,0.273238 0.0062,0.130409 0.0062,0.248398 v 5.762844 H 24.664404 V 38.75317 h 0.589947 z m 14.392162,7.371224 q -0.596156,0.440907 -1.273042,0.658256 -0.670676,0.217349 -1.459341,0.217349 -0.950124,0 -1.720159,-0.304288 -0.763825,-0.304289 -1.304092,-0.850765 -0.540266,-0.552687 -0.832134,-1.316512 -0.291869,-0.770035 -0.291869,-1.695319 0,-0.931494 0.279449,-1.69532 0.285658,-0.770035 0.807295,-1.316511 0.527846,-0.552687 1.273042,-0.856975 0.745195,-0.304288 1.670479,-0.304288 0.471957,0 0.869395,0.07452 0.403647,0.06831 0.745195,0.204929 0.341548,0.130409 0.627206,0.322918 0.291868,0.192509 0.540267,0.428487 l -0.316708,0.509217 q -0.07452,0.124199 -0.198719,0.155249 -0.124199,0.03105 -0.267028,-0.05589 -0.14283,-0.08073 -0.316708,-0.192509 -0.167669,-0.117989 -0.403648,-0.217349 -0.235978,-0.105569 -0.558896,-0.180089 -0.322918,-0.07452 -0.763826,-0.07452 -0.645836,0 -1.173682,0.223558 -0.521637,0.223559 -0.894235,0.639626 -0.366387,0.416068 -0.565106,1.012224 -0.198719,0.589946 -0.198719,1.322722 0,0.763825 0.204929,1.372401 0.211139,0.602366 0.596156,1.024644 0.391228,0.416067 0.937704,0.639626 0.546477,0.217348 1.223363,0.217348 0.521636,0 0.931494,-0.117989 0.409857,-0.124199 0.807295,-0.341548 v -1.788469 h -1.173683 q -0.111779,0 -0.180089,-0.0621 -0.06831,-0.0621 -0.06831,-0.155249 v -0.639626 h 2.446724 v 3.14224 z m 6.66697,-7.371224 v 0.919075 h -3.632827 v 2.676493 h 2.924891 v 0.888024 h -2.924891 v 2.757223 h 3.639037 l -0.0062,0.919074 h -4.76925 V 38.75317 Z m 2.860263,7.209765 h 3.148451 v 0.950124 H 48.043533 V 38.75317 h 1.130213 z m 5.859674,0.950124 H 53.903207 V 38.75317 h 1.130213 z m 6.31921,-6.874427 q -0.09315,0.173879 -0.254609,0.173879 -0.09315,0 -0.223558,-0.09315 -0.124199,-0.09936 -0.310498,-0.211139 -0.180089,-0.117989 -0.440907,-0.211139 -0.254609,-0.09936 -0.614787,-0.09936 -0.341547,0 -0.602366,0.09936 -0.254608,0.09315 -0.428487,0.267029 -0.167669,0.167669 -0.254609,0.397437 -0.08694,0.223559 -0.08694,0.484377 0,0.341548 0.155249,0.565107 0.161459,0.223558 0.416067,0.385017 0.260819,0.155249 0.589947,0.273239 0.329128,0.117989 0.670676,0.242188 0.341547,0.124199 0.670675,0.285658 0.329128,0.155249 0.583737,0.397438 0.260818,0.235978 0.416067,0.583736 0.161459,0.347758 0.161459,0.850765 0,0.540266 -0.173879,1.012223 -0.173879,0.465748 -0.509217,0.813505 -0.329128,0.347758 -0.813505,0.546477 -0.484377,0.198719 -1.105373,0.198719 -0.751405,0 -1.384821,-0.285659 -0.627206,-0.291868 -1.068113,-0.782455 l 0.329128,-0.534056 q 0.04347,-0.06831 0.105569,-0.10557 0.06831,-0.04347 0.155249,-0.04347 0.117989,0 0.260818,0.130409 0.149039,0.124199 0.366388,0.279448 0.217349,0.149039 0.521637,0.279448 0.310498,0.1242 0.738985,0.1242 0.360178,0 0.639626,-0.10557 0.279448,-0.105569 0.471957,-0.298078 0.198719,-0.192509 0.298078,-0.459537 0.10557,-0.273238 0.10557,-0.602366 0,-0.366388 -0.161459,-0.602367 -0.155249,-0.235978 -0.416068,-0.391227 -0.254608,-0.161459 -0.583736,-0.267028 -0.329128,-0.11178 -0.670676,-0.229769 -0.341548,-0.117989 -0.670676,-0.267028 -0.329128,-0.155249 -0.589946,-0.403648 -0.254608,-0.248398 -0.416067,-0.614786 -0.155249,-0.366388 -0.155249,-0.912864 0,-0.428488 0.161459,-0.832135 0.161459,-0.409857 0.465747,-0.720355 0.310498,-0.316708 0.757615,-0.503007 0.453327,-0.192509 1.037063,-0.192509 0.652046,0 1.192313,0.217349 0.546477,0.217348 0.943914,0.633416 z m 7.188606,-1.285462 v 0.943914 h -2.378415 v 7.215975 H 65.026398 V 39.697084 H 62.641773 V 38.75317 Z"
       id="text1"
       style="font-size:12.718px;line-height:1.1;font-family:Carlito;-inkscape-font-specification:Carlito;text-align:center;letter-spacing:0.332809px;text-anchor:middle;stroke-width:4.49235"
       transform="matrix(0.83605469,0,0,0.83605469,20.465652,29.40923)"
       aria-label="EVANGELIST" />
  </g>
</svg>
