<?xml version="1.0" encoding="UTF-8" standalone="no"?>
<!-- Created with Inkscape (http://www.inkscape.org/) -->

<svg
   width="72"
   height="48"
   viewBox="0 0 72 48.000002"
   version="1.1"
   id="svg1"
   xml:space="preserve"
   xmlns="http://www.w3.org/2000/svg"
   xmlns:svg="http://www.w3.org/2000/svg"><defs
     id="defs1" /><g
     id="layer1"
     transform="translate(-61.401722,-80.80912)"><rect
       style="fill:#ffffff;fill-opacity:1;stroke:none;stroke-width:2.86784;stroke-linecap:round"
       id="rect1"
       width="72"
       height="48"
       x="61.401722"
       y="80.80912" /><g
       id="g1"
       transform="matrix(1.1140094,0,0,1.1140094,-11.104713,-10.140488)"><path
         style="opacity:1;fill:none;stroke:#005a9c;stroke-width:4.26661;stroke-linecap:round;stroke-dasharray:none"
         d="m 101.55471,106.37789 0.0147,0.0161 c 1.15433,1.22683 2.91021,1.76257 4.23328,1.76257 2.41746,0 4.30039,-1.79686 4.30039,-1.79686 M 93.50232,89.772302 c 0,0 1.844851,-1.793935 4.228934,-1.793935 1.486718,0 3.136566,0.47307 4.263196,1.746532 l 7.60389,8.595573 c 1.06844,1.207685 2.90339,1.764778 4.27562,1.764778 4.16749,0 5.39446,-1.624603 5.39446,-3.628715 0,-2.004101 -1.62465,-3.628706 -3.62877,-3.628706 M 101.55471,106.37789 85.89624,89.737293 c -0.72883,-0.774571 -2.163031,-1.758926 -4.307693,-1.758926 -3.19532,0 -6.049783,2.577398 -6.053516,6.053451 -0.0021,1.732213 0.549792,3.01678 1.835517,4.303255 l 8.057509,8.061777 c 1.285723,1.28645 2.600535,1.76421 4.231843,1.75965 2.399248,-0.007 3.206806,-0.65345 4.279983,-1.76185 M 113.07344,86.633145 c 0.646,-0.667183 1.56389,-1.062835 2.56594,-1.062835 2.00414,0 3.62881,1.624649 3.62881,3.628751 0,2.001973 -1.62688,3.628768 -3.62881,3.628768"
         id="path2" /><g
         aria-label="EVANGELIST"
         id="g30"
         transform="matrix(1.0561833,0,0,1.0561833,3.4577619,53.226425)"><polygon
           points="63.69616,62.08853 60.8983,62.08853 60.8983,59.82974 63.99596,59.82974 63.99596,59.02994 60.0487,59.02994 60.0487,66.02603 64.09655,66.02603 64.09655,65.22622 60.8983,65.22622 60.8983,62.88736 63.69616,62.88736 "
           id="polygon6"
           style="fill:#005a9c" /><polygon
           points="70.28502,59.02994 67.97643,64.78677 65.59752,59.02994 64.68834,59.02994 67.63659,66.06607 68.26647,66.06607 71.14537,59.02994 "
           id="polygon8"
           style="fill:#005a9c" /><path
           d="m 73.56725,58.9899 -3.00781,7.03613 h 0.85938 l 0.88965,-2.11914 h 3.1875 l 0.89941,2.11914 h 0.91016 L 74.29675,58.9899 h -0.72949 z m -0.91895,4.11816 1.25879,-2.98926 1.25977,2.98926 h -2.51855 z"
           id="path10-6"
           style="fill:#005a9c" /><polygon
           points="79.19713,66.02603 79.19713,60.52896 83.5653,66.02603 84.24498,66.02603 84.24498,59.02994 83.44518,59.02994 83.44518,64.54654 79.07799,59.02994 78.3983,59.02994 78.3983,66.02603 "
           id="polygon12"
           style="fill:#005a9c" /><path
           d="m 89.16588,63.26724 h 1.88965 v 1.43945 c -0.37012,0.36035 -1.13965,0.62012 -1.7998,0.62012 -1.58887,0 -2.66797,-1.09961 -2.66797,-2.79883 0,-1.68945 1.0791,-2.79883 2.63867,-2.79883 0.66895,0 1.31934,0.19043 1.72852,0.55957 l 0.37012,-0.67871 c -0.56934,-0.4502 -1.24902,-0.67969 -2.19922,-0.67969 -2.08887,0 -3.4375,1.58887 -3.4375,3.59766 0,2.17871 1.36914,3.59766 3.54785,3.59766 0.86914,0 1.99902,-0.34961 2.61816,-0.96875 v -2.68848 h -2.68848 z"
           id="path14-0"
           style="fill:#005a9c" /><polygon
           points="97.04577,62.08853 94.24791,62.08853 94.24791,59.82974 97.34557,59.82974 97.34557,59.02994 93.3983,59.02994 93.3983,66.02603 97.44616,66.02603 97.44616,65.22622 94.24791,65.22622 94.24791,62.88736 97.04577,62.88736 "
           id="polygon16"
           style="fill:#005a9c" /><polygon
           points="99.03795,66.02603 103.33483,66.02603 103.33483,65.22622 99.88756,65.22622 99.88756,59.02994 99.03795,59.02994 "
           id="polygon18"
           style="fill:#005a9c" /><rect
           x="104.6278"
           y="59.029942"
           width="0.84960997"
           height="6.9960899"
           id="rect20"
           style="fill:#005a9c" /><path
           d="m 108.18737,60.75845 c 0,-0.61914 0.47949,-1.0293 1.25879,-1.0293 0.61035,0 1.0498,0.2002 1.41992,0.57031 l 0.45898,-0.63965 c -0.39941,-0.44043 -1.11914,-0.72949 -1.92871,-0.72949 -1.3291,0 -2.1084,0.81934 -2.1084,1.82812 0,2.31934 3.41797,1.76953 3.41797,3.47852 0,0.70996 -0.63965,1.08984 -1.36914,1.08984 -0.58984,0 -1.31934,-0.29004 -1.72949,-0.83008 l -0.48926,0.58008 c 0.34961,0.65918 1.34863,1.04883 2.20898,1.04883 1.26855,0 2.27832,-0.74902 2.27832,-1.89844 0,-2.38867 -3.41797,-1.73926 -3.41797,-3.46875 z"
           id="path22"
           style="fill:#005a9c" /><polygon
           points="117.84459,59.82974 117.84459,59.02994 112.09752,59.02994 112.09752,59.82974 114.54674,59.82974 114.54674,66.02603 115.39635,66.02603 115.39635,59.82974 "
           id="polygon24"
           style="fill:#005a9c" /></g></g></g></svg>
