<?xml version="1.0" encoding="UTF-8" standalone="no"?>
<!-- Created with Inkscape (http://www.inkscape.org/) -->

<svg
   width="72"
   height="48"
   viewBox="0 0 72 48.000002"
   version="1.1"
   id="svg1"
   xml:space="preserve"
   xmlns="http://www.w3.org/2000/svg"
   xmlns:svg="http://www.w3.org/2000/svg"><defs
     id="defs1" /><g
     id="layer1"
     transform="translate(-61.401722,-80.80912)"><rect
       style="fill:#ffffff;fill-opacity:1;stroke:none;stroke-width:2.86784;stroke-linecap:round"
       id="rect1"
       width="72"
       height="48"
       x="61.401722"
       y="80.80912" /><g
       id="g1"
       transform="matrix(1.1140094,0,0,1.1140094,-11.104713,-10.140488)"><path
         style="opacity:1;fill:none;stroke:#005a9c;stroke-width:4.26661;stroke-linecap:round;stroke-dasharray:none"
         d="m 101.55471,106.37789 0.0147,0.0161 c 1.15433,1.22683 2.91021,1.76257 4.23328,1.76257 2.41746,0 4.30039,-1.79686 4.30039,-1.79686 M 93.50232,89.772302 c 0,0 1.844851,-1.793935 4.228934,-1.793935 1.486718,0 3.136566,0.47307 4.263196,1.746532 l 7.60389,8.595573 c 1.06844,1.207685 2.90339,1.764778 4.27562,1.764778 4.16749,0 5.39446,-1.624603 5.39446,-3.628715 0,-2.004101 -1.62465,-3.628706 -3.62877,-3.628706 M 101.55471,106.37789 85.89624,89.737293 c -0.72883,-0.774571 -2.163031,-1.758926 -4.307693,-1.758926 -3.19532,0 -6.049783,2.577398 -6.053516,6.053451 -0.0021,1.732213 0.549792,3.01678 1.835517,4.303255 l 8.057509,8.061777 c 1.285723,1.28645 2.600535,1.76421 4.231843,1.75965 2.399248,-0.007 3.206806,-0.65345 4.279983,-1.76185 M 113.07344,86.633145 c 0.646,-0.667183 1.56389,-1.062835 2.56594,-1.062835 2.00414,0 3.62881,1.624649 3.62881,3.628751 0,2.001973 -1.62688,3.628768 -3.62881,3.628768"
         id="path2" /><g
         aria-label="MEMBER"
         id="g18"
         transform="matrix(1.1958949,0,0,1.1958949,-7.6251765,42.147106)"><path
           d="m 67.75449,60.52713 h 0.85938 l 2.62793,3.58789 2.51855,-3.58789 h 0.80957 v 6.99609 h -0.84863 v -5.65723 l -2.47949,3.47852 h -0.12988 l -2.50781,-3.44824 v 5.62695 H 67.7545 v -6.99609 z"
           id="path6"
           style="fill:#005a9c" /><path
           d="m 76.56406,60.52713 h 3.94727 v 0.7998 h -3.09766 v 2.25879 h 2.79785 v 0.79883 h -2.79785 v 2.33887 h 3.19824 v 0.7998 h -4.04785 z"
           id="path8"
           style="fill:#005a9c" /><path
           d="m 82.20469,60.52713 h 0.85938 l 2.62793,3.58789 2.51855,-3.58789 h 0.80957 v 6.99609 H 88.17149 V 61.86599 L 85.692,65.34451 h -0.12988 l -2.50781,-3.44824 v 5.62695 H 82.2047 v -6.99609 z"
           id="path10"
           style="fill:#005a9c" /><path
           d="m 91.01426,60.53689 c 0.38965,-0.0098 1.26855,-0.04004 1.91895,-0.04004 1.66895,0 2.24805,0.75977 2.24805,1.72949 0,0.87891 -0.5293,1.39941 -1.19922,1.61914 v 0.01953 c 0.87012,0.14062 1.44922,0.7002 1.44922,1.65918 0,1.41895 -1.08887,2.0293 -2.53809,2.0293 -0.62011,0 -1.46972,-0.02051 -1.8789,-0.04004 v -6.97656 z m 0.84961,0.79004 v 2.25879 h 1.11914 c 0.73926,0 1.34863,-0.41016 1.34863,-1.16992 0,-0.72949 -0.48926,-1.11914 -1.41895,-1.11914 -0.37012,0 -0.7998,0.01953 -1.04883,0.03027 z m 0,3.00782 v 2.37891 c 0.22949,0.01953 0.67871,0.04004 1.0791,0.04004 1.0293,0 1.63867,-0.41992 1.63867,-1.2793 0,-0.73926 -0.5791,-1.13965 -1.58887,-1.13965 h -1.12891 z"
           id="path12"
           style="fill:#005a9c" /><path
           d="m 97.0748,60.52713 h 3.94727 v 0.7998 h -3.09766 v 2.25879 h 2.79785 v 0.79883 h -2.79785 v 2.33887 h 3.19824 v 0.7998 H 97.0748 Z"
           id="path14"
           style="fill:#005a9c" /><path
           d="m 102.71445,67.52322 v -6.99609 c 0.38965,0 1.6787,-0.02051 1.87891,-0.02051 1.9082,0 2.48828,0.9502 2.48828,2.0791 0,1.08984 -0.75,1.7793 -1.51953,1.97949 l 2.3291,2.95801 h -1.03906 l -2.14941,-2.79883 h -1.13867 v 2.79883 h -0.84961 z m 0.84961,-6.19629 v 2.59863 h 1.0293 c 0.80957,0 1.58887,-0.5 1.58887,-1.33008 0,-0.71875 -0.39941,-1.28906 -1.63867,-1.28906 -0.2207,0 -0.6504,0.0098 -0.97949,0.02051 z"
           id="path16"
           style="fill:#005a9c" /></g></g></g></svg>
