<?xml version="1.0" encoding="UTF-8" standalone="no"?>
<svg
   id="Layer_1"
   width="72"
   height="48"
   version="1.1"
   viewBox="0 0 71.999999 48"
   xmlns="http://www.w3.org/2000/svg"
   xmlns:svg="http://www.w3.org/2000/svg">
  <defs
     id="defs63" />
  <rect
     style="fill:#fafdff;fill-opacity:1;stroke-width:57.9863;stroke-linecap:round"
     id="rect1"
     width="72"
     height="48"
     x="0"
     y="1.1672718e-07" />
  <g
     id="g26"
     transform="matrix(0.53726468,0,0,0.53726468,-10.800366,-2.5603832)">
    <g
       aria-label="MEMBER"
       id="g18">
      <path
         d="m 67.75449,60.52713 h 0.85938 l 2.62793,3.58789 2.51855,-3.58789 h 0.80957 v 6.99609 h -0.84863 v -5.65723 l -2.47949,3.47852 h -0.12988 l -2.50781,-3.44824 v 5.62695 H 67.7545 v -6.99609 z"
         id="path6"
         style="fill:#005a9c" />
      <path
         d="m 76.56406,60.52713 h 3.94727 v 0.7998 h -3.09766 v 2.25879 h 2.79785 v 0.79883 h -2.79785 v 2.33887 h 3.19824 v 0.7998 h -4.04785 z"
         id="path8"
         style="fill:#005a9c" />
      <path
         d="m 82.20469,60.52713 h 0.85938 l 2.62793,3.58789 2.51855,-3.58789 h 0.80957 v 6.99609 H 88.17149 V 61.86599 L 85.692,65.34451 h -0.12988 l -2.50781,-3.44824 v 5.62695 H 82.2047 v -6.99609 z"
         id="path10"
         style="fill:#005a9c" />
      <path
         d="m 91.01426,60.53689 c 0.38965,-0.0098 1.26855,-0.04004 1.91895,-0.04004 1.66895,0 2.24805,0.75977 2.24805,1.72949 0,0.87891 -0.5293,1.39941 -1.19922,1.61914 v 0.01953 c 0.87012,0.14062 1.44922,0.7002 1.44922,1.65918 0,1.41895 -1.08887,2.0293 -2.53809,2.0293 -0.62011,0 -1.46972,-0.02051 -1.8789,-0.04004 v -6.97656 z m 0.84961,0.79004 v 2.25879 h 1.11914 c 0.73926,0 1.34863,-0.41016 1.34863,-1.16992 0,-0.72949 -0.48926,-1.11914 -1.41895,-1.11914 -0.37012,0 -0.7998,0.01953 -1.04883,0.03027 z m 0,3.00782 v 2.37891 c 0.22949,0.01953 0.67871,0.04004 1.0791,0.04004 1.0293,0 1.63867,-0.41992 1.63867,-1.2793 0,-0.73926 -0.5791,-1.13965 -1.58887,-1.13965 h -1.12891 z"
         id="path12"
         style="fill:#005a9c" />
      <path
         d="m 97.0748,60.52713 h 3.94727 v 0.7998 h -3.09766 v 2.25879 h 2.79785 v 0.79883 h -2.79785 v 2.33887 h 3.19824 v 0.7998 H 97.0748 Z"
         id="path14"
         style="fill:#005a9c" />
      <path
         d="m 102.71445,67.52322 v -6.99609 c 0.38965,0 1.6787,-0.02051 1.87891,-0.02051 1.9082,0 2.48828,0.9502 2.48828,2.0791 0,1.08984 -0.75,1.7793 -1.51953,1.97949 l 2.3291,2.95801 h -1.03906 l -2.14941,-2.79883 h -1.13867 v 2.79883 h -0.84961 z m 0.84961,-6.19629 v 2.59863 h 1.0293 c 0.80957,0 1.58887,-0.5 1.58887,-1.33008 0,-0.71875 -0.39941,-1.28906 -1.63867,-1.28906 -0.2207,0 -0.6504,0.0098 -0.97949,0.02051 z"
         id="path16"
         style="fill:#005a9c" />
    </g>
  </g>
  <g
     aria-label="WORLD WIDE WEB CONSORTIUM"
     id="g120"
     transform="matrix(0.53726468,0,0,0.53726468,-10.800366,-2.5603832)">
    <polygon
       points="52.50667,68.28299 52.01436,67.24237 48.49215,67.71186 51.08091,65.27175 50.5886,64.23182 45.19638,65.14591 45.69249,66.19276 49.08264,65.58498 46.51323,67.92621 47.03113,69.02007 50.45654,68.48766 47.83251,70.71272 48.41505,71.9428 "
       id="polygon28"
       style="fill:#002a56" />
    <path
       d="m 47.50615,63.62197 c 1.61452,-0.45981 2.29214,-1.89732 1.85376,-3.43855 -0.43976,-1.54123 -1.85307,-2.38341 -3.38738,-1.94572 -1.61383,0.45981 -2.29179,1.89663 -1.85272,3.43786 0.45946,1.61452 1.91772,2.36543 3.38635,1.94641 z m -2.30078,-2.2548 c -0.23267,-0.81867 0.19188,-1.63526 1.11772,-1.8994 0.85393,-0.24339 1.67675,0.06223 1.95091,1.02472 0.2306,0.81037 -0.24927,1.65186 -1.11772,1.8994 -0.92653,0.26413 -1.71201,-0.18531 -1.95091,-1.02472 z"
       id="path30"
       style="fill:#002a56" />
    <path
       d="m 48.23631,55.5466 -1.82368,0.25722 -0.06188,-0.43907 1.64598,-1.52325 -0.20432,-1.44373 -1.84062,1.80813 c -0.18116,-0.26275 -0.65964,-0.80346 -1.62697,-0.66655 -0.96111,0.13552 -1.59654,0.74123 -1.39672,2.16284 0.02074,0.14935 0.22403,1.47969 0.26482,1.7701 l 5.21141,-0.73431 -0.16802,-1.19136 z m -4.09473,0.57666 c -0.04218,-0.24408 -0.06292,-0.3395 -0.08816,-0.51927 -0.08055,-0.57252 0.17355,-0.76059 0.4643,-0.80138 0.43907,-0.06154 0.65341,0.27243 0.71772,0.72671 l 0.06085,0.43146 -1.15471,0.16249 z"
       id="path32"
       style="fill:#002a56" />
    <polygon
       points="47.71738,48.52706 46.58998,48.55887 46.65014,50.70096 42.51669,50.81643 42.54988,52.01954 47.81073,51.87158 "
       id="polygon34"
       style="fill:#002a56" />
    <path
       d="m 47.74124,47.80243 c 0.04633,-0.5013 0.12446,-1.18928 0.15004,-1.46655 0.18462,-1.99966 -0.93552,-3.11565 -2.40311,-3.24979 -1.39291,-0.1293 -2.67762,0.6057 -2.87053,2.70216 -0.03181,0.34434 -0.09507,1.27502 -0.12066,1.55229 l -0.0093,0.1051 5.24183,0.48401 0.01175,-0.12723 z m -0.96941,-1.60761 c -0.0159,0.17217 -0.02558,0.27727 -0.05532,0.43284 l -2.99533,-0.27658 c -0.009,-0.15143 0.0066,-0.31668 0.01867,-0.44391 0.08954,-0.97355 0.66448,-1.63734 1.63077,-1.54883 0.99602,0.09265 1.49663,0.80277 1.40121,1.83647 z"
       id="path36"
       style="fill:#002a56" />
    <polygon
       points="48.77322,40.30372 49.10269,39.20225 46.17097,37.19568 49.72672,37.11271 50.05654,36.01124 45.43804,33.08367 45.10615,34.19274 48.03234,36.00917 44.55749,36.02991 44.21073,37.19015 47.11306,39.0854 43.67451,38.98376 43.28419,40.28713 "
       id="polygon38"
       style="fill:#002a56" />
    <rect
       x="48.10775"
       y="29.858841"
       width="1.20389"
       height="5.2645302"
       transform="rotate(-66.18191,48.709693,32.4911)"
       id="rect40"
       style="fill:#002a56" />
    <path
       d="m 51.92793,31.71668 c 0.24961,-0.43838 0.60398,-1.03233 0.74192,-1.27433 0.99118,-1.7459 0.42939,-3.22351 -0.85255,-3.9516 -1.2159,-0.69006 -2.68799,-0.5497 -3.72757,1.28125 -0.17148,0.30078 -0.61193,1.1229 -0.74918,1.36422 l -0.05186,0.09196 4.57667,2.59914 0.06258,-0.11063 z m -0.44875,-1.49213 -2.61573,-1.48591 c 0.05393,-0.14105 0.13621,-0.28557 0.19914,-0.3962 0.48332,-0.84978 1.28055,-1.21902 2.12377,-0.73915 0.86984,0.49369 1.03267,1.34762 0.52031,2.24996 -0.08505,0.15004 -0.13691,0.24131 -0.22748,0.37131 z"
       id="path42"
       style="fill:#002a56" />
    <polygon
       points="56.54332,24.58928 55.63683,23.91789 54.45032,25.51858 53.6835,24.95022 54.69025,23.59084 53.78446,22.91876 52.77633,24.27882 52.03372,23.72774 53.17529,22.18652 52.26916,21.51512 50.41125,24.02299 54.63977,27.1573 "
       id="polygon44"
       style="fill:#002a56" />
    <polygon
       points="58.67919,22.1395 59.52136,21.35678 58.0116,18.14088 61.11929,19.87295 61.96181,19.08885 59.46397,14.22593 58.61592,15.01348 60.21696,18.06275 57.21194,16.31893 56.32482,17.14313 57.86536,20.24771 54.953,18.41677 53.95663,19.3433 "
       id="polygon46"
       style="fill:#002a56" />
    <polygon
       points="66.16475,16.08729 65.52448,15.1573 63.88264,16.2885 63.34021,15.50233 64.73416,14.54192 64.09457,13.61261 62.70097,14.57303 62.17582,13.81175 63.75542,12.72273 63.11514,11.79412 60.5447,13.56421 63.53243,17.90095 "
       id="polygon48"
       style="fill:#002a56" />
    <path
       d="m 68.34833,14.8904 c 1.00743,-0.5414 1.51703,-1.40432 0.9936,-2.37787 -0.32083,-0.59672 -0.82662,-0.7599 -1.23215,-0.70458 l -0.0073,-0.01314 c 0.22368,-0.41003 0.2344,-0.83457 -0.02524,-1.31858 -0.34572,-0.64166 -1.07001,-0.90994 -2.17597,-0.3153 -0.50406,0.27105 -1.13224,0.64304 -1.38323,0.79447 l 2.47779,4.61055 c 0.28557,-0.11962 0.90925,-0.43768 1.35246,-0.67554 z m -0.09507,-1.86206 c 0.16768,0.31184 0.05843,0.60086 -0.35264,0.82144 -0.19879,0.10717 -0.29525,0.13345 -0.37891,0.15281 l -0.46638,-0.86776 0.41072,-0.22057 c 0.34434,-0.18531 0.6306,-0.17701 0.78721,0.11409 z M 66.55646,12.2076 66.1046,11.3668 c 0.11201,-0.07744 0.18427,-0.13345 0.31668,-0.20467 0.2586,-0.13967 0.58565,-0.13552 0.735,0.14244 0.1815,0.33812 0.02351,0.56837 -0.24823,0.71426 l -0.3516,0.18876 z"
       id="path50"
       style="fill:#002a56" />
    <path
       d="m 74.58101,12.23249 c 0.67277,-0.23786 1.23284,-0.70735 1.41193,-1.14641 L 75.25932,10.3891 c -0.24477,0.36647 -0.59464,0.61746 -0.94866,0.74399 -0.89265,0.3153 -1.72308,-0.09196 -2.03492,-0.97079 -0.34641,-0.9777 0.09058,-1.72308 0.8567,-1.99412 0.46811,-0.16595 0.79447,-0.12169 1.12152,-0.05462 L 74.45517,7.08469 C 74.05482,6.89938 73.41455,6.87173 72.7556,7.10543 c -1.70787,0.60501 -2.18911,2.05981 -1.68436,3.48418 0.54831,1.54469 1.97269,2.18842 3.50977,1.64287 z"
       id="path52"
       style="fill:#002a56" />
    <path
       d="m 78.96476,11.03699 c 1.56681,-0.33397 2.50233,-1.68643 2.16975,-3.24633 -0.34918,-1.6408 -1.73691,-2.41452 -3.30372,-2.08055 -1.6408,0.34918 -2.48781,1.75143 -2.17044,3.24564 0.34987,1.6408 1.73691,2.41452 3.30441,2.08125 z M 78.06588,6.81296 c 0.83181,-0.17701 1.61798,0.30216 1.8185,1.24391 0.18462,0.86845 -0.17632,1.66776 -1.15471,1.87589 -0.8242,0.17563 -1.63042,-0.36024 -1.81781,-1.24322 -0.20052,-0.94175 0.30009,-1.69473 1.15402,-1.87658 z"
       id="path54"
       style="fill:#002a56" />
    <polygon
       points="83.12241,4.98132 82.1613,5.03871 82.47522,10.29507 83.60089,10.22869 83.41282,7.07432 86.09424,10.07934 87.05534,10.02264 86.74212,4.76559 85.61576,4.83266 85.80521,8.00224 "
       id="polygon56"
       style="fill:#002a56" />
    <path
       d="M 89.73123,9.13344 C 89.36338,9.10855 88.91671,8.90665 88.64151,8.50423 l -0.7357,0.77373 c 0.2178,0.57943 1.01642,0.93276 1.72169,0.97839 1.01366,0.06569 1.84201,-0.51305 1.90147,-1.42852 0.11132,-1.71132 -2.09369,-1.64356 -2.03699,-2.51409 0.01521,-0.23993 0.21988,-0.37753 0.55039,-0.3554 0.38997,0.0242 0.55454,0.17148 0.77234,0.4038 L 91.5186,5.50337 C 91.2116,5.1293 90.68541,4.86932 90.01056,4.82506 c -1.05099,-0.06776 -1.74244,0.59533 -1.7943,1.4057 -0.10994,1.69611 2.08747,1.74106 2.0363,2.52861 -0.0159,0.24823 -0.20674,0.39412 -0.52135,0.37407 z"
       id="path58"
       style="fill:#002a56" />
    <path
       d="m 94.59346,10.89801 c 1.57303,0.30838 2.96353,-0.57044 3.26984,-2.13587 0.32152,-1.64633 -0.65065,-2.90199 -2.22437,-3.20968 -1.64633,-0.3229 -2.97597,0.63682 -3.26915,2.13518 -0.32221,1.64702 0.65134,2.90268 2.22368,3.21037 z M 93.62475,7.93379 c 0.18531,-0.9452 0.94105,-1.44166 1.79775,-1.27364 0.83457,0.16318 1.37044,0.91201 1.18583,1.85722 -0.1701,0.87053 -0.8159,1.46586 -1.79775,1.27295 -0.82697,-0.1618 -1.35869,-0.97079 -1.18583,-1.85653 z"
       id="path60"
       style="fill:#002a56" />
    <path
       d="m 99.85604,10.26534 0.41971,0.14313 0.61124,2.16007 1.38012,0.47433 -0.77649,-2.46223 c 0.31737,-0.04287 1.01573,-0.22472 1.33379,-1.14987 0.3153,-0.91824 0.0636,-1.76042 -1.29577,-2.22783 -0.14244,-0.0484 -1.42092,-0.47156 -1.69888,-0.56698 l -1.71132,4.98116 1.13881,0.39136 0.59879,-1.74313 z m 0.74607,-2.17045 c 0.23717,0.07329 0.33258,0.09818 0.50268,0.15627 0.54831,0.18807 0.60017,0.50061 0.50475,0.77857 -0.14451,0.41971 -0.54002,0.45843 -0.97355,0.30977 L 100.2232,9.19775 100.60211,8.0949 Z"
       id="path62"
       style="fill:#002a56" />
    <polygon
       points="105.16702,9.87744 103.39692,13.62091 104.48594,14.13535 106.25535,10.39256 107.68456,11.0681 108.1665,10.04684 104.22043,8.18132 103.73711,9.20259 "
       id="polygon64"
       style="fill:#002a56" />
    <rect
       x="105.71759"
       y="12.62727"
       width="5.2646298"
       height="1.20285"
       transform="rotate(-59.6634,108.34992,13.228686)"
       id="rect66"
       style="fill:#002a56" />
    <path
       d="m 110.40125,17.82973 c 0.91132,0.66655 2.12273,0.74261 3.07278,-0.55661 l 1.8261,-2.49335 -0.97148,-0.7108 -1.68297,2.29974 c -0.49784,0.67969 -0.98876,0.98185 -1.57787,0.55108 -0.679,-0.49784 -0.51167,-1.1478 -0.027,-1.80951 l 1.64425,-2.24512 -0.97148,-0.7108 -1.7943,2.45117 c -0.91063,1.2446 -0.60985,2.42489 0.48194,3.2242 z"
       id="path68"
       style="fill:#002a56" />
    <polygon
       points="113.0315,19.70008 113.88059,20.55194 116.24187,18.20034 115.83254,20.66811 115.95492,20.79118 118.4455,20.38047 116.06763,22.74866 116.91741,23.6019 120.64913,19.88539 119.84706,19.08055 117.19122,19.55834 117.61715,16.84166 116.76253,15.98288 "
       id="polygon70"
       style="fill:#002a56" />
    <polygon
       points="121.74853,30.65394 122.23876,31.69456 125.76097,31.23267 123.16806,33.66725 123.65829,34.70856 129.05086,33.80554 128.55786,32.75731 125.16633,33.35748 127.74058,31.02317 127.22476,29.92723 123.79866,30.45342 126.42684,28.23388 125.84671,27.00242 "
       id="polygon72"
       style="fill:#002a56" />
    <path
       d="m 126.7366,35.32256 c -1.61314,0.45774 -2.29283,1.89248 -1.85514,3.43302 0.43699,1.54123 1.84754,2.38341 3.38116,1.94849 1.61383,-0.45774 2.29283,-1.89317 1.85583,-3.43371 -0.45704,-1.61314 -1.91322,-2.36405 -3.38185,-1.9478 z m 2.29698,2.25549 c 0.23163,0.81729 -0.19291,1.63388 -1.11945,1.89663 -0.85324,0.24201 -1.67468,-0.0643 -1.9478,-1.02679 -0.22956,-0.81037 0.25099,-1.64978 1.11876,-1.89594 0.92584,-0.26275 1.70994,0.18669 1.94849,1.0261 z"
       id="path74"
       style="fill:#002a56" />
    <path
       d="m 125.99814,43.41384 1.82541,-0.25307 0.0609,0.43976 -1.64978,1.51979 0.20121,1.44512 1.84546,-1.80467 c 0.18047,0.26275 0.65825,0.80415 1.62697,0.67001 0.96111,-0.13414 1.59862,-0.73915 1.40086,-2.16214 -0.02,-0.14866 -0.22126,-1.48038 -0.26067,-1.77079 l -5.21625,0.72394 0.16595,1.19205 z m 4.0975,-0.56906 c 0.0422,0.24477 0.0629,0.34088 0.0878,0.51927 0.0788,0.5739 -0.17563,0.76059 -0.46603,0.80207 -0.43976,0.06085 -0.65272,-0.27381 -0.71634,-0.72878 l -0.0595,-0.43215 z"
       id="path76"
       style="fill:#002a56" />
    <polygon
       points="126.49529,50.43406 127.62372,50.40641 127.57048,48.26362 131.70462,48.16129 131.6742,46.95818 126.41231,47.08955 "
       id="polygon78"
       style="fill:#002a56" />
    <path
       d="m 126.4863,51.03216 -0.0125,0.12723 c -0.0477,0.50199 -0.12861,1.18928 -0.15557,1.46724 -0.19015,1.99966 0.92653,3.11979 2.39516,3.25947 1.39326,0.13345 2.68004,-0.5981 2.88055,-2.69525 0.0325,-0.34434 0.0989,-1.27571 0.12515,-1.55229 l 0.0104,-0.1051 -5.24322,-0.5013 z m 3.98479,2.0363 c -0.0926,0.97424 -0.67001,1.63665 -1.63596,1.54399 -0.99637,-0.09542 -1.49559,-0.80761 -1.39672,-1.84062 0.0166,-0.17286 0.0263,-0.27796 0.0567,-0.43423 l 2.99533,0.28695 c 0.008,0.15143 -0.007,0.31599 -0.0194,0.44391 z"
       id="path80"
       style="fill:#002a56" />
    <polygon
       points="125.42355,58.66017 125.09027,59.76233 128.01923,61.77996 124.4583,61.85187 124.12502,62.95473 128.74041,65.89889 129.07506,64.78913 126.15164,62.96164 129.63099,62.95127 129.98086,61.79172 127.08163,59.88472 130.52364,59.99673 130.91776,58.69267 "
       id="polygon82"
       style="fill:#002a56" />
    <rect
       x="124.87501"
       y="63.823631"
       width="1.20357"
       height="5.26478"
       transform="rotate(-66.09787,125.47679,66.456023)"
       id="rect84"
       style="fill:#002a56" />
    <path
       d="m 122.25052,67.2396 c -0.24961,0.43768 -0.60501,1.03094 -0.7433,1.27364 -0.9943,1.74382 -0.43423,3.22282 0.84633,3.95229 1.21487,0.69283 2.68833,0.55454 3.73034,-1.27502 0.17079,-0.30147 0.61331,-1.12221 0.75091,-1.36422 l 0.0532,-0.09196 -4.57459,-2.60605 -0.0629,0.11132 z m 0.44736,1.49214 2.61366,1.48937 c -0.0553,0.14244 -0.1376,0.28626 -0.20052,0.39758 -0.48401,0.84909 -1.28194,1.21694 -2.12481,0.73639 -0.86914,-0.49507 -1.03094,-1.3497 -0.5172,-2.25134 0.0857,-0.15004 0.1376,-0.24201 0.22887,-0.372 z"
       id="path86"
       style="fill:#002a56" />
    <polygon
       points="117.62407,74.34073 118.52847,75.01489 119.72052,73.41627 120.48733,73.98809 119.47506,75.3447 120.38016,76.01955 121.39243,74.66156 122.13435,75.2154 120.98725,76.75456 121.89235,77.42872 123.75925,74.92431 119.53522,71.77686 "
       id="polygon88"
       style="fill:#002a56" />
    <polygon
       points="115.47713,76.79881 114.63288,77.58083 116.13954,80.8002 113.03288,79.06398 112.18863,79.84669 114.68059,84.71653 115.53037,83.92898 113.93245,80.87625 116.93815,82.62492 117.82597,81.80141 116.2882,78.69268 119.20056,80.52846 120.199,79.60261 "
       id="polygon90"
       style="fill:#002a56" />
    <polygon
       points="107.9805,82.83235 108.6187,83.76234 110.26157,82.63529 110.80159,83.42284 109.40695,84.38049 110.04515,85.30979 111.43979,84.35283 111.96391,85.1155 110.38258,86.20037 111.02078,87.12967 113.59295,85.36441 110.61559,81.02491 "
       id="polygon92"
       style="fill:#002a56" />
    <path
       d="m 105.79346,84.0244 c -1.00743,0.53863 -1.5191,1.40086 -0.99775,2.37511 0.31876,0.59602 0.82489,0.76128 1.23077,0.70596 l 0.007,0.01314 c -0.22403,0.41003 -0.23647,0.83457 0.0228,1.31789 0.34365,0.64304 1.06828,0.91271 2.17528,0.32014 0.50406,-0.26897 1.13258,-0.63959 1.38427,-0.7917 l -2.46845,-4.614 c -0.28626,0.11962 -0.90994,0.43561 -1.35385,0.67347 z m 0.0913,1.86067 c -0.16595,-0.31184 -0.0567,-0.60017 0.35471,-0.82005 0.19844,-0.10717 0.29525,-0.13276 0.3796,-0.15212 l 0.46396,0.86845 -0.41072,0.21988 c -0.34503,0.18392 -0.63129,0.17563 -0.78755,-0.11616 z m 1.69472,0.8242 0.45013,0.84218 c -0.11201,0.07744 -0.18462,0.13345 -0.31668,0.20328 -0.2586,0.13829 -0.58565,0.13483 -0.73431,-0.14382 -0.18047,-0.33812 -0.0228,-0.56837 0.2503,-0.71357 z"
       id="path94"
       style="fill:#002a56" />
    <path
       d="m 99.5684,86.66225 c -0.67347,0.23647 -1.23423,0.70527 -1.414,1.14365 l 0.73155,0.69836 c 0.24615,-0.36508 0.59602,-0.61608 0.95143,-0.74054 0.89335,-0.3153 1.72308,0.09404 2.03284,0.97355 0.34434,0.97839 -0.0954,1.72377 -0.86154,1.99343 -0.46742,0.16387 -0.79378,0.12031 -1.12014,0.05186 l -0.20467,1.02818 c 0.40035,0.186 1.03993,0.21573 1.69957,-0.01659 1.70994,-0.60225 2.19395,-2.05635 1.69196,-3.48142 -0.54417,-1.54607 -1.96716,-2.19257 -3.507,-1.65048 z"
       id="path96"
       style="fill:#002a56" />
    <path
       d="m 95.16736,87.8543 c -1.56819,0.33051 -2.50579,1.68228 -2.17736,3.24287 0.34641,1.64218 1.73276,2.41936 3.30164,2.08816 1.64149,-0.34572 2.49196,-1.74728 2.17666,-3.24287 -0.34572,-1.64149 -1.73207,-2.41798 -3.30095,-2.08816 z m 0.89127,4.2268 c -0.83181,0.17494 -1.61867,-0.30493 -1.81642,-1.24736 -0.18323,-0.86914 0.17839,-1.66845 1.15817,-1.8745 0.82489,-0.17424 1.62973,0.3637 1.81642,1.24736 0.19844,0.94244 -0.30424,1.69404 -1.15817,1.8745 z"
       id="path98"
       style="fill:#002a56" />
    <polygon
       points="88.05379,88.79743 87.09337,88.85275 87.39968,94.10703 88.52604,94.04134 88.34074,90.87453 91.01731,93.89545 91.97842,93.83944 91.67142,88.58585 90.54575,88.65085 90.72967,91.80383 "
       id="polygon100"
       style="fill:#002a56" />
    <path
       d="m 84.39605,89.73503 c 0.36785,0.0242 0.81452,0.22818 1.08972,0.63129 l 0.73777,-0.77303 c -0.2178,-0.58081 -1.01642,-0.93552 -1.72239,-0.98254 -1.01366,-0.06845 -1.84408,0.51029 -1.90493,1.42645 -0.11409,1.71271 2.093,1.64771 2.03423,2.51962 -0.0159,0.23993 -0.22126,0.37753 -0.55246,0.3554 -0.38928,-0.02627 -0.55385,-0.17286 -0.77165,-0.40588 l -0.70596,0.85739 c 0.307,0.37545 0.8325,0.63682 1.50804,0.68245 1.05099,0.06914 1.74451,-0.59257 1.79914,-1.40363 0.1134,-1.69749 -2.08678,-1.74659 -2.03423,-2.53552 0.01659,-0.24754 0.20674,-0.39274 0.52273,-0.372 z"
       id="path102"
       style="fill:#002a56" />
    <path
       d="m 79.53658,87.95871 c -1.57165,-0.30908 -2.96353,0.56698 -3.27191,2.13103 -0.32429,1.64564 0.64719,2.90199 2.21953,3.21176 1.64494,0.32498 2.97597,-0.63198 3.27122,-2.12965 0.32498,-1.64564 -0.6465,-2.90337 -2.21884,-3.21314 z m 0.96457,2.9656 c -0.186,0.94451 -0.94313,1.43959 -1.79914,1.27087 -0.83388,-0.16456 -1.36837,-0.9134 -1.18237,-1.85791 0.17148,-0.87122 0.81729,-1.46448 1.79844,-1.27156 0.82697,0.16318 1.3573,0.97286 1.18306,1.8586 z"
       id="path104"
       style="fill:#002a56" />
    <path
       d="m 74.28576,88.57894 -0.41971,-0.14589 -0.60501,-2.16076 -1.37874,-0.47779 0.76958,2.465 c -0.31668,0.04149 -1.01573,0.22126 -1.33656,1.14434 -0.31806,0.91755 -0.06845,1.76042 1.28885,2.23129 0.14244,0.04909 1.41953,0.47571 1.6968,0.57182 l 1.72584,-4.97494 -1.13812,-0.39481 -0.60294,1.74175 z M 73.53347,90.7473 C 73.2963,90.67262 73.20158,90.64773 73.03148,90.58827 72.48317,90.39812 72.43269,90.08628 72.5288,89.8097 c 0.1452,-0.4204 0.54002,-0.45774 0.97424,-0.30769 l 0.41279,0.14313 -0.38237,1.10216 z"
       id="path106"
       style="fill:#002a56" />
    <polygon
       points="69.89786,90.64912 70.38394,89.62993 68.95611,88.95024 70.73589,85.21161 69.64825,84.69371 67.86882,88.43235 66.44133,87.75266 65.95663,88.77254 "
       id="polygon108"
       style="fill:#002a56" />
    <rect
       x="63.166908"
       y="85.001503"
       width="5.2656999"
       height="1.20362"
       transform="rotate(-59.57622,65.799768,85.603312)"
       id="rect110"
       style="fill:#002a56" />
    <path
       d="m 63.74401,80.9855 c -0.90925,-0.66863 -2.12135,-0.74814 -3.07623,0.54901 l -1.8344,2.48989 0.9701,0.71426 1.69093,-2.29698 c 0.49957,-0.67831 0.99257,-0.97908 1.58029,-0.54624 0.679,0.49991 0.50821,1.14987 0.02213,1.8102 l -1.65186,2.24304 0.9701,0.71357 1.80259,-2.4484 c 0.91513,-1.24252 0.61677,-2.4242 -0.47364,-3.22835 z"
       id="path112"
       style="fill:#002a56" />
    <polygon
       points="61.12136,79.11307 60.27365,78.25914 57.90995,80.60521 58.32309,78.14021 58.20174,78.01783 55.7122,78.42163 58.09215,76.06104 57.24444,75.20711 53.50995,78.91394 54.30926,79.71947 56.96371,79.24583 56.53294,81.96113 57.38549,82.8199 "
       id="polygon114"
       style="fill:#002a56" />
    <path
       d="m 52.38394,72.95093 c -0.60916,0 -1.12048,0.51098 -1.12048,1.12774 0,0.60916 0.51132,1.12844 1.12048,1.12844 0.61642,0 1.13535,-0.51927 1.13535,-1.12844 0,-0.61677 -0.51893,-1.12774 -1.13535,-1.12774 z"
       id="path116"
       style="fill:#002a56" />
    <path
       d="m 120.17247,25.02476 c 0,0.60916 0.51132,1.12844 1.12048,1.12844 0.61642,0 1.13535,-0.51927 1.13535,-1.12844 0,-0.61677 -0.51893,-1.12774 -1.13535,-1.12774 -0.60916,0 -1.12048,0.51098 -1.12048,1.12774 z"
       id="path118"
       style="fill:#002a56" />
  </g>
  <path
     style="fill:none;stroke:#005a9c;stroke-width:2.11702;stroke-linecap:round"
     d="m 38.060653,24.792293 0.0072,0.008 c 0.572765,0.608739 1.44401,0.874564 2.100495,0.874564 1.199503,0 2.13378,-0.891568 2.13378,-0.891568 m -8.236979,-8.230374 c 0,0 0.915384,-0.890121 2.098327,-0.890121 0.737688,0 1.556317,0.234728 2.11533,0.8666 l 3.772928,4.264988 c 0.530134,0.599233 1.440612,0.875649 2.121486,0.875649 2.067843,0 2.676638,-0.8061 2.676638,-1.800508 0,-0.994401 -0.806115,-1.800506 -1.800528,-1.800506 m -6.988718,6.72332 -7.769475,-8.256793 c -0.361631,-0.38433 -1.073262,-0.87275 -2.137407,-0.87275 -1.585468,0 -3.001801,1.278863 -3.003656,3.00362 -9.24e-4,0.8595 0.272798,1.496882 0.910757,2.135209 l 3.998,4.000123 c 0.637959,0.638318 1.290344,0.875369 2.099773,0.873111 1.190467,-0.0033 1.591165,-0.324238 2.123655,-0.874203 m 9.49376,-9.805338 c 0.320529,-0.331046 0.775976,-0.527362 1.273178,-0.527362 0.994422,0 1.80055,0.806126 1.80055,1.800528 0,0.993346 -0.807226,1.800535 -1.80055,1.800535"
     id="path2" />
</svg>
