<?xml version="1.0" encoding="UTF-8" standalone="no"?>
<!-- Created with Inkscape (http://www.inkscape.org/) -->

<svg
   width="72"
   height="48"
   viewBox="0 0 72 48.000002"
   version="1.1"
   id="svg1"
   xmlns="http://www.w3.org/2000/svg"
   xmlns:svg="http://www.w3.org/2000/svg">
  <defs
     id="defs1" />
  <rect
     style="fill:#ffffff;stroke-width:2.86784;stroke-linecap:round"
     id="rect1"
     width="72"
     height="48"
     x="-4.5654296e-08"
     y="1.7822266e-07" />
  <g
     id="g7696"
     style="fill:#005a9c"
     transform="matrix(1.2128465,0,0,1.2128465,-24.296446,-36.238299)">
    <path
       d="m 66.54305,52.43686 c 0.66833,-0.84229 0.5271,-2.07263 -0.31628,-2.74323 -0.84344,-0.66949 -2.07483,-0.5271 -2.74432,0.31635 -0.82922,1.04547 -1.5824,1.6748 -2.44104,2.04108 -1.58356,0.67383 -2.92584,0.38904 -4.22351,-0.89667 -1.27161,-1.25964 -2.51062,-2.63232 -3.71265,-3.96265 -0.58801,-0.651 -1.17706,-1.3031 -1.77374,-1.94763 -1.01947,-1.10095 -2.04431,-2.19757 -3.06818,-3.29529 l -0.09021,-0.0968 c -2.22693,-2.38342 -4.52887,-4.84839 -6.74933,-7.32422 -1.76068,-1.96393 -4.48108,-2.93671 -7.09821,-2.54327 -2.67474,0.40002 -4.83759,2.11182 -6.0907,4.81915 -1.20746,2.6073 -0.79883,5.57007 1.06512,7.73181 3.27899,3.80286 6.04504,6.94708 9.28491,9.90448 1.32489,1.2085 2.92804,1.85193 4.63544,1.8606 1.10748,0.0055 2.77686,-0.11951 4.47998,-1.26617 0.74561,-0.50208 1.44006,-1.01837 1.74548,-1.80634 0.31085,-0.8064 0.02063,-1.73346 -0.70752,-2.25623 -0.70648,-0.50867 -1.63354,-0.47284 -2.30737,0.08691 -0.08484,0.07062 -0.17719,0.15216 -0.27826,0.24023 -1.05859,0.92706 -2.37585,2.08124 -5.06146,0.1532 -2.46063,-1.76721 -4.36584,-4.08331 -6.57324,-6.76562 -0.71948,-0.87384 -1.46399,-1.77808 -2.25958,-2.70197 -0.84991,-0.98572 -1.03357,-2.3421 -0.47931,-3.54089 0.4837,-1.04333 1.4173,-2.34106 3.12579,-2.59644 1.29443,-0.19458 2.74536,0.32275 3.61163,1.2879 2.23889,2.49756 4.55823,4.98206 6.80145,7.38293 1.05103,1.12488 2.10193,2.25085 3.14752,3.38013 0.58582,0.63257 1.164,1.27264 1.75092,1.92261 1.23248,1.36401 2.50629,2.77362 3.85181,4.10724 2.42908,2.40729 5.44836,3.01703 8.50568,1.71606 1.46832,-0.62708 2.73016,-1.64551 3.96918,-3.20728 z"
       id="path7680" />
    <path
       d="m 69.28286,38.84408 c 1.26294,-0.59888 2.25629,-1.72595 2.35083,-3.0932 0.24023,-2.3736 -1.71393,-4.64514 -4.58868,-4.99622 -1.76501,-0.22388 -3.40289,0.29889 -4.5636,1.2608 -0.62061,0.51624 -0.78802,1.47156 -0.25,2.14539 0.58795,0.70105 1.26617,0.82379 2.37585,0.21417 0.39777,-0.22607 0.99554,-0.41412 1.65308,-0.36853 1.24011,0.08594 1.59546,1.20319 1.56073,1.71075 -0.0055,0.07495 0.0022,1.80524 -1.74438,1.68457 l -0.65863,-0.04559 c -0.73364,-0.05005 -1.46729,0.6358 -1.52161,1.42047 -0.05872,0.83472 0.55212,1.56396 1.31183,1.61725 l 0.80969,0.05542 c 2.22809,0.15436 1.99548,2.04541 1.94873,2.3476 -0.04346,0.86951 -1.43903,2.3443 -3.92786,0.6673 -0.84448,-0.56842 -6.8678,-8.13397 -6.8678,-8.13397 -2.85406,-3.68982 -7.70361,-4.33978 -11.5304,-1.54437 -0.42059,0.30756 -0.69775,0.76074 -0.7782,1.27704 -0.07935,0.51514 0.04565,1.03143 0.35327,1.45203 0.30756,0.42059 0.7608,0.69775 1.27594,0.7782 0.51837,0.08044 1.03247,-0.04565 1.45312,-0.35327 2.6106,-1.90735 4.9375,-0.77057 6.13416,0.77716 0,0 6.46674,8.31763 8.13177,9.19904 1.08038,0.57172 2.2085,0.9021 3.3551,0.98145 3.51923,0.24347 5.66248,-1.6955 6.24072,-4.35175 0.37927,-1.74115 -0.7467,-3.91699 -2.52368,-4.70172 z"
       id="path7682" />
    <path
       d="m 36.30709,61.7565 c -0.0498,0.0166 -0.09473,0.06055 -0.13672,0.13379 l -2.43555,4.22559 c -0.04199,0.07715 -0.08203,0.1582 -0.11816,0.24219 -0.03711,0.08398 -0.07324,0.1709 -0.10742,0.26172 -0.03516,-0.08691 -0.07129,-0.17285 -0.1084,-0.25684 -0.03613,-0.08398 -0.07715,-0.16602 -0.12305,-0.24707 l -2.4668,-4.21973 C 30.76509,61.819 30.71919,61.7731 30.67134,61.7565 30.62446,61.74088 30.55904,61.73306 30.47505,61.73306 h -0.70312 v 6.89746 h 0.83984 v -5.03418 c 0,-0.15039 -0.01074,-0.3125 -0.03223,-0.4873 l 2.51953,4.31934 c 0.08105,0.14355 0.19629,0.21582 0.34668,0.21582 h 0.13672 c 0.15039,0 0.26562,-0.07227 0.34668,-0.21582 l 2.46191,-4.3252 c -0.0078,0.08789 -0.01367,0.17383 -0.01855,0.25977 -0.0059,0.08594 -0.0078,0.16406 -0.0078,0.2334 v 5.03418 h 0.84473 v -6.89746 h -0.70312 c -0.08398,0 -0.15039,0.0078 -0.19922,0.02344 z"
       id="path7684" />
    <polygon
       points="42.49557,64.77212 40.02291,64.77212 40.02291,62.5104 43.09322,62.5104 43.09322,61.73306 39.06197,61.73306 39.06197,68.63052 43.09322,68.63052 43.09908,67.85318 40.02291,67.85318 40.02291,65.5231 42.49557,65.5231 "
       id="polygon7686" />
    <path
       d="m 51.17721,61.7565 c -0.0498,0.0166 -0.09473,0.06055 -0.13672,0.13379 l -2.43555,4.22559 c -0.04199,0.07715 -0.08203,0.1582 -0.11816,0.24219 -0.03711,0.08398 -0.07324,0.1709 -0.10742,0.26172 -0.03516,-0.08691 -0.07129,-0.17285 -0.1084,-0.25684 -0.03613,-0.08398 -0.07715,-0.16602 -0.12305,-0.24707 l -2.4668,-4.21973 C 45.63521,61.819 45.58931,61.7731 45.54146,61.7565 45.49458,61.74088 45.42916,61.73306 45.34517,61.73306 h -0.70312 v 6.89746 h 0.83984 v -5.03418 c 0,-0.15039 -0.01074,-0.3125 -0.03223,-0.4873 l 2.51953,4.31934 c 0.08105,0.14355 0.19629,0.21582 0.34668,0.21582 h 0.13672 c 0.15039,0 0.26562,-0.07227 0.34668,-0.21582 l 2.46191,-4.3252 c -0.0078,0.08789 -0.01367,0.17383 -0.01855,0.25977 -0.0059,0.08594 -0.0078,0.16406 -0.0078,0.2334 v 5.03418 h 0.84473 v -6.89746 h -0.70312 c -0.08398,0 -0.15039,0.0078 -0.19922,0.02344 z"
       id="path7688" />
    <path
       d="m 57.10787,65.08169 c 0.20996,-0.06641 0.39258,-0.15332 0.5459,-0.26172 0.1543,-0.1084 0.28223,-0.22949 0.38379,-0.3623 0.10156,-0.13281 0.17676,-0.27832 0.22754,-0.43555 0.05078,-0.15723 0.07617,-0.32031 0.07617,-0.48828 0,-0.28027 -0.04297,-0.53125 -0.13086,-0.75293 -0.08789,-0.22266 -0.22461,-0.41113 -0.41211,-0.56738 -0.1875,-0.15527 -0.42676,-0.27441 -0.71875,-0.35645 -0.29297,-0.08301 -0.6416,-0.12402 -1.04785,-0.12402 h -2.10449 v 6.89746 h 2.33008 c 0.36816,0 0.69434,-0.04688 0.97949,-0.1416 0.28515,-0.09472 0.52539,-0.22852 0.72168,-0.40137 0.19629,-0.17383 0.34473,-0.38086 0.44629,-0.62207 0.10156,-0.24121 0.15234,-0.50977 0.15234,-0.80371 0,-0.42969 -0.12207,-0.77734 -0.36523,-1.04199 -0.24316,-0.26367 -0.60449,-0.44336 -1.08398,-0.53809 z m -2.22559,-2.59765 h 1.14941 c 0.46973,0 0.81348,0.09375 1.03223,0.28027 0.21777,0.1875 0.32812,0.48242 0.32812,0.88477 0,0.1748 -0.0293,0.33398 -0.08691,0.47754 -0.05761,0.14356 -0.14453,0.2666 -0.25977,0.36719 -0.11621,0.10156 -0.26074,0.18164 -0.43555,0.23926 -0.17578,0.05762 -0.37988,0.08691 -0.61426,0.08691 h -1.11328 v -2.33594 z m 2.64844,4.65332 c -0.05078,0.15234 -0.13086,0.28223 -0.24121,0.39062 -0.11035,0.10839 -0.25195,0.19336 -0.42578,0.25488 -0.17285,0.06152 -0.37988,0.0918 -0.62207,0.0918 h -1.35938 v -2.38281 h 1.35938 c 0.46582,0 0.80957,0.10254 1.03223,0.30957 0.22168,0.20605 0.33301,0.48633 0.33301,0.83984 0,0.17871 -0.02539,0.34375 -0.07617,0.49609 z"
       id="path7690" />
    <polygon
       points="63.42818,64.77212 60.95553,64.77212 60.95553,62.5104 64.02584,62.5104 64.02584,61.73306 59.99459,61.73306 59.99459,68.63052 64.02584,68.63052 64.0317,67.85318 60.95553,67.85318 60.95553,65.5231 63.42818,65.5231 "
       id="polygon7692" />
    <path
       d="m 68.37154,65.73013 c -0.05176,-0.04688 -0.1084,-0.08984 -0.16797,-0.12793 0.24902,-0.06348 0.4707,-0.15527 0.66699,-0.27637 0.19629,-0.12012 0.36133,-0.26465 0.49609,-0.43262 0.13476,-0.16797 0.23828,-0.35645 0.30957,-0.56738 0.07227,-0.20898 0.10742,-0.43555 0.10742,-0.67676 0,-0.29395 -0.04688,-0.55859 -0.1416,-0.79492 -0.09472,-0.23633 -0.24023,-0.4375 -0.43848,-0.60352 -0.19727,-0.16602 -0.44922,-0.29395 -0.75586,-0.38379 -0.30566,-0.08887 -0.66895,-0.13379 -1.08887,-0.13379 h -1.88965 v 6.89746 h 0.95508 V 65.7643 h 0.64062 c 0.12305,0 0.21484,0.0166 0.27539,0.0498 0.06152,0.0332 0.11816,0.08887 0.1709,0.16602 l 1.63281,2.45605 c 0.09082,0.12988 0.21875,0.19434 0.38281,0.19434 h 0.85059 l -1.85352,-2.72949 c -0.04883,-0.06641 -0.09961,-0.12305 -0.15234,-0.1709 z m -1.04883,-0.66406 h -0.89844 v -2.58203 h 0.93457 c 0.99707,0 1.49609,0.41113 1.49609,1.2334 0,0.19922 -0.03223,0.38281 -0.09668,0.54883 -0.06543,0.16602 -0.16211,0.30859 -0.29199,0.42773 -0.12891,0.11914 -0.28906,0.21094 -0.48047,0.27539 -0.19043,0.06445 -0.41113,0.09668 -0.66309,0.09668 z"
       id="path7694" />
  </g>
</svg>
