<?xml version="1.0" encoding="UTF-8" standalone="no"?>
<svg
   width="72"
   height="48"
   version="1.1"
   viewBox="0 0 54 35.999998"
   id="svg98"
   xmlns="http://www.w3.org/2000/svg"
   xmlns:svg="http://www.w3.org/2000/svg">
  <defs
     id="defs102" />
  <rect
     style="fill:#ffffff;stroke-width:28.1378;stroke-linecap:round;fill-opacity:1"
     id="rect1"
     width="54"
     height="36"
     x="0"
     y="1.548845e-07" />
  <g
     id="g2"
     style="fill:#005a9c"
     transform="matrix(0.07996632,0,0,0.07996632,12.611085,3.6060612)">
    <path
       d="m 267.09907,217.5246 c -4.57978,-3.63798 -11.26621,-2.86437 -14.90159,1.71883 -4.50272,5.68128 -8.59249,9.10095 -13.2548,11.09133 -8.59848,3.66165 -15.887,2.11411 -22.9334,-4.87242 -6.90489,-6.84502 -13.63254,-14.30405 -20.15969,-21.53308 -3.19277,-3.53761 -6.39122,-7.08111 -9.63119,-10.58337 -5.53565,-5.98261 -11.10063,-11.94175 -16.66004,-17.90678 l -0.49002,-0.52574 c -12.09214,-12.95156 -24.59156,-26.34627 -36.64837,-39.8 -9.56044,-10.67206 -24.33198,-15.95796 -38.54296,-13.81997 -14.52385,2.17344 -26.26789,11.47534 -33.07228,26.18698 -6.55649,14.16832 -4.33756,30.2679 5.78345,42.01469 17.80504,20.66498 32.82459,37.7507 50.41684,53.82092 7.19411,6.56726 15.89898,10.06353 25.1701,10.11076 6.01379,0.0297 15.07843,-0.64947 24.3262,-6.88037 4.04855,-2.72833 7.81955,-5.53388 9.47791,-9.81565 1.6879,-4.38203 0.11207,-9.41974 -3.84186,-12.26054 -3.83608,-2.76399 -8.87003,-2.56925 -12.52896,0.4724 -0.46048,0.38371 -0.96217,0.82685 -1.51076,1.30535 -5.74812,5.03771 -12.90102,11.30964 -27.48375,0.83243 -13.36088,-9.60301 -23.70613,-22.18855 -35.69229,-36.76425 -3.90683,-4.74858 -7.94939,-9.66225 -12.26928,-14.68238 -4.61511,-5.3565 -5.6125,-12.72704 -2.60266,-19.24138 2.62631,-5.6696 7.6956,-12.72136 16.97291,-14.10909 7.02854,-1.05737 14.90717,1.75376 19.6108,6.99852 12.15721,13.57178 24.75104,27.07265 36.9317,40.11879 5.70691,6.11275 11.41351,12.23118 17.09087,18.3676 3.1811,3.43734 6.32067,6.91562 9.50745,10.44744 6.69242,7.4121 13.60888,15.07208 20.91507,22.31869 13.18993,13.08139 29.5843,16.39469 46.18546,9.32536 7.97304,-3.40778 14.82474,-8.94166 21.55238,-17.42839 3.62928,-4.57699 2.86223,-11.26271 -1.71724,-14.90669 z"
       id="path1" />
    <path
       d="m 283.69341,158.56819 c 6.85759,-3.25427 12.25172,-9.37881 12.76509,-16.80848 1.30427,-12.89833 -9.30675,-25.24177 -24.91641,-27.14955 -9.58399,-1.21645 -18.47768,1.62435 -24.78038,6.85112 -3.36971,2.80524 -4.27868,7.99665 -1.35747,11.65831 3.19267,3.80926 6.87525,4.47641 12.90092,1.16353 2.15985,-1.22844 5.40581,-2.25025 8.97622,-2.00237 6.73364,0.46682 8.66334,6.53801 8.47453,9.29601 -0.0296,0.40759 0.0119,9.80965 -9.47192,9.15418 l -3.5764,-0.24788 c -3.98347,-0.27186 -7.96715,3.45491 -8.26205,7.7188 -0.31886,4.53605 2.99796,8.49872 7.12294,8.78826 l 4.39664,0.30111 c 12.09844,0.83874 10.83538,11.11489 10.58169,12.75692 -0.23602,4.7247 -7.81376,12.73893 -21.32824,3.62599 -4.58557,-3.08868 -37.29188,-44.19992 -37.29188,-44.19992 -15.49728,-20.05056 -41.83004,-23.58238 -62.60938,-8.39225 -2.2838,1.67128 -3.78887,4.13405 -4.22549,6.9396 -0.43083,2.79924 0.2478,5.60469 1.91804,7.89018 1.67003,2.2855 4.13108,3.79169 6.92844,4.22863 2.81482,0.43715 5.6063,-0.24798 7.8903,-1.91947 14.17544,-10.36474 26.81059,-4.18739 33.3081,4.22285 0,0 35.11437,45.19805 44.15546,49.98767 5.86619,3.10666 11.99205,4.90198 18.218,5.33324 19.10931,1.32282 30.74696,-9.21342 33.88685,-23.6474 2.05934,-9.4613 -4.05454,-21.28489 -13.7036,-25.54908 z"
       id="path2" />
  </g>
  <g
     id="g36"
     aria-label="WORLD WIDE WEB CONSORTIUM"
     style="fill:#002a56"
     transform="matrix(0.07996632,0,0,0.07996632,12.611085,3.6060612)">
    <path
       d="m 334.16403,146.54462 13.9844,1.51738 c 0.18018,0.0166 0.38253,0.0333 0.60151,0.0555 0.22175,0.0222 0.45183,0.0361 0.69021,0.0416 -0.21898,0.0915 -0.42965,0.18586 -0.62923,0.28295 -0.19958,0.0915 -0.37975,0.18586 -0.53776,0.28017 l -12.48479,6.444 0.67635,3.56736 21.01125,2.1443 -0.58488,-3.08746 c -0.0582,-0.32178 -0.20235,-0.58254 -0.41856,-0.78227 -0.22175,-0.2025 -0.45183,-0.31624 -0.69576,-0.34398 l -12.05791,-0.76285 c -0.30491,-0.025 -0.63477,-0.0416 -0.98681,-0.0527 -0.35481,-0.0111 -0.72902,-0.0166 -1.12263,-0.0139 0.3659,-0.15257 0.71239,-0.30514 1.04225,-0.45494 0.32709,-0.14702 0.62646,-0.29959 0.89811,-0.45494 l 10.83271,-5.65063 c 0.25225,-0.1387 0.43797,-0.33288 0.54884,-0.57699 0.11642,-0.24689 0.14137,-0.5437 0.0748,-0.89045 l -0.21898,-1.15398 c -0.0582,-0.32178 -0.19958,-0.57699 -0.41579,-0.77672 -0.21898,-0.19695 -0.44905,-0.31346 -0.69576,-0.34952 l -12.13275,-1.30933 c -0.31877,-0.0555 -0.66526,-0.086 -1.03393,-0.0999 -0.36867,-0.0139 -0.75674,-0.0222 -1.16144,-0.0277 0.76228,-0.29959 1.42477,-0.59364 1.99025,-0.87658 l 10.93805,-5.10693 c 0.24393,-0.1276 0.42411,-0.32178 0.54053,-0.57699 0.11919,-0.25521 0.14414,-0.55757 0.0776,-0.9071 l -0.62091,-3.30106 -18.77985,9.67015 0.67081,3.55349 z"
       id="path3" />
    <path
       d="m 354.99233,168.33159 c -0.94246,-0.84052 -2.05123,-1.48131 -3.32632,-1.91683 -1.28063,-0.44107 -2.65551,-0.64079 -4.12741,-0.60196 -1.48576,0.0388 -2.85232,0.31069 -4.10523,0.81833 -1.25291,0.50764 -2.32842,1.20669 -3.2293,2.09437 -0.90088,0.88768 -1.59663,1.94457 -2.08172,3.1679 -0.48509,1.22611 -0.70961,2.5715 -0.67081,4.04726 0.0388,1.47576 0.33263,2.81283 0.88425,4.00843 0.54884,1.19282 1.30004,2.21088 2.24804,3.04307 0.948,0.83497 2.05955,1.47022 3.33464,1.90574 1.27786,0.42997 2.65828,0.6297 4.14127,0.59086 1.47467,-0.0416 2.83569,-0.31069 4.08306,-0.81278 1.24737,-0.49932 2.32288,-1.19282 3.22376,-2.07495 0.90088,-0.88768 1.59663,-1.93902 2.09004,-3.16513 0.48786,-1.22056 0.71516,-2.5715 0.67635,-4.04449 -0.0416,-1.47299 -0.3354,-2.81006 -0.89256,-4.00565 -0.55439,-1.19559 -1.30558,-2.21642 -2.24804,-3.05417 z m -0.67358,9.56475 c -0.30214,0.71569 -0.74565,1.32597 -1.33053,1.83639 -0.58765,0.51042 -1.30558,0.9071 -2.15379,1.19282 -0.84544,0.2885 -1.80453,0.44661 -2.88281,0.47435 -1.0866,0.0305 -2.06232,-0.0749 -2.92993,-0.31624 -0.86207,-0.24411 -1.60218,-0.60196 -2.20923,-1.07908 -0.60705,-0.47712 -1.07828,-1.06521 -1.41091,-1.76426 -0.3354,-0.69905 -0.51281,-1.49518 -0.53776,-2.39119 -0.0222,-0.896 0.11365,-1.70323 0.41025,-2.4217 0.2966,-0.71847 0.73456,-1.33429 1.31667,-1.84471 0.57933,-0.50764 1.29726,-0.90432 2.14825,-1.19282 0.85098,-0.28572 1.82116,-0.44384 2.90776,-0.47158 1.07828,-0.0305 2.04569,0.0777 2.90499,0.31624 0.86207,0.24134 1.59941,0.60196 2.212,1.08186 0.6126,0.47435 1.0866,1.06521 1.42477,1.76704 0.33818,0.7046 0.52112,1.50351 0.54607,2.39951 0.0222,0.89323 -0.11642,1.69769 -0.41579,2.41338 z"
       id="path4" />
    <path
       d="m 337.1882,193.28925 7.74755,0.80723 -0.1386,1.34816 c -0.036,0.34675 -0.11642,0.60473 -0.23561,0.78504 -0.12197,0.17476 -0.31046,0.32456 -0.56825,0.45216 l -6.65818,3.01811 c -0.57379,0.2885 -0.88979,0.75175 -0.95632,1.38977 l -0.37421,3.5951 7.80854,-3.74212 c 0.30214,-0.16367 0.5627,-0.34398 0.78169,-0.54648 0.22453,-0.2025 0.41579,-0.42165 0.58488,-0.66299 0.16354,0.6824 0.40747,1.29823 0.73733,1.84193 0.32432,0.54648 0.71516,1.01806 1.16976,1.41751 0.4546,0.39945 0.9674,0.72124 1.53842,0.96813 0.57379,0.24134 1.18916,0.39668 1.84334,0.46603 0.86207,0.0888 1.66316,0.0277 2.41158,-0.17754 0.74842,-0.21082 1.40814,-0.59364 1.99025,-1.15121 0.57656,-0.56035 1.06442,-1.30655 1.44972,-2.23584 0.3853,-0.93206 0.6514,-2.0694 0.79277,-3.41756 l 0.62646,-6.06951 -20.13809,-2.08882 -0.41302,4.00288 z m 10.58324,1.10127 6.4891,0.67408 -0.21344,2.06385 c -0.13028,1.25662 -0.49063,2.1554 -1.08383,2.7102 -0.59319,0.55203 -1.38042,0.77395 -2.36169,0.67408 -0.4934,-0.0499 -0.94523,-0.17199 -1.34993,-0.36339 -0.4047,-0.18863 -0.74565,-0.45216 -1.0173,-0.78782 -0.26611,-0.33288 -0.46568,-0.74898 -0.58765,-1.23443 -0.12751,-0.48822 -0.15246,-1.05412 -0.0859,-1.70601 l 0.21067,-2.03057 z"
       id="path5" />
    <polygon
       points="337.72873,212.33274 354.31043,215.84739 355.14479,211.92219 335.33932,207.72235 333.04971,218.52707 336.27347,219.21225 "
       id="polygon5" />
    <path
       d="m 329.92851,228.91569 c -0.46568,1.40087 -0.65418,2.75181 -0.55993,4.05836 0.0915,1.30655 0.42688,2.50492 1.00344,3.6062 0.57933,1.09573 1.38597,2.06385 2.42267,2.89883 1.03116,0.83775 2.25358,1.48686 3.66172,1.95844 1.39983,0.46326 2.76085,0.66853 4.08306,0.61583 1.32776,-0.0527 2.54463,-0.34675 3.6645,-0.87936 1.11986,-0.53538 2.10667,-1.29823 2.9632,-2.28855 0.85376,-0.99309 1.5107,-2.18868 1.97362,-3.58678 l 2.32565,-7.00989 -19.21504,-6.38297 -2.32288,7.00989 z m 3.02418,1.00419 1.05333,-3.18732 13.18054,4.37737 -1.05333,3.18732 c -0.28274,0.84884 -0.68744,1.56453 -1.21411,2.13598 -0.52667,0.57422 -1.1559,1.00141 -1.87937,1.28159 -0.72625,0.2774 -1.53288,0.41055 -2.42544,0.39113 -0.89533,-0.0166 -1.85442,-0.19695 -2.87449,-0.53816 -1.03393,-0.33843 -1.91263,-0.77395 -2.6472,-1.29268 -0.73179,-0.52429 -1.30558,-1.11237 -1.7186,-1.76981 -0.41302,-0.65744 -0.65695,-1.37313 -0.73456,-2.14985 -0.0748,-0.77395 0.0277,-1.58673 0.31323,-2.43557 z"
       id="path6-3" />
    <path
       d="m 318.19769,256.09532 9.54099,10.34424 c 0.12474,0.13315 0.26056,0.2774 0.41302,0.44107 0.15523,0.16089 0.31877,0.32178 0.49618,0.48268 -0.23007,-0.0721 -0.44905,-0.14147 -0.65972,-0.19973 -0.21344,-0.061 -0.41025,-0.10819 -0.58765,-0.14425 l -13.64345,-3.35654 -1.83502,3.13184 14.42237,15.43729 1.58832,-2.70742 c 0.16632,-0.28295 0.23284,-0.57144 0.19958,-0.86826 -0.0333,-0.29682 -0.13305,-0.53261 -0.29937,-0.71014 l -8.5819,-8.51062 c -0.21621,-0.21915 -0.45183,-0.44939 -0.70961,-0.6935 -0.26056,-0.24134 -0.54053,-0.48545 -0.83712,-0.74343 0.37421,0.12206 0.73456,0.23856 1.08105,0.3412 0.34649,0.10264 0.67358,0.18308 0.97849,0.24689 l 11.87496,2.87109 c 0.28274,0.0582 0.54607,0.0333 0.79277,-0.0749 0.2467,-0.10819 0.46014,-0.31624 0.64032,-0.62415 l 0.59319,-1.01251 c 0.16632,-0.28017 0.23007,-0.5659 0.19404,-0.85717 -0.0333,-0.29404 -0.13028,-0.53538 -0.29382,-0.72124 l -8.27699,-8.96833 c -0.21067,-0.25243 -0.44628,-0.50209 -0.71516,-0.75453 -0.27165,-0.25521 -0.55716,-0.51596 -0.85653,-0.78782 0.76783,0.27463 1.46081,0.49377 2.07341,0.65189 l 11.59777,3.34544 c 0.26888,0.0638 0.52944,0.0361 0.78446,-0.0777 0.25779,-0.11651 0.47677,-0.32733 0.65695,-0.63247 l 1.69642,-2.89605 -20.50399,-5.07087 -1.82393,3.11797 z"
       id="path7" />
    <rect
       x="311.21722"
       y="271.97162"
       width="4.0249701"
       height="20.251511"
       transform="rotate(-52.57919,313.22973,282.09739)"
       id="rect7" />
    <path
       d="m 295.83373,287.09196 c -1.00344,1.08186 -1.73246,2.23307 -2.19537,3.45917 -0.46014,1.22611 -0.6514,2.46054 -0.58211,3.69774 0.0721,1.23998 0.40193,2.45499 0.99512,3.64503 0.59319,1.19004 1.43309,2.29132 2.51969,3.30383 1.07828,1.00696 2.23141,1.75594 3.45937,2.26081 1.22519,0.50209 2.4587,0.74343 3.69776,0.72401 1.24183,-0.0194 2.45593,-0.30237 3.64232,-0.85162 1.18916,-0.54648 2.28407,-1.35926 3.29028,-2.43834 l 5.02551,-5.40652 -14.8243,-13.79786 -5.02829,5.40375 z m 12.50142,11.63969 c -0.60705,0.65466 -1.27232,1.13456 -1.99025,1.43693 -0.7207,0.30514 -1.46635,0.42997 -2.23972,0.38559 -0.77614,-0.0472 -1.56614,-0.26908 -2.37,-0.65466 -0.80663,-0.39113 -1.60495,-0.94871 -2.39218,-1.68659 -0.79554,-0.74066 -1.41923,-1.49796 -1.86828,-2.27745 -0.44905,-0.77949 -0.72347,-1.55621 -0.82881,-2.32184 -0.10256,-0.77395 -0.0249,-1.5257 0.2273,-2.26081 0.25225,-0.73511 0.68467,-1.43416 1.29449,-2.08605 l 2.28407,-2.45776 10.16745,9.46488 z"
       id="path8-9" />
    <polygon
       points="285.38355,301.68874 288.91499,305.85528 283.97263,310.04956 285.95734,312.38527 290.89692,308.19098 294.35907,312.27708 288.01134,317.66419 290.07366,320.09698 299.48991,312.10232 286.38976,296.65393 276.9735,304.64859 279.02196,307.08971 "
       id="polygon8" />
    <path
       d="m 260.17559,315.99979 2.93271,13.76735 c 0.036,0.17754 0.0832,0.37172 0.13305,0.58809 0.0471,0.21637 0.10811,0.44107 0.1774,0.67131 -0.158,-0.18031 -0.31323,-0.34952 -0.46568,-0.51319 -0.14968,-0.15812 -0.2966,-0.29959 -0.43242,-0.41887 l -10.01777,-9.85601 -3.17664,1.75594 4.52657,20.64131 2.75253,-1.52015 c 0.28274,-0.15812 0.48786,-0.36894 0.60983,-0.64079 0.12197,-0.27463 0.158,-0.52706 0.10811,-0.7684 l -3.04081,-11.70072 c -0.0721,-0.29959 -0.158,-0.61583 -0.26056,-0.95703 -0.0998,-0.33843 -0.21067,-0.6935 -0.3354,-1.06799 0.25502,0.29959 0.50726,0.58254 0.75397,0.84607 0.24393,0.26353 0.48509,0.50487 0.71516,0.71292 l 8.74822,8.53282 c 0.21344,0.19695 0.45183,0.31069 0.71793,0.3412 0.27165,0.0333 0.55993,-0.0361 0.87039,-0.20805 l 1.02839,-0.5659 c 0.28274,-0.15812 0.48509,-0.37172 0.60151,-0.64079 0.12197,-0.26908 0.16077,-0.52706 0.11919,-0.7684 l -2.55018,-11.94206 c -0.0499,-0.32178 -0.12474,-0.66021 -0.23007,-1.01251 -0.10256,-0.35785 -0.21621,-0.72956 -0.33263,-1.11515 0.52112,0.6297 1.00344,1.16785 1.45249,1.62001 l 8.2659,8.79912 c 0.19958,0.19141 0.43797,0.30237 0.71516,0.33565 0.27719,0.0305 0.57656,-0.0388 0.88425,-0.21082 l 2.93825,-1.62279 -15.04328,-14.82979 -3.16555,1.74762 z"
       id="path9" />
    <polygon
       points="238.54342,329.98073 240.46714,335.09044 234.4077,337.37621 235.48598,340.24452 241.55097,337.95875 243.43588,342.96859 235.64952,345.90903 236.76938,348.89385 248.32557,344.5359 241.18785,325.57563 229.63166,329.93358 230.74043,332.92117 "
       id="polygon9" />
    <path
       d="m 218.4774,333.04045 c -1.11155,0.28572 -2.06509,0.68518 -2.84955,1.19559 -0.78723,0.51319 -1.40814,1.10405 -1.86274,1.76981 -0.45183,0.66853 -0.74011,1.39255 -0.86207,2.18314 -0.12751,0.78782 -0.0804,1.6006 0.13305,2.43557 0.58211,2.27745 2.22032,3.39815 4.90632,3.35931 -0.52667,0.35507 -0.96186,0.73788 -1.30558,1.14843 -0.34095,0.405 -0.59597,0.82665 -0.7706,1.25662 -0.17186,0.43552 -0.26888,0.87936 -0.29105,1.33429 -0.0166,0.45771 0.0333,0.90987 0.14691,1.36481 0.20512,0.79891 0.52112,1.48964 0.948,2.06663 0.42411,0.57699 0.97849,1.02083 1.66039,1.32874 0.6819,0.30791 1.50239,0.47158 2.46148,0.48822 0.95909,0.0166 2.06786,-0.1387 3.32909,-0.46048 l 6.66096,-1.70878 -5.02274,-19.62603 z m -0.39916,8.43573 c -0.31046,-0.16089 -0.55993,-0.39113 -0.75951,-0.68795 -0.19404,-0.29682 -0.34372,-0.64634 -0.44905,-1.04857 -0.097,-0.37726 -0.14137,-0.75175 -0.13028,-1.12624 0.0111,-0.37726 0.0998,-0.72679 0.27165,-1.05412 0.17463,-0.32733 0.44905,-0.62415 0.82049,-0.88491 0.37144,-0.26353 0.87039,-0.47713 1.48853,-0.63525 l 3.32355,-0.85439 1.41369,5.51471 -3.30692,0.84884 c -0.59319,0.1498 -1.10877,0.21637 -1.54951,0.19973 -0.43797,-0.0194 -0.81218,-0.11096 -1.12263,-0.27185 z m 5.28053,8.04736 c -1.10323,0.28295 -1.9653,0.28572 -2.58067,0.008 -0.61537,-0.2774 -1.05611,-0.91819 -1.31112,-1.92238 -0.24947,-0.96813 -0.13028,-1.73375 0.35481,-2.30519 0.48232,-0.56867 1.26955,-0.99587 2.36446,-1.27604 l 2.55295,-0.65466 1.39428,5.43981 z"
       id="path10" />
    <path
       d="m 200.38499,342.69674 c -0.51558,-1.22611 -1.1947,-2.26636 -2.0346,-3.12075 -0.84267,-0.85162 -1.82948,-1.48964 -2.96597,-1.90851 -1.13649,-0.42165 -2.38941,-0.57699 -3.75597,-0.46326 -1.5107,0.1276 -2.79134,0.50487 -3.84467,1.13456 -1.05333,0.62692 -1.90709,1.48686 -2.55018,2.5715 l 1.74077,1.58395 c 0.16354,0.1498 0.35204,0.2136 0.56547,0.19695 0.11365,-0.008 0.21898,-0.0444 0.32154,-0.11096 0.0998,-0.0638 0.19958,-0.1387 0.29382,-0.23024 0.23007,-0.29404 0.46568,-0.5437 0.70407,-0.74621 0.23839,-0.20528 0.4934,-0.37726 0.77614,-0.51874 0.27719,-0.1387 0.58211,-0.24689 0.91197,-0.32178 0.32986,-0.0721 0.7013,-0.1276 1.11709,-0.16089 0.69853,-0.061 1.36379,0.0416 1.99856,0.29959 0.63477,0.25798 1.20302,0.66576 1.69919,1.22056 0.50172,0.5548 0.91751,1.25107 1.25569,2.09159 0.3354,0.83775 0.54884,1.81419 0.64032,2.91825 0.0915,1.09295 0.0554,2.0805 -0.11365,2.95708 -0.16354,0.87658 -0.44074,1.62834 -0.82881,2.25803 -0.38807,0.62969 -0.87039,1.12347 -1.45249,1.48409 -0.57933,0.35785 -1.24183,0.56867 -1.97916,0.63247 -0.6819,0.0555 -1.24183,0.0222 -1.69365,-0.10541 -0.44905,-0.12483 -0.82326,-0.27185 -1.13095,-0.44107 -0.30214,-0.16644 -0.5627,-0.32456 -0.77337,-0.47158 -0.21067,-0.14425 -0.42133,-0.21082 -0.63477,-0.19141 -0.21344,0.0166 -0.37421,0.0777 -0.48509,0.17754 -0.10533,0.10264 -0.20235,0.21082 -0.28274,0.33011 l -1.18084,1.98341 c 0.76228,0.73234 1.68811,1.29546 2.77193,1.68936 1.08382,0.3939 2.3007,0.53538 3.65895,0.42165 1.33607,-0.11373 2.54186,-0.46881 3.6146,-1.06799 1.06997,-0.59918 1.96807,-1.38977 2.69432,-2.36899 0.72347,-0.97645 1.25291,-2.11656 1.58832,-3.41756 0.3354,-1.29823 0.44074,-2.70187 0.31323,-4.21093 -0.12197,-1.50073 -0.44351,-2.86277 -0.95909,-4.09442 z"
       id="path11" />
    <path
       d="m 180.27462,340.74662 c -0.82326,-0.96258 -1.82948,-1.72543 -3.01586,-2.2941 -1.18362,-0.57144 -2.51414,-0.88768 -3.98604,-0.94871 -1.47467,-0.0638 -2.8246,0.1387 -4.05534,0.60751 -1.22797,0.46603 -2.29516,1.14566 -3.19327,2.03057 -0.89533,0.89045 -1.60495,1.95844 -2.12607,3.20397 -0.51835,1.24275 -0.8094,2.61033 -0.87316,4.09165 -0.061,1.47299 0.11365,2.85167 0.52944,4.13048 0.41302,1.27881 1.03116,2.39951 1.84888,3.35931 0.82049,0.96258 1.82116,1.73097 3.00755,2.30797 1.18639,0.57144 2.51414,0.89045 3.98881,0.95426 1.4719,0.061 2.82183,-0.14425 4.05257,-0.61583 1.23074,-0.47435 2.29793,-1.15121 3.20158,-2.03334 0.90088,-0.88491 1.61327,-1.94735 2.13993,-3.19287 0.52667,-1.2483 0.82049,-2.60756 0.88147,-4.07778 0.061,-1.48409 -0.11642,-2.86831 -0.53498,-4.15545 -0.41856,-1.28436 -1.03947,-2.40506 -1.86551,-3.36763 z m -2.21478,10.22772 c -0.29937,0.8433 -0.70961,1.55344 -1.22519,2.13043 -0.51835,0.57977 -1.14204,1.01528 -1.86551,1.30378 -0.72347,0.29127 -1.53288,0.41887 -2.42544,0.38004 -0.89533,-0.0388 -1.68811,-0.23302 -2.37832,-0.57977 -0.69576,-0.34952 -1.27509,-0.83497 -1.74077,-1.45635 -0.46846,-0.62138 -0.81495,-1.36481 -1.04502,-2.23029 -0.2273,-0.86271 -0.31877,-1.83361 -0.27442,-2.90992 0.0471,-1.09018 0.22175,-2.05831 0.52112,-2.90438 0.29937,-0.84884 0.70961,-1.55621 1.22797,-2.13043 0.51835,-0.57422 1.13372,-1.00419 1.85442,-1.28991 0.7207,-0.28295 1.52456,-0.40778 2.41713,-0.37172 0.89533,0.0388 1.69088,0.23024 2.38663,0.57699 0.69853,0.3412 1.28341,0.82388 1.74909,1.4397 0.46846,0.61583 0.81495,1.35648 1.04225,2.22475 0.2273,0.87104 0.31877,1.85026 0.27442,2.93766 -0.0471,1.07908 -0.21898,2.03889 -0.51835,2.87941 z"
       id="path12-9" />
    <path
       d="m 154.26002,347.97565 c -0.0998,0.52983 -0.17463,1.11237 -0.2273,1.74484 l -7.42324,-14.6578 c -0.15523,-0.2774 -0.32432,-0.48545 -0.50726,-0.6297 -0.18849,-0.14147 -0.43519,-0.24134 -0.74565,-0.29682 l -2.02351,-0.37449 -3.65618,19.93117 3.46769,0.63525 2.13993,-11.67575 c 0.10533,-0.59086 0.19126,-1.22056 0.25225,-1.89187 l 7.43432,14.73547 c 0.0887,0.1498 0.16632,0.27463 0.23561,0.36894 0.0693,0.0971 0.14968,0.17476 0.23561,0.23579 0.0859,0.0638 0.19126,0.11373 0.30768,0.1498 0.11642,0.0361 0.25779,0.0721 0.42688,0.10264 l 2.07063,0.38004 3.65341,-19.93117 -3.476,-0.63802 -2.16488,11.81168 z"
       id="path13" />
    <path
       d="m 136.98811,332.45791 c -0.46291,-0.39391 -0.9674,-0.73511 -1.50793,-1.03747 -0.53776,-0.29959 -1.10046,-0.54093 -1.68256,-0.71847 -1.03116,-0.31901 -1.99579,-0.43829 -2.89944,-0.35785 -0.90365,0.0804 -1.7186,0.31901 -2.45039,0.71569 -0.72625,0.39668 -1.3527,0.93761 -1.87937,1.61447 -0.52112,0.67963 -0.92028,1.45635 -1.19193,2.33016 -0.24947,0.80723 -0.34372,1.5257 -0.27997,2.16649 0.0637,0.63802 0.23284,1.21224 0.50449,1.71988 0.27442,0.51042 0.62091,0.97367 1.03947,1.38422 0.42133,0.41333 0.86484,0.79614 1.33053,1.14843 0.46291,0.3523 0.92028,0.68795 1.36933,1.00973 0.44905,0.31901 0.8399,0.64357 1.16698,0.97367 0.32986,0.33011 0.56825,0.67686 0.71793,1.03747 0.14691,0.36339 0.15523,0.76008 0.0194,1.19559 -0.21344,0.69073 -0.60705,1.18172 -1.18362,1.47299 -0.57379,0.29127 -1.29726,0.29959 -2.17042,0.0277 -0.49618,-0.15257 -0.91197,-0.35785 -1.24737,-0.61028 -0.3354,-0.25243 -0.62368,-0.50487 -0.86207,-0.75453 -0.23561,-0.24689 -0.43797,-0.47435 -0.60983,-0.67408 -0.16909,-0.20528 -0.34926,-0.33565 -0.53221,-0.39113 -0.19681,-0.061 -0.37144,-0.0721 -0.52667,-0.0277 -0.158,0.0416 -0.31323,0.14425 -0.47123,0.30791 l -1.53565,1.50351 c 0.46846,0.85994 1.11986,1.61724 1.95421,2.2719 0.83435,0.65189 1.80453,1.14843 2.9133,1.49241 0.98126,0.30514 1.90155,0.4161 2.76085,0.33565 0.8593,-0.0777 1.63267,-0.29959 2.32011,-0.66021 0.68467,-0.36339 1.27232,-0.83775 1.74909,-1.43138 0.48232,-0.59086 0.83158,-1.23998 1.05333,-1.95012 0.27719,-0.89323 0.38807,-1.67827 0.33818,-2.35235 -0.0499,-0.67686 -0.20789,-1.27881 -0.47123,-1.80587 -0.26056,-0.52983 -0.60428,-0.99587 -1.02562,-1.39809 -0.42411,-0.40223 -0.86762,-0.77395 -1.3333,-1.1096 -0.46291,-0.33565 -0.92583,-0.65466 -1.37765,-0.96258 -0.4546,-0.30514 -0.84267,-0.62415 -1.16698,-0.95148 -0.32154,-0.32733 -0.55439,-0.68795 -0.69576,-1.07076 -0.14414,-0.38559 -0.13582,-0.82665 0.0166,-1.32042 0.26888,-0.87381 0.71793,-1.4619 1.34162,-1.75594 0.62646,-0.29682 1.37211,-0.31069 2.24527,-0.0416 0.60428,0.19141 1.09769,0.44107 1.47744,0.75453 0.37975,0.31901 0.7013,0.63247 0.96186,0.95426 0.26333,0.32178 0.4934,0.61305 0.68467,0.86549 0.19126,0.25798 0.40193,0.42442 0.63477,0.49655 0.1774,0.0527 0.35204,0.061 0.53221,0.0194 0.17463,-0.0416 0.32986,-0.12206 0.46291,-0.24134 l 1.69919,-1.46744 c -0.23839,-0.49932 -0.54607,-0.97922 -0.92583,-1.4397 -0.37975,-0.45494 -0.80109,-0.87936 -1.26677,-1.26772 z"
       id="path14" />
    <path
       d="m 119.04539,326.24138 c -0.88702,-0.96813 -2.00965,-1.75594 -3.35404,-2.35512 -1.34439,-0.60473 -2.67492,-0.91542 -3.99158,-0.93484 -1.3139,-0.025 -2.55572,0.2136 -3.71439,0.70737 -1.16421,0.49655 -2.21477,1.22333 -3.16,2.18868 -0.94246,0.96535 -1.7186,2.12211 -2.32565,3.48137 -0.60151,1.34539 -0.94523,2.688 -1.03393,4.03062 -0.0859,1.34539 0.0721,2.61311 0.47954,3.8087 0.4047,1.19559 1.05056,2.28023 1.94313,3.2539 0.88979,0.9709 2.00688,1.75871 3.35127,2.36345 1.34716,0.60196 2.68046,0.90987 3.99713,0.92652 1.31667,0.0139 2.55849,-0.22192 3.72271,-0.71014 1.16421,-0.48268 2.22032,-1.20669 3.16832,-2.17204 0.948,-0.96258 1.72414,-2.11656 2.32565,-3.46472 0.60428,-1.35371 0.95077,-2.70465 1.0367,-4.05558 0.0859,-1.34816 -0.0776,-2.62143 -0.48786,-3.82257 -0.41025,-1.19559 -1.06442,-2.27745 -1.95698,-3.24558 z m -1.50794,6.62154 c -0.10533,0.89045 -0.38253,1.83361 -0.82881,2.8267 -0.44074,0.98477 -0.95632,1.81419 -1.54397,2.4855 -0.59042,0.66853 -1.23351,1.18172 -1.92649,1.5257 -0.69576,0.34675 -1.43309,0.52151 -2.21477,0.52151 -0.77891,0.003 -1.57723,-0.18031 -2.39218,-0.5437 -0.81772,-0.36617 -1.48298,-0.83775 -1.99856,-1.42029 -0.51281,-0.58254 -0.87039,-1.2483 -1.07551,-1.99728 -0.20512,-0.74898 -0.25502,-1.56731 -0.14968,-2.45499 0.11088,-0.88768 0.38253,-1.82529 0.82326,-2.80729 0.44351,-0.99309 0.96186,-1.83084 1.55505,-2.50492 0.59042,-0.67686 1.23351,-1.1845 1.92649,-1.52847 0.69298,-0.3412 1.42755,-0.51319 2.20091,-0.51042 0.7706,0 1.56891,0.18308 2.38386,0.54925 0.81772,0.36617 1.48298,0.83775 2.00411,1.41751 0.5239,0.57699 0.88702,1.23998 1.09214,1.98341 0.20789,0.74621 0.25502,1.56453 0.14414,2.45776 z"
       id="path15" />
    <path
       d="m 100.17129,316.15236 -4.06643,6.65205 -1.1559,-0.70737 c -0.2966,-0.18031 -0.49618,-0.36339 -0.60705,-0.54925 -0.10533,-0.18586 -0.16077,-0.42165 -0.16354,-0.70737 l 0.14691,-7.31503 c -0.01386,-0.64079 -0.29382,-1.12902 -0.8399,-1.46467 l -3.08239,-1.88354 0.01386,8.66319 c 0.01386,0.3412 0.06653,0.65744 0.15523,0.94593 0.08593,0.28295 0.19958,0.55203 0.34372,0.80723 -0.68744,-0.14702 -1.34439,-0.18863 -1.97639,-0.1276 -0.63477,0.061 -1.22797,0.20805 -1.78512,0.44384 -0.55439,0.24134 -1.06719,0.5659 -1.53288,0.97645 -0.46568,0.41333 -0.87039,0.90155 -1.21688,1.46467 -0.45183,0.73511 -0.74011,1.48964 -0.87593,2.25249 -0.13582,0.76562 -0.07484,1.52847 0.18018,2.2941 0.25502,0.76008 0.71516,1.51738 1.39151,2.2719 0.67081,0.75175 1.58555,1.48131 2.73867,2.18591 l 5.19737,3.18455 10.56661,-17.282 -3.43165,-2.10546 z m -8.95888,14.65502 -1.76849,-1.07908 c -1.07274,-0.66021 -1.73246,-1.3759 -1.97639,-2.14985 -0.24116,-0.77395 -0.10533,-1.58395 0.40747,-2.42447 0.26333,-0.42442 0.56547,-0.77949 0.90919,-1.05967 0.34649,-0.28572 0.72902,-0.47435 1.15035,-0.57977 0.41579,-0.0999 0.87593,-0.0999 1.36933,-0.003 0.49063,0.10264 1.01453,0.31901 1.57169,0.66021 l 1.74355,1.06521 -3.40671,5.57019 z"
       id="path16" />
    <polygon
       points="78.88008,322.76834 74.5614,319.42567 84.95338,305.98566 81.79061,303.53899 71.4014,316.98178 67.08273,313.64189 65.08694,316.22448 76.88151,325.35371 "
       id="polygon16" />
    <rect
       x="56.381241"
       y="301.77063"
       width="20.252621"
       height="4.02633"
       transform="rotate(-47.54068,66.507534,303.78377)"
       id="rect16-7" />
    <path
       d="m 64.06132,294.30435 c 0.50172,-0.97922 0.79,-1.98896 0.85653,-3.03475 0.0693,-1.04302 -0.09147,-2.09437 -0.48232,-3.15958 -0.39361,-1.06244 -1.02562,-2.0805 -1.90155,-3.05972 -0.87316,-0.97367 -1.81562,-1.7171 -2.8246,-2.21642 -1.00621,-0.50209 -2.0346,-0.77949 -3.07962,-0.82388 -1.04502,-0.0472 -2.07895,0.12483 -3.10734,0.51874 -1.02562,0.39391 -1.99025,0.99864 -2.89944,1.81142 l -8.99492,8.06124 2.66383,2.9765 8.99492,-8.05846 c 0.5627,-0.50209 1.13372,-0.88213 1.72691,-1.13734 0.58765,-0.25521 1.16976,-0.38281 1.74355,-0.38559 0.57102,0 1.12818,0.1276 1.67148,0.38559 0.5433,0.25521 1.05333,0.64912 1.53011,1.18172 0.47123,0.52983 0.80663,1.07908 1.00344,1.64775 0.19681,0.56867 0.26056,1.13734 0.19958,1.70878 -0.06653,0.5659 -0.25779,1.13179 -0.57656,1.68936 -0.31877,0.55757 -0.75674,1.08741 -1.31944,1.59227 l -8.99215,8.06124 2.67214,2.9876 8.99769,-8.06124 c 0.90919,-0.81278 1.61327,-1.70601 2.11776,-2.68523 z"
       id="path17" />
    <path
       d="m 51.75948,272.32597 -10.647,6.86842 c -0.23839,0.15812 -0.49063,0.33288 -0.75951,0.52706 -0.26888,0.19695 -0.53221,0.405 -0.80109,0.6297 l 6.0539,-11.60918 c 0.32154,-0.58254 0.316,-1.13734 -0.0194,-1.65608 l -0.30491,-0.47713 c -0.32986,-0.51319 -0.82881,-0.74066 -1.49684,-0.68518 l -12.96987,0.76562 c 0.29937,-0.15534 0.58765,-0.31624 0.86762,-0.47435 0.27442,-0.16367 0.52944,-0.31624 0.76228,-0.46603 l 10.64422,-6.87397 -1.91263,-2.96263 -17.00858,10.98503 1.63267,2.53821 c 0.09702,0.14702 0.18295,0.27185 0.26333,0.37726 0.08038,0.10541 0.16077,0.19141 0.24947,0.25798 0.08316,0.0666 0.18572,0.11096 0.30491,0.13593 0.12197,0.0277 0.26611,0.0333 0.43797,0.0194 l 12.57626,-0.69627 c 0.36035,-0.025 0.7207,-0.0694 1.08383,-0.13593 0.36312,-0.0638 0.73179,-0.13593 1.10877,-0.20528 -0.44351,0.58531 -0.8399,1.19837 -1.18916,1.83916 l -5.81829,11.23746 c -0.08593,0.1498 -0.1386,0.28295 -0.16077,0.39946 -0.02217,0.11651 -0.0194,0.23302 0.0055,0.34398 0.02218,0.11096 0.06375,0.22192 0.12474,0.33565 0.05821,0.11373 0.13582,0.24134 0.23007,0.38559 l 1.64376,2.55208 17.01413,-10.98226 -1.91541,-2.97373 z"
       id="path18-0" />
    <path
       d="M 24.89668,209.13709 10.95663,207.2369 10.35789,207.162 c -0.22175,-0.0277 -0.44905,-0.0472 -0.68744,-0.061 0.22175,-0.086 0.43242,-0.17199 0.63477,-0.26353 0.20235,-0.0888 0.38253,-0.17754 0.54607,-0.2663 l 12.65665,-6.09447 -0.57656,-3.58678 -20.94195,-2.72407 0.49618,3.1041 c 0.05544,0.32178 0.18572,0.58531 0.39916,0.79336 0.21344,0.21082 0.44351,0.33011 0.6819,0.36339 l 12.03573,1.09295 c 0.30491,0.0361 0.63477,0.061 0.98404,0.0804 0.35481,0.0222 0.72625,0.0361 1.12263,0.0472 -0.37144,0.14147 -0.7207,0.28295 -1.05333,0.42165 -0.33263,0.14147 -0.63754,0.2885 -0.90919,0.43274 l -10.98794,5.35104 c -0.25502,0.13315 -0.44351,0.32178 -0.56547,0.56035 -0.12197,0.24134 -0.15523,0.53816 -0.09979,0.89045 l 0.18849,1.15953 c 0.05267,0.32178 0.18295,0.58254 0.39639,0.78504 0.21344,0.2025 0.44074,0.32733 0.68467,0.37172 l 12.09117,1.64221 c 0.31877,0.061 0.66249,0.10541 1.03116,0.1276 0.36867,0.0222 0.75951,0.0416 1.15867,0.061 -0.76783,0.2774 -1.44141,0.55203 -2.01242,0.81833 l -11.07387,4.80734 c -0.2467,0.12206 -0.43242,0.30791 -0.55716,0.55757 -0.12474,0.25243 -0.158,0.5548 -0.10256,0.90432 l 0.53221,3.31493 19.04041,-9.14587 -0.57379,-3.57013 z"
       id="path19" />
    <path
       d="m 4.68097,186.83415 c 0.91751,0.86549 2.00965,1.53402 3.27642,2.00837 1.264,0.47713 2.63334,0.71292 4.10523,0.71292 1.48576,0.003 2.85786,-0.23302 4.12741,-0.70182 1.264,-0.47435 2.35892,-1.14011 3.28751,-2.0056 0.92305,-0.86271 1.64653,-1.89741 2.16765,-3.10965 0.51835,-1.20946 0.77891,-2.55208 0.78169,-4.02784 0,-1.47577 -0.25779,-2.81561 -0.77614,-4.02784 -0.51558,-1.20946 -1.23628,-2.24694 -2.15934,-3.10688 -0.92583,-0.85994 -2.01797,-1.52292 -3.28474,-1.9945 -1.264,-0.46881 -2.63611,-0.7046 -4.12186,-0.7046 -1.47467,-0.003 -2.84123,0.23024 -4.10523,0.69627 -1.25846,0.46603 -2.3506,1.12902 -3.27642,1.98618 -0.92583,0.85994 -1.65207,1.89464 -2.17874,3.10688 -0.52112,1.20669 -0.78446,2.5493 -0.78723,4.02507 0,1.47577 0.25779,2.81561 0.78169,4.02784 0.52112,1.20946 1.24183,2.24971 2.16211,3.1152 z m 0.93969,-9.54255 c 0.31877,-0.70737 0.77891,-1.30655 1.38319,-1.80032 0.59874,-0.491 1.32498,-0.87104 2.18151,-1.13456 0.85098,-0.26353 1.81562,-0.39391 2.8939,-0.39113 1.0866,0 2.05955,0.13315 2.92162,0.39946 0.85653,0.26353 1.58277,0.64634 2.17597,1.13734 0.59319,0.49377 1.05056,1.09573 1.36379,1.8031 0.316,0.70737 0.47123,1.50628 0.47123,2.40228 0,0.896 -0.158,1.70046 -0.47677,2.4106 -0.316,0.71292 -0.7706,1.3121 -1.36656,1.80865 -0.59319,0.491 -1.32221,0.86826 -2.18151,1.13179 -0.8593,0.26353 -1.83502,0.39668 -2.91885,0.39391 -1.07551,0 -2.04291,-0.13315 -2.89667,-0.39946 -0.85376,-0.2663 -1.58,-0.64357 -2.17874,-1.14011 -0.59874,-0.49377 -1.05888,-1.0985 -1.38042,-1.80865 -0.31877,-0.71014 -0.47677,-1.51738 -0.474,-2.4106 0,-0.896 0.16354,-1.69491 0.48232,-2.40228 z"
       id="path20" />
    <path
       d="m 23.16699,162.37027 -7.72261,-1.02083 0.1774,-1.34539 c 0.04435,-0.3412 0.13028,-0.60196 0.25502,-0.77395 0.12474,-0.17199 0.31877,-0.31901 0.57933,-0.43829 l 6.74134,-2.83503 c 0.57656,-0.27463 0.90919,-0.72679 0.99235,-1.36203 l 0.47123,-3.584 -7.90555,3.52575 c -0.30768,0.15534 -0.57379,0.33011 -0.79832,0.52706 -0.2273,0.19418 -0.42688,0.41055 -0.59874,0.64357 -0.14968,-0.68795 -0.37421,-1.30378 -0.68744,-1.86135 -0.31046,-0.55203 -0.68744,-1.0347 -1.13095,-1.44803 -0.44351,-0.41055 -0.948,-0.74898 -1.51348,-1.00973 -0.56547,-0.25798 -1.1753,-0.42997 -1.82948,-0.51596 -0.8593,-0.11096 -1.66316,-0.0749 -2.41713,0.11096 -0.74842,0.19141 -1.42477,0.5548 -2.01797,1.09573 -0.59319,0.5437 -1.09769,1.27604 -1.5107,2.19423 -0.41302,0.92097 -0.70961,2.04998 -0.88425,3.38982 l -0.79832,6.05286 20.07157,2.64639 0.52667,-3.99178 z m -10.54998,-1.39254 -6.46969,-0.85162 0.27165,-2.05831 c 0.16354,-1.25107 0.55161,-2.14153 1.16144,-2.67968 0.60705,-0.53538 1.39983,-0.73788 2.37832,-0.60751 0.4934,0.0638 0.93969,0.19695 1.33884,0.39946 0.39639,0.19973 0.72902,0.47435 0.99235,0.81556 0.26056,0.3412 0.44905,0.76008 0.55716,1.25107 0.11088,0.491 0.12197,1.05967 0.03881,1.70323 l -0.26888,2.02779 z"
       id="path21" />
    <polygon
       points="23.16976,143.23524 6.68785,139.25733 5.74816,143.15757 25.42889,147.9122 28.02065,137.17128 24.81629,136.40011 "
       id="polygon21" />
    <path
       d="m 31.40241,126.9602 c 0.50172,-1.38977 0.72347,-2.73516 0.67081,-4.04171 -0.05544,-1.30933 -0.36035,-2.51879 -0.90919,-3.63394 -0.54607,-1.11237 -1.32776,-2.10269 -2.33674,-2.9654 -1.00898,-0.86271 -2.21477,-1.55066 -3.60906,-2.05831 -1.38597,-0.50209 -2.74144,-0.74343 -4.06643,-0.72679 -1.32498,0.0194 -2.55572,0.27463 -3.68667,0.77949 -1.13649,0.50209 -2.1427,1.2372 -3.02418,2.20533 -0.8787,0.96813 -1.56891,2.14707 -2.07341,3.5313 l -2.51414,6.94332 19.03209,6.90725 z m -2.99646,-1.09018 -1.14481,3.15403 -13.0558,-4.73521 1.14481,-3.15403 c 0.30491,-0.8433 0.72902,-1.54512 1.26955,-2.10546 0.5433,-0.55757 1.18362,-0.96813 1.91541,-1.22611 0.73179,-0.26076 1.54397,-0.36617 2.43376,-0.32733 0.89533,0.0444 1.84611,0.24966 2.86063,0.61583 1.02284,0.37172 1.89323,0.82665 2.61116,1.37035 0.71516,0.53816 1.27232,1.14566 1.6687,1.81419 0.39361,0.66853 0.62091,1.38977 0.67081,2.16649 0.05544,0.77672 -0.0693,1.5895 -0.37421,2.42725 z"
       id="path22" />
    <path
       d="M 43.86779,100.11345 34.60953,89.51123 c -0.12197,-0.13315 -0.25502,-0.28295 -0.4047,-0.44939 -0.14691,-0.16644 -0.30768,-0.33011 -0.47954,-0.49655 0.2273,0.08045 0.44351,0.15257 0.65418,0.21637 0.21344,0.06935 0.4047,0.12206 0.58211,0.16089 l 13.54644,3.72825 1.92095,-3.07914 -13.99826,-15.82565 -1.66039,2.66581 c -0.17463,0.27463 -0.2467,0.56035 -0.22175,0.85717 0.02495,0.29682 0.11919,0.54093 0.27997,0.72124 l 8.34629,8.74087 c 0.20789,0.22747 0.43797,0.46326 0.69021,0.71014 0.25502,0.24689 0.52667,0.50487 0.81495,0.7684 C 44.31132,88.09371 43.95374,87.96888 43.61002,87.8607 43.2663,87.74419 42.94198,87.65542 42.63984,87.5833 L 30.84526,84.3932 c -0.27997,-0.06935 -0.54607,-0.04993 -0.79277,0.04993 -0.25225,0.10264 -0.47123,0.30791 -0.65695,0.60473 l -0.62091,0.99864 c -0.17463,0.2774 -0.2467,0.56035 -0.22175,0.85439 0.02772,0.29127 0.11919,0.53538 0.27719,0.72679 l 8.03306,9.19025 c 0.19958,0.25521 0.42965,0.51874 0.69576,0.77672 0.26333,0.25798 0.53776,0.52706 0.83435,0.80723 -0.76505,-0.29404 -1.44695,-0.53261 -2.05677,-0.70737 l -11.50352,-3.6589 c -0.26611,-0.07212 -0.52944,-0.05271 -0.79,0.05271 -0.25779,0.11096 -0.48232,0.31624 -0.67081,0.6186 l -1.77404,2.8489 20.35708,5.62567 1.91263,-3.06804 z"
       id="path23" />
    <polygon
       points="40.44722,69.39143 56.18349,82.13795 58.71426,79.00333 42.978,66.25959 "
       id="polygon23" />
    <path
       d="m 67.0855,69.72154 c 1.03116,-1.05412 1.79621,-2.18314 2.28684,-3.39815 0.4934,-1.21224 0.72347,-2.43834 0.68744,-3.67832 -0.03604,-1.23998 -0.3354,-2.46331 -0.89533,-3.67277 -0.55993,-1.20391 -1.37211,-2.32738 -2.42821,-3.37041 -1.05056,-1.03193 -2.18428,-1.81697 -3.39562,-2.35512 -1.21133,-0.53538 -2.4393,-0.81001 -3.67558,-0.82388 -1.23905,-0.01664 -2.46148,0.23302 -3.6645,0.74621 -1.20579,0.51596 -2.32288,1.29823 -3.35404,2.35235 L 47.47407,60.7865 61.9103,74.98659 Z M 54.9084,57.74342 c 0.62646,-0.63802 1.30281,-1.0985 2.02906,-1.38422 0.72625,-0.28017 1.47744,-0.38559 2.25081,-0.31901 0.77337,0.06935 1.55505,0.30791 2.3506,0.71847 0.79555,0.41056 1.57723,0.99309 2.34228,1.75039 0.77891,0.76008 1.37765,1.53679 1.8073,2.32738 0.42411,0.79336 0.6819,1.57563 0.76228,2.3468 0.08316,0.77117 -0.01386,1.52292 -0.28828,2.25526 -0.27442,0.72679 -0.72625,1.40919 -1.34993,2.04721 l -2.3506,2.39673 -9.90689,-9.74505 z"
       id="path24" />
    <polygon
       points="77.90713,55.43545 74.49488,51.17459 79.54534,47.11624 77.62993,44.72505 72.5767,48.78063 69.2282,44.60577 75.72007,39.39065 73.72705,36.90515 64.09458,44.63906 76.76232,60.44252 86.39756,52.70861 84.41563,50.21202 "
       id="polygon24-3" />
    <path
       d="m 103.47821,41.84009 -2.55295,-13.84225 c -0.0305,-0.17754 -0.0721,-0.37172 -0.11642,-0.59086 -0.0444,-0.21914 -0.097,-0.44384 -0.158,-0.67686 0.14968,0.18586 0.29937,0.36062 0.44905,0.52429 0.14968,0.16367 0.28828,0.30791 0.42133,0.43274 l 9.74612,10.12786 3.22099,-1.66995 -3.96109,-20.7606 -2.78856,1.44248 c -0.28828,0.15257 -0.50172,0.36062 -0.632,0.62692 -0.13028,0.27185 -0.17186,0.52429 -0.12751,0.76562 l 2.72204,11.78117 c 0.0637,0.30237 0.14137,0.6186 0.23284,0.96258 0.0887,0.34398 0.19126,0.69905 0.30768,1.07908 -0.24947,-0.30791 -0.4934,-0.59918 -0.73179,-0.86826 -0.23839,-0.27185 -0.47123,-0.51596 -0.69298,-0.72956 l -8.51261,-8.77138 c -0.20789,-0.2025 -0.44628,-0.32456 -0.71239,-0.36062 -0.26888,-0.04161 -0.55993,0.01942 -0.87316,0.18308 l -1.04502,0.54093 c -0.28828,0.1498 -0.4934,0.35785 -0.62091,0.62415 -0.12474,0.26353 -0.17186,0.51874 -0.13582,0.76285 l 2.22032,12.00863 c 0.04158,0.32456 0.10811,0.66021 0.20235,1.0236 0.09425,0.35507 0.19681,0.72956 0.30491,1.12069 -0.50449,-0.64634 -0.97295,-1.19837 -1.40537,-1.66162 L 90.21451,26.89376 C 90.0177,26.69403 89.78209,26.57752 89.5049,26.53591 89.22771,26.49985 88.93111,26.5581 88.61511,26.72177 l -2.97983,1.54512 14.63303,15.23479 3.2099,-1.66162 z"
       id="path25" />
    <polygon
       points="125.52339,28.44446 123.74104,23.28483 129.86424,21.16272 128.8608,18.26389 122.7376,20.386 120.98851,15.32345 128.85526,12.60216 127.81301,9.58683 116.14317,13.62854 122.76255,32.77467 134.43516,28.73296 133.404,25.71485 "
       id="polygon25" />
    <path
       d="m 145.64208,25.92845 c 1.12263,-0.25243 2.08172,-0.62692 2.88004,-1.11792 0.80109,-0.48822 1.43863,-1.06244 1.90986,-1.71433 0.46846,-0.65744 0.77891,-1.3759 0.92305,-2.16094 0.14414,-0.78504 0.12197,-1.59782 -0.0721,-2.44112 -0.52112,-2.29132 -2.1233,-3.45363 -4.8093,-3.48969 0.53776,-0.33843 0.98126,-0.70737 1.3333,-1.10682 0.35204,-0.39668 0.62091,-0.81278 0.80386,-1.23998 0.18572,-0.4272 0.29382,-0.87104 0.32709,-1.32597 0.0305,-0.45494 -0.006,-0.91265 -0.11088,-1.37035 -0.18018,-0.80169 -0.47954,-1.49796 -0.88702,-2.08605 -0.41025,-0.59086 -0.95354,-1.04857 -1.62712,-1.3759 -0.67358,-0.32456 -1.48853,-0.51042 -2.44762,-0.5548 -0.95909,-0.04161 -2.07063,0.08322 -3.33741,0.37172 l -6.70808,1.52847 4.49608,19.75363 z m 0.62369,-8.41909 c 0.30768,0.17199 0.55161,0.40778 0.74288,0.70737 0.18849,0.30237 0.32709,0.65466 0.42133,1.06244 0.0859,0.37726 0.11919,0.75175 0.0998,1.12624 -0.0194,0.37726 -0.12197,0.72401 -0.29937,1.0458 -0.18295,0.32456 -0.46568,0.61583 -0.84267,0.86826 -0.38253,0.25243 -0.88702,0.45216 -1.50793,0.59086 l -3.34572,0.76285 -1.264,-5.55077 3.33186,-0.7573 c 0.59597,-0.13315 1.11155,-0.18586 1.54951,-0.15812 0.44074,0.03051 0.81218,0.13038 1.11432,0.30237 z m -5.05878,-8.18884 c 1.11155,-0.24966 1.97084,-0.23302 2.58067,0.0638 0.60705,0.29127 1.02562,0.94593 1.25846,1.95844 0.22175,0.9709 0.0832,1.73652 -0.41579,2.2941 -0.50172,0.55203 -1.30004,0.9598 -2.40049,1.20946 l -2.57235,0.58531 -1.24183,-5.4731 2.79134,-0.63802 z"
       id="path26-9" />
    <path
       d="m 165.99639,19.94216 c 0.81495,0.87658 1.7879,1.54234 2.9133,1.99173 1.1254,0.45494 2.37,0.64079 3.74211,0.5659 1.5107,-0.08322 2.80242,-0.42442 3.87516,-1.02638 1.06997,-0.59641 1.94313,-1.42861 2.6167,-2.49937 l -1.69365,-1.63111 c -0.16077,-0.15257 -0.34926,-0.22192 -0.55993,-0.2136 -0.11642,0.0083 -0.22175,0.04161 -0.32432,0.10264 -0.10256,0.0638 -0.20235,0.1387 -0.30214,0.22192 -0.23561,0.2885 -0.47954,0.53261 -0.7207,0.72956 -0.24393,0.19418 -0.51004,0.36339 -0.79277,0.49377 -0.28274,0.13315 -0.58765,0.23024 -0.92028,0.29682 -0.33263,0.06103 -0.70684,0.10819 -1.12263,0.13038 -0.7013,0.03884 -1.36656,-0.07767 -1.99025,-0.35507 -0.62369,-0.2774 -1.18084,-0.69905 -1.66593,-1.26772 -0.48232,-0.57144 -0.88147,-1.27881 -1.19193,-2.12766 -0.31323,-0.84607 -0.50172,-1.82529 -0.55993,-2.93212 -0.061,-1.09573 0.003,-2.0805 0.19404,-2.95153 0.18849,-0.87381 0.48786,-1.62001 0.89256,-2.23584 0.40193,-0.6186 0.90088,-1.0985 1.4913,-1.44248 0.59319,-0.34675 1.25846,-0.53538 1.99579,-0.57699 0.6819,-0.03884 1.2446,0.0111 1.69088,0.1498 0.44351,0.1387 0.81495,0.29682 1.11986,0.47435 0.29937,0.17476 0.55439,0.3412 0.75951,0.491 0.20512,0.1498 0.41579,0.22192 0.62646,0.20805 0.21344,-0.00832 0.37698,-0.0638 0.48786,-0.16089 0.11642,-0.09986 0.21067,-0.20528 0.2966,-0.32178 l 1.23628,-1.94735 c -0.74288,-0.75453 -1.65484,-1.34539 -2.72481,-1.76981 -1.07274,-0.42165 -2.28962,-0.59641 -3.64786,-0.52151 -1.33884,0.0749 -2.55572,0.39391 -3.64232,0.96535 -1.0866,0.56867 -2.00688,1.33429 -2.7553,2.29132 -0.75119,0.9598 -1.3139,2.08327 -1.68534,3.37318 -0.37144,1.28991 -0.51558,2.688 -0.43242,4.20261 0.0832,1.50073 0.3659,2.87386 0.84821,4.11661 0.47954,1.24275 1.12818,2.29964 1.9459,3.17623 z"
       id="path27" />
    <path
       d="m 199.34829,5.51183 c -0.79277,-0.982 -1.77404,-1.77536 -2.94379,-2.38564 -1.16976,-0.60751 -2.4892,-0.9598 -3.96109,-1.06521 -1.46635,-0.10264 -2.8246,0.0638 -4.06643,0.50487 -1.24737,0.43829 -2.3312,1.08463 -3.25702,1.9418 -0.92583,0.85994 -1.66593,1.90296 -2.22863,3.13184 -0.55716,1.23165 -0.88979,2.58259 -0.99512,4.05281 -0.10533,1.47854 0.036,2.87109 0.41856,4.16654 0.3853,1.29546 0.97295,2.43834 1.77127,3.42034 0.79832,0.98477 1.78235,1.77536 2.95211,2.37732 1.16976,0.60196 2.4892,0.95426 3.96109,1.05967 1.46912,0.10264 2.8246,-0.0638 4.0692,-0.49655 1.24183,-0.42997 2.32288,-1.07908 3.24316,-1.9418 0.92305,-0.86271 1.66039,-1.91128 2.21755,-3.14016 0.55439,-1.23165 0.88147,-2.58814 0.98681,-4.06945 0.10256,-1.47299 -0.036,-2.85167 -0.41302,-4.14435 -0.37698,-1.28991 -0.96186,-2.42725 -1.75463,-3.41202 z m -1.90986,7.27064 c -0.0748,1.08463 -0.27442,2.04721 -0.59874,2.88773 -0.32432,0.83775 -0.75119,1.53679 -1.28341,2.09437 -0.53776,0.56035 -1.16698,0.97367 -1.89323,1.2372 -0.72347,0.2663 -1.53288,0.36617 -2.42544,0.30514 -0.89256,-0.0638 -1.68534,-0.2774 -2.37,-0.64079 -0.69021,-0.36339 -1.25846,-0.86271 -1.70751,-1.48964 -0.45183,-0.6297 -0.77614,-1.37868 -0.98126,-2.25526 -0.20235,-0.87658 -0.26611,-1.85858 -0.19126,-2.94044 0.0748,-1.07631 0.27442,-2.03057 0.59874,-2.86554 0.32432,-0.8322 0.75397,-1.53125 1.28618,-2.09714 0.53221,-0.56312 1.16698,-0.982 1.896,-1.25107 0.73456,-0.26908 1.54674,-0.37172 2.4393,-0.31069 0.89256,0.0638 1.67702,0.2774 2.36169,0.64912 0.6819,0.36894 1.24737,0.86826 1.69642,1.50351 0.44905,0.63247 0.77891,1.38422 0.98126,2.25249 0.20512,0.87104 0.26888,1.84471 0.19126,2.92102 z"
       id="path28-8" />
    <path
       d="m 218.02003,26.52485 c 0.18018,0.14702 0.42688,0.25521 0.73179,0.32178 l 2.0152,0.42442 4.19948,-19.82021 -3.44551,-0.73234 -2.46148,11.61195 c -0.12474,0.58809 -0.22453,1.21778 -0.30491,1.88632 L 211.72775,5.28434 c -0.0832,-0.15534 -0.16077,-0.28017 -0.2273,-0.37726 -0.0665,-0.09709 -0.14414,-0.17754 -0.23007,-0.24411 -0.0832,-0.0638 -0.18572,-0.11651 -0.29937,-0.15812 -0.11919,-0.03884 -0.25779,-0.0749 -0.42965,-0.11096 l -2.05677,-0.43829 -4.19671,19.82021 3.45937,0.73511 2.4892,-11.74788 c 0.11088,-0.52706 0.20235,-1.10405 0.27165,-1.73375 l 7.01853,14.85198 c 0.14691,0.28295 0.31046,0.49377 0.4934,0.64357 z"
       id="path29" />
    <path
       d="m 227.1092,28.75792 c 0.4546,0.40223 0.94523,0.76285 1.47744,1.07631 0.53221,0.31624 1.0866,0.57144 1.66316,0.7684 1.02284,0.34675 1.9847,0.49377 2.88835,0.43552 0.90642,-0.05825 1.72969,-0.27463 2.46702,-0.65189 0.74288,-0.37449 1.38319,-0.896 1.92649,-1.55899 0.5433,-0.66299 0.95909,-1.42861 1.25569,-2.2941 0.27165,-0.80169 0.38253,-1.52015 0.3354,-2.15817 -0.0444,-0.63802 -0.19681,-1.22056 -0.4546,-1.73652 -0.25779,-0.51874 -0.59319,-0.99032 -1.00067,-1.41474 -0.40747,-0.41887 -0.84267,-0.81556 -1.29726,-1.17895 -0.45737,-0.36617 -0.90365,-0.71569 -1.34439,-1.04857 -0.44074,-0.33011 -0.82049,-0.66853 -1.13926,-1.00696 -0.316,-0.3412 -0.54884,-0.69073 -0.68744,-1.05412 -0.1386,-0.36617 -0.13582,-0.76285 0.0139,-1.19837 0.23284,-0.6824 0.64032,-1.16508 1.22242,-1.4397 0.58211,-0.27185 1.30281,-0.26076 2.17042,0.03329 0.4934,0.16644 0.90088,0.38004 1.23074,0.64357 0.32986,0.26353 0.60983,0.52151 0.8399,0.77672 0.2273,0.25521 0.42688,0.48822 0.59319,0.6935 0.16354,0.20805 0.33818,0.3412 0.52112,0.40223 0.19404,0.06658 0.36867,0.08322 0.52667,0.04438 0.158,-0.03884 0.316,-0.13593 0.47954,-0.29404 l 1.57446,-1.4619 c -0.44074,-0.87381 -1.07274,-1.64775 -1.89323,-2.32184 -0.81495,-0.67686 -1.77404,-1.20114 -2.86895,-1.57286 -0.97018,-0.33288 -1.89046,-0.46881 -2.74976,-0.41333 -0.86207,0.05271 -1.64098,0.25521 -2.33674,0.59641 -0.69853,0.34398 -1.29726,0.80446 -1.79067,1.37868 -0.49618,0.57977 -0.86484,1.22056 -1.106,1.92515 -0.29937,0.88213 -0.43519,1.6644 -0.39916,2.34403 0.0305,0.67686 0.16909,1.28159 0.41856,1.81697 0.2467,0.53538 0.57656,1.01251 0.98958,1.42583 0.41302,0.41333 0.84544,0.79614 1.30004,1.14566 0.4546,0.34675 0.90365,0.67963 1.34993,0.99864 0.44628,0.31901 0.82604,0.64634 1.13926,0.982 0.316,0.33843 0.53776,0.7046 0.66804,1.09295 0.13028,0.38835 0.11365,0.82665 -0.0554,1.31765 -0.29105,0.86826 -0.75674,1.4397 -1.38597,1.71988 -0.632,0.2774 -1.38042,0.27185 -2.24804,-0.02497 -0.59597,-0.2025 -1.08105,-0.46603 -1.45249,-0.79059 -0.37144,-0.32733 -0.68744,-0.65744 -0.93691,-0.982 -0.25502,-0.33011 -0.47677,-0.62138 -0.65972,-0.88491 -0.18295,-0.26353 -0.39361,-0.43274 -0.62368,-0.51042 -0.17186,-0.05825 -0.34926,-0.06935 -0.52944,-0.03329 -0.1774,0.03606 -0.33263,0.11096 -0.46846,0.22469 l -1.74077,1.42306 c 0.22453,0.50209 0.51835,0.99587 0.88702,1.4619 0.3659,0.46603 0.77614,0.90432 1.23074,1.30378 z"
       id="path30-6" />
    <path
       d="m 244.80799,35.43216 c 0.86762,0.99309 1.96253,1.80865 3.29306,2.44389 1.32776,0.63802 2.64997,0.98754 3.96386,1.0458 1.31667,0.05271 2.56127,-0.14702 3.73379,-0.61305 1.1753,-0.46048 2.24804,-1.1623 3.21544,-2.10269 0.9674,-0.93761 1.77681,-2.07495 2.41713,-3.41479 0.64032,-1.32874 1.02007,-2.66304 1.14481,-4.00288 0.12197,-1.33984 0,-2.61311 -0.37698,-3.81702 -0.37421,-1.20946 -0.99235,-2.30797 -1.8572,-3.3066 -0.86207,-0.99587 -1.95698,-1.81142 -3.28751,-2.45221 -1.32776,-0.63802 -2.65274,-0.982 -3.96664,-1.0347 -1.31667,-0.05271 -2.56404,0.15257 -3.73934,0.60751 -1.18084,0.45494 -2.25358,1.14843 -3.22653,2.08882 -0.97572,0.93484 -1.78235,2.0694 -2.41713,3.39815 -0.64586,1.33984 -1.02562,2.68246 -1.14758,4.02784 -0.12197,1.34539 0.008,2.6242 0.3853,3.83089 0.37975,1.20946 1.00067,2.30797 1.86551,3.30106 z m 1.68534,-6.57715 c 0.13305,-0.89045 0.43797,-1.82529 0.90642,-2.80729 0.46846,-0.9709 1.00344,-1.78368 1.61049,-2.44112 0.60705,-0.65466 1.264,-1.14566 1.96807,-1.47299 0.70407,-0.33011 1.44695,-0.48268 2.22586,-0.46048 0.77891,0.01664 1.57169,0.22192 2.38109,0.60751 0.80386,0.38836 1.45804,0.87936 1.95421,1.47577 0.50172,0.59364 0.84267,1.26772 1.02839,2.02224 0.18018,0.75453 0.20789,1.57563 0.0748,2.45776 -0.12751,0.88768 -0.42688,1.81419 -0.89533,2.78787 -0.47123,0.97922 -1.00898,1.80032 -1.61881,2.46054 -0.60983,0.66022 -1.26677,1.15398 -1.96807,1.47577 -0.70407,0.31901 -1.44141,0.47158 -2.212,0.44939 -0.77337,-0.02219 -1.56337,-0.22469 -2.37,-0.61305 -0.80386,-0.38836 -1.46081,-0.87658 -1.9653,-1.47022 -0.50726,-0.59364 -0.85376,-1.26217 -1.03947,-2.01392 -0.18572,-0.74898 -0.21344,-1.56731 -0.0804,-2.45776 z"
       id="path31" />
    <path
       d="m 263.50745,46.08431 4.2466,-6.53554 1.13649,0.73788 c 0.28828,0.19141 0.48786,0.37726 0.59042,0.56867 0.10256,0.18586 0.14968,0.42442 0.14691,0.71014 l -0.34926,7.30948 c -0.006,0.63802 0.26333,1.13456 0.79832,1.48686 l 3.02972,1.96954 0.22453,-8.66319 c -0.006,-0.3412 -0.0499,-0.65744 -0.12751,-0.94593 -0.0804,-0.2885 -0.18849,-0.56035 -0.32432,-0.8211 0.68467,0.16644 1.33884,0.22747 1.97639,0.18308 0.632,-0.04161 1.23074,-0.17476 1.79344,-0.39668 0.5627,-0.22192 1.08383,-0.53261 1.5606,-0.93484 0.47677,-0.39668 0.89533,-0.87104 1.25569,-1.42861 0.47123,-0.72401 0.78446,-1.46744 0.93969,-2.22752 0.15246,-0.76008 0.11365,-1.5257 -0.11919,-2.29687 -0.23284,-0.7684 -0.67358,-1.53957 -1.32498,-2.31074 -0.6514,-0.7684 -1.54674,-1.52292 -2.67769,-2.25803 l -5.11422,-3.3288 -11.03507,16.98519 z m 9.35805,-14.40259 1.74077,1.13179 c 1.05333,0.68795 1.69365,1.42029 1.91263,2.19978 0.22175,0.78227 0.061,1.58395 -0.474,2.4106 -0.27165,0.42165 -0.58488,0.7684 -0.93969,1.04025 -0.35204,0.27463 -0.73733,0.45494 -1.16144,0.5437 -0.42411,0.09154 -0.8787,0.07767 -1.36656,-0.03329 -0.4934,-0.11373 -1.00898,-0.34952 -1.55505,-0.7046 l -1.71305,-1.11237 3.55639,-5.47587 z"
       id="path32" />
    <polygon
       points="284.92895,40.0259 289.15338,43.4823 278.39828,56.63659 281.48898,59.16925 292.24685,46.01496 296.46851,49.47136 298.53637,46.94425 286.99681,37.49879 "
       id="polygon32-5" />
    <rect
       x="286.70193"
       y="57.385132"
       width="20.25382"
       height="4.02596"
       transform="rotate(-45.94214,296.82885,59.398111)"
       id="rect32" />
    <path
       d="m 298.94662,68.8727 c -0.52944,0.96258 -0.84267,1.96399 -0.93969,3.00979 -0.097,1.04025 0.0333,2.09714 0.39916,3.17068 0.36035,1.07076 0.9674,2.10824 1.81284,3.10965 0.84821,1.00419 1.76849,1.76704 2.76639,2.29687 0.99235,0.52983 2.00965,0.83497 3.0519,0.9071 1.04502,0.07767 2.08172,-0.06658 3.1212,-0.43274 1.03393,-0.36339 2.01797,-0.94316 2.94934,-1.73375 l 9.21391,-7.8088 -2.58344,-3.0514 -9.21391,7.81435 c -0.57379,0.48545 -1.15867,0.84884 -1.75463,1.08741 -0.59874,0.23856 -1.18084,0.34952 -1.75186,0.33565 -0.57379,-0.01664 -1.1254,-0.15812 -1.66593,-0.42997 -0.53498,-0.27185 -1.03116,-0.67963 -1.4913,-1.22056 -0.46014,-0.54648 -0.78169,-1.10405 -0.96186,-1.67827 -0.18018,-0.57144 -0.2273,-1.14289 -0.14968,-1.71156 0.0776,-0.56867 0.28551,-1.12624 0.61814,-1.67549 0.3354,-0.54925 0.79,-1.06799 1.36102,-1.55344 l 9.21391,-7.81158 -2.58899,-3.06249 -9.21391,7.81158 c -0.93137,0.79059 -1.66039,1.6644 -2.1926,2.62698 z"
       id="path33" />
    <path
       d="m 310.68021,91.23111 10.83549,-6.5716 c 0.24393,-0.14702 0.49895,-0.31346 0.7706,-0.50487 0.27165,-0.18863 0.54607,-0.38836 0.82049,-0.60473 l -6.37545,11.43442 c -0.34095,0.57699 -0.34926,1.12902 -0.0277,1.65885 l 0.29382,0.48268 c 0.316,0.52151 0.80663,0.76562 1.4719,0.72679 l 12.98928,-0.39946 c -0.30491,0.14425 -0.59874,0.29682 -0.88147,0.44939 -0.27997,0.15534 -0.53776,0.30237 -0.77337,0.44661 l -10.83271,6.5716 1.8267,3.01256 17.31072,-10.50235 -1.5606,-2.58537 c -0.0915,-0.14702 -0.1774,-0.2774 -0.25502,-0.38281 -0.0748,-0.10819 -0.15523,-0.19695 -0.23839,-0.2663 -0.0832,-0.06658 -0.18295,-0.11373 -0.30214,-0.14425 -0.11919,-0.03052 -0.26611,-0.03884 -0.43519,-0.03051 l -12.59566,0.34398 c -0.36035,0.01387 -0.7207,0.04993 -1.08383,0.10541 -0.3659,0.05271 -0.73733,0.11373 -1.11432,0.17754 0.45737,-0.57699 0.87316,-1.17895 1.23905,-1.80865 l 6.13152,-11.06825 c 0.0887,-0.14702 0.14414,-0.28017 0.16909,-0.39946 0.0249,-0.11651 0.0277,-0.22747 0.008,-0.3412 -0.0222,-0.11096 -0.061,-0.22469 -0.11919,-0.33843 -0.0582,-0.11651 -0.12751,-0.24689 -0.21898,-0.39391 l -1.57169,-2.59646 -17.31627,10.50235 z"
       id="path34-7" />
    <path
       d="m 26.7336,240.804 c 0,-2.47441 -2.08034,-4.52439 -4.55151,-4.52439 -2.44207,0 -4.49192,2.04998 -4.49192,4.52439 0,2.44389 2.04984,4.52716 4.49192,4.52716 2.47118,0 4.55151,-2.08327 4.55151,-4.52716 z"
       id="path35" />
    <path
       d="m 333.19575,120.82394 c 0,2.44389 2.04984,4.52716 4.49192,4.52716 2.47118,0 4.55151,-2.08327 4.55151,-4.52716 0,-2.47441 -2.08034,-4.52439 -4.55151,-4.52439 -2.44207,0 -4.49192,2.04998 -4.49192,4.52439 z"
       id="path36-6" />
  </g>
</svg>
