<?xml version="1.0" encoding="UTF-8" standalone="no"?>
<!-- Created with Inkscape (http://www.inkscape.org/) -->

<svg
   width="315"
   height="48"
   viewBox="0 0 83.343748 12.7"
   version="1.1"
   id="svg1"
   xml:space="preserve"
   sodipodi:docname="w3c-full-315x48.svg"
   inkscape:version="1.3.2 (091e20ef0f, 2023-11-25)"
   xmlns:inkscape="http://www.inkscape.org/namespaces/inkscape"
   xmlns:sodipodi="http://sodipodi.sourceforge.net/DTD/sodipodi-0.dtd"
   xmlns="http://www.w3.org/2000/svg"
   xmlns:svg="http://www.w3.org/2000/svg"><sodipodi:namedview
     id="namedview1"
     pagecolor="#ffffff"
     bordercolor="#000000"
     borderopacity="0.25"
     inkscape:showpageshadow="2"
     inkscape:pageopacity="0.0"
     inkscape:pagecheckerboard="true"
     inkscape:deskcolor="#d1d1d1"
     inkscape:zoom="1.7862444"
     inkscape:cx="155.35388"
     inkscape:cy="23.513019"
     inkscape:window-width="1383"
     inkscape:window-height="853"
     inkscape:window-x="0"
     inkscape:window-y="1"
     inkscape:window-maximized="1"
     inkscape:current-layer="svg1" /><defs
     id="defs1" /><path
     id="rect1"
     style="fill:#ffffff;stroke-width:1.02503;stroke-linecap:round"
     d="M 0,0 H 83.343754 V 12.699999 H 0 Z" /><path
     style="fill:none;fill-rule:evenodd;stroke:#002a56;stroke-width:0.264583px"
     d="M 23.984033,0 V 12.699999"
     id="path1011" /><g
     id="text1"
     style="font-size:7.02893px;line-height:1;font-family:Carlito;-inkscape-font-specification:Carlito;letter-spacing:0.183934px;fill:#002a56;stroke-width:2.48281"
     aria-label="WORLD WIDE WEB&#10;CONSORTIUM"><path
       style="stroke-width:2.48282"
       d="m 26.635868,0.58064813 h 0.52511 q 0.07894,0 0.133852,0.0411851 0.05835,0.037753 0.07551,0.10296284 L 28.24552,3.8377061 q 0.04805,0.1647406 0.08924,0.3843946 0.02059,-0.1063949 0.04462,-0.2024936 0.02402,-0.099531 0.05148,-0.1853331 l 1.005604,-3.10604579 q 0.01716,-0.0583456 0.07551,-0.10296285 0.05835,-0.0446172 0.137284,-0.0446172 h 0.181901 q 0.08237,0 0.133852,0.0411851 0.05491,0.037753 0.07551,0.10296284 L 31.04611,3.8377061 q 0.02746,0.08237 0.05148,0.1784689 0.02402,0.092667 0.04462,0.1956294 0.02059,-0.1029628 0.04118,-0.1990614 0.02059,-0.096099 0.04462,-0.1750369 l 0.871752,-3.10947789 q 0.01716,-0.0583456 0.07551,-0.10296285 0.06178,-0.0446172 0.140716,-0.0446172 h 0.490789 L 31.437368,5.0904207 H 30.871073 L 29.786531,1.6720543 q -0.01716,-0.048049 -0.03432,-0.1029629 -0.01373,-0.058346 -0.03089,-0.1235554 -0.01373,0.06521 -0.03089,0.1235554 -0.01373,0.054914 -0.03089,0.1029629 L 28.568137,5.0904207 H 28.005274 Z M 37.363197,2.8355344 q 0,0.5079501 -0.151012,0.9300977 -0.14758,0.4221477 -0.422148,0.7276041 -0.271135,0.3054565 -0.65553,0.4770612 -0.380962,0.1681727 -0.847727,0.1681727 -0.463333,0 -0.847728,-0.1681727 Q 34.054658,4.7986927 33.78009,4.4932362 33.505523,4.1877798 33.354511,3.7656321 33.203498,3.3434845 33.203498,2.8355344 q 0,-0.5045179 0.151013,-0.9266656 0.151012,-0.4255797 0.425579,-0.7310362 0.274568,-0.3088885 0.658962,-0.47706115 0.384395,-0.17160474 0.847728,-0.17160474 0.466765,0 0.847727,0.17160474 0.384395,0.16817265 0.65553,0.47706115 0.274568,0.3054565 0.422148,0.7310362 0.151012,0.4221477 0.151012,0.9266656 z m -0.638369,0 q 0,-0.4118514 -0.102963,-0.7379004 Q 36.522334,1.7681529 36.333569,1.5416347 36.148236,1.3116843 35.880532,1.191561 35.616261,1.0680056 35.28678,1.0680056 q -0.329481,0 -0.597185,0.1235554 -0.264271,0.1201233 -0.453036,0.3500737 -0.188765,0.2265182 -0.291728,0.5559993 -0.09953,0.326049 -0.09953,0.7379004 0,0.4118514 0.09953,0.7413325 0.102963,0.326049 0.291728,0.5559994 0.188765,0.2265182 0.453036,0.3466415 0.267704,0.1201234 0.597185,0.1201234 0.329481,0 0.593752,-0.1201234 0.267704,-0.1201233 0.453037,-0.3466415 0.188765,-0.2299504 0.288296,-0.5559994 0.102963,-0.3294811 0.102963,-0.7413325 z M 38.923401,3.216497 V 5.0904207 H 38.29876 V 0.58064813 h 1.235554 q 0.411851,0 0.710444,0.0892345 0.302024,0.0858024 0.494221,0.25054292 0.19563,0.16130848 0.288296,0.39469088 0.09267,0.2299504 0.09267,0.5182463 0,0.2368146 -0.07207,0.4427403 -0.06864,0.2059257 -0.202494,0.3706662 -0.130419,0.1647406 -0.322617,0.2848639 -0.192197,0.1166912 -0.435876,0.1784689 0.05835,0.037753 0.109827,0.085802 0.05148,0.044617 0.09953,0.109827 l 1.211529,1.7846893 h -0.555999 q -0.161308,0 -0.250543,-0.1269875 L 39.633845,3.3572128 Q 39.582363,3.2817068 39.520586,3.2508179 39.46224,3.216497 39.342117,3.216497 Z m 0,-0.4564687 h 0.586888 q 0.247111,0 0.432444,-0.061778 0.188765,-0.06521 0.315753,-0.181901 0.126987,-0.1166912 0.188765,-0.2779997 0.06521,-0.1647405 0.06521,-0.3603699 0,-0.8065423 -0.978147,-0.8065423 h -0.610913 z m 3.969535,1.8052819 h 1.740072 V 5.0904207 H 42.268294 V 0.58064813 h 0.624642 z m 6.131755,-1.7297758 q 0,0.5079501 -0.151012,0.9232335 -0.14758,0.4152835 -0.418716,0.7138758 -0.267703,0.2951601 -0.648666,0.4564686 -0.37753,0.1613084 -0.837431,0.1613084 H 45.410695 V 0.58064813 h 1.558171 q 0.459901,0 0.837431,0.16474055 0.380963,0.16130846 0.648666,0.45646862 0.271136,0.2951601 0.418716,0.7138757 0.151012,0.4152835 0.151012,0.9198014 z m -0.641802,0 q 0,-0.4118514 -0.09953,-0.7344683 Q 48.183828,1.7750171 47.998494,1.5484989 47.813161,1.3219806 47.552322,1.2052894 47.291483,1.0851661 46.968866,1.0851661 h -0.930098 v 3.5007367 h 0.930098 q 0.322617,0 0.583456,-0.1166912 0.260839,-0.1201234 0.446172,-0.3432095 0.185334,-0.2265183 0.284864,-0.5525673 0.09953,-0.326049 0.09953,-0.7379004 z m 2.873296,-2.25488627 h 0.525111 q 0.07894,0 0.133851,0.0411851 0.05835,0.037753 0.07551,0.10296284 l 0.875184,3.11290999 q 0.04805,0.1647406 0.08923,0.3843946 0.02059,-0.1063949 0.04462,-0.2024936 0.02403,-0.099531 0.05148,-0.1853331 l 1.005604,-3.10604579 q 0.01716,-0.0583456 0.07551,-0.10296285 0.05835,-0.0446172 0.137284,-0.0446172 h 0.181901 q 0.08237,0 0.133851,0.0411851 0.05491,0.037753 0.07551,0.10296284 l 1.005604,3.11290999 q 0.02746,0.08237 0.05148,0.1784689 0.02402,0.092667 0.04462,0.1956294 0.02059,-0.1029628 0.04118,-0.1990614 0.02059,-0.096099 0.04462,-0.1750369 L 56.72008,0.72822821 q 0.01716,-0.0583456 0.07551,-0.10296285 0.06178,-0.0446172 0.140716,-0.0446172 h 0.49079 L 56.057686,5.0904207 H 55.49139 L 54.406848,1.6720543 q -0.01716,-0.048049 -0.03432,-0.1029629 -0.01373,-0.058346 -0.03089,-0.1235554 -0.01373,0.06521 -0.03089,0.1235554 -0.01373,0.054914 -0.03089,0.1029629 L 53.188455,5.0904207 H 52.625591 Z M 58.850013,5.0904207 H 58.225372 V 0.58064813 h 0.624641 z m 4.848151,-2.2548863 q 0,0.5079501 -0.151012,0.9232335 -0.14758,0.4152835 -0.418716,0.7138758 -0.267703,0.2951601 -0.648665,0.4564686 -0.377531,0.1613084 -0.837432,0.1613084 H 60.084168 V 0.58064813 h 1.558171 q 0.459901,0 0.837432,0.16474055 0.380962,0.16130846 0.648665,0.45646862 0.271136,0.2951601 0.418716,0.7138757 0.151012,0.4152835 0.151012,0.9198014 z m -0.641802,0 q 0,-0.4118514 -0.09953,-0.7344683 Q 62.857301,1.7750171 62.671968,1.5484989 62.486635,1.3219806 62.225796,1.2052894 61.964956,1.0851661 61.642339,1.0851661 h -0.930097 v 3.5007367 h 0.930097 q 0.322617,0 0.583457,-0.1166912 0.260839,-0.1201234 0.446172,-0.3432095 0.185333,-0.2265183 0.284864,-0.5525673 0.09953,-0.326049 0.09953,-0.7379004 z M 67.248983,0.58064813 V 1.0885982 H 65.241208 V 2.567831 h 1.616516 v 0.4907896 h -1.616516 v 1.5238501 h 2.011207 l -0.0034,0.50795 H 64.613134 V 0.58064813 Z m 2.296705,0 h 0.525111 q 0.07894,0 0.133852,0.0411851 0.05835,0.037753 0.07551,0.10296284 l 0.875184,3.11290999 q 0.04805,0.1647406 0.08923,0.3843946 0.02059,-0.1063949 0.04462,-0.2024936 0.02402,-0.099531 0.05148,-0.1853331 l 1.005604,-3.10604579 q 0.01716,-0.0583456 0.07551,-0.10296285 0.05835,-0.0446172 0.137284,-0.0446172 h 0.181901 q 0.08237,0 0.133851,0.0411851 0.05491,0.037753 0.07551,0.10296284 L 73.95593,3.8377061 q 0.02746,0.08237 0.05148,0.1784689 0.02402,0.092667 0.04462,0.1956294 0.02059,-0.1029628 0.04118,-0.1990614 0.02059,-0.096099 0.04462,-0.1750369 l 0.871752,-3.10947789 q 0.01716,-0.0583456 0.07551,-0.10296285 0.06178,-0.0446172 0.140716,-0.0446172 h 0.49079 L 74.347189,5.0904207 H 73.780893 L 72.696351,1.6720543 q -0.01716,-0.048049 -0.03432,-0.1029629 -0.01373,-0.058346 -0.03089,-0.1235554 -0.01373,0.06521 -0.03089,0.1235554 -0.01373,0.054914 -0.03089,0.1029629 l -1.091406,3.4183664 h -0.562864 z m 9.529528,0 V 1.0885982 H 77.06744 V 2.567831 h 1.616517 V 3.0586206 H 77.06744 v 1.5238501 h 2.011208 l -0.0034,0.50795 H 76.439367 V 0.58064813 Z M 80.051963,5.0904207 V 0.58064813 h 1.37627 q 0.398123,0 0.682987,0.0823703 0.288296,0.0789382 0.470197,0.23338245 0.185333,0.15101214 0.271135,0.37066624 0.0858,0.216222 0.0858,0.4907896 0,0.1647405 -0.05148,0.3191848 -0.04805,0.1544442 -0.14758,0.2848638 -0.09953,0.1304196 -0.250543,0.2368146 -0.151012,0.1063949 -0.356938,0.1716047 0.470197,0.092667 0.707012,0.3535058 0.240246,0.2574071 0.240246,0.6795548 0,0.2882959 -0.09953,0.5251105 -0.09953,0.2368145 -0.291728,0.4084193 -0.192198,0.1681726 -0.473629,0.2608392 -0.278,0.092666 -0.63837,0.092666 z M 80.676604,3.038028 v 1.5581711 h 0.888913 q 0.236814,0 0.404987,-0.058346 0.171605,-0.061778 0.278,-0.1681727 0.109827,-0.1063949 0.157876,-0.253975 0.05148,-0.1510122 0.05148,-0.326049 0,-0.3466416 -0.219654,-0.5491352 Q 82.021985,3.038028 81.565517,3.038028 Z m 0,-0.4393081 h 0.727604 q 0.229951,0 0.401555,-0.054914 0.171605,-0.058346 0.284864,-0.1578764 0.113259,-0.099531 0.168173,-0.2402466 0.05835,-0.1407159 0.05835,-0.3123207 0,-0.3946909 -0.216222,-0.5765919 -0.212789,-0.1853331 -0.67269,-0.1853331 h -0.751629 z"
       id="path4" /><path
       style="stroke-width:2.48282"
       d="m 29.868901,11.178957 q 0.04805,0 0.08923,0.04118 l 0.24711,0.267703 q -0.243678,0.322617 -0.600616,0.501086 -0.356938,0.178469 -0.854592,0.178469 -0.439308,0 -0.796246,-0.168172 -0.353506,-0.168173 -0.607481,-0.470197 -0.250542,-0.305457 -0.387826,-0.727604 -0.133852,-0.42558 -0.133852,-0.9369624 0,-0.5113821 0.144148,-0.9335298 0.144148,-0.4255797 0.404987,-0.7310362 0.260839,-0.3054564 0.624641,-0.4736291 0.363803,-0.1681726 0.803111,-0.1681726 0.435876,0 0.765357,0.1544443 0.332913,0.1544442 0.580024,0.4187155 l -0.205926,0.288296 q -0.02059,0.030889 -0.05148,0.051481 -0.03089,0.020593 -0.07894,0.020593 -0.05835,0 -0.13042,-0.061778 -0.06864,-0.061778 -0.181901,-0.1338517 -0.113259,-0.075506 -0.281432,-0.1372838 -0.168173,-0.061778 -0.418715,-0.061778 -0.295161,0 -0.542271,0.1201233 -0.243679,0.1201233 -0.422148,0.3500737 -0.175037,0.2265182 -0.274568,0.5559993 -0.0961,0.326049 -0.0961,0.7413325 0,0.4187154 0.102963,0.7481964 0.102962,0.329481 0.281431,0.556 0.178469,0.226518 0.418716,0.346641 0.243679,0.120124 0.521678,0.120124 0.171605,0 0.305457,-0.02402 0.137284,-0.02402 0.250543,-0.07207 0.116691,-0.05148 0.216222,-0.126988 0.102962,-0.07894 0.202493,-0.185333 0.05491,-0.04805 0.106395,-0.04805 z m 5.002595,-1.3144924 q 0,0.5079504 -0.151012,0.9300974 -0.14758,0.422148 -0.422148,0.727604 -0.271135,0.305457 -0.65553,0.477062 -0.380962,0.168172 -0.847727,0.168172 -0.463333,0 -0.847728,-0.168172 -0.384394,-0.171605 -0.658962,-0.477062 -0.274567,-0.305456 -0.42558,-0.727604 -0.151012,-0.422147 -0.151012,-0.9300974 0,-0.5045179 0.151012,-0.9266656 0.151013,-0.4255797 0.42558,-0.7310362 0.274568,-0.3088885 0.658962,-0.4770612 0.384395,-0.1716047 0.847728,-0.1716047 0.466765,0 0.847727,0.1716047 0.384395,0.1681727 0.65553,0.4770612 0.274568,0.3054565 0.422148,0.7310362 0.151012,0.4221477 0.151012,0.9266656 z m -0.638369,0 q 0,-0.4118514 -0.102963,-0.7379004 Q 34.030633,8.7970831 33.841868,8.5705649 33.656535,8.3406145 33.388831,8.2204912 33.12456,8.0969358 32.795079,8.0969358 q -0.329481,0 -0.597185,0.1235554 -0.264271,0.1201233 -0.453036,0.3500737 -0.188765,0.2265182 -0.291728,0.5559993 -0.09953,0.326049 -0.09953,0.7379004 0,0.4118514 0.09953,0.7413324 0.102963,0.326049 0.291728,0.555999 0.188765,0.226519 0.453036,0.346642 0.267704,0.120123 0.597185,0.120123 0.329481,0 0.593752,-0.120123 0.267704,-0.120123 0.453037,-0.346642 0.188765,-0.22995 0.288296,-0.555999 0.102963,-0.329481 0.102963,-0.7413324 z M 36.13654,7.6095783 q 0.07894,0 0.120123,0.020593 0.04118,0.01716 0.09267,0.085802 l 2.450515,3.3737487 q -0.0069,-0.08237 -0.01373,-0.161308 -0.0034,-0.08237 -0.0034,-0.151012 V 7.6095783 h 0.549135 v 4.5097727 h -0.315753 q -0.07207,0 -0.123555,-0.02402 -0.04805,-0.02402 -0.0961,-0.0858 L 36.345898,8.646071 q 0.0069,0.078938 0.0103,0.1510121 0.0034,0.072074 0.0034,0.1372838 V 12.119351 H 35.810491 V 7.6095783 h 0.326049 z m 6.622544,0.7104436 q -0.05148,0.096099 -0.140716,0.096099 -0.05148,0 -0.123555,-0.051481 -0.06864,-0.054913 -0.171605,-0.1166912 -0.09953,-0.06521 -0.243679,-0.1166913 -0.140716,-0.054913 -0.339777,-0.054913 -0.188765,0 -0.332913,0.054913 -0.140716,0.051481 -0.236815,0.1475801 -0.09267,0.092667 -0.140716,0.2196541 -0.04805,0.1235554 -0.04805,0.2677034 0,0.1887652 0.0858,0.3123206 0.08923,0.1235554 0.229951,0.2127899 0.144148,0.085802 0.326049,0.1510122 0.181901,0.06521 0.370666,0.1338517 0.188765,0.068642 0.370666,0.1578763 0.181901,0.085802 0.322617,0.2196541 0.144148,0.1304199 0.22995,0.3226169 0.08923,0.192197 0.08923,0.470197 0,0.298592 -0.0961,0.559431 -0.0961,0.257408 -0.281432,0.449605 -0.181901,0.192197 -0.449604,0.302024 -0.267703,0.109827 -0.610913,0.109827 -0.415283,0 -0.765357,-0.157876 -0.346642,-0.161309 -0.59032,-0.432444 l 0.181901,-0.29516 q 0.02402,-0.03775 0.05835,-0.05835 0.03775,-0.02402 0.0858,-0.02402 0.06521,0 0.144148,0.07207 0.08237,0.06864 0.202493,0.154445 0.120124,0.08237 0.288296,0.154444 0.171605,0.06864 0.40842,0.06864 0.199061,0 0.353505,-0.05835 0.154445,-0.05835 0.26084,-0.16474 0.109827,-0.106395 0.16474,-0.253975 0.05835,-0.151012 0.05835,-0.332913 0,-0.202494 -0.08924,-0.332914 -0.0858,-0.130419 -0.22995,-0.216222 -0.140716,-0.08923 -0.322617,-0.14758 -0.181901,-0.06178 -0.370666,-0.126987 -0.188765,-0.06521 -0.370666,-0.1475803 -0.181902,-0.085802 -0.32605,-0.2230862 -0.140715,-0.1372837 -0.22995,-0.3397773 -0.0858,-0.2024936 -0.0858,-0.504518 0,-0.2368145 0.08923,-0.4599007 0.08924,-0.2265182 0.257407,-0.398123 0.171605,-0.1750368 0.418716,-0.2779997 0.250543,-0.1063949 0.57316,-0.1063949 0.36037,0 0.658962,0.1201233 0.302024,0.1201233 0.521678,0.3500737 z m 5.084966,1.5444427 q 0,0.5079504 -0.151012,0.9300974 -0.14758,0.422148 -0.422147,0.727604 -0.271136,0.305457 -0.655531,0.477062 -0.380962,0.168172 -0.847727,0.168172 -0.463333,0 -0.847727,-0.168172 -0.384395,-0.171605 -0.658963,-0.477062 -0.274567,-0.305456 -0.425579,-0.727604 -0.151013,-0.422147 -0.151013,-0.9300974 0,-0.5045179 0.151013,-0.9266656 0.151012,-0.4255797 0.425579,-0.7310362 0.274568,-0.3088885 0.658963,-0.4770612 0.384394,-0.1716047 0.847727,-0.1716047 0.466765,0 0.847727,0.1716047 0.384395,0.1681727 0.655531,0.4770612 0.274567,0.3054565 0.422147,0.7310362 0.151012,0.4221477 0.151012,0.9266656 z m -0.638369,0 q 0,-0.4118514 -0.102963,-0.7379004 Q 47.003187,8.7970831 46.814422,8.5705649 46.629089,8.3406145 46.361385,8.2204912 46.097114,8.0969358 45.767633,8.0969358 q -0.329481,0 -0.597185,0.1235554 -0.264271,0.1201233 -0.453036,0.3500737 -0.188765,0.2265182 -0.291728,0.5559993 -0.09953,0.326049 -0.09953,0.7379004 0,0.4118514 0.09953,0.7413324 0.102963,0.326049 0.291728,0.555999 0.188765,0.226519 0.453036,0.346642 0.267704,0.120123 0.597185,0.120123 0.329481,0 0.593752,-0.120123 0.267704,-0.120123 0.453037,-0.346642 0.188765,-0.22995 0.288296,-0.555999 0.102963,-0.329481 0.102963,-0.7413324 z m 2.198573,0.3809624 v 1.873924 H 48.779613 V 7.6095783 h 1.235554 q 0.411851,0 0.710444,0.089234 0.302024,0.085802 0.494221,0.2505429 0.19563,0.1613085 0.288296,0.3946909 0.09267,0.2299504 0.09267,0.5182463 0,0.2368146 -0.07207,0.4427403 -0.06864,0.2059256 -0.202494,0.3706662 -0.130419,0.1647406 -0.322617,0.2848639 -0.192197,0.1166907 -0.435876,0.1784687 0.05835,0.03775 0.109827,0.0858 0.05148,0.04462 0.09953,0.109827 l 1.21153,1.784689 h -0.556 q -0.161308,0 -0.250543,-0.126988 l -1.067381,-1.60622 q -0.05148,-0.07551 -0.113259,-0.106395 -0.05835,-0.03432 -0.178469,-0.03432 z m 0,-0.4564685 h 0.586888 q 0.247111,0 0.432444,-0.061778 0.188766,-0.06521 0.315753,-0.181901 0.126988,-0.1166912 0.188765,-0.2779997 0.06521,-0.1647405 0.06521,-0.3603699 0,-0.8065423 -0.978147,-0.8065423 H 49.404254 Z M 55.549737,7.6095783 V 8.1312567 H 54.235245 V 12.119351 H 53.607171 V 8.1312567 H 52.289247 V 7.6095783 Z m 1.464104,4.5097727 H 56.3892 V 7.6095783 h 0.624641 z m 3.01198,-0.494222 q 0.271136,0 0.483926,-0.09267 0.216222,-0.0961 0.363802,-0.264272 0.14758,-0.171604 0.223086,-0.404987 0.07894,-0.233382 0.07894,-0.514814 V 7.6095783 h 0.624641 V 10.34839 q 0,0.391259 -0.123555,0.724172 -0.123555,0.332913 -0.353506,0.576592 -0.226518,0.243679 -0.555999,0.384395 -0.329481,0.137283 -0.741333,0.137283 -0.411851,0 -0.741332,-0.137283 Q 58.95844,11.892833 58.72849,11.649154 58.498539,11.405475 58.374984,11.072562 58.251428,10.739649 58.251428,10.34839 V 7.6095783 h 0.624642 v 2.7353797 q 0,0.281432 0.07551,0.518246 0.07894,0.233383 0.226518,0.404987 0.14758,0.168173 0.36037,0.264272 0.216222,0.09267 0.487357,0.09267 z m 5.304622,-1.149752 q 0.04462,0.07894 0.07894,0.161309 0.03775,0.08237 0.07207,0.168173 0.03432,-0.08924 0.06864,-0.171605 0.03775,-0.08237 0.07894,-0.157877 l 1.592492,-2.7628358 q 0.04118,-0.072074 0.08923,-0.085802 0.04805,-0.017161 0.13042,-0.017161 h 0.459901 V 12.119351 H 67.348514 V 8.827972 q 0,-0.068642 0.0034,-0.1510122 0.0069,-0.085802 0.01373,-0.1716047 l -1.609653,2.8280459 q -0.07894,0.140716 -0.226518,0.140716 h -0.08923 q -0.14758,0 -0.226519,-0.140716 L 63.566346,8.5087872 q 0.02059,0.1716047 0.02059,0.3191848 v 3.291379 H 63.037803 V 7.6095783 h 0.459901 q 0.08237,0 0.126988,0.017161 0.04805,0.013728 0.09267,0.089234 l 1.613085,2.7594037 z"
       id="path5" /></g><g
     id="g3"
     style="fill:#005a9c"
     transform="matrix(0.95833264,0,0,0.95833264,20.716784,29.09729)"><path
       d="m -2.1613008,-20.668904 c -0.4182616,-0.332003 -1.0289151,-0.261404 -1.3609179,0.156857 -0.4112239,0.518472 -0.7847333,0.830552 -1.2105279,1.012189 -0.785278,0.334159 -1.4509189,0.192938 -2.0944554,-0.444652 -0.6306012,-0.624679 -1.2450216,-1.305386 -1.8411291,-1.965104 -0.2915861,-0.322833 -0.5836929,-0.646212 -0.8795912,-0.965825 -0.5055617,-0.545978 -1.0137997,-1.089799 -1.5215167,-1.634167 l -0.04475,-0.04797 c -1.104346,-1.181957 -2.245886,-2.404355 -3.34701,-3.63213 -0.873124,-0.973928 -2.222172,-1.45632 -3.520024,-1.261203 -1.326423,0.19834 -2.398977,1.047228 -3.020409,2.389809 -0.598784,1.292996 -0.396134,2.762227 0.528185,3.834234 1.626089,1.885882 2.997786,3.445114 4.604447,4.911669 0.657017,0.599329 1.452009,0.918397 2.298717,0.922708 0.549224,0.0027 1.377074,-0.05927 2.221651,-0.6279 0.369742,-0.24899 0.714134,-0.505017 0.86559,-0.895772 0.154156,-0.3999 0.01023,-0.859643 -0.35086,-1.118892 -0.35034,-0.252235 -0.810083,-0.234468 -1.144242,0.04312 -0.04205,0.03501 -0.08787,0.07545 -0.137975,0.119117 -0.524964,0.459744 -1.178215,1.032112 -2.510016,0.07598 -1.220217,-0.87637 -2.165029,-2.024923 -3.259685,-3.355088 -0.356807,-0.433353 -0.726005,-0.881772 -1.120527,-1.339905 -0.421483,-0.488835 -0.512574,-1.161463 -0.23769,-1.75596 0.239846,-0.517406 0.702811,-1.160943 1.550089,-1.287594 0.641901,-0.09649 1.361438,0.160054 1.790999,0.63868 1.110293,1.238554 2.260457,2.47064 3.372881,3.661221 0.521198,0.557847 1.042371,1.116215 1.560867,1.676218 0.290521,0.31369 0.57725,0.631122 0.868292,0.953435 0.6111984,0.67642 1.2428651,1.375464 1.9101167,2.036793 1.2046056,1.193801 2.7018627,1.496167 4.2180021,0.85102 0.7281606,-0.310989 1.3539049,-0.816006 1.9683253,-1.590504 0.3314574,-0.417692 0.261404,-1.027826 -0.1568329,-1.360373 z"
       id="path1"
       style="stroke-width:0.0616201" /><path
       d="m -0.64578071,-26.049238 c 0.62628965,-0.296988 1.11891615,-0.855901 1.16579977,-1.533931 0.11911774,-1.1771 -0.84995383,-2.303549 -2.27554746,-2.477653 -0.8752791,-0.111015 -1.6875184,0.148233 -2.2631329,0.625224 -0.3077429,0.256002 -0.3907556,0.729771 -0.1239746,1.063929 0.2915861,0.347639 0.6279004,0.408523 1.178215,0.106183 0.1972488,-0.112105 0.4936919,-0.205352 0.8197723,-0.182728 0.6149651,0.0426 0.7912009,0.596653 0.7739541,0.848343 -0.0027,0.0372 0.00109,0.895228 -0.8650452,0.835409 l -0.3266251,-0.02262 c -0.363795,-0.0248 -0.7276153,0.315301 -0.7545512,0.704422 -0.029117,0.41395 0.2737939,0.775589 0.6505248,0.802005 l 0.4015354,0.02748 c 1.1049155,0.07655 0.9895646,1.014344 0.9663954,1.164189 -0.021558,0.431172 -0.7136145,1.162554 -1.9478569,0.330912 -0.4187823,-0.281872 -3.4057635,-4.033664 -3.4057635,-4.033664 -1.4153346,-1.829805 -3.8202332,-2.152118 -5.7179612,-0.765876 -0.208573,0.152521 -0.346028,0.377276 -0.385898,0.633303 -0.03935,0.255457 0.02262,0.511484 0.17517,0.720057 0.15252,0.208574 0.377275,0.346029 0.632757,0.385899 0.257068,0.0399 0.512004,-0.02262 0.720602,-0.17517 1.2946067,-0.945877 2.4485366,-0.382132 3.0419433,0.385379 0,0 3.2069039,4.124755 4.0325985,4.56185 0.5357439,0.283507 1.0952017,0.447353 1.6638039,0.486704 1.74520579,0.120728 2.80804522,-0.84081 3.0947991,-2.158041 0.18808044,-0.863435 -0.37028788,-1.942455 -1.2515139,-2.331601 z"
       id="path2-0"
       style="stroke-width:0.0616201" /></g></svg>
