<?xml version="1.0" encoding="UTF-8" standalone="no"?>
<svg
   width="72"
   height="48"
   version="1.1"
   viewBox="0 0 54 35.999998"
   id="svg98"
   xml:space="preserve"
   xmlns="http://www.w3.org/2000/svg"
   xmlns:svg="http://www.w3.org/2000/svg"><defs
     id="defs102" /><g
     aria-label="WORLD WIDE WEB CONSORTIUM"
     transform="matrix(0.16052314,0,0,0.16052314,-1.1056144,-10.627717)"
     id="g96"><path
       id="polygon4"
       style="fill:#ffffff;fill-opacity:1"
       d="m 76.496,231.74861 1.46231,3.08777 10.27086,-9.18693 -1.2358,-2.6122 -8.84153,1.17853 6.49837,-6.1252 -1.2358,-2.61046 -13.53567,2.29456 1.24534,2.62782 8.51002,-1.52566 -6.44977,5.877 1.30002,2.74584 8.59854,-1.33647 z" /><path
       d="m 75.67676,213.94925 c 4.0528,-1.15422 5.75377,-4.7627 4.65335,-8.63152 -1.10389,-3.86882 -4.65161,-5.98288 -8.50308,-4.88419 -4.05107,1.15422 -5.7529,4.76096 -4.65074,8.62978 1.15336,4.0528 4.8139,5.93775 8.50047,4.88593 z m -5.77546,-5.66004 c -0.58406,-2.05504 0.48165,-4.10487 2.80572,-4.7679 2.14356,-0.61096 4.20901,0.15621 4.89721,2.57227 0.57885,2.03421 -0.62571,4.14653 -2.80572,4.7679 -2.32581,0.66303 -4.29753,-0.46516 -4.89721,-2.57227 z"
       style="fill:#ffffff;fill-opacity:1"
       id="path6" /><path
       d="m 77.50964,193.67829 -4.57785,0.64567 -0.15534,-1.10215 4.13178,-3.82369 -0.51289,-3.62409 -4.62037,4.53879 c -0.45475,-0.65956 -1.65584,-2.01686 -4.08405,-1.67319 -2.41259,0.34019 -4.00768,1.86064 -3.50607,5.4292 0.05207,0.37491 0.56236,3.71435 0.66476,4.44333 l 13.08179,-1.84329 -0.42177,-2.99057 z m -10.27868,1.44756 c -0.10588,-0.61269 -0.15795,-0.85222 -0.2213,-1.30349 -0.20221,-1.43714 0.43565,-1.90924 1.16551,-2.01165 1.10215,-0.15448 1.64021,0.68386 1.80163,1.8242 l 0.15274,1.08306 z"
       style="fill:#ffffff;fill-opacity:1"
       id="path8" /><path
       id="polygon10"
       style="fill:#ffffff;fill-opacity:1"
       d="m 63.23544,184.82461 13.20589,-0.37144 -0.23432,-8.39546 -2.83002,0.0798 0.15101,5.37712 -10.37588,0.28986 z" /><path
       d="m 76.26689,174.23872 c 0.11629,-1.25837 0.31242,-2.98536 0.37664,-3.68137 0.46343,-5.01958 -2.34837,-7.82096 -6.03234,-8.15768 -3.49652,-0.32457 -6.72141,1.52045 -7.20566,6.78302 -0.07984,0.86437 -0.23866,3.20059 -0.30288,3.89659 l -0.02343,0.26382 13.15816,1.21497 0.02951,-0.31936 z m -2.43341,-4.03545 c -0.03992,0.43218 -0.06422,0.69601 -0.13885,1.08653 l -7.51895,-0.69427 c -0.02256,-0.38011 0.01649,-0.79494 0.04686,-1.1143 0.22477,-2.44383 1.66798,-4.11008 4.09359,-3.88791 2.50024,0.23258 3.75687,2.01512 3.51735,4.60996 z"
       style="fill:#ffffff;fill-opacity:1"
       id="path12" /><path
       id="polygon14"
       style="fill:#ffffff;fill-opacity:1"
       d="m 66.05851,152.10191 -0.97979,3.27175 13.77867,0.0417 0.82705,-2.76493 -7.35927,-5.03693 8.92572,-0.20828 0.82791,-2.76494 -11.59344,-7.34885 -0.83313,2.78403 7.34538,4.55962 -8.72264,0.0521 -0.87044,2.91246 7.2855,4.75749 z" /><path
       id="rect16"
       style="fill:#ffffff;fill-opacity:1"
       transform="rotate(-66.18191,78.697921,135.8039)"
       d="m 77.186913,129.19633 h 3.02202 v 13.21513 h -3.02202 z" /><path
       d="m 86.77641,133.85995 c 0.62658,-1.10042 1.51611,-2.59136 1.86238,-3.19885 2.48809,-4.38258 1.07785,-8.09172 -2.14009,-9.91939 -3.05219,-1.7322 -6.74744,-1.37986 -9.35703,3.21621 -0.43045,0.75502 -1.53607,2.81874 -1.88061,3.42449 l -0.13018,0.23084 11.48844,6.52441 0.15708,-0.27771 z m -1.12645,-3.74559 -6.56606,-3.72997 c 0.13538,-0.35408 0.34193,-0.71683 0.49987,-0.99454 1.21324,-2.13315 3.21447,-3.06 5.33113,-1.85544 2.18348,1.23927 2.59223,3.38283 1.3061,5.64789 -0.21349,0.37664 -0.34366,0.60575 -0.57104,0.93206 z"
       style="fill:#ffffff;fill-opacity:1"
       id="path18" /><path
       id="polygon20"
       style="fill:#ffffff;fill-opacity:1"
       d="m 82.96921,114.54708 10.61452,7.86782 4.77832,-6.4463 -2.27547,-1.68534 -2.97842,4.01809 -1.92487,-1.42673 2.52715,-3.41234 -2.27374,-1.68707 -2.53061,3.41407 -1.86412,-1.38333 2.8656,-3.86883 -2.2746,-1.68534 z" /><path
       id="polygon22"
       style="fill:#ffffff;fill-opacity:1"
       d="m 94.37,100.47422 -2.50111,2.3258 11.85466,7.01908 2.11406,-1.96479 -3.78985,-8.07263 7.801,4.34787 2.11492,-1.96825 -6.27013,-12.20701 -2.12881,1.97693 4.01896,7.65433 -7.54325,-4.37737 -2.22687,2.06892 3.86708,7.79319 z" /><path
       id="polygon24"
       style="fill:#ffffff;fill-opacity:1"
       d="m 108.40641,88.29324 7.49986,10.88616 6.60771,-4.55267 -1.60723,-2.33449 -4.12136,2.83957 -1.36164,-1.97347 3.49912,-2.41085 -1.6055,-2.33275 -3.49826,2.41085 -1.31824,-1.91097 3.96515,-2.73369 -1.60724,-2.33102 z" /><path
       d="m 127.99525,91.62227 c 2.52888,-1.35903 3.80807,-3.52516 2.49417,-5.96899 -0.80535,-1.49789 -2.075,-1.90751 -3.09297,-1.76865 l -0.0182,-0.03298 c 0.56149,-1.02926 0.58839,-2.09496 -0.0633,-3.30993 -0.86784,-1.61071 -2.68596,-2.28415 -5.46217,-0.79147 -1.26531,0.68039 -2.84217,1.61418 -3.47222,1.99429 l 6.2198,11.57349 c 0.71683,-0.30027 2.28241,-1.09868 3.39498,-1.69576 z m -0.23866,-4.67418 c 0.4209,0.78279 0.14666,1.5083 -0.88519,2.06198 -0.49901,0.26903 -0.74113,0.33499 -0.95115,0.38358 l -1.17071,-2.17827 1.03099,-0.55368 c 0.86437,-0.46516 1.58294,-0.44433 1.97607,0.28639 z m -4.25935,-2.06024 -1.13426,-2.11058 c 0.28118,-0.1944 0.46256,-0.33499 0.79494,-0.51376 0.64914,-0.35061 1.47012,-0.34019 1.84502,0.35755 0.45561,0.84875 0.059,1.42673 -0.62311,1.79295 z"
       style="fill:#ffffff;fill-opacity:1"
       id="path26" /><path
       d="m 143.64063,84.95033 c 1.68881,-0.59707 3.09471,-1.7756 3.54425,-2.87775 l -1.84155,-1.74956 c -0.61443,0.91991 -1.49268,1.54996 -2.38135,1.86759 -2.24076,0.79147 -4.3253,-0.23084 -5.10809,-2.43689 -0.86957,-2.45425 0.22737,-4.3253 2.1505,-5.00569 1.17505,-0.41656 1.99429,-0.30548 2.81527,-0.13712 l 0.50508,-2.58269 c -1.00496,-0.46516 -2.61219,-0.53459 -4.26629,0.05207 -4.28712,1.51872 -5.49515,5.17058 -4.22811,8.74607 1.37639,3.8775 4.95188,5.49342 8.81029,4.12397 z"
       style="fill:#ffffff;fill-opacity:1"
       id="path28" /><path
       d="m 154.64482,81.94935 c 3.93304,-0.83833 6.28141,-4.23331 5.44655,-8.149 -0.87652,-4.11876 -4.36002,-6.06098 -8.29306,-5.22265 -4.11876,0.87652 -6.24496,4.39647 -5.44829,8.14726 0.87825,4.11876 4.36002,6.06098 8.2948,5.22439 z M 152.38844,71.3461 c 2.08802,-0.44433 4.06148,0.75849 4.56483,3.12248 0.46343,2.18001 -0.4426,4.18645 -2.89858,4.70889 -2.06893,0.44086 -4.09272,-0.90429 -4.56309,-3.12075 -0.50335,-2.36399 0.75328,-4.25414 2.89684,-4.71063 z"
       style="fill:#ffffff;fill-opacity:1"
       id="path30" /><path
       id="polygon32"
       style="fill:#ffffff;fill-opacity:1"
       d="m 171.34029,66.37512 0.47558,7.95634 -6.73443,-7.58317 -2.41259,0.14407 0.788,13.19461 2.82568,-0.16663 -0.4721,-7.91815 6.73095,7.54325 2.41259,-0.14233 -0.78626,-13.19635 z" /><path
       d="m 181.67103,77.17103 c -0.92338,-0.06248 -2.04463,-0.5693 -2.73543,-1.57947 l -1.84676,1.94222 c 0.54674,1.4545 2.55144,2.34143 4.32183,2.45598 2.5445,0.16489 4.62384,-1.28787 4.77311,-3.58591 0.27944,-4.2958 -5.25563,-4.1257 -5.1133,-6.31092 0.0382,-0.60228 0.55195,-0.94768 1.3816,-0.89214 0.97892,0.06075 1.39201,0.43045 1.93875,1.01363 l 1.76692,-2.15571 c -0.77064,-0.939 -2.09149,-1.59162 -3.78551,-1.7027 -2.63823,-0.1701 -4.3739,1.49442 -4.50408,3.52863 -0.27597,4.25761 5.24001,4.37043 5.11157,6.34737 -0.0399,0.62311 -0.51897,0.98934 -1.3087,0.939 z"
       style="fill:#ffffff;fill-opacity:1"
       id="path34" /><path
       d="m 193.87631,81.60048 c 3.94866,0.77411 7.43911,-1.43193 8.20801,-5.3615 0.80709,-4.13264 -1.63327,-7.28463 -5.58367,-8.05701 -4.13264,-0.81056 -7.47035,1.59856 -8.20628,5.35977 -0.80883,4.13438 1.63501,7.28637 5.58193,8.05874 z m -2.43168,-7.44085 c 0.46516,-2.37267 2.36226,-3.61888 4.51276,-3.19712 2.09496,0.40962 3.44011,2.28936 2.97668,4.66203 -0.42698,2.18522 -2.0481,3.67963 -4.51276,3.19538 -2.07587,-0.40615 -3.4106,-2.43689 -2.97668,-4.66029 z"
       style="fill:#ffffff;fill-opacity:1"
       id="path36" /><path
       d="m 207.08654,80.01233 1.05356,0.35928 1.53434,5.42225 3.46441,1.19067 -1.94916,-6.18074 c 0.79668,-0.10761 2.54971,-0.56409 3.34812,-2.88643 0.79147,-2.30498 0.15968,-4.41903 -3.25266,-5.59235 -0.35755,-0.1215 -3.56681,-1.18373 -4.26456,-1.42325 l -4.2958,12.50381 2.85866,0.98239 1.5031,-4.37564 z m 1.8728,-5.44829 c 0.59534,0.18398 0.83486,0.24647 1.26184,0.39226 1.37639,0.4721 1.50657,1.25663 1.26704,1.95437 -0.36276,1.05356 -1.35556,1.15075 -2.44383,0.77758 l -1.0362,-0.35581 z"
       style="fill:#ffffff;fill-opacity:1"
       id="path38" /><path
       id="polygon40"
       style="fill:#ffffff;fill-opacity:1"
       d="m 218.04213,74.781 -1.21324,2.5636 3.58938,1.69402 -4.44333,9.39695 2.73369,1.29134 4.44159,-9.39521 3.58765,1.69575 1.20976,-2.56359 z" /><path
       id="rect42"
       style="fill:#ffffff;fill-opacity:1"
       transform="rotate(-59.6634,228.40803,87.451006)"
       d="m 221.80032,85.941299 h 13.21538 v 3.01941 h -13.21538 z" /><path
       d="m 233.55734,99.00063 c 2.28762,1.67319 5.32853,1.86412 7.71334,-1.39722 l 4.58392,-6.25885 -2.43863,-1.78428 -4.22464,5.77286 c -1.24969,1.70617 -2.48202,2.46466 -3.96081,1.38333 -1.70443,-1.24969 -1.2844,-2.88122 -0.0677,-4.54226 l 4.12744,-5.63574 -2.43863,-1.78428 -4.50408,6.15297 c -2.28589,3.12422 -1.53087,6.08702 1.20977,8.09346 z"
       style="fill:#ffffff;fill-opacity:1"
       id="path44" /><path
       id="polygon46"
       style="fill:#ffffff;fill-opacity:1"
       d="m 251.67085,96.52035 -2.14529,-2.15571 -9.36571,9.33099 2.13141,2.13836 5.92733,-5.90304 -1.02752,6.19463 0.30722,0.30895 6.2519,-1.03099 -5.96899,5.94469 2.13315,2.14182 9.36744,-9.32926 -2.01338,-2.02032 -6.66673,1.19935 z" /><path
       id="polygon48"
       style="fill:#ffffff;fill-opacity:1"
       d="m 273.7851,125.11735 -1.45623,-3.09124 -10.28735,9.1661 1.23059,2.6122 8.84154,-1.15943 -6.50879,6.11131 1.2306,2.61393 13.53654,-2.26679 -1.23754,-2.63129 -8.51349,1.50657 6.46192,-5.85964 -1.29482,-2.75105 -8.60027,1.32085 z" /><path
       d="m 274.56269,142.9115 c -4.04933,1.14902 -5.7555,4.75055 -4.65682,8.61763 1.09695,3.86882 4.63773,5.98288 8.48746,4.89114 4.05107,-1.14902 5.7555,-4.75228 4.65855,-8.61937 -1.14728,-4.04933 -4.80262,-5.93428 -8.48919,-4.8894 z m 5.76591,5.66178 c 0.58145,2.05157 -0.48425,4.1014 -2.81006,4.76096 -2.14182,0.60749 -4.20381,-0.16142 -4.8894,-2.57748 -0.57624,-2.03421 0.63005,-4.14132 2.80832,-4.75922 2.32407,-0.65956 4.29233,0.46863 4.89114,2.57574 z"
       style="fill:#ffffff;fill-opacity:1"
       id="path50" /><path
       d="m 272.70899,163.22238 4.58219,-0.63526 0.15274,1.10389 -4.14132,3.81502 0.50508,3.62756 4.63252,-4.53011 c 0.45301,0.65956 1.65236,2.01859 4.08405,1.68187 2.41259,-0.33672 4.01288,-1.85544 3.51648,-5.42746 -0.0503,-0.37317 -0.55542,-3.71608 -0.65435,-4.44507 l -13.09394,1.81725 0.41656,2.99231 z m 10.28561,-1.42846 c 0.10588,0.61443 0.15795,0.85569 0.22043,1.30349 0.19787,1.44061 -0.44086,1.90924 -1.16985,2.01338 -1.10389,0.15274 -1.63848,-0.68733 -1.79816,-1.8294 l -0.14927,-1.0848 2.89684,-0.40268 z"
       style="fill:#ffffff;fill-opacity:1"
       id="path52" /><path
       id="polygon54"
       style="fill:#ffffff;fill-opacity:1"
       d="m 286.95715,172.11946 -13.20849,0.32978 0.20828,8.39546 2.83262,-0.0694 -0.13365,-5.37886 10.37761,-0.25688 z" /><path
       d="m 273.93437,182.34606 -0.0312,0.31936 c -0.11976,1.2601 -0.32284,2.98536 -0.39053,3.6831 -0.47731,5.01958 2.32581,7.83137 6.01238,8.18198 3.49739,0.33499 6.72748,-1.50136 7.23083,-6.76567 0.0816,-0.86437 0.2482,-3.20232 0.31416,-3.89659 l 0.026,-0.26382 -13.16163,-1.25837 z m 10.0027,5.11157 c -0.23258,2.44557 -1.68187,4.10835 -4.10661,3.87576 -2.50111,-0.23952 -3.75427,-2.02727 -3.50607,-4.62037 0.0417,-0.43392 0.066,-0.69774 0.14233,-1.09 l 7.51895,0.72031 c 0.0208,0.38011 -0.0174,0.7932 -0.0486,1.1143 z"
       style="fill:#ffffff;fill-opacity:1"
       id="path56" /><path
       id="polygon58"
       style="fill:#ffffff;fill-opacity:1"
       d="m 284.06899,204.8491 0.98933,-3.27348 -13.79168,-0.0816 -0.8366,2.76667 7.35233,5.0647 -8.93874,0.18051 -0.83659,2.76841 11.58564,7.39051 0.84006,-2.78576 -7.33843,-4.5874 8.73392,-0.026 0.87825,-2.91073 -7.27769,-4.787 z" /><path
       id="rect60"
       style="fill:#ffffff;fill-opacity:1"
       transform="rotate(-66.09787,271.40029,221.06336)"
       d="m 269.88968,214.45547 h 3.02122 v 13.21577 h -3.02122 z" /><path
       d="m 263.30162,223.03031 c -0.62658,1.09868 -1.51872,2.58789 -1.86585,3.19712 -2.4959,4.37738 -1.09,8.08999 2.12447,9.92112 3.04958,1.73915 6.74831,1.39201 9.36397,-3.20059 0.42871,-0.75675 1.53954,-2.817 1.88494,-3.42449 l 0.13365,-0.23084 -11.48323,-6.54176 z m 1.12298,3.74559 6.56086,3.73865 c -0.13885,0.35755 -0.3454,0.71857 -0.50335,0.99801 -1.21497,2.13141 -3.21794,3.05479 -5.33373,1.8485 -2.18174,-1.24274 -2.58789,-3.38804 -1.29829,-5.65136 0.21522,-0.37664 0.3454,-0.60749 0.57451,-0.93379 z"
       style="fill:#ffffff;fill-opacity:1"
       id="path62" /><path
       id="polygon64"
       style="fill:#ffffff;fill-opacity:1"
       d="m 267.08887,242.32062 -10.60325,-7.9008 -4.79741,6.43589 2.27027,1.69228 2.9923,-4.01288 1.92487,1.4354 -2.54103,3.4054 2.272,1.69402 2.54103,-3.40887 1.86238,1.39028 -2.87949,3.86361 2.272,1.69229 z" /><path
       id="polygon66"
       style="fill:#ffffff;fill-opacity:1"
       d="m 255.64555,256.38827 2.50632,-2.32407 -11.85293,-7.03817 -2.11926,1.96305 3.78203,8.08131 -7.79839,-4.35828 -2.11926,1.96479 6.25538,12.22436 2.13314,-1.97693 -4.01114,-7.66301 7.54498,4.38952 2.22861,-2.06719 -3.86015,-7.8036 z" /><path
       id="polygon68"
       style="fill:#ffffff;fill-opacity:1"
       d="m 241.56922,268.52759 -7.47382,-10.8931 -6.61466,4.53705 1.60202,2.33449 4.12397,-2.82915 1.35556,1.97693 -3.50085,2.40391 1.60202,2.33275 3.50086,-2.40217 1.31565,1.91445 -3.9695,2.72327 1.60203,2.33275 z" /><path
       d="m 221.99079,265.16385 c -2.52888,1.35209 -3.81328,3.51648 -2.50458,5.96205 0.80015,1.49615 2.07066,1.91098 3.0895,1.77213 l 0.0174,0.033 c -0.56236,1.02926 -0.5936,2.09496 0.0573,3.3082 0.86263,1.61418 2.68162,2.29109 5.46044,0.80362 1.26531,-0.67518 2.84304,-1.6055 3.47482,-1.98735 l -6.19636,-11.58217 c -0.71857,0.30027 -2.28415,1.09348 -3.39845,1.69055 z m 0.22911,4.6707 c -0.41656,-0.78279 -0.14233,-1.50657 0.8904,-2.05851 0.49814,-0.26903 0.74113,-0.33325 0.95289,-0.38185 l 1.16464,2.18001 -1.03099,0.55195 c -0.8661,0.46169 -1.58467,0.44086 -1.97694,-0.29159 z m 4.25414,2.06893 1.12993,2.11405 c -0.28118,0.1944 -0.46343,0.33499 -0.79494,0.51029 -0.64914,0.34714 -1.47012,0.33846 -1.84329,-0.36102 -0.45301,-0.84875 -0.0573,-1.42673 0.62831,-1.79122 z"
       style="fill:#ffffff;fill-opacity:1"
       id="path70" /><path
       d="m 206.3645,271.78545 c -1.69055,0.5936 -3.09818,1.77039 -3.54946,2.87081 l 1.83635,1.75303 c 0.6179,-0.91644 1.49615,-1.54649 2.38829,-1.85891 2.24249,-0.79147 4.3253,0.23605 5.10289,2.44383 0.86437,2.45598 -0.23952,4.32704 -2.16265,5.00395 -1.17332,0.41136 -1.99256,0.30201 -2.8118,0.13018 l -0.51376,2.58095 c 1.00496,0.4669 2.61046,0.54153 4.26629,-0.0417 4.29233,-1.51177 5.5073,-5.1619 4.2472,-8.73913 -1.36598,-3.88097 -4.938,-5.50383 -8.80335,-4.14306 z"
       style="fill:#ffffff;fill-opacity:1"
       id="path72" /><path
       d="m 195.31692,274.77776 c -3.93651,0.82965 -6.29009,4.2229 -5.46564,8.14032 0.86957,4.12223 4.3496,6.07313 8.28785,5.24174 4.1205,-0.86784 6.25538,-4.38605 5.46391,-8.14032 -0.86784,-4.1205 -4.34787,-6.06966 -8.28612,-5.24174 z m 2.23729,10.61019 c -2.08802,0.43913 -4.06322,-0.76543 -4.55962,-3.13116 -0.45995,-2.18174 0.4478,-4.18819 2.90726,-4.70542 2.07066,-0.43739 4.09099,0.91297 4.55962,3.13116 0.49814,2.36573 -0.7637,4.25241 -2.90726,4.70542 z"
       style="fill:#ffffff;fill-opacity:1"
       id="path74" /><path
       id="polygon76"
       style="fill:#ffffff;fill-opacity:1"
       d="m 183.71566,276.77726 0.46169,7.91468 -6.71707,-7.54672 -2.41085,0.13886 0.7689,13.1894 2.82742,-0.16489 -0.46516,-7.9494 6.7188,7.58317 2.41259,-0.14059 -0.77064,-13.18766 z" /><path
       d="m 168.27856,279.4988 c 0.92338,0.0607 2.04463,0.57277 2.73543,1.58467 l 1.85197,-1.94049 c -0.54674,-1.45797 -2.55144,-2.34837 -4.32357,-2.4664 -2.5445,-0.17183 -4.62905,1.28093 -4.78179,3.5807 -0.28639,4.29927 5.25389,4.13612 5.10636,6.3248 -0.0399,0.60228 -0.55542,0.94768 -1.38681,0.89214 -0.97719,-0.066 -1.39028,-0.43392 -1.93701,-1.01884 l -1.77213,2.15224 c 0.77064,0.94247 2.08975,1.59856 3.78551,1.71311 2.63823,0.17357 4.37911,-1.48747 4.51623,-3.52342 0.28465,-4.26108 -5.23827,-4.38432 -5.10636,-6.36472 0.0417,-0.62137 0.51897,-0.98586 1.31217,-0.93379 z"
       style="fill:#ffffff;fill-opacity:1"
       id="path78" /><path
       d="m 156.08023,275.03985 c -3.94519,-0.77585 -7.43911,1.42325 -8.21322,5.34935 -0.81403,4.13091 1.62459,7.28463 5.57152,8.06222 4.12917,0.81577 7.47035,-1.58641 8.21148,-5.34588 0.81577,-4.13091 -1.62286,-7.2881 -5.56978,-8.06569 z m 2.42126,7.44431 c -0.4669,2.37093 -2.36746,3.61368 -4.51623,3.19017 -2.09323,-0.41309 -3.4349,-2.29283 -2.96801,-4.66376 0.43045,-2.18695 2.05157,-3.67616 4.51449,-3.19191 2.07587,0.40962 3.40713,2.4421 2.96974,4.6655 z"
       style="fill:#ffffff;fill-opacity:1"
       id="path80" /><path
       d="m 142.8995,276.59675 -1.05356,-0.36623 -1.51872,-5.42399 -3.46094,-1.19935 1.93181,6.18769 c -0.79494,0.10414 -2.54971,0.55542 -3.35506,2.87254 -0.79841,2.30324 -0.17183,4.41903 3.2353,5.60103 0.35755,0.12323 3.56334,1.19415 4.25935,1.4354 l 4.33225,-12.48819 -2.85692,-0.99107 z m -1.88841,5.44308 c -0.59534,-0.18745 -0.83312,-0.24994 -1.2601,-0.39921 -1.37639,-0.47731 -1.5031,-1.2601 -1.26184,-1.95437 0.36449,-1.05529 1.35556,-1.14902 2.44557,-0.77238 l 1.0362,0.35928 -0.95983,2.76667 z"
       style="fill:#ffffff;fill-opacity:1"
       id="path82" /><path
       id="polygon84"
       style="fill:#ffffff;fill-opacity:1"
       d="m 123.20825,274.52262 -1.2167,2.56012 9.89335,4.71062 1.22018,-2.55838 -3.58417,-1.70617 4.46763,-9.3848 -2.73022,-1.30003 -4.46676,9.38481 z" /><path
       id="rect86"
       style="fill:#ffffff;fill-opacity:1"
       transform="rotate(-59.57622,121.59778,269.12728)"
       d="m 114.98873,267.61658 h 13.21808 v 3.02136 h -13.21808 z" /><path
       d="m 116.43738,257.53555 c -2.28241,-1.6784 -5.32505,-1.878 -7.72202,1.37813 l -4.60475,6.25017 2.43515,1.79295 4.2446,-5.76592 c 1.25403,-1.7027 2.49156,-2.45772 3.96689,-1.37118 1.70443,1.25489 1.27572,2.88643 0.0555,4.544 l -4.14653,5.63053 2.43515,1.79122 4.52491,-6.14603 c 2.29717,-3.11901 1.54822,-6.08528 -1.18894,-8.10387 z"
       style="fill:#ffffff;fill-opacity:1"
       id="path88" /><path
       id="polygon90"
       style="fill:#ffffff;fill-opacity:1"
       d="m 98.33602,259.98459 2.14008,2.15571 9.37786,-9.30496 -2.12794,-2.14356 -5.93341,5.88915 1.03707,-6.18768 -0.30461,-0.30722 -6.2493,1.01364 5.9742,-5.9256 -2.12794,-2.14356 -9.37439,9.30496 2.00644,2.02206 6.66326,-1.18894 z" /><path
       d="m 87.92109,237.367 c -1.52913,0 -2.81266,1.28266 -2.81266,2.83089 0,1.52913 1.28353,2.83262 2.81266,2.83262 1.54736,0 2.84998,-1.30349 2.84998,-2.83262 0,-1.54822 -1.30262,-2.83089 -2.84998,-2.83089 z"
       style="fill:#ffffff;fill-opacity:1"
       id="path92" /><path
       d="m 258.08526,117.06175 c 0,1.52913 1.28353,2.83262 2.81266,2.83262 1.54736,0 2.84998,-1.30349 2.84998,-2.83262 0,-1.54822 -1.30262,-2.83089 -2.84998,-2.83089 -1.52913,0 -2.81266,1.28266 -2.81266,2.83089 z"
       style="fill:#ffffff;fill-opacity:1"
       id="path94" /></g><path
     style="fill:none;stroke:#ffffff;stroke-width:2.13202;stroke-linecap:round;stroke-dasharray:none;stroke-opacity:1"
     d="m 29.075257,22.754399 0.0073,0.008 c 0.576825,0.613056 1.454248,0.880764 2.115389,0.880764 1.208005,0 2.148907,-0.897889 2.148907,-0.897889 m -8.295367,-8.288733 c 0,0 0.921874,-0.896434 2.113204,-0.896434 0.742918,0 1.567352,0.236394 2.130328,0.872745 l 3.799679,4.295229 c 0.533893,0.603482 1.450826,0.881858 2.136528,0.881858 2.082505,0 2.695617,-0.811816 2.695617,-1.813276 0,-1.001452 -0.81183,-1.813272 -1.813296,-1.813272 m -7.038269,6.770992 -7.824563,-8.315338 c -0.364195,-0.387054 -1.080871,-0.878938 -2.152562,-0.878938 -1.59671,0 -3.023085,1.287932 -3.024953,3.024918 -9.28e-4,0.865593 0.274731,1.507494 0.917214,2.150348 l 4.026347,4.028485 c 0.642483,0.642844 1.299494,0.881576 2.114662,0.879301 1.198908,-0.0034 1.602448,-0.326536 2.138712,-0.8804 m 9.561074,-9.874861 c 0.322802,-0.333394 0.781478,-0.531101 1.282206,-0.531101 1.001473,0 1.813315,0.81184 1.813315,1.813294 0,1.000388 -0.812948,1.8133 -1.813315,1.8133"
     id="path2-7" /></svg>
