<?xml version="1.0" encoding="UTF-8" standalone="no"?>
<!-- Created with Inkscape (http://www.inkscape.org/) -->

<svg
   width="315"
   height="48"
   viewBox="0 0 83.343748 12.7"
   version="1.1"
   id="svg1"
   xml:space="preserve"
   xmlns="http://www.w3.org/2000/svg"
   xmlns:svg="http://www.w3.org/2000/svg"><defs
     id="defs1" /><g
     id="layer1"
     transform="translate(-27.203726,-86.094872)"><path
       id="rect1"
       style="fill:#ffffff;stroke-width:1.02503;stroke-linecap:round"
       d="M 27.203726,86.094872 H 110.54748 V 98.794871 H 27.203726 Z" /><path
       style="opacity:1;fill:none;stroke:#005a9c;stroke-width:2.01789;stroke-linecap:round;stroke-dasharray:none"
       d="M 41.312383,96.944708 41.319283,96.952308 C 41.865226,97.532542 42.695671,97.785919 43.321415,97.785919 44.464746,97.785919 45.355273,96.936102 45.355273,96.936102 M 37.504017,89.091142 C 37.504017,89.091142 38.376536,88.242703 39.504084,88.242703 40.207227,88.242703 40.987522,88.466441 41.520357,89.068723 L 45.116604,93.13399 C 45.621912,93.70516 46.489756,93.968632 47.138746,93.968632 49.109755,93.968632 49.690041,93.20028 49.690041,92.25244 49.690041,91.304603 48.921675,90.536247 47.973829,90.536247 M 41.312381,96.944725 33.906737,89.074584 C 33.562041,88.708254 32.883734,88.242703 31.869422,88.242703 30.358198,88.242703 29.008189,89.461681 29.006422,91.10567 29.005541,91.924921 29.266443,92.532454 29.874528,93.14089 L 33.685308,96.953694 C 34.293393,97.56212 34.915228,97.788072 35.686753,97.785919 36.821472,97.782719 37.203407,97.476864 37.710961,96.952653 M 46.760144,87.606483 C 47.065664,87.29094 47.499782,87.103817 47.973703,87.103817 48.921557,87.103817 49.689934,87.872192 49.689934,88.820029 49.689934,89.766857 48.92051,90.536247 47.973703,90.536247"
       id="path2" /></g><g
     aria-label="WORLD WIDE WEBCONSORTIUM"
     id="text349"
     style="font-weight:300;font-size:5.82083px;line-height:103%;font-family:Lato;-inkscape-font-specification:'Lato Light';letter-spacing:0.079375px;word-spacing:0px;fill:#002a56;stroke-width:0.264583px"><path
       d="M 29.506067,1.2917002 H 29.753453 Q 29.837855,1.2917002 29.861138,1.3702815 L 30.900156,4.755094 Q 30.932171,4.8715106 30.958365,5.0199418 30.972917,4.9471814 30.987469,4.8802419 31.002021,4.8133023 31.022394,4.755094 L 32.18656,1.3702815 Q 32.198201,1.3382669 32.227305,1.3149836 32.25641,1.2917002 32.297155,1.2917002 H 32.378647 Q 32.419393,1.2917002 32.445587,1.3149836 32.47178,1.3353565 32.486332,1.3702815 L 33.650498,4.755094 Q 33.670871,4.8133023 33.685423,4.8773314 33.702886,4.9413606 33.717438,5.014121 33.73199,4.944271 33.743632,4.8802419 33.758184,4.8133023 33.772736,4.755094 L 34.811754,1.3702815 Q 34.820485,1.3382669 34.849589,1.3149836 34.881604,1.2917002 34.92235,1.2917002 H 35.149362 L 33.854227,5.4099374 H 33.586469 L 32.369916,1.8359478 Q 32.346632,1.7660979 32.32917,1.6875167 32.311707,1.7660979 32.288424,1.8359478 L 31.06896,5.4099374 H 30.804113 Z"
       id="path14" /><path
       d="M 39.591452,3.3493636 Q 39.591452,3.8266717 39.448841,4.2166673 39.306231,4.6037524 39.047204,4.8802419 38.788177,5.1538209 38.424375,5.3051624 38.063484,5.4535936 37.626922,5.4535936 37.190359,5.4535936 36.829468,5.3051624 36.468576,5.1538209 36.209549,4.8802419 35.950523,4.6037524 35.807912,4.2166673 35.665302,3.8266717 35.665302,3.3493636 35.665302,2.874966 35.807912,2.4878808 35.950523,2.0978852 36.209549,1.8243062 36.468576,1.5478168 36.829468,1.3964752 37.190359,1.2451336 37.626922,1.2451336 38.063484,1.2451336 38.424375,1.3964752 38.788177,1.5449063 39.047204,1.8213958 39.306231,2.0978852 39.448841,2.4878808 39.591452,2.874966 39.591452,3.3493636 Z M 39.282948,3.3493636 Q 39.282948,2.9186222 39.163621,2.5751932 39.044294,2.2317643 38.826012,1.9931102 38.607731,1.7544562 38.302138,1.6293084 37.996544,1.5012501 37.626922,1.5012501 37.260209,1.5012501 36.954616,1.6293084 36.649022,1.7544562 36.427831,1.9931102 36.209549,2.2317643 36.087312,2.5751932 35.967985,2.9186222 35.967985,3.3493636 35.967985,3.7830154 36.087312,4.1264444 36.209549,4.4669629 36.427831,4.705617 36.649022,4.944271 36.954616,5.0694188 37.260209,5.1945667 37.626922,5.1945667 37.996544,5.1945667 38.302138,5.0694188 38.607731,4.944271 38.826012,4.705617 39.044294,4.4669629 39.163621,4.1264444 39.282948,3.7830154 39.282948,3.3493636 Z"
       id="path16" /><path
       d="M 40.919395,3.5472718 V 5.4099374 H 40.619623 V 1.2917002 H 41.673193 Q 42.383334,1.2917002 42.735494,1.5681897 43.090565,1.8417687 43.090565,2.3743746 43.090565,2.6101182 43.006163,2.805116 42.924671,3.0001138 42.770419,3.148545 42.619078,3.2940657 42.400797,3.3901094 42.185426,3.4832427 41.917668,3.5123468 41.987518,3.5560031 42.042815,3.6287634 L 43.460188,5.4099374 H 43.204071 Q 43.154594,5.4099374 43.119669,5.3953853 43.087654,5.3779228 43.05855,5.3342666 L 41.737222,3.6636884 Q 41.713939,3.6316739 41.687745,3.6083905 41.664462,3.5851072 41.632447,3.5734656 41.603343,3.5589135 41.559687,3.5530927 41.518941,3.5472718 41.457822,3.5472718 Z M 40.919395,3.3260803 H 41.632447 Q 41.906026,3.3260803 42.121397,3.2620512 42.339678,3.1951116 42.488109,3.0728742 42.639451,2.9506368 42.718032,2.7789223 42.796613,2.6072078 42.796613,2.3918371 42.796613,1.9523644 42.508482,1.7399041 42.223261,1.5274439 41.673193,1.5274439 H 40.919395 Z"
       id="path18" /><path
       d="M 44.532016,5.1567313 H 46.481994 V 5.4099374 H 44.232243 V 1.2917002 H 44.532016 Z"
       id="path20" /><path
       d="M 50.726177,3.3493636 Q 50.726177,3.8266717 50.583566,4.207936 50.440956,4.5892004 50.181929,4.8569585 49.922902,5.1247167 49.5591,5.267327 49.198209,5.4099374 48.761647,5.4099374 H 47.256962 V 1.2917002 H 48.761647 Q 49.198209,1.2917002 49.5591,1.4343106 49.922902,1.5769209 50.181929,1.8446791 50.440956,2.1124373 50.583566,2.4937016 50.726177,2.874966 50.726177,3.3493636 Z M 50.417673,3.3493636 Q 50.417673,2.9186222 50.298346,2.5810141 50.179019,2.2434059 49.960738,2.0105727 49.742457,1.7777395 49.436863,1.6555021 49.131269,1.5332647 48.761647,1.5332647 H 47.556735 V 5.1683729 H 48.761647 Q 49.131269,5.1683729 49.436863,5.0461355 49.742457,4.9238981 49.960738,4.6910649 50.179019,4.4582317 50.298346,4.1206236 50.417673,3.7830154 50.417673,3.3493636 Z"
       id="path22" /><path
       d="M 52.817446,1.2917002 H 53.064831 Q 53.149233,1.2917002 53.172517,1.3702815 L 54.211535,4.755094 Q 54.243549,4.8715106 54.269743,5.0199418 54.284295,4.9471814 54.298847,4.8802419 54.313399,4.8133023 54.333772,4.755094 L 55.497938,1.3702815 Q 55.50958,1.3382669 55.538684,1.3149836 55.567788,1.2917002 55.608534,1.2917002 H 55.690025 Q 55.730771,1.2917002 55.756965,1.3149836 55.783159,1.3353565 55.797711,1.3702815 L 56.961877,4.755094 Q 56.98225,4.8133023 56.996802,4.8773314 57.014264,4.9413606 57.028816,5.014121 57.043368,4.944271 57.05501,4.8802419 57.069562,4.8133023 57.084114,4.755094 L 58.123132,1.3702815 Q 58.131864,1.3382669 58.160968,1.3149836 58.192982,1.2917002 58.233728,1.2917002 H 58.46074 L 57.165606,5.4099374 H 56.897848 L 55.681294,1.8359478 Q 55.658011,1.7660979 55.640548,1.6875167 55.623086,1.7660979 55.599803,1.8359478 L 54.380339,5.4099374 H 54.115491 Z"
       id="path24" /><path
       d="M 59.587867,5.4099374 H 59.288094 V 1.2917002 H 59.587867 Z"
       id="path26" /><path
       d="M 64.353008,3.3493636 Q 64.353008,3.8266717 64.210398,4.207936 64.067787,4.5892004 63.80876,4.8569585 63.549733,5.1247167 63.185931,5.267327 62.82504,5.4099374 62.388478,5.4099374 H 60.883793 V 1.2917002 H 62.388478 Q 62.82504,1.2917002 63.185931,1.4343106 63.549733,1.5769209 63.80876,1.8446791 64.067787,2.1124373 64.210398,2.4937016 64.353008,2.874966 64.353008,3.3493636 Z M 64.044504,3.3493636 Q 64.044504,2.9186222 63.925177,2.5810141 63.80585,2.2434059 63.587569,2.0105727 63.369288,1.7777395 63.063694,1.6555021 62.7581,1.5332647 62.388478,1.5332647 H 61.183566 V 5.1683729 H 62.388478 Q 62.7581,5.1683729 63.063694,5.0461355 63.369288,4.9238981 63.587569,4.6910649 63.80585,4.4582317 63.925177,4.1206236 64.044504,3.7830154 64.044504,3.3493636 Z"
       id="path28" /><path
       d="M 67.855033,1.2917002 V 1.5390855 H 65.686774 V 3.2038429 H 67.491231 V 3.4454073 H 65.686774 V 5.1625521 H 67.860854 L 67.855033,5.4099374 H 65.387001 V 1.2917002 Z"
       id="path30" /><path
       d="M 69.899733,1.2917002 H 70.147118 Q 70.23152,1.2917002 70.254803,1.3702815 L 71.293822,4.755094 Q 71.325836,4.8715106 71.35203,5.0199418 71.366582,4.9471814 71.381134,4.8802419 71.395686,4.8133023 71.416059,4.755094 L 72.580225,1.3702815 Q 72.591867,1.3382669 72.620971,1.3149836 72.650075,1.2917002 72.690821,1.2917002 H 72.772312 Q 72.813058,1.2917002 72.839252,1.3149836 72.865446,1.3353565 72.879998,1.3702815 L 74.044164,4.755094 Q 74.064537,4.8133023 74.079089,4.8773314 74.096551,4.9413606 74.111103,5.014121 74.125655,4.944271 74.137297,4.8802419 74.151849,4.8133023 74.166401,4.755094 L 75.205419,1.3702815 Q 75.21415,1.3382669 75.243255,1.3149836 75.275269,1.2917002 75.316015,1.2917002 H 75.543027 L 74.247893,5.4099374 H 73.980135 L 72.763581,1.8359478 Q 72.740298,1.7660979 72.722835,1.6875167 72.705373,1.7660979 72.682089,1.8359478 L 71.462626,5.4099374 H 71.197778 Z"
       id="path32" /><path
       d="M 78.838413,1.2917002 V 1.5390855 H 76.670153 V 3.2038429 H 78.474611 V 3.4454073 H 76.670153 V 5.1625521 H 78.844233 L 78.838413,5.4099374 H 76.370381 V 1.2917002 Z"
       id="path34" /><path
       d="M 79.825837,5.4099374 V 1.2917002 H 81.010375 Q 81.362536,1.2917002 81.621563,1.3615502 81.880589,1.4314002 82.049394,1.5681897 82.218198,1.7020688 82.299689,1.8970666 82.381181,2.0920644 82.381181,2.3394496 82.381181,2.5024329 82.322973,2.6537744 82.267675,2.805116 82.159989,2.9331743 82.052304,3.0612325 81.895142,3.1572762 81.74089,3.2504095 81.542981,3.2998866 82.029021,3.3726469 82.288048,3.625853 82.549985,3.8761487 82.549985,4.2836068 82.549985,4.5455441 82.456852,4.755094 82.363718,4.9646439 82.186183,5.1101646 82.008648,5.2556854 81.749621,5.3342666 81.490594,5.4099374 81.161717,5.4099374 Z M 80.125609,3.4366761 V 5.1712834 H 81.158807 Q 81.700144,5.1712834 81.976633,4.9384502 82.256033,4.7027066 82.256033,4.277786 82.256033,4.0827882 82.180362,3.9285362 82.107602,3.7713738 81.967902,3.6636884 81.828202,3.5530927 81.624473,3.4948844 81.420744,3.4366761 81.161717,3.4366761 Z M 80.125609,3.2183949 H 81.016196 Q 81.301417,3.2183949 81.502236,3.1456346 81.705965,3.0728742 81.834023,2.9535472 81.964992,2.8342202 82.02611,2.6828786 82.087229,2.531537 82.087229,2.3714642 82.087229,1.9552749 81.822381,1.7428146 81.560444,1.5274439 81.010375,1.5274439 H 80.125609 Z"
       id="path36" /><path
       d="M 32.949088,10.712713 Q 32.978192,10.712713 32.998565,10.733086 L 33.114982,10.858234 Q 32.986924,10.995023 32.835582,11.105619 32.687151,11.213304 32.506705,11.291886 32.32917,11.367556 32.113799,11.408302 31.901339,11.451958 31.645222,11.451958 31.217391,11.451958 30.85941,11.303527 30.50434,11.152186 30.248223,10.878607 29.992107,10.602117 29.849496,10.212122 29.709797,9.822126 29.709797,9.3448179 29.709797,8.8762411 29.855317,8.4891559 30.000838,8.1020707 30.262775,7.8255813 30.524713,7.5461815 30.891425,7.3948399 31.258137,7.2405879 31.70052,7.2405879 32.12253,7.2405879 32.448497,7.3715566 32.774463,7.5025253 33.042222,7.7411793 L 32.951999,7.872148 Q 32.928715,7.9070729 32.879238,7.9070729 32.844313,7.9070729 32.765732,7.8430438 32.687151,7.7790147 32.547451,7.7033439 32.407751,7.6247627 32.198201,7.5607336 31.991562,7.4967044 31.70052,7.4967044 31.327987,7.4967044 31.016573,7.6247627 30.708069,7.752821 30.483967,7.991475 30.262775,8.230129 30.137627,8.573558 30.01248,8.9169869 30.01248,9.3448179 30.01248,9.7813802 30.137627,10.124809 30.265686,10.468238 30.486877,10.706892 30.708069,10.942636 31.007842,11.070694 31.310525,11.195842 31.659775,11.195842 31.880966,11.195842 32.052681,11.166738 32.227305,11.137634 32.372826,11.079425 32.518347,11.021217 32.643495,10.936815 32.768643,10.852413 32.89088,10.738907 32.905432,10.727265 32.919984,10.721444 32.934536,10.712713 32.949088,10.712713 Z"
       id="path38" /><path
       d="M 37.58327,9.3448179 Q 37.58327,9.822126 37.440659,10.212122 37.298049,10.599207 37.039022,10.875696 36.779995,11.149275 36.416193,11.300617 36.055302,11.449048 35.618739,11.449048 35.182177,11.449048 34.821286,11.300617 34.460394,11.149275 34.201367,10.875696 33.94234,10.599207 33.79973,10.212122 33.65712,9.822126 33.65712,9.3448179 33.65712,8.8704203 33.79973,8.4833351 33.94234,8.0933395 34.201367,7.8197605 34.460394,7.5432711 34.821286,7.3919295 35.182177,7.2405879 35.618739,7.2405879 36.055302,7.2405879 36.416193,7.3919295 36.779995,7.5403607 37.039022,7.8168501 37.298049,8.0933395 37.440659,8.4833351 37.58327,8.8704203 37.58327,9.3448179 Z M 37.274766,9.3448179 Q 37.274766,8.9140765 37.155439,8.5706475 37.036112,8.2272186 36.81783,7.9885646 36.599549,7.7499105 36.293956,7.6247627 35.988362,7.4967044 35.618739,7.4967044 35.252027,7.4967044 34.946434,7.6247627 34.64084,7.7499105 34.419649,7.9885646 34.201367,8.2272186 34.07913,8.5706475 33.959803,8.9140765 33.959803,9.3448179 33.959803,9.7784697 34.07913,10.121899 34.201367,10.462417 34.419649,10.701071 34.64084,10.939725 34.946434,11.064873 35.252027,11.190021 35.618739,11.190021 35.988362,11.190021 36.293956,11.064873 36.599549,10.939725 36.81783,10.701071 37.036112,10.462417 37.155439,10.121899 37.274766,9.7784697 37.274766,9.3448179 Z"
       id="path40" /><path
       d="M 38.759871,7.2871546 Q 38.800617,7.2871546 38.82099,7.2987962 38.844273,7.3075275 38.870467,7.3424524 L 41.539317,10.910621 Q 41.530586,10.823309 41.530586,10.741817 V 7.2871546 H 41.789613 V 11.405392 H 41.649913 Q 41.612078,11.405392 41.585884,11.39375 41.562601,11.379198 41.539317,11.347183 L 38.864646,7.7761043 Q 38.873377,7.8634167 38.873377,7.9390875 V 11.405392 H 38.61144 V 7.2871546 H 38.759871 Z"
       id="path42" /><path
       d="M 45.084991,7.7877459 Q 45.058798,7.837223 45.009321,7.837223 44.971485,7.837223 44.910367,7.7848355 44.852158,7.7295376 44.750294,7.6655085 44.648429,7.598569 44.494177,7.5432711 44.342836,7.4879732 44.118734,7.4879732 43.894632,7.4879732 43.722917,7.5520023 43.554113,7.6160314 43.437697,7.7266272 43.32419,7.837223 43.263072,7.9827437 43.204863,8.1282645 43.204863,8.2883373 43.204863,8.4978872 43.292176,8.6346767 43.382399,8.7714662 43.527919,8.8675099 43.67344,8.9635536 43.856796,9.0304931 44.043063,9.0945222 44.238061,9.1585514 44.433058,9.2225805 44.616415,9.3011617 44.802681,9.3768325 44.948202,9.4932491 45.093723,9.6096657 45.181035,9.7813802 45.271258,9.9501842 45.271258,10.20339 45.271258,10.462417 45.181035,10.69234 45.093723,10.919352 44.924919,11.088156 44.756115,11.256961 44.51164,11.355915 44.267165,11.451958 43.95284,11.451958 43.545382,11.451958 43.25143,11.309348 42.957478,11.163827 42.736287,10.913532 L 42.817778,10.785473 Q 42.852703,10.741817 42.89927,10.741817 42.925464,10.741817 42.966209,10.776742 43.006955,10.811667 43.065163,10.864055 43.123372,10.913532 43.204863,10.97465 43.286355,11.032859 43.39404,11.085246 43.501726,11.134723 43.641426,11.169648 43.781126,11.204573 43.958661,11.204573 44.203136,11.204573 44.395223,11.131813 44.58731,11.056142 44.718279,10.928084 44.852158,10.800025 44.922008,10.6254 44.991858,10.447865 44.991858,10.247047 44.991858,10.028765 44.901635,9.8890655 44.814323,9.7464552 44.668802,9.6533219 44.523281,9.5572782 44.337015,9.4932491 44.153659,9.42922 43.958661,9.3681012 43.763663,9.3069825 43.577396,9.2313117 43.39404,9.1556409 43.24852,9.0392244 43.102999,8.9198973 43.012776,8.7452724 42.925464,8.5677371 42.925464,8.3028894 42.925464,8.0962499 43.004045,7.9041625 43.082626,7.7120751 43.233968,7.5665544 43.385309,7.4181232 43.606501,7.3308108 43.830603,7.2405879 44.115823,7.2405879 44.435969,7.2405879 44.689175,7.3424524 44.945292,7.444317 45.154841,7.6538668 Z"
       id="path44" /><path
       d="M 49.937447,9.3448179 Q 49.937447,9.822126 49.794836,10.212122 49.652226,10.599207 49.393199,10.875696 49.134172,11.149275 48.77037,11.300617 48.409479,11.449048 47.972916,11.449048 47.536354,11.449048 47.175463,11.300617 46.814571,11.149275 46.555544,10.875696 46.296517,10.599207 46.153907,10.212122 46.011297,9.822126 46.011297,9.3448179 46.011297,8.8704203 46.153907,8.4833351 46.296517,8.0933395 46.555544,7.8197605 46.814571,7.5432711 47.175463,7.3919295 47.536354,7.2405879 47.972916,7.2405879 48.409479,7.2405879 48.77037,7.3919295 49.134172,7.5403607 49.393199,7.8168501 49.652226,8.0933395 49.794836,8.4833351 49.937447,8.8704203 49.937447,9.3448179 Z M 49.628943,9.3448179 Q 49.628943,8.9140765 49.509616,8.5706475 49.390289,8.2272186 49.172007,7.9885646 48.953726,7.7499105 48.648133,7.6247627 48.342539,7.4967044 47.972916,7.4967044 47.606204,7.4967044 47.300611,7.6247627 46.995017,7.7499105 46.773826,7.9885646 46.555544,8.2272186 46.433307,8.5706475 46.31398,8.9140765 46.31398,9.3448179 46.31398,9.7784697 46.433307,10.121899 46.555544,10.462417 46.773826,10.701071 46.995017,10.939725 47.300611,11.064873 47.606204,11.190021 47.972916,11.190021 48.342539,11.190021 48.648133,11.064873 48.953726,10.939725 49.172007,10.701071 49.390289,10.462417 49.509616,10.121899 49.628943,9.7784697 49.628943,9.3448179 Z"
       id="path46" /><path
       d="M 51.265389,9.5427261 V 11.405392 H 50.965617 V 7.2871546 H 52.019187 Q 52.729328,7.2871546 53.081488,7.563644 53.436559,7.837223 53.436559,8.3698289 53.436559,8.6055725 53.352157,8.8005703 53.270665,8.9955681 53.116413,9.1439993 52.965072,9.28952 52.746791,9.3855637 52.53142,9.478697 52.263662,9.5078012 52.333512,9.5514574 52.388809,9.6242178 L 53.806182,11.405392 H 53.550065 Q 53.500588,11.405392 53.465663,11.39084 53.433648,11.373377 53.404544,11.329721 L 52.083216,9.6591427 Q 52.059933,9.6271282 52.033739,9.6038448 52.010456,9.5805615 51.978441,9.5689199 51.949337,9.5543678 51.905681,9.548547 51.864935,9.5427261 51.803816,9.5427261 Z M 51.265389,9.3215346 H 51.978441 Q 52.25202,9.3215346 52.467391,9.2575055 52.685672,9.1905659 52.834103,9.0683285 52.985445,8.9460911 53.064026,8.7743766 53.142607,8.6026621 53.142607,8.3872914 53.142607,7.9478188 52.854476,7.7353585 52.569255,7.5228982 52.019187,7.5228982 H 51.265389 Z"
       id="path48" /><path
       d="M 57.084111,7.2871546 V 7.5403607 H 55.637634 V 11.405392 H 55.337862 V 7.5403607 H 53.882654 V 7.2871546 Z"
       id="path50" /><path
       d="M 58.15594,11.405392 H 57.856167 V 7.2871546 H 58.15594 Z"
       id="path52" /><path
       d="M 60.959463,11.192931 Q 61.256326,11.192931 61.489159,11.091067 61.724902,10.986292 61.887886,10.802936 62.050869,10.61958 62.135271,10.372194 62.222583,10.121899 62.222583,9.8337676 V 7.2871546 H 62.519446 V 9.8337676 Q 62.519446,10.174286 62.41176,10.471148 62.304075,10.7651 62.100346,10.986292 61.899527,11.204573 61.608486,11.329721 61.320355,11.454869 60.959463,11.454869 60.598572,11.454869 60.30753,11.329721 60.019399,11.204573 59.81567,10.986292 59.614852,10.7651 59.507166,10.471148 59.399481,10.174286 59.399481,9.8337676 V 7.2871546 H 59.699254 V 9.8308572 Q 59.699254,10.118988 59.783656,10.369284 59.870968,10.616669 60.031041,10.800025 60.194024,10.983382 60.426857,11.088156 60.662601,11.192931 60.959463,11.192931 Z"
       id="path54" /><path
       d="M 65.742064,10.206301 Q 65.78572,10.287792 65.817735,10.380926 65.835197,10.337269 65.85557,10.290703 65.875943,10.244136 65.899226,10.20339 L 67.514507,7.3424524 Q 67.53779,7.3046171 67.561073,7.2958858 67.587267,7.2871546 67.628013,7.2871546 H 67.831742 V 11.405392 H 67.572715 V 7.8954313 Q 67.572715,7.8605063 67.572715,7.8197605 67.575625,7.7790147 67.578536,7.7382689 L 65.960345,10.613759 Q 65.919599,10.68943 65.843928,10.68943 H 65.797362 Q 65.721691,10.68943 65.680945,10.613759 L 64.016188,7.732448 Q 64.024919,7.8168501 64.024919,7.8954313 V 11.405392 H 63.762982 V 7.2871546 H 63.969621 Q 64.010367,7.2871546 64.03365,7.2958858 64.056934,7.3046171 64.080217,7.3424524 L 65.742064,10.206301 Z"
       id="path56" /></g><path
     style="fill:none;fill-rule:evenodd;stroke:#002a56;stroke-width:0.264583px;stroke-linecap:butt;stroke-linejoin:miter;stroke-opacity:1"
     d="M 26.500664,0 V 12.699999"
     id="path1011" /></svg>
