<?xml version="1.0" encoding="UTF-8" standalone="no"?>
<!-- Created with Inkscape (http://www.inkscape.org/) -->

<svg
   width="315"
   height="48"
   viewBox="0 0 83.343748 12.7"
   version="1.1"
   id="svg1"
   xml:space="preserve"
   xmlns="http://www.w3.org/2000/svg"
   xmlns:svg="http://www.w3.org/2000/svg"><defs
     id="defs1" /><g
     id="layer1"
     transform="translate(-27.203726,-86.094872)"><path
       id="rect1"
       style="fill:#ffffff;stroke-width:1.02503;stroke-linecap:round"
       d="M 27.203726,86.094872 H 110.54748 V 98.794871 H 27.203726 Z" /><path
       style="opacity:1;fill:none;stroke:#005a9c;stroke-width:2.01789;stroke-linecap:round;stroke-dasharray:none"
       d="M 41.312383,96.944708 41.319283,96.952308 C 41.865226,97.532542 42.695671,97.785919 43.321415,97.785919 44.464746,97.785919 45.355273,96.936102 45.355273,96.936102 M 37.504017,89.091142 C 37.504017,89.091142 38.376536,88.242703 39.504084,88.242703 40.207227,88.242703 40.987522,88.466441 41.520357,89.068723 L 45.116604,93.13399 C 45.621912,93.70516 46.489756,93.968632 47.138746,93.968632 49.109755,93.968632 49.690041,93.20028 49.690041,92.25244 49.690041,91.304603 48.921675,90.536247 47.973829,90.536247 M 41.312381,96.944725 33.906737,89.074584 C 33.562041,88.708254 32.883734,88.242703 31.869422,88.242703 30.358198,88.242703 29.008189,89.461681 29.006422,91.10567 29.005541,91.924921 29.266443,92.532454 29.874528,93.14089 L 33.685308,96.953694 C 34.293393,97.56212 34.915228,97.788072 35.686753,97.785919 36.821472,97.782719 37.203407,97.476864 37.710961,96.952653 M 46.760144,87.606483 C 47.065664,87.29094 47.499782,87.103817 47.973703,87.103817 48.921557,87.103817 49.689934,87.872192 49.689934,88.820029 49.689934,89.766857 48.92051,90.536247 47.973703,90.536247"
       id="path2" /></g><g
     aria-label="WORLD WIDE WEBCONSORTIUM"
     id="text349"
     style="font-weight:300;font-size:5.99722px;line-height:100%;font-family:Lato;-inkscape-font-specification:'Lato Light';letter-spacing:0px;word-spacing:0px;fill:#002a56;stroke-width:0.264583px"><path
       d="M 28.961821,1.2283752 H 29.216703 Q 29.303663,1.2283752 29.327652,1.3093377 L 30.398155,4.7967211 Q 30.43114,4.9166655 30.458128,5.0695946 30.473121,4.9946294 30.488114,4.9256613 30.503107,4.8566933 30.524097,4.7967211 L 31.723541,1.3093377 Q 31.735536,1.2763529 31.765522,1.2523641 31.795508,1.2283752 31.837488,1.2283752 H 31.921449 Q 31.96343,1.2283752 31.990417,1.2523641 32.017405,1.2733543 32.032398,1.3093377 L 33.231842,4.7967211 Q 33.252832,4.8566933 33.267825,4.9226627 33.285817,4.9886322 33.30081,5.0635974 33.315803,4.9916308 33.327797,4.9256613 33.342791,4.8566933 33.357784,4.7967211 L 34.428287,1.3093377 Q 34.437283,1.2763529 34.467269,1.2523641 34.500254,1.2283752 34.542235,1.2283752 H 34.776126 L 33.441745,5.4714084 H 33.165873 L 31.912454,1.7891153 Q 31.888465,1.7171486 31.870473,1.6361862 31.852481,1.7171486 31.828492,1.7891153 L 30.572075,5.4714084 H 30.299201 Z"
       id="path14" /><path
       d="M 39.271046,3.3483925 Q 39.271046,3.8401645 39.124114,4.2419783 38.977182,4.6407934 38.710306,4.9256613 38.443429,5.2075307 38.068603,5.3634584 37.696775,5.5163875 37.246984,5.5163875 36.797192,5.5163875 36.425365,5.3634584 36.053537,5.2075307 35.786661,4.9256613 35.519785,4.6407934 35.372853,4.2419783 35.225921,3.8401645 35.225921,3.3483925 35.225921,2.859619 35.372853,2.4608039 35.519785,2.0589902 35.786661,1.7771208 36.053537,1.4922529 36.425365,1.3363252 36.797192,1.1803974 37.246984,1.1803974 37.696775,1.1803974 38.068603,1.3363252 38.443429,1.4892543 38.710306,1.7741222 38.977182,2.0589902 39.124114,2.4608039 39.271046,2.859619 39.271046,3.3483925 Z M 38.953193,3.3483925 Q 38.953193,2.9045982 38.83025,2.5507622 38.707307,2.1969262 38.482411,1.9510402 38.257516,1.7051542 37.942661,1.576214 37.627807,1.4442751 37.246984,1.4442751 36.869159,1.4442751 36.554305,1.576214 36.239451,1.7051542 36.011557,1.9510402 35.786661,2.1969262 35.660719,2.5507622 35.537776,2.9045982 35.537776,3.3483925 35.537776,3.7951854 35.660719,4.1490213 35.786661,4.4998587 36.011557,4.7457447 36.239451,4.9916308 36.554305,5.120571 36.869159,5.2495112 37.246984,5.2495112 37.627807,5.2495112 37.942661,5.120571 38.257516,4.9916308 38.482411,4.7457447 38.707307,4.4998587 38.83025,4.1490213 38.953193,3.7951854 38.953193,3.3483925 Z"
       id="path16" /><path
       d="M 40.55745,3.552298 V 5.4714084 H 40.248593 V 1.2283752 H 41.33409 Q 42.065751,1.2283752 42.428582,1.5132431 42.794413,1.7951125 42.794413,2.3438581 42.794413,2.5867455 42.707453,2.7876524 42.623492,2.9885593 42.464566,3.1414884 42.308638,3.2914189 42.083742,3.390373 41.861845,3.4863285 41.585973,3.5163146 41.65794,3.5612938 41.714913,3.636259 L 43.175236,5.4714084 H 42.911359 Q 42.860382,5.4714084 42.824399,5.4564153 42.791414,5.4384237 42.761428,5.3934445 L 41.400059,3.6722424 Q 41.37607,3.6392576 41.349083,3.6152688 41.325094,3.5912799 41.292109,3.5792854 41.262123,3.5642924 41.217144,3.5582952 41.175163,3.552298 41.112193,3.552298 Z M 40.55745,3.3244036 H 41.292109 Q 41.573979,3.3244036 41.795876,3.2584342 42.020771,3.1894661 42.173701,3.0635245 42.329628,2.9375829 42.410591,2.7606649 42.491553,2.5837469 42.491553,2.3618498 42.491553,1.9090597 42.194691,1.6901611 41.900827,1.4712626 41.33409,1.4712626 H 40.55745 Z"
       id="path18" /><path
       d="M 44.197765,5.2105293 H 46.206833 V 5.4714084 H 43.888908 V 1.2283752 H 44.197765 Z"
       id="path20" /><path
       d="M 50.497848,3.3483925 Q 50.497848,3.8401645 50.350916,4.2329824 50.203984,4.6258003 49.937107,4.9016725 49.670231,5.1775446 49.295405,5.3244765 48.923577,5.4714084 48.473786,5.4714084 H 46.923504 V 1.2283752 H 48.473786 Q 48.923577,1.2283752 49.295405,1.3753071 49.670231,1.522239 49.937107,1.7981111 50.203984,2.0739832 50.350916,2.4668011 50.497848,2.859619 50.497848,3.3483925 Z M 50.179995,3.3483925 Q 50.179995,2.9045982 50.057052,2.5567594 49.934109,2.2089207 49.709213,1.9690319 49.484317,1.7291431 49.169463,1.6032014 48.854609,1.4772598 48.473786,1.4772598 H 47.232361 V 5.2225237 H 48.473786 Q 48.854609,5.2225237 49.169463,5.0965821 49.484317,4.9706405 49.709213,4.7307517 49.934109,4.4908629 50.057052,4.1430241 50.179995,3.7951854 50.179995,3.3483925 Z"
       id="path22" /><path
       d="M 52.488929,1.2283752 H 52.74381 Q 52.83077,1.2283752 52.854759,1.3093377 L 53.925263,4.7967211 Q 53.958247,4.9166655 53.985235,5.0695946 54.000228,4.9946294 54.015221,4.9256613 54.030214,4.8566933 54.051204,4.7967211 L 55.250648,1.3093377 Q 55.262643,1.2763529 55.292629,1.2523641 55.322615,1.2283752 55.364596,1.2283752 H 55.448557 Q 55.490537,1.2283752 55.517525,1.2523641 55.544512,1.2733543 55.559505,1.3093377 L 56.758949,4.7967211 Q 56.779939,4.8566933 56.794933,4.9226627 56.812924,4.9886322 56.827917,5.0635974 56.84291,4.9916308 56.854905,4.9256613 56.869898,4.8566933 56.884891,4.7967211 L 57.955395,1.3093377 Q 57.96439,1.2763529 57.994377,1.2523641 58.027361,1.2283752 58.069342,1.2283752 H 58.303233 L 56.968852,5.4714084 H 56.69298 L 55.439561,1.7891153 Q 55.415572,1.7171486 55.39758,1.6361862 55.379589,1.7171486 55.3556,1.7891153 L 54.099182,5.4714084 H 53.826309 Z"
       id="path24" /><path
       d="M 59.382735,5.4714084 H 59.073878 V 1.2283752 H 59.382735 Z"
       id="path26" /><path
       d="M 64.210496,3.3483925 Q 64.210496,3.8401645 64.063564,4.2329824 63.916632,4.6258003 63.649756,4.9016725 63.38288,5.1775446 63.008053,5.3244765 62.636226,5.4714084 62.186434,5.4714084 H 60.636153 V 1.2283752 H 62.186434 Q 62.636226,1.2283752 63.008053,1.3753071 63.38288,1.522239 63.649756,1.7981111 63.916632,2.0739832 64.063564,2.4668011 64.210496,2.859619 64.210496,3.3483925 Z M 63.892643,3.3483925 Q 63.892643,2.9045982 63.7697,2.5567594 63.646757,2.2089207 63.421861,1.9690319 63.196966,1.7291431 62.882112,1.6032014 62.567258,1.4772598 62.186434,1.4772598 H 60.94501 V 5.2225237 H 62.186434 Q 62.567258,5.2225237 62.882112,5.0965821 63.196966,4.9706405 63.421861,4.7307517 63.646757,4.4908629 63.7697,4.1430241 63.892643,3.7951854 63.892643,3.3483925 Z"
       id="path28" /><path
       d="M 67.736862,1.2283752 V 1.483257 H 65.502898 V 3.198462 H 67.362036 V 3.4473466 H 65.502898 V 5.2165265 H 67.742859 L 67.736862,5.4714084 H 65.194041 V 1.2283752 Z"
       id="path30" /><path
       d="M 69.679965,1.2283752 H 69.934847 Q 70.021806,1.2283752 70.045795,1.3093377 L 71.116299,4.7967211 Q 71.149284,4.9166655 71.176271,5.0695946 71.191264,4.9946294 71.206257,4.9256613 71.22125,4.8566933 71.242241,4.7967211 L 72.441685,1.3093377 Q 72.453679,1.2763529 72.483665,1.2523641 72.513651,1.2283752 72.555632,1.2283752 H 72.639593 Q 72.681573,1.2283752 72.708561,1.2523641 72.735548,1.2733543 72.750541,1.3093377 L 73.949985,4.7967211 Q 73.970976,4.8566933 73.985969,4.9226627 74.00396,4.9886322 74.018953,5.0635974 74.033946,4.9916308 74.045941,4.9256613 74.060934,4.8566933 74.075927,4.7967211 L 75.146431,1.3093377 Q 75.155427,1.2763529 75.185413,1.2523641 75.218397,1.2283752 75.260378,1.2283752 H 75.49427 L 74.159888,5.4714084 H 73.884016 L 72.630597,1.7891153 Q 72.606608,1.7171486 72.588616,1.6361862 72.570625,1.7171486 72.546636,1.7891153 L 71.290218,5.4714084 H 71.017345 Z"
       id="path32" /><path
       d="M 78.807735,1.2283752 V 1.483257 H 76.573771 V 3.198462 H 78.432909 V 3.4473466 H 76.573771 V 5.2165265 H 78.813733 L 78.807735,5.4714084 H 76.264914 V 1.2283752 Z"
       id="path34" /><path
       d="M 79.7433,5.4714084 V 1.2283752 H 80.963734 Q 81.326566,1.2283752 81.593442,1.3003418 81.860319,1.3723085 82.034238,1.5132431 82.208157,1.6511792 82.292119,1.8520861 82.37608,2.0529929 82.37608,2.3078748 82.37608,2.475797 82.316107,2.6317247 82.259134,2.7876524 82.148185,2.9195912 82.037237,3.0515301 81.875312,3.1504842 81.716385,3.2464397 81.51248,3.2974161 82.013248,3.3723814 82.280124,3.6332604 82.549999,3.8911409 82.549999,4.3109463 82.549999,4.5808212 82.454043,4.7967211 82.358088,5.012621 82.175173,5.1625515 81.992258,5.312482 81.725381,5.3934445 81.458505,5.4714084 81.119662,5.4714084 Z M 80.052157,3.4383508 V 5.2255223 H 81.116663 Q 81.674405,5.2255223 81.959273,4.9856335 82.247139,4.7427461 82.247139,4.3049491 82.247139,4.1040422 82.169175,3.9451159 82.09421,3.7831909 81.950277,3.6722424 81.806344,3.5582952 81.596441,3.498323 81.386538,3.4383508 81.119662,3.4383508 Z M 80.052157,3.213455 H 80.969731 Q 81.263595,3.213455 81.470499,3.1384898 81.680402,3.0635245 81.812341,2.9405815 81.947278,2.8176385 82.010249,2.6617108 82.07322,2.5057831 82.07322,2.3408595 82.07322,1.9120583 81.800346,1.6931597 81.530472,1.4712626 80.963734,1.4712626 H 80.052157 Z"
       id="path36" /><path
       d="M 32.509177,10.754959 Q 32.539163,10.754959 32.560153,10.775949 L 32.680098,10.904889 Q 32.548159,11.045824 32.392231,11.159771 32.239302,11.27072 32.053388,11.351682 31.870473,11.429646 31.648576,11.471627 31.429677,11.516606 31.1658,11.516606 30.725004,11.516606 30.356175,11.363677 29.990345,11.207749 29.726467,10.92588 29.462589,10.641012 29.315657,10.239198 29.171724,9.8373841 29.171724,9.345612 29.171724,8.8628358 29.321654,8.4640207 29.471585,8.0652056 29.74146,7.7803376 30.011335,7.492471 30.38916,7.3365433 30.766985,7.177617 31.222773,7.177617 31.657572,7.177617 31.993416,7.3125544 32.32926,7.4474919 32.605132,7.6933779 L 32.512176,7.8283154 Q 32.488187,7.8642987 32.43721,7.8642987 32.401227,7.8642987 32.320265,7.7983293 32.239302,7.7323598 32.095369,7.654396 31.951435,7.5734335 31.735536,7.5074641 31.522634,7.4414947 31.222773,7.4414947 30.838951,7.4414947 30.5181,7.5734335 30.200247,7.7053724 29.969354,7.9512584 29.74146,8.1971444 29.61252,8.5509804 29.483579,8.9048164 29.483579,9.345612 29.483579,9.7954035 29.61252,10.14924 29.744458,10.503076 29.972353,10.748962 30.200247,10.991849 30.509104,11.123788 30.820959,11.252728 31.180793,11.252728 31.408687,11.252728 31.585605,11.222742 31.765522,11.192756 31.915452,11.132784 32.065383,11.072811 32.194323,10.985852 32.323263,10.898892 32.449205,10.781946 32.464198,10.769952 32.479191,10.763955 32.494184,10.754959 32.509177,10.754959 Z"
       id="path38" /><path
       d="M 37.202009,9.345612 Q 37.202009,9.8373841 37.055077,10.239198 36.908145,10.638013 36.641269,10.922881 36.374392,11.20475 35.999566,11.360678 35.627739,11.513607 35.177947,11.513607 34.728156,11.513607 34.356328,11.360678 33.9845,11.20475 33.717624,10.922881 33.450748,10.638013 33.303816,10.239198 33.156884,9.8373841 33.156884,9.345612 33.156884,8.8568386 33.303816,8.4580235 33.450748,8.0562097 33.717624,7.7743404 33.9845,7.4894724 34.356328,7.3335447 34.728156,7.177617 35.177947,7.177617 35.627739,7.177617 35.999566,7.3335447 36.374392,7.4864738 36.641269,7.7713418 36.908145,8.0562097 37.055077,8.4580235 37.202009,8.8568386 37.202009,9.345612 Z M 36.884156,9.345612 Q 36.884156,8.9018178 36.761213,8.5479818 36.63827,8.1941458 36.413374,7.9482598 36.188479,7.7023737 35.873625,7.5734335 35.55877,7.4414947 35.177947,7.4414947 34.800122,7.4414947 34.485268,7.5734335 34.170414,7.7023737 33.94252,7.9482598 33.717624,8.1941458 33.591682,8.5479818 33.468739,8.9018178 33.468739,9.345612 33.468739,9.7924049 33.591682,10.146241 33.717624,10.497078 33.94252,10.742964 34.170414,10.98885 34.485268,11.117791 34.800122,11.246731 35.177947,11.246731 35.55877,11.246731 35.873625,11.117791 36.188479,10.98885 36.413374,10.742964 36.63827,10.497078 36.761213,10.146241 36.884156,9.7924049 36.884156,9.345612 Z"
       id="path40" /><path
       d="M 38.332486,7.2255948 Q 38.374466,7.2255948 38.395456,7.2375892 38.419445,7.246585 38.446433,7.2825683 L 41.196158,10.958864 Q 41.187162,10.868906 41.187162,10.784945 V 7.2255948 H 41.454039 V 11.468628 H 41.310105 Q 41.271123,11.468628 41.244136,11.456633 41.220147,11.44164 41.196158,11.408656 L 38.440435,7.7293612 Q 38.449431,7.8193195 38.449431,7.8972834 V 11.468628 H 38.179556 V 7.2255948 H 38.332486 Z"
       id="path42" /><path
       d="M 44.767497,7.7413557 Q 44.74051,7.792332 44.689534,7.792332 44.650552,7.792332 44.587581,7.7383571 44.527609,7.6813835 44.422657,7.6154141 44.317706,7.546446 44.15878,7.4894724 44.002852,7.4324988 43.771959,7.4324988 43.541066,7.4324988 43.364148,7.4984683 43.190229,7.5644377 43.070284,7.6783849 42.953338,7.792332 42.890368,7.9422625 42.830395,8.092193 42.830395,8.2571166 42.830395,8.4730165 42.920354,8.6139512 43.013311,8.7548859 43.163241,8.85384 43.313172,8.9527941 43.502084,9.0217622 43.693995,9.0877316 43.894902,9.153701 44.095809,9.2196704 44.284721,9.3006329 44.476632,9.3785967 44.626563,9.4985411 44.776493,9.6184855 44.866452,9.7954035 44.959408,9.9693229 44.959408,10.230202 44.959408,10.497078 44.866452,10.733968 44.776493,10.96786 44.602574,11.141779 44.428654,11.315699 44.176771,11.417652 43.924888,11.516606 43.601038,11.516606 43.181233,11.516606 42.878373,11.369674 42.575513,11.219743 42.347619,10.961863 L 42.43158,10.829924 Q 42.467564,10.784945 42.515541,10.784945 42.542529,10.784945 42.584509,10.820928 42.62649,10.856911 42.686462,10.910886 42.746434,10.961863 42.830395,11.024834 42.914356,11.084806 43.025305,11.138781 43.136254,11.189757 43.280187,11.225741 43.42412,11.261724 43.607035,11.261724 43.858919,11.261724 44.056827,11.186759 44.254735,11.108795 44.389673,10.976856 44.527609,10.844917 44.599575,10.665 44.671542,10.482085 44.671542,10.275181 44.671542,10.050285 44.578585,9.9063521 44.488627,9.7594202 44.338696,9.6634647 44.188766,9.5645106 43.996855,9.4985411 43.807942,9.4325717 43.607035,9.3696009 43.406128,9.3066301 43.214217,9.2286662 43.025305,9.1507024 42.875374,9.030758 42.725444,8.907815 42.632487,8.7278984 42.542529,8.5449832 42.542529,8.2721096 42.542529,8.0592083 42.623491,7.8613001 42.704454,7.6633918 42.860381,7.5134613 43.016309,7.3605322 43.244204,7.2705739 43.475096,7.177617 43.76896,7.177617 44.098807,7.177617 44.359686,7.2825683 44.623564,7.3875197 44.839464,7.6034196 Z"
       id="path44" /><path
       d="M 49.685217,9.345612 Q 49.685217,9.8373841 49.538286,10.239198 49.391354,10.638013 49.124477,10.922881 48.857601,11.20475 48.482775,11.360678 48.110947,11.513607 47.661156,11.513607 47.211364,11.513607 46.839537,11.360678 46.467709,11.20475 46.200833,10.922881 45.933956,10.638013 45.787024,10.239198 45.640093,9.8373841 45.640093,9.345612 45.640093,8.8568386 45.787024,8.4580235 45.933956,8.0562097 46.200833,7.7743404 46.467709,7.4894724 46.839537,7.3335447 47.211364,7.177617 47.661156,7.177617 48.110947,7.177617 48.482775,7.3335447 48.857601,7.4864738 49.124477,7.7713418 49.391354,8.0562097 49.538286,8.4580235 49.685217,8.8568386 49.685217,9.345612 Z M 49.367365,9.345612 Q 49.367365,8.9018178 49.244422,8.5479818 49.121479,8.1941458 48.896583,7.9482598 48.671687,7.7023737 48.356833,7.5734335 48.041979,7.4414947 47.661156,7.4414947 47.283331,7.4414947 46.968477,7.5734335 46.653623,7.7023737 46.425728,7.9482598 46.200833,8.1941458 46.074891,8.5479818 45.951948,8.9018178 45.951948,9.345612 45.951948,9.7924049 46.074891,10.146241 46.200833,10.497078 46.425728,10.742964 46.653623,10.98885 46.968477,11.117791 47.283331,11.246731 47.661156,11.246731 48.041979,11.246731 48.356833,11.117791 48.671687,10.98885 48.896583,10.742964 49.121479,10.497078 49.244422,10.146241 49.367365,9.7924049 49.367365,9.345612 Z"
       id="path46" /><path
       d="M 50.971621,9.5495175 V 11.468628 H 50.662764 V 7.2255948 H 51.748261 Q 52.479922,7.2255948 52.842754,7.5104627 53.208584,7.792332 53.208584,8.3410777 53.208584,8.5839651 53.121624,8.784872 53.037663,8.9857788 52.878737,9.1387079 52.722809,9.2886384 52.497913,9.3875926 52.276016,9.4835481 52.000144,9.5135342 52.072111,9.5585133 52.129084,9.6334786 L 53.589407,11.468628 H 53.32553 Q 53.274553,11.468628 53.23857,11.453635 53.205585,11.435643 53.175599,11.390664 L 51.81423,9.6694619 Q 51.790241,9.6364772 51.763254,9.6124883 51.739265,9.5884994 51.70628,9.576505 51.676294,9.561512 51.631315,9.5555147 51.589335,9.5495175 51.526364,9.5495175 Z M 50.971621,9.3216232 H 51.70628 Q 51.98815,9.3216232 52.210047,9.2556537 52.434943,9.1866857 52.587872,9.0607441 52.743799,8.9348025 52.824762,8.7578845 52.905724,8.5809665 52.905724,8.3590693 52.905724,7.9062792 52.608862,7.6873807 52.314998,7.4684822 51.748261,7.4684822 H 50.971621 Z"
       id="path48" /><path
       d="M 56.884887,7.2255948 V 7.4864738 H 55.394578 V 11.468628 H 55.085721 V 7.4864738 H 53.586416 V 7.2255948 Z"
       id="path50" /><path
       d="M 57.907418,11.468628 H 57.598561 V 7.2255948 H 57.907418 Z"
       id="path52" /><path
       d="M 60.714116,11.249729 Q 61.019974,11.249729 61.259863,11.144778 61.50275,11.036828 61.670672,10.847916 61.838595,10.659003 61.925554,10.404121 62.015513,10.146241 62.015513,9.8493785 V 7.2255948 H 62.321371 V 9.8493785 Q 62.321371,10.200216 62.210422,10.506074 62.099474,10.808934 61.889571,11.036828 61.682667,11.261724 61.382806,11.390664 61.085943,11.519604 60.714116,11.519604 60.342288,11.519604 60.042427,11.390664 59.745565,11.261724 59.535662,11.036828 59.328758,10.808934 59.217809,10.506074 59.106861,10.200216 59.106861,9.8493785 V 7.2255948 H 59.415718 V 9.8463799 Q 59.415718,10.143242 59.502677,10.401123 59.592636,10.656005 59.757559,10.844917 59.925481,11.033829 60.16537,11.141779 60.408258,11.249729 60.714116,11.249729 Z"
       id="path54" /><path
       d="M 65.559866,10.233201 Q 65.604846,10.317162 65.63783,10.413117 65.655822,10.368138 65.676812,10.32016 65.697802,10.272183 65.721791,10.230202 L 67.38602,7.2825683 Q 67.410009,7.2435864 67.433998,7.2345906 67.460985,7.2255948 67.502966,7.2255948 H 67.712868 V 11.468628 H 67.445992 V 7.8523042 Q 67.445992,7.8163209 67.445992,7.7743404 67.448991,7.7323598 67.451989,7.6903793 L 65.784762,10.653006 Q 65.742782,10.73097 65.664818,10.73097 H 65.61684 Q 65.538876,10.73097 65.496896,10.653006 L 63.781691,7.6843821 Q 63.790686,7.7713418 63.790686,7.8523042 V 11.468628 H 63.520812 V 7.2255948 H 63.733713 Q 63.775693,7.2255948 63.799682,7.2345906 63.823671,7.2435864 63.84766,7.2825683 L 65.559866,10.233201 Z"
       id="path56" /></g><path
     style="fill:none;fill-rule:evenodd;stroke:#002a56;stroke-width:0.264583px;stroke-linecap:butt;stroke-linejoin:miter;stroke-opacity:1"
     d="M 26.228541,0 V 12.699999"
     id="path1011" /></svg>
