<?xml version="1.0" encoding="UTF-8" standalone="no"?>
<!-- Created with Inkscape (http://www.inkscape.org/) -->

<svg
   width="72"
   height="48"
   viewBox="0 0 72 48.000002"
   version="1.1"
   id="svg1"
   xml:space="preserve"
   xmlns="http://www.w3.org/2000/svg"
   xmlns:svg="http://www.w3.org/2000/svg"><defs
     id="defs1" /><g
     id="layer1"
     transform="translate(-61.401722,-80.80912)"><path
       style="opacity:1;fill:none;stroke:#005a9c;stroke-width:6.15603;stroke-linecap:round;stroke-dasharray:none"
       d="m 103.39381,118.53696 0.0212,0.0231 c 1.66551,1.77012 4.19896,2.54312 6.10794,2.54312 3.488,0 6.20476,-2.59257 6.20476,-2.59257 M 91.775528,94.577805 c 0,0 2.66182,-2.588356 6.101661,-2.588356 2.145091,0 4.525551,0.682562 6.151091,2.519961 l 10.97118,12.40201 c 1.54156,1.74249 4.18911,2.5463 6.169,2.5463 6.01302,0 7.78332,-2.34406 7.78332,-5.23566 0,-2.89159 -2.34408,-5.235629 -5.23571,-5.235629 M 103.39381,118.53696 80.801197,94.527292 c -1.051581,-1.117579 -3.120899,-2.537843 -6.215296,-2.537843 -4.610324,0 -8.728847,3.718764 -8.734234,8.734141 -0.0031,2.4993 0.793261,4.35272 2.64835,6.20889 l 11.625669,11.63183 c 1.85509,1.85615 3.752148,2.54547 6.105858,2.53888 3.461725,-0.01 4.626898,-0.94282 6.175317,-2.54206 M 120.01346,90.048514 c 0.93205,-0.962636 2.25643,-1.533498 3.70222,-1.533498 2.89166,0 5.23577,2.344104 5.23577,5.235695 0,2.888521 -2.3473,5.23572 -5.23577,5.23572"
       id="path2" /></g></svg>
