<?xml version="1.0" encoding="UTF-8" standalone="no"?>
<!-- Created with Inkscape (http://www.inkscape.org/) -->

<svg
   version="1.1"
   id="svg2"
   width="800"
   height="216"
   viewBox="0 0 799.99996 216"
   xmlns="http://www.w3.org/2000/svg"
   xmlns:svg="http://www.w3.org/2000/svg">
  <defs
     id="defs6" />
  <path
     d="M 32.136547,215.67688 0,107.8395 32.136547,0.00212184 H 767.8616 L 799.99815,107.8395 767.8616,215.67688 Z"
     style="fill:#005a9c;fill-opacity:1;fill-rule:nonzero;stroke:none;stroke-width:1.00783"
     id="background" />
  <g
     id="g43820"
     transform="matrix(0.7558695,0,0,0.7558695,-15.524117,-2.538341e-7)"
     style="fill:#ffffff">
    <g
       id="symbol"
       style="fill:#ffffff"
       transform="matrix(0.82834293,0,0,0.82834293,85.96985,58.708334)">
      <path
         d="M 306.80028,149.60422 C 300.22197,144.38258 290.6177,145.49296 285.39591,152.07127 278.92828,160.22569 273.05382,165.13398 266.35696,167.9908 254.00626,173.24642 243.53716,171.02521 233.41584,160.99735 223.49778,151.17261 213.83431,140.46657 204.45883,130.09064 199.87279,125.01306 195.2786,119.92703 190.62476,114.90019 182.67345,106.31328 174.68001,97.76005 166.69458,89.19836 L 165.99073,88.44376 C 148.6218,69.85421 130.66786,50.62862 113.34968,31.3183 99.61724,16.00055 78.39966,8.41364 57.98727,11.48232 37.12548,14.60189 20.25655,27.95303 10.48285,49.06883 1.06523,69.40481 4.25246,92.51274 18.79009,109.37306 44.36492,139.03378 65.93873,163.55713 91.20792,186.62292 101.54141,196.049 114.04493,201.06723 127.36179,201.13503 135.99989,201.17761 149.02017,200.20284 162.3035,191.25955 168.11876,187.34354 173.53536,183.3167 175.9174,177.17103 178.34187,170.88144 176.07838,163.65075 170.39902,159.57332 164.88895,155.60612 157.65827,155.88565 152.40265,160.25136 151.74123,160.8021 151.02061,161.43815 150.23263,162.12494 141.97613,169.35563 131.70184,178.35782 110.75548,163.31974 91.56416,149.53641 76.70442,131.47223 59.48772,110.55154 53.87602,103.73584 48.06936,96.68319 41.86434,89.47773 35.23528,81.78948 33.80265,71.21044 38.12593,61.86032 41.89832,53.72266 49.17975,43.60119 62.50551,41.60936 72.60117,40.09171 83.91789,44.12656 90.6741,51.65443 108.1365,71.13418 126.22605,90.51215 143.72212,109.23745 151.91942,118.01116 160.11627,126.79302 168.27114,135.60071 172.84041,140.53437 177.35004,145.52679 181.92747,150.59606 191.54034,161.23474 201.47502,172.22921 211.9695,182.63036 230.91528,201.40626 254.46385,206.16188 278.30946,196.01518 289.76179,191.12395 299.60345,183.1811 309.26691,170.99999 314.47995,164.43058 313.37817,154.83447 306.8003,149.60422 Z"
         id="path6636"
         style="fill:#ffffff" />
      <path
         d="M 330.6361,64.98331 C 340.48621,60.31241 348.23425,51.52179 348.97164,40.85788 350.84508,22.34474 335.60359,4.62804 313.18216,1.88977 299.41589,0.14378 286.64116,4.22122 277.58808,11.72326 272.74789,15.74965 271.44226,23.20096 275.63824,28.45658 280.22413,33.92407 285.51372,34.88163 294.16888,30.1266 297.27124,28.3634 301.93369,26.89679 307.06216,27.25257 316.73423,27.9226 319.50603,36.63666 319.23482,40.59525 319.19224,41.18026 319.25188,54.67517 305.62953,53.73437 L 300.49246,53.37858 C 294.77067,52.98837 289.04859,58.33746 288.625,64.45747 288.16699,70.96813 292.93122,76.65579 298.85627,77.07137 L 305.17153,77.50356 C 322.54951,78.70741 320.73527,93.45691 320.37088,95.81373 320.03186,102.59516 309.14733,114.09808 289.73538,101.01816 283.14876,96.58494 236.17,37.57744 236.17,37.57744 213.90999,8.79861 176.0861,3.72935 146.23903,25.53194 142.95863,27.93074 140.79677,31.4656 140.16962,35.49244 139.55078,39.51023 140.52555,43.53692 142.92465,46.81732 145.32345,50.09772 148.85846,52.25958 152.87654,52.88673 156.9197,53.51418 160.92933,52.5308 164.21003,50.1317 184.57138,35.25505 202.72027,44.12148 212.05318,56.19281 212.05318,56.19281 262.49083,121.06616 275.47728,127.94077 283.90336,132.3998 292.70244,134.97665 301.64528,135.59564 329.09355,137.4943 345.80966,122.3715 350.31973,101.65422 353.27773,88.0743 344.49586,71.10374 330.63612,64.98329 Z"
         id="path6638"
         style="fill:#ffffff" />
    </g>
    <path
       style="fill:#ffffff;fill-rule:evenodd;stroke:#ffffff;stroke-width:3.66;stroke-linecap:butt;stroke-linejoin:miter;stroke-dasharray:none;stroke-opacity:1"
       d="M 413.58283,0.00280748 413.14514,285.33613"
       id="path7425" />
    <g
       aria-label="W3C FOR DEVELOPERS"
       id="text43809"
       style="font-size:106.35px;line-height:90%;font-family:Carlito;-inkscape-font-specification:'Carlito, Normal';letter-spacing:1px;word-spacing:0px;display:inline;stroke-width:1.10782px">
      <path
         d="M 450.09855,60.720768 H 458.04364 Q 459.238,60.720768 460.06886,61.343913 460.95165,61.915129 461.21129,62.901774 L 474.45311,110.00111 Q 475.18011,112.49369 475.80326,115.81713 476.11483,114.20734 476.47833,112.75334 476.84183,111.2474 477.25726,109.94919 L 492.47237,62.953703 Q 492.73202,62.070915 493.61481,61.395841 494.49759,60.720768 495.69195,60.720768 H 498.44418 Q 499.69047,60.720768 500.4694,61.343913 501.30026,61.915129 501.61183,62.901774 L 516.82694,110.00111 Q 517.24237,111.2474 517.60587,112.70141 517.96937,114.10348 518.28094,115.66134 518.59252,114.10348 518.90409,112.64948 519.21566,111.19547 519.57916,110.00111 L 532.76905,62.953703 Q 533.0287,62.070915 533.91149,61.395841 534.8462,60.720768 536.04056,60.720768 H 543.46637 L 522.74681,128.95509 H 514.17858 L 497.7691,77.234098 Q 497.50946,76.507096 497.24982,75.676237 497.0421,74.793449 496.78246,73.806803 496.57474,74.793449 496.3151,75.676237 496.10738,76.507096 495.84774,77.234098 L 479.33441,128.95509 H 470.8181 Z"
         id="path14" />
      <path
         d="M 550.02274,128.95509 Z M 573.90995,59.941838 Q 578.22003,59.941838 581.80311,61.188127 585.38619,62.434416 587.98263,64.719279 590.57907,67.004142 591.98114,70.223722 593.43514,73.443302 593.43514,77.389884 593.43514,80.661393 592.60429,83.2059 591.82535,85.750407 590.31942,87.671769 588.81349,89.593131 586.68441,90.943278 584.55534,92.241495 581.90697,93.072355 588.39806,94.837931 591.66957,98.992228 594.94108,103.0946 594.94108,109.32604 594.94108,114.05155 593.1755,117.84235 591.40993,121.58122 588.34613,124.22958 585.33427,126.87794 581.28383,128.28002 577.23339,129.6821 572.66366,129.6821 567.36693,129.6821 563.62807,128.38388 559.8892,127.03373 557.24083,124.64501 554.59247,122.25629 552.87882,119.03671 551.16517,115.81713 550.02274,111.97441 L 553.76161,110.36462 Q 555.26754,109.74147 556.61769,110.00111 558.01976,110.26076 558.64291,111.55898 559.26605,112.90912 560.14884,114.77856 561.08356,116.59606 562.64142,118.30971 564.19928,119.97143 566.588,121.16579 568.97672,122.30822 572.5598,122.30822 575.9871,122.30822 578.53161,121.16579 581.07611,119.97143 582.78976,118.15392 584.50341,116.33642 585.33427,114.05155 586.21705,111.76669 586.21705,109.58568 586.21705,106.88539 585.54198,104.60053 584.86691,102.26374 582.99747,100.65395 581.12804,98.992228 577.8046,98.057511 574.53309,97.122794 569.34022,97.122794 V 90.83942 Q 573.59838,90.787491 576.55831,89.904703 579.51825,88.969987 581.38768,87.412125 583.25712,85.854264 584.08798,83.673258 584.91884,81.492252 584.91884,78.895817 584.91884,75.987809 584.03605,73.858732 583.20519,71.677726 581.64733,70.223722 580.1414,68.769718 578.01232,68.094645 575.93517,67.367643 573.44259,67.367643 570.95001,67.367643 568.87286,68.146574 566.84765,68.873576 565.23786,70.223722 563.62807,71.52194 562.48563,73.391373 561.39513,75.208878 560.82391,77.389884 560.40849,79.15546 559.36991,79.726676 558.38327,80.245963 556.56576,79.98632 L 551.99603,79.259318 Q 552.67111,74.533805 554.54054,70.950724 556.40997,67.315714 559.26605,64.875065 562.17406,62.434416 565.861,61.188127 569.59987,59.941838 573.90995,59.941838 Z"
         id="path16" />
      <path
         d="M 649.53151,114.72663 Q 650.25851,114.72663 650.88165,115.34977 L 654.62052,119.40021 Q 650.93358,124.28151 645.53299,126.9818 640.13241,129.6821 632.60275,129.6821 625.95587,129.6821 620.55529,127.13759 615.20663,124.59308 611.3639,120.02336 607.57311,115.4017 605.49596,109.01447 603.47074,102.57531 603.47074,94.837931 603.47074,87.100553 605.65175,80.713322 607.83275,74.274162 611.77933,69.652506 615.72592,65.030851 621.23036,62.486344 626.7348,59.941838 633.38168,59.941838 639.97662,59.941838 644.96178,62.278629 649.99886,64.615421 653.73773,68.613932 L 650.62201,72.975944 Q 650.31044,73.443302 649.84308,73.754874 649.37572,74.066447 648.64872,74.066447 647.76593,74.066447 646.67543,73.13173 645.63685,72.197013 643.9232,71.10651 642.20956,69.964079 639.66505,69.029362 637.12054,68.094645 633.32975,68.094645 628.86388,68.094645 625.12501,69.91215 621.43807,71.729655 618.73778,75.208878 616.08942,78.636173 614.58348,83.621329 613.12948,88.554557 613.12948,94.837931 613.12948,101.17323 614.68734,106.15839 616.2452,111.14355 618.9455,114.57084 621.64579,117.99814 625.2808,119.81564 628.96774,121.63315 633.17396,121.63315 635.7704,121.63315 637.79562,121.26964 639.87277,120.90614 641.58641,120.17914 643.35199,119.40021 644.85792,118.25778 646.41578,117.06342 647.92172,115.45363 648.75257,114.72663 649.53151,114.72663 Z"
         id="path18" />
      <path
         d="M 728.54178,60.720768 V 68.406217 H 699.40978 V 92.03378 H 724.17977 V 99.71923 H 699.40978 V 128.95509 H 689.90682 V 60.720768 Z"
         id="path20" />
      <path
         d="M 798.34733,94.837931 Q 798.34733,102.52338 796.06247,108.91061 793.82953,115.29784 789.67524,119.9195 785.57287,124.54115 779.75685,127.13759 773.99277,129.6821 766.93046,129.6821 759.92009,129.6821 754.10407,127.13759 748.28806,124.54115 744.13376,119.9195 739.97946,115.29784 737.6946,108.91061 735.40974,102.52338 735.40974,94.837931 735.40974,87.20441 737.6946,80.817179 739.97946,74.378019 744.13376,69.756364 748.28806,65.08278 754.10407,62.538273 759.92009,59.941838 766.93046,59.941838 773.99277,59.941838 779.75685,62.538273 785.57287,65.08278 789.67524,69.756364 793.82953,74.378019 796.06247,80.817179 798.34733,87.20441 798.34733,94.837931 Z M 788.68859,94.837931 Q 788.68859,88.606486 787.13073,83.673258 785.6248,78.688102 782.76872,75.260807 779.96457,71.781583 775.91413,69.964079 771.91562,68.094645 766.93046,68.094645 761.94531,68.094645 757.89487,69.964079 753.89636,71.781583 751.04028,75.260807 748.1842,78.688102 746.62634,83.673258 745.1204,88.606486 745.1204,94.837931 745.1204,101.06938 746.62634,106.05453 748.1842,110.98776 751.04028,114.46698 753.89636,117.89428 757.89487,119.71178 761.94531,121.52929 766.93046,121.52929 771.91562,121.52929 775.91413,119.71178 779.96457,117.89428 782.76872,114.46698 785.6248,110.98776 787.13073,106.05453 788.68859,101.06938 788.68859,94.837931 Z"
         id="path22" />
      <path
         d="M 820.17073,100.60202 V 128.95509 H 810.7197 V 60.720768 H 829.41404 Q 835.64548,60.720768 840.16328,62.070915 844.73301,63.369132 847.64101,65.86171 850.60095,68.30236 852.00303,71.833512 853.4051,75.312736 853.4051,79.674747 853.4051,83.257828 852.3146,86.373551 851.27602,89.489274 849.25081,91.981852 847.27751,94.47443 844.36951,96.291935 841.4615,98.057511 837.77456,98.992228 838.65735,99.563443 839.43628,100.29045 840.21521,100.96552 840.94221,101.95216 L 859.27305,128.95509 H 850.8606 Q 848.41995,128.95509 847.0698,127.03373 L 830.91997,102.73109 Q 830.14104,101.58866 829.20632,101.1213 828.32353,100.60202 826.50603,100.60202 Z M 820.17073,93.695499 H 829.05054 Q 832.7894,93.695499 835.59355,92.760782 838.44963,91.774137 840.371,90.008561 842.29236,88.242985 843.22707,85.802335 844.21372,83.309757 844.21372,80.349821 844.21372,68.146574 829.41404,68.146574 H 820.17073 Z"
         id="path24" />
      <path
         d="M 511.37443,190.55293 Q 511.37443,198.23838 509.08956,204.52175 506.85663,210.80512 502.75426,215.32292 498.70382,219.78879 492.93973,222.22944 487.22758,224.67009 480.26913,224.67009 H 456.69349 V 156.43576 H 480.26913 Q 487.22758,156.43576 492.93973,158.92834 498.70382,161.36899 502.75426,165.83486 506.85663,170.30073 509.08956,176.63603 511.37443,182.91941 511.37443,190.55293 Z M 501.66376,190.55293 Q 501.66376,184.32148 500.15782,179.44018 498.65189,174.50696 495.84774,171.07966 493.04359,167.65237 489.09701,165.88679 485.15043,164.06928 480.26913,164.06928 H 466.19645 V 217.03657 H 480.26913 Q 485.15043,217.03657 489.09701,215.27099 493.04359,213.45349 495.84774,210.07812 498.65189,206.65083 500.15782,201.7176 501.66376,196.78437 501.66376,190.55293 Z"
         id="path26" />
      <path
         d="M 563.31649,156.43576 V 164.12121 H 532.9382 V 186.50249 H 557.39662 V 193.92829 H 532.9382 V 216.98464 H 563.36842 L 563.31649,224.67009 H 523.43524 V 156.43576 Z"
         id="path28" />
      <path
         d="M 569.14586,156.43576 H 576.77938 Q 578.02567,156.43576 578.8046,157.05891 579.58353,157.68205 579.94703,158.61677 L 596.82386,206.44311 Q 597.44701,208.0529 598.01822,209.97426 598.64137,211.8437 599.10873,213.92085 599.52416,211.8437 600.04344,209.97426 600.61466,208.0529 601.2378,206.44311 L 618.06271,158.6687 Q 618.37428,157.78591 619.20514,157.11084 620.036,156.43576 621.23036,156.43576 H 628.86388 L 603.26302,224.67009 H 594.74672 Z"
         id="path30" />
      <path
         d="M 677.58636,156.43576 V 164.12121 H 647.20806 V 186.50249 H 671.66649 V 193.92829 H 647.20806 V 216.98464 H 677.63829 L 677.58636,224.67009 H 637.70511 V 156.43576 Z"
         id="path32" />
      <path
         d="M 699.72134,216.725 H 726.0492 V 224.67009 H 690.27032 V 156.43576 H 699.72134 Z"
         id="path34" />
      <path
         d="M 793.15446,190.55293 Q 793.15446,198.23838 790.8696,204.62561 788.63666,211.01284 784.48237,215.63449 780.38,220.25615 774.56398,222.85258 768.7999,225.39709 761.73759,225.39709 754.72722,225.39709 748.9112,222.85258 743.09518,220.25615 738.94089,215.63449 734.78659,211.01284 732.50173,204.62561 730.21686,198.23838 730.21686,190.55293 730.21686,182.91941 732.50173,176.53218 734.78659,170.09302 738.94089,165.47136 743.09518,160.79778 748.9112,158.25327 754.72722,155.65683 761.73759,155.65683 768.7999,155.65683 774.56398,158.25327 780.38,160.79778 784.48237,165.47136 788.63666,170.09302 790.8696,176.53218 793.15446,182.91941 793.15446,190.55293 Z M 783.49572,190.55293 Q 783.49572,184.32148 781.93786,179.38825 780.43193,174.4031 777.57585,170.9758 774.7717,167.49658 770.72126,165.67907 766.72275,163.80964 761.73759,163.80964 756.75243,163.80964 752.702,165.67907 748.70348,167.49658 745.84741,170.9758 742.99133,174.4031 741.43347,179.38825 739.92753,184.32148 739.92753,190.55293 739.92753,196.78437 741.43347,201.76953 742.99133,206.70276 745.84741,210.18198 748.70348,213.60927 752.702,215.42678 756.75243,217.24428 761.73759,217.24428 766.72275,217.24428 770.72126,215.42678 774.7717,213.60927 777.57585,210.18198 780.43193,206.70276 781.93786,201.76953 783.49572,196.78437 783.49572,190.55293 Z"
         id="path36" />
      <path
         d="M 814.97786,199.22502 V 224.67009 H 805.52683 V 156.43576 H 825.10395 Q 831.3354,156.43576 835.90513,157.9417 840.52678,159.44763 843.53865,162.19985 846.55051,164.95207 848.00452,168.89865 849.51045,172.79331 849.51045,177.62268 849.51045,182.40012 847.90066,186.3467 846.3428,190.29328 843.22707,193.20129 840.16328,196.05737 835.59355,197.66716 831.07576,199.22502 825.10395,199.22502 Z M 814.97786,191.74729 H 825.10395 Q 828.73896,191.74729 831.54311,190.70871 834.34727,189.67014 836.2167,187.80071 838.13806,185.93127 839.07278,183.33484 840.05942,180.7384 840.05942,177.62268 840.05942,171.07966 836.37248,167.49658 832.68555,163.86157 825.10395,163.86157 H 814.97786 Z"
         id="path38" />
      <path
         d="M 901.24481,156.43576 V 164.12121 H 870.86651 V 186.50249 H 895.32493 V 193.92829 H 870.86651 V 216.98464 H 901.29673 L 901.24481,224.67009 H 861.36356 V 156.43576 Z"
         id="path40" />
      <path
         d="M 923.84715,196.31701 V 224.67009 H 914.39612 V 156.43576 H 933.09046 Q 939.32191,156.43576 943.8397,157.78591 948.40943,159.08413 951.31744,161.57671 954.27737,164.01736 955.67945,167.54851 957.08152,171.02773 957.08152,175.38974 957.08152,178.97282 955.99102,182.08855 954.95245,185.20427 952.92723,187.69685 950.95394,190.18943 948.04593,192.00693 945.13792,193.77251 941.45098,194.70722 942.33377,195.27844 943.1127,196.00544 943.89163,196.68051 944.61863,197.66716 L 962.94947,224.67009 H 954.53702 Q 952.09637,224.67009 950.74622,222.74873 L 934.59639,198.44609 Q 933.81746,197.30366 932.88274,196.8363 931.99996,196.31701 930.18245,196.31701 Z M 923.84715,189.4105 H 932.72696 Q 936.46583,189.4105 939.26998,188.47578 942.12606,187.48913 944.04742,185.72356 945.96878,183.95798 946.9035,181.51733 947.89014,179.02475 947.89014,176.06482 947.89014,163.86157 933.09046,163.86157 H 923.84715 Z"
         id="path42" />
      <path
         d="M 1005.4925,167.18501 Q 1004.7135,168.63901 1003.3634,168.63901 1002.5845,168.63901 1001.494,167.86008 1000.4554,167.02922 998.89752,166.0945 997.39159,165.10786 995.21058,164.32893 993.08151,163.49807 990.06964,163.49807 987.21356,163.49807 985.03256,164.32893 982.90348,165.10786 981.44947,166.56186 980.0474,167.96394 979.3204,169.8853 978.5934,171.75473 978.5934,173.93574 978.5934,176.79182 979.89161,178.66125 981.24176,180.53069 983.37084,181.88083 985.55184,183.17905 988.30406,184.1657 991.05629,185.15234 993.91237,186.19092 996.76844,187.22949 999.52067,188.57964 1002.2729,189.87785 1004.402,191.90307 1006.583,193.87636 1007.8812,196.78437 1009.2313,199.69238 1009.2313,203.89861 1009.2313,208.4164 1007.7773,212.36299 1006.3233,216.25764 1003.5192,219.16565 1000.767,222.07365 996.71652,223.73537 992.66608,225.39709 987.47321,225.39709 981.18983,225.39709 975.8931,223.00837 970.6483,220.56772 966.96136,216.46535 L 969.71359,211.99948 Q 970.07709,211.42827 970.59637,211.1167 971.16759,210.7532 971.89459,210.7532 972.88124,210.7532 974.0756,211.8437 975.32189,212.88227 977.13939,214.18049 978.9569,215.42678 981.5014,216.51728 984.09784,217.55586 987.68092,217.55586 990.69279,217.55586 993.02958,216.67307 995.36637,215.79028 996.97616,214.18049 998.63788,212.5707 999.46874,210.33777 1000.3515,208.0529 1000.3515,205.30068 1000.3515,202.23689 999.00138,200.2636 997.70316,198.2903 995.52216,196.99209 993.39308,195.64194 990.64086,194.75915 987.88863,193.82444 985.03256,192.83779 982.17648,191.85114 979.42426,190.60486 976.67203,189.30664 974.49103,187.22949 972.36195,185.15234 971.0118,182.08855 969.71359,179.02475 969.71359,174.45503 969.71359,170.87195 971.06373,167.49658 972.41388,164.06928 974.95839,161.47285 977.55482,158.82448 981.29369,157.26662 985.08448,155.65683 989.96578,155.65683 995.4183,155.65683 999.9361,157.47434 1004.5058,159.29184 1007.8293,162.77107 Z"
         id="path44" />
    </g>
  </g>
</svg>
