<?xml version="1.0" encoding="UTF-8" standalone="no"?>
<!-- Created with Inkscape (http://www.inkscape.org/) -->

<svg
   width="315"
   height="48"
   viewBox="0 0 83.343748 12.7"
   version="1.1"
   id="svg1"
   xml:space="preserve"
   xmlns="http://www.w3.org/2000/svg"
   xmlns:svg="http://www.w3.org/2000/svg"><defs
     id="defs1" /><g
     id="layer1"
     transform="translate(-27.203726,-86.094872)"><rect
       style="fill:#ffffff;stroke:none;stroke-width:1.02503;stroke-linecap:round;fill-opacity:1"
       id="rect1"
       width="83.34375"
       height="12.7"
       x="27.203726"
       y="86.094872" /><path
       style="opacity:1;fill:none;stroke:#005a9c;stroke-width:2.01789;stroke-linecap:round;stroke-dasharray:none"
       d="m 41.312383,96.944708 0.0069,0.0076 c 0.545943,0.580234 1.376388,0.833611 2.002132,0.833611 1.143331,0 2.033858,-0.849817 2.033858,-0.849817 m -7.851256,-7.84496 c 0,0 0.872519,-0.848439 2.000067,-0.848439 0.703143,0 1.483438,0.223738 2.016273,0.82602 l 3.596247,4.065267 c 0.505308,0.57117 1.373152,0.834642 2.022142,0.834642 1.971009,0 2.551295,-0.768352 2.551295,-1.716192 0,-0.947837 -0.768366,-1.716193 -1.716212,-1.716193 m -6.661448,6.408478 -7.405644,-7.870141 c -0.344696,-0.36633 -1.023003,-0.831881 -2.037315,-0.831881 -1.511224,0 -2.861233,1.218978 -2.863,2.862967 -8.81e-4,0.819251 0.260021,1.426784 0.868106,2.03522 l 3.81078,3.812804 c 0.608085,0.608426 1.22992,0.834378 2.001445,0.832225 1.134719,-0.0032 1.516654,-0.309055 2.024208,-0.833266 m 9.049183,-9.34617 c 0.30552,-0.315543 0.739638,-0.502666 1.213559,-0.502666 0.947854,0 1.716231,0.768375 1.716231,1.716212 0,0.946828 -0.769424,1.716218 -1.716231,1.716218"
       id="path2" /><g
       id="g6"
       transform="matrix(1.1161793,0,0,1.1161793,-17.739075,6.569558)"><path
         d="m 66.93868,71.764215 h 0.224896 q 0.07673,0 0.0979,0.07144 l 0.944563,3.077106 q 0.0291,0.105833 0.05292,0.240771 0.01323,-0.06615 0.02646,-0.127 0.01323,-0.06085 0.03175,-0.113771 l 1.058334,-3.077106 q 0.01058,-0.0291 0.03704,-0.05027 0.02646,-0.02117 0.0635,-0.02117 h 0.07408 q 0.03704,0 0.06085,0.02117 0.02381,0.01852 0.03704,0.05027 l 1.058334,3.077106 q 0.01852,0.05292 0.03175,0.111125 0.01587,0.05821 0.0291,0.124354 0.01323,-0.0635 0.02381,-0.121708 0.01323,-0.06085 0.02646,-0.113771 l 0.944563,-3.077106 q 0.0079,-0.0291 0.0344,-0.05027 0.0291,-0.02117 0.06615,-0.02117 h 0.206375 l -1.177397,3.743857 h -0.243416 l -1.105959,-3.249085 q -0.02117,-0.0635 -0.03704,-0.134938 -0.01587,0.07144 -0.03704,0.134938 l -1.108605,3.249085 h -0.240771 z m 9.096383,1.870606 q 0,0.433917 -0.129646,0.788459 -0.129646,0.351896 -0.365125,0.60325 -0.235479,0.248708 -0.566209,0.386292 -0.328083,0.134937 -0.724958,0.134937 -0.396876,0 -0.724959,-0.134937 -0.328084,-0.137584 -0.563563,-0.386292 -0.235479,-0.251354 -0.365125,-0.60325 -0.129646,-0.354542 -0.129646,-0.788459 0,-0.431271 0.129646,-0.783167 0.129646,-0.354542 0.365125,-0.603251 0.235479,-0.251354 0.563563,-0.388937 0.328083,-0.137584 0.724959,-0.137584 0.396875,0 0.724958,0.137584 0.33073,0.134937 0.566209,0.386291 0.235479,0.251355 0.365125,0.605897 0.129646,0.351896 0.129646,0.783167 z m -0.280458,0 q 0,-0.391584 -0.10848,-0.703792 -0.108479,-0.312209 -0.306917,-0.529167 -0.198437,-0.216959 -0.47625,-0.33073 -0.277812,-0.116416 -0.613833,-0.116416 -0.333376,0 -0.611188,0.116416 -0.277813,0.113771 -0.478896,0.33073 -0.198438,0.216958 -0.309563,0.529167 -0.108479,0.312208 -0.108479,0.703792 0,0.394229 0.108479,0.706438 0.111125,0.309562 0.309563,0.526521 0.201083,0.216958 0.478896,0.330729 0.277812,0.113771 0.611188,0.113771 0.336021,0 0.613833,-0.113771 0.277813,-0.113771 0.47625,-0.330729 0.198438,-0.216959 0.306917,-0.526521 0.10848,-0.312209 0.10848,-0.706438 z m 1.415521,0.179917 v 1.693334 h -0.272521 v -3.743857 h 0.957793 q 0.645583,0 0.965729,0.251355 0.322792,0.248708 0.322792,0.732896 0,0.214313 -0.07673,0.391584 -0.07408,0.177271 -0.214313,0.312208 -0.137583,0.132292 -0.336021,0.219604 -0.195791,0.08467 -0.439208,0.111126 0.0635,0.03969 0.113771,0.105833 l 1.288521,1.619251 h -0.232833 q -0.04498,0 -0.07673,-0.01323 -0.02911,-0.01588 -0.05556,-0.05556 l -1.201209,-1.518709 q -0.02117,-0.0291 -0.04498,-0.05027 -0.02117,-0.02117 -0.05027,-0.03175 -0.02646,-0.01323 -0.06615,-0.01852 -0.03704,-0.0053 -0.0926,-0.0053 z m 0,-0.201084 h 0.64823 q 0.248708,0 0.4445,-0.05821 0.198438,-0.06085 0.333375,-0.17198 0.137584,-0.111125 0.209021,-0.267229 0.07144,-0.156104 0.07144,-0.351896 0,-0.399521 -0.261938,-0.592667 -0.259291,-0.193146 -0.759354,-0.193146 h -0.685272 z m 3.212046,1.66423 h 1.77271 v 0.230188 h -2.045231 v -3.743857 h 0.272521 z m 5.558902,-1.643063 q 0,0.433917 -0.129646,0.780521 -0.129646,0.346604 -0.365125,0.590021 -0.23548,0.243417 -0.566209,0.373063 -0.328083,0.129646 -0.724959,0.129646 h -1.367896 v -3.743857 h 1.367896 q 0.396876,0 0.724959,0.129646 0.330729,0.129646 0.566209,0.373063 0.235479,0.243417 0.365125,0.590021 0.129646,0.346605 0.129646,0.777876 z m -0.280459,0 q 0,-0.391584 -0.108479,-0.698501 Q 85.443657,72.629404 85.245219,72.417737 85.046782,72.20607 84.768969,72.094945 84.491156,71.98382 84.155135,71.98382 H 83.05976 v 3.304648 h 1.095375 q 0.336021,0 0.613834,-0.111125 0.277813,-0.111126 0.47625,-0.322792 0.198438,-0.211667 0.306917,-0.518584 0.108479,-0.306917 0.108479,-0.701146 z m 2.037299,-1.870606 h 0.224896 q 0.07673,0 0.0979,0.07144 l 0.944563,3.077106 q 0.02911,0.105833 0.05292,0.240771 0.01323,-0.06615 0.02646,-0.127 0.01323,-0.06085 0.03175,-0.113771 l 1.058333,-3.077106 q 0.01058,-0.0291 0.03704,-0.05027 0.02646,-0.02117 0.0635,-0.02117 h 0.07408 q 0.03704,0 0.06085,0.02117 0.02381,0.01852 0.03704,0.05027 l 1.058334,3.077106 q 0.01852,0.05292 0.03175,0.111125 0.01587,0.05821 0.02911,0.124354 0.01323,-0.0635 0.02381,-0.121708 0.01323,-0.06085 0.02646,-0.113771 l 0.944563,-3.077106 q 0.0079,-0.0291 0.0344,-0.05027 0.02911,-0.02117 0.06615,-0.02117 h 0.206375 l -1.177396,3.743857 h -0.243417 l -1.105959,-3.249085 q -0.02117,-0.0635 -0.03704,-0.134938 -0.01588,0.07144 -0.03704,0.134938 l -1.108605,3.249085 h -0.240771 z m 6.082774,3.743857 h -0.272521 v -3.743857 h 0.272521 z m 4.259795,-1.873251 q 0,0.433917 -0.129646,0.780521 -0.129646,0.346604 -0.365125,0.590021 -0.235479,0.243417 -0.566209,0.373063 -0.328083,0.129646 -0.724959,0.129646 h -1.367896 v -3.743857 h 1.367896 q 0.396876,0 0.724959,0.129646 0.33073,0.129646 0.566209,0.373063 0.235479,0.243417 0.365125,0.590021 0.129646,0.346605 0.129646,0.777876 z m -0.280459,0 q 0,-0.391584 -0.108479,-0.698501 -0.108479,-0.306916 -0.306917,-0.518583 -0.198437,-0.211667 -0.47625,-0.322792 -0.277813,-0.111125 -0.613834,-0.111125 h -1.095375 v 3.304648 h 1.095375 q 0.336021,0 0.613834,-0.111125 0.277813,-0.111126 0.47625,-0.322792 0.198438,-0.211667 0.306917,-0.518584 0.108479,-0.306917 0.108479,-0.701146 z m 3.391966,-1.870606 v 0.224896 h -1.971152 v 1.513418 h 1.640422 v 0.219604 h -1.640422 v 1.561043 h 1.976442 l -0.005,0.224896 h -2.243673 v -3.743857 z m 1.7145,0 h 0.2249 q 0.0767,0 0.0979,0.07144 l 0.94457,3.077106 q 0.0291,0.105833 0.0529,0.240771 0.0132,-0.06615 0.0265,-0.127 0.0132,-0.06085 0.0317,-0.113771 l 1.05833,-3.077106 q 0.0106,-0.0291 0.0371,-0.05027 0.0264,-0.02117 0.0635,-0.02117 h 0.0741 q 0.037,0 0.0609,0.02117 0.0238,0.01852 0.037,0.05027 l 1.05833,3.077106 q 0.0185,0.05292 0.0318,0.111125 0.0159,0.05821 0.0291,0.124354 0.0132,-0.0635 0.0238,-0.121708 0.0132,-0.06085 0.0264,-0.113771 l 0.94457,-3.077106 q 0.008,-0.0291 0.0344,-0.05027 0.0291,-0.02117 0.0662,-0.02117 h 0.20637 l -1.17739,3.743857 h -0.24342 l -1.10596,-3.249085 q -0.0212,-0.0635 -0.037,-0.134938 -0.0159,0.07144 -0.037,0.134938 l -1.10861,3.249085 h -0.24077 z m 8.05392,0 v 0.224896 h -1.97114 v 1.513418 h 1.64041 v 0.219604 h -1.64041 v 1.561043 h 1.97644 l -0.005,0.224896 h -2.24366 v -3.743857 z m 0.8255,3.743857 v -3.743857 h 1.07686 q 0.32014,0 0.55562,0.0635 0.23548,0.0635 0.38894,0.187854 0.15346,0.121708 0.22754,0.298979 0.0741,0.177271 0.0741,0.402167 0,0.148167 -0.0529,0.28575 -0.0503,0.137584 -0.14817,0.254 -0.0979,0.116417 -0.24077,0.20373 -0.14023,0.08467 -0.32014,0.129646 0.44185,0.06614 0.67733,0.296333 0.23813,0.227542 0.23813,0.597959 0,0.238125 -0.0847,0.428625 -0.0847,0.1905 -0.24606,0.322792 -0.1614,0.132292 -0.39688,0.203729 -0.23548,0.06879 -0.53446,0.06879 z m 0.27253,-1.793876 v 1.576917 h 0.93927 q 0.49212,0 0.74348,-0.211666 0.254,-0.214313 0.254,-0.600605 0,-0.177271 -0.0688,-0.3175 -0.0661,-0.142875 -0.19314,-0.240771 -0.127,-0.100542 -0.31221,-0.153458 -0.18521,-0.05292 -0.42069,-0.05292 z m 0,-0.198438 h 0.80962 q 0.25929,0 0.44185,-0.06615 0.18521,-0.06615 0.30163,-0.174625 0.11906,-0.108479 0.17463,-0.246062 0.0556,-0.137584 0.0556,-0.283105 0,-0.378354 -0.24077,-0.5715 -0.23813,-0.195792 -0.73819,-0.195792 h -0.80433 z"
         id="text5"
         style="font-weight:300;font-size:5.29167px;line-height:1.1;font-family:Lato;-inkscape-font-specification:'Lato Light';text-align:center;letter-spacing:0px;text-anchor:middle;fill:#002a56;stroke-width:2.50243;stroke-linecap:round"
         aria-label="WORLD WIDE WEB" /><path
         d="m 71.311282,81.226705 q 0.03628,0 0.06167,0.0254 l 0.145114,0.155998 q -0.159626,0.170509 -0.348274,0.308367 -0.18502,0.134231 -0.409947,0.232183 -0.221299,0.09432 -0.48976,0.145114 -0.264833,0.05442 -0.584084,0.05442 -0.533294,0 -0.979519,-0.18502 -0.442598,-0.188648 -0.761849,-0.529666 -0.31925,-0.344646 -0.497015,-0.830778 -0.174137,-0.486132 -0.174137,-1.081099 0,-0.584084 0.181393,-1.066588 0.181392,-0.482504 0.507899,-0.82715 0.326506,-0.348274 0.783615,-0.536922 0.457109,-0.192276 1.008543,-0.192276 0.526038,0 0.932357,0.163253 0.406319,0.163254 0.740081,0.460737 l -0.112463,0.163254 q -0.02902,0.04353 -0.0907,0.04353 -0.04353,0 -0.141486,-0.07981 -0.09795,-0.07981 -0.272089,-0.174137 -0.174137,-0.09795 -0.435342,-0.177764 -0.257577,-0.07981 -0.620362,-0.07981 -0.464365,0 -0.852545,0.159625 -0.384552,0.159626 -0.663897,0.45711 -0.275716,0.297483 -0.431714,0.72557 -0.155997,0.428086 -0.155997,0.96138 0,0.544177 0.155997,0.972264 0.159626,0.428086 0.435342,0.72557 0.275717,0.293856 0.649385,0.453481 0.377297,0.155997 0.812639,0.155997 0.275716,0 0.489759,-0.03628 0.217671,-0.03628 0.399064,-0.108836 0.181392,-0.07256 0.33739,-0.177764 0.155998,-0.105208 0.308367,-0.246694 0.01814,-0.01451 0.03628,-0.02177 0.01814,-0.01088 0.03628,-0.01088 z m 5.677594,-1.705089 q 0,0.594967 -0.177765,1.081099 -0.177764,0.482504 -0.500643,0.82715 -0.322879,0.341018 -0.77636,0.529666 -0.449853,0.18502 -0.994031,0.18502 -0.544177,0 -0.994031,-0.18502 -0.449853,-0.188648 -0.772732,-0.529666 -0.322878,-0.344646 -0.500643,-0.82715 -0.177765,-0.486132 -0.177765,-1.081099 0,-0.59134 0.177765,-1.073844 0.177765,-0.486132 0.500643,-0.82715 0.322879,-0.344645 0.772732,-0.533294 0.449854,-0.188648 0.994031,-0.188648 0.544178,0 0.994031,0.188648 0.453481,0.185021 0.77636,0.529667 0.322879,0.344645 0.500643,0.830777 0.177765,0.482504 0.177765,1.073844 z m -0.384552,0 q 0,-0.536922 -0.148742,-0.965008 -0.148742,-0.428087 -0.420831,-0.72557 -0.272088,-0.297484 -0.653013,-0.453482 -0.380924,-0.159625 -0.841661,-0.159625 -0.457109,0 -0.838033,0.159625 -0.380924,0.155998 -0.656641,0.453482 -0.272089,0.297483 -0.424458,0.72557 -0.148742,0.428086 -0.148742,0.965008 0,0.540549 0.148742,0.968636 0.152369,0.424458 0.424458,0.721942 0.275717,0.297484 0.656641,0.453481 0.380924,0.155998 0.838033,0.155998 0.460737,0 0.841661,-0.155998 0.380925,-0.155997 0.653013,-0.453481 0.272089,-0.297484 0.420831,-0.721942 0.148742,-0.428087 0.148742,-0.968636 z m 1.752252,-2.56489 q 0.05079,0 0.07618,0.01451 0.02902,0.01088 0.06167,0.05442 l 3.326739,4.447744 q -0.01088,-0.108835 -0.01088,-0.210415 v -4.306258 h 0.322879 v 5.133408 h -0.174137 q -0.04716,0 -0.07981,-0.01451 -0.02902,-0.01814 -0.05804,-0.05804 l -3.333995,-4.451372 q 0.01088,0.108835 0.01088,0.203159 v 4.32077 h -0.326506 v -5.133408 h 0.18502 z m 7.785361,0.62399 q -0.03265,0.06167 -0.09432,0.06167 -0.04716,0 -0.123347,-0.0653 -0.07256,-0.06893 -0.199532,-0.148742 -0.126975,-0.08344 -0.319251,-0.152369 -0.188648,-0.06893 -0.467992,-0.06893 -0.279345,0 -0.493388,0.07981 -0.210415,0.07981 -0.355529,0.217671 -0.141486,0.137858 -0.217671,0.319251 -0.07256,0.181393 -0.07256,0.380924 0,0.261205 0.108835,0.431714 0.112464,0.170509 0.293856,0.290228 0.181393,0.119719 0.409947,0.20316 0.232183,0.07981 0.475248,0.159625 0.243066,0.07981 0.471621,0.177765 0.232182,0.09432 0.413575,0.239438 0.181392,0.145114 0.290228,0.359157 0.112463,0.210416 0.112463,0.526039 0,0.322878 -0.112463,0.609478 -0.108836,0.282973 -0.319251,0.493388 -0.210415,0.210415 -0.515155,0.333762 -0.304739,0.119719 -0.696547,0.119719 -0.507899,0 -0.874312,-0.177764 -0.366413,-0.181393 -0.642129,-0.493388 l 0.10158,-0.159625 q 0.04353,-0.05442 0.101579,-0.05442 0.03265,0 0.08344,0.04353 0.05079,0.04353 0.123347,0.108836 0.07256,0.06167 0.174137,0.137858 0.10158,0.07256 0.23581,0.137858 0.13423,0.06167 0.308367,0.105208 0.174137,0.04353 0.395436,0.04353 0.304739,0 0.544177,-0.0907 0.239438,-0.09432 0.402692,-0.25395 0.166881,-0.159625 0.253949,-0.377296 0.08707,-0.221299 0.08707,-0.471621 0,-0.272088 -0.112464,-0.446225 -0.108835,-0.177765 -0.290228,-0.293856 -0.181392,-0.119719 -0.413575,-0.199532 -0.228554,-0.07981 -0.47162,-0.155997 -0.243066,-0.07619 -0.475248,-0.170509 -0.228555,-0.09432 -0.409948,-0.239438 -0.181392,-0.148742 -0.293855,-0.366413 -0.108836,-0.221299 -0.108836,-0.551433 0,-0.257578 0.09795,-0.497016 0.09795,-0.239438 0.2866,-0.420831 0.188648,-0.18502 0.464365,-0.293855 0.279344,-0.112464 0.634874,-0.112464 0.399063,0 0.714686,0.126975 0.319251,0.126975 0.580456,0.38818 z m 5.949672,1.9409 q 0,0.594967 -0.177764,1.081099 -0.177765,0.482504 -0.500644,0.82715 -0.322878,0.341018 -0.77636,0.529666 -0.449853,0.18502 -0.994031,0.18502 -0.544177,0 -0.994031,-0.18502 -0.449853,-0.188648 -0.772732,-0.529666 -0.322878,-0.344646 -0.500643,-0.82715 -0.177765,-0.486132 -0.177765,-1.081099 0,-0.59134 0.177765,-1.073844 0.177765,-0.486132 0.500643,-0.82715 0.322879,-0.344645 0.772732,-0.533294 0.449854,-0.188648 0.994031,-0.188648 0.544178,0 0.994031,0.188648 0.453482,0.185021 0.77636,0.529667 0.322879,0.344645 0.500644,0.830777 0.177764,0.482504 0.177764,1.073844 z m -0.384552,0 q 0,-0.536922 -0.148742,-0.965008 -0.148742,-0.428087 -0.42083,-0.72557 -0.272089,-0.297484 -0.653013,-0.453482 -0.380925,-0.159625 -0.841662,-0.159625 -0.457109,0 -0.838033,0.159625 -0.380924,0.155998 -0.656641,0.453482 -0.272089,0.297483 -0.424458,0.72557 -0.148742,0.428086 -0.148742,0.965008 0,0.540549 0.148742,0.968636 0.152369,0.424458 0.424458,0.721942 0.275717,0.297484 0.656641,0.453481 0.380924,0.155998 0.838033,0.155998 0.460737,0 0.841662,-0.155998 0.380924,-0.155997 0.653013,-0.453481 0.272088,-0.297484 0.42083,-0.721942 0.148742,-0.428087 0.148742,-0.968636 z m 1.940901,0.246694 v 2.321824 h -0.373669 v -5.133408 h 1.313282 q 0.885195,0 1.324165,0.344646 0.442598,0.341017 0.442598,1.004914 0,0.293856 -0.105208,0.536922 -0.10158,0.243066 -0.293856,0.428086 -0.188648,0.181393 -0.460737,0.301112 -0.268461,0.116091 -0.602223,0.152369 0.08707,0.05442 0.155998,0.145114 l 1.766763,2.220245 H 96.49582 q -0.06167,0 -0.105208,-0.01814 -0.03991,-0.02177 -0.07619,-0.07618 l -1.647043,-2.082386 q -0.02902,-0.03991 -0.06167,-0.06893 -0.02902,-0.02902 -0.06893,-0.04353 -0.03628,-0.01814 -0.0907,-0.0254 -0.05079,-0.0073 -0.126975,-0.0073 z m 0,-0.275717 h 0.888823 q 0.341018,0 0.609479,-0.07981 0.272089,-0.08344 0.457109,-0.23581 0.188648,-0.15237 0.2866,-0.366413 0.09795,-0.214043 0.09795,-0.482504 0,-0.547805 -0.359157,-0.812638 -0.355529,-0.264833 -1.041193,-0.264833 h -0.939613 z m 7.154132,-2.535867 v 0.315623 h -1.803044 v 4.817785 h -0.373669 v -4.817785 h -1.813925 v -0.315623 z m 1.2371,5.133408 h -0.37367 v -5.133408 h 0.37367 z m 3.39566,-0.264833 q 0.37004,0 0.66027,-0.126975 0.29386,-0.130603 0.49702,-0.359157 0.20316,-0.228555 0.30836,-0.536922 0.10884,-0.311995 0.10884,-0.671152 v -3.174369 h 0.37004 v 3.174369 q 0,0.424458 -0.13423,0.794499 -0.13423,0.366413 -0.38818,0.642129 -0.25032,0.272089 -0.61311,0.428087 -0.35915,0.155997 -0.80901,0.155997 -0.44985,0 -0.81264,-0.155997 -0.35915,-0.155998 -0.6131,-0.428087 -0.25032,-0.275716 -0.38455,-0.642129 -0.13423,-0.370041 -0.13423,-0.794499 v -3.174369 h 0.37366 v 3.170741 q 0,0.359157 0.10521,0.671152 0.10884,0.308367 0.30837,0.536922 0.20316,0.228554 0.49339,0.359157 0.29385,0.130603 0.66389,0.130603 z m 5.86261,-1.229842 q 0.0544,0.10158 0.0943,0.217671 0.0218,-0.05442 0.0472,-0.112463 0.0254,-0.05805 0.0544,-0.108835 l 2.01346,-3.566177 q 0.029,-0.04716 0.058,-0.05805 0.0327,-0.01088 0.0834,-0.01088 h 0.25395 v 5.133408 h -0.32288 v -4.375188 q 0,-0.04353 0,-0.09432 0.004,-0.05079 0.007,-0.101579 l -2.01709,3.584315 q -0.0508,0.09432 -0.14511,0.09432 h -0.058 q -0.0943,0 -0.14511,-0.09432 l -2.07513,-3.591571 q 0.0109,0.105208 0.0109,0.203159 v 4.375188 h -0.3265 v -5.133408 h 0.25758 q 0.0508,0 0.0798,0.01088 0.029,0.01088 0.058,0.05805 l 2.07151,3.569804 z"
         id="text6"
         style="font-weight:300;font-size:7.2557px;line-height:1.1;font-family:Lato;-inkscape-font-specification:'Lato Light';text-align:center;letter-spacing:0px;text-anchor:middle;fill:#002a56;stroke-width:3.43123;stroke-linecap:round"
         aria-label="CONSORTIUM" /></g></g></svg>
