<?xml version="1.0" encoding="UTF-8" standalone="no"?>
<svg
   width="231"
   height="110"
   version="1.1"
   viewBox="0 0 173.25 82.499995"
   id="svg98"
   xmlns="http://www.w3.org/2000/svg"
   xmlns:svg="http://www.w3.org/2000/svg">
  <defs
     id="defs102" />
  <g
     id="g441"
     transform="translate(36.375001)">
    <g
       id="g2"
       style="fill:#005a9c"
       transform="matrix(0.23148147,0,0,0.23148147,8.5978736,-0.41666939)">
      <path
         d="M 267.09907,217.5246 C 262.51929,213.88662 255.83286,214.66023 252.19748,219.24343 247.69476,224.92471 243.60499,228.34438 238.94268,230.33476 230.3442,233.99641 223.05568,232.44887 216.00928,225.46234 209.10439,218.61732 202.37674,211.15829 195.84959,203.92926 192.65682,200.39165 189.45837,196.84815 186.2184,193.34589 180.68275,187.36328 175.11777,181.40414 169.55836,175.43911 L 169.06834,174.91337 C 156.9762,161.96181 144.47678,148.5671 132.41997,135.11337 122.85953,124.44131 108.08799,119.15541 93.87701,121.2934 79.35316,123.46684 67.60912,132.76874 60.80473,147.48038 54.24824,161.6487 56.46717,177.74828 66.58818,189.49507 84.39322,210.16005 99.41277,227.24577 117.00502,243.31599 124.19913,249.88325 132.904,253.37952 142.17512,253.42675 148.18891,253.45645 157.25355,252.77728 166.50132,246.54638 170.54987,243.81805 174.32087,241.0125 175.97923,236.73073 177.66713,232.3487 176.0913,227.31099 172.13737,224.47019 168.30129,221.7062 163.26734,221.90094 159.60841,224.94259 159.14793,225.3263 158.64624,225.76944 158.09765,226.24794 152.34953,231.28565 145.19663,237.55758 130.6139,227.08037 117.25302,217.47736 106.90777,204.89182 94.92161,190.31612 91.01478,185.56754 86.97222,180.65387 82.65233,175.63374 78.03722,170.27724 77.03983,162.9067 80.04967,156.39236 82.67598,150.72276 87.74527,143.671 97.02258,142.28327 104.05112,141.2259 111.92975,144.03703 116.63338,149.28179 128.79059,162.85357 141.38442,176.35444 153.56508,189.40058 159.27199,195.51333 164.97859,201.63176 170.65595,207.76818 173.83705,211.20552 176.97662,214.6838 180.1634,218.21562 186.85582,225.62772 193.77228,233.2877 201.07847,240.53431 214.2684,253.6157 230.66277,256.929 247.26393,249.85967 255.23697,246.45189 262.08867,240.91801 268.81631,232.43128 272.44559,227.85429 271.67854,221.16857 267.09907,217.52459 Z"
         id="path1" />
      <path
         d="M 283.69341,158.56819 C 290.551,155.31392 295.94513,149.18938 296.4585,141.75971 297.76277,128.86138 287.15175,116.51794 271.54209,114.61016 261.9581,113.39371 253.06441,116.23451 246.76171,121.46128 243.392,124.26652 242.48303,129.45793 245.40424,133.11959 248.59691,136.92885 252.27949,137.596 258.30516,134.28312 260.46501,133.05468 263.71097,132.03287 267.28138,132.28075 274.01502,132.74757 275.94472,138.81876 275.75591,141.57676 275.72631,141.98435 275.76781,151.38641 266.28399,150.73094 L 262.70759,150.48306 C 258.72412,150.2112 254.74044,153.93797 254.44554,158.20186 254.12668,162.73791 257.4435,166.70058 261.56848,166.99012 L 265.96512,167.29123 C 278.06356,168.12997 276.8005,178.40612 276.54681,180.04815 276.31079,184.77285 268.73305,192.78708 255.21857,183.67414 250.633,180.58546 217.92669,139.47422 217.92669,139.47422 202.42941,119.42366 176.09665,115.89184 155.31731,131.08197 153.03351,132.75325 151.52844,135.21602 151.09182,138.02157 150.66099,140.82081 151.33962,143.62626 153.00986,145.91175 154.67989,148.19725 157.14094,149.70344 159.9383,150.14038 162.75312,150.57753 165.5446,149.8924 167.8286,148.22091 182.00404,137.85617 194.63919,144.03352 201.1367,152.44376 201.1367,152.44376 236.25107,197.64181 245.29216,202.43143 251.15835,205.53809 257.28421,207.33341 263.51016,207.76467 282.61947,209.08749 294.25712,198.55125 297.39701,184.11727 299.45635,174.65597 293.34247,162.83238 283.69341,158.56819 Z"
         id="path2" />
    </g>
    <g
       id="g36"
       aria-label="WORLD WIDE WEB CONSORTIUM"
       style="fill:#002a56"
       transform="matrix(0.23148147,0,0,0.23148147,8.5978736,-0.41666939)">
      <path
         d="M 334.16403,146.54462 348.14843,148.062 C 348.32861,148.0786 348.53096,148.0953 348.74994,148.1175 348.97169,148.1397 349.20177,148.1536 349.44015,148.1591 349.22117,148.2506 349.0105,148.34496 348.81092,148.44205 348.61134,148.53355 348.43117,148.62791 348.27316,148.72222 L 335.78837,155.16622 336.46472,158.73358 357.47597,160.87788 356.89109,157.79042 C 356.83289,157.46864 356.68874,157.20788 356.47253,157.00815 356.25078,156.80565 356.0207,156.69191 355.77677,156.66417 L 343.71886,155.90132 C 343.41395,155.87632 343.08409,155.85972 342.73205,155.84862 342.37724,155.83752 342.00303,155.83202 341.60942,155.83472 341.97532,155.68215 342.32181,155.52958 342.65167,155.37978 342.97876,155.23276 343.27813,155.08019 343.54978,154.92484 L 354.38249,149.27421 C 354.63474,149.13551 354.82046,148.94133 354.93133,148.69722 355.04775,148.45033 355.0727,148.15352 355.00613,147.80677 L 354.78715,146.65279 C 354.72895,146.33101 354.58757,146.0758 354.37136,145.87607 354.15238,145.67912 353.92231,145.56261 353.6756,145.52655 L 341.54285,144.21722 C 341.22408,144.16172 340.87759,144.13122 340.50892,144.11732 340.14025,144.10342 339.75218,144.09512 339.34748,144.08962 340.10976,143.79003 340.77225,143.49598 341.33773,143.21304 L 352.27578,138.10611 C 352.51971,137.97851 352.69989,137.78433 352.81631,137.52912 352.9355,137.27391 352.96045,136.97155 352.89391,136.62202 L 352.273,133.32096 333.49315,142.99111 334.16396,146.5446 Z"
         id="path3" />
      <path
         d="M 354.99233,168.33159 C 354.04987,167.49107 352.9411,166.85028 351.66601,166.41476 350.38538,165.97369 349.0105,165.77397 347.5386,165.8128 346.05284,165.8516 344.68628,166.12349 343.43337,166.63113 342.18046,167.13877 341.10495,167.83782 340.20407,168.7255 339.30319,169.61318 338.60744,170.67007 338.12235,171.8934 337.63726,173.11951 337.41274,174.4649 337.45154,175.94066 337.49034,177.41642 337.78417,178.75349 338.33579,179.94909 338.88463,181.14191 339.63583,182.15997 340.58383,182.99216 341.53183,183.82713 342.64338,184.46238 343.91847,184.8979 345.19633,185.32787 346.57675,185.5276 348.05974,185.48876 349.53441,185.44716 350.89543,185.17807 352.1428,184.67598 353.39017,184.17666 354.46568,183.48316 355.36656,182.60103 356.26744,181.71335 356.96319,180.66201 357.4566,179.4359 357.94446,178.21534 358.17176,176.8644 358.13295,175.39141 358.09135,173.91842 357.79755,172.58135 357.24039,171.38576 356.686,170.19017 355.93481,169.16934 354.99235,168.33159 Z M 354.31875,177.89634 C 354.01661,178.61203 353.5731,179.22231 352.98822,179.73273 352.40057,180.24315 351.68264,180.63983 350.83443,180.92555 349.98899,181.21405 349.0299,181.37216 347.95162,181.3999 346.86502,181.4304 345.8893,181.325 345.02169,181.08366 344.15962,180.83955 343.41951,180.4817 342.81246,180.00458 342.20541,179.52746 341.73418,178.93937 341.40155,178.24032 341.06615,177.54127 340.88874,176.74514 340.86379,175.84913 340.84159,174.95313 340.97744,174.1459 341.27404,173.42743 341.57064,172.70896 342.0086,172.09314 342.59071,171.58272 343.17004,171.07508 343.88797,170.6784 344.73896,170.3899 345.58994,170.10418 346.56012,169.94606 347.64672,169.91832 348.725,169.88782 349.69241,169.99602 350.55171,170.23456 351.41378,170.4759 352.15112,170.83652 352.76371,171.31642 353.37631,171.79077 353.85031,172.38163 354.18848,173.08346 354.52666,173.78806 354.7096,174.58697 354.73455,175.48297 354.75675,176.3762 354.61813,177.18066 354.31876,177.89635 Z"
         id="path4" />
      <path
         d="M 337.1882,193.28925 344.93575,194.09648 344.79715,195.44464 C 344.76115,195.79139 344.68073,196.04937 344.56154,196.22968 344.43957,196.40444 344.25108,196.55424 343.99329,196.68184 L 337.33511,199.69995 C 336.76132,199.98845 336.44532,200.4517 336.37879,201.08972 L 336.00458,204.68482 343.81312,200.9427 C 344.11526,200.77903 344.37582,200.59872 344.59481,200.39622 344.81934,200.19372 345.0106,199.97457 345.17969,199.73323 345.34323,200.41563 345.58716,201.03146 345.91702,201.57516 346.24134,202.12164 346.63218,202.59322 347.08678,202.99267 347.54138,203.39212 348.05418,203.71391 348.6252,203.9608 349.19899,204.20214 349.81436,204.35748 350.46854,204.42683 351.33061,204.51563 352.1317,204.45453 352.88012,204.24929 353.62854,204.03847 354.28826,203.65565 354.87037,203.09808 355.44693,202.53773 355.93479,201.79153 356.32009,200.86224 356.70539,199.93018 356.97149,198.79284 357.11286,197.44468 L 357.73932,191.37517 337.60123,189.28635 337.18821,193.28923 Z M 347.77144,194.39052 354.26054,195.0646 354.0471,197.12845 C 353.91682,198.38507 353.55647,199.28385 352.96327,199.83865 352.37008,200.39068 351.58285,200.6126 350.60158,200.51273 350.10818,200.46283 349.65635,200.34074 349.25165,200.14934 348.84695,199.96071 348.506,199.69718 348.23435,199.36152 347.96824,199.02864 347.76867,198.61254 347.6467,198.12709 347.51919,197.63887 347.49424,197.07297 347.5608,196.42108 L 347.77147,194.39051 Z"
         id="path5" />
      <polygon
         points="355.14479,211.92219 335.33932,207.72235 333.04971,218.52707 336.27347,219.21225 337.72873,212.33274 354.31043,215.84739 "
         id="polygon5" />
      <path
         d="M 329.92851,228.91569 C 329.46283,230.31656 329.27433,231.6675 329.36858,232.97405 329.46008,234.2806 329.79546,235.47897 330.37202,236.58025 330.95135,237.67598 331.75799,238.6441 332.79469,239.47908 333.82585,240.31683 335.04827,240.96594 336.45641,241.43752 337.85624,241.90078 339.21726,242.10605 340.53947,242.05335 341.86723,242.00065 343.0841,241.7066 344.20397,241.17399 345.32383,240.63861 346.31064,239.87576 347.16717,238.88544 348.02093,237.89235 348.67787,236.69676 349.14079,235.29866 L 351.46644,228.28877 332.2514,221.9058 329.92852,228.91569 Z M 332.95269,229.91988 334.00602,226.73256 347.18656,231.10993 346.13323,234.29725 C 345.85049,235.14609 345.44579,235.86178 344.91912,236.43323 344.39245,237.00745 343.76322,237.43464 343.03975,237.71482 342.3135,237.99222 341.50687,238.12537 340.61431,238.10595 339.71898,238.08935 338.75989,237.909 337.73982,237.56779 336.70589,237.22936 335.82719,236.79384 335.09262,236.27511 334.36083,235.75082 333.78704,235.16274 333.37402,234.5053 332.961,233.84786 332.71707,233.13217 332.63946,232.35545 332.56466,231.5815 332.66716,230.76872 332.95269,229.91988 Z"
         id="path6-5" />
      <path
         d="M 318.19769,256.09532 327.73868,266.43956 C 327.86342,266.57271 327.99924,266.71696 328.1517,266.88063 328.30693,267.04152 328.47047,267.20241 328.64788,267.36331 328.41781,267.29121 328.19883,267.22184 327.98816,267.16358 327.77472,267.10258 327.57791,267.05539 327.40051,267.01933 L 313.75706,263.66279 311.92204,266.79463 326.34441,282.23192 327.93273,279.5245 C 328.09905,279.24155 328.16557,278.95306 328.13231,278.65624 328.09901,278.35942 327.99926,278.12363 327.83294,277.9461 L 319.25104,269.43548 C 319.03483,269.21633 318.79921,268.98609 318.54143,268.74198 318.28087,268.50064 318.0009,268.25653 317.70431,267.99855 318.07852,268.12061 318.43887,268.23711 318.78536,268.33975 319.13185,268.44239 319.45894,268.52283 319.76385,268.58664 L 331.63881,271.45773 C 331.92155,271.51593 332.18488,271.49103 332.43158,271.38283 332.67828,271.27464 332.89172,271.06659 333.0719,270.75868 L 333.66509,269.74617 C 333.83141,269.466 333.89516,269.18027 333.85913,268.889 333.82583,268.59496 333.72885,268.35362 333.56531,268.16776 L 325.28832,259.19943 C 325.07765,258.947 324.84204,258.69734 324.57316,258.4449 324.30151,258.18969 324.016,257.92894 323.71663,257.65708 324.48446,257.93171 325.17744,258.15085 325.79004,258.30897 L 337.38781,261.65441 C 337.65669,261.71821 337.91725,261.69051 338.17227,261.57671 338.43006,261.4602 338.64904,261.24938 338.82922,260.94424 L 340.52564,258.04819 320.02165,252.97732 318.19772,256.09529 Z"
         id="path7" />
      <rect
         x="311.21722"
         y="271.97162"
         width="4.0249701"
         height="20.251511"
         transform="rotate(-52.57919,313.22973,282.09739)"
         id="rect7" />
      <path
         d="M 295.83373,287.09196 C 294.83029,288.17382 294.10127,289.32503 293.63836,290.55113 293.17822,291.77724 292.98696,293.01167 293.05625,294.24887 293.12835,295.48885 293.45818,296.70386 294.05137,297.8939 294.64456,299.08394 295.48446,300.18522 296.57106,301.19773 297.64934,302.20469 298.80247,302.95367 300.03043,303.45854 301.25562,303.96063 302.48913,304.20197 303.72819,304.18255 304.97002,304.16315 306.18412,303.88018 307.37051,303.33093 308.55967,302.78445 309.65458,301.97167 310.66079,300.89259 L 315.6863,295.48607 300.862,281.68821 295.83371,287.09196 Z M 308.33515,298.73165 C 307.7281,299.38631 307.06283,299.86621 306.3449,300.16858 305.6242,300.47372 304.87855,300.59855 304.10518,300.55417 303.32904,300.50697 302.53904,300.28509 301.73518,299.89951 300.92855,299.50838 300.13023,298.9508 299.343,298.21292 298.54746,297.47226 297.92377,296.71496 297.47472,295.93547 297.02567,295.15598 296.75125,294.37926 296.64591,293.61363 296.54335,292.83968 296.62101,292.08793 296.87321,291.35282 297.12546,290.61771 297.55788,289.91866 298.1677,289.26677 L 300.45177,286.80901 310.61922,296.27389 Z"
         id="path8-5" />
      <polygon
         points="283.97263,310.04956 285.95734,312.38527 290.89692,308.19098 294.35907,312.27708 288.01134,317.66419 290.07366,320.09698 299.48991,312.10232 286.38976,296.65393 276.9735,304.64859 279.02196,307.08971 285.38355,301.68874 288.91499,305.85528 "
         id="polygon8" />
      <path
         d="M 260.17559,315.99979 263.1083,329.76714 C 263.1443,329.94468 263.1915,330.13886 263.24135,330.35523 263.28845,330.5716 263.34946,330.7963 263.41875,331.02654 263.26075,330.84623 263.10552,330.67702 262.95307,330.51335 262.80339,330.35523 262.65647,330.21376 262.52065,330.09448 L 252.50288,320.23847 249.32624,321.99441 253.85281,342.63572 256.60534,341.11557 C 256.88808,340.95745 257.0932,340.74663 257.21517,340.47478 257.33714,340.20015 257.37317,339.94772 257.32328,339.70638 L 254.28247,328.00566 C 254.21037,327.70607 254.12447,327.38983 254.02191,327.04863 253.92211,326.7102 253.81124,326.35513 253.68651,325.98064 253.94153,326.28023 254.19377,326.56318 254.44048,326.82671 254.68441,327.09024 254.92557,327.33158 255.15564,327.53963 L 263.90386,336.07245 C 264.1173,336.2694 264.35569,336.38314 264.62179,336.41365 264.89344,336.44695 265.18172,336.37755 265.49218,336.2056 L 266.52057,335.6397 C 266.80331,335.48158 267.00566,335.26798 267.12208,334.99891 267.24405,334.72983 267.28285,334.47185 267.24127,334.23051 L 264.69109,322.28845 C 264.64119,321.96667 264.56635,321.62824 264.46102,321.27594 264.35846,320.91809 264.24481,320.54638 264.12839,320.16079 264.64951,320.79049 265.13183,321.32864 265.58088,321.7808 L 273.84678,330.57992 C 274.04636,330.77133 274.28475,330.88229 274.56194,330.91557 274.83913,330.94607 275.1385,330.87677 275.44619,330.70475 L 278.38444,329.08196 263.34116,314.25217 260.17561,315.99979 Z"
         id="path9" />
      <polygon
         points="234.4077,337.37621 235.48598,340.24452 241.55097,337.95875 243.43588,342.96859 235.64952,345.90903 236.76938,348.89385 248.32557,344.5359 241.18785,325.57563 229.63166,329.93358 230.74043,332.92117 238.54342,329.98073 240.46714,335.09044 "
         id="polygon9" />
      <path
         d="M 218.4774,333.04045 C 217.36585,333.32617 216.41231,333.72563 215.62785,334.23604 214.84062,334.74923 214.21971,335.34009 213.76511,336.00585 213.31328,336.67438 213.025,337.3984 212.90304,338.18899 212.77553,338.97681 212.82264,339.78959 213.03609,340.62456 213.6182,342.90201 215.25641,344.02271 217.94241,343.98387 217.41574,344.33894 216.98055,344.72175 216.63683,345.1323 216.29588,345.5373 216.04086,345.95895 215.86623,346.38892 215.69437,346.82444 215.59735,347.26828 215.57518,347.72321 215.55858,348.18092 215.60848,348.63308 215.72209,349.08802 215.92721,349.88693 216.24321,350.57766 216.67009,351.15465 217.0942,351.73164 217.64858,352.17548 218.33048,352.48339 219.01238,352.7913 219.83287,352.95497 220.79196,352.97161 221.75105,352.98821 222.85982,352.83291 224.12105,352.51113 L 230.78201,350.80235 225.75927,331.17632 Z M 218.07824,341.47618 C 217.76778,341.31529 217.51831,341.08505 217.31873,340.78823 217.12469,340.49141 216.97501,340.14189 216.86968,339.73966 216.77268,339.3624 216.72831,338.98791 216.7394,338.61342 216.7505,338.23616 216.8392,337.88663 217.01105,337.5593 217.18568,337.23197 217.4601,336.93515 217.83154,336.67439 218.20298,336.41086 218.70193,336.19726 219.32007,336.03914 L 222.64362,335.18475 224.05731,340.69946 220.75039,341.5483 C 220.1572,341.6981 219.64162,341.76467 219.20088,341.74803 218.76291,341.72863 218.3887,341.63707 218.07825,341.47618 Z M 223.35877,349.52354 C 222.25554,349.80649 221.39347,349.80926 220.7781,349.53154 220.16273,349.25414 219.72199,348.61335 219.46698,347.60916 219.21751,346.64103 219.3367,345.87541 219.82179,345.30397 220.30411,344.7353 221.09134,344.3081 222.18625,344.02793 L 224.7392,343.37327 226.13348,348.81308 Z"
         id="path10" />
      <path
         d="M 200.38499,342.69674 C 199.86941,341.47063 199.19029,340.43038 198.35039,339.57599 197.50772,338.72437 196.52091,338.08635 195.38442,337.66748 194.24793,337.24583 192.99501,337.09049 191.62845,337.20422 190.11775,337.33182 188.83711,337.70909 187.78378,338.33878 186.73045,338.9657 185.87669,339.82564 185.2336,340.91028 L 186.97437,342.49423 C 187.13791,342.64403 187.32641,342.70783 187.53984,342.69118 187.65349,342.68318 187.75882,342.64678 187.86138,342.58022 187.96118,342.51642 188.06096,342.44152 188.1552,342.34998 188.38527,342.05594 188.62088,341.80628 188.85927,341.60377 189.09766,341.39849 189.35267,341.22651 189.63541,341.08503 189.9126,340.94633 190.21752,340.83814 190.54738,340.76325 190.87724,340.69115 191.24868,340.63565 191.66447,340.60236 192.363,340.54136 193.02826,340.64396 193.66303,340.90195 194.2978,341.15993 194.86605,341.56771 195.36222,342.12251 195.86394,342.67731 196.27973,343.37358 196.61791,344.2141 196.95331,345.05185 197.16675,346.02829 197.25823,347.13235 197.34973,348.2253 197.31363,349.21285 197.14458,350.08943 196.98104,350.96601 196.70384,351.71777 196.31577,352.34746 195.9277,352.97715 195.44538,353.47093 194.86328,353.83155 194.28395,354.1894 193.62145,354.40022 192.88412,354.46402 192.20222,354.51952 191.64229,354.48622 191.19047,354.35861 190.74142,354.23378 190.36721,354.08676 190.05952,353.91754 189.75738,353.7511 189.49682,353.59298 189.28615,353.44596 189.07548,353.30171 188.86482,353.23514 188.65138,353.25455 188.43794,353.27115 188.27717,353.33225 188.16629,353.43209 188.06096,353.53473 187.96394,353.64291 187.88355,353.7622 L 186.70271,355.74561 C 187.46499,356.47795 188.39082,357.04107 189.47464,357.43497 190.55846,357.82887 191.77534,357.97035 193.13359,357.85662 194.46966,357.74289 195.67545,357.38781 196.74819,356.78863 197.81816,356.18945 198.71626,355.39886 199.44251,354.41964 200.16598,353.44319 200.69542,352.30308 201.03083,351.00208 201.36623,349.70385 201.47157,348.30021 201.34406,346.79115 201.22209,345.29042 200.90055,343.92838 200.38497,342.69673 Z"
         id="path11" />
      <path
         d="M 180.27462,340.74662 C 179.45136,339.78404 178.44514,339.02119 177.25876,338.45252 176.07514,337.88108 174.74462,337.56484 173.27272,337.50381 171.79805,337.44001 170.44812,337.64251 169.21738,338.11132 167.98941,338.57735 166.92222,339.25698 166.02411,340.14189 165.12878,341.03234 164.41916,342.10033 163.89804,343.34586 163.37969,344.58861 163.08864,345.95619 163.02488,347.43751 162.96388,348.9105 163.13853,350.28918 163.55432,351.56799 163.96734,352.8468 164.58548,353.9675 165.4032,354.9273 166.22369,355.88988 167.22436,356.65827 168.41075,357.23527 169.59714,357.80671 170.92489,358.12572 172.39956,358.18953 173.87146,358.25053 175.22139,358.04528 176.45213,357.5737 177.68287,357.09935 178.75006,356.42249 179.65371,355.54036 180.55459,354.65545 181.26698,353.59301 181.79364,352.34749 182.32031,351.09919 182.61413,349.73993 182.67511,348.26971 182.73611,346.78562 182.55869,345.4014 182.14013,344.11426 181.72157,342.8299 181.10066,341.7092 180.27462,340.74663 Z M 178.05984,350.97434 C 177.76047,351.81764 177.35023,352.52778 176.83465,353.10477 176.3163,353.68454 175.69261,354.12005 174.96914,354.40855 174.24567,354.69982 173.43626,354.82742 172.5437,354.78859 171.64837,354.74979 170.85559,354.55557 170.16538,354.20882 169.46962,353.8593 168.89029,353.37385 168.42461,352.75247 167.95615,352.13109 167.60966,351.38766 167.37959,350.52218 167.15229,349.65947 167.06082,348.68857 167.10517,347.61226 167.15227,346.52208 167.32692,345.55395 167.62629,344.70788 167.92566,343.85904 168.3359,343.15167 168.85426,342.57745 169.37261,342.00323 169.98798,341.57326 170.70868,341.28754 171.42938,341.00459 172.23324,340.87976 173.12581,340.91582 174.02114,340.95462 174.81669,341.14606 175.51244,341.49281 176.21097,341.83401 176.79585,342.31669 177.26153,342.93251 177.72999,343.54834 178.07648,344.28899 178.30378,345.15726 178.53108,346.0283 178.62255,347.00752 178.5782,348.09492 178.5311,349.174 178.35922,350.13381 178.05985,350.97433 Z"
         id="path12-4" />
      <path
         d="M 154.26002,347.97565 C 154.16022,348.50548 154.08539,349.08802 154.03272,349.72049 L 146.60948,335.06269 C 146.45425,334.78529 146.28516,334.57724 146.10222,334.43299 145.91373,334.29152 145.66703,334.19165 145.35657,334.13617 L 143.33306,333.76168 139.67688,353.69285 143.14457,354.3281 145.2845,342.65235 C 145.38983,342.06149 145.47576,341.43179 145.53675,340.76048 L 152.97107,355.49595 C 153.05977,355.64575 153.13739,355.77058 153.20668,355.86489 153.27598,355.96199 153.35636,356.03965 153.44229,356.10068 153.52819,356.16448 153.63355,356.21441 153.74997,356.25048 153.86639,356.28658 154.00776,356.32258 154.17685,356.35312 L 156.24748,356.73316 159.90089,336.80199 156.42489,336.16397 154.26001,347.97565 Z"
         id="path13" />
      <path
         d="M 136.98811,332.45791 C 136.5252,332.064 136.02071,331.7228 135.48018,331.42044 134.94242,331.12085 134.37972,330.87951 133.79762,330.70197 132.76646,330.38296 131.80183,330.26368 130.89818,330.34412 129.99453,330.42452 129.17958,330.66313 128.44779,331.05981 127.72154,331.45649 127.09509,331.99742 126.56842,332.67428 126.0473,333.35391 125.64814,334.13063 125.37649,335.00444 125.12702,335.81167 125.03277,336.53014 125.09652,337.17093 125.16022,337.80895 125.32936,338.38317 125.60101,338.89081 125.87543,339.40123 126.22192,339.86448 126.64048,340.27503 127.06181,340.68836 127.50532,341.07117 127.97101,341.42346 128.43392,341.77576 128.89129,342.11141 129.34034,342.43319 129.78939,342.7522 130.18024,343.07676 130.50732,343.40686 130.83718,343.73697 131.07557,344.08372 131.22525,344.44433 131.37216,344.80772 131.38048,345.20441 131.24465,345.63992 131.03121,346.33065 130.6376,346.82164 130.06103,347.11291 129.48724,347.40418 128.76377,347.4125 127.89061,347.14061 127.39443,346.98804 126.97864,346.78276 126.64324,346.53033 126.30784,346.2779 126.01956,346.02546 125.78117,345.7758 125.54556,345.52891 125.3432,345.30145 125.17134,345.10172 125.00225,344.89644 124.82208,344.76607 124.63913,344.71059 124.44232,344.64959 124.26769,344.63849 124.11246,344.68289 123.95446,344.72449 123.79923,344.82714 123.64123,344.9908 L 122.10558,346.49431 C 122.57404,347.35425 123.22544,348.11155 124.05979,348.76621 124.89414,349.4181 125.86432,349.91464 126.97309,350.25862 127.95435,350.56376 128.87464,350.67472 129.73394,350.59427 130.59324,350.51657 131.36661,350.29468 132.05405,349.93406 132.73872,349.57067 133.32637,349.09631 133.80314,348.50268 134.28546,347.91182 134.63472,347.2627 134.85647,346.55256 135.13366,345.65933 135.24454,344.87429 135.19465,344.20021 135.14475,343.52335 134.98676,342.9214 134.72342,342.39434 134.46286,341.86451 134.11914,341.39847 133.6978,340.99625 133.27369,340.59402 132.83018,340.2223 132.3645,339.88665 131.90159,339.551 131.43867,339.23199 130.98685,338.92407 130.53225,338.61893 130.14418,338.29992 129.81987,337.97259 129.49833,337.64526 129.26548,337.28464 129.12411,336.90183 128.97997,336.51624 128.98829,336.07518 129.14071,335.58141 129.40959,334.7076 129.85864,334.11951 130.48233,333.82547 131.10879,333.52865 131.85444,333.51478 132.7276,333.78387 133.33188,333.97528 133.82529,334.22494 134.20504,334.5384 134.58479,334.85741 134.90634,335.17087 135.1669,335.49266 135.43023,335.81444 135.6603,336.10571 135.85157,336.35815 136.04283,336.61613 136.2535,336.78257 136.48634,336.8547 136.66374,336.9074 136.83838,336.9157 137.01855,336.8741 137.19318,336.8325 137.34841,336.75204 137.48146,336.63276 L 139.18065,335.16532 C 138.94226,334.666 138.63458,334.1861 138.25482,333.72562 137.87507,333.27068 137.45373,332.84626 136.98805,332.4579 Z"
         id="path14" />
      <path
         d="M 119.04539,326.24138 C 118.15837,325.27325 117.03574,324.48544 115.69135,323.88626 114.34696,323.28153 113.01643,322.97084 111.69977,322.95142 110.38587,322.92642 109.14405,323.16502 107.98538,323.65879 106.82117,324.15534 105.77061,324.88212 104.82538,325.84747 103.88292,326.81282 103.10678,327.96958 102.49973,329.32884 101.89822,330.67423 101.5545,332.01684 101.4658,333.35946 101.3799,334.70485 101.5379,335.97257 101.94534,337.16816 102.35004,338.36375 102.9959,339.44839 103.88847,340.42206 104.77826,341.39296 105.89535,342.18077 107.23974,342.78551 108.5869,343.38747 109.9202,343.69538 111.23687,343.71203 112.55354,343.72593 113.79536,343.49011 114.95958,343.00189 116.12379,342.51921 117.1799,341.7952 118.1279,340.82985 119.0759,339.86727 119.85204,338.71329 120.45355,337.36513 121.05783,336.01142 121.40432,334.66048 121.49025,333.30955 121.57615,331.96139 121.41265,330.68812 121.00239,329.48698 120.59214,328.29139 119.93797,327.20953 119.04541,326.2414 Z M 117.53745,332.86292 C 117.43212,333.75337 117.15492,334.69653 116.70864,335.68962 116.2679,336.67439 115.75232,337.50381 115.16467,338.17512 114.57425,338.84365 113.93116,339.35684 113.23818,339.70082 112.54242,340.04757 111.80509,340.22233 111.02341,340.22233 110.2445,340.22533 109.44618,340.04202 108.63123,339.67863 107.81351,339.31246 107.14825,338.84088 106.63267,338.25834 106.11986,337.6758 105.76228,337.01004 105.55716,336.26106 105.35204,335.51208 105.30214,334.69375 105.40748,333.80607 105.51836,332.91839 105.79001,331.98078 106.23074,330.99878 106.67425,330.00569 107.1926,329.16794 107.78579,328.49386 108.37621,327.817 109.0193,327.30936 109.71228,326.96539 110.40526,326.62419 111.13983,326.4522 111.91319,326.45497 112.68379,326.45497 113.4821,326.63805 114.29705,327.00422 115.11477,327.37039 115.78003,327.84197 116.30116,328.42173 116.82506,328.99872 117.18818,329.66171 117.3933,330.40514 117.60119,331.15135 117.64832,331.96967 117.53744,332.8629 Z"
         id="path15" />
      <path
         d="M 100.17129,316.15236 96.10486,322.80441 94.94896,322.09704 C 94.65236,321.91673 94.45278,321.73365 94.34191,321.54779 94.23658,321.36193 94.18114,321.12614 94.17837,320.84042 L 94.32528,313.52539 C 94.31142,312.8846 94.03146,312.39637 93.48538,312.06072 L 90.40299,310.17718 90.41685,318.84037 C 90.43071,319.18157 90.48338,319.49781 90.57208,319.7863 90.65801,320.06925 90.77166,320.33833 90.9158,320.59353 90.22836,320.44651 89.57141,320.4049 88.93941,320.46593 88.30464,320.52693 87.71144,320.67398 87.15429,320.90977 86.5999,321.15111 86.0871,321.47567 85.62141,321.88622 85.15573,322.29955 84.75102,322.78777 84.40453,323.35089 83.9527,324.086 83.66442,324.84053 83.5286,325.60338 83.39278,326.369 83.45376,327.13185 83.70878,327.89748 83.9638,328.65756 84.42394,329.41486 85.10029,330.16938 85.7711,330.92113 86.68584,331.65069 87.83896,332.35529 L 93.03633,335.53984 103.60294,318.25784 100.17129,316.15238 Z M 91.21241,330.80738 89.44392,329.7283 C 88.37118,329.06809 87.71146,328.3524 87.46753,327.57845 87.22637,326.8045 87.3622,325.9945 87.875,325.15398 88.13833,324.72956 88.44047,324.37449 88.78419,324.09431 89.13068,323.80859 89.51321,323.61996 89.93454,323.51454 90.35033,323.41464 90.81047,323.41464 91.30387,323.51154 91.7945,323.61418 92.3184,323.83055 92.87556,324.17175 L 94.61911,325.23696 91.2124,330.80715 Z"
         id="path16" />
      <polygon
         points="84.95338,305.98566 81.79061,303.53899 71.4014,316.98178 67.08273,313.64189 65.08694,316.22448 76.88151,325.35371 78.88008,322.76834 74.5614,319.42567 "
         id="polygon16" />
      <rect
         x="56.381241"
         y="301.77063"
         width="20.252621"
         height="4.02633"
         transform="rotate(-47.54068,66.507534,303.78377)"
         id="rect16-1" />
      <path
         d="M 64.06132,294.30435 C 64.56304,293.32513 64.85132,292.31539 64.91785,291.2696 64.98715,290.22658 64.82638,289.17523 64.43553,288.11002 64.04192,287.04758 63.40991,286.02952 62.53398,285.0503 61.66082,284.07663 60.71836,283.3332 59.70938,282.83388 58.70317,282.33179 57.67478,282.05439 56.62976,282.01 55.58474,281.9628 54.55081,282.13483 53.52242,282.52874 52.4968,282.92265 51.53217,283.52738 50.62298,284.34016 L 41.62806,292.4014 44.29189,295.3779 53.28681,287.31944 C 53.84951,286.81735 54.42053,286.43731 55.01372,286.1821 55.60137,285.92689 56.18348,285.79929 56.75727,285.79651 57.32829,285.79651 57.88545,285.92411 58.42875,286.1821 58.97205,286.43731 59.48208,286.83122 59.95886,287.36382 60.43009,287.89365 60.76549,288.4429 60.9623,289.01157 61.15911,289.58024 61.22286,290.14891 61.16188,290.72035 61.09535,291.28625 60.90409,291.85214 60.58532,292.40971 60.26655,292.96728 59.82858,293.49712 59.26588,294.00198 L 50.27373,302.06322 52.94587,305.05082 61.94356,296.98958 C 62.85275,296.1768 63.55683,295.28357 64.06132,294.30435 Z"
         id="path17" />
      <path
         d="M 51.75948,272.32597 41.11248,279.19439 C 40.87409,279.35251 40.62185,279.52727 40.35297,279.72145 40.08409,279.9184 39.82076,280.12645 39.55188,280.35115 L 45.60578,268.74197 C 45.92732,268.15943 45.92178,267.60463 45.58638,267.08589 L 45.28147,266.60876 C 44.95161,266.09557 44.45266,265.8681 43.78463,265.92358 L 30.81476,266.6892 C 31.11413,266.53386 31.40241,266.37296 31.68238,266.21485 31.9568,266.05118 32.21182,265.89861 32.44466,265.74882 L 43.08888,258.87485 41.17625,255.91222 24.16767,266.89725 25.80034,269.43546 C 25.89736,269.58248 25.98329,269.70731 26.06367,269.81272 26.14405,269.91813 26.22444,270.00413 26.31314,270.0707 26.3963,270.1373 26.49886,270.18166 26.61805,270.20663 26.74002,270.23433 26.88416,270.23993 27.05602,270.22603 L 39.63228,269.52976 C 39.99263,269.50476 40.35298,269.46036 40.71611,269.39383 41.07923,269.33003 41.4479,269.2579 41.82488,269.18855 41.38137,269.77386 40.98498,270.38692 40.63572,271.02771 L 34.81743,282.26517 C 34.7315,282.41497 34.67883,282.54812 34.65666,282.66463 34.63449,282.78114 34.63726,282.89765 34.66216,283.00861 34.68434,283.11957 34.72591,283.23053 34.7869,283.34426 34.84511,283.45799 34.92272,283.5856 35.01697,283.72985 L 36.66073,286.28193 53.67486,275.29967 51.75945,272.32594 Z"
         id="path18-8" />
      <path
         d="M 24.89668,209.13709 10.95663,207.2369 10.35789,207.162 C 10.13614,207.1343 9.90884,207.1148 9.67045,207.101 9.8922,207.015 10.10287,206.92901 10.30522,206.83747 10.50757,206.74867 10.68775,206.65993 10.85129,206.57117 L 23.50794,200.4767 22.93138,196.88992 1.98943,194.16585 2.48561,197.26995 C 2.54105,197.59173 2.67133,197.85526 2.88477,198.06331 3.09821,198.27413 3.32828,198.39342 3.56667,198.4267 L 15.6024,199.51965 C 15.90731,199.55575 16.23717,199.58065 16.58644,199.60005 16.94125,199.62225 17.31269,199.63615 17.70907,199.64725 17.33763,199.78872 16.98837,199.9302 16.65574,200.0689 16.32311,200.21037 16.0182,200.3574 15.74655,200.50164 L 4.75861,205.85268 C 4.50359,205.98583 4.3151,206.17446 4.19314,206.41303 4.07117,206.65437 4.03791,206.95119 4.09335,207.30348 L 4.28184,208.46301 C 4.33451,208.78479 4.46479,209.04555 4.67823,209.24805 4.89167,209.45055 5.11897,209.57538 5.3629,209.61977 L 17.45407,211.26198 C 17.77284,211.32298 18.11656,211.36739 18.48523,211.38958 18.8539,211.41178 19.24474,211.43118 19.6439,211.45058 18.87607,211.72798 18.20249,212.00261 17.63148,212.26891 L 6.55761,217.07625 C 6.31091,217.19831 6.12519,217.38416 6.00045,217.63382 5.87571,217.88625 5.84245,218.18862 5.89789,218.53814 L 6.4301,221.85307 25.47051,212.7072 24.89672,209.13707 Z"
         id="path19" />
      <path
         d="M 4.68097,186.83415 C 5.59848,187.69964 6.69062,188.36817 7.95739,188.84252 9.22139,189.31965 10.59073,189.55544 12.06262,189.55544 13.54838,189.55844 14.92048,189.32242 16.19003,188.85362 17.45403,188.37927 18.54895,187.71351 19.47754,186.84802 20.40059,185.98531 21.12407,184.95061 21.64519,183.73837 22.16354,182.52891 22.4241,181.18629 22.42688,179.71053 22.42688,178.23476 22.16909,176.89492 21.65074,175.68269 21.13516,174.47323 20.41446,173.43575 19.4914,172.57581 18.56557,171.71587 17.47343,171.05289 16.20666,170.58131 14.94266,170.1125 13.57055,169.87671 12.0848,169.87671 10.61013,169.87371 9.24357,170.10695 7.97957,170.57298 6.72111,171.03901 5.62897,171.702 4.70315,172.55916 3.77732,173.4191 3.05108,174.4538 2.52441,175.66604 2.00329,176.87273 1.73995,178.21534 1.73718,179.69111 1.73718,181.16688 1.99497,182.50672 2.51887,183.71895 3.03999,184.92841 3.7607,185.96866 4.68098,186.83415 Z M 5.62066,177.2916 C 5.93943,176.58423 6.39957,175.98505 7.00385,175.49128 7.60259,175.00028 8.32883,174.62024 9.18536,174.35672 10.03634,174.09319 11.00098,173.96281 12.07926,173.96559 13.16586,173.96559 14.13881,174.09874 15.00088,174.36505 15.85741,174.62858 16.58365,175.01139 17.17685,175.50239 17.77004,175.99616 18.22741,176.59812 18.54064,177.30549 18.85664,178.01286 19.01187,178.81177 19.01187,179.70777 19.01187,180.60377 18.85387,181.40823 18.5351,182.11837 18.2191,182.83129 17.7645,183.43047 17.16854,183.92702 16.57535,184.41802 15.84633,184.79528 14.98703,185.05881 14.12773,185.32234 13.15201,185.45549 12.06818,185.45272 10.99267,185.45272 10.02527,185.31957 9.17151,185.05326 8.31775,184.78696 7.59151,184.40969 6.99277,183.91315 6.39403,183.41938 5.93389,182.81465 5.61235,182.1045 5.29358,181.39436 5.13558,180.58712 5.13835,179.6939 5.13835,178.7979 5.30189,177.99899 5.62067,177.29162 Z"
         id="path20" />
      <path
         d="M 23.16699,162.37027 15.44438,161.34944 15.62178,160.00405 C 15.66613,159.66285 15.75206,159.40209 15.8768,159.2301 16.00154,159.05811 16.19557,158.91109 16.45613,158.79181 L 23.19747,155.95678 C 23.77403,155.68215 24.10666,155.22999 24.18982,154.59475 L 24.66105,151.01075 16.7555,154.5365 C 16.44782,154.69184 16.18171,154.86661 15.95718,155.06356 15.72988,155.25774 15.5303,155.47411 15.35844,155.70713 15.20876,155.01918 14.98423,154.40335 14.671,153.84578 14.36054,153.29375 13.98356,152.81108 13.54005,152.39775 13.09654,151.9872 12.59205,151.64877 12.02657,151.38802 11.4611,151.13004 10.85127,150.95805 10.19709,150.87206 9.33779,150.7611 8.53393,150.79716 7.77996,150.98302 7.03154,151.17443 6.35519,151.53782 5.76199,152.07875 5.1688,152.62245 4.6643,153.35479 4.25129,154.27298 3.83827,155.19395 3.54168,156.32296 3.36704,157.6628 L 2.56872,163.71566 22.64029,166.36205 23.16696,162.37027 Z M 12.61701,160.97773 6.14732,160.12611 6.41897,158.0678 C 6.58251,156.81673 6.97058,155.92627 7.58041,155.38812 8.18746,154.85274 8.98024,154.65024 9.95873,154.78061 10.45213,154.84441 10.89842,154.97756 11.29757,155.18007 11.69396,155.3798 12.02659,155.65442 12.28992,155.99563 12.55048,156.33683 12.73897,156.75571 12.84708,157.2467 12.95796,157.7377 12.96905,158.30637 12.88589,158.94993 L 12.61701,160.97772 Z"
         id="path21" />
      <polygon
         points="5.74816,143.15757 25.42889,147.9122 28.02065,137.17128 24.81629,136.40011 23.16976,143.23524 6.68785,139.25733 "
         id="polygon21" />
      <path
         d="M 31.40241,126.9602 C 31.90413,125.57043 32.12588,124.22504 32.07322,122.91849 32.01778,121.60916 31.71287,120.3997 31.16403,119.28455 30.61796,118.17218 29.83627,117.18186 28.82729,116.31915 27.81831,115.45644 26.61252,114.76849 25.21823,114.26084 23.83226,113.75875 22.47679,113.51741 21.1518,113.53405 19.82682,113.55345 18.59608,113.80868 17.46513,114.31354 16.32864,114.81563 15.32243,115.55074 14.44095,116.51887 13.56225,117.487 12.87204,118.66594 12.36754,120.05017 L 9.8534,126.99349 28.88549,133.90074 Z M 28.40595,125.87002 27.26114,129.02405 14.20534,124.28884 15.35015,121.13481 C 15.65506,120.29151 16.07917,119.58969 16.6197,119.02935 17.163,118.47178 17.80332,118.06122 18.53511,117.80324 19.2669,117.54248 20.07908,117.43707 20.96887,117.47591 21.8642,117.52031 22.81498,117.72557 23.8295,118.09174 24.85234,118.46346 25.72273,118.91839 26.44066,119.46209 27.15582,120.00025 27.71298,120.60775 28.10936,121.27628 28.50297,121.94481 28.73027,122.66605 28.78017,123.44277 28.83561,124.21949 28.71087,125.03227 28.40596,125.87002 Z"
         id="path22" />
      <path
         d="M 43.86779,100.11345 34.60953,89.51123 C 34.48756,89.37808 34.35451,89.22828 34.20483,89.06184 34.05792,88.8954 33.89715,88.73173 33.72529,88.56529 33.95259,88.64574 34.1688,88.71786 34.37947,88.78166 34.59291,88.85101 34.78417,88.90372 34.96158,88.94255 L 48.50802,92.6708 50.42897,89.59166 36.43071,73.76601 34.77032,76.43182 C 34.59569,76.70645 34.52362,76.99217 34.54857,77.28899 34.57352,77.58581 34.66776,77.82992 34.82854,78.01023 L 43.17483,86.7511 C 43.38272,86.97857 43.6128,87.21436 43.86504,87.46124 44.12006,87.70813 44.39171,87.96611 44.67999,88.22964 44.31132,88.09371 43.95374,87.96888 43.61002,87.8607 43.2663,87.74419 42.94198,87.65542 42.63984,87.5833 L 30.84526,84.3932 C 30.56529,84.32385 30.29919,84.34327 30.05249,84.44313 29.80024,84.54577 29.58126,84.75104 29.39554,85.04786 L 28.77463,86.0465 C 28.6,86.3239 28.52793,86.60685 28.55288,86.90089 28.5806,87.19216 28.67207,87.43627 28.83007,87.62768 L 36.86313,96.81793 C 37.06271,97.07314 37.29278,97.33667 37.55889,97.59465 37.82222,97.85263 38.09665,98.12171 38.39324,98.40188 37.62819,98.10784 36.94629,97.86927 36.33647,97.69451 L 24.83295,94.03561 C 24.56684,93.96349 24.30351,93.9829 24.04295,94.08832 23.78516,94.19928 23.56063,94.40456 23.37214,94.70692 L 21.5981,97.55582 41.95518,103.18149 43.86781,100.11345 Z"
         id="path23" />
      <polygon
         points="58.71426,79.00333 42.978,66.25959 40.44722,69.39143 56.18349,82.13795 "
         id="polygon23" />
      <path
         d="M 67.0855,69.72154 C 68.11666,68.66742 68.88171,67.5384 69.37234,66.32339 69.86574,65.11115 70.09581,63.88505 70.05978,62.64507 70.02374,61.40509 69.72438,60.18176 69.16445,58.9723 68.60452,57.76839 67.79234,56.64492 66.73624,55.60189 65.68568,54.56996 64.55196,53.78492 63.34062,53.24677 62.12929,52.71139 60.90132,52.43676 59.66504,52.42289 58.42599,52.40625 57.20356,52.65591 56.00054,53.1691 54.79475,53.68506 53.67766,54.46733 52.6465,55.52145 L 47.47407,60.7865 61.9103,74.98659 Z M 54.9084,57.74342 C 55.53486,57.1054 56.21121,56.64492 56.93746,56.3592 57.66371,56.07903 58.4149,55.97361 59.18827,56.04019 59.96164,56.10954 60.74332,56.3481 61.53887,56.75866 62.33442,57.16922 63.1161,57.75175 63.88115,58.50905 64.66006,59.26913 65.2588,60.04584 65.68845,60.83643 66.11256,61.62979 66.37035,62.41206 66.45073,63.18323 66.53389,63.9544 66.43687,64.70615 66.16245,65.43849 65.88803,66.16528 65.4362,66.84768 64.81252,67.4857 L 62.46192,69.88243 52.55503,60.13738 Z"
         id="path24" />
      <polygon
         points="79.54534,47.11624 77.62993,44.72505 72.5767,48.78063 69.2282,44.60577 75.72007,39.39065 73.72705,36.90515 64.09458,44.63906 76.76232,60.44252 86.39756,52.70861 84.41563,50.21202 77.90713,55.43545 74.49488,51.17459 "
         id="polygon24-8" />
      <path
         d="M 103.47821,41.84009 100.92526,27.99784 C 100.89476,27.8203 100.85316,27.62612 100.80884,27.40698 100.76444,27.18784 100.71184,26.96314 100.65084,26.73012 100.80052,26.91598 100.95021,27.09074 101.09989,27.25441 101.24957,27.41808 101.38817,27.56232 101.52122,27.68715 L 111.26734,37.81501 114.48833,36.14506 110.52724,15.38446 107.73868,16.82694 C 107.4504,16.97951 107.23696,17.18756 107.10668,17.45386 106.9764,17.72571 106.93482,17.97815 106.97917,18.21948 L 109.70121,30.00065 C 109.76491,30.30302 109.84258,30.61925 109.93405,30.96323 110.02275,31.30721 110.12531,31.66228 110.24173,32.04231 109.99226,31.7344 109.74833,31.44313 109.50994,31.17405 109.27155,30.9022 109.03871,30.65809 108.81696,30.44449 L 100.30435,21.67311 C 100.09646,21.47061 99.85807,21.34855 99.59196,21.31249 99.32308,21.27088 99.03203,21.33191 98.7188,21.49557 L 97.67378,22.0365 C 97.3855,22.1863 97.18038,22.39435 97.05287,22.66065 96.92813,22.92418 96.88101,23.17939 96.91705,23.4235 L 99.13737,35.43213 C 99.17895,35.75669 99.24548,36.09234 99.33972,36.45573 99.43397,36.8108 99.53653,37.18529 99.64463,37.57642 99.14014,36.93008 98.67168,36.37805 98.23926,35.9148 L 90.21451,26.89376 C 90.0177,26.69403 89.78209,26.57752 89.5049,26.53591 89.22771,26.49985 88.93111,26.5581 88.61511,26.72177 L 85.63528,28.26689 100.26831,43.50168 103.47821,41.84006 Z"
         id="path25" />
      <polygon
         points="129.86424,21.16272 128.8608,18.26389 122.7376,20.386 120.98851,15.32345 128.85526,12.60216 127.81301,9.58683 116.14317,13.62854 122.76255,32.77467 134.43516,28.73296 133.404,25.71485 125.52339,28.44446 123.74104,23.28483 "
         id="polygon25" />
      <path
         d="M 145.64208,25.92845 C 146.76471,25.67602 147.7238,25.30153 148.52212,24.81053 149.32321,24.32231 149.96075,23.74809 150.43198,23.0962 150.90044,22.43876 151.21089,21.7203 151.35503,20.93526 151.49917,20.15022 151.477,19.33744 151.28293,18.49414 150.76181,16.20282 149.15963,15.04051 146.47363,15.00445 147.01139,14.66602 147.45489,14.29708 147.80693,13.89763 148.15897,13.50095 148.42784,13.08485 148.61079,12.65765 148.79651,12.23045 148.90461,11.78661 148.93788,11.33168 148.96838,10.87674 148.93188,10.41903 148.827,9.96133 148.64682,9.15964 148.34746,8.46337 147.93998,7.87528 147.52973,7.28442 146.98644,6.82671 146.31286,6.49938 145.63928,6.17482 144.82433,5.98896 143.86524,5.94458 142.90615,5.90297 141.79461,6.0278 140.52783,6.3163 L 133.81975,7.84477 138.31583,27.5984 Z M 146.26577,17.50936 C 146.57345,17.68135 146.81738,17.91714 147.00865,18.21673 147.19714,18.5191 147.33574,18.87139 147.42998,19.27917 147.51588,19.65643 147.54917,20.03092 147.52978,20.40541 147.51038,20.78267 147.40781,21.12942 147.23041,21.45121 147.04746,21.77577 146.76473,22.06704 146.38774,22.31947 146.00521,22.5719 145.50072,22.77163 144.87981,22.91033 L 141.53409,23.67318 140.27009,18.12241 143.60195,17.36511 C 144.19792,17.23196 144.7135,17.17925 145.15146,17.20699 145.5922,17.2375 145.96364,17.33737 146.26578,17.50936 Z M 141.20699,9.32052 C 142.31854,9.07086 143.17783,9.0875 143.78766,9.38432 144.39471,9.67559 144.81328,10.33025 145.04612,11.34276 145.26787,12.31366 145.12932,13.07928 144.63033,13.63686 144.12861,14.18889 143.33029,14.59666 142.22984,14.84632 L 139.65749,15.43163 138.41566,9.95853 141.207,9.32051 Z"
         id="path26-3" />
      <path
         d="M 165.99639,19.94216 C 166.81134,20.81874 167.78429,21.4845 168.90969,21.93389 170.03509,22.38883 171.27969,22.57468 172.6518,22.49979 174.1625,22.41657 175.45422,22.07537 176.52696,21.47341 177.59693,20.877 178.47009,20.0448 179.14366,18.97404 L 177.45001,17.34293 C 177.28924,17.19036 177.10075,17.12101 176.89008,17.12933 176.77366,17.13763 176.66833,17.17094 176.56576,17.23197 176.4632,17.29577 176.36341,17.37067 176.26362,17.45389 176.02801,17.74239 175.78408,17.9865 175.54292,18.18345 175.29899,18.37763 175.03288,18.54684 174.75015,18.67722 174.46741,18.81037 174.1625,18.90746 173.82987,18.97404 173.49724,19.03507 173.12303,19.08223 172.70724,19.10442 172.00594,19.14326 171.34068,19.02675 170.71699,18.74935 170.0933,18.47195 169.53615,18.0503 169.05106,17.48163 168.56874,16.91019 168.16959,16.20282 167.85913,15.35397 167.5459,14.5079 167.35741,13.52868 167.2992,12.42185 167.2382,11.32612 167.3022,10.34135 167.49324,9.47032 167.68173,8.59651 167.9811,7.85031 168.3858,7.23448 168.78773,6.61588 169.28668,6.13598 169.8771,5.792 170.47029,5.44525 171.13556,5.25662 171.87289,5.21501 172.55479,5.17617 173.11749,5.22611 173.56377,5.36481 174.00728,5.50351 174.37872,5.66163 174.68363,5.83916 174.983,6.01392 175.23802,6.18036 175.44314,6.33016 175.64826,6.47996 175.85893,6.55208 176.0696,6.53821 176.28304,6.52989 176.44658,6.47441 176.55746,6.37732 176.67388,6.27746 176.76813,6.17204 176.85406,6.05554 L 178.09034,4.10819 C 177.34746,3.35366 176.4355,2.7628 175.36553,2.33838 174.29279,1.91673 173.07591,1.74197 171.71767,1.81687 170.37883,1.89177 169.16195,2.21078 168.07535,2.78222 166.98875,3.35089 166.06847,4.11651 165.32005,5.07354 164.56886,6.03334 164.00615,7.15681 163.63471,8.44672 163.26327,9.73663 163.11913,11.13472 163.20229,12.64933 163.28549,14.15006 163.56819,15.52319 164.0505,16.76594 164.53004,18.00869 165.17868,19.06558 165.9964,19.94217 Z"
         id="path27" />
      <path
         d="M 199.34829,5.51183 C 198.55552,4.52983 197.57425,3.73647 196.4045,3.12619 195.23474,2.51868 193.9153,2.16639 192.44341,2.06098 190.97706,1.95834 189.61881,2.12478 188.37698,2.56585 187.12961,3.00414 186.04578,3.65048 185.11996,4.50765 184.19413,5.36759 183.45403,6.41061 182.89133,7.63949 182.33417,8.87114 182.00154,10.22208 181.89621,11.6923 181.79088,13.17084 181.93221,14.56339 182.31477,15.85884 182.70007,17.1543 183.28772,18.29718 184.08604,19.27918 184.88436,20.26395 185.86839,21.05454 187.03815,21.6565 188.20791,22.25846 189.52735,22.61076 190.99924,22.71617 192.46836,22.81881 193.82384,22.65237 195.06844,22.21962 196.31027,21.78965 197.39132,21.14054 198.3116,20.27782 199.23465,19.41511 199.97199,18.36654 200.52915,17.13766 201.08354,15.90601 201.41062,14.54952 201.51596,13.06821 201.61852,11.59522 201.47996,10.21654 201.10294,8.92386 200.72596,7.63395 200.14108,6.49661 199.34831,5.51184 Z M 197.43843,12.78247 C 197.36363,13.8671 197.16401,14.82968 196.83969,15.6702 196.51537,16.50795 196.0885,17.20699 195.55628,17.76457 195.01852,18.32492 194.3893,18.73824 193.66305,19.00177 192.93958,19.26807 192.13017,19.36794 191.23761,19.30691 190.34505,19.24311 189.55227,19.02951 188.86761,18.66612 188.1774,18.30273 187.60915,17.80341 187.1601,17.17648 186.70827,16.54678 186.38396,15.7978 186.17884,14.92122 185.97649,14.04464 185.91273,13.06264 185.98758,11.98078 186.06238,10.90447 186.262,9.95021 186.58632,9.11524 186.91064,8.28304 187.34029,7.58399 187.8725,7.0181 188.40471,6.45498 189.03948,6.0361 189.7685,5.76703 190.50306,5.49795 191.31524,5.39531 192.2078,5.45634 193.10036,5.52014 193.88482,5.73374 194.56949,6.10546 195.25139,6.4744 195.81686,6.97372 196.26591,7.60897 196.71496,8.24144 197.04482,8.99319 197.24717,9.86146 197.45229,10.7325 197.51605,11.70617 197.43843,12.78248 Z"
         id="path28-5" />
      <path
         d="M 218.02003,26.52485 C 218.20021,26.67187 218.44691,26.78006 218.75182,26.84663 L 220.76702,27.27105 224.9665,7.45084 221.52099,6.7185 219.05951,18.33045 C 218.93477,18.91854 218.83498,19.54823 218.7546,20.21677 L 211.72775,5.28434 C 211.64455,5.129 211.56698,5.00417 211.50045,4.90708 211.43395,4.80999 211.35631,4.72954 211.27038,4.66297 211.18718,4.59917 211.08466,4.54646 210.97101,4.50485 210.85182,4.46601 210.71322,4.42995 210.54136,4.39389 L 208.48459,3.9556 204.28788,23.77581 207.74725,24.51092 210.23645,12.76304 C 210.34733,12.23598 210.4388,11.65899 210.5081,11.02929 L 217.52663,25.88127 C 217.67354,26.16422 217.83709,26.37504 218.02003,26.52484 Z"
         id="path29" />
      <path
         d="M 227.1092,28.75792 C 227.5638,29.16015 228.05443,29.52077 228.58664,29.83423 229.11885,30.15047 229.67324,30.40567 230.2498,30.60263 231.27264,30.94938 232.2345,31.0964 233.13815,31.03815 234.04457,30.9799 234.86784,30.76352 235.60517,30.38626 236.34805,30.01177 236.98836,29.49026 237.53166,28.82727 238.07496,28.16428 238.49075,27.39866 238.78735,26.53317 239.059,25.73148 239.16988,25.01302 239.12275,24.375 239.07835,23.73698 238.92594,23.15444 238.66815,22.63848 238.41036,22.11974 238.07496,21.64816 237.66748,21.22374 237.26001,20.80487 236.82481,20.40818 236.37022,20.04479 235.91285,19.67862 235.46657,19.3291 235.02583,18.99622 234.58509,18.66611 234.20534,18.32769 233.88657,17.98926 233.57057,17.64806 233.33773,17.29853 233.19913,16.93514 233.06053,16.56897 233.06331,16.17229 233.21303,15.73677 233.44587,15.05437 233.85335,14.57169 234.43545,14.29707 235.01756,14.02522 235.73826,14.03631 236.60587,14.33036 237.09927,14.4968 237.50675,14.7104 237.83661,14.97393 238.16647,15.23746 238.44644,15.49544 238.67651,15.75065 238.90381,16.00586 239.10339,16.23887 239.2697,16.44415 239.43324,16.6522 239.60788,16.78535 239.79082,16.84638 239.98486,16.91296 240.15949,16.9296 240.31749,16.89076 240.47549,16.85192 240.63349,16.75483 240.79703,16.59672 L 242.37149,15.13482 C 241.93075,14.26101 241.29875,13.48707 240.47826,12.81298 239.66331,12.13612 238.70422,11.61184 237.60931,11.24012 236.63913,10.90724 235.71885,10.77131 234.85955,10.82679 233.99748,10.8795 233.21857,11.082 232.52281,11.4232 231.82428,11.76718 231.22555,12.22766 230.73214,12.80188 230.23596,13.38165 229.8673,14.02244 229.62614,14.72703 229.32677,15.60916 229.19095,16.39143 229.22698,17.07106 229.25748,17.74792 229.39607,18.35265 229.64554,18.88803 229.89224,19.42341 230.2221,19.90054 230.63512,20.31386 231.04814,20.72719 231.48056,21.11 231.93516,21.45952 232.38976,21.80627 232.83881,22.13915 233.28509,22.45816 233.73137,22.77717 234.11113,23.1045 234.42435,23.44016 234.74035,23.77859 234.96211,24.14476 235.09239,24.53311 235.22267,24.92146 235.20604,25.35976 235.03699,25.85076 234.74594,26.71902 234.28025,27.29046 233.65102,27.57064 233.01902,27.84804 232.2706,27.84249 231.40298,27.54567 230.80701,27.34317 230.32193,27.07964 229.95049,26.75508 229.57905,26.42775 229.26305,26.09764 229.01358,25.77308 228.75856,25.44297 228.53681,25.1517 228.35386,24.88817 228.17091,24.62464 227.96025,24.45543 227.73018,24.37775 227.55832,24.3195 227.38092,24.3084 227.20074,24.34446 227.02334,24.38052 226.86811,24.45542 226.73228,24.56915 L 224.99151,25.99221 C 225.21604,26.4943 225.50986,26.98808 225.87853,27.45411 226.24443,27.92014 226.65467,28.35843 227.10927,28.75789 Z"
         id="path30-2" />
      <path
         d="M 244.80799,35.43216 C 245.67561,36.42525 246.77052,37.24081 248.10105,37.87605 249.42881,38.51407 250.75102,38.86359 252.06491,38.92185 253.38158,38.97456 254.62618,38.77483 255.7987,38.3088 256.974,37.84832 258.04674,37.1465 259.01414,36.20611 259.98154,35.2685 260.79095,34.13116 261.43127,32.79132 262.07159,31.46258 262.45134,30.12828 262.57608,28.78844 262.69805,27.4486 262.57608,26.17533 262.1991,24.97142 261.82489,23.76196 261.20675,22.66345 260.3419,21.66482 259.47983,20.66895 258.38492,19.8534 257.05439,19.21261 255.72663,18.57459 254.40165,18.23061 253.08775,18.17791 251.77108,18.1252 250.52371,18.33048 249.34841,18.78542 248.16757,19.24036 247.09483,19.93385 246.12188,20.87424 245.14616,21.80908 244.33953,22.94364 243.70475,24.27239 243.05889,25.61223 242.67913,26.95485 242.55717,28.30023 242.4352,29.64562 242.56517,30.92443 242.94247,32.13112 243.32222,33.34058 243.94314,34.43909 244.80798,35.43218 Z M 246.49333,28.85501 C 246.62638,27.96456 246.9313,27.02972 247.39975,26.04772 247.86821,25.07682 248.40319,24.26404 249.01024,23.6066 249.61729,22.95194 250.27424,22.46094 250.97831,22.13361 251.68238,21.8035 252.42526,21.65093 253.20417,21.67313 253.98308,21.68977 254.77586,21.89505 255.58526,22.28064 256.38912,22.669 257.0433,23.16 257.53947,23.75641 258.04119,24.35005 258.38214,25.02413 258.56786,25.77865 258.74804,26.53318 258.77575,27.35428 258.64266,28.23641 258.51515,29.12409 258.21578,30.0506 257.74733,31.02428 257.2761,32.0035 256.73835,32.8246 256.12852,33.48482 255.51869,34.14504 254.86175,34.6388 254.16045,34.96059 253.45638,35.2796 252.71904,35.43217 251.94845,35.40998 251.17508,35.38779 250.38508,35.18529 249.57845,34.79693 248.77459,34.40857 248.11764,33.92035 247.61315,33.32671 247.10589,32.73307 246.75939,32.06454 246.57368,31.31279 246.38796,30.56381 246.36024,29.74548 246.49328,28.85503 Z"
         id="path31" />
      <path
         d="M 263.50745,46.08431 267.75405,39.54877 268.89054,40.28665 C 269.17882,40.47806 269.3784,40.66391 269.48096,40.85532 269.58352,41.04118 269.63064,41.27974 269.62787,41.56546 L 269.27861,48.87494 C 269.27261,49.51296 269.54194,50.0095 270.07693,50.3618 L 273.10665,52.33134 273.33118,43.66815 C 273.32518,43.32695 273.28128,43.01071 273.20367,42.72222 273.12327,42.43372 273.01518,42.16187 272.87935,41.90112 273.56402,42.06756 274.21819,42.12859 274.85574,42.0842 275.48774,42.04259 276.08648,41.90944 276.64918,41.68752 277.21188,41.4656 277.73301,41.15491 278.20978,40.75268 278.68655,40.356 279.10511,39.88164 279.46547,39.32407 279.9367,38.60006 280.24993,37.85663 280.40516,37.09655 280.55762,36.33647 280.51881,35.57085 280.28597,34.79968 280.05313,34.03128 279.61239,33.26011 278.96099,32.48894 278.30959,31.72054 277.41425,30.96602 276.2833,30.23091 L 271.16908,26.90211 260.13401,43.8873 Z M 272.8655,31.68172 274.60627,32.81351 C 275.6596,33.50146 276.29992,34.2338 276.5189,35.01329 276.74065,35.79556 276.5799,36.59724 276.0449,37.42389 275.77325,37.84554 275.46002,38.19229 275.10521,38.46414 274.75317,38.73877 274.36788,38.91908 273.94377,39.00784 273.51966,39.09938 273.06507,39.08551 272.57721,38.97455 272.08381,38.86082 271.56823,38.62503 271.02216,38.26995 L 269.30911,37.15758 272.8655,31.68171 Z"
         id="path32" />
      <polygon
         points="278.39828,56.63659 281.48898,59.16925 292.24685,46.01496 296.46851,49.47136 298.53637,46.94425 286.99681,37.49879 284.92895,40.0259 289.15338,43.4823 "
         id="polygon32-2" />
      <rect
         x="286.70193"
         y="57.385132"
         width="20.25382"
         height="4.02596"
         transform="rotate(-45.94214,296.82885,59.398111)"
         id="rect32" />
      <path
         d="M 298.94662,68.8727 C 298.41718,69.83528 298.10395,70.83669 298.00693,71.88249 297.90993,72.92274 298.04023,73.97963 298.40609,75.05317 298.76644,76.12393 299.37349,77.16141 300.21893,78.16282 301.06714,79.16701 301.98742,79.92986 302.98532,80.45969 303.97767,80.98952 304.99497,81.29466 306.03722,81.36679 307.08224,81.44446 308.11894,81.30021 309.15842,80.93405 310.19235,80.57066 311.17639,79.99089 312.10776,79.2003 L 321.32167,71.3915 318.73823,68.3401 309.52432,76.15445 C 308.95053,76.6399 308.36565,77.00329 307.76969,77.24186 307.17095,77.48042 306.58885,77.59138 306.01783,77.57751 305.44404,77.56087 304.89243,77.41939 304.3519,77.14754 303.81692,76.87569 303.32074,76.46791 302.8606,75.92698 302.40046,75.3805 302.07891,74.82293 301.89874,74.24871 301.71856,73.67727 301.67144,73.10582 301.74906,72.53715 301.82666,71.96848 302.03457,71.41091 302.3672,70.86166 302.7026,70.31241 303.1572,69.79367 303.72822,69.30822 L 312.94213,61.49664 310.35314,58.43415 301.13923,66.24573 C 300.20786,67.03632 299.47884,67.91013 298.94663,68.87271 Z"
         id="path33" />
      <path
         d="M 310.68021,91.23111 321.5157,84.65951 C 321.75963,84.51249 322.01465,84.34605 322.2863,84.15464 322.55795,83.96601 322.83237,83.76628 323.10679,83.54991 L 316.73134,94.98433 C 316.39039,95.56132 316.38208,96.11335 316.70364,96.64318 L 316.99746,97.12586 C 317.31346,97.64737 317.80409,97.89148 318.46936,97.85265 L 331.45864,97.45319 C 331.15373,97.59744 330.8599,97.75001 330.57717,97.90258 330.2972,98.05792 330.03941,98.20495 329.8038,98.34919 L 318.97109,104.92079 320.79779,107.93335 338.10851,97.431 336.54791,94.84563 C 336.45641,94.69861 336.37051,94.56823 336.29289,94.46282 336.21809,94.35463 336.13766,94.26587 336.0545,94.19652 335.9713,94.12994 335.87155,94.08279 335.75236,94.05227 335.63317,94.02175 335.48625,94.01343 335.31717,94.02176 L 322.72151,94.36574 C 322.36116,94.37961 322.00081,94.41567 321.63768,94.47115 321.27178,94.52386 320.90035,94.58488 320.52336,94.64869 320.98073,94.0717 321.39652,93.46974 321.76241,92.84004 L 327.89393,81.77179 C 327.98263,81.62477 328.03807,81.49162 328.06302,81.37233 328.08792,81.25582 328.09072,81.14486 328.07102,81.03113 328.04882,80.92017 328.01002,80.80644 327.95183,80.6927 327.89363,80.57619 327.82432,80.44581 327.73285,80.29879 L 326.16116,77.70233 308.84489,88.20468 Z"
         id="path34-6" />
      <path
         d="M 26.7336,240.804 C 26.7336,238.32959 24.65326,236.27961 22.18209,236.27961 19.74002,236.27961 17.69017,238.32959 17.69017,240.804 17.69017,243.24789 19.74001,245.33116 22.18209,245.33116 24.65327,245.33116 26.7336,243.24789 26.7336,240.804 Z"
         id="path35" />
      <path
         d="M 333.19575,120.82394 C 333.19575,123.26783 335.24559,125.3511 337.68767,125.3511 340.15885,125.3511 342.23918,123.26783 342.23918,120.82394 342.23918,118.34953 340.15884,116.29955 337.68767,116.29955 335.2456,116.29955 333.19575,118.34953 333.19575,120.82394 Z"
         id="path36-6" />
    </g>
  </g>
</svg>
