<?xml version="1.0" encoding="UTF-8" standalone="no"?>
<!-- Created with Inkscape (http://www.inkscape.org/) -->

<svg
   width="48"
   height="48"
   viewBox="0 0 12.7 12.7"
   version="1.1"
   id="svg1"
   xml:space="preserve"
   xmlns:xlink="http://www.w3.org/1999/xlink"
   xmlns="http://www.w3.org/2000/svg"
   xmlns:svg="http://www.w3.org/2000/svg"><defs
     id="defs1"><linearGradient
       id="linearGradient1"><stop
         style="stop-color:#ffffff;stop-opacity:1"
         offset="0"
         id="stop1" /><stop
         style="stop-color:#f6f6f6;stop-opacity:1"
         offset="1"
         id="stop2" /></linearGradient><linearGradient
       xlink:href="#linearGradient1"
       id="linearGradient2"
       x1="-7.547883"
       y1="9.6601543"
       x2="-7.547883"
       y2="22.360155"
       gradientUnits="userSpaceOnUse" /></defs><g
     id="layer1"
     transform="translate(13.897883,-9.6601548)"><circle
       style="fill:url(#linearGradient2);stroke-width:1.80707;stroke-linecap:round"
       id="path1"
       cx="-7.547883"
       cy="16.010155"
       r="6.3499999" /><g
       id="g1"
       transform="matrix(0.17593569,0,0,0.17593569,-11.506436,12.051867)"
       aria-label="W3C"><g
         aria-label="W3C"
         transform="matrix(0.23939031,0,0,0.23939031,-19.018837,-21.61863)"
         id="g8"><path
           d="m 148.62207,277.35891 h -9.54443 l -14.02588,-41.99414 -13.77637,41.99414 h -9.62744 L 84.30274,219.26418 h 11.45312 l 11.70166,41.41309 12.94678,-41.41309 h 10.125 l 13.27881,41.49609 11.61914,-41.49609 h 9.79297 l -16.59814,58.09473 z"
           style="fill:#002a56;fill-opacity:1"
           id="path2" /><path
           d="m 167.45996,268.47902 5.39453,-6.97168 c 2.90479,4.31543 7.38672,7.2207 12.44922,7.2207 6.22461,0 9.37793,-3.65234 9.37793,-8.05078 0,-5.31152 -4.06641,-8.21582 -10.78906,-8.21582 h -4.14941 v -9.54492 h 3.73438 c 4.73047,0 8.96289,-2.9873 8.96289,-7.9668 0,-4.14941 -2.40625,-7.05469 -7.38574,-7.05469 -4.64795,0 -8.05029,1.99219 -10.95508,6.22461 l -5.31152,-6.72266 c 3.15381,-5.8916 9.21191,-9.0459 17.17969,-9.0459 9.95898,0 16.68164,5.64355 16.68164,14.77246 0,6.55664 -2.98828,11.2041 -8.88086,13.77734 v 0.24902 c 7.2207,1.24414 11.12109,6.9707 11.12109,13.85938 0,10.70605 -8.29883,17.2627 -19.00488,17.2627 -8.88037,0 -15.354,-3.90039 -18.4248,-9.79297 z"
           style="fill:#002a56;fill-opacity:1"
           id="path4" /><path
           d="m 261.90625,271.71535 c -3.65137,3.90039 -11.03809,6.55664 -18.58984,6.55664 -17.76074,0 -29.96094,-11.86816 -29.96094,-29.96094 0,-16.68066 10.54004,-29.95996 29.71191,-29.95996 7.55176,0 13.85938,2.40723 17.67676,5.89258 l -4.56445,7.55273 c -3.48535,-2.32422 -7.30273,-3.90137 -13.1123,-3.90137 -10.78906,0 -18.92285,7.80176 -18.92285,20.41602 0,12.11719 8.2168,20.41699 20.08398,20.41699 4.89746,0 9.79395,-1.57715 13.77734,-4.64746 z"
           style="fill:#002a56;fill-opacity:1"
           id="path6" /></g><path
         style="opacity:1;fill:none;stroke:#005a9c;stroke-width:3.99994;stroke-linecap:round;stroke-dasharray:none;stroke-opacity:1"
         d="m 26.393433,21.50709 0.01368,0.01503 c 1.082195,1.150166 2.728344,1.652421 3.968723,1.652421 2.266366,0 4.03161,-1.684549 4.03161,-1.684549 M 18.844315,5.939342 c 0,0 1.729547,-1.681817 3.964624,-1.681817 1.393806,0 2.940542,0.443503 3.996754,1.637375 l 7.128655,8.058365 c 1.001646,1.132204 2.721925,1.65447 4.008383,1.65447 3.90703,0 5.0573,-1.523063 5.0573,-3.40192 0,-1.878846 -1.52309,-3.401918 -3.401959,-3.401918 M 26.393433,21.50709 11.713612,5.90652 C 11.030338,5.18036 9.6857682,4.257525 7.6751482,4.257525 c -2.995619,0 -5.67167,2.416314 -5.675175,5.675111 -0.00175,1.623956 0.515429,2.828239 1.720804,4.03431 l 7.5539098,7.557921 c 1.205375,1.206053 2.438005,1.653944 3.967358,1.649676 2.249296,-0.0063 3.006383,-0.612622 4.012482,-1.651739 M 37.192249,2.99638 c 0.605616,-0.625486 1.466148,-0.99641 2.405574,-0.99641 1.878884,0 3.401998,1.523112 3.401998,3.401956 0,1.876851 -1.52519,3.401971 -3.401998,3.401971"
         id="path2-5" /></g></g></svg>
