<?xml version="1.0" encoding="UTF-8" standalone="no"?>
<!-- Created with Inkscape (http://www.inkscape.org/) -->

<svg
   width="72"
   height="48"
   viewBox="0 0 72 48.000002"
   version="1.1"
   id="svg1"
   xmlns="http://www.w3.org/2000/svg"
   xmlns:svg="http://www.w3.org/2000/svg">
  <defs
     id="defs1" />
  <g
     id="text1"
     style="font-weight:bold;font-size:28.3613px;line-height:1;font-family:Carlito;-inkscape-font-specification:'Carlito Bold';letter-spacing:0.742164px;fill:#ffffff;stroke-width:10.018"
     aria-label="W3Cx">
    <path
       d="M 0.88474869,14.7807 H 3.9313727 q 0.4846901,0 0.7893525,0.221573 0.3185107,0.221572 0.4292971,0.581628 L 7.8642872,26.20554 q 0.235421,0.830898 0.4431453,1.924912 0.1107864,-0.540083 0.2215727,-1.024773 0.1107863,-0.498539 0.2631175,-0.913987 L 12.004926,15.583901 Q 12.115713,15.26539 12.434223,15.029969 12.752734,14.7807 13.195879,14.7807 h 1.066319 q 0.48469,0 0.775504,0.221573 0.304662,0.207724 0.429297,0.581628 l 3.212803,10.621639 q 0.138483,0.4016 0.24927,0.886291 0.124634,0.470842 0.235421,0.997077 0.09694,-0.526235 0.193876,-0.997077 0.110786,-0.470842 0.221572,-0.872443 l 2.714265,-10.635487 q 0.09694,-0.318511 0.415449,-0.553932 0.332359,-0.249269 0.775504,-0.249269 h 2.852748 l -5.456226,18.39053 h -3.295894 l -3.6421,-12.22804 q -0.08309,-0.235421 -0.16618,-0.526235 -0.06924,-0.290815 -0.138483,-0.609325 -0.06924,0.31851 -0.152331,0.609325 -0.08309,0.290814 -0.152331,0.526235 L 9.6230202,33.17123 H 6.3409753 Z M 28.257176,33.17123 Z m 6.716421,-18.598254 q 1.274042,0 2.284968,0.373904 1.024773,0.373904 1.731036,1.024773 0.706263,0.637022 1.080167,1.509464 0.387752,0.858594 0.387752,1.841823 0,0.872442 -0.193876,1.53716 -0.180028,0.664718 -0.540084,1.163256 -0.360055,0.498539 -0.88629,0.844746 -0.526235,0.346207 -1.190953,0.56778 3.143562,1.066318 3.143562,4.251425 0,1.398678 -0.512387,2.464996 -0.498538,1.05247 -1.357132,1.772581 -0.844746,0.720111 -1.980306,1.080167 -1.121712,0.360055 -2.368058,0.360055 -1.315587,0 -2.326513,-0.304662 -0.997076,-0.304662 -1.758732,-0.913987 -0.747808,-0.623173 -1.30174,-1.53716 -0.540083,-0.913988 -0.927835,-2.118789 l 1.467919,-0.623173 q 0.581628,-0.235421 1.080166,-0.110786 0.512387,0.110786 0.720111,0.540083 0.24927,0.470842 0.526235,0.886291 0.276966,0.4016 0.623173,0.720111 0.360056,0.304662 0.81705,0.48469 0.456993,0.180028 1.05247,0.180028 0.733959,0 1.274042,-0.235421 0.553932,-0.24927 0.913988,-0.637022 0.360055,-0.4016 0.540083,-0.900139 0.180028,-0.498538 0.180028,-0.997077 0,-0.637021 -0.124635,-1.163256 -0.110786,-0.526235 -0.526235,-0.900139 -0.4016,-0.373904 -1.190953,-0.581628 -0.789352,-0.207724 -2.146485,-0.207724 v -2.368058 q 1.13556,-0.01385 1.855671,-0.207724 0.733959,-0.193877 1.149408,-0.540084 0.415449,-0.360055 0.56778,-0.844746 0.152331,-0.48469 0.152331,-1.080166 0,-1.260195 -0.637021,-1.897216 -0.623173,-0.637021 -1.758733,-0.637021 -1.010925,0 -1.689492,0.567779 -0.678566,0.56778 -0.941683,1.398678 -0.221573,0.637021 -0.595477,0.830897 -0.360055,0.193876 -1.038622,0.08309 l -1.758733,-0.304662 q 0.193877,-1.343285 0.73396,-2.340362 0.540083,-1.010925 1.357132,-1.675643 0.81705,-0.678566 1.855671,-1.010925 1.05247,-0.346207 2.257272,-0.346207 z m 20.11592,14.139105 q 0.290815,0 0.498539,0.221572 l 1.45407,1.564857 q -0.997076,1.398678 -2.50654,2.132637 -1.495616,0.733959 -3.559011,0.733959 -1.869519,0 -3.365135,-0.692414 -1.495615,-0.706263 -2.548085,-1.952609 -1.038622,-1.260195 -1.606402,-2.977383 -0.553931,-1.731036 -0.553931,-3.780583 0,-2.063395 0.595476,-3.780583 0.609325,-1.731037 1.70334,-2.977383 1.094015,-1.246346 2.617327,-1.938761 1.523312,-0.692414 3.351286,-0.692414 1.855671,0 3.282045,0.664718 1.426374,0.650869 2.381906,1.731036 l -1.218649,1.70334 q -0.124635,0.152331 -0.290815,0.276966 -0.152331,0.124634 -0.443145,0.124634 -0.290814,0 -0.56778,-0.221572 -0.263117,-0.221573 -0.664718,-0.484691 -0.387752,-0.263117 -0.983228,-0.48469 -0.595477,-0.221572 -1.523312,-0.221572 -1.010926,0 -1.841823,0.429297 -0.830898,0.415448 -1.426374,1.232498 -0.595477,0.8032 -0.927836,1.980305 -0.31851,1.163257 -0.31851,2.658872 0,1.509464 0.360055,2.686568 0.360056,1.177105 0.969381,1.994154 0.623173,0.803201 1.45407,1.232498 0.830898,0.415449 1.78643,0.415449 0.56778,0 1.024773,-0.05539 0.456994,-0.06924 0.844746,-0.221573 0.4016,-0.166179 0.747808,-0.415449 0.346207,-0.249269 0.692414,-0.623173 0.138483,-0.110786 0.276966,-0.180028 0.152331,-0.08309 0.304662,-0.08309 z"
       id="path2" />
    <path
       d="m 62.284985,26.080905 -3.822128,-6.661027 h 3.378983 q 0.373904,0 0.540084,0.110786 0.180027,0.09694 0.31851,0.332359 l 2.174182,4.20988 q 0.06924,-0.166179 0.152331,-0.332359 0.08309,-0.180027 0.193876,-0.360055 l 1.495616,-3.462073 q 0.304662,-0.498538 0.775504,-0.498538 h 3.226652 l -3.835977,6.481 4.002156,7.270352 h -3.378983 q -0.373904,0 -0.609325,-0.193876 -0.235421,-0.207724 -0.373904,-0.443145 l -2.188029,-4.362212 q -0.05539,0.152332 -0.124635,0.290814 -0.05539,0.138483 -0.124635,0.24927 l -1.731036,3.822128 q -0.152331,0.235421 -0.373904,0.443145 -0.207724,0.193876 -0.553932,0.193876 h -3.129713 z"
       id="path4" />
  </g>
</svg>
