<svg viewBox="0 0 50 50" xmlns="http://www.w3.org/2000/svg"><path d="m47.115 26.575h-19.26c-.74 0-1.33.6-1.33 1.33v19.26c0 .73.59 1.33 1.33 1.33h19.26c.74 0 1.33-.6 1.33-1.33v-19.26c0-.74-.59-1.33-1.33-1.33zm-1.33 19.26h-16.59v-16.59h16.59z"/><path d="m33.195 43.165h8.59c.74 0 1.33-.6 1.33-1.33v-8.59c0-.73-.59-1.33-1.33-1.33h-8.59c-.73 0-1.33.6-1.33 1.33v8.59c0 .74.59 1.33 1.33 1.33zm1.34-8.59h5.92v5.92h-5.92z"/><path d="m22.145 26.575h-19.2600001c-.74 0-1.3300001.6-1.3300001 1.33v19.26c0 .73.6000001 1.33 1.3300001 1.33h19.2600001c.74 0 1.33-.6 1.33-1.33v-19.26c0-.74-.59-1.33-1.33-1.33zm-1.33 19.26h-16.5900002v-16.59h16.5900002z"/><path d="m12.515 43.345c3.21 0 5.81-2.61 5.81-5.81s-2.61-5.81-5.81-5.81c-3.2000001 0-5.8100002 2.61-5.8100002 5.81s2.6100001 5.81 5.8100002 5.81zm0-8.95c1.73 0 3.14 1.41 3.14 3.14s-1.41 3.14-3.14 3.14-3.1400001-1.41-3.1400001-3.14 1.4100001-3.14 3.1400001-3.14z"/><path d="m34.635 1.5049998h-19.26c-.74 0-1.33.6000001-1.33 1.3300001v19.2600001c0 .73.6 1.33 1.33 1.33h19.26c.74 0 1.33-.6 1.33-1.33v-19.2600001c0-.7400001-.59-1.3300001-1.33-1.3300001zm-1.34 19.2500002h-16.59v-16.5900002h16.59z"/><path d="m19.725 18.235h10.55c.48 0 .93-.26 1.17-.69.23-.43.22-.94-.04-1.36l-5.57-8.8600002c-.25-.4-.72-.67-1.16-.62-.47.01-.9.27-1.13.68l-4.98 8.8600002c-.23.41-.23.92.01 1.33s.68.66 1.15.66zm5.05-7.59 3.08 4.91h-5.85z"/></svg>
