<svg viewBox="0 0 50 50" xmlns="http://www.w3.org/2000/svg"><path d="m25 1.21c-13.12 0-23.79 10.67-23.79 23.79s10.67 23.79 23.79 23.79 23.79-10.67 23.79-23.79-10.67-23.79-23.79-23.79zm0 44.6c-11.48 0-20.81-9.34-20.81-20.81s9.33-20.81 20.81-20.81 20.81 9.34 20.81 20.81-9.34 20.81-20.81 20.81z"/><path d="m25 14.24c-1.31 0-2.38 1.06-2.38 2.38v.23c0 1.31 1.06 2.38 2.38 2.38s2.38-1.06 2.38-2.38v-.23c0-1.31-1.06-2.38-2.38-2.38z"/><path d="m25 23.34c-1.31 0-2.38 1.06-2.38 2.38v7.67c0 1.31 1.06 2.38 2.38 2.38s2.38-1.07 2.38-2.38v-7.67c0-1.31-1.06-2.38-2.38-2.38z"/></svg>
