<svg viewBox="0 0 50 50" xmlns="http://www.w3.org/2000/svg"><path d="m24.92.95675c-.17 0-.34.03-.5.09l-17.18 6.3c-.68.25-1.13.9-1.13 1.63v18.89c0 4.69 2.65 8.57 6.1 11.86 3.45 3.3 7.8 6.16 11.79 9 .6.43 1.41.43 2 0 3.99-2.84 8.34-5.7 11.79-9s6.1-7.17 6.1-11.86v-18.89c0-.73-.45-1.38-1.13-1.63l-17.16-6.3c-.22-.08-.45-.11-.68-.09zm.09 3.55 15.46 5.67v17.7c0 3.4-1.92 6.39-5.05 9.38-2.86 2.73-6.67 5.32-10.41 7.96-3.74-2.64-7.55-5.23-10.41-7.96-3.12-2.98-5.05-5.98-5.05-9.38v-17.7z"/><path d="m36.92 22.29675c-.08-.1-2.07-2.41-4.94-4.29-.02-.01-.03-.02-.05-.03l3.36-3.36c.49-.49.49-1.29 0-1.78s-1.29-.49-1.78 0l-3.87 3.87c-1.61-.73-3.17-1.11-4.63-1.11-2.19 0-4.53.81-6.97 2.41-2.87 1.88-4.86 4.19-4.94 4.29-.4.47-.4 1.16 0 1.64.08.1 2.07 2.41 4.94 4.29.02.01.03.02.05.03l-3.34 3.33c-.24.24-.37.55-.37.89s.13.65.37.89.55.37.89.37.65-.13.89-.37l3.84-3.85c1.61.74 3.17 1.11 4.63 1.11 2.19 0 4.53-.81 6.97-2.41 2.87-1.88 4.86-4.19 4.94-4.29.4-.47.4-1.16 0-1.64zm-11.91 5.82c-.85 0-1.76-.17-2.71-.51l.62-.62c.64.35 1.35.53 2.08.53 2.42 0 4.39-1.97 4.39-4.39 0-.73-.18-1.45-.53-2.08l1.23-1.23c.17.1.33.21.49.31 1.57 1.03 2.87 2.23 3.64 3-.77.78-2.06 1.97-3.64 3-2.02 1.33-3.9 2-5.59 2zm0-10c.85 0 1.76.17 2.71.51l-.62.62c-.64-.35-1.35-.53-2.08-.53-2.42 0-4.39 1.97-4.39 4.39 0 .73.18 1.45.53 2.08l-1.23 1.23c-.17-.1-.33-.21-.49-.31-1.58-1.03-2.87-2.23-3.64-3 .77-.78 2.07-1.97 3.64-3 2.02-1.33 3.9-2 5.59-2zm-.09 6.87 1.96-1.96v.09c0 1.06-.89 1.92-1.96 1.87zm.09-3.74h.09l-1.96 1.96s0-.06 0-.09c0-1.03.84-1.87 1.87-1.87z"/></svg>
