<svg viewBox="0 0 50 50" xmlns="http://www.w3.org/2000/svg"><path d="m18.649984 22.91c-.21.18-.47.28-.75.26s-.53-.14-.72-.35l-3.12-3.51-3.92 4.28v.12c0 1.21.78 2.05 1.9 2.05h11.46c.36 0 .69-.1.98-.26l-3.67-4.51-2.15 1.91z" fill="none"/><path d="m18.919984 15.08c-.41 0-.75.34-.75.75s.33.75.75.75.75-.33.75-.75-.34-.75-.75-.75z" fill="none"/><path d="m9.5499838 30.4h16.5900002c.87 0 1.57.7 1.57 1.57s-.7 1.57-1.57 1.57h-16.5900002c-.87 0-1.57-.7-1.57-1.57s.7-1.57 1.57-1.57zm0 5.03h16.5900002c.87 0 1.57.7 1.57 1.57s-.7 1.57-1.57 1.57h-16.5900002c-.87 0-1.57-.7-1.57-1.57s.7-1.57 1.57-1.57z" fill="none"/><path d="m23.489984 12.5h-11.3c-1.13 0-2.05.92-2.05 2.05v5.96l3.17-3.46c.2-.22.49-.35.78-.34.29 0 .58.13.77.35l3.2 3.6 2.18-1.94c.21-.19.49-.29.78-.26.28.02.55.16.72.38l3.82 4.69v-8.98c0-1.13-.92-2.05-2.05-2.05zm-4.57 5.47c-.56 0-1.1-.22-1.5-.61-.41-.4-.64-.93-.64-1.5 0-1.18.96-2.14 2.14-2.14s2.14.93 2.14 2.11-.96 2.14-2.14 2.14z" fill="none"/><path d="m49.069984 33.3c-.15-.15-.34-.26-.49-.33l-7.42-3.24c-.18-.08-.31-.24-.35-.43s.03-.39.17-.53l4.74-4.68c.13-.13.17-.33.09-.5s-.25-.28-.43-.27l-9.9.52s-2.68.12-2.68.12v.02l-4.93.26c.02-.17.05-.34.05-.52v-9.16c0-2.03-1.17-4.3-3.34-4.3l-7.08-.14h-5.31c-2.4400002 0-4.4300002 1.99-4.4300002 4.43v9.16c0 2.53 1.84 4.43 4.2800002 4.43h11.46c1.27 0 2.42-.55 3.23-1.41l6.08 6.16v.02l6.42 6.44c.06.02.12.04.18.04s.12-.01.18-.04c.17-.08.28-.25.27-.44l-.35-5.72c-.01-.17.05-.34.18-.46.02-.02.05-.04.07-.06.17-.12.39-.14.57-.06l7.09 3.09c.56.24 1.21.12 1.64-.31.58-.58.59-1.52.01-2.11zm-25.58-7.53h-11.46c-1.12 0-1.9-.84-1.9-2.05v-.12l3.92-4.28 3.12 3.51c.18.21.44.33.72.35.28.01.55-.08.75-.26l2.15-1.91 3.67 4.51c-.29.16-.62.26-.98.26zm2.06-2.24-3.82-4.69c-.18-.22-.44-.36-.72-.38-.29-.03-.56.07-.78.26l-2.18 1.94-3.2-3.6c-.2-.22-.48-.35-.77-.35s-.58.12-.78.34l-3.17 3.46v-5.96c0-1.13.92-2.05 2.05-2.05h11.3c1.13 0 2.05.92 2.05 2.05v8.98z"/><path d="m32.799984 40.07c0 1.04-.85 1.9-1.9 1.9h-25.8200002c-1.05 0-1.9-.85-1.9-1.9v-30.14c0-1.04.85-1.9 1.9-1.9h25.8300002c1.04 0 1.9.85 1.9 1.9v10.84l2.68-.16v-10.68c0-2.52-2.05-4.58-4.58-4.58h-25.8300002c-2.53 0-4.57999996 2.06-4.57999996 4.58v30.14c0 2.52 2.04999996 4.58 4.57999996 4.58h25.8300002c2.52 0 4.58-2.05 4.58-4.58s-2.68-2.7-2.68-2.7v2.7z"/><path d="m9.5499838 33.55h16.5900002c.87 0 1.57-.7 1.57-1.57s-.7-1.57-1.57-1.57h-16.5900002c-.87 0-1.57.7-1.57 1.57s.7 1.57 1.57 1.57z"/><path d="m9.5499838 38.58h16.5900002c.87 0 1.57-.7 1.57-1.57s-.7-1.57-1.57-1.57h-16.5900002c-.87 0-1.57.7-1.57 1.57s.7 1.57 1.57 1.57z"/><path d="m18.919984 13.72c-1.18 0-2.14.96-2.14 2.14 0 .57.23 1.1.64 1.5.4.39.94.61 1.5.61 1.18 0 2.14-.96 2.14-2.14s-.94-2.11-2.14-2.11zm0 2.86c-.42 0-.75-.33-.75-.75s.34-.75.75-.75.75.34.75.75-.33.75-.75.75z"/></svg>
