<svg viewBox="0 0 50 50" xmlns="http://www.w3.org/2000/svg"><path d="m10.49 11.405c.68 0 1.19-.52 1.19-1.22 0-.62-.53-1.13-1.18-1.13-.75 0-1.21.58-1.21 1.13 0 .61.41 1.22 1.19 1.22z"/><path d="m14.28 11.405c.68 0 1.19-.52 1.19-1.22 0-.62-.53-1.13-1.18-1.13-.75 0-1.21.58-1.21 1.13 0 .61.41 1.22 1.19 1.22z"/><path d="m18.07 11.405c.68 0 1.19-.52 1.19-1.22 0-.62-.53-1.13-1.18-1.13-.75 0-1.21.58-1.21 1.13 0 .61.41 1.22 1.19 1.22z"/><path d="m8.51 19.795h5.68l4.34 3.75c.34.32.82.51 1.29.51.31 0 .54-.08.69-.14.03 0 .06-.02.1-.04.71-.3 1.17-1 1.17-1.78v-2.45c2.07-.53 3.58-2.42 3.58-4.6v-9.8c0-2.62-2.13-4.75-4.75-4.75h-12.27c-2.61 0-4.58 2.04-4.58 4.75v9.81c0 2.62 2.13 4.75 4.75 4.75zm-2.2-14.55c0-1.29.84-2.2 2.03-2.2h12.27c1.21 0 2.2.99 2.2 2.2v9.81c0 1.21-.99 2.2-2.2 2.2h-.11c-.7 0-1.27.57-1.27 1.27v2.26l-3.73-3.22c-.23-.2-.53-.31-.83-.31h-6.16c-1.21 0-2.2-.99-2.2-2.2z"/><path d="m14.84 34.045c-1.26 0-2.29 1.03-2.29 2.29 0 .61.24 1.18.68 1.61.43.42 1 .65 1.61.65 1.26 0 2.29-1.03 2.29-2.29s-1.01-2.26-2.29-2.26zm0 3.07c-.45 0-.8-.35-.8-.8s.36-.8.8-.8.8.36.8.8-.35.8-.8.8z"/><path d="m20.89 30.345v-2.45c0-.78-.46-1.48-1.16-1.78-.03-.01-.07-.03-.13-.05-.12-.04-.35-.13-.66-.13-.47 0-.95.19-1.28.5l-4.35 3.76h-5.68c-2.62 0-4.75 2.13-4.75 4.75v9.81c0 2.71 1.97 4.75 4.58 4.75h12.27c2.62 0 4.75-2.13 4.75-4.75v-9.81c0-2.18-1.51-4.07-3.58-4.6zm-1.16 16.6h-12.27c-1.2 0-2.03-.9-2.03-2.2v-.13l4.2-4.58 3.35 3.76c.2.22.47.36.77.37s.59-.08.81-.28l2.3-2.05 3.93 4.83c-.31.17-.67.28-1.05.28zm2.19-2.39-4.09-5.02c-.19-.24-.47-.38-.78-.41s-.6.08-.83.28l-2.34 2.08-3.42-3.85c-.21-.24-.51-.37-.83-.37-.31-.01-.62.13-.83.36l-3.39 3.7v-6.38c0-1.21.99-2.2 2.2-2.2h6.16c.31 0 .6-.11.83-.31l3.73-3.22v2.26c0 .7.57 1.27 1.27 1.27h.11c1.21 0 2.2.99 2.2 2.2v9.61z"/><path d="m42.37 20.255h-9.81c-2.18 0-4.07 1.51-4.6 3.58h-2.45c-.78 0-1.48.46-1.78 1.17-.01.03-.02.06-.05.13-.04.12-.13.35-.13.66 0 .47.19.95.5 1.28l3.76 4.35v5.68c0 2.62 2.13 4.75 4.75 4.75h9.81c2.71 0 4.75-1.97 4.75-4.58v-12.27c0-2.62-2.13-4.75-4.75-4.75zm2.2 17.01c0 1.2-.9 2.03-2.2 2.03h-9.81c-1.21 0-2.2-.99-2.2-2.2v-6.16c0-.31-.11-.6-.31-.83l-3.22-3.73h2.26c.7 0 1.27-.57 1.27-1.27v-.11c0-1.21.99-2.2 2.2-2.2h9.81c1.21 0 2.2.99 2.2 2.2z"/><path d="m40.7 30.395-5.01-2.9c-.16-.11-.35-.17-.55-.17-.55 0-.99.45-.99.99v5.85c0 .17.05.35.14.5.18.32.52.5.86.5.17 0 .34-.04.5-.13l5-2.89.07-.04c.15-.09.28-.21.36-.36.27-.47.11-1.08-.37-1.35zm-4.57 2.07v-2.41l2.09 1.2z"/></svg>
