<?xml version="1.0" encoding="UTF-8" standalone="no"?>
<svg
   viewBox="0 0 50 50"
   version="1.1"
   id="svg6"
   xml:space="preserve"
   xmlns="http://www.w3.org/2000/svg"
   xmlns:svg="http://www.w3.org/2000/svg"><defs
     id="defs6"><linearGradient
       id="_Linear1"
       x2="1"
       gradientUnits="userSpaceOnUse"
       gradientTransform="matrix(-70.149385,387.15934,-387.15934,-70.149385,337.46862,273.47955)"><stop
         offset="0"
         stop-color="red"
         id="stop4" /><stop
         offset="1"
         stop-color="#900"
         id="stop5" /></linearGradient><linearGradient
       id="_Linear2"
       x2="1"
       gradientUnits="userSpaceOnUse"
       gradientTransform="matrix(163.53495,-313.31946,313.31946,163.53495,277.89392,602.71362)"><stop
         offset="0"
         stop-color="red"
         id="stop6" /><stop
         offset="1"
         stop-color="#900"
         id="stop7" /></linearGradient><linearGradient
       id="_Linear3"
       x2="1"
       gradientUnits="userSpaceOnUse"
       gradientTransform="matrix(-196.38237,337.59487,337.59487,196.38237,451.3585,269.19259)"><stop
         offset="0"
         stop-color="#900"
         stop-opacity=".65"
         id="stop8" /><stop
         offset="1"
         stop-color="#fe0000"
         stop-opacity=".65"
         id="stop9" /></linearGradient><linearGradient
       id="_Linear4"
       x2="1"
       gradientUnits="userSpaceOnUse"
       gradientTransform="matrix(-70.149385,387.15934,-387.15934,-70.149385,337.46862,273.47955)"><stop
         offset="0"
         stop-color="red"
         stop-opacity=".65"
         id="stop10" /><stop
         offset="1"
         stop-color="#900"
         stop-opacity=".65"
         id="stop11" /></linearGradient><style
       id="style1">
      .cls-1 {
        fill: #393939;
      }

      .cls-2 {
        fill: #654ff0;
      }
    </style><g
       id="SVG"
       fill="#ffffff"
       transform="matrix(2,0,0,2,40,158)"><path
         id="S"
         d="M 5.482,31.319 C 2.163,28.001 0.109,23.419 0.109,18.358 0.109,8.232 8.322,0.024 18.443,0.024 c 10.126,0 18.339,8.208 18.339,18.334 h -10.74 c 0,-4.194 -3.404,-7.593 -7.599,-7.593 -4.194,0 -7.593,3.399 -7.593,7.593 0,2.095 0.851,3.993 2.22,5.363 h 0.005 c 1.375,1.38 2.52,1.779 5.368,2.231 v 0 c 5.066,0.527 9.648,2.054 12.966,5.372 v 0 c 3.319,3.319 5.373,7.901 5.373,12.962 0,10.126 -8.213,18.339 -18.339,18.339 C 8.322,62.625 0.109,54.412 0.109,44.286 H 10.85 c 0,4.194 3.399,7.598 7.593,7.598 4.195,0 7.599,-3.404 7.599,-7.598 0,-2.095 -0.851,-3.988 -2.221,-5.363 H 23.816 C 22.441,37.548 20.468,37.074 18.443,36.697 V 36.692 C 13.533,35.939 8.8,34.638 5.482,31.319 Z" /><path
         id="V"
         d="M 73.452,0.024 60.482,62.625 H 49.742 L 36.782,0.024 h 10.74 l 7.6,36.663 7.59,-36.663 z" /><path
         id="G"
         d="m 91.792,25.952 h 18.334 v 18.334 h 0.005 c 0,10.127 -8.213,18.34 -18.339,18.34 -10.127,0 -18.334,-8.213 -18.334,-18.34 v 0 -25.927 h -0.005 c 0,-10.126 8.212,-18.334 18.339,-18.334 10.121,0 18.334,8.208 18.334,18.334 H 99.385 c 0,-4.19 -3.404,-7.594 -7.593,-7.594 -4.195,0 -7.594,3.404 -7.594,7.594 v 25.927 0 c 0,4.195 3.399,7.594 7.594,7.594 4.189,0 7.588,-3.399 7.593,-7.589 v -0.005 -7.588 h -7.593 z" /></g><filter
       id="filter5288"
       style="color-interpolation-filters:sRGB"
       x="0"
       y="0"
       width="1.0123554"
       height="1.0275894"><feFlood
         id="feFlood5278"
         result="flood"
         flood-color="rgb(0,0,0)"
         flood-opacity="1" /><feComposite
         id="feComposite5280"
         result="composite1"
         operator="in"
         in2="SourceGraphic"
         in="flood" /><feOffset
         id="feOffset5284"
         result="offset"
         dy="1"
         dx="1" /><feComposite
         id="feComposite5286"
         result="composite2"
         operator="over"
         in2="offset"
         in="SourceGraphic" /></filter><g
       id="g13"
       fill="#ffffff"
       transform="matrix(2,0,0,2,40,158)"><path
         id="path10"
         d="M 5.482,31.319 C 2.163,28.001 0.109,23.419 0.109,18.358 0.109,8.232 8.322,0.024 18.443,0.024 c 10.126,0 18.339,8.208 18.339,18.334 h -10.74 c 0,-4.194 -3.404,-7.593 -7.599,-7.593 -4.194,0 -7.593,3.399 -7.593,7.593 0,2.095 0.851,3.993 2.22,5.363 h 0.005 c 1.375,1.38 2.52,1.779 5.368,2.231 v 0 c 5.066,0.527 9.648,2.054 12.966,5.372 v 0 c 3.319,3.319 5.373,7.901 5.373,12.962 0,10.126 -8.213,18.339 -18.339,18.339 C 8.322,62.625 0.109,54.412 0.109,44.286 H 10.85 c 0,4.194 3.399,7.598 7.593,7.598 4.195,0 7.599,-3.404 7.599,-7.598 0,-2.095 -0.851,-3.988 -2.221,-5.363 H 23.816 C 22.441,37.548 20.468,37.074 18.443,36.697 V 36.692 C 13.533,35.939 8.8,34.638 5.482,31.319 Z" /><path
         id="path11"
         d="M 73.452,0.024 60.482,62.625 H 49.742 L 36.782,0.024 h 10.74 l 7.6,36.663 7.59,-36.663 z" /><path
         id="path13"
         d="m 91.792,25.952 h 18.334 v 18.334 h 0.005 c 0,10.127 -8.213,18.34 -18.339,18.34 -10.127,0 -18.334,-8.213 -18.334,-18.34 v 0 -25.927 h -0.005 c 0,-10.126 8.212,-18.334 18.339,-18.334 10.121,0 18.334,8.208 18.334,18.334 H 99.385 c 0,-4.19 -3.404,-7.594 -7.593,-7.594 -4.195,0 -7.594,3.404 -7.594,7.594 v 25.927 0 c 0,4.195 3.399,7.594 7.594,7.594 4.189,0 7.588,-3.399 7.593,-7.589 v -0.005 -7.588 h -7.593 z" /></g><linearGradient
       id="_Linear1-8"
       x2="1"
       gradientUnits="userSpaceOnUse"
       gradientTransform="matrix(-70.149385,387.15934,-387.15934,-70.149385,337.46862,273.47955)"><stop
         offset="0"
         stop-color="red"
         id="stop4-0" /><stop
         offset="1"
         stop-color="#900"
         id="stop5-2" /></linearGradient><linearGradient
       id="_Linear2-4"
       x2="1"
       gradientUnits="userSpaceOnUse"
       gradientTransform="matrix(163.53495,-313.31946,313.31946,163.53495,277.89392,602.71362)"><stop
         offset="0"
         stop-color="red"
         id="stop6-8" /><stop
         offset="1"
         stop-color="#900"
         id="stop7-3" /></linearGradient><linearGradient
       id="_Linear3-9"
       x2="1"
       gradientUnits="userSpaceOnUse"
       gradientTransform="matrix(-196.38237,337.59487,337.59487,196.38237,451.3585,269.19259)"><stop
         offset="0"
         stop-color="#900"
         stop-opacity=".65"
         id="stop8-0" /><stop
         offset="1"
         stop-color="#fe0000"
         stop-opacity=".65"
         id="stop9-5" /></linearGradient><linearGradient
       id="_Linear4-2"
       x2="1"
       gradientUnits="userSpaceOnUse"
       gradientTransform="matrix(-70.149385,387.15934,-387.15934,-70.149385,337.46862,273.47955)"><stop
         offset="0"
         stop-color="red"
         stop-opacity=".65"
         id="stop10-2" /><stop
         offset="1"
         stop-color="#900"
         stop-opacity=".65"
         id="stop11-7" /></linearGradient><style
       id="style1-3">
      .cls-1 {
        fill: #393939;
      }

      .cls-2 {
        fill: #654ff0;
      }
    </style><g
       id="SVG-7"
       fill="#ffffff"
       transform="matrix(2,0,0,2,40,158)"><path
         id="S-9"
         d="M 5.482,31.319 C 2.163,28.001 0.109,23.419 0.109,18.358 0.109,8.232 8.322,0.024 18.443,0.024 c 10.126,0 18.339,8.208 18.339,18.334 h -10.74 c 0,-4.194 -3.404,-7.593 -7.599,-7.593 -4.194,0 -7.593,3.399 -7.593,7.593 0,2.095 0.851,3.993 2.22,5.363 h 0.005 c 1.375,1.38 2.52,1.779 5.368,2.231 v 0 c 5.066,0.527 9.648,2.054 12.966,5.372 v 0 c 3.319,3.319 5.373,7.901 5.373,12.962 0,10.126 -8.213,18.339 -18.339,18.339 C 8.322,62.625 0.109,54.412 0.109,44.286 H 10.85 c 0,4.194 3.399,7.598 7.593,7.598 4.195,0 7.599,-3.404 7.599,-7.598 0,-2.095 -0.851,-3.988 -2.221,-5.363 H 23.816 C 22.441,37.548 20.468,37.074 18.443,36.697 V 36.692 C 13.533,35.939 8.8,34.638 5.482,31.319 Z" /><path
         id="V-0"
         d="M 73.452,0.024 60.482,62.625 H 49.742 L 36.782,0.024 h 10.74 l 7.6,36.663 7.59,-36.663 z" /><path
         id="G-2"
         d="m 91.792,25.952 h 18.334 v 18.334 h 0.005 c 0,10.127 -8.213,18.34 -18.339,18.34 -10.127,0 -18.334,-8.213 -18.334,-18.34 v 0 -25.927 h -0.005 c 0,-10.126 8.212,-18.334 18.339,-18.334 10.121,0 18.334,8.208 18.334,18.334 H 99.385 c 0,-4.19 -3.404,-7.594 -7.593,-7.594 -4.195,0 -7.594,3.404 -7.594,7.594 v 25.927 0 c 0,4.195 3.399,7.594 7.594,7.594 4.189,0 7.588,-3.399 7.593,-7.589 v -0.005 -7.588 h -7.593 z" /></g><filter
       id="filter5288-3"
       style="color-interpolation-filters:sRGB"
       x="0"
       y="0"
       width="1.0123554"
       height="1.0275894"><feFlood
         id="feFlood5278-9"
         result="flood"
         flood-color="rgb(0,0,0)"
         flood-opacity="1" /><feComposite
         id="feComposite5280-9"
         result="composite1"
         operator="in"
         in2="SourceGraphic"
         in="flood" /><feOffset
         id="feOffset5284-7"
         result="offset"
         dy="1"
         dx="1" /><feComposite
         id="feComposite5286-0"
         result="composite2"
         operator="over"
         in2="offset"
         in="SourceGraphic" /></filter><clipPath
       clipPathUnits="userSpaceOnUse"
       id="clipPath66"><rect
         style="opacity:0.501853;fill:#ff00ff;stroke-width:160.975"
         id="rect67"
         width="1000.0001"
         height="1000.0001"
         x="-1040.7366"
         y="-1039.3176" /></clipPath><linearGradient
       id="_Linear1-2"
       x2="1"
       gradientUnits="userSpaceOnUse"
       gradientTransform="matrix(-70.149385,387.15934,-387.15934,-70.149385,337.46862,273.47955)"><stop
         offset="0"
         stop-color="red"
         id="stop4-5" /><stop
         offset="1"
         stop-color="#900"
         id="stop5-22" /></linearGradient><linearGradient
       id="_Linear2-7"
       x2="1"
       gradientUnits="userSpaceOnUse"
       gradientTransform="matrix(163.53495,-313.31946,313.31946,163.53495,277.89392,602.71362)"><stop
         offset="0"
         stop-color="red"
         id="stop6-1" /><stop
         offset="1"
         stop-color="#900"
         id="stop7-5" /></linearGradient><linearGradient
       id="_Linear3-2"
       x2="1"
       gradientUnits="userSpaceOnUse"
       gradientTransform="matrix(-196.38237,337.59487,337.59487,196.38237,451.3585,269.19259)"><stop
         offset="0"
         stop-color="#900"
         stop-opacity=".65"
         id="stop8-1" /><stop
         offset="1"
         stop-color="#fe0000"
         stop-opacity=".65"
         id="stop9-1" /></linearGradient><linearGradient
       id="_Linear4-0"
       x2="1"
       gradientUnits="userSpaceOnUse"
       gradientTransform="matrix(-70.149385,387.15934,-387.15934,-70.149385,337.46862,273.47955)"><stop
         offset="0"
         stop-color="red"
         stop-opacity=".65"
         id="stop10-1" /><stop
         offset="1"
         stop-color="#900"
         stop-opacity=".65"
         id="stop11-8" /></linearGradient><style
       id="style1-7">
      .cls-1 {
        fill: #393939;
      }

      .cls-2 {
        fill: #654ff0;
      }
    </style><g
       id="SVG-6"
       fill="#ffffff"
       transform="matrix(2,0,0,2,40,158)"><path
         id="S-0"
         d="M 5.482,31.319 C 2.163,28.001 0.109,23.419 0.109,18.358 0.109,8.232 8.322,0.024 18.443,0.024 c 10.126,0 18.339,8.208 18.339,18.334 h -10.74 c 0,-4.194 -3.404,-7.593 -7.599,-7.593 -4.194,0 -7.593,3.399 -7.593,7.593 0,2.095 0.851,3.993 2.22,5.363 h 0.005 c 1.375,1.38 2.52,1.779 5.368,2.231 v 0 c 5.066,0.527 9.648,2.054 12.966,5.372 v 0 c 3.319,3.319 5.373,7.901 5.373,12.962 0,10.126 -8.213,18.339 -18.339,18.339 C 8.322,62.625 0.109,54.412 0.109,44.286 H 10.85 c 0,4.194 3.399,7.598 7.593,7.598 4.195,0 7.599,-3.404 7.599,-7.598 0,-2.095 -0.851,-3.988 -2.221,-5.363 H 23.816 C 22.441,37.548 20.468,37.074 18.443,36.697 V 36.692 C 13.533,35.939 8.8,34.638 5.482,31.319 Z" /><path
         id="V-09"
         d="M 73.452,0.024 60.482,62.625 H 49.742 L 36.782,0.024 h 10.74 l 7.6,36.663 7.59,-36.663 z" /><path
         id="G-5"
         d="m 91.792,25.952 h 18.334 v 18.334 h 0.005 c 0,10.127 -8.213,18.34 -18.339,18.34 -10.127,0 -18.334,-8.213 -18.334,-18.34 v 0 -25.927 h -0.005 c 0,-10.126 8.212,-18.334 18.339,-18.334 10.121,0 18.334,8.208 18.334,18.334 H 99.385 c 0,-4.19 -3.404,-7.594 -7.593,-7.594 -4.195,0 -7.594,3.404 -7.594,7.594 v 25.927 0 c 0,4.195 3.399,7.594 7.594,7.594 4.189,0 7.588,-3.399 7.593,-7.589 v -0.005 -7.588 h -7.593 z" /></g><filter
       id="filter5288-6"
       style="color-interpolation-filters:sRGB"
       x="0"
       y="0"
       width="1.0123554"
       height="1.0275894"><feFlood
         id="feFlood5278-2"
         result="flood"
         flood-color="rgb(0,0,0)"
         flood-opacity="1" /><feComposite
         id="feComposite5280-8"
         result="composite1"
         operator="in"
         in2="SourceGraphic"
         in="flood" /><feOffset
         id="feOffset5284-5"
         result="offset"
         dy="1"
         dx="1" /><feComposite
         id="feComposite5286-9"
         result="composite2"
         operator="over"
         in2="offset"
         in="SourceGraphic" /></filter><clipPath
       clipPathUnits="userSpaceOnUse"
       id="clipPath66-4"><rect
         style="opacity:0.501853;fill:#ff00ff;stroke-width:160.975"
         id="rect67-3"
         width="1000.0001"
         height="1000.0001"
         x="-1040.7366"
         y="-1039.3176" /></clipPath><linearGradient
       id="_Linear1-4"
       x2="1"
       gradientUnits="userSpaceOnUse"
       gradientTransform="matrix(-70.149385,387.15934,-387.15934,-70.149385,337.46862,273.47955)"><stop
         offset="0"
         stop-color="red"
         id="stop4-51" /><stop
         offset="1"
         stop-color="#900"
         id="stop5-1" /></linearGradient><linearGradient
       id="_Linear2-6"
       x2="1"
       gradientUnits="userSpaceOnUse"
       gradientTransform="matrix(163.53495,-313.31946,313.31946,163.53495,277.89392,602.71362)"><stop
         offset="0"
         stop-color="red"
         id="stop6-19" /><stop
         offset="1"
         stop-color="#900"
         id="stop7-34" /></linearGradient><linearGradient
       id="_Linear3-7"
       x2="1"
       gradientUnits="userSpaceOnUse"
       gradientTransform="matrix(-196.38237,337.59487,337.59487,196.38237,451.3585,269.19259)"><stop
         offset="0"
         stop-color="#900"
         stop-opacity=".65"
         id="stop8-9" /><stop
         offset="1"
         stop-color="#fe0000"
         stop-opacity=".65"
         id="stop9-8" /></linearGradient><linearGradient
       id="_Linear4-07"
       x2="1"
       gradientUnits="userSpaceOnUse"
       gradientTransform="matrix(-70.149385,387.15934,-387.15934,-70.149385,337.46862,273.47955)"><stop
         offset="0"
         stop-color="red"
         stop-opacity=".65"
         id="stop10-5" /><stop
         offset="1"
         stop-color="#900"
         stop-opacity=".65"
         id="stop11-84" /></linearGradient><style
       id="style1-2">
      .cls-1 {
        fill: #393939;
      }

      .cls-2 {
        fill: #654ff0;
      }
    </style><g
       id="SVG-5"
       fill="#ffffff"
       transform="matrix(2,0,0,2,40,158)"><path
         id="S-07"
         d="M 5.482,31.319 C 2.163,28.001 0.109,23.419 0.109,18.358 0.109,8.232 8.322,0.024 18.443,0.024 c 10.126,0 18.339,8.208 18.339,18.334 h -10.74 c 0,-4.194 -3.404,-7.593 -7.599,-7.593 -4.194,0 -7.593,3.399 -7.593,7.593 0,2.095 0.851,3.993 2.22,5.363 h 0.005 c 1.375,1.38 2.52,1.779 5.368,2.231 v 0 c 5.066,0.527 9.648,2.054 12.966,5.372 v 0 c 3.319,3.319 5.373,7.901 5.373,12.962 0,10.126 -8.213,18.339 -18.339,18.339 C 8.322,62.625 0.109,54.412 0.109,44.286 H 10.85 c 0,4.194 3.399,7.598 7.593,7.598 4.195,0 7.599,-3.404 7.599,-7.598 0,-2.095 -0.851,-3.988 -2.221,-5.363 H 23.816 C 22.441,37.548 20.468,37.074 18.443,36.697 V 36.692 C 13.533,35.939 8.8,34.638 5.482,31.319 Z" /><path
         id="V-07"
         d="M 73.452,0.024 60.482,62.625 H 49.742 L 36.782,0.024 h 10.74 l 7.6,36.663 7.59,-36.663 z" /><path
         id="G-6"
         d="m 91.792,25.952 h 18.334 v 18.334 h 0.005 c 0,10.127 -8.213,18.34 -18.339,18.34 -10.127,0 -18.334,-8.213 -18.334,-18.34 v 0 -25.927 h -0.005 c 0,-10.126 8.212,-18.334 18.339,-18.334 10.121,0 18.334,8.208 18.334,18.334 H 99.385 c 0,-4.19 -3.404,-7.594 -7.593,-7.594 -4.195,0 -7.594,3.404 -7.594,7.594 v 25.927 0 c 0,4.195 3.399,7.594 7.594,7.594 4.189,0 7.588,-3.399 7.593,-7.589 v -0.005 -7.588 h -7.593 z" /></g><filter
       id="filter5288-8"
       style="color-interpolation-filters:sRGB"
       x="0"
       y="0"
       width="1.0123555"
       height="1.0275894"><feFlood
         id="feFlood5278-23"
         result="flood"
         flood-color="rgb(0,0,0)"
         flood-opacity="1" /><feComposite
         id="feComposite5280-90"
         result="composite1"
         operator="in"
         in2="SourceGraphic"
         in="flood" /><feOffset
         id="feOffset5284-3"
         result="offset"
         dy="1"
         dx="1" /><feComposite
         id="feComposite5286-8"
         result="composite2"
         operator="over"
         in2="offset"
         in="SourceGraphic" /></filter><clipPath
       clipPathUnits="userSpaceOnUse"
       id="clipPath66-3"><rect
         style="opacity:0.501853;fill:#ff00ff;stroke-width:160.975"
         id="rect67-1"
         width="1000.0001"
         height="1000.0001"
         x="-1040.7366"
         y="-1039.3176" /></clipPath></defs><g
     id="g102"
     transform="matrix(0.10103188,0,0,0.10103188,-16.934703,3.2204975)"><path
       style="fill:none;stroke:#000000;stroke-width:26.3283;stroke-linecap:round;stroke-dasharray:none;stroke-opacity:1"
       d="m 191.84761,271.0855 52.36215,-65.56137 c 0,0 -39.52127,-134.481587 2.22456,-175.443603 82.52242,-80.972995 346.83489,2.176138 346.83489,2.176138 0,0 -63.53115,180.680995 -142.54738,213.598075 -64.74443,26.97164 -206.51207,-40.33061 -206.51207,-40.33061"
       id="path100" /><path
       style="fill:none;stroke:#000000;stroke-width:26.3283233;stroke-linecap:round;stroke-dasharray:none;stroke-opacity:1"
       d="m 255.96636,191.25216 c 0,0 30.17962,-32.63901 47.35838,-46.62656 15.18913,-12.36753 17.74797,-16.66248 48.85692,-32.64951 31.10895,-15.987032 144.08542,-43.275266 144.08542,-43.275266"
       id="path101"
       transform="translate(17.140422,-11.426948)" /><path
       style="fill:none;stroke:#000000;stroke-width:26.3283233;stroke-linecap:round;stroke-dasharray:none;stroke-opacity:1"
       d="m 300.5119,55.987097 2.81284,88.638503 107.98268,22.77721"
       id="path102"
       transform="translate(17.140422,-11.426948)" /></g><g
     id="g9"
     transform="matrix(-0.04655456,0,0,0.04655456,56.372778,35.073183)"
     style="display:inline"><path
       style="fill:none;stroke:#000000;stroke-width:57.1373;stroke-linecap:round;stroke-dasharray:none;stroke-opacity:1"
       d="m 244.20976,205.52413 c 0,0 -39.52127,-134.481587 2.22456,-175.443603 82.52242,-80.972994 346.83489,2.176138 346.83489,2.176138 0,0 -63.53115,180.680995 -142.54738,213.598075 -64.74443,26.97164 -206.51207,-40.33061 -206.51207,-40.33061 l -52.36215,65.56137"
       id="path7" /><path
       style="display:none;fill:none;stroke:#000000;stroke-width:57.1373;stroke-linecap:round;stroke-dasharray:none;stroke-opacity:1"
       d="m 284.7586,164.08619 c 0,0 47.35008,-38.82507 74.97586,-51.166 29.58843,-13.217675 94.40049,-23.24187 94.40049,-23.24187"
       id="path8"
       transform="translate(17.140422,-11.426948)" /><path
       style="display:none;fill:none;stroke:#000000;stroke-width:57.1373;stroke-linecap:round;stroke-dasharray:none;stroke-opacity:1"
       d="m 300.5119,55.987097 4.6469,92.306613 106.14862,19.1091"
       id="path9"
       transform="translate(17.140422,-11.426948)" /></g></svg>
