<svg viewBox="0 0 50 50" xmlns="http://www.w3.org/2000/svg"><path d="m31.84 20.95675h-.61v-2.31c0-3.43-2.79-6.23-6.23-6.23s-6.23 2.79-6.23 6.23v2.31h-.61c-1.08 0-1.95.88-1.95 1.96v8.52c0 1.08.88 1.96 1.95 1.96h13.67c1.08 0 1.95-.88 1.95-1.96v-8.52c0-1.08-.88-1.96-1.95-1.96zm-10.18-2.31c0-2.22 1.13-3.35 3.35-3.35s3.35 1.13 3.35 3.35v2.31h-6.7zm8.9 11.1c0 .36-.29.66-.65.66h-9.8c-.36 0-.65-.29-.65-.66v-5.11c0-.36.29-.66.65-.66h9.8c.36 0 .65.29.65.66z"/><path d="m25.54 25.29675c-.8-.34-1.49.09-1.75.68-.25.56-.15 1.31.51 1.71v.04c-.02.37-.04.84.25 1.09.11.1.25.15.42.15.05 0 .11 0 .17-.02.62-.11.59-.75.57-1.09 0-.06 0-.15 0-.2 0 0 .02-.01.03-.02.12-.08.21-.14.27-.2.3-.33.42-.76.33-1.2-.09-.43-.39-.79-.79-.96z"/><path d="m24.92.95675c-.17 0-.34.03-.5.09l-17.18 6.3c-.68.25-1.13.9-1.13 1.63v18.89c0 4.69 2.65 8.57 6.1 11.86 3.45 3.3 7.8 6.16 11.79 9 .6.43 1.41.43 2 0 3.99-2.84 8.34-5.7 11.79-9s6.1-7.17 6.1-11.86v-18.89c0-.73-.45-1.38-1.13-1.63l-17.16-6.3c-.22-.08-.45-.11-.68-.09zm.09 3.55 15.46 5.67v17.7c0 3.4-1.92 6.39-5.05 9.38-2.86 2.73-6.67 5.32-10.41 7.96-3.74-2.64-7.55-5.23-10.41-7.96-3.12-2.98-5.05-5.98-5.05-9.38v-17.7z"/></svg>
