<svg viewBox="0 0 50 50" xmlns="http://www.w3.org/2000/svg"><path d="m20.654209 39.345c-2.78 0-5.08 2.29-5.08 5.08s2.29 5.08 5.08 5.08 5.08-2.29 5.08-5.08-2.29-5.08-5.08-5.08zm0 7.1c-1.14 0-2.03-.89-2.03-2.03s.89-2.03 2.03-2.03 2.03.89 2.03 2.03-.89 2.03-2.03 2.03z"/><path d="m35.874209 39.345c-2.78 0-5.08 2.29-5.08 5.08s2.29 5.08 5.08 5.08 5.08-2.29 5.08-5.08-2.29-5.08-5.08-5.08zm0 7.1c-1.14 0-2.03-.89-2.03-2.03s.89-2.03 2.03-2.03 2.03.89 2.03 2.03-.89 2.03-2.03 2.03z"/><path d="m46.824209 12.525s-1.07-.11-1.38.82c-.22.69-2.91 12.47-2.91 12.47l-23.14 1.84-6.06-15.13-.48-1.19-1.17-2.93c-.23-.56-.81-.95-1.41-.95h-7.0999996c-.84 0-1.52.68-1.52 1.52s.68 1.52 1.52 1.52h6.07c2.5199996 6.24 4.9999996 12.49 7.4999996 18.75l-2.3 5.54c-.19.46-.14 1.02.14 1.43s.77.68 1.27.68h25.38c.8.01 1.54-.72 1.54-1.52s-.74-1.53-1.54-1.52h-23.09l1.32-3.14 24.44-1.95c.64-.05 1.22-.55 1.36-1.17l3.05-13.2c.2-.89-.58-1.86-1.49-1.86z"/><path d="m36.814209 9.395h-.9v-2.67c0-3.44-2.79-6.23-6.23-6.23s-6.23 2.79-6.23 6.23v2.67h-.9c-.98 0-1.77.8-1.77 1.78v8.89c0 .99.8 1.78 1.77 1.78h14.25c.98 0 1.77-.8 1.77-1.78v-8.89c0-.99-.8-1.78-1.77-1.78zm-10.89-2.67c0-2.46 1.3-3.76 3.76-3.76s3.76 1.3 3.76 3.76v2.67h-7.51v-2.67zm9.82 11.58c0 .52-.42.95-.95.95h-10.22c-.52 0-.95-.42-.95-.95v-5.33c0-.52.42-.95.95-.95h10.22c.52 0 .95.42.95.95z" fill-rule="evenodd"/></svg>
