<?xml version="1.0" encoding="UTF-8" standalone="no"?>
<svg
   viewBox="0 0 50 50"
   version="1.1"
   id="svg6"
   xml:space="preserve"
   xmlns="http://www.w3.org/2000/svg"
   xmlns:svg="http://www.w3.org/2000/svg"><defs
     id="defs6"><linearGradient
       id="_Linear1"
       x2="1"
       gradientUnits="userSpaceOnUse"
       gradientTransform="matrix(-70.149385,387.15934,-387.15934,-70.149385,337.46862,273.47955)"><stop
         offset="0"
         stop-color="red"
         id="stop4" /><stop
         offset="1"
         stop-color="#900"
         id="stop5" /></linearGradient><linearGradient
       id="_Linear2"
       x2="1"
       gradientUnits="userSpaceOnUse"
       gradientTransform="matrix(163.53495,-313.31946,313.31946,163.53495,277.89392,602.71362)"><stop
         offset="0"
         stop-color="red"
         id="stop6" /><stop
         offset="1"
         stop-color="#900"
         id="stop7" /></linearGradient><linearGradient
       id="_Linear3"
       x2="1"
       gradientUnits="userSpaceOnUse"
       gradientTransform="matrix(-196.38237,337.59487,337.59487,196.38237,451.3585,269.19259)"><stop
         offset="0"
         stop-color="#900"
         stop-opacity=".65"
         id="stop8" /><stop
         offset="1"
         stop-color="#fe0000"
         stop-opacity=".65"
         id="stop9" /></linearGradient><linearGradient
       id="_Linear4"
       x2="1"
       gradientUnits="userSpaceOnUse"
       gradientTransform="matrix(-70.149385,387.15934,-387.15934,-70.149385,337.46862,273.47955)"><stop
         offset="0"
         stop-color="red"
         stop-opacity=".65"
         id="stop10" /><stop
         offset="1"
         stop-color="#900"
         stop-opacity=".65"
         id="stop11" /></linearGradient><style
       id="style1">
      .cls-1 {
        fill: #393939;
      }

      .cls-2 {
        fill: #654ff0;
      }
    </style><g
       id="SVG"
       fill="#ffffff"
       transform="matrix(2,0,0,2,40,158)"><path
         id="S"
         d="M 5.482,31.319 C 2.163,28.001 0.109,23.419 0.109,18.358 0.109,8.232 8.322,0.024 18.443,0.024 c 10.126,0 18.339,8.208 18.339,18.334 h -10.74 c 0,-4.194 -3.404,-7.593 -7.599,-7.593 -4.194,0 -7.593,3.399 -7.593,7.593 0,2.095 0.851,3.993 2.22,5.363 h 0.005 c 1.375,1.38 2.52,1.779 5.368,2.231 v 0 c 5.066,0.527 9.648,2.054 12.966,5.372 v 0 c 3.319,3.319 5.373,7.901 5.373,12.962 0,10.126 -8.213,18.339 -18.339,18.339 C 8.322,62.625 0.109,54.412 0.109,44.286 H 10.85 c 0,4.194 3.399,7.598 7.593,7.598 4.195,0 7.599,-3.404 7.599,-7.598 0,-2.095 -0.851,-3.988 -2.221,-5.363 H 23.816 C 22.441,37.548 20.468,37.074 18.443,36.697 V 36.692 C 13.533,35.939 8.8,34.638 5.482,31.319 Z" /><path
         id="V"
         d="M 73.452,0.024 60.482,62.625 H 49.742 L 36.782,0.024 h 10.74 l 7.6,36.663 7.59,-36.663 z" /><path
         id="G"
         d="m 91.792,25.952 h 18.334 v 18.334 h 0.005 c 0,10.127 -8.213,18.34 -18.339,18.34 -10.127,0 -18.334,-8.213 -18.334,-18.34 v 0 -25.927 h -0.005 c 0,-10.126 8.212,-18.334 18.339,-18.334 10.121,0 18.334,8.208 18.334,18.334 H 99.385 c 0,-4.19 -3.404,-7.594 -7.593,-7.594 -4.195,0 -7.594,3.404 -7.594,7.594 v 25.927 0 c 0,4.195 3.399,7.594 7.594,7.594 4.189,0 7.588,-3.399 7.593,-7.589 v -0.005 -7.588 h -7.593 z" /></g><filter
       id="filter5288"
       style="color-interpolation-filters:sRGB"
       x="0"
       y="0"
       width="1.0123554"
       height="1.0275894"><feFlood
         id="feFlood5278"
         result="flood"
         flood-color="rgb(0,0,0)"
         flood-opacity="1" /><feComposite
         id="feComposite5280"
         result="composite1"
         operator="in"
         in2="SourceGraphic"
         in="flood" /><feOffset
         id="feOffset5284"
         result="offset"
         dy="1"
         dx="1" /><feComposite
         id="feComposite5286"
         result="composite2"
         operator="over"
         in2="offset"
         in="SourceGraphic" /></filter><g
       id="g13"
       fill="#ffffff"
       transform="matrix(2,0,0,2,40,158)"><path
         id="path10"
         d="M 5.482,31.319 C 2.163,28.001 0.109,23.419 0.109,18.358 0.109,8.232 8.322,0.024 18.443,0.024 c 10.126,0 18.339,8.208 18.339,18.334 h -10.74 c 0,-4.194 -3.404,-7.593 -7.599,-7.593 -4.194,0 -7.593,3.399 -7.593,7.593 0,2.095 0.851,3.993 2.22,5.363 h 0.005 c 1.375,1.38 2.52,1.779 5.368,2.231 v 0 c 5.066,0.527 9.648,2.054 12.966,5.372 v 0 c 3.319,3.319 5.373,7.901 5.373,12.962 0,10.126 -8.213,18.339 -18.339,18.339 C 8.322,62.625 0.109,54.412 0.109,44.286 H 10.85 c 0,4.194 3.399,7.598 7.593,7.598 4.195,0 7.599,-3.404 7.599,-7.598 0,-2.095 -0.851,-3.988 -2.221,-5.363 H 23.816 C 22.441,37.548 20.468,37.074 18.443,36.697 V 36.692 C 13.533,35.939 8.8,34.638 5.482,31.319 Z" /><path
         id="path11"
         d="M 73.452,0.024 60.482,62.625 H 49.742 L 36.782,0.024 h 10.74 l 7.6,36.663 7.59,-36.663 z" /><path
         id="path13"
         d="m 91.792,25.952 h 18.334 v 18.334 h 0.005 c 0,10.127 -8.213,18.34 -18.339,18.34 -10.127,0 -18.334,-8.213 -18.334,-18.34 v 0 -25.927 h -0.005 c 0,-10.126 8.212,-18.334 18.339,-18.334 10.121,0 18.334,8.208 18.334,18.334 H 99.385 c 0,-4.19 -3.404,-7.594 -7.593,-7.594 -4.195,0 -7.594,3.404 -7.594,7.594 v 25.927 0 c 0,4.195 3.399,7.594 7.594,7.594 4.189,0 7.588,-3.399 7.593,-7.589 v -0.005 -7.588 h -7.593 z" /></g><linearGradient
       id="_Linear1-8"
       x2="1"
       gradientUnits="userSpaceOnUse"
       gradientTransform="matrix(-70.149385,387.15934,-387.15934,-70.149385,337.46862,273.47955)"><stop
         offset="0"
         stop-color="red"
         id="stop4-0" /><stop
         offset="1"
         stop-color="#900"
         id="stop5-2" /></linearGradient><linearGradient
       id="_Linear2-4"
       x2="1"
       gradientUnits="userSpaceOnUse"
       gradientTransform="matrix(163.53495,-313.31946,313.31946,163.53495,277.89392,602.71362)"><stop
         offset="0"
         stop-color="red"
         id="stop6-8" /><stop
         offset="1"
         stop-color="#900"
         id="stop7-3" /></linearGradient><linearGradient
       id="_Linear3-9"
       x2="1"
       gradientUnits="userSpaceOnUse"
       gradientTransform="matrix(-196.38237,337.59487,337.59487,196.38237,451.3585,269.19259)"><stop
         offset="0"
         stop-color="#900"
         stop-opacity=".65"
         id="stop8-0" /><stop
         offset="1"
         stop-color="#fe0000"
         stop-opacity=".65"
         id="stop9-5" /></linearGradient><linearGradient
       id="_Linear4-2"
       x2="1"
       gradientUnits="userSpaceOnUse"
       gradientTransform="matrix(-70.149385,387.15934,-387.15934,-70.149385,337.46862,273.47955)"><stop
         offset="0"
         stop-color="red"
         stop-opacity=".65"
         id="stop10-2" /><stop
         offset="1"
         stop-color="#900"
         stop-opacity=".65"
         id="stop11-7" /></linearGradient><style
       id="style1-3">
      .cls-1 {
        fill: #393939;
      }

      .cls-2 {
        fill: #654ff0;
      }
    </style><g
       id="SVG-7"
       fill="#ffffff"
       transform="matrix(2,0,0,2,40,158)"><path
         id="S-9"
         d="M 5.482,31.319 C 2.163,28.001 0.109,23.419 0.109,18.358 0.109,8.232 8.322,0.024 18.443,0.024 c 10.126,0 18.339,8.208 18.339,18.334 h -10.74 c 0,-4.194 -3.404,-7.593 -7.599,-7.593 -4.194,0 -7.593,3.399 -7.593,7.593 0,2.095 0.851,3.993 2.22,5.363 h 0.005 c 1.375,1.38 2.52,1.779 5.368,2.231 v 0 c 5.066,0.527 9.648,2.054 12.966,5.372 v 0 c 3.319,3.319 5.373,7.901 5.373,12.962 0,10.126 -8.213,18.339 -18.339,18.339 C 8.322,62.625 0.109,54.412 0.109,44.286 H 10.85 c 0,4.194 3.399,7.598 7.593,7.598 4.195,0 7.599,-3.404 7.599,-7.598 0,-2.095 -0.851,-3.988 -2.221,-5.363 H 23.816 C 22.441,37.548 20.468,37.074 18.443,36.697 V 36.692 C 13.533,35.939 8.8,34.638 5.482,31.319 Z" /><path
         id="V-0"
         d="M 73.452,0.024 60.482,62.625 H 49.742 L 36.782,0.024 h 10.74 l 7.6,36.663 7.59,-36.663 z" /><path
         id="G-2"
         d="m 91.792,25.952 h 18.334 v 18.334 h 0.005 c 0,10.127 -8.213,18.34 -18.339,18.34 -10.127,0 -18.334,-8.213 -18.334,-18.34 v 0 -25.927 h -0.005 c 0,-10.126 8.212,-18.334 18.339,-18.334 10.121,0 18.334,8.208 18.334,18.334 H 99.385 c 0,-4.19 -3.404,-7.594 -7.593,-7.594 -4.195,0 -7.594,3.404 -7.594,7.594 v 25.927 0 c 0,4.195 3.399,7.594 7.594,7.594 4.189,0 7.588,-3.399 7.593,-7.589 v -0.005 -7.588 h -7.593 z" /></g><filter
       id="filter5288-3"
       style="color-interpolation-filters:sRGB"
       x="0"
       y="0"
       width="1.0123554"
       height="1.0275894"><feFlood
         id="feFlood5278-9"
         result="flood"
         flood-color="rgb(0,0,0)"
         flood-opacity="1" /><feComposite
         id="feComposite5280-9"
         result="composite1"
         operator="in"
         in2="SourceGraphic"
         in="flood" /><feOffset
         id="feOffset5284-7"
         result="offset"
         dy="1"
         dx="1" /><feComposite
         id="feComposite5286-0"
         result="composite2"
         operator="over"
         in2="offset"
         in="SourceGraphic" /></filter><clipPath
       clipPathUnits="userSpaceOnUse"
       id="clipPath66"><rect
         style="opacity:0.501853;fill:#ff00ff;stroke-width:160.975"
         id="rect67"
         width="1000.0001"
         height="1000.0001"
         x="-1040.7366"
         y="-1039.3176" /></clipPath><linearGradient
       id="_Linear1-2"
       x2="1"
       gradientUnits="userSpaceOnUse"
       gradientTransform="matrix(-70.149385,387.15934,-387.15934,-70.149385,337.46862,273.47955)"><stop
         offset="0"
         stop-color="red"
         id="stop4-5" /><stop
         offset="1"
         stop-color="#900"
         id="stop5-22" /></linearGradient><linearGradient
       id="_Linear2-7"
       x2="1"
       gradientUnits="userSpaceOnUse"
       gradientTransform="matrix(163.53495,-313.31946,313.31946,163.53495,277.89392,602.71362)"><stop
         offset="0"
         stop-color="red"
         id="stop6-1" /><stop
         offset="1"
         stop-color="#900"
         id="stop7-5" /></linearGradient><linearGradient
       id="_Linear3-2"
       x2="1"
       gradientUnits="userSpaceOnUse"
       gradientTransform="matrix(-196.38237,337.59487,337.59487,196.38237,451.3585,269.19259)"><stop
         offset="0"
         stop-color="#900"
         stop-opacity=".65"
         id="stop8-1" /><stop
         offset="1"
         stop-color="#fe0000"
         stop-opacity=".65"
         id="stop9-1" /></linearGradient><linearGradient
       id="_Linear4-0"
       x2="1"
       gradientUnits="userSpaceOnUse"
       gradientTransform="matrix(-70.149385,387.15934,-387.15934,-70.149385,337.46862,273.47955)"><stop
         offset="0"
         stop-color="red"
         stop-opacity=".65"
         id="stop10-1" /><stop
         offset="1"
         stop-color="#900"
         stop-opacity=".65"
         id="stop11-8" /></linearGradient><style
       id="style1-7">
      .cls-1 {
        fill: #393939;
      }

      .cls-2 {
        fill: #654ff0;
      }
    </style><g
       id="SVG-6"
       fill="#ffffff"
       transform="matrix(2,0,0,2,40,158)"><path
         id="S-0"
         d="M 5.482,31.319 C 2.163,28.001 0.109,23.419 0.109,18.358 0.109,8.232 8.322,0.024 18.443,0.024 c 10.126,0 18.339,8.208 18.339,18.334 h -10.74 c 0,-4.194 -3.404,-7.593 -7.599,-7.593 -4.194,0 -7.593,3.399 -7.593,7.593 0,2.095 0.851,3.993 2.22,5.363 h 0.005 c 1.375,1.38 2.52,1.779 5.368,2.231 v 0 c 5.066,0.527 9.648,2.054 12.966,5.372 v 0 c 3.319,3.319 5.373,7.901 5.373,12.962 0,10.126 -8.213,18.339 -18.339,18.339 C 8.322,62.625 0.109,54.412 0.109,44.286 H 10.85 c 0,4.194 3.399,7.598 7.593,7.598 4.195,0 7.599,-3.404 7.599,-7.598 0,-2.095 -0.851,-3.988 -2.221,-5.363 H 23.816 C 22.441,37.548 20.468,37.074 18.443,36.697 V 36.692 C 13.533,35.939 8.8,34.638 5.482,31.319 Z" /><path
         id="V-09"
         d="M 73.452,0.024 60.482,62.625 H 49.742 L 36.782,0.024 h 10.74 l 7.6,36.663 7.59,-36.663 z" /><path
         id="G-5"
         d="m 91.792,25.952 h 18.334 v 18.334 h 0.005 c 0,10.127 -8.213,18.34 -18.339,18.34 -10.127,0 -18.334,-8.213 -18.334,-18.34 v 0 -25.927 h -0.005 c 0,-10.126 8.212,-18.334 18.339,-18.334 10.121,0 18.334,8.208 18.334,18.334 H 99.385 c 0,-4.19 -3.404,-7.594 -7.593,-7.594 -4.195,0 -7.594,3.404 -7.594,7.594 v 25.927 0 c 0,4.195 3.399,7.594 7.594,7.594 4.189,0 7.588,-3.399 7.593,-7.589 v -0.005 -7.588 h -7.593 z" /></g><filter
       id="filter5288-6"
       style="color-interpolation-filters:sRGB"
       x="0"
       y="0"
       width="1.0123554"
       height="1.0275894"><feFlood
         id="feFlood5278-2"
         result="flood"
         flood-color="rgb(0,0,0)"
         flood-opacity="1" /><feComposite
         id="feComposite5280-8"
         result="composite1"
         operator="in"
         in2="SourceGraphic"
         in="flood" /><feOffset
         id="feOffset5284-5"
         result="offset"
         dy="1"
         dx="1" /><feComposite
         id="feComposite5286-9"
         result="composite2"
         operator="over"
         in2="offset"
         in="SourceGraphic" /></filter><clipPath
       clipPathUnits="userSpaceOnUse"
       id="clipPath66-4"><rect
         style="opacity:0.501853;fill:#ff00ff;stroke-width:160.975"
         id="rect67-3"
         width="1000.0001"
         height="1000.0001"
         x="-1040.7366"
         y="-1039.3176" /></clipPath><linearGradient
       id="_Linear1-4"
       x2="1"
       gradientUnits="userSpaceOnUse"
       gradientTransform="matrix(-70.149385,387.15934,-387.15934,-70.149385,337.46862,273.47955)"><stop
         offset="0"
         stop-color="red"
         id="stop4-51" /><stop
         offset="1"
         stop-color="#900"
         id="stop5-1" /></linearGradient><linearGradient
       id="_Linear2-6"
       x2="1"
       gradientUnits="userSpaceOnUse"
       gradientTransform="matrix(163.53495,-313.31946,313.31946,163.53495,277.89392,602.71362)"><stop
         offset="0"
         stop-color="red"
         id="stop6-19" /><stop
         offset="1"
         stop-color="#900"
         id="stop7-34" /></linearGradient><linearGradient
       id="_Linear3-7"
       x2="1"
       gradientUnits="userSpaceOnUse"
       gradientTransform="matrix(-196.38237,337.59487,337.59487,196.38237,451.3585,269.19259)"><stop
         offset="0"
         stop-color="#900"
         stop-opacity=".65"
         id="stop8-9" /><stop
         offset="1"
         stop-color="#fe0000"
         stop-opacity=".65"
         id="stop9-8" /></linearGradient><linearGradient
       id="_Linear4-07"
       x2="1"
       gradientUnits="userSpaceOnUse"
       gradientTransform="matrix(-70.149385,387.15934,-387.15934,-70.149385,337.46862,273.47955)"><stop
         offset="0"
         stop-color="red"
         stop-opacity=".65"
         id="stop10-5" /><stop
         offset="1"
         stop-color="#900"
         stop-opacity=".65"
         id="stop11-84" /></linearGradient><style
       id="style1-2">
      .cls-1 {
        fill: #393939;
      }

      .cls-2 {
        fill: #654ff0;
      }
    </style><g
       id="SVG-5"
       fill="#ffffff"
       transform="matrix(2,0,0,2,40,158)"><path
         id="S-07"
         d="M 5.482,31.319 C 2.163,28.001 0.109,23.419 0.109,18.358 0.109,8.232 8.322,0.024 18.443,0.024 c 10.126,0 18.339,8.208 18.339,18.334 h -10.74 c 0,-4.194 -3.404,-7.593 -7.599,-7.593 -4.194,0 -7.593,3.399 -7.593,7.593 0,2.095 0.851,3.993 2.22,5.363 h 0.005 c 1.375,1.38 2.52,1.779 5.368,2.231 v 0 c 5.066,0.527 9.648,2.054 12.966,5.372 v 0 c 3.319,3.319 5.373,7.901 5.373,12.962 0,10.126 -8.213,18.339 -18.339,18.339 C 8.322,62.625 0.109,54.412 0.109,44.286 H 10.85 c 0,4.194 3.399,7.598 7.593,7.598 4.195,0 7.599,-3.404 7.599,-7.598 0,-2.095 -0.851,-3.988 -2.221,-5.363 H 23.816 C 22.441,37.548 20.468,37.074 18.443,36.697 V 36.692 C 13.533,35.939 8.8,34.638 5.482,31.319 Z" /><path
         id="V-07"
         d="M 73.452,0.024 60.482,62.625 H 49.742 L 36.782,0.024 h 10.74 l 7.6,36.663 7.59,-36.663 z" /><path
         id="G-6"
         d="m 91.792,25.952 h 18.334 v 18.334 h 0.005 c 0,10.127 -8.213,18.34 -18.339,18.34 -10.127,0 -18.334,-8.213 -18.334,-18.34 v 0 -25.927 h -0.005 c 0,-10.126 8.212,-18.334 18.339,-18.334 10.121,0 18.334,8.208 18.334,18.334 H 99.385 c 0,-4.19 -3.404,-7.594 -7.593,-7.594 -4.195,0 -7.594,3.404 -7.594,7.594 v 25.927 0 c 0,4.195 3.399,7.594 7.594,7.594 4.189,0 7.588,-3.399 7.593,-7.589 v -0.005 -7.588 h -7.593 z" /></g><filter
       id="filter5288-8"
       style="color-interpolation-filters:sRGB"
       x="0"
       y="0"
       width="1.0123555"
       height="1.0275894"><feFlood
         id="feFlood5278-23"
         result="flood"
         flood-color="rgb(0,0,0)"
         flood-opacity="1" /><feComposite
         id="feComposite5280-90"
         result="composite1"
         operator="in"
         in2="SourceGraphic"
         in="flood" /><feOffset
         id="feOffset5284-3"
         result="offset"
         dy="1"
         dx="1" /><feComposite
         id="feComposite5286-8"
         result="composite2"
         operator="over"
         in2="offset"
         in="SourceGraphic" /></filter><clipPath
       clipPathUnits="userSpaceOnUse"
       id="clipPath66-3"><rect
         style="opacity:0.501853;fill:#ff00ff;stroke-width:160.975"
         id="rect67-1"
         width="1000.0001"
         height="1000.0001"
         x="-1040.7366"
         y="-1039.3176" /></clipPath></defs><g
     id="g102"
     transform="matrix(0.10103188,0,0,0.10103188,-16.934703,3.2204975)"><path
       style="stroke-linecap:round;stroke-linejoin:round"
       d="m 363.23047,-18.466797 c -9.8536,0.167677 -19.58026,0.688999 -29.08203,1.626953 -38.00708,3.751815 -72.99157,14.0309421 -96.9336,37.523438 -13.74787,13.489751 -19.45616,32.561154 -21.8125,52.548828 -2.35633,19.987673 -1.21356,41.486838 1.19532,61.503908 4.0798,33.90199 10.91152,59.32045 13.24023,67.6875 l -48.27734,60.44726 a 13.16415,13.16415 0 0 0 2.07226,18.5 13.16415,13.16415 0 0 0 18.5,-2.07031 l 46.07031,-57.67969 c 10.81746,4.89685 35.60867,15.7928 71.09571,26.75977 44.56741,13.77318 97.37569,25.91714 136.48437,9.625 C 502.02778,238.741 537.03259,183.05313 563.29297,132.81055 589.55335,82.567965 605.6875,36.623047 605.6875,36.623047 a 13.165467,13.165467 0 0 0 -8.46875,-16.923828 c 0,0 -66.91783,-21.0877883 -144.60156,-31.933594 -29.1314,-4.067177 -59.82593,-6.735453 -89.38672,-6.232422 z M 363.65625,7.875 c 27.6554,-0.4510621 57.15665,2.0347299 85.32031,5.966797 55.07414,7.689169 104.30104,20.637538 126.92969,27.060547 -6.33509,16.403848 -18.63801,46.594061 -35.94727,79.710936 -25.25925,48.32719 -61.52717,99.43762 -94.29882,113.08984 -25.63575,10.67951 -76.08342,2.65848 -118.58594,-10.47656 -37.33403,-11.53776 -64.63845,-23.93404 -71.70508,-27.19336 -2.03293,-7.30131 -8.74447,-32.1323 -12.63281,-64.44336 -2.25322,-18.72357 -3.16194,-38.525243 -1.1875,-55.273434 1.97444,-16.748191 6.98043,-29.848587 14.10547,-36.839844 C 272.97348,22.482561 301.97343,12.792705 336.73437,9.3613281 345.42461,8.5034838 354.43778,8.025354 363.65625,7.875 Z"
       id="path100" /><path
       style="stroke-linecap:round;stroke-linejoin:round"
       d="m 493.17578,55.904297 c 0,0 -28.40878,6.861114 -60.76953,15.74414 -32.36075,8.883027 -67.63381,19.056209 -86.24219,28.619143 -31.70045,16.291 -36.55708,22.268 -51.15039,34.15039 -19.10018,15.55204 -48.71289,47.89648 -48.71289,47.89648 a 13.164162,13.164162 0 0 0 0.72852,18.60352 13.164162,13.164162 0 0 0 18.60351,-0.72852 c 0,0 30.74657,-32.9324 46.00391,-45.35547 15.78495,-12.85266 16.04505,-15.46538 46.5625,-31.14843 12.50057,-6.4241 49.27106,-17.89059 81.17578,-26.648441 31.90472,-8.757848 59.98242,-15.541015 59.98242,-15.541015 a 13.164162,13.164162 0 0 0 9.70508,-15.886719 13.164162,13.164162 0 0 0 -15.88672,-9.705078 z"
       id="path101"
       transform="translate(17.140422,-11.426948)" /><path
       style="stroke-linecap:round;stroke-linejoin:round"
       d="m 300.09375,42.830078 a 13.164162,13.164162 0 0 0 -12.74023,13.574219 l 2.81445,88.638673 a 13.165478,13.165478 0 0 0 10.43945,12.46289 L 408.58984,180.2832 A 13.164162,13.164162 0 0 0 424.1875,170.11914 13.164162,13.164162 0 0 0 414.02344,154.52148 L 316.1543,133.87891 313.66992,55.570312 A 13.164162,13.164162 0 0 0 300.09375,42.830078 Z"
       id="path102"
       transform="translate(17.140422,-11.426948)" /></g><g
     id="g9"
     transform="matrix(-0.04655456,0,0,0.04655456,56.372778,35.073183)"
     style="display:inline"><path
       style="stroke-linecap:round;stroke-linejoin:round"
       d="m 362.98242,-33.878906 c -10.2252,0.177812 -20.37106,0.724159 -30.34765,1.708984 -39.90637,3.939301 -78.39198,14.564658 -106.20899,41.8593751 -17.62286,17.2919729 -23.74248,39.8571629 -26.32226,61.7402339 -2.57979,21.883072 -1.30074,44.372603 1.19921,65.146483 3.1132,25.86976 8.14749,48.23351 11.66211,62.29102 l -43.43945,54.39062 a 28.568649,28.568649 0 0 0 4.49414,40.15039 28.568649,28.568649 0 0 0 40.15039,-4.49414 l 38.6836,-48.43359 c 15.17329,6.36451 36.85793,14.88059 61.89843,22.61914 45.77557,14.14654 99.96349,28.70301 146.95508,9.12695 54.1275,-22.54877 88.39215,-80.91798 115.23828,-132.28125 C 603.79144,88.582045 620.2207,41.732422 620.2207,41.732422 A 28.571506,28.571506 0 0 0 601.8418,5.0039062 c 0,0 -67.90012,-21.4375302 -147.09375,-32.4941402 -29.69762,-4.146229 -61.09001,-6.92211 -91.76563,-6.388672 z m 0.92383,57.167968 c 26.54057,-0.420655 55.34396,1.955579 82.94141,5.808594 44.00933,6.144358 82.74967,15.430569 108.33593,22.212891 -6.90536,16.694136 -16.72617,38.924267 -28.875,62.167973 -24.6735,47.2065 -61.68353,95.6356 -86.57226,106.0039 -17.75284,7.39559 -66.82087,1.78902 -108.11524,-10.97265 -30.1028,-9.30302 -51.2176,-18.28297 -63.18359,-23.58399 -3.01563,-11.72974 -7.41234,-30.29726 -10.40625,-55.17578 -2.16214,-17.96676 -2.93458,-36.778066 -1.18359,-51.630859 1.75099,-14.852793 6.34564,-24.457449 9.5957,-27.646485 13.44421,-13.19178 38.94304,-22.537359 71.80469,-25.78125 8.21541,-0.810973 16.81134,-1.262125 25.6582,-1.402344 z"
       id="path7" /></g></svg>
