<svg viewBox="0 0 50 50" xmlns="http://www.w3.org/2000/svg"><path d="m46.930567 13.65c0-.41-.17-.81-.45-1.11l-11.421133-11.51c-.32-.34-.76-.53-1.22-.53h-26.6900007c-2.25 0-4.08 1.83-4.08 4.08v40.84c0 2.25 1.83 4.08 4.08 4.08h35.7000007c2.25 0 4.08-1.83 4.08-4.11zm-11.751133-7.61 6.531133 6.3h-6.531133zm7.67 40.12h-35.7000007c-.41 0-.74-.33-.74-.74v-40.84c0-.41.33-.74.74-.74h25.3600007v9.84c0 .74.6 1.34 1.34 1.34h9.771133l-.021133 30.4c0 .41-.33.74-.74.74z"/><path d="m38.129434 36.77h-26.55c-.86 0-1.56.7-1.56 1.56s.7 1.56 1.56 1.56h26.55c.86 0 1.56-.7 1.56-1.56s-.7-1.56-1.56-1.56z"/><path d="m38.129434 29.94h-26.55c-.86 0-1.56.7-1.56 1.56s.7 1.56 1.56 1.56h26.55c.86 0 1.56-.7 1.56-1.56s-.7-1.56-1.56-1.56z"/><path d="m38.129434 23.11h-26.55c-.86 0-1.56.7-1.56 1.56s.7 1.56 1.56 1.56h26.55c.86 0 1.56-.7 1.56-1.56s-.7-1.56-1.56-1.56z"/></svg>
