<svg viewBox="0 0 50 50" xmlns="http://www.w3.org/2000/svg"><path d="m24.98 13.375c3.6 0 6.53-2.93 6.53-6.53s-2.93-6.53-6.53-6.53-6.53 2.93-6.53 6.53 2.93 6.53 6.53 6.53zm0-10.08c1.96 0 3.55 1.59 3.55 3.55s-1.59 3.55-3.55 3.55-3.55-1.59-3.55-3.55 1.59-3.55 3.55-3.55z"/><path d="m43.7 16.985c-.18-1.12-.78-2.11-1.7-2.79-.92-.67-2.05-.95-3.17-.77-3.3.52-8.88.89-11.23 1.03-.81.05-1.38.71-1.36 1.56.02.79.65 1.31 1.64 1.37.69.05 7.68-.47 11.4-1.06.35-.06.69.03.98.24s.48.52.53.87c.11.72-.38 1.4-1.1 1.51-3.3.52-6.62.86-9.88 1.03l-1.29.07c-.12 0-.24.07-.31.17s-.1.23-.07.35c.07.3 4.75 24.02 4.75 24.02s.41 1.94-1.26 2.17c-1.44.2-1.76-.92-2.06-1.81-1.39-4.18-3.19-14.67-3.19-14.67 0-.02-.02-.05-.02-.07-.01-.05-.03-.1-.05-.15-.02-.04-.04-.08-.06-.12s-.04-.08-.07-.12-.06-.08-.09-.12c-.03-.03-.06-.06-.09-.1-.04-.04-.07-.07-.11-.1-.03-.03-.06-.05-.1-.08s-.09-.06-.14-.08c-.03-.02-.07-.03-.1-.05-.06-.02-.11-.04-.17-.06-.02 0-.04-.02-.06-.02-.01 0-.03 0-.04 0-.06-.01-.12-.02-.18-.03-.04 0-.07 0-.11 0-.05 0-.1 0-.15 0s-.09 0-.14.02c-.02 0-.04 0-.05 0-.03 0-.05.02-.08.03-.05.01-.09.03-.14.05-.04.02-.09.04-.13.06s-.08.04-.11.07c-.04.03-.08.06-.12.09-.03.03-.06.06-.1.09-.03.03-.07.07-.1.11-.03.03-.06.07-.08.11-.03.04-.05.08-.07.12s-.04.08-.06.12c-.02.05-.04.1-.05.15 0 .02-.02.05-.03.07 0 0-2.77 11.54-3.95 14.97-.38 1.1-.62 1.78-2.02 1.38-1.25-.35-.89-1.64-.83-1.86 0 0 4.95-23.81 5.04-24.18.03-.12 0-.25-.07-.35s-.19-.16-.31-.17l-1.29-.07c-3.26-.17-6.58-.51-9.88-1.03-.72-.11-1.22-.79-1.1-1.51.05-.35.24-.66.53-.87s.64-.29.98-.24c3.72.58 10.72 1.12 11.4 1.06.99-.06 1.62-.58 1.64-1.37.02-.86-.55-1.52-1.46-1.57-2.24-.13-7.82-.5-11.12-1.02-1.12-.18-2.25.1-3.17.77s-1.53 1.66-1.7 2.79c-.18 1.12.1 2.25.77 3.17s1.66 1.53 2.79 1.7c2.84.44 5.71.77 8.52.96-.26 1.18-4.33 21.21-4.33 21.21-.11.45-.45 2.14.47 3.63.44.71 1.32 1.75 3.12 1.93 2.61.26 4.01-.56 5.09-3.94l2.26-8.96s2.18 10.42 3.6 12.11c.49.58 1.34.88 2.58.88.31 0 .64-.03 1-.09 1.78-.31 2.68-1.22 3.12-1.93.92-1.48.58-3.18.47-3.63 0 0-3.82-20.03-4.08-21.21 2.82-.19 5.68-.52 8.52-.96 1.12-.18 2.11-.78 2.79-1.7.67-.92.95-2.05.77-3.17z"/></svg>
