<svg viewBox="0 0 50 50" xmlns="http://www.w3.org/2000/svg"><path d="m44.69 28.88626c-.87-.47-1.43.25-1.67.47-.32.29-1.6 1.25-3.42 2.04-2.41 1.09-6.98 2.53-10.69 2.82-1.18.09-2.37.16-3.48.19v-8.14h4.66c.26 0 .68-.28.75-.36.24-.23.37-.56.37-.91s-.14-.68-.37-.9c-.07-.07-.49-.36-.75-.36h-4.66v-8.14c.46.01.92.04 1.38.07.47.03.93.06 1.4.07h.11c.38.02.9.04 1.28-.45.26-.33.34-.77.22-1.16s-.43-.7-.83-.82c-.32-.1-.84-.13-1.43-.17h-.24c-.34-.04-.67-.04-1.01-.05-.3 0-.59-.01-.88-.03v-7.0000003c1.05.04 2.19.22 3.47.55 1.09 1.46 1.85 3.13 2.51 4.7200003l.07.12c.35.43.92.57 1.45.37.52-.2.83-.68.8-1.22-.01-.27-.18-.7000003-.5-1.4000003l-.07-.16c-.14-.32-.3-.66-.5-1.05 1.96.99 3.77 2.3400003 5.39 4.0100003l.12.09c.49.26 1.06.21 1.46-.12.39-.32.53-.84.37-1.35-.2-.6500003-1.96-2.0800003-2.5-2.5100003-5.03-4.01-11.57-5.51-17.92-4.11-6.39 1.4-11.71 5.52-14.62 11.2900003-.37.73-.75 1.49-.81 1.63-.22.51-.48 1.3.37 1.81s1.53-.12 1.69-.4.72-1.36.97-1.82c1.7-3.45 4.57-6.42 8.05-8.2700003.1-.06.26-.14.44-.22-1.02 1.44-2 4.5700003-2.72 6.9900003v.02c-.25.77-.5 1.59-.54 1.74-.14.54-.27 1.36.65 1.73.92.36 1.5-.36 1.6-.67.08-.24.33-.96.52-1.5 1.33-.27 3.03-.41 4.23-.53 1.18-.12 2.35-.16 3.48-.19v8.14h-1.71c-.3 0-.73.33-.83.45-.39.47-.36 1.26.07 1.69.05.06.48.38.76.38h1.71v8.14c-.15 0-.29 0-.44 0-.17 0-.35 0-.52 0-.18 0-.37-.03-.57-.05-.45-.05-.92-.1-1.33-.04-.47.07-.83.43-.94.92-.12.52.07 1.04.47 1.33.34.24.86.27 1.28.3h.16c.36.04.72.04 1.06.05.29 0 .56 0 .84.02v6.99c-1.06-.05-2.1-.2-3.05-.44q-.4-.1-.56-.33l-.12-.16c-.57-.79-.92-1.56-1.3-2.38-.2-.44-.41-.9-.66-1.37-.4-.76-1.13-.87-1.64-.66s-.94.82-.69 1.65c.16.52.48 1.18.78 1.76-1.45-.75-2.76-1.62-3.9-2.6-.14-.13-.33-.32-.53-.52-.33-.34-.64-.67-.91-.84-.54-.34-1.19-.28-1.62.16-.42.43-.49 1.06-.15 1.57.22.34.85.91 1.53 1.5 3.92 3.42 8.82 5.25 13.98 5.25.72 0 1.45-.04 2.18-.11 5.91-.58 10.81-2.46 14.98-8.29.48-.68 1.33-2.18 2.17-3.88.36-.61.69-1.25.99-1.9.34-.74.69-1.52.74-1.66.2-.51.43-1.32-.44-1.79zm-21.79-15.83c-.33.02-.65.03-.98.05-.71.03-1.43.06-2.16.13-.52.05-1.08.11-1.83.21-.36.05-.72.11-1.08.16-.22.04-.44.07-.66.11.64-2.24 1.39-4.0900003 2.31-5.6500003l.07-.12c.18-.3.63-1.08.85-1.31.27-.11 1.45-.34 1.97-.42.55-.08 1.04-.13 1.49-.14v6.9900003zm9.24 23.33c-.65 2.37-1.7 4.77-2.82 6.41l-.09.14c-.07.11-.24.37-.32.47-.1.04-.34.08-.44.1-.07.01-.13.03-.17.04-1 .23-1.96.36-2.86.4v-7.01h.52.63c1.5-.08 3.1-.24 4.91-.5.21-.03.42-.07.62-.12.02 0 .04 0 .06-.01l-.02.08zm2.31 4.59c-.24.15-1.08.63-1.79 1.01l.3-.57c.86-1.86 1.45-3.82 1.96-5.67 2.34-.61 4.11-1.22 5.68-1.96.19-.09.38-.19.56-.29-1.53 3.04-3.88 5.66-6.71 7.48z"/><path d="m12.45 37.73626c.27.25.64.39.99.39.24 0 .41-.06.54-.11.02 0 .04-.02.07-.03.55-.23.9-.78.9-1.38v-1.9c1.6-.41 2.77-1.87 2.77-3.56v-7.58c0-2.02-1.65-3.67-3.67-3.67h-9.48c-2.02 0-3.54 1.58-3.54 3.67v7.58c0 2.02 1.65 3.67 3.67 3.67h4.39l3.36 2.9zm-9.45-6.57v-7.58c0-1 .65-1.7 1.57-1.7h9.48c.94 0 1.7.76 1.7 1.7v7.58c0 .94-.76 1.7-1.7 1.7h-.08c-.54 0-.98.44-.98.98v1.74l-2.88-2.49c-.18-.15-.41-.24-.64-.24h-4.76c-.94 0-1.7-.76-1.7-1.7z"/><circle cx="5.76" cy="27.15626" r="1.35"/><circle cx="9.08" cy="27.15626" r="1.35"/><circle cx="12.45" cy="27.15626" r="1.35"/><path d="m40.91 27.91626h4.39c2.02 0 3.67-1.65 3.67-3.67v-7.58c0-2.09-1.52-3.67-3.54-3.67h-9.48c-2.02 0-3.67 1.65-3.67 3.67v7.58c0 1.68 1.17 3.15 2.77 3.56v1.9c0 .6.35 1.14.9 1.38.03.01.05.02.07.03.12.04.3.11.54.11.36 0 .73-.15.99-.39l3.36-2.9zm4.39-1.97h-4.76c-.24 0-.46.09-.64.24l-2.88 2.49v-1.74c0-.54-.44-.98-.98-.98h-.08c-.94 0-1.7-.76-1.7-1.7v-7.58c0-.94.76-1.7 1.7-1.7h9.48c.93 0 1.57.7 1.57 1.7v7.58c0 .94-.76 1.7-1.7 1.7z"/><circle cx="37.279999" cy="20.466259" r="1.35"/><circle cx="40.599998" cy="20.466259" r="1.35"/><circle cx="43.970001" cy="20.466259" r="1.35"/></svg>
