<svg viewBox="0 0 50 50" xmlns="http://www.w3.org/2000/svg"><path d="m19.81 20.860001c-3.13 0-5.68 2.15-5.68 4.8v3.61c0 .66.53 1.19 1.19 1.19s1.19-.53 1.19-1.19v-3.61c0-1.31 1.51-2.42 3.29-2.42s3.29 1.11 3.29 2.42v3.61c0 .66.53 1.19 1.19 1.19s1.19-.53 1.19-1.19v-3.61c0-2.65-2.55-4.8-5.68-4.8"/><path d="m19.81 13.300001 2.59 4.49h-5.19l2.59-4.49zm-2.96 6.61h5.92c.69 0 1.3-.36 1.65-.95.34-.6.34-1.3 0-1.9l-2.96-5.13c-.34-.59-.96-.95-1.64-.95s-1.3.35-1.64.95l-2.96 5.13c-.34.59-.34 1.3 0 1.9s.96.95 1.64.95"/><path d="m3.86 25.020001c0-.58.47-1.05 1.06-1.05h2.52c.58 0 1.06.47 1.06 1.05v2.52c0 .58-.47 1.06-1.06 1.06h-2.52c-.58 0-1.06-.47-1.06-1.06zm1.05 5.68h2.52c1.75 0 3.17-1.42 3.17-3.17v-2.52c0-1.75-1.42-3.17-3.17-3.17h-2.52c-1.75 0-3.17 1.42-3.17 3.17v2.52c0 1.75 1.42 3.17 3.17 3.17"/><path d="m6.17 31.770001c-3.13 0-5.68 2.15-5.68 4.8v3.61c0 .66.53 1.19 1.19 1.19s1.19-.53 1.19-1.19v-3.61c0-1.31 1.51-2.42 3.29-2.42s3.29 1.11 3.29 2.42v3.61c0 .66.53 1.19 1.19 1.19s1.19-.53 1.19-1.19v-3.61c0-2.65-2.55-4.8-5.68-4.8"/><path d="m33.49 24.020001c1.38 0 2.51 1.13 2.51 2.51s-1.13 2.51-2.51 2.51-2.51-1.13-2.51-2.51 1.13-2.51 2.51-2.51m0 7.13c2.55 0 4.62-2.07 4.62-4.62s-2.07-4.62-4.62-4.62-4.62 2.07-4.62 4.62 2.07 4.62 4.62 4.62"/><path d="m33.49 32.030001c-3.13 0-5.68 2.15-5.68 4.8v3.61c0 .66.53 1.19 1.19 1.19s1.19-.53 1.19-1.19v-3.61c0-1.31 1.51-2.42 3.29-2.42s3.29 1.11 3.29 2.42v3.61c0 .66.53 1.19 1.19 1.19s1.19-.53 1.19-1.19v-3.61c0-2.65-2.55-4.8-5.68-4.8"/><path d="m35.6 16.750001v-7.33c0-.57-.48-1.05-1.05-1.05s-1.02.51-1.02 1.05v7.33c0 .57.48 1.05 1.05 1.05s1.02-.48 1.02-1.05"/><path d="m40.39 18.960001 5.19-5.19c.4-.4.4-1.08 0-1.48s-1.08-.4-1.48 0l-5.19 5.19c-.4.4-.4 1.08 0 1.48s1.08.4 1.48 0"/><path d="m41.12 24.340001h7.33c.57 0 1.05-.48 1.05-1.05s-.48-1.05-1.05-1.05h-7.33c-.57 0-1.05.48-1.05 1.05 0 .6.48 1.05 1.05 1.05"/></svg>