<?xml version="1.0" encoding="UTF-8" standalone="no"?>
<svg
   width="59.933136"
   height="60"
   version="1.1"
   viewBox="0 0 44.949852 45"
   id="svg102"
   xmlns="http://www.w3.org/2000/svg"
   xmlns:svg="http://www.w3.org/2000/svg">
  <defs
     id="defs106" />
  <g
     transform="matrix(0.20065394,0,0,0.20065394,-14.881782,-13.284647)"
     id="g6">
    <path
       d="M 239.15407,198.18661 C 236.44789,196.03854 232.4969,196.49533 230.34877,199.2015 227.68813,202.55605 225.2715,204.57522 222.51656,205.75045 217.43575,207.9125 213.12899,206.99874 208.96529,202.8735 204.88521,198.83181 200.90987,194.42758 197.053,190.15914 195.1664,188.07033 193.27645,185.97805 191.36196,183.91012 188.09096,180.37765 184.80263,176.85903 181.5176,173.33694 L 181.22805,173.02652 C 174.08285,165.37918 166.69698,157.47018 159.57265,149.52634 153.92342,143.22495 145.19496,140.10385 136.79775,141.36624 128.21566,142.64957 121.27614,148.14194 117.25545,156.82852 113.38124,165.1943 114.6924,174.70041 120.67287,181.63638 131.19381,193.83816 140.06881,203.92654 150.46401,213.41531 154.71499,217.293 159.85866,219.35739 165.33693,219.38528 168.89046,219.4028 174.24672,219.0018 179.7112,215.32272 182.10347,213.71176 184.33174,212.0552 185.31166,209.527 186.30904,206.9396 185.37788,203.96505 183.04152,202.28768 180.7748,200.65566 177.80025,200.77065 175.6382,202.56661 175.36611,202.79317 175.06966,203.05483 174.7455,203.33736 171.34895,206.31191 167.12233,210.01522 158.50545,203.82888 150.61055,198.15871 144.49758,190.7275 137.415,182.12118 135.10647,179.31735 132.71773,176.41604 130.16512,173.45187 127.43807,170.28909 126.84871,165.9371 128.62722,162.09066 130.1791,158.743 133.17452,154.57925 138.65646,153.75985 142.8096,153.13552 147.46505,154.79537 150.24441,157.89217 157.42806,165.90572 164.86972,173.8774 172.06722,181.58059 175.43941,185.1899 178.81142,188.80257 182.16616,192.42587 184.04586,194.45547 185.90102,196.50924 187.78408,198.59463 191.73861,202.97116 195.82552,207.49404 200.14272,211.77285 207.9366,219.49685 217.62398,221.45321 227.43355,217.27908 232.14479,215.26693 236.19344,211.99942 240.16878,206.98837 242.31331,204.28586 241.86006,200.33822 239.15407,198.18661 Z"
       style="fill:#111111"
       id="path2" />
    <path
       d="M 248.95962,163.37539 C 253.01174,161.45388 256.19912,157.83761 256.50247,153.45071 257.27316,145.8348 251.00314,138.54654 241.77945,137.42007 236.1163,136.70181 230.86105,138.37918 227.13681,141.46536 225.14566,143.12173 224.60855,146.18704 226.33469,148.34909 228.22123,150.5983 230.39725,150.99222 233.9578,149.0361 235.23405,148.31076 237.15207,147.70743 239.26182,147.85379 243.2407,148.12942 244.38096,151.7142 244.26939,153.34268 244.25187,153.58334 244.27641,159.13486 238.67247,158.74783 L 236.55919,158.60147 C 234.20537,158.44095 231.85143,160.64145 231.67717,163.15909 231.48875,165.83743 233.44865,168.17722 235.88609,168.34818 L 238.48405,168.52598 C 245.63298,169.02122 244.88664,175.08885 244.73674,176.05839 244.59727,178.84812 240.11961,183.58018 232.13396,178.19938 229.42437,176.37565 210.09832,152.10124 210.09832,152.10124 200.94103,140.26225 185.3811,138.17686 173.10265,147.14598 171.75316,148.1328 170.86382,149.58696 170.60582,151.24351 170.35124,152.89634 170.75224,154.55284 171.73918,155.90232 172.726,157.25181 174.18022,158.14115 175.83317,158.39915 177.49644,158.65727 179.14591,158.25273 180.49552,157.26579 188.87174,151.14586 196.33781,154.79332 200.17716,159.7592 200.17716,159.7592 220.92612,186.4467 226.26847,189.27476 229.73478,191.10911 233.35453,192.16917 237.03342,192.42381 248.32505,193.20488 255.20169,186.98369 257.05704,178.46104 258.2739,172.87455 254.66123,165.89323 248.95963,163.37541 Z"
       style="fill:#111111"
       id="path4" />
  </g>
  <g
     aria-label="WORLD WIDE WEB CONSORTIUM"
     transform="matrix(0.20065394,0,0,0.20065394,-14.881782,-13.284647)"
     id="g100">
    <path
       id="polygon8"
       style="fill:#111111"
       d="M 85.57154,227.49968 94.17008,226.16321 87.58319,231.74861 89.0455,234.83638 99.31636,225.64945 98.08056,223.03725 89.23903,224.21578 95.7374,218.09058 94.5016,215.48012 80.96593,217.77468 82.21127,220.4025 90.72129,218.87684 84.27152,224.75384 Z" />
    <path
       d="M 86.76395,213.94925 C 90.81675,212.79503 92.51772,209.18655 91.4173,205.31773 90.31341,201.44891 86.76569,199.33485 82.91422,200.43354 78.86315,201.58776 77.16132,205.1945 78.26348,209.06332 79.41684,213.11612 83.07738,215.00107 86.76395,213.94925 Z M 80.98849,208.28921 C 80.40443,206.23417 81.47014,204.18434 83.79421,203.52131 85.93777,202.91035 88.00322,203.67752 88.69142,206.09358 89.27027,208.12779 88.06571,210.24011 85.8857,210.86148 83.55989,211.52451 81.58817,210.39632 80.98849,208.28921 Z"
       style="fill:#111111"
       id="path10" />
    <path
       d="M 88.59683,193.67829 84.01898,194.32396 83.86364,193.22181 87.99542,189.39812 87.48253,185.77403 82.86216,190.31282 C 82.40741,189.65326 81.20632,188.29596 78.77811,188.63963 76.36552,188.97982 74.77043,190.50027 75.27204,194.06883 75.32411,194.44374 75.8344,197.78318 75.9368,198.51216 L 89.01859,196.66887 88.59682,193.6783 Z M 78.31815,195.12585 C 78.21227,194.51316 78.1602,194.27363 78.09685,193.82236 77.89464,192.38522 78.5325,191.91312 79.26236,191.81071 80.36451,191.65623 80.90257,192.49457 81.06399,193.63491 L 81.21673,194.71797 Z"
       style="fill:#111111"
       id="path12" />
    <path
       id="polygon14"
       style="fill:#111111"
       d="M 84.61519,181.51467 74.23931,181.80453 74.32263,184.82461 87.52852,184.45317 87.2942,176.05771 84.46418,176.13755 Z" />
    <path
       d="M 87.35408,174.23872 C 87.47037,172.98035 87.6665,171.25336 87.73072,170.55735 88.19415,165.53777 85.38235,162.73639 81.69838,162.39967 78.20186,162.0751 74.97697,163.92012 74.49272,169.18269 74.41288,170.04706 74.25406,172.38328 74.18984,173.07928 L 74.16641,173.3431 87.32457,174.55807 87.35408,174.23871 Z M 84.92066,170.20327 C 84.88074,170.63545 84.85644,170.89928 84.78181,171.2898 L 77.26286,170.59553 C 77.2403,170.21542 77.27935,169.80059 77.30972,169.48123 77.53449,167.0374 78.9777,165.37115 81.40331,165.59332 83.90355,165.8259 85.16018,167.60844 84.92066,170.20328 Z"
       style="fill:#111111"
       id="path16" />
    <path
       id="polygon18"
       style="fill:#111111"
       d="M 78.49172,147.59956 85.77722,152.35705 77.1457,152.10191 76.16591,155.37366 89.94458,155.41531 90.77163,152.65038 83.41236,147.61345 92.33808,147.40517 93.16599,144.64023 81.57255,137.29138 80.73942,140.07541 88.0848,144.63503 79.36216,144.6871 Z" />
    <path
       id="rect20"
       style="fill:#111111"
       transform="rotate(-66.18191,89.78511,135.8039)"
       d="M 88.274101,129.19633 H 91.296121 V 142.41146 H 88.274101 Z" />
    <path
       d="M 97.8636,133.85995 C 98.49018,132.75953 99.37971,131.26859 99.72598,130.6611 102.21407,126.27852 100.80383,122.56938 97.58589,120.74171 94.5337,119.00951 90.83845,119.36185 88.22886,123.95792 87.79841,124.71294 86.69279,126.77666 86.34825,127.38241 L 86.21807,127.61325 97.70651,134.13766 97.86359,133.85995 Z M 96.73715,130.11436 90.17109,126.38439 C 90.30647,126.03031 90.51302,125.66756 90.67096,125.38985 91.8842,123.2567 93.88543,122.32985 96.00209,123.53441 98.18557,124.77368 98.59432,126.91724 97.30819,129.1823 97.0947,129.55894 96.96453,129.78805 96.73715,130.11436 Z"
       style="fill:#111111"
       id="path22" />
    <path
       id="polygon24"
       style="fill:#111111"
       d="M 100.99476,109.93712 98.72016,108.25178 94.0564,114.54708 104.67092,122.4149 109.44924,115.9686 107.17377,114.28326 104.19535,118.30135 102.27048,116.87462 104.79763,113.46228 102.52389,111.77521 99.99328,115.18928 98.12916,113.80595 Z" />
    <path
       id="polygon26"
       style="fill:#111111"
       d="M 108.90077,97.2771 112.76785,105.07029 105.45718,100.47422 102.95608,102.80002 114.81074,109.8191 116.9248,107.85431 113.13495,99.78168 120.93594,104.12955 123.05087,102.1613 116.78074,89.95429 114.65193,91.93122 118.67089,99.58555 111.12764,95.20818 Z" />
    <path
       id="polygon28"
       style="fill:#111111"
       d="M 127.55321,86.18093 125.94597,83.84991 119.4936,88.29324 126.99345,99.1794 133.60117,94.62673 131.99394,92.29224 127.87257,95.13181 126.51094,93.15834 130.01006,90.74749 128.40456,88.41474 124.9063,90.82559 123.58806,88.91462 Z" />
    <path
       d="M 139.08244,91.62227 C 141.61132,90.26324 142.89051,88.09711 141.57661,85.65328 140.77126,84.15539 139.50161,83.74577 138.48364,83.88463 L 138.46542,83.85165 C 139.02691,82.82239 139.05381,81.75669 138.40207,80.54172 137.53423,78.93101 135.71611,78.25757 132.9399,79.75025 131.67459,80.43064 130.09773,81.36443 129.46768,81.74454 L 135.68748,93.31803 C 136.40431,93.01776 137.96989,92.21935 139.08246,91.62227 Z M 138.84378,86.94809 C 139.26468,87.73088 138.99044,88.45639 137.95859,89.01007 137.45958,89.2791 137.21746,89.34506 137.00744,89.39365 L 135.83673,87.21538 136.86772,86.6617 C 137.73209,86.19654 138.45066,86.21737 138.84379,86.94809 Z M 134.58443,84.88785 133.45017,82.77727 C 133.73135,82.58287 133.91273,82.44228 134.24511,82.26351 134.89425,81.9129 135.71523,81.92332 136.09013,82.62106 136.54574,83.46981 136.14914,84.04779 135.46702,84.41401 Z"
       style="fill:#111111"
       id="path30" />
    <path
       d="M 154.72782,84.95033 C 156.41663,84.35326 157.82253,83.17473 158.27207,82.07258 L 156.43052,80.32302 C 155.81609,81.24293 154.93784,81.87298 154.04917,82.19061 151.80841,82.98208 149.72387,81.95977 148.94108,79.75372 148.07151,77.29947 149.16845,75.42842 151.09158,74.74803 152.26663,74.33147 153.08587,74.44255 153.90685,74.61091 L 154.41193,72.02822 C 153.40697,71.56306 151.79974,71.49363 150.14564,72.08029 145.85852,73.59901 144.65049,77.25087 145.91753,80.82636 147.29392,84.70386 150.86941,86.31978 154.72782,84.95033 Z"
       style="fill:#111111"
       id="path32" />
    <path
       d="M 165.73201,81.94935 C 169.66505,81.11102 172.01342,77.71604 171.17856,73.80035 170.30204,69.68159 166.81854,67.73937 162.8855,68.5777 158.76674,69.45422 156.64054,72.97417 157.43721,76.72496 158.31546,80.84372 161.79723,82.78594 165.73201,81.94935 Z M 163.47563,71.3461 C 165.56365,70.90177 167.53711,72.10459 168.04046,74.46858 168.50389,76.64859 167.59786,78.65503 165.14188,79.17747 163.07295,79.61833 161.04916,78.27318 160.57879,76.05672 160.07544,73.69273 161.33207,71.80258 163.47563,71.34609 Z"
       style="fill:#111111"
       id="path34" />
    <path
       id="polygon36"
       style="fill:#111111"
       d="M 186.04116,79.40311 185.2549,66.20676 182.42748,66.37512 182.90306,74.33146 176.16863,66.74829 173.75604,66.89236 174.54404,80.08697 177.36972,79.92034 176.89762,72.00219 183.62857,79.54544 Z" />
    <path
       d="M 192.75822,77.17103 C 191.83484,77.10855 190.71359,76.60173 190.02279,75.59156 L 188.17603,77.53378 C 188.72277,78.98828 190.72747,79.87521 192.49786,79.98976 195.04236,80.15465 197.1217,78.70189 197.27097,76.40385 197.55041,72.10805 192.01534,72.27815 192.15767,70.09293 192.19585,69.49065 192.70962,69.14525 193.53927,69.20079 194.51819,69.26154 194.93128,69.63124 195.47802,70.21442 L 197.24494,68.05871 C 196.4743,67.11971 195.15345,66.46709 193.45943,66.35601 190.8212,66.18591 189.08553,67.85043 188.95535,69.88464 188.67938,74.14225 194.19536,74.25507 194.06692,76.23201 194.027,76.85512 193.54795,77.22135 192.75822,77.17101 Z"
       style="fill:#111111"
       id="path38" />
    <path
       d="M 204.9635,81.60048 C 208.91216,82.37459 212.40261,80.16855 213.17151,76.23898 213.9786,72.10634 211.53824,68.95435 207.58784,68.18197 203.4552,67.37141 200.11749,69.78053 199.38156,73.54174 198.57273,77.67612 201.01657,80.82811 204.96349,81.60048 Z M 202.53182,74.15963 C 202.99698,71.78696 204.89408,70.54075 207.04458,70.96251 209.13954,71.37213 210.48469,73.25187 210.02126,75.62454 209.59428,77.80976 207.97316,79.30417 205.5085,78.81992 203.43263,78.41377 202.0979,76.38303 202.53182,74.15963 Z"
       style="fill:#111111"
       id="path40" />
    <path
       d="M 218.17373,80.01233 219.22729,80.37161 220.76163,85.79386 224.22604,86.98453 222.27688,80.80379 C 223.07356,80.69618 224.82659,80.2397 225.625,77.91736 226.41647,75.61238 225.78468,73.49833 222.37234,72.32501 222.01479,72.20351 218.80553,71.14128 218.10778,70.90176 L 213.81198,83.40557 216.67064,84.38796 218.17374,80.01232 Z M 220.04652,74.56404 C 220.64186,74.74802 220.88138,74.81051 221.30836,74.9563 222.68475,75.4284 222.81493,76.21293 222.5754,76.91067 222.21264,77.96423 221.21984,78.06142 220.13157,77.68825 L 219.09537,77.33244 Z"
       style="fill:#111111"
       id="path42" />
    <path
       id="polygon44"
       style="fill:#111111"
       d="M 237.82506,82.02745 239.03482,79.46386 229.12932,74.781 227.91608,77.3446 231.50546,79.03862 227.06213,88.43557 229.79582,89.72691 234.23741,80.3317 Z" />
    <path
       id="rect46"
       style="fill:#111111"
       transform="rotate(-59.6634,239.49523,87.451002)"
       d="M 232.88753,85.941299 H 246.10291 V 88.960709 H 232.88753 Z" />
    <path
       d="M 244.64453,99.00063 C 246.93215,100.67382 249.97306,100.86475 252.35787,97.60341 L 256.94179,91.34456 254.50316,89.56028 250.27852,95.33314 C 249.02883,97.03931 247.7965,97.7978 246.31771,96.71647 244.61328,95.46678 245.03331,93.83525 246.25002,92.17421 L 250.37746,86.53847 247.93883,84.75419 243.43475,90.90716 C 241.14886,94.03138 241.90388,96.99418 244.64452,99.00062 Z"
       style="fill:#111111"
       id="path48" />
    <path
       id="polygon50"
       style="fill:#111111"
       d="M 268.3556,102.14047 261.68887,103.33982 262.75804,96.52035 260.61275,94.36464 251.24704,103.69563 253.37845,105.83399 259.30578,99.93095 258.27826,106.12558 258.58548,106.43453 264.83738,105.40354 258.86839,111.34823 261.00154,113.49005 270.36898,104.16079 Z" />
    <path
       id="polygon52"
       style="fill:#111111"
       d="M 286.87526,129.36802 278.27499,130.68887 284.87229,125.11735 283.41606,122.02611 273.12871,131.19221 274.3593,133.80441 283.20084,132.64498 276.69205,138.75629 277.92265,141.37022 291.45918,139.10343 290.22165,136.47214 281.70816,137.97871 288.17008,132.11907 Z" />
    <path
       d="M 285.64988,142.9115 C 281.60055,144.06052 279.89438,147.66205 280.99306,151.52913 282.09001,155.39795 285.63079,157.51201 289.48052,156.42027 293.53159,155.27125 295.23602,151.66799 294.13907,147.8009 292.99179,143.75157 289.33645,141.86662 285.64988,142.9115 Z M 291.41579,148.57328 C 291.99724,150.62485 290.93154,152.67468 288.60573,153.33424 286.46391,153.94173 284.40192,153.17282 283.71633,150.75676 283.14009,148.72255 284.34638,146.61544 286.52465,145.99754 288.84872,145.33798 290.81698,146.46617 291.41579,148.57328 Z"
       style="fill:#111111"
       id="path54" />
    <path
       d="M 283.79617,163.22238 288.37836,162.58712 288.5311,163.69101 284.38978,167.50603 284.89486,171.13359 289.52738,166.60348 C 289.98039,167.26304 291.17974,168.62207 293.61143,168.28535 296.02402,167.94863 297.62431,166.42991 297.12791,162.85789 297.07758,162.48472 296.57249,159.14181 296.47356,158.41282 L 283.37962,160.23007 283.79618,163.22238 Z M 294.08179,161.79392 C 294.18767,162.40835 294.23974,162.64961 294.30222,163.09741 294.50009,164.53802 293.86136,165.00665 293.13237,165.11079 292.02848,165.26353 291.49389,164.42346 291.33421,163.28139 L 291.18494,162.19659 294.08178,161.79391 Z"
       style="fill:#111111"
       id="path56" />
    <path
       id="polygon58"
       style="fill:#111111"
       d="M 287.7431,175.39642 298.12071,175.13954 298.04434,172.11946 284.83584,172.44924 285.04413,180.8447 287.87675,180.77528 Z" />
    <path
       d="M 285.02156,182.34606 284.99032,182.66542 C 284.87056,183.92552 284.66748,185.65078 284.59979,186.34852 284.12248,191.3681 286.9256,194.17989 290.61217,194.5305 294.10956,194.86549 297.33965,193.02914 297.843,187.76483 297.92458,186.90046 298.0912,184.56251 298.15716,183.86824 L 298.1832,183.60442 285.02157,182.34605 Z M 295.02426,187.45763 C 294.79168,189.9032 293.34239,191.56598 290.91765,191.33339 288.41654,191.09387 287.16338,189.30612 287.41158,186.71302 287.45324,186.2791 287.47754,186.01528 287.55391,185.62302 L 295.07286,186.34333 C 295.09369,186.72344 295.0555,187.13653 295.02426,187.45763 Z"
       style="fill:#111111"
       id="path60" />
    <path
       id="polygon62"
       style="fill:#111111"
       d="M 293.79367,209.35492 286.51598,204.56792 295.15617,204.8491 296.14551,201.57562 282.35383,201.49404 281.51723,204.26071 288.86956,209.32541 279.93082,209.50592 279.09423,212.27433 290.67987,219.66484 291.51993,216.87908 284.18149,212.29168 292.91542,212.26565 Z" />
    <path
       id="rect64"
       style="fill:#111111"
       transform="rotate(-66.09787,282.48749,221.06335)"
       d="M 280.97687,214.45547 H 283.99809 V 227.67124 H 280.97687 Z" />
    <path
       d="M 274.38881,223.03031 C 273.76223,224.12899 272.87009,225.6182 272.52296,226.22743 270.02706,230.60481 271.43296,234.31742 274.64743,236.14855 277.69701,237.8877 281.39574,237.54056 284.0114,232.94796 284.44011,232.19121 285.55094,230.13096 285.89634,229.52347 L 286.02999,229.29263 274.54676,222.75087 Z M 275.51179,226.7759 282.07265,230.51455 C 281.9338,230.8721 281.72725,231.23312 281.5693,231.51256 280.35433,233.64397 278.35136,234.56735 276.23557,233.36106 274.05383,232.11832 273.64768,229.97302 274.93728,227.7097 275.1525,227.33306 275.28268,227.10221 275.51179,226.77591 Z"
       style="fill:#111111"
       id="path66" />
    <path
       id="polygon68"
       style="fill:#111111"
       d="M 271.21773,246.91495 273.48973,248.60724 278.17606,242.32062 267.57281,234.41982 262.7754,240.85571 265.04566,242.54799 268.03797,238.53511 269.96284,239.97051 267.42181,243.37591 269.69381,245.06993 272.23484,241.66106 274.09722,243.05134 Z" />
    <path
       id="polygon70"
       style="fill:#111111"
       d="M 263.28222,259.58365 259.42207,251.78005 266.73274,256.38827 269.23906,254.0642 257.38613,247.02603 255.26687,248.98908 259.0489,257.07039 251.25051,252.71211 249.13125,254.6769 255.38663,266.90126 257.51977,264.92433 253.50863,257.26132 261.05361,261.65084 Z" />
    <path
       id="polygon72"
       style="fill:#111111"
       d="M 244.59766,270.62602 246.19969,272.95877 252.65641,268.52759 245.18259,257.63449 238.56793,262.17154 240.16995,264.50603 244.29392,261.67688 245.64948,263.65381 242.14863,266.05772 243.75065,268.39047 247.25151,265.9883 248.56716,267.90275 Z" />
    <path
       d="M 233.07798,265.16385 C 230.5491,266.51594 229.2647,268.68033 230.5734,271.1259 231.37355,272.62205 232.64406,273.03688 233.6629,272.89803 L 233.68026,272.93101 C 233.1179,273.96027 233.08666,275.02597 233.73754,276.23921 234.60017,277.85339 236.41916,278.5303 239.19798,277.04283 240.46329,276.36765 242.04102,275.43733 242.6728,275.05548 L 236.47644,263.47331 C 235.75787,263.77358 234.19229,264.56679 233.07799,265.16386 Z M 233.30709,269.83455 C 232.89053,269.05176 233.16476,268.32798 234.19749,267.77604 234.69563,267.50701 234.93862,267.44279 235.15038,267.39419 L 236.31502,269.5742 235.28403,270.12615 C 234.41793,270.58784 233.69936,270.56701 233.30709,269.83456 Z M 237.56123,271.90348 238.69116,274.01753 C 238.40998,274.21193 238.22773,274.35252 237.89622,274.52782 237.24708,274.87496 236.4261,274.86628 236.05293,274.1668 235.59992,273.31805 235.99565,272.74007 236.68124,272.37558 Z"
       style="fill:#111111"
       id="path74" />
    <path
       d="M 217.45169,271.78545 C 215.76114,272.37905 214.35351,273.55584 213.90223,274.65626 L 215.73858,276.40929 C 216.35648,275.49285 217.23473,274.8628 218.12687,274.55038 220.36936,273.75891 222.45217,274.78643 223.22976,276.99421 224.09413,279.45019 222.99024,281.32125 221.06711,281.99816 219.89379,282.40952 219.07455,282.30017 218.25531,282.12834 L 217.74155,284.70929 C 218.74651,285.17619 220.35201,285.25082 222.00784,284.66763 226.30017,283.15586 227.51514,279.50573 226.25504,275.9285 224.88906,272.04753 221.31704,270.42467 217.45169,271.78544 Z"
       style="fill:#111111"
       id="path76" />
    <path
       d="M 206.40411,274.77776 C 202.4676,275.60741 200.11402,279.00066 200.93847,282.91808 201.80804,287.04031 205.28807,288.99121 209.22632,288.15982 213.34682,287.29198 215.4817,283.77377 214.69023,280.0195 213.82239,275.899 210.34236,273.94984 206.40411,274.77776 Z M 208.6414,285.38795 C 206.55338,285.82708 204.57818,284.62252 204.08178,282.25679 203.62183,280.07505 204.52958,278.0686 206.98904,277.55137 209.0597,277.11398 211.08003,278.46434 211.54866,280.68253 212.0468,283.04826 210.78496,284.93494 208.6414,285.38795 Z"
       style="fill:#111111"
       id="path78" />
    <path
       id="polygon80"
       style="fill:#111111"
       d="M 198.39917,289.80177 197.62853,276.61411 194.80285,276.77726 195.26454,284.69194 188.54747,277.14522 186.13662,277.28408 186.90552,290.47348 189.73294,290.30859 189.26778,282.35919 195.98658,289.94236 Z" />
    <path
       d="M 179.36575,279.4988 C 180.28913,279.55955 181.41038,280.07157 182.10118,281.08347 L 183.95315,279.14298 C 183.40641,277.68501 181.40171,276.79461 179.62958,276.67658 177.08508,276.50475 175.00053,277.95751 174.84779,280.25728 174.5614,284.55655 180.10168,284.3934 179.95415,286.58208 179.91423,287.18436 179.39873,287.52976 178.56734,287.47422 177.59015,287.40826 177.17706,287.0403 176.63033,286.45538 L 174.8582,288.60762 C 175.62884,289.55009 176.94795,290.20618 178.64371,290.32073 181.28194,290.4943 183.02282,288.83326 183.15994,286.79731 183.44459,282.53623 177.92167,282.41299 178.05358,280.43259 178.09524,279.81122 178.57255,279.44673 179.36575,279.4988 Z"
       style="fill:#111111"
       id="path82" />
    <path
       d="M 167.16742,275.03985 C 163.22223,274.264 159.72831,276.4631 158.9542,280.3892 158.14017,284.52011 160.57879,287.67383 164.52572,288.45142 168.65489,289.26719 171.99607,286.86501 172.7372,283.10554 173.55297,278.97463 171.11434,275.81744 167.16742,275.03985 Z M 169.58868,282.48416 C 169.12178,284.85509 167.22122,286.09784 165.07245,285.67433 162.97922,285.26124 161.63755,283.3815 162.10444,281.01057 162.53489,278.82362 164.15601,277.33441 166.61893,277.81866 168.6948,278.22828 170.02606,280.26076 169.58867,282.48416 Z"
       style="fill:#111111"
       id="path84" />
    <path
       d="M 153.98669,276.59675 152.93313,276.23052 151.41441,270.80653 147.95347,269.60718 149.88528,275.79487 C 149.09034,275.89901 147.33557,276.35029 146.53022,278.66741 145.73181,280.97065 146.35839,283.08644 149.76552,284.26844 150.12307,284.39167 153.32886,285.46259 154.02487,285.70384 L 158.35712,273.21565 155.5002,272.22458 Z M 152.09827,282.03983 C 151.50293,281.85238 151.26515,281.78989 150.83817,281.64062 149.46178,281.16331 149.33507,280.38052 149.57633,279.68625 149.94082,278.63096 150.93189,278.53723 152.0219,278.91387 L 153.0581,279.27315 152.09827,282.03982 Z"
       style="fill:#111111"
       id="path86" />
    <path
       id="polygon88"
       style="fill:#111111"
       d="M 142.34551,266.84398 137.87875,276.22879 134.29544,274.52262 133.07874,277.08274 142.97209,281.79336 144.19227,279.23498 140.6081,277.52881 145.07573,268.14401 Z" />
    <path
       id="rect90"
       style="fill:#111111"
       transform="rotate(-59.57622,132.68497,269.12728)"
       d="M 126.07592,267.61658 H 139.294 V 270.63794 H 126.07592 Z" />
    <path
       d="M 127.52457,257.53555 C 125.24216,255.85715 122.19952,255.65755 119.80255,258.91368 L 115.1978,265.16385 117.63295,266.9568 121.87755,261.19088 C 123.13158,259.48818 124.36911,258.73316 125.84444,259.8197 127.54887,261.07459 127.12016,262.70613 125.89998,264.3637 L 121.75345,269.99423 124.1886,271.78545 128.71351,265.63942 C 131.01068,262.52041 130.26173,259.55414 127.52457,257.53555 Z"
       style="fill:#111111"
       id="path92" />
    <path
       id="polygon94"
       style="fill:#111111"
       d="M 103.84127,254.35753 110.50453,253.16859 109.4232,259.98459 111.56329,262.1403 120.94115,252.83534 118.81321,250.69178 112.8798,256.58093 113.91687,250.39325 113.61226,250.08603 107.36296,251.09967 113.33715,245.17407 111.20922,243.03051 101.83483,252.33547 Z" />
    <path
       d="M 99.00828,237.367 C 97.47915,237.367 96.19562,238.64966 96.19562,240.19789 96.19562,241.72702 97.47915,243.03051 99.00828,243.03051 100.55564,243.03051 101.85826,241.72702 101.85826,240.19789 101.85826,238.64967 100.55564,237.367 99.00828,237.367 Z"
       style="fill:#111111"
       id="path96" />
    <path
       d="M 269.17245,117.06175 C 269.17245,118.59088 270.45598,119.89437 271.98511,119.89437 273.53247,119.89437 274.83509,118.59088 274.83509,117.06175 274.83509,115.51353 273.53247,114.23086 271.98511,114.23086 270.45598,114.23086 269.17245,115.51352 269.17245,117.06175 Z"
       style="fill:#111111"
       id="path98" />
  </g>
</svg>
