<?xml version="1.0" encoding="UTF-8" standalone="no"?>
<svg
   width="120"
   height="69.333"
   version="1.1"
   viewBox="0 0 120 69.333"
   id="svg6"
   xmlns="http://www.w3.org/2000/svg"
   xmlns:svg="http://www.w3.org/2000/svg">
  <defs
     id="defs10" />
  <path
     d="M 104.69795,51.414518 C 102.4148,49.602227 99.081409,49.987611 97.269153,52.270766 95.024436,55.100902 92.985545,56.804467 90.661289,57.795966 86.374697,59.61999 82.741222,58.84915 79.22835,55.368777 75.786124,51.958835 72.432209,48.243121 69.17826,44.641894 67.586585,42.879665 65.992078,41.114481 64.376867,39.369814 61.617177,36.389488 58.842878,33.420971 56.071414,30.449427 L 55.827126,30.187563 C 49.798878,23.735683 43.567595,17.063003 37.556931,10.360991 32.790848,5.0446433 25.426851,2.4114113 18.342309,3.4765083 11.101803,4.5591699 5.2471041,9.1929966 1.8549107,16.521673 -1.4136496,23.579701 -0.30744334,31.599752 4.7380969,37.451456 13.614367,47.745843 21.101997,56.257163 29.872219,64.262601 33.458651,67.534121 37.798248,69.275804 42.420139,69.29934 45.418163,69.314097 49.937123,68.975788 54.547379,65.871873 56.565678,64.512697 58.445598,63.115155 59.272345,60.982153 60.113835,58.79923 59.328214,56.289625 57.357121,54.874486 55.444739,53.497638 52.93515,53.594598 51.111094,55.109827 50.881545,55.301006 50.631441,55.521737 50.357931,55.760097 47.492329,58.26967 43.926457,61.394027 36.656603,56.174817 29.995854,51.390982 24.838441,45.12143 18.863082,37.860488 16.91539,35.49495 14.900068,33.047211 12.746503,30.546387 10.445771,27.878027 9.9485324,24.2064 11.449033,20.961225 12.758268,18.136847 15.285438,14.624046 19.91044,13.932707 23.414359,13.405919 27.342067,14.806374 29.686902,17.419019 35.747616,24.179876 42.025971,30.905424 48.098315,37.404384 50.943358,40.449451 53.788262,43.497438 56.618566,46.554313 58.204417,48.266625 59.769579,49.999379 61.358273,51.758769 64.694601,55.451123 68.14266,59.266961 71.784958,62.876937 78.360516,69.393492 86.533524,71.044009 94.809609,67.522353 98.78438,65.824795 102.20012,63.068081 105.55402,58.840334 107.36336,56.560307 106.98096,53.229801 104.69795,51.414518 Z"
     style="fill:#ffffff;stroke-width:3.55552"
     id="path2" />
  <path
     d="M 112.96891,22.037091 C 116.3876,20.415943 119.07668,17.365043 119.33261,13.663905 119.98285,7.2385132 114.69303,1.089565 106.9112,0.1392051 102.13333,-0.46676534 97.69958,0.94837455 94.557476,3.5520955 92.877628,4.9495286 92.42451,7.5356852 93.880753,9.3597476 95.472425,11.257409 97.308255,11.589746 100.31226,9.9393359 101.38895,9.3274278 103.00714,8.8184169 104.78712,8.9419006 108.14397,9.1744329 109.10599,12.198845 109.01184,13.572741 108.99709,13.775762 109.01778,18.459473 104.28984,18.132932 L 102.50692,18.009413 C 100.52108,17.874018 98.535095,19.730542 98.388073,21.854621 98.22914,24.114237 99.882644,26.088343 101.93906,26.23252 L 104.13091,26.382528 C 110.16227,26.800342 109.53262,31.919462 109.40615,32.737414 109.28847,35.091038 105.51078,39.083408 98.773457,34.543771 96.48746,33.00511 80.182542,12.52535 80.182542,12.52535 72.45671,2.5370603 59.329185,0.77767316 48.970123,8.3446766 47.831593,9.1772772 47.081275,10.404116 46.863635,11.801691 46.648833,13.196103 46.987131,14.593714 47.819827,15.732232 48.652387,16.870752 49.879249,17.621077 51.273838,17.838711 52.677078,18.056488 54.068697,17.715227 55.207363,16.88252 62.274185,11.71931 68.5731,14.796592 71.812305,18.98619 71.812305,18.98619 89.317681,41.501817 93.824895,43.887798 96.749324,45.435345 99.803249,46.329739 102.90705,46.544531 112.43355,47.20355 118.2352,41.954827 119.80052,34.764496 120.82718,30.051312 117.77923,24.161312 112.96891,22.037091 Z"
     style="fill:#ffffff;stroke-width:3.55552"
     id="path4" />
</svg>
