<?xml version="1.0" encoding="UTF-8" standalone="no"?>
<svg
   width="45.000656"
   height="25.996998"
   version="1.1"
   viewBox="0 0 33.750492 19.497748"
   id="svg6"
   xmlns="http://www.w3.org/2000/svg"
   xmlns:svg="http://www.w3.org/2000/svg">
  <defs
     id="defs10" />
  <path
     d="M 29.44644,14.458152 C 28.8043,13.948442 27.86678,14.056832 27.35708,14.698972 26.72575,15.494952 26.15231,15.974082 25.49861,16.252942 24.293,16.765952 23.27108,16.549152 22.28308,15.570292 21.31495,14.611242 20.371657,13.566192 19.456479,12.553342 19.008818,12.057712 18.560361,11.561252 18.106081,11.070562 17.329914,10.232342 16.549639,9.3974416 15.770161,8.5616916 L 15.701455,8.4880416 C 14.006002,6.6734416 12.253445,4.7967416 10.562938,2.9117916 9.2224701,1.4165616 7.1513361,0.67596162 5.1587991,0.97552162 3.1223971,1.2800216 1.4757551,2.5832916 0.52169615,4.6444916 -0.39759085,6.6295716 -0.08646885,8.8852216 1.3325961,10.531022 3.8290591,13.426332 5.9349651,15.820152 8.4016021,18.071692 9.4102901,18.991812 10.630808,19.481662 11.930722,19.488282 12.77392,19.492432 14.044883,19.397282 15.341524,18.524302 15.909173,18.142032 16.437903,17.748972 16.670427,17.149062 16.907097,16.535112 16.68614,15.829282 16.131767,15.431272 15.593908,15.044032 14.888082,15.071302 14.375064,15.497462 14.310503,15.551232 14.240161,15.613312 14.163236,15.680352 13.357282,16.386172 12.354375,17.264902 10.309719,15.796992 8.4363741,14.451532 6.9858451,12.688212 5.3052671,10.646062 4.7574761,9.9807516 4.1906641,9.2923216 3.5849711,8.5889616 2.9378871,7.8384816 2.7980381,6.8058316 3.2200561,5.8931216 3.5882801,5.0987616 4.2990501,4.1107816 5.5998381,3.9163416 6.5853201,3.7681816 7.6899931,4.1620616 8.3494811,4.8968716 10.054065,6.7983716 11.819861,8.6899416 13.527716,10.517782 14.327888,11.374212 15.128021,12.231462 15.924048,13.091212 16.370071,13.572802 16.810275,14.060142 17.257097,14.554972 18.195444,15.593452 19.165215,16.666662 20.189616,17.681972 22.039,19.514762 24.33767,19.978972 26.66533,18.988502 27.78324,18.511062 28.74392,17.735732 29.68721,16.546672 30.19609,15.905412 30.08854,14.968702 29.44644,14.458152 Z"
     style="fill:#005a9c"
     id="path2" />
  <path
     d="M 31.77315,6.1979616 C 32.73466,5.7420116 33.49097,4.8839416 33.56295,3.8429916 33.74583,2.0358416 32.25806,0.30644162 30.06941,0.03915162 28.72563,-0.13127838 27.47863,0.26673162 26.59491,0.99903162 26.12245,1.3920616 25.99501,2.1194216 26.40458,2.6324416 26.85224,3.1661616 27.36857,3.2596316 28.21345,2.7954516 28.51627,2.6233516 28.97139,2.4801916 29.47201,2.5149216 30.41613,2.5803216 30.6867,3.4309416 30.66022,3.8173516 30.65607,3.8744516 30.66189,5.1917516 29.33215,5.0999116 L 28.8307,5.0651716 C 28.27218,5.0270916 27.71362,5.5492416 27.67227,6.1466416 27.62757,6.7821616 28.09262,7.3373816 28.67099,7.3779316 L 29.28745,7.4201216 C 30.98378,7.5376316 30.80669,8.9773916 30.77112,9.2074416 30.73802,9.8694016 29.67554,10.992262 27.78066,9.7154816 27.13772,9.2827316 22.55194,3.5227716 22.55194,3.5227716 20.37904,0.71355162 16.686905,0.21872162 13.773405,2.3469516 13.453192,2.5811216 13.242164,2.9261716 13.180953,3.3192416 13.120539,3.7114216 13.215686,4.1045016 13.449883,4.4247116 13.684042,4.7449216 14.029098,4.9559516 14.421328,5.0171616 14.815991,5.0784116 15.207386,4.9824316 15.527638,4.7482316 17.51519,3.2960716 19.286769,4.1615616 20.1978,5.3398916 20.1978,5.3398916 25.12121,11.672442 26.38887,12.343502 27.21137,12.778752 28.07029,13.030302 28.94324,13.090712 31.62258,13.276062 33.2543,11.799852 33.69455,9.7775616 33.9833,8.4519716 33.12606,6.7954016 31.77315,6.1979616 Z"
     style="fill:#005a9c"
     id="path4" />
</svg>
