<svg height="120" viewBox="0 0 360 360" width="120" aria-label="W3C" xmlns="http://www.w3.org/2000/svg"><path fill="#005a9c" d="m0 0h360v360h-360z"/><g fill="#fff" transform="translate(-.024)"><path d="m306.8 149.6c-6.6-5.2-16.2-4.1-21.4 2.5-6.5 8.1-12.3 13-19 15.9-12.4 5.2-22.9 3-33-7-9.9-9.8-19.6-20.5-28.9-30.9-4.6-5.1-9.2-10.2-13.9-15.2-7.9-8.6-15.9-17.14-23.9-25.7l-.7-.76c-17.4-18.59-35.3-37.81-52.7-57.12-13.68-15.32-34.9-22.906-55.31-19.84-20.86 3.12-37.73 16.47-47.51 37.59-9.415 20.33-6.228 43.44 8.31 60.33 25.57 29.6 47.15 54.2 72.42 77.2 10.29 9.4 22.79 14.5 36.19 14.5 8.6.1 21.6-.9 34.9-9.8 5.8-4 11.2-8 13.6-14.1 2.4-6.3.2-13.5-5.5-17.6-5.5-4-12.7-3.7-18 .7-.7.5-1.4 1.1-2.2 1.8-8.2 7.3-18.5 16.3-39.4 1.2-19.24-13.8-34.1-31.8-51.31-52.7-5.61-6.9-11.42-13.92-17.63-21.12-6.62-7.69-8.06-18.27-3.73-27.62 3.77-8.14 11.05-18.26 24.38-20.25 10.09-1.52 21.41 2.52 28.16 10.04 17.43 19.48 35.53 38.86 53.03 57.55 8.2 8.8 16.4 17.6 24.6 26.4 4.5 4.9 9.1 9.9 13.6 15 9.6 10.6 19.6 21.6 30.1 32 18.9 18.8 42.5 23.6 66.3 13.4 11.5-4.9 21.3-12.8 31-25 5.2-6.6 4.1-16.2-2.5-21.4z"/><path d="m330.6 64.98c9.9-4.67 17.6-13.46 18.4-24.12 1.8-18.52-13.4-36.232-35.8-38.97-13.8-1.7462-26.6 2.331-35.6 9.83-4.9 4.03-6.2 11.48-2 16.74 4.6 5.46 9.9 6.42 18.6 1.67 3.1-1.77 7.7-3.23 12.9-2.88 9.6.67 12.4 9.39 12.1 13.35 0 .58.1 14.08-13.6 13.13l-5.1-.35c-5.7-.39-11.5 4.96-11.9 11.08-.4 6.51 4.3 12.2 10.3 12.61l6.3.43c17.3 1.21 15.5 15.96 15.2 18.31-.4 6.79-11.3 18.29-30.7 5.19-6.6-4.42-53.5-63.42-53.5-63.42-22.3-28.781-60.1-33.851-90-12.05-3.2 2.4-5.4 5.94-6 9.96s.3 8.05 2.7 11.33 6 5.44 10 6.07c4 .62 8-.36 11.3-2.76 20.4-14.87 38.5-6.01 47.9 6.06 0 0 50.4 64.91 63.4 71.71 8.4 4.5 17.2 7.1 26.1 7.7 27.5 1.9 44.2-13.2 48.7-33.9 3-13.63-5.8-30.6-19.7-36.72z"/></g><g fill="#fff" transform="translate(-.056)"><path d="m7.656 245.6h18.684c1.98 0 3.61.5 4.89 1.4 1.27.9 2.13 2.1 2.59 3.5l16.65 65.2c.96 3.4 1.87 7.3 2.72 11.8.45-2.2.9-4.3 1.35-6.3.46-2 .99-3.9 1.62-5.6l19.71-65.1c.45-1.3 1.32-2.4 2.63-3.4 1.3-1 2.86-1.5 4.67-1.5h6.54c1.98 0 3.58.5 4.8 1.3 1.22.9 2.08 2.1 2.59 3.6l19.7 65.2c.6 1.6 1.1 3.4 1.6 5.4.5 1.9.9 4 1.4 6.2.4-2.2.8-4.2 1.2-6.2.4-1.9.9-3.7 1.3-5.3l16.7-65.3c.4-1.3 1.2-2.4 2.6-3.4 1.3-1 2.9-1.5 4.7-1.5h17.5l-33.5 112.8h-20.2l-22.34-75c-.34-.9-.67-2-.98-3.2s-.61-2.4-.89-3.7c-.29 1.3-.6 2.5-.94 3.7s-.65 2.3-.93 3.2l-22.76 75h-20.14z"/><path d="m212.2 244.3c5.2 0 9.9.8 14.1 2.3 4.1 1.6 7.6 3.7 10.5 6.3s5.1 5.7 6.7 9.2c1.6 3.6 2.3 7.4 2.3 11.4 0 3.6-.3 6.7-1.1 9.4s-1.9 5.1-3.4 7.1c-1.4 2.1-3.3 3.8-5.4 5.2-2.2 1.4-4.6 2.6-7.3 3.5 12.8 4.4 19.3 13.1 19.3 26.1 0 5.7-1.1 10.7-3.1 15.1-2.1 4.3-4.9 7.9-8.4 10.9-3.4 2.9-7.5 5.1-12.1 6.6s-9.5 2.2-14.6 2.2c-5.3 0-10.1-.6-14.2-1.9-4.1-1.2-7.7-3.1-10.8-5.6s-5.7-5.7-8-9.4c-2.2-3.7-4.1-8.1-5.7-13l9-3.8c2.4-1 4.6-1.2 6.7-.7 2 .5 3.5 1.6 4.3 3.3 1.1 1.9 2.1 3.7 3.3 5.4 1.1 1.7 2.4 3.2 3.8 4.4 1.5 1.3 3.1 2.3 5 3.1 1.9.7 4 1.1 6.5 1.1 3 0 5.6-.5 7.8-1.5 2.3-1 4.1-2.3 5.6-3.9 1.5-1.7 2.6-3.5 3.3-5.5.7-2.1 1.1-4.1 1.1-6.1 0-2.6-.2-5-.7-7.2-.5-2.1-1.6-4-3.2-5.5-1.7-1.5-4.2-2.7-7.4-3.6-3.2-.8-7.6-1.2-13.2-1.2v-14.6c4.7 0 8.5-.4 11.5-1.2 2.9-.8 5.3-1.9 7-3.4 1.7-1.4 2.8-3.1 3.5-5.1.6-2 .9-4.2.9-6.6 0-5.2-1.3-9.1-3.9-11.7s-6.2-3.9-10.8-3.9c-4.1 0-7.6 1.2-10.4 3.5-2.7 2.3-4.7 5.2-5.7 8.6-1 2.6-2.2 4.3-3.7 5.1s-3.6.9-6.4.5l-10.8-1.9c.8-5.5 2.3-10.3 4.5-14.4 2.3-4.1 5-7.5 8.4-10.3 3.3-2.7 7.1-4.8 11.4-6.2s8.9-2.1 13.8-2.1z"/><path d="m335.4 331.1c1.2 0 2.2.4 3 1.3l9 9.6c-4.1 5.8-9.2 10.1-15.4 13.1-6.1 3-13.4 4.5-21.8 4.5-7.7 0-14.6-1.4-20.7-4.3-6.1-2.8-11.3-6.8-15.6-11.9-4.3-5.2-7.5-11.3-9.8-18.3-2.3-7.1-3.5-14.8-3.5-23.2s1.3-16.1 3.7-23.2c2.5-7 6-13.1 10.4-18.2 4.5-5.1 9.9-9.1 16.1-11.9s13.1-4.3 20.5-4.3c7.6 0 14.3 1.4 20.2 4.1 5.8 2.7 10.7 6.2 14.6 10.6l-7.5 10.5c-.5.6-1.1 1.2-1.7 1.7-.7.5-1.6.8-2.8.8s-2.3-.5-3.4-1.4-2.5-1.9-4.1-3-3.7-2-6.1-3c-2.4-.9-5.5-1.3-9.3-1.3-4.2 0-7.9.9-11.3 2.6s-6.3 4.2-8.8 7.5c-2.4 3.4-4.3 7.4-5.6 12.2-1.4 4.8-2 10.2-2 16.3 0 6.2.7 11.7 2.2 16.5s3.5 8.9 6 12.2 5.5 5.8 8.9 7.6c3.4 1.7 7 2.6 10.9 2.6 2.3 0 4.4-.2 6.3-.4 1.9-.3 3.6-.7 5.2-1.4 1.6-.6 3.1-1.5 4.6-2.5 1.4-1 2.8-2.3 4.2-3.8.6-.5 1.2-.8 1.8-1.2.5-.3 1.2-.4 1.8-.4z"/></g></svg>
