<?xml version="1.0" encoding="UTF-8" standalone="no"?>
<svg
   width="45.00066"
   height="25.997"
   version="1.1"
   viewBox="0 0 33.750495 19.497751"
   id="svg6"
   xmlns="http://www.w3.org/2000/svg"
   xmlns:svg="http://www.w3.org/2000/svg">
  <defs
     id="defs10" />
  <path
     d="M 29.446442,14.458157 C 28.804304,13.948447 27.866793,14.056833 27.357085,14.698973 26.72575,15.494961 26.152318,15.974083 25.498615,16.252942 24.293011,16.76596 23.271084,16.549151 22.283088,15.570288 21.314953,14.611244 20.371661,13.566186 19.456483,12.553349 19.008822,12.057715 18.560365,11.561246 18.106084,11.070559 17.329917,10.232343 16.549641,9.3974369 15.770165,8.5616945 L 15.701458,8.4880414 C 14.006004,6.6734356 12.253447,4.7967412 10.56294,2.9117914 9.2224718,1.4165609 7.1513369,0.67596503 5.1587999,0.97552212 3.1223981,1.2800238 1.4757552,2.5832844 0.52169598,4.6444904 -0.39759067,6.6295709 -0.08646908,8.8852173 1.3325965,10.531023 3.8290599,13.426337 5.9349656,15.820158 8.4016029,18.071696 9.4102923,18.991819 10.63081,19.481669 11.930724,19.488289 12.773922,19.492436 14.044887,19.397288 15.341527,18.524301 15.909176,18.142038 16.437907,17.748972 16.67043,17.14906 16.907099,16.535112 16.686142,15.829287 16.131771,15.431275 15.59391,15.044027 14.888085,15.071306 14.375066,15.497471 14.310505,15.551227 14.240163,15.613314 14.163239,15.680347 13.357285,16.386171 12.354377,17.264903 10.309721,15.796988 8.4363755,14.451537 6.9858463,12.688213 5.3052676,10.646067 4.7574764,9.9807601 4.1906643,9.2923221 3.5849716,8.588971 2.9378865,7.8384839 2.7980387,6.805827 3.2200564,5.8931207 3.5882806,5.0987688 4.2990504,4.1107756 5.5998387,3.9163333 6.5853219,3.7681905 7.6899946,4.1620573 8.3494826,4.8968701 10.054066,6.7983687 11.819863,8.6899366 13.527718,10.517782 14.327891,11.37422 15.128024,12.231458 15.924051,13.091208 16.370075,13.572802 16.810278,14.060142 17.2571,14.554975 18.195447,15.593452 19.165219,16.666663 20.18962,17.681973 22.038999,19.514765 24.337673,19.978971 26.665335,18.988506 27.783247,18.511059 28.743926,17.735729 29.687218,16.546675 30.196089,15.905411 30.088541,14.968701 29.44644,14.458155 Z"
     style="fill:#111111"
     id="path2" />
  <path
     d="M 31.773155,6.1979653 C 32.73467,5.7420117 33.490978,4.8839375 33.562956,3.8429872 33.745832,2.035838 32.258058,0.3064481 30.069407,0.03915352 28.725628,-0.13128171 27.478634,0.26673086 26.594919,0.99903358 26.122454,1.392062 25.995009,2.1194199 26.404586,2.6324385 26.852247,3.1661533 27.368575,3.2596264 28.213449,2.7954549 28.516277,2.6233446 28.971392,2.4801876 29.472009,2.5149207 30.41614,2.5803183 30.686706,3.430936 30.660227,3.8173446 30.656079,3.874449 30.6619,5.1917482 29.33216,5.0999107 L 28.830706,5.0651777 C 28.272187,5.0270962 27.713631,5.5492446 27.672277,6.1466442 27.627576,6.7821629 28.092622,7.3373728 28.671001,7.3779268 L 29.287461,7.4201163 C 30.983788,7.5376323 30.806696,8.9773959 30.771124,9.2074456 30.738027,9.8694061 29.675544,10.992263 27.780666,9.71548 27.137727,9.2827326 22.551945,3.5227717 22.551945,3.5227717 20.379044,0.71355285 16.686907,0.21871864 13.773409,2.3469561 13.453195,2.5811155 13.242166,2.9261711 13.180955,3.3192373 13.120542,3.711429 13.215688,4.1044969 13.449886,4.4247107 13.684045,4.7449244 14.0291,4.9559531 14.42133,5.0171637 14.815994,5.0784138 15.207389,4.9824306 15.52764,4.7482335 17.515193,3.2960687 19.286772,4.1615618 20.197804,5.3398894 20.197804,5.3398894 25.121223,11.672446 26.388876,12.343498 27.21138,12.778756 28.070292,13.030301 28.943242,13.090714 31.622581,13.276062 33.254311,11.799855 33.694552,9.7775685 33.983304,8.4519761 33.126067,6.7954026 31.773156,6.1979653 Z"
     style="fill:#111111"
     id="path4" />
</svg>
