<?xml version="1.0" encoding="UTF-8"?>
<svg id="Layer_1" xmlns="http://www.w3.org/2000/svg" width="5in" height="5in" version="1.1" viewBox="0 0 360 360">
  <!-- Generator: Adobe Illustrator 29.1.0, SVG Export Plug-In . SVG Version: 2.1.0 Build 142)  -->
  <defs>
    <style>
      .st0 {
        fill: #fff;
      }
    </style>
  </defs>
  <path class="st0" d="M250.01682,191.19552c-3.57647-2.83889-8.79805-2.23522-11.63693,1.34126-3.5163,4.43335-6.7101,7.10188-10.35098,8.65502-6.71476,2.85732-12.40651,1.64977-17.90927-3.80213-5.39215-5.34151-10.64593-11.16209-15.74313-16.80321-2.4933-2.76049-4.99104-5.52564-7.52121-8.25858-4.32296-4.66855-8.6688-9.31866-13.01019-13.97343l-.38267-.41022c-9.44304-10.10667-19.20412-20.55915-28.61961-31.05761-7.4659-8.32787-19.00134-12.45271-30.09902-10.78429-11.34199,1.69596-20.51317,8.95463-25.82692,20.43477-5.12008,11.05615-3.38725,23.61925,4.51641,32.78577,13.90436,16.1258,25.63346,29.45848,39.3717,41.9987,5.61802,5.12474,12.41584,7.85302,19.65587,7.88989,4.6963.0231,11.77509-.50684,18.99689-5.36905,3.16159-2.12906,6.10642-4.31829,7.40149-7.65957,1.31816-3.41946.08751-7.35064-3.00013-9.56742-2.99568-2.15682-6.92686-2.00489-9.78418.36869-.35958.2994-.75136.6452-1.1798,1.01855-4.48886,3.93117-10.07468,8.82538-21.46264.64965-10.43383-7.49366-18.51273-17.31471-27.87292-28.68869-3.05099-3.70551-6.20792-7.53985-9.5814-11.45725-3.60402-4.17993-4.38292-9.93144-2.03244-15.01487,2.05087-4.42424,6.00959-9.92699,13.25449-11.00996,5.48877-.8251,11.64138,1.36859,15.31448,5.46122,9.49389,10.59063,19.32871,21.12595,28.84082,31.30636,4.45666,4.77004,8.9131,9.54453,13.34667,14.33301,2.48418,2.6823,4.93595,5.3966,7.42458,8.15263,5.22624,5.78393,10.6275,11.76131,16.33303,17.4162,10.30034,10.20796,23.10309,12.79342,36.06729,7.2769,6.22635-2.6592,11.57697-6.9775,16.83075-13.60008,2.83422-3.5716,2.23522-8.78872-1.34104-11.63227Z"/>
  <path class="st0" d="M262.97573,145.18937c5.35528-2.53949,9.56763-7.31864,9.96852-13.11634,1.01855-10.06514-7.26779-19.69719-19.45775-21.18592-7.48434-.94926-14.42963,1.26752-19.35159,5.34617-2.63145,2.18902-3.34127,6.24013-1.06008,9.09745,2.4933,2.97259,5.36905,3.4932,10.07468.90794,1.68664-.95859,4.22146-1.75592,7.00971-1.56247,5.25845.36424,6.7654,5.10186,6.61792,7.25401-.0231.31805.00932,7.65491-7.39683,7.14341l-2.79291-.19345c-3.11074-.2121-6.22169,2.69607-6.45201,6.02336-.24897,3.5396,2.34116,6.63191,5.56251,6.85778l3.43345.23498c9.44791.65452,8.46157,8.67346,8.26345,9.95475-.18434,3.68687-6.10197,9.94076-16.65573,2.82956-3.58092-2.41024-29.122-34.49105-29.122-34.49105-12.10224-15.64629-32.66605-18.40233-48.89314-6.54885-1.78347,1.30418-2.95882,3.22601-3.29974,5.41524-.33648,2.18436.19345,4.3736,1.49784,6.15707,1.30418,1.78347,3.22601,2.95882,5.41058,3.29974,2.19813.34114,4.37805-.19345,6.16173-1.49784,11.06992-8.08801,20.93695-3.26754,26.01105,3.2953,0,0,27.42159,35.26995,34.48194,39.00746,4.58104,2.42422,9.36485,3.82523,14.22685,4.16171,14.92291,1.03232,24.01103-7.1896,26.46301-18.45297,1.60824-7.38305-3.16625-16.60954-10.70145-19.93704Z"/>
</svg>