<?xml version="1.0" encoding="UTF-8"?>
<svg id="Layer_1" xmlns="http://www.w3.org/2000/svg" width="5in" height="5in" version="1.1" viewBox="0 0 360 360">
  <!-- Generator: Adobe Illustrator 29.1.0, SVG Export Plug-In . SVG Version: 2.1.0 Build 142)  -->
  <defs>
    <style>
      .st0 {
        fill: #231f20;
      }
    </style>
  </defs>
  <g>
    <path class="st0" d="M239.15407,198.18661c-2.70618-2.14807-6.65717-1.69128-8.8053,1.01489-2.66064,3.35455-5.07727,5.37372-7.83221,6.54895-5.08081,2.16205-9.38757,1.24829-13.55127-2.87695-4.08008-4.04169-8.05542-8.44592-11.91229-12.71436-1.8866-2.08881-3.77655-4.18109-5.69104-6.24902-3.271-3.53247-6.55933-7.05109-9.84436-10.57318l-.28955-.31042c-7.1452-7.64734-14.53107-15.55634-21.6554-23.50018-5.64923-6.30139-14.37769-9.42249-22.7749-8.1601-8.58209,1.28333-15.52161,6.7757-19.5423,15.46228-3.87421,8.36578-2.56305,17.87189,3.41742,24.80786,10.52094,12.20178,19.39594,22.29016,29.79114,31.77893,4.25098,3.87769,9.39465,5.94208,14.87292,5.96997,3.55353.01752,8.90979-.38348,14.37427-4.06256,2.39227-1.61096,4.62054-3.26752,5.60046-5.79572.99738-2.5874.06622-5.56195-2.27014-7.23932-2.26672-1.63202-5.24127-1.51703-7.40332.27893-.27209.22656-.56854.48822-.8927.77075-3.39655,2.97455-7.62317,6.67786-16.24005.49152-7.8949-5.67017-14.00787-13.10138-21.09045-21.7077-2.30853-2.80383-4.69727-5.70514-7.24988-8.66931-2.72705-3.16278-3.31641-7.51477-1.5379-11.36121,1.55188-3.34766,4.5473-7.51141,10.02924-8.33081,4.15314-.62433,8.80859,1.03552,11.58795,4.13232,7.18365,8.01355,14.62531,15.98523,21.82281,23.68842,3.37219,3.60931,6.7442,7.22198,10.09894,10.84528,1.8797,2.0296,3.73486,4.08337,5.61792,6.16876,3.95453,4.37653,8.04144,8.89941,12.35864,13.17822,7.79388,7.724,17.48126,9.68036,27.29083,5.50623,4.71124-2.01215,8.75989-5.27966,12.73523-10.29071,2.14453-2.70251,1.69128-6.65015-1.01471-8.80176Z"/>
    <path class="st0" d="M248.95962,163.37539c4.05212-1.92151,7.2395-5.53778,7.54285-9.92468.77069-7.61591-5.49933-14.90417-14.72302-16.03064-5.66315-.71826-10.9184.95911-14.64264,4.04529-1.99115,1.65637-2.52826,4.72168-.80212,6.88373,1.88654,2.24921,4.06256,2.64313,7.62311.68701,1.27625-.72534,3.19427-1.32867,5.30402-1.18231,3.97888.27563,5.11914,3.86041,5.00757,5.48889-.01752.24066.00702,5.79218-5.59692,5.40515l-2.11328-.14636c-2.35382-.16052-4.70776,2.03998-4.88202,4.55762-.18842,2.67834,1.77148,5.01813,4.20892,5.18909l2.59796.1778c7.14893.49524,6.40259,6.56287,6.25269,7.53241-.13947,2.78973-4.61713,7.52179-12.60278,2.14099-2.70959-1.82373-22.03564-26.09814-22.03564-26.09814-9.15729-11.83899-24.71722-13.92438-36.99567-4.95526-1.34949.98682-2.23883,2.44098-2.49683,4.09753-.25458,1.65283.14642,3.30933,1.13336,4.65881.98682,1.34949,2.44104,2.23883,4.09399,2.49683,1.66327.25812,3.31274-.14642,4.66235-1.13336,8.37622-6.11993,15.84229-2.47247,19.68164,2.49341,0,0,20.74896,26.6875,26.09131,29.51556,3.46631,1.83435,7.08606,2.89441,10.76495,3.14905,11.29163.78107,18.16827-5.44012,20.02362-13.96277,1.21686-5.58649-2.39581-12.56781-8.09741-15.08563Z"/>
  </g>
  <g>
    <polygon class="st0" points="98.08056 223.03725 89.23903 224.21578 95.7374 218.09058 94.5016 215.48012 80.96593 217.77468 82.21127 220.4025 90.72129 218.87684 84.27152 224.75384 85.57154 227.49968 94.17008 226.16321 87.58319 231.74861 89.0455 234.83638 99.31636 225.64945 98.08056 223.03725"/>
    <path class="st0" d="M86.76395,213.94925c4.0528-1.15422,5.75377-4.7627,4.65335-8.63152-1.10389-3.86882-4.65161-5.98288-8.50308-4.88419-4.05107,1.15422-5.7529,4.76096-4.65074,8.62978,1.15336,4.0528,4.8139,5.93775,8.50047,4.88593ZM80.98849,208.28921c-.58406-2.05504.48165-4.10487,2.80572-4.7679,2.14356-.61096,4.20901.15621,4.89721,2.57227.57885,2.03421-.62571,4.14653-2.80572,4.7679-2.32581.66303-4.29753-.46516-4.89721-2.57227Z"/>
    <path class="st0" d="M88.59683,193.67829l-4.57785.64567-.15534-1.10215,4.13178-3.82369-.51289-3.62409-4.62037,4.53879c-.45475-.65956-1.65584-2.01686-4.08405-1.67319-2.41259.34019-4.00768,1.86064-3.50607,5.4292.05207.37491.56236,3.71435.66476,4.44333l13.08179-1.84329-.42177-2.99057ZM78.31815,195.12585c-.10588-.61269-.15795-.85222-.2213-1.30349-.20221-1.43714.43565-1.90924,1.16551-2.01165,1.10215-.15448,1.64021.68386,1.80163,1.8242l.15274,1.08306-2.89858.40788Z"/>
    <polygon class="st0" points="87.2942 176.05771 84.46418 176.13755 84.61519 181.51467 74.23931 181.80453 74.32263 184.82461 87.52852 184.45317 87.2942 176.05771"/>
    <path class="st0" d="M87.35408,174.23872c.11629-1.25837.31242-2.98536.37664-3.68137.46343-5.01958-2.34837-7.82096-6.03234-8.15768-3.49652-.32457-6.72141,1.52045-7.20566,6.78302-.07984.86437-.23866,3.20059-.30288,3.89659l-.02343.26382,13.15816,1.21497.02951-.31936ZM84.92066,170.20327c-.03992.43218-.06422.69601-.13885,1.08653l-7.51895-.69427c-.02256-.38011.01649-.79494.04686-1.1143.22477-2.44383,1.66798-4.11008,4.09359-3.88791,2.50024.23258,3.75687,2.01512,3.51735,4.60996Z"/>
    <polygon class="st0" points="90.77163 152.65038 83.41236 147.61345 92.33808 147.40517 93.16599 144.64023 81.57255 137.29138 80.73942 140.07541 88.0848 144.63503 79.36216 144.6871 78.49172 147.59956 85.77722 152.35705 77.1457 152.10191 76.16591 155.37366 89.94458 155.41531 90.77163 152.65038"/>
    <rect class="st0" x="88.2741" y="129.19634" width="3.02202" height="13.21513" transform="translate(-70.71097 163.09996) rotate(-66.18191)"/>
    <path class="st0" d="M97.8636,133.85995c.62658-1.10042,1.51611-2.59136,1.86238-3.19885,2.48809-4.38258,1.07785-8.09172-2.14009-9.91939-3.05219-1.7322-6.74744-1.37986-9.35703,3.21621-.43045.75502-1.53607,2.81874-1.88061,3.42449l-.13018.23084,11.48844,6.52441.15708-.27771ZM96.73715,130.11436l-6.56606-3.72997c.13538-.35408.34193-.71683.49987-.99454,1.21324-2.13315,3.21447-3.06,5.33113-1.85544,2.18348,1.23927,2.59223,3.38283,1.3061,5.64789-.21349.37664-.34366.60575-.57104.93206Z"/>
    <polygon class="st0" points="109.44924 115.9686 107.17377 114.28326 104.19535 118.30135 102.27048 116.87462 104.79763 113.46228 102.52389 111.77521 99.99328 115.18928 98.12916 113.80595 100.99476 109.93712 98.72016 108.25178 94.0564 114.54708 104.67092 122.4149 109.44924 115.9686"/>
    <polygon class="st0" points="116.9248 107.85431 113.13495 99.78168 120.93594 104.12955 123.05087 102.1613 116.78074 89.95429 114.65193 91.93122 118.67089 99.58555 111.12764 95.20818 108.90077 97.2771 112.76785 105.07029 105.45718 100.47422 102.95608 102.80002 114.81074 109.8191 116.9248 107.85431"/>
    <polygon class="st0" points="133.60117 94.62673 131.99394 92.29224 127.87257 95.13181 126.51094 93.15834 130.01006 90.74749 128.40456 88.41474 124.9063 90.82559 123.58806 88.91462 127.55321 86.18093 125.94597 83.84991 119.4936 88.29324 126.99345 99.1794 133.60117 94.62673"/>
    <path class="st0" d="M139.08244,91.62227c2.52888-1.35903,3.80807-3.52516,2.49417-5.96899-.80535-1.49789-2.075-1.90751-3.09297-1.76865l-.01822-.03298c.56149-1.02926.58839-2.09496-.06335-3.30993-.86784-1.61071-2.68596-2.28415-5.46217-.79147-1.26531.68039-2.84217,1.61418-3.47222,1.99429l6.2198,11.57349c.71683-.30027,2.28241-1.09868,3.39498-1.69576ZM138.84378,86.94809c.4209.78279.14666,1.5083-.88519,2.06198-.49901.26903-.74113.33499-.95115.38358l-1.17071-2.17827,1.03099-.55368c.86437-.46516,1.58294-.44433,1.97607.28639ZM134.58443,84.88785l-1.13426-2.11058c.28118-.1944.46256-.33499.79494-.51376.64914-.35061,1.47012-.34019,1.84502.35755.45561.84875.05901,1.42673-.62311,1.79295l-.88259.47384Z"/>
    <path class="st0" d="M154.72782,84.95033c1.68881-.59707,3.09471-1.7756,3.54425-2.87775l-1.84155-1.74956c-.61443.91991-1.49268,1.54996-2.38135,1.86759-2.24076.79147-4.3253-.23084-5.10809-2.43689-.86957-2.45425.22737-4.3253,2.1505-5.00569,1.17505-.41656,1.99429-.30548,2.81527-.13712l.50508-2.58269c-1.00496-.46516-2.61219-.53459-4.26629.05207-4.28712,1.51872-5.49515,5.17058-4.22811,8.74607,1.37639,3.8775,4.95188,5.49342,8.81029,4.12397Z"/>
    <path class="st0" d="M165.73201,81.94935c3.93304-.83833,6.28141-4.23331,5.44655-8.149-.87652-4.11876-4.36002-6.06098-8.29306-5.22265-4.11876.87652-6.24496,4.39647-5.44829,8.14726.87825,4.11876,4.36002,6.06098,8.2948,5.22439ZM163.47563,71.3461c2.08802-.44433,4.06148.75849,4.56483,3.12248.46343,2.18001-.4426,4.18645-2.89858,4.70889-2.06893.44086-4.09272-.90429-4.56309-3.12075-.50335-2.36399.75328-4.25414,2.89684-4.71063Z"/>
    <polygon class="st0" points="182.42748 66.37512 182.90306 74.33146 176.16863 66.74829 173.75604 66.89236 174.54404 80.08697 177.36972 79.92034 176.89762 72.00219 183.62857 79.54544 186.04116 79.40311 185.2549 66.20676 182.42748 66.37512"/>
    <path class="st0" d="M192.75822,77.17103c-.92338-.06248-2.04463-.5693-2.73543-1.57947l-1.84676,1.94222c.54674,1.4545,2.55144,2.34143,4.32183,2.45598,2.5445.16489,4.62384-1.28787,4.77311-3.58591.27944-4.2958-5.25563-4.1257-5.1133-6.31092.03818-.60228.55195-.94768,1.3816-.89214.97892.06075,1.39201.43045,1.93875,1.01363l1.76692-2.15571c-.77064-.939-2.09149-1.59162-3.78551-1.7027-2.63823-.1701-4.3739,1.49442-4.50408,3.52863-.27597,4.25761,5.24001,4.37043,5.11157,6.34737-.03992.62311-.51897.98934-1.3087.939Z"/>
    <path class="st0" d="M204.9635,81.60048c3.94866.77411,7.43911-1.43193,8.20801-5.3615.80709-4.13264-1.63327-7.28463-5.58367-8.05701-4.13264-.81056-7.47035,1.59856-8.20628,5.35977-.80883,4.13438,1.63501,7.28637,5.58193,8.05874ZM202.53182,74.15963c.46516-2.37267,2.36226-3.61888,4.51276-3.19712,2.09496.40962,3.44011,2.28936,2.97668,4.66203-.42698,2.18522-2.0481,3.67963-4.51276,3.19538-2.07587-.40615-3.4106-2.43689-2.97668-4.66029Z"/>
    <path class="st0" d="M218.17373,80.01233l1.05356.35928,1.53434,5.42225,3.46441,1.19067-1.94916-6.18074c.79668-.10761,2.54971-.56409,3.34812-2.88643.79147-2.30498.15968-4.41903-3.25266-5.59235-.35755-.1215-3.56681-1.18373-4.26456-1.42325l-4.2958,12.50381,2.85866.98239,1.5031-4.37564ZM220.04652,74.56404c.59534.18398.83486.24647,1.26184.39226,1.37639.4721,1.50657,1.25663,1.26704,1.95437-.36276,1.05356-1.35556,1.15075-2.44383.77758l-1.0362-.35581.95115-2.7684Z"/>
    <polygon class="st0" points="237.82506 82.02745 239.03482 79.46386 229.12932 74.781 227.91608 77.3446 231.50546 79.03862 227.06213 88.43557 229.79582 89.72691 234.23741 80.3317 237.82506 82.02745"/>
    <rect class="st0" x="232.88752" y="85.9413" width="13.21538" height="3.01941" transform="translate(43.0546 249.98322) rotate(-59.6634)"/>
    <path class="st0" d="M244.64453,99.00063c2.28762,1.67319,5.32853,1.86412,7.71334-1.39722l4.58392-6.25885-2.43863-1.78428-4.22464,5.77286c-1.24969,1.70617-2.48202,2.46466-3.96081,1.38333-1.70443-1.24969-1.2844-2.88122-.06769-4.54226l4.12744-5.63574-2.43863-1.78428-4.50408,6.15297c-2.28589,3.12422-1.53087,6.08702,1.20977,8.09346Z"/>
    <polygon class="st0" points="253.37845 105.83399 259.30578 99.93095 258.27826 106.12558 258.58548 106.43453 264.83738 105.40354 258.86839 111.34823 261.00154 113.49005 270.36898 104.16079 268.3556 102.14047 261.68887 103.33982 262.75804 96.52035 260.61275 94.36464 251.24704 103.69563 253.37845 105.83399"/>
    <polygon class="st0" points="274.3593 133.80441 283.20084 132.64498 276.69205 138.75629 277.92265 141.37022 291.45918 139.10343 290.22165 136.47214 281.70816 137.97871 288.17008 132.11907 286.87526 129.36802 278.27499 130.68887 284.87229 125.11735 283.41606 122.02611 273.12871 131.19221 274.3593 133.80441"/>
    <path class="st0" d="M285.64988,142.9115c-4.04933,1.14902-5.7555,4.75055-4.65682,8.61763,1.09695,3.86882,4.63773,5.98288,8.48746,4.89114,4.05107-1.14902,5.7555-4.75228,4.65855-8.61937-1.14728-4.04933-4.80262-5.93428-8.48919-4.8894ZM291.41579,148.57328c.58145,2.05157-.48425,4.1014-2.81006,4.76096-2.14182.60749-4.20381-.16142-4.8894-2.57748-.57624-2.03421.63005-4.14132,2.80832-4.75922,2.32407-.65956,4.29233.46863,4.89114,2.57574Z"/>
    <path class="st0" d="M283.79617,163.22238l4.58219-.63526.15274,1.10389-4.14132,3.81502.50508,3.62756,4.63252-4.53011c.45301.65956,1.65236,2.01859,4.08405,1.68187,2.41259-.33672,4.01288-1.85544,3.51648-5.42746-.05033-.37317-.55542-3.71608-.65435-4.44507l-13.09394,1.81725.41656,2.99231ZM294.08179,161.79392c.10588.61443.15795.85569.22043,1.30349.19787,1.44061-.44086,1.90924-1.16985,2.01338-1.10389.15274-1.63848-.68733-1.79816-1.8294l-.14927-1.0848,2.89684-.40268Z"/>
    <polygon class="st0" points="285.04413 180.8447 287.87675 180.77528 287.7431 175.39642 298.12071 175.13954 298.04434 172.11946 284.83584 172.44924 285.04413 180.8447"/>
    <path class="st0" d="M285.02156,182.34606l-.03124.31936c-.11976,1.2601-.32284,2.98536-.39053,3.6831-.47731,5.01958,2.32581,7.83137,6.01238,8.18198,3.49739.33499,6.72748-1.50136,7.23083-6.76567.08158-.86437.2482-3.20232.31416-3.89659l.02604-.26382-13.16163-1.25837ZM295.02426,187.45763c-.23258,2.44557-1.68187,4.10835-4.10661,3.87576-2.50111-.23952-3.75427-2.02727-3.50607-4.62037.04166-.43392.06596-.69774.14233-1.09l7.51895.72031c.02083.38011-.01736.7932-.0486,1.1143Z"/>
    <polygon class="st0" points="281.51723 204.26071 288.86956 209.32541 279.93082 209.50592 279.09423 212.27433 290.67987 219.66484 291.51993 216.87908 284.18149 212.29168 292.91542 212.26565 293.79367 209.35492 286.51598 204.56792 295.15617 204.8491 296.14551 201.57562 282.35383 201.49404 281.51723 204.26071"/>
    <rect class="st0" x="280.97686" y="214.45548" width="3.02122" height="13.21576" transform="translate(-34.07426 389.75493) rotate(-66.09787)"/>
    <path class="st0" d="M274.38881,223.03031c-.62658,1.09868-1.51872,2.58789-1.86585,3.19712-2.4959,4.37738-1.09,8.08999,2.12447,9.92112,3.04958,1.73915,6.74831,1.39201,9.36397-3.20059.42871-.75675,1.53954-2.817,1.88494-3.42449l.13365-.23084-11.48323-6.54176-.15795.27944ZM275.51179,226.7759l6.56086,3.73865c-.13885.35755-.3454.71857-.50335.99801-1.21497,2.13141-3.21794,3.05479-5.33373,1.8485-2.18174-1.24274-2.58789-3.38804-1.29829-5.65136.21522-.37664.3454-.60749.57451-.93379Z"/>
    <polygon class="st0" points="262.7754 240.85571 265.04566 242.54799 268.03797 238.53511 269.96284 239.97051 267.42181 243.37591 269.69381 245.06993 272.23484 241.66106 274.09722 243.05134 271.21773 246.91495 273.48973 248.60724 278.17606 242.32062 267.57281 234.41982 262.7754 240.85571"/>
    <polygon class="st0" points="255.26687 248.98908 259.0489 257.07039 251.25051 252.71211 249.13125 254.6769 255.38663 266.90126 257.51977 264.92433 253.50863 257.26132 261.05361 261.65084 263.28222 259.58365 259.42207 251.78005 266.73274 256.38827 269.23906 254.0642 257.38613 247.02603 255.26687 248.98908"/>
    <polygon class="st0" points="238.56793 262.17154 240.16995 264.50603 244.29392 261.67688 245.64948 263.65381 242.14863 266.05772 243.75065 268.39047 247.25151 265.9883 248.56716 267.90275 244.59766 270.62602 246.19969 272.95877 252.65641 268.52759 245.18259 257.63449 238.56793 262.17154"/>
    <path class="st0" d="M233.07798,265.16385c-2.52888,1.35209-3.81328,3.51648-2.50458,5.96205.80015,1.49615,2.07066,1.91098,3.0895,1.77213l.01736.03298c-.56236,1.02926-.5936,2.09496.05728,3.3082.86263,1.61418,2.68162,2.29109,5.46044.80362,1.26531-.67518,2.84304-1.6055,3.47482-1.98735l-6.19636-11.58217c-.71857.30027-2.28415,1.09348-3.39845,1.69055ZM233.30709,269.83455c-.41656-.78279-.14233-1.50657.8904-2.05851.49814-.26903.74113-.33325.95289-.38185l1.16464,2.18001-1.03099.55195c-.8661.46169-1.58467.44086-1.97694-.29159ZM237.56123,271.90348l1.12993,2.11405c-.28118.1944-.46343.33499-.79494.51029-.64914.34714-1.47012.33846-1.84329-.36102-.45301-.84875-.05728-1.42673.62831-1.79122l.87999-.4721Z"/>
    <path class="st0" d="M217.45169,271.78545c-1.69055.5936-3.09818,1.77039-3.54946,2.87081l1.83635,1.75303c.6179-.91644,1.49615-1.54649,2.38829-1.85891,2.24249-.79147,4.3253.23605,5.10289,2.44383.86437,2.45598-.23952,4.32704-2.16265,5.00395-1.17332.41136-1.99256.30201-2.8118.13018l-.51376,2.58095c1.00496.4669,2.61046.54153,4.26629-.04166,4.29233-1.51177,5.5073-5.1619,4.2472-8.73913-1.36598-3.88097-4.938-5.50383-8.80335-4.14306Z"/>
    <path class="st0" d="M206.40411,274.77776c-3.93651.82965-6.29009,4.2229-5.46564,8.14032.86957,4.12223,4.3496,6.07313,8.28785,5.24174,4.1205-.86784,6.25538-4.38605,5.46391-8.14032-.86784-4.1205-4.34787-6.06966-8.28612-5.24174ZM208.6414,285.38795c-2.08802.43913-4.06322-.76543-4.55962-3.13116-.45995-2.18174.4478-4.18819,2.90726-4.70542,2.07066-.43739,4.09099.91297,4.55962,3.13116.49814,2.36573-.7637,4.25241-2.90726,4.70542Z"/>
    <polygon class="st0" points="194.80285 276.77726 195.26454 284.69194 188.54747 277.14522 186.13662 277.28408 186.90552 290.47348 189.73294 290.30859 189.26778 282.35919 195.98658 289.94236 198.39917 289.80177 197.62853 276.61411 194.80285 276.77726"/>
    <path class="st0" d="M179.36575,279.4988c.92338.06075,2.04463.57277,2.73543,1.58467l1.85197-1.94049c-.54674-1.45797-2.55144-2.34837-4.32357-2.4664-2.5445-.17183-4.62905,1.28093-4.78179,3.5807-.28639,4.29927,5.25389,4.13612,5.10636,6.3248-.03992.60228-.55542.94768-1.38681.89214-.97719-.06596-1.39028-.43392-1.93701-1.01884l-1.77213,2.15224c.77064.94247,2.08975,1.59856,3.78551,1.71311,2.63823.17357,4.37911-1.48747,4.51623-3.52342.28465-4.26108-5.23827-4.38432-5.10636-6.36472.04166-.62137.51897-.98586,1.31217-.93379Z"/>
    <path class="st0" d="M167.16742,275.03985c-3.94519-.77585-7.43911,1.42325-8.21322,5.34935-.81403,4.13091,1.62459,7.28463,5.57152,8.06222,4.12917.81577,7.47035-1.58641,8.21148-5.34588.81577-4.13091-1.62286-7.2881-5.56978-8.06569ZM169.58868,282.48416c-.4669,2.37093-2.36746,3.61368-4.51623,3.19017-2.09323-.41309-3.4349-2.29283-2.96801-4.66376.43045-2.18695,2.05157-3.67616,4.51449-3.19191,2.07587.40962,3.40713,2.4421,2.96974,4.6655Z"/>
    <path class="st0" d="M153.98669,276.59675l-1.05356-.36623-1.51872-5.42399-3.46094-1.19935,1.93181,6.18769c-.79494.10414-2.54971.55542-3.35506,2.87254-.79841,2.30324-.17183,4.41903,3.2353,5.60103.35755.12323,3.56334,1.19415,4.25935,1.4354l4.33225-12.48819-2.85692-.99107-1.51351,4.37217ZM152.09827,282.03983c-.59534-.18745-.83312-.24994-1.2601-.39921-1.37639-.47731-1.5031-1.2601-1.26184-1.95437.36449-1.05529,1.35556-1.14902,2.44557-.77238l1.0362.35928-.95983,2.76667Z"/>
    <polygon class="st0" points="142.34551 266.84398 137.87875 276.22879 134.29544 274.52262 133.07874 277.08274 142.97209 281.79336 144.19227 279.23498 140.6081 277.52881 145.07573 268.14401 142.34551 266.84398"/>
    <rect class="st0" x="126.07592" y="267.61659" width="13.21808" height="3.02136" transform="translate(-166.57501 247.25818) rotate(-59.57622)"/>
    <path class="st0" d="M127.52457,257.53555c-2.28241-1.6784-5.32505-1.878-7.72202,1.37813l-4.60475,6.25017,2.43515,1.79295,4.2446-5.76592c1.25403-1.7027,2.49156-2.45772,3.96689-1.37118,1.70443,1.25489,1.27572,2.88643.05554,4.544l-4.14653,5.63053,2.43515,1.79122,4.52491-6.14603c2.29717-3.11901,1.54822-6.08528-1.18894-8.10387Z"/>
    <polygon class="st0" points="118.81321 250.69178 112.8798 256.58093 113.91687 250.39325 113.61226 250.08603 107.36296 251.09967 113.33715 245.17407 111.20922 243.03051 101.83483 252.33547 103.84127 254.35753 110.50453 253.16859 109.4232 259.98459 111.56329 262.1403 120.94115 252.83534 118.81321 250.69178"/>
    <path class="st0" d="M99.00828,237.367c-1.52913,0-2.81266,1.28266-2.81266,2.83089,0,1.52913,1.28353,2.83262,2.81266,2.83262,1.54736,0,2.84998-1.30349,2.84998-2.83262,0-1.54822-1.30262-2.83089-2.84998-2.83089Z"/>
    <path class="st0" d="M269.17245,117.06175c0,1.52913,1.28353,2.83262,2.81266,2.83262,1.54736,0,2.84998-1.30349,2.84998-2.83262,0-1.54822-1.30262-2.83089-2.84998-2.83089-1.52913,0-2.81266,1.28266-2.81266,2.83089Z"/>
  </g>
</svg>