<?xml version="1.0" encoding="UTF-8" standalone="no"?>
<svg
   width="90"
   height="52"
   version="1.1"
   viewBox="0 0 33.75 19.5"
   id="svg6"
   xmlns="http://www.w3.org/2000/svg"
   xmlns:svg="http://www.w3.org/2000/svg">
  <defs
     id="defs10" />
  <path
     d="M 29.44644,14.460403 C 28.8043,13.950693 27.86678,14.059083 27.35708,14.701223 26.72575,15.497203 26.15231,15.976333 25.49861,16.255193 24.293,16.768203 23.27108,16.551403 22.28308,15.572543 21.31495,14.613493 20.371657,13.568443 19.456479,12.555593 19.008818,12.059963 18.560361,11.563503 18.106081,11.072813 17.329914,10.234593 16.549639,9.3996927 15.770161,8.5639427 L 15.701455,8.4902927 C 14.006002,6.6756927 12.253445,4.7989927 10.562938,2.9140427 9.2224701,1.4188127 7.1513361,0.67821268 5.1587991,0.97777268 3.1223971,1.2822727 1.4757551,2.5855427 0.52169615,4.6467427 -0.39759085,6.6318227 -0.08646885,8.8874727 1.3325961,10.533273 3.8290591,13.428583 5.9349651,15.822403 8.4016021,18.073943 9.4102901,18.994063 10.630808,19.483913 11.930722,19.490533 12.77392,19.494683 14.044883,19.399533 15.341524,18.526553 15.909173,18.144283 16.437903,17.751223 16.670427,17.151313 16.907097,16.537363 16.68614,15.831533 16.131767,15.433523 15.593908,15.046283 14.888082,15.073553 14.375064,15.499713 14.310503,15.553483 14.240161,15.615563 14.163236,15.682603 13.357282,16.388423 12.354375,17.267153 10.309719,15.799243 8.4363741,14.453783 6.9858451,12.690463 5.3052671,10.648313 4.7574761,9.9830027 4.1906641,9.2945727 3.5849711,8.5912127 2.9378871,7.8407327 2.7980381,6.8080827 3.2200561,5.8953727 3.5882801,5.1010127 4.2990501,4.1130327 5.5998381,3.9185927 6.5853201,3.7704327 7.6899931,4.1643127 8.3494811,4.8991227 10.054065,6.8006227 11.819861,8.6921927 13.527716,10.520033 14.327888,11.376463 15.128021,12.233713 15.924048,13.093463 16.370071,13.575053 16.810275,14.062393 17.257097,14.557223 18.195444,15.595703 19.165215,16.668913 20.189616,17.684223 22.039,19.517013 24.33767,19.981223 26.66533,18.990753 27.78324,18.513313 28.74392,17.737983 29.68721,16.548923 30.19609,15.907663 30.08854,14.970953 29.44644,14.460403 Z"
     style="fill:#ffffff"
     id="path2" />
  <path
     d="M 31.772658,6.1979616 C 32.734168,5.7420116 33.490478,4.8839416 33.562458,3.8429916 33.745338,2.0358416 32.257568,0.30644162 30.068918,0.03915162 28.725138,-0.13127838 27.478138,0.26673162 26.594418,0.99903162 26.121958,1.3920616 25.994518,2.1194216 26.404088,2.6324416 26.851748,3.1661616 27.368078,3.2596316 28.212958,2.7954516 28.515778,2.6233516 28.970898,2.4801916 29.471518,2.5149216 30.415638,2.5803216 30.686208,3.4309416 30.659728,3.8173516 30.655578,3.8744516 30.661398,5.1917516 29.331658,5.0999116 L 28.830208,5.0651716 C 28.271688,5.0270916 27.713128,5.5492416 27.671778,6.1466416 27.627078,6.7821616 28.092128,7.3373816 28.670498,7.3779316 L 29.286958,7.4201216 C 30.983288,7.5376316 30.806198,8.9773916 30.770628,9.2074416 30.737528,9.8694016 29.675048,10.992262 27.780168,9.7154816 27.137228,9.2827316 22.551448,3.5227716 22.551448,3.5227716 20.378548,0.71355162 16.686413,0.21872162 13.772913,2.3469516 13.4527,2.5811216 13.241672,2.9261716 13.180461,3.3192416 13.120047,3.7114216 13.215194,4.1045016 13.449391,4.4247116 13.68355,4.7449216 14.028606,4.9559516 14.420836,5.0171616 14.815499,5.0784116 15.206894,4.9824316 15.527146,4.7482316 17.514698,3.2960716 19.286277,4.1615616 20.197308,5.3398916 20.197308,5.3398916 25.120718,11.672442 26.388378,12.343502 27.210878,12.778752 28.069798,13.030302 28.942748,13.090712 31.622088,13.276062 33.253808,11.799852 33.694058,9.7775616 33.982808,8.4519716 33.125568,6.7954016 31.772658,6.1979616 Z"
     style="fill:#ffffff"
     id="path4" />
</svg>
