<?xml version="1.0" encoding="UTF-8" standalone="no"?>
<svg
   width="2.6107991in"
   height="1.5082655in"
   version="1.1"
   viewBox="0 0 187.97753 108.59512"
   id="svg6"
   xmlns="http://www.w3.org/2000/svg"
   xmlns:svg="http://www.w3.org/2000/svg">
  <defs
     id="defs10" />
  <path
     d="M 164.00558,80.52648 C 160.42911,77.68759 155.20753,78.29126 152.36865,81.86774 148.85235,86.30109 145.65855,88.96962 142.01767,90.52276 135.30291,93.38008 129.61116,92.17253 124.1084,86.72063 118.71625,81.37912 113.46247,75.55854 108.36527,69.91742 105.87197,67.15693 103.37423,64.39178 100.84406,61.65884 96.5211,56.99029 92.17526,52.34018 87.83387,47.68541 L 87.4512,47.27519 C 78.00816,37.16852 68.24708,26.71604 58.83159,16.21758 51.36569,7.8897103 39.83025,3.7648703 28.73257,5.4332903 17.39058,7.1292503 8.2193999,14.38792 2.9056499,25.86806 -2.2144301,36.92421 -0.48160011,49.48731 7.4220599,58.65383 21.32642,74.77963 33.05552,88.11231 46.79376,100.65253 52.41178,105.77727 59.2096,108.50555 66.44963,108.54242 71.14593,108.56552 78.22472,108.03558 85.44652,103.17337 88.60811,101.04431 91.55294,98.85508 92.84801,95.5138 94.16617,92.09434 92.93552,88.16316 89.84788,85.94638 86.8522,83.78956 82.92102,83.94149 80.0637,86.31507 79.70412,86.61447 79.31234,86.96027 78.8839,87.33362 74.39504,91.26479 68.80922,96.159 57.42126,87.98327 46.98743,80.48961 38.90853,70.66856 29.54834,59.29458 26.49735,55.58907 23.34042,51.75473 19.96694,47.83733 16.36292,43.6574 15.58402,37.90589 17.9345,32.82246 19.98537,28.39822 23.94409,22.89547 31.18899,21.8125 36.67776,20.9874 42.83037,23.18109 46.50347,27.27372 55.99736,37.86435 65.83218,48.39967 75.34429,58.58008 79.80095,63.35012 84.25739,68.12461 88.69096,72.91309 91.17514,75.59539 93.62691,78.30969 96.11554,81.06572 101.34178,86.84965 106.74304,92.82703 112.44857,98.48192 122.74891,108.68988 135.55166,111.27534 148.51586,105.75882 154.74221,103.09962 160.09283,98.78132 165.34661,92.15874 168.18083,88.58714 167.58183,83.37002 164.00557,80.52647 Z"
     id="path2"
     style="fill:#ffffff" />
  <path
     d="M 176.96449,34.52033 C 182.31977,31.98084 186.53212,27.20169 186.93301,21.40399 187.95156,11.33885 179.66522,1.7068003 167.47526,0.21807033 159.99092,-0.73118967 153.04563,1.4855903 148.12367,5.5642403 145.49222,7.7532603 144.7824,11.80437 147.06359,14.66169 149.55689,17.63428 152.43264,18.15489 157.13827,15.56963 158.82491,14.61104 161.35973,13.81371 164.14798,14.00716 169.40643,14.3714 170.91338,19.10902 170.7659,21.26117 170.7428,21.57922 170.77522,28.91608 163.36907,28.40458 L 160.57616,28.21113 C 157.46542,27.99903 154.35447,30.9072 154.12415,34.23449 153.87518,37.77409 156.46531,40.8664 159.68666,41.09227 L 163.12011,41.32725 C 172.56802,41.98177 171.58168,50.00071 171.38356,51.282 171.19922,54.96887 165.28159,61.22276 154.72783,54.11156 151.14691,51.70132 125.60583,19.62051 125.60583,19.62051 113.50359,3.9742203 92.93978,1.2181803 76.71269,13.07166 74.92922,14.37584 73.75387,16.29767 73.41295,18.4869 73.07647,20.67126 73.6064,22.8605 74.91079,24.64397 76.21497,26.42744 78.1368,27.60279 80.32137,27.94371 82.5195,28.28485 84.69942,27.75026 86.4831,26.44587 97.55302,18.35786 107.42005,23.17833 112.49415,29.74117 112.49415,29.74117 139.91574,65.01112 146.97609,68.74863 151.55713,71.17285 156.34094,72.57386 161.20294,72.91034 176.12585,73.94266 185.21397,65.72074 187.66595,54.45737 189.27419,47.07432 184.4997,37.84783 176.9645,34.52033 Z"
     id="path4"
     style="fill:#ffffff" />
</svg>
