<svg height="69.38882" viewBox="0 0 360 208.16646" width="120" xmlns="http://www.w3.org/2000/svg"><path d="m0 0h360v208.2h-360z" stroke-dasharray="56.6928 56.6928" stroke-width="22.6772"/><g fill="#fff"><path d="m311.3 153.9c-6.8-5.4-16.7-4.3-22.1 2.5-6.7 8.4-12.8 13.5-19.7 16.4-12.7 5.5-23.5 3.2-34-7.2-10.2-10.1-20.2-21.2-29.8-31.9-4.8-5.2-9.5-10.5-14.3-15.6-8.2-8.9-16.5-17.7-24.7-26.57l-.7-.77c-18-19.19-36.5-39.02-54.3-58.95-14.2-15.8-36.1-23.632-57.2-20.47-21.5 3.22-38.9 17-49.002 38.79-9.7 20.98-6.4002 44.82 8.602 62.27 26.4 30.6 48.6 55.9 74.7 79.7 10.7 9.7 23.6 14.9 37.3 14.9 8.9.1 22.4-.9 36.1-10.2 6-4 11.6-8.2 14-14.5 2.5-6.5.2-13.9-5.7-18.2-5.7-4-13.1-3.8-18.6.7-.6.6-1.4 1.3-2.2 2-8.5 7.4-19.1 16.7-40.7 1.2-19.8-14.2-35.2-32.8-52.9-54.4-5.8-7.1-11.8-14.34-18.2-21.78-6.8-7.93-8.3-18.85-3.9-28.49 3.9-8.4 11.4-18.84 25.2-20.9 10.4-1.57 22.1 2.6 29.1 10.36 18 20.1 36.6 40.1 54.7 59.41 8.4 9.1 16.9 18.1 25.3 27.2 4.7 5.1 9.4 10.3 14.1 15.5 9.9 11 20.2 22.3 31 33 19.6 19.4 43.9 24.3 68.5 13.9 11.8-5.1 21.9-13.3 31.9-25.9 5.4-6.7 4.2-16.6-2.5-22z"/><path d="m335.9 66.55c10.1-4.82 18.1-13.89 18.9-24.9 1.9-19.1-13.8-37.378-37-40.204-14.2-1.8013-27.3 2.406-36.7 10.144-5 4.16-6.3 11.85-2 17.27 4.7 5.64 10.2 6.63 19.1 1.72 3.2-1.82 8-3.33 13.3-2.96 10 .69 12.9 9.68 12.6 13.76-.1.61 0 14.53-14 13.56l-5.3-.37c-6-.4-11.9 5.12-12.3 11.44-.5 6.71 4.5 12.58 10.6 13.01l6.5.45c17.9 1.24 16 16.46 15.7 18.89-.4 7.04-11.6 18.84-31.6 5.34-6.8-4.54-55.3-65.43-55.3-65.43-23-29.695-62-34.926-92.8-12.43-3.4 2.48-5.6 6.12-6.3 10.28-.6 4.14.4 8.3 2.9 11.68 2.4 3.39 6.1 5.62 10.2 6.27 4.2.64 8.3-.37 11.7-2.85 21-15.35 39.8-6.2 49.4 6.26 0 0 52 66.92 65.4 74.02 8.7 4.6 17.8 7.3 27 7.9 28.4 2 45.6-13.6 50.3-35 3-14.03-6-31.54-20.3-37.85z"/></g></svg>