<?xml version="1.0" encoding="UTF-8" standalone="no"?>
<svg
   width="59.933132"
   height="60"
   version="1.1"
   viewBox="0 0 44.949849 44.999998"
   id="svg102"
   xmlns="http://www.w3.org/2000/svg"
   xmlns:svg="http://www.w3.org/2000/svg">
  <defs
     id="defs106" />
  <g
     transform="matrix(0.20065393,0,0,0.20065393,-13.642784,-13.284647)"
     id="g6">
    <path
       d="M 232.97927,198.18661 C 230.27309,196.03854 226.3221,196.49533 224.17397,199.2015 221.51333,202.55605 219.0967,204.57522 216.34176,205.75045 211.26095,207.9125 206.95419,206.99874 202.79049,202.8735 198.71041,198.83181 194.73507,194.42758 190.8782,190.15914 188.9916,188.07033 187.10165,185.97805 185.18716,183.91012 181.91616,180.37765 178.62783,176.85903 175.3428,173.33694 L 175.05325,173.02652 C 167.90805,165.37918 160.52218,157.47018 153.39785,149.52634 147.74862,143.22495 139.02016,140.10385 130.62295,141.36624 122.04086,142.64957 115.10134,148.14194 111.08065,156.82852 107.20644,165.1943 108.5176,174.70041 114.49807,181.63638 125.01901,193.83816 133.89401,203.92654 144.28921,213.41531 148.54019,217.293 153.68386,219.35739 159.16213,219.38528 162.71566,219.4028 168.07192,219.0018 173.5364,215.32272 175.92867,213.71176 178.15694,212.0552 179.13686,209.527 180.13424,206.9396 179.20308,203.96505 176.86672,202.28768 174.6,200.65566 171.62545,200.77065 169.4634,202.56661 169.19131,202.79317 168.89486,203.05483 168.5707,203.33736 165.17415,206.31191 160.94753,210.01522 152.33065,203.82888 144.43575,198.15871 138.32278,190.7275 131.2402,182.12118 128.93167,179.31735 126.54293,176.41604 123.99032,173.45187 121.26327,170.28909 120.67391,165.9371 122.45242,162.09066 124.0043,158.743 126.99972,154.57925 132.48166,153.75985 136.6348,153.13552 141.29025,154.79537 144.06961,157.89217 151.25326,165.90572 158.69492,173.8774 165.89242,181.58059 169.26461,185.1899 172.63662,188.80257 175.99136,192.42587 177.87106,194.45547 179.72622,196.50924 181.60928,198.59463 185.56381,202.97116 189.65072,207.49404 193.96792,211.77285 201.7618,219.49685 211.44918,221.45321 221.25875,217.27908 225.96999,215.26693 230.01864,211.99942 233.99398,206.98837 236.13851,204.28586 235.68526,200.33822 232.97927,198.18661 Z"
       id="path2"
       style="fill:#ffffff" />
    <path
       d="M 242.78481,163.37539 C 246.83693,161.45388 250.02431,157.83761 250.32766,153.45071 251.09835,145.8348 244.82833,138.54654 235.60464,137.42007 229.94149,136.70181 224.68624,138.37918 220.962,141.46536 218.97085,143.12173 218.43374,146.18704 220.15988,148.34909 222.04642,150.5983 224.22244,150.99222 227.78299,149.0361 229.05924,148.31076 230.97726,147.70743 233.08701,147.85379 237.06589,148.12942 238.20615,151.7142 238.09458,153.34268 238.07706,153.58334 238.1016,159.13486 232.49766,158.74783 L 230.38438,158.60147 C 228.03056,158.44095 225.67662,160.64145 225.50236,163.15909 225.31394,165.83743 227.27384,168.17722 229.71128,168.34818 L 232.30924,168.52598 C 239.45817,169.02122 238.71183,175.08885 238.56193,176.05839 238.42246,178.84812 233.9448,183.58018 225.95915,178.19938 223.24956,176.37565 203.92351,152.10124 203.92351,152.10124 194.76622,140.26225 179.20629,138.17686 166.92784,147.14598 165.57835,148.1328 164.68901,149.58696 164.43101,151.24351 164.17643,152.89634 164.57743,154.55284 165.56437,155.90232 166.55119,157.25181 168.00541,158.14115 169.65836,158.39915 171.32163,158.65727 172.9711,158.25273 174.32071,157.26579 182.69693,151.14586 190.163,154.79332 194.00235,159.7592 194.00235,159.7592 214.75131,186.4467 220.09366,189.27476 223.55997,191.10911 227.17972,192.16917 230.85861,192.42381 242.15024,193.20488 249.02688,186.98369 250.88223,178.46104 252.09909,172.87455 248.48642,165.89323 242.78482,163.37541 Z"
       id="path4"
       style="fill:#ffffff" />
  </g>
  <g
     transform="matrix(0.20065393,0,0,0.20065393,-13.642784,-13.284647)"
     aria-label="WORLD WIDE WEB CONSORTIUM"
     id="g100">
    <path
       id="polygon8"
       d="M 81.40839,231.74861 82.87069,234.83638 93.14156,225.64945 91.90576,223.03725 83.06422,224.21578 89.56259,218.09058 88.32679,215.48012 74.79112,217.77468 76.03647,220.4025 84.54649,218.87684 78.09672,224.75384 79.39674,227.49968 87.99528,226.16321 Z"
       style="fill:#ffffff" />
    <path
       d="M 80.58915,213.94925 C 84.64195,212.79503 86.34292,209.18655 85.2425,205.31773 84.13861,201.44891 80.59089,199.33485 76.73942,200.43354 72.68835,201.58776 70.98652,205.1945 72.08868,209.06332 73.24204,213.11612 76.90258,215.00107 80.58915,213.94925 Z M 74.81369,208.28921 C 74.22963,206.23417 75.29534,204.18434 77.61941,203.52131 79.76297,202.91035 81.82842,203.67752 82.51662,206.09358 83.09547,208.12779 81.89091,210.24011 79.7109,210.86148 77.38509,211.52451 75.41337,210.39632 74.81369,208.28921 Z"
       id="path10"
       style="fill:#ffffff" />
    <path
       d="M 82.42202,193.67829 77.84417,194.32396 77.68883,193.22181 81.82061,189.39812 81.30772,185.77403 76.68735,190.31282 C 76.2326,189.65326 75.03151,188.29596 72.6033,188.63963 70.19071,188.97982 68.59562,190.50027 69.09723,194.06883 69.1493,194.44374 69.65959,197.78318 69.76199,198.51216 L 82.84378,196.66887 82.42201,193.6783 Z M 72.14335,195.12585 C 72.03747,194.51316 71.9854,194.27363 71.92205,193.82236 71.71984,192.38522 72.3577,191.91312 73.08756,191.81071 74.18971,191.65623 74.72777,192.49457 74.88919,193.63491 L 75.04193,194.71797 Z"
       id="path12"
       style="fill:#ffffff" />
    <path
       id="polygon14"
       d="M 68.14782,184.82461 81.35371,184.45317 81.1194,176.05771 78.28938,176.13755 78.44038,181.51467 68.06451,181.80453 Z"
       style="fill:#ffffff" />
    <path
       d="M 81.17928,174.23872 C 81.29557,172.98035 81.4917,171.25336 81.55592,170.55735 82.01935,165.53777 79.20755,162.73639 75.52358,162.39967 72.02706,162.0751 68.80217,163.92012 68.31792,169.18269 68.23808,170.04706 68.07926,172.38328 68.01504,173.07928 L 67.99161,173.3431 81.14977,174.55807 81.17928,174.23871 Z M 78.74586,170.20327 C 78.70594,170.63545 78.68164,170.89928 78.60701,171.2898 L 71.08806,170.59553 C 71.0655,170.21542 71.10455,169.80059 71.13492,169.48123 71.35969,167.0374 72.8029,165.37115 75.22851,165.59332 77.72875,165.8259 78.98538,167.60844 78.74586,170.20328 Z"
       id="path16"
       style="fill:#ffffff" />
    <path
       id="polygon18"
       d="M 70.9709,152.10191 69.99111,155.37366 83.76977,155.41531 84.59682,152.65038 77.23756,147.61345 86.16327,147.40517 86.99119,144.64023 75.39774,137.29138 74.56462,140.07541 81.91,144.63503 73.18736,144.6871 72.31692,147.59956 79.60242,152.35705 Z"
       style="fill:#ffffff" />
    <path
       id="rect20"
       transform="rotate(-66.18191,83.610305,135.80391)"
       d="M 82.099297,129.19633 H 85.121317 V 142.41146 H 82.099297 Z"
       style="fill:#ffffff" />
    <path
       d="M 91.6888,133.85995 C 92.31538,132.75953 93.20491,131.26859 93.55118,130.6611 96.03927,126.27852 94.62903,122.56938 91.41109,120.74171 88.3589,119.00951 84.66365,119.36185 82.05406,123.95792 81.62361,124.71294 80.51799,126.77666 80.17345,127.38241 L 80.04327,127.61325 91.53171,134.13766 91.68879,133.85995 Z M 90.56234,130.11436 83.99628,126.38439 C 84.13166,126.03031 84.33821,125.66756 84.49615,125.38985 85.70939,123.2567 87.71062,122.32985 89.82728,123.53441 92.01076,124.77368 92.41951,126.91724 91.13338,129.1823 90.91989,129.55894 90.78972,129.78805 90.56234,130.11436 Z"
       id="path22"
       style="fill:#ffffff" />
    <path
       id="polygon24"
       d="M 87.88159,114.54708 98.49612,122.4149 103.27444,115.9686 100.99896,114.28326 98.02054,118.30135 96.09568,116.87462 98.62282,113.46228 96.34909,111.77521 93.81847,115.18928 91.95436,113.80595 94.81996,109.93712 92.54535,108.25178 Z"
       style="fill:#ffffff" />
    <path
       id="polygon26"
       d="M 99.28238,100.47422 96.78127,102.80002 108.63594,109.8191 110.74999,107.85431 106.96014,99.78168 114.76114,104.12955 116.87606,102.1613 110.60593,89.95429 108.47712,91.93122 112.49608,99.58555 104.95283,95.20818 102.72596,97.2771 106.59305,105.07029 Z"
       style="fill:#ffffff" />
    <path
       id="polygon28"
       d="M 113.31879,88.29324 120.81865,99.1794 127.42637,94.62673 125.81913,92.29224 121.69777,95.13181 120.33613,93.15834 123.83526,90.74749 122.22975,88.41474 118.7315,90.82559 117.41325,88.91462 121.37841,86.18093 119.77117,83.84991 Z"
       style="fill:#ffffff" />
    <path
       d="M 132.90763,91.62227 C 135.43651,90.26324 136.7157,88.09711 135.4018,85.65328 134.59645,84.15539 133.3268,83.74577 132.30883,83.88463 L 132.29061,83.85165 C 132.8521,82.82239 132.879,81.75669 132.22726,80.54172 131.35942,78.93101 129.5413,78.25757 126.76509,79.75025 125.49978,80.43064 123.92292,81.36443 123.29287,81.74454 L 129.51267,93.31803 C 130.2295,93.01776 131.79508,92.21935 132.90765,91.62227 Z M 132.66898,86.94809 C 133.08988,87.73088 132.81564,88.45639 131.78379,89.01007 131.28478,89.2791 131.04266,89.34506 130.83264,89.39365 L 129.66193,87.21538 130.69292,86.6617 C 131.55729,86.19654 132.27586,86.21737 132.66899,86.94809 Z M 128.40963,84.88785 127.27537,82.77727 C 127.55655,82.58287 127.73793,82.44228 128.07031,82.26351 128.71945,81.9129 129.54043,81.92332 129.91533,82.62106 130.37094,83.46981 129.97434,84.04779 129.29222,84.41401 Z"
       id="path30"
       style="fill:#ffffff" />
    <path
       d="M 148.55302,84.95033 C 150.24183,84.35326 151.64773,83.17473 152.09727,82.07258 L 150.25572,80.32302 C 149.64129,81.24293 148.76304,81.87298 147.87437,82.19061 145.63361,82.98208 143.54907,81.95977 142.76628,79.75372 141.89671,77.29947 142.99365,75.42842 144.91678,74.74803 146.09183,74.33147 146.91107,74.44255 147.73205,74.61091 L 148.23713,72.02822 C 147.23217,71.56306 145.62494,71.49363 143.97084,72.08029 139.68372,73.59901 138.47569,77.25087 139.74273,80.82636 141.11912,84.70386 144.69461,86.31978 148.55302,84.95033 Z"
       id="path32"
       style="fill:#ffffff" />
    <path
       d="M 159.55721,81.94935 C 163.49025,81.11102 165.83862,77.71604 165.00376,73.80035 164.12724,69.68159 160.64374,67.73937 156.7107,68.5777 152.59194,69.45422 150.46574,72.97417 151.26241,76.72496 152.14066,80.84372 155.62243,82.78594 159.55721,81.94935 Z M 157.30083,71.3461 C 159.38885,70.90177 161.36231,72.10459 161.86566,74.46858 162.32909,76.64859 161.42306,78.65503 158.96708,79.17747 156.89815,79.61833 154.87436,78.27318 154.40399,76.05672 153.90064,73.69273 155.15727,71.80258 157.30083,71.34609 Z"
       id="path34"
       style="fill:#ffffff" />
    <path
       id="polygon36"
       d="M 176.25268,66.37512 176.72825,74.33146 169.99383,66.74829 167.58124,66.89236 168.36923,80.08697 171.19491,79.92034 170.72281,72.00219 177.45376,79.54544 179.86635,79.40311 179.08009,66.20676 Z"
       style="fill:#ffffff" />
    <path
       d="M 186.58342,77.17103 C 185.66004,77.10855 184.53879,76.60173 183.84799,75.59156 L 182.00123,77.53378 C 182.54797,78.98828 184.55267,79.87521 186.32306,79.98976 188.86756,80.15465 190.9469,78.70189 191.09617,76.40385 191.37561,72.10805 185.84054,72.27815 185.98287,70.09293 186.02105,69.49065 186.53482,69.14525 187.36447,69.20079 188.34339,69.26154 188.75648,69.63124 189.30322,70.21442 L 191.07014,68.05871 C 190.2995,67.11971 188.97865,66.46709 187.28463,66.35601 184.6464,66.18591 182.91073,67.85043 182.78055,69.88464 182.50458,74.14225 188.02056,74.25507 187.89212,76.23201 187.8522,76.85512 187.37315,77.22135 186.58342,77.17101 Z"
       id="path38"
       style="fill:#ffffff" />
    <path
       d="M 198.78869,81.60048 C 202.73735,82.37459 206.2278,80.16855 206.9967,76.23898 207.80379,72.10634 205.36343,68.95435 201.41303,68.18197 197.28039,67.37141 193.94268,69.78053 193.20675,73.54174 192.39792,77.67612 194.84176,80.82811 198.78868,81.60048 Z M 196.35701,74.15963 C 196.82217,71.78696 198.71927,70.54075 200.86977,70.96251 202.96473,71.37213 204.30988,73.25187 203.84645,75.62454 203.41947,77.80976 201.79835,79.30417 199.33369,78.81992 197.25782,78.41377 195.92309,76.38303 196.35701,74.15963 Z"
       id="path40"
       style="fill:#ffffff" />
    <path
       d="M 211.99893,80.01233 213.05249,80.37161 214.58683,85.79386 218.05124,86.98453 216.10208,80.80379 C 216.89876,80.69618 218.65179,80.2397 219.4502,77.91736 220.24167,75.61238 219.60988,73.49833 216.19754,72.32501 215.83999,72.20351 212.63073,71.14128 211.93298,70.90176 L 207.63718,83.40557 210.49584,84.38796 211.99894,80.01232 Z M 213.87172,74.56404 C 214.46706,74.74802 214.70658,74.81051 215.13356,74.9563 216.50995,75.4284 216.64013,76.21293 216.4006,76.91067 216.03784,77.96423 215.04504,78.06142 213.95677,77.68825 L 212.92057,77.33244 Z"
       id="path42"
       style="fill:#ffffff" />
    <path
       id="polygon44"
       d="M 222.95451,74.781 221.74128,77.3446 225.33065,79.03862 220.88732,88.43557 223.62101,89.72691 228.06261,80.3317 231.65025,82.02745 232.86002,79.46386 Z"
       style="fill:#ffffff" />
    <path
       id="rect46"
       transform="rotate(-59.6634,233.32042,87.451001)"
       d="M 226.71272,85.941299 H 239.9281 V 88.960709 H 226.71272 Z"
       style="fill:#ffffff" />
    <path
       d="M 238.46972,99.00063 C 240.75734,100.67382 243.79825,100.86475 246.18306,97.60341 L 250.76698,91.34456 248.32835,89.56028 244.10371,95.33314 C 242.85402,97.03931 241.62169,97.7978 240.1429,96.71647 238.43847,95.46678 238.8585,93.83525 240.07521,92.17421 L 244.20265,86.53847 241.76402,84.75419 237.25994,90.90716 C 234.97405,94.03138 235.72907,96.99418 238.46971,99.00062 Z"
       id="path48"
       style="fill:#ffffff" />
    <path
       id="polygon50"
       d="M 256.58324,96.52035 254.43794,94.36464 245.07223,103.69563 247.20365,105.83399 253.13098,99.93095 252.10346,106.12558 252.41067,106.43453 258.66258,105.40354 252.69359,111.34823 254.82673,113.49005 264.19418,104.16079 262.18079,102.14047 255.51406,103.33982 Z"
       style="fill:#ffffff" />
    <path
       id="polygon52"
       d="M 278.69749,125.11735 277.24126,122.02611 266.9539,131.19221 268.1845,133.80441 277.02603,132.64498 270.51725,138.75629 271.74784,141.37022 285.28438,139.10343 284.04684,136.47214 275.53335,137.97871 281.99527,132.11907 280.70046,129.36802 272.10018,130.68887 Z"
       style="fill:#ffffff" />
    <path
       d="M 279.47507,142.9115 C 275.42574,144.06052 273.71957,147.66205 274.81825,151.52913 275.9152,155.39795 279.45598,157.51201 283.30571,156.42027 287.35678,155.27125 289.06121,151.66799 287.96426,147.8009 286.81698,143.75157 283.16164,141.86662 279.47507,142.9115 Z M 285.24099,148.57328 C 285.82244,150.62485 284.75674,152.67468 282.43093,153.33424 280.28911,153.94173 278.22712,153.17282 277.54153,150.75676 276.96529,148.72255 278.17158,146.61544 280.34985,145.99754 282.67392,145.33798 284.64218,146.46617 285.24099,148.57328 Z"
       id="path54"
       style="fill:#ffffff" />
    <path
       d="M 277.62137,163.22238 282.20356,162.58712 282.3563,163.69101 278.21498,167.50603 278.72006,171.13359 283.35258,166.60348 C 283.80559,167.26304 285.00494,168.62207 287.43663,168.28535 289.84922,167.94863 291.44951,166.42991 290.95311,162.85789 290.90278,162.48472 290.39769,159.14181 290.29876,158.41282 L 277.20482,160.23007 277.62138,163.22238 Z M 287.90699,161.79392 C 288.01287,162.40835 288.06494,162.64961 288.12742,163.09741 288.32529,164.53802 287.68656,165.00665 286.95757,165.11079 285.85368,165.26353 285.31909,164.42346 285.15941,163.28139 L 285.01014,162.19659 287.90698,161.79391 Z"
       id="path56"
       style="fill:#ffffff" />
    <path
       id="polygon58"
       d="M 291.86954,172.11946 278.66104,172.44924 278.86932,180.8447 281.70194,180.77528 281.5683,175.39642 291.94591,175.13954 Z"
       style="fill:#ffffff" />
    <path
       d="M 278.84676,182.34606 278.81552,182.66542 C 278.69576,183.92552 278.49268,185.65078 278.42499,186.34852 277.94768,191.3681 280.7508,194.17989 284.43737,194.5305 287.93476,194.86549 291.16485,193.02914 291.6682,187.76483 291.74978,186.90046 291.9164,184.56251 291.98236,183.86824 L 292.0084,183.60442 278.84677,182.34605 Z M 288.84946,187.45763 C 288.61688,189.9032 287.16759,191.56598 284.74285,191.33339 282.24174,191.09387 280.98858,189.30612 281.23678,186.71302 281.27844,186.2791 281.30274,186.01528 281.37911,185.62302 L 288.89806,186.34333 C 288.91889,186.72344 288.8807,187.13653 288.84946,187.45763 Z"
       id="path60"
       style="fill:#ffffff" />
    <path
       id="polygon62"
       d="M 288.98137,204.8491 289.97071,201.57562 276.17902,201.49404 275.34243,204.26071 282.69475,209.32541 273.75602,209.50592 272.91942,212.27433 284.50506,219.66484 285.34513,216.87908 278.00669,212.29168 286.74061,212.26565 287.61886,209.35492 280.34117,204.56792 Z"
       style="fill:#ffffff" />
    <path
       id="rect64"
       transform="rotate(-66.09787,276.31268,221.06336)"
       d="M 274.80206,214.45547 H 277.82328 V 227.67124 H 274.80206 Z"
       style="fill:#ffffff" />
    <path
       d="M 268.21401,223.03031 C 267.58743,224.12899 266.69529,225.6182 266.34816,226.22743 263.85226,230.60481 265.25816,234.31742 268.47263,236.14855 271.52221,237.8877 275.22094,237.54056 277.8366,232.94796 278.26531,232.19121 279.37614,230.13096 279.72154,229.52347 L 279.85519,229.29263 268.37196,222.75087 Z M 269.33699,226.7759 275.89785,230.51455 C 275.759,230.8721 275.55245,231.23312 275.3945,231.51256 274.17953,233.64397 272.17656,234.56735 270.06077,233.36106 267.87903,232.11832 267.47288,229.97302 268.76248,227.7097 268.9777,227.33306 269.10788,227.10221 269.33699,226.77591 Z"
       id="path66"
       style="fill:#ffffff" />
    <path
       id="polygon68"
       d="M 272.00125,242.32062 261.398,234.41982 256.6006,240.85571 258.87086,242.54799 261.86317,238.53511 263.78803,239.97051 261.247,243.37591 263.519,245.06993 266.06003,241.66106 267.92241,243.05134 265.04292,246.91495 267.31492,248.60724 Z"
       style="fill:#ffffff" />
    <path
       id="polygon70"
       d="M 260.55794,256.38827 263.06425,254.0642 251.21132,247.02603 249.09206,248.98908 252.8741,257.07039 245.07571,252.71211 242.95645,254.6769 249.21182,266.90126 251.34497,264.92433 247.33382,257.26132 254.87881,261.65084 257.10741,259.58365 253.24727,251.78005 Z"
       style="fill:#ffffff" />
    <path
       id="polygon72"
       d="M 246.4816,268.52759 239.00778,257.63449 232.39312,262.17154 233.99515,264.50603 238.11912,261.67688 239.47468,263.65381 235.97382,266.05772 237.57585,268.39047 241.07671,265.9883 242.39235,267.90275 238.42286,270.62602 240.02489,272.95877 Z"
       style="fill:#ffffff" />
    <path
       d="M 226.90318,265.16385 C 224.3743,266.51594 223.0899,268.68033 224.3986,271.1259 225.19875,272.62205 226.46926,273.03688 227.4881,272.89803 L 227.50546,272.93101 C 226.9431,273.96027 226.91186,275.02597 227.56274,276.23921 228.42537,277.85339 230.24436,278.5303 233.02318,277.04283 234.28849,276.36765 235.86622,275.43733 236.498,275.05548 L 230.30164,263.47331 C 229.58307,263.77358 228.01749,264.56679 226.90319,265.16386 Z M 227.13229,269.83455 C 226.71573,269.05176 226.98996,268.32798 228.02269,267.77604 228.52083,267.50701 228.76382,267.44279 228.97558,267.39419 L 230.14022,269.5742 229.10923,270.12615 C 228.24313,270.58784 227.52456,270.56701 227.13229,269.83456 Z M 231.38643,271.90348 232.51636,274.01753 C 232.23518,274.21193 232.05293,274.35252 231.72142,274.52782 231.07228,274.87496 230.2513,274.86628 229.87813,274.1668 229.42512,273.31805 229.82085,272.74007 230.50644,272.37558 Z"
       id="path74"
       style="fill:#ffffff" />
    <path
       d="M 211.27688,271.78545 C 209.58633,272.37905 208.1787,273.55584 207.72742,274.65626 L 209.56377,276.40929 C 210.18167,275.49285 211.05992,274.8628 211.95206,274.55038 214.19455,273.75891 216.27736,274.78643 217.05495,276.99421 217.91932,279.45019 216.81543,281.32125 214.8923,281.99816 213.71898,282.40952 212.89974,282.30017 212.0805,282.12834 L 211.56674,284.70929 C 212.5717,285.17619 214.1772,285.25082 215.83303,284.66763 220.12536,283.15586 221.34033,279.50573 220.08023,275.9285 218.71425,272.04753 215.14223,270.42467 211.27688,271.78544 Z"
       id="path76"
       style="fill:#ffffff" />
    <path
       d="M 200.22931,274.77776 C 196.2928,275.60741 193.93922,279.00066 194.76367,282.91808 195.63324,287.04031 199.11327,288.99121 203.05152,288.15982 207.17202,287.29198 209.3069,283.77377 208.51543,280.0195 207.64759,275.899 204.16756,273.94984 200.22931,274.77776 Z M 202.46659,285.38795 C 200.37857,285.82708 198.40337,284.62252 197.90697,282.25679 197.44702,280.07505 198.35477,278.0686 200.81423,277.55137 202.88489,277.11398 204.90522,278.46434 205.37385,280.68253 205.87199,283.04826 204.61015,284.93494 202.46659,285.38795 Z"
       id="path78"
       style="fill:#ffffff" />
    <path
       id="polygon80"
       d="M 188.62805,276.77726 189.08974,284.69194 182.37267,277.14522 179.96182,277.28408 180.73072,290.47348 183.55814,290.30859 183.09297,282.35919 189.81178,289.94236 192.22437,289.80177 191.45373,276.61411 Z"
       style="fill:#ffffff" />
    <path
       d="M 173.19094,279.4988 C 174.11432,279.55955 175.23557,280.07157 175.92637,281.08347 L 177.77834,279.14298 C 177.2316,277.68501 175.2269,276.79461 173.45477,276.67658 170.91027,276.50475 168.82572,277.95751 168.67298,280.25728 168.38659,284.55655 173.92687,284.3934 173.77934,286.58208 173.73942,287.18436 173.22392,287.52976 172.39253,287.47422 171.41534,287.40826 171.00225,287.0403 170.45552,286.45538 L 168.68339,288.60762 C 169.45403,289.55009 170.77314,290.20618 172.4689,290.32073 175.10713,290.4943 176.84801,288.83326 176.98513,286.79731 177.26978,282.53623 171.74686,282.41299 171.87877,280.43259 171.92043,279.81122 172.39774,279.44673 173.19094,279.4988 Z"
       id="path82"
       style="fill:#ffffff" />
    <path
       d="M 160.99261,275.03985 C 157.04742,274.264 153.5535,276.4631 152.77939,280.3892 151.96536,284.52011 154.40398,287.67383 158.35091,288.45142 162.48008,289.26719 165.82126,286.86501 166.56239,283.10554 167.37816,278.97463 164.93953,275.81744 160.99261,275.03985 Z M 163.41388,282.48416 C 162.94698,284.85509 161.04642,286.09784 158.89765,285.67433 156.80442,285.26124 155.46275,283.3815 155.92964,281.01057 156.36009,278.82362 157.98121,277.33441 160.44413,277.81866 162.52,278.22828 163.85126,280.26076 163.41387,282.48416 Z"
       id="path84"
       style="fill:#ffffff" />
    <path
       d="M 147.81189,276.59675 146.75833,276.23052 145.23961,270.80653 141.77867,269.60718 143.71048,275.79487 C 142.91554,275.89901 141.16077,276.35029 140.35542,278.66741 139.55701,280.97065 140.18359,283.08644 143.59072,284.26844 143.94827,284.39167 147.15406,285.46259 147.85007,285.70384 L 152.18232,273.21565 149.3254,272.22458 Z M 145.92347,282.03983 C 145.32813,281.85238 145.09035,281.78989 144.66337,281.64062 143.28698,281.16331 143.16027,280.38052 143.40153,279.68625 143.76602,278.63096 144.75709,278.53723 145.8471,278.91387 L 146.8833,279.27315 145.92347,282.03982 Z"
       id="path86"
       style="fill:#ffffff" />
    <path
       id="polygon88"
       d="M 128.12064,274.52262 126.90393,277.08274 136.79728,281.79336 138.01747,279.23498 134.43329,277.52881 138.90092,268.14401 136.17071,266.84398 131.70394,276.22879 Z"
       style="fill:#ffffff" />
    <path
       id="rect90"
       transform="rotate(-59.57622,126.51017,269.12728)"
       d="M 119.90111,267.61658 H 133.11919 V 270.63794 H 119.90111 Z"
       style="fill:#ffffff" />
    <path
       d="M 121.34977,257.53555 C 119.06736,255.85715 116.02472,255.65755 113.62775,258.91368 L 109.023,265.16385 111.45815,266.9568 115.70275,261.19088 C 116.95678,259.48818 118.19431,258.73316 119.66964,259.8197 121.37407,261.07459 120.94536,262.70613 119.72518,264.3637 L 115.57865,269.99423 118.0138,271.78545 122.53871,265.63942 C 124.83588,262.52041 124.08693,259.55414 121.34977,257.53555 Z"
       id="path92"
       style="fill:#ffffff" />
    <path
       id="polygon94"
       d="M 103.2484,259.98459 105.38849,262.1403 114.76635,252.83534 112.63841,250.69178 106.705,256.58093 107.74207,250.39325 107.43745,250.08603 101.18815,251.09967 107.16235,245.17407 105.03441,243.03051 95.66002,252.33547 97.66647,254.35753 104.32973,253.16859 Z"
       style="fill:#ffffff" />
    <path
       d="M 92.83348,237.367 C 91.30435,237.367 90.02082,238.64966 90.02082,240.19789 90.02082,241.72702 91.30435,243.03051 92.83348,243.03051 94.38084,243.03051 95.68346,241.72702 95.68346,240.19789 95.68346,238.64967 94.38084,237.367 92.83348,237.367 Z"
       id="path96"
       style="fill:#ffffff" />
    <path
       d="M 262.99765,117.06175 C 262.99765,118.59088 264.28118,119.89437 265.81031,119.89437 267.35767,119.89437 268.66029,118.59088 268.66029,117.06175 268.66029,115.51353 267.35767,114.23086 265.81031,114.23086 264.28118,114.23086 262.99765,115.51352 262.99765,117.06175 Z"
       id="path98"
       style="fill:#ffffff" />
  </g>
</svg>
