<?xml version="1.0" encoding="UTF-8" standalone="no"?>
<svg
   width="120.00002"
   height="120"
   version="1.1"
   viewBox="0 0 120.00002 120"
   id="svg12"
   xml:space="preserve"
   xmlns="http://www.w3.org/2000/svg"
   xmlns:svg="http://www.w3.org/2000/svg"><defs
     id="defs16" /><g
     aria-label="W3C"
     transform="matrix(0.63841689,0,0,0.63841689,-50.512825,-57.653538)"
     id="g8"><path
       d="M 148.62207,277.35891 H 139.07764 L 125.05176,235.36477 111.27539,277.35891 H 101.64795 L 84.30274,219.26418 H 95.75586 L 107.45752,260.67727 120.4043,219.26418 H 130.5293 L 143.80811,260.76027 155.42725,219.26418 H 165.22022 L 148.62208,277.35891 Z"
       style="fill:#000000"
       id="path2" /><path
       d="M 167.45996,268.47902 172.85449,261.50734 C 175.75928,265.82277 180.24121,268.72804 185.30371,268.72804 191.52832,268.72804 194.68164,265.0757 194.68164,260.67726 194.68164,255.36574 190.61523,252.46144 183.89258,252.46144 H 179.74317 V 242.91652 H 183.47755 C 188.20802,242.91652 192.44044,239.92922 192.44044,234.94972 192.44044,230.80031 190.03419,227.89503 185.0547,227.89503 180.40675,227.89503 177.00441,229.88722 174.09962,234.11964 L 168.7881,227.39698 C 171.94191,221.50538 178.00001,218.35108 185.96779,218.35108 195.92677,218.35108 202.64943,223.99463 202.64943,233.12354 202.64943,239.68018 199.66115,244.32764 193.76857,246.90088 V 247.1499 C 200.98927,248.39404 204.88966,254.1206 204.88966,261.00928 204.88966,271.71533 196.59083,278.27198 185.88478,278.27198 177.00441,278.27198 170.53078,274.37159 167.45998,268.47901 Z"
       style="fill:#000000"
       id="path4" /><path
       d="M 261.90625,271.71535 C 258.25488,275.61574 250.86816,278.27199 243.31641,278.27199 225.55567,278.27199 213.35547,266.40383 213.35547,248.31105 213.35547,231.63039 223.89551,218.35109 243.06738,218.35109 250.61914,218.35109 256.92676,220.75832 260.74414,224.24367 L 256.17969,231.7964 C 252.69434,229.47218 248.87696,227.89503 243.06739,227.89503 232.27833,227.89503 224.14454,235.69679 224.14454,248.31105 224.14454,260.42824 232.36134,268.72804 244.22852,268.72804 249.12598,268.72804 254.02247,267.15089 258.00586,264.08058 Z"
       style="fill:#000000"
       id="path6" /></g><path
     style="opacity:1;fill:none;stroke:#000000;stroke-width:10.6665;stroke-linecap:round;stroke-dasharray:none;stroke-opacity:1"
     d="M 70.382491,57.352242 70.418974,57.392327 C 73.304828,60.459437 77.694558,61.798784 81.002236,61.798784 87.045879,61.798784 91.753198,57.306653 91.753198,57.306653 M 50.251508,15.838242 C 50.251508,15.838242 54.863633,11.353397 60.82384,11.353397 64.540657,11.353397 68.665286,12.536072 71.481852,15.719731 L 90.4916,37.208706 C 93.162657,40.227917 97.750068,41.620627 101.18063,41.620627 111.59937,41.620627 114.66677,37.559125 114.66677,32.54884 114.66677,27.538582 110.60519,23.477057 105.59487,23.477057 M 70.382491,57.352242 31.236298,15.750717 C 29.414234,13.814291 25.828714,11.353397 20.46706,11.353397 12.478742,11.353397 5.3426052,17.796902 5.3332586,26.487028 5.3285999,30.817578 6.707736,34.029 9.9220697,37.245189 L 30.065832,57.399648 C 33.280165,60.615789 36.567178,61.810165 40.645454,61.798784 46.643577,61.782016 48.662476,60.165125 51.345406,57.394146 M 99.179337,7.9903437 C 100.79431,6.3223809 103.08907,5.3332501 105.5942,5.3332501 110.60457,5.3332501 114.66621,9.3948825 114.66621,14.405133 114.66621,19.41007 110.59903,23.477057 105.5942,23.477057"
     id="path2-5" /></svg>
