<?xml version="1.0" encoding="UTF-8" standalone="no"?>
<svg
   width="90.000008"
   height="50.349068"
   version="1.1"
   viewBox="0 0 90.000008 50.349068"
   id="svg4"
   xml:space="preserve"
   xmlns="http://www.w3.org/2000/svg"
   xmlns:svg="http://www.w3.org/2000/svg"><defs
     id="defs8" /><path
     style="opacity:1;fill:none;stroke:#000203;stroke-width:7.99988;stroke-linecap:round;stroke-dasharray:none;stroke-opacity:1"
     d="M 52.786868,43.014179 52.81423,43.044242 C 54.978618,45.344575 58.270916,46.349084 60.751676,46.349084 65.284407,46.349084 68.814895,42.979988 68.814895,42.979988 M 37.688631,11.878684 C 37.688631,11.878684 41.147726,8.5150509 45.617879,8.5150509 48.405491,8.5150509 51.498964,9.4020556 53.611388,11.7898 L 67.868697,27.906529 C 69.87199,30.170937 73.312547,31.21547 75.885467,31.21547 83.699522,31.21547 86.000064,28.169342 86.000064,24.411628 86.000064,20.653937 82.953887,17.607794 79.196147,17.607794 M 52.786868,43.014179 23.427226,11.813038 C 22.060677,10.360718 19.371535,8.5150509 15.350297,8.5150509 9.3590596,8.5150509 4.0069574,13.347677 3.9999463,19.86527 3.9964533,23.113183 5.0308049,25.52175 7.441553,27.933891 L 22.549375,43.049733 C 24.960124,45.46184 27.425386,46.35762 30.484091,46.349084 34.982684,46.336508 36.496859,45.123841 38.509055,43.045607 M 74.3845,5.9927591 C 75.595734,4.7417884 77.316797,3.9999399 79.195644,3.9999399 82.953414,3.9999399 85.999644,7.0461623 85.999644,10.803853 85.999644,14.557553 82.949259,17.607794 79.195644,17.607794"
     id="path2" /></svg>
