<?xml version="1.0" encoding="UTF-8" standalone="no"?>
<svg
   width="120"
   height="67.13208"
   version="1.1"
   viewBox="0 0 120 67.13208"
   id="svg4"
   xmlns="http://www.w3.org/2000/svg"
   xmlns:svg="http://www.w3.org/2000/svg">
  <defs
     id="defs8" />
  <path
     style="fill:none;stroke:#005a9c;stroke-width:10.6665;stroke-linecap:round"
     d="m 70.382485,57.352233 0.03648,0.04008 c 2.885851,3.067111 7.275581,4.406456 10.583261,4.406456 6.043641,0 10.750958,-4.492128 10.750958,-4.492128 M 50.251503,15.838242 c 0,0 4.612126,-4.484844 10.57233,-4.484844 3.716816,0 7.841446,1.182673 10.658012,4.366332 l 19.009744,21.488971 c 2.671057,3.01921 7.258466,4.411921 10.689031,4.411921 10.41874,0 13.48613,-4.061504 13.48613,-9.071789 0,-5.010255 -4.06157,-9.071778 -9.07189,-9.071778 M 70.382485,57.352233 31.236297,15.750714 c -1.822065,-1.936427 -5.407588,-4.397316 -10.769238,-4.397316 -7.988316,0 -15.1244523,6.443501 -15.1338004,15.133625 -0.00466,4.33055 1.3744781,7.541973 4.5888087,10.75816 L 30.065829,57.399638 c 3.214332,3.216143 6.501348,4.410516 10.579621,4.399135 5.998124,-0.01677 8.017024,-1.633657 10.699951,-4.404636 M 99.179326,7.9903421 C 100.79431,6.3223813 103.08906,5.33325 105.59419,5.33325 c 5.01036,0 9.072,4.0616297 9.072,9.071884 0,5.004933 -4.06718,9.071921 -9.072,9.071921"
     id="path2" />
</svg>
