<?xml version="1.0" encoding="UTF-8" standalone="no"?>
<svg
   width="120"
   height="120"
   version="1.1"
   viewBox="0 0 120 120"
   id="svg98"
   xml:space="preserve"
   xmlns="http://www.w3.org/2000/svg"
   xmlns:svg="http://www.w3.org/2000/svg"><defs
     id="defs102" /><path
     style="display:inline;opacity:1;fill:none;stroke:#000000;stroke-width:7.10675;stroke-linecap:round;stroke-dasharray:none;stroke-opacity:1"
     d="M 65.817638,75.847996 65.841948,75.874702 C 67.7647,77.918223 70.689441,78.810585 72.893244,78.810585 76.919929,78.810585 80.056268,75.81762 80.056268,75.81762 M 52.405001,48.188523 C 52.405001,48.188523 55.477915,45.200408 59.449014,45.200408 61.925409,45.200408 64.673521,45.98839 66.55011,48.10956 L 79.215705,62.42699 C 80.995351,64.438595 84.051793,65.366516 86.337465,65.366516 93.279151,65.366516 95.322855,62.660462 95.322855,59.322265 95.322855,55.984089 92.616756,53.278022 89.278538,53.278022 M 65.817638,75.847996 39.735763,48.130203 C 38.521779,46.840024 36.132859,45.200408 32.560555,45.200408 27.238192,45.200408 22.483608,49.493515 22.477381,55.28347 22.474277,58.168779 23.393152,60.308451 25.53476,62.451297 L 38.955915,75.87958 C 41.097526,78.022393 43.287563,78.818167 46.004787,78.810585 50.00115,78.799415 51.34628,77.722129 53.13383,75.875916 M 85.004076,42.959712 C 86.080081,41.8484 87.609001,41.189376 89.278095,41.189376 92.61634,41.189376 95.322479,43.89551 95.322479,47.233688 95.322479,50.568318 92.612652,53.278022 89.278095,53.278022"
     id="path2-7" /><circle
     style="fill:none;stroke:none;stroke-width:1;stroke-dasharray:none;stroke-opacity:1"
     id="path27992"
     cx="14.737394"
     cy="83.55806"
     r="52.5"
     transform="rotate(-35)" /><g
     aria-label="· WORLD WIDE WEB CONSORTIUM · WORLD WIDE WEB CONSORTIUM"
     id="text30701"
     style="font-weight:bold;font-size:11.2px;line-height:125%;font-family:Carlito;-inkscape-font-specification:'Carlito Bold';text-align:center;letter-spacing:0px;word-spacing:0px;text-anchor:middle"><path
       d="M 106.96243,30.138399 Q 107.14911,30.024363 107.35054,29.997436 107.55665,29.967658 107.74459,30.013058 107.94005,30.060274 108.10984,30.180851 108.27962,30.301428 108.39081,30.483436 108.50484,30.670111 108.53462,30.876215 108.5644,31.082319 108.51718,31.27778 108.47463,31.470391 108.35405,31.640175 108.23814,31.807108 108.05147,31.921144 107.86946,32.032328 107.66336,32.062106 107.46192,32.089033 107.26646,32.041817 107.07566,31.99175 106.90588,31.871173 106.74076,31.747745 106.62673,31.56107 106.51554,31.379062 106.4811,31.175809 106.45132,30.969706 106.49387,30.777095 106.54394,30.5863 106.65985,30.419367 106.78042,30.249583 106.96243,30.138399 Z"
       id="path523" /><path
       d="M 113.78957,33.465471 114.23148,34.584499 Q 114.30178,34.762527 114.26459,34.906568 114.22941,35.055697 114.11323,35.148615 L 110.60559,37.686231 Q 110.33455,37.893222 109.96285,38.128206 110.17729,38.090559 110.37139,38.060947 110.57057,38.029326 110.74526,38.025017 L 115.10753,37.666428 Q 115.24059,37.66092 115.37326,37.743762 115.51101,37.824595 115.57529,37.987362 L 115.72996,38.379022 Q 115.80026,38.557049 115.76106,38.696005 115.72896,38.838038 115.6097,38.938051 L 112.17438,41.658781 Q 112.04696,41.767898 111.885,41.878894 111.73013,41.992967 111.55292,42.10999 111.76027,42.069265 111.94727,42.036575 112.13628,42.008971 112.29985,41.991411 L 116.59998,41.445691 Q 116.73103,41.435097 116.8637,41.517939 117.00347,41.603858 117.06775,41.766626 L 117.48154,42.814443 109.93525,43.477903 109.45718,42.267318 113.42027,39.155899 Q 113.49469,39.091232 113.58945,39.018531 113.68623,38.950916 113.79317,38.879284 113.66614,38.900051 113.54727,38.911715 113.4284,38.923378 113.33189,38.932093 L 108.30219,39.342585 107.82613,38.137087 Z"
       id="path525" /><path
       d="M 115.66787,51.861401 Q 114.88655,52.025843 114.1658,51.920463 113.4504,51.813956 112.86768,51.461572 112.28608,51.11454 111.87912,50.535153 111.47216,49.955765 111.30885,49.179796 111.14553,48.403827 111.28443,47.709556 111.42332,47.015285 111.81458,46.457912 112.20583,45.900539 112.81648,45.509355 113.4336,45.122397 114.21492,44.957955 114.99089,44.79464 115.70629,44.901146 116.42817,45.011878 117.00554,45.365388 117.58826,45.717772 117.99522,46.297159 118.40753,46.875421 118.57085,47.651389 118.73416,48.427358 118.58991,49.122756 118.45102,49.817027 118.05864,50.369049 117.66739,50.926421 117.05561,51.312254 116.44384,51.698086 115.66787,51.861401 Z M 115.36602,50.427197 Q 115.93328,50.307808 116.35352,50.074058 116.77376,49.840309 117.03431,49.511632 117.29599,49.188307 117.38304,48.778786 117.47657,48.37349 117.37746,47.902557 117.27834,47.431625 117.02825,47.093061 116.78351,46.753371 116.41259,46.5576 116.04278,46.36718 115.56397,46.322651 115.08516,46.278122 114.5179,46.397511 113.94529,46.518026 113.5197,46.752902 113.09945,46.986652 112.83778,47.309977 112.58258,47.637527 112.49553,48.047048 112.40847,48.456569 112.50759,48.927502 112.6067,49.398435 112.85031,49.732773 113.09505,50.072463 113.4595,50.264009 113.83043,50.459781 114.30924,50.50431 114.79341,50.547712 115.36602,50.427197 Z"
       id="path527" /><path
       d="M 115.06407,54.752397 112.27735,54.96122 112.16946,53.521507 119.41166,52.978812 119.57512,55.160196 Q 119.62947,55.885506 119.51014,56.415436 119.39627,56.944957 119.14266,57.293006 118.88946,57.646508 118.51371,57.82822 118.13796,58.009931 117.67441,58.044667 117.31994,58.07123 116.99083,57.997178 116.66717,57.922718 116.38565,57.751871 116.10999,57.586069 115.88233,57.328925 115.66011,57.071372 115.50812,56.726296 115.44199,56.868354 115.34191,56.996503 115.24729,57.124243 115.10235,57.239302 L 112.58425,59.056769 112.4874,57.764299 Q 112.46165,57.420731 112.73679,57.213654 L 114.89563,55.724733 Q 115.02038,55.633124 115.06715,55.525421 115.11433,55.423173 115.10044,55.237755 Z M 116.08386,54.675978 116.13862,55.406742 Q 116.16478,55.755764 116.27629,55.999676 116.3882,56.249041 116.56406,56.400385 116.73993,56.551729 116.96924,56.611323 117.20442,56.675961 117.47164,56.655937 118.00062,56.616297 118.25968,56.26784 118.5242,55.918973 118.47352,55.242744 L 118.41795,54.501074 Z"
       id="path529" /><path
       d="M 113.6705,61.235492 113.59438,63.755436 112.41367,63.71977 112.53322,59.7622 119.79241,59.98148 119.74898,61.419105 Z"
       id="path531" /><path
       d="M 115.10958,71.166589 Q 114.31918,71.053616 113.68888,70.709409 113.064,70.365975 112.65336,69.837714 112.24195,69.314868 112.06876,68.632718 111.89557,67.950568 112.00777,67.165578 L 112.38228,64.545332 119.57172,65.572924 119.1972,68.193169 Q 119.085,68.97816 118.72765,69.584478 118.3703,70.190797 117.82889,70.577456 117.28671,70.96953 116.59064,71.12416 115.89457,71.278789 115.10958,71.166589 Z M 115.31618,69.721123 Q 115.89004,69.803145 116.36491,69.727386 116.83978,69.651628 117.19711,69.432008 117.55366,69.217803 117.77565,68.862829 118.00305,68.508629 118.07115,68.032221 L 118.24138,66.8412 113.30947,66.136279 113.13924,67.327299 Q 113.07115,67.803708 113.18481,68.206656 113.29847,68.609605 113.58073,68.915117 113.86223,69.226044 114.29686,69.431799 114.73691,69.638328 115.31618,69.721123 Z"
       id="path533" /><path
       d="M 117.80229,75.985396 117.38626,77.114303 Q 117.32008,77.293902 117.19637,77.376536 117.07078,77.464301 116.92223,77.456186 L 112.61581,77.011514 Q 112.27578,76.985286 111.84203,76.912865 112.02703,77.027666 112.1915,77.134904 112.3611,77.244032 112.49424,77.357208 L 115.98617,79.996226 Q 116.08906,80.080771 116.1328,80.230941 116.18167,80.383001 116.12116,80.547206 L 115.97555,80.942323 Q 115.90936,81.121922 115.78755,81.199425 115.66898,81.28395 115.51341,81.279074 L 111.13891,81.019133 Q 110.97119,81.015607 110.77646,80.990472 110.58497,80.972359 110.37485,80.941551 110.55661,81.04933 110.71784,81.149545 110.87718,81.254891 111.01086,81.350783 L 114.58113,83.808852 Q 114.68591,83.888265 114.72965,84.038435 114.77663,84.195627 114.71612,84.359832 L 114.32657,85.416899 108.25714,80.883833 108.70721,79.662561 113.73557,79.98279 Q 113.83415,79.984149 113.95326,79.993073 114.07047,80.007127 114.19795,80.024964 114.08938,79.955813 113.99297,79.885313 113.89656,79.814813 113.81878,79.757009 L 109.79456,76.71201 110.24273,75.495869 Z"
       id="path535" /><path
       d="M 106.26821,84.835901 106.93254,83.554073 113.38052,86.895847 112.71619,88.177674 Z"
       id="path537" /><path
       d="M 105.35364,93.260517 Q 104.6833,92.826755 104.25523,92.250124 103.83175,91.676463 103.68024,91.024752 103.52576,90.377633 103.65433,89.685684 103.7829,88.993734 104.21369,88.327988 L 105.65164,86.105771 111.74896,90.05122 110.31101,92.273437 Q 109.88022,92.939184 109.3017,93.339977 108.72318,93.740771 108.06958,93.865 107.41301,93.99382 106.7162,93.842564 106.01939,93.691308 105.35364,93.260517 Z M 106.14689,92.034625 Q 106.63357,92.349548 107.09649,92.479734 107.55941,92.60992 107.97588,92.560231 108.38937,92.515133 108.73967,92.285838 109.09457,92.059514 109.35601,91.655475 L 110.00962,90.645376 105.8269,87.938822 105.17328,88.948921 Q 104.91184,89.35296 104.8462,89.766455 104.78057,90.17995 104.90885,90.575623 105.03416,90.975886 105.34259,91.344823 105.65561,91.716731 106.14689,92.034625 Z"
       id="path539" /><path
       d="M 104.45027,100.02581 103.57202,99.294337 105.48297,96.999969 104.00802,95.771506 102.52056,97.557415 101.67593,96.853936 103.16339,95.068028 101.65902,93.815065 99.744578,96.113635 98.869831,95.377955 101.70475,91.974223 107.28519,96.622083 Z"
       id="path541" /><path
       d="M 101.48543,103.31071 100.54933,104.06652 Q 100.40041,104.18676 100.25183,104.19426 100.099,104.2052 99.97564,104.12206 L 96.50665,101.53186 Q 96.228186,101.33497 95.892959,101.05036 95.992903,101.24378 96.079105,101.42019 96.168743,101.60085 96.225003,101.76629 L 97.869437,105.82262 Q 97.914414,105.94797 97.874953,106.09932 97.838928,106.25493 97.702769,106.36486 L 97.375138,106.62939 Q 97.226214,106.74964 97.081892,106.7537 96.936751,106.76546 96.805698,106.68149 L 93.183529,104.21498 Q 93.041351,104.12594 92.887069,104.0045 92.731968,103.89075 92.56738,103.75654 92.668143,103.94228 92.755165,104.111 92.837932,104.28315 92.903522,104.43403 L 94.708005,108.37519 Q 94.757236,108.4971 94.717776,108.64845 94.677496,108.80749 94.541337,108.91743 L 93.664816,109.62514 90.778941,102.62098 91.791621,101.80333 95.94421,104.65692 Q 96.028143,104.70864 96.125818,104.77738 96.219238,104.84956 96.319529,104.93025 96.261787,104.81521 96.215172,104.70524 96.168556,104.59527 96.131428,104.50576 L 94.23822,99.827924 95.246645,99.013713 Z"
       id="path543" /><path
       d="M 88.267468,112.70538 87.687357,111.72057 90.260112,110.20506 89.285858,108.55115 87.283256,109.7308 86.72535,108.78369 88.727952,107.60404 87.734269,105.91714 85.156803,107.43542 84.581404,106.44784 88.398127,104.19956 92.084192,110.4571 Z"
       id="path545" /><path
       d="M 83.658277,106.93445 86.623415,113.56407 84.37194,114.57105 Q 83.732941,114.85685 83.222832,114.93523 82.712724,115.01361 82.325461,114.91124 81.933207,114.8111 81.656046,114.53967 81.376126,114.27546 81.195271,113.87109 81.092562,113.64145 81.061451,113.39776 81.03034,113.15407 81.082516,112.90908 81.134692,112.66408 81.280139,112.41331 81.422827,112.16977 81.670478,111.9332 80.249054,112.19751 79.733281,111.04432 79.543494,110.61998 79.537491,110.19133 79.531488,109.76267 79.712682,109.36412 79.891116,108.97279 80.263444,108.62654 80.633013,108.28752 81.19713,108.03521 Z M 83.633649,110.40216 82.800821,108.54008 81.677579,109.04245 Q 81.363072,109.18312 81.189124,109.35677 81.015177,109.53042 80.95565,109.7188 80.891131,109.90941 80.919356,110.10646 80.949815,110.30851 81.034661,110.49821 81.126205,110.70289 81.259793,110.84084 81.388389,110.98102 81.56954,111.03779 81.745698,111.09679 81.982163,111.06292 82.215869,111.03627 82.5154,110.9023 Z M 84.037783,111.30575 83.174136,111.69202 Q 82.620003,111.93986 82.414249,112.2835 82.210728,112.63213 82.429541,113.12136 82.657285,113.63056 83.008423,113.71914 83.361793,113.8127 83.920918,113.56263 L 84.859448,113.14287 Z"
       id="path547" /><path
       d="M 71.683824,113.03833 Q 71.572716,113.06738 71.471218,113.00348 L 70.759356,112.55086 Q 71.000581,111.91688 71.503971,111.48567 72.00207,111.05585 72.790413,110.84973 73.504684,110.66298 74.145268,110.77812 74.787236,110.89856 75.313845,111.2696 75.836548,111.64732 76.22501,112.24668 76.609565,112.8527 76.814301,113.63576 77.020421,114.4241 76.964448,115.13966 76.904568,115.86188 76.611089,116.44735 76.31761,117.03282 75.804779,117.44953 75.291949,117.86624 74.593551,118.04884 73.884571,118.23421 73.273208,118.12274 72.663228,118.01655 72.190255,117.69931 L 72.485701,116.9268 Q 72.518102,116.85615 72.569143,116.79193 72.614893,116.72909 72.726001,116.70004 72.83711,116.67099 72.965062,116.72798 73.087722,116.78635 73.267442,116.84676 73.441871,116.90855 73.691513,116.93372 73.941155,116.95889 74.295645,116.86621 74.68188,116.76522 74.95645,116.51821 75.232403,116.27648 75.378293,115.90483 75.525567,115.53847 75.534964,115.05555 75.540453,114.5793 75.391051,114.00788 75.240265,113.43117 74.985117,113.01741 74.729969,112.60365 74.415552,112.35236 74.097227,112.10774 73.736889,112.02672 73.377935,111.951 73.012863,112.04645 72.795937,112.10316 72.626871,112.16998 72.459188,112.24208 72.32626,112.33902 72.189424,112.44263 72.082052,112.57245 71.97468,112.70227 71.879758,112.8797 71.837916,112.93586 71.791924,112.97615 71.742024,113.02311 71.683824,113.03833 Z"
       id="path549" /><path
       d="M 63.665581,116.1297 Q 63.564248,115.33772 63.727019,114.62773 63.890483,113.92316 64.288408,113.37053 64.680909,112.8186 65.291031,112.45935 65.901152,112.10011 66.687709,111.99947 67.474265,111.89883 68.155181,112.09289 68.836097,112.28695 69.360342,112.72158 69.884587,113.15622 70.225603,113.79624 70.561889,114.44238 70.663222,115.23436 70.763861,116.02092 70.600397,116.72549 70.432202,117.43617 70.033583,117.98338 69.635657,118.536 69.025536,118.89525 68.416108,119.25992 67.629552,119.36056 66.842995,119.46119 66.161385,119.26171 65.480469,119.06765 64.961649,118.63232 64.437405,118.19769 64.101812,117.55697 63.76622,116.91626 63.665581,116.1297 Z M 65.119355,115.94369 Q 65.192925,116.51869 65.392264,116.95631 65.591603,117.39392 65.898355,117.67996 66.199682,117.96669 66.600915,118.08627 66.997417,118.21196 67.474776,118.15089 67.952134,118.08981 68.309641,117.86764 68.667842,117.65089 68.892694,117.29684 69.112122,116.94348 69.194858,116.46977 69.277595,115.99606 69.204024,115.42106 69.12976,114.84064 68.929727,114.3976 68.730388,113.95999 68.429061,113.67325 68.123003,113.39264 67.72177,113.27306 67.320537,113.15349 66.843179,113.21457 66.36582,113.27564 66.013044,113.49169 65.654843,113.70844 65.434721,114.05638 65.209869,114.41043 65.127133,114.88414 65.04509,115.36327 65.119355,115.94369 Z"
       id="path551" /><path
       d="M 61.40455,119.78812 Q 61.311592,119.78672 61.24614,119.77479 61.180605,119.76833 61.131805,119.74024 61.077454,119.71755 61.03437,119.67314 60.985818,119.62865 60.926743,119.55666 L 57.42182,114.78909 Q 57.449175,115.15048 57.444299,115.4731 L 57.38001,119.7273 56.116873,119.70821 56.226611,112.44654 56.964808,112.4577 Q 57.13432,112.46026 57.248324,112.51668 57.356778,112.57848 57.464157,112.71137 L 60.958557,117.45143 Q 60.930872,117.11191 60.935252,116.8221 L 61.000285,112.51868 62.26889,112.53785 62.159151,119.79952 61.40455,119.78812 Z"
       id="path553" /><path
       d="M 50.312988,117.60945 Q 50.381922,117.50845 50.464421,117.47 50.540763,117.43623 50.64914,117.45098 50.752098,117.46499 50.86099,117.55707 50.969883,117.64915 51.120652,117.75797 51.265264,117.87147 51.466277,117.97609 51.667289,118.08071 51.94365,118.11831 52.431344,118.18466 52.713049,117.98015 52.989336,117.77489 53.041681,117.39016 53.074857,117.14631 52.966923,116.96605 52.852833,116.79047 52.6523,116.64177 52.44561,116.49775 52.181783,116.36803 51.912538,116.23757 51.634666,116.08938 51.356057,115.94661 51.099603,115.7627 50.836993,115.58348 50.64973,115.33723 50.457048,115.09025 50.369757,114.75827 50.277048,114.42554 50.33824,113.97578 50.404593,113.48809 50.625401,113.08212 50.84079,112.67541 51.193161,112.39772 51.544795,112.12545 52.019625,112.00241 52.489035,111.87862 53.063431,111.95677 53.38856,112.001 53.704105,112.11568 54.014969,112.22421 54.296048,112.38939 54.577126,112.55457 54.819057,112.7641 55.060987,112.97363 55.231993,113.21766 L 54.717168,113.83751 Q 54.657339,113.91215 54.569422,113.94987 54.476085,113.98684 54.378546,113.97357 54.248495,113.95587 54.127032,113.83449 53.999413,113.71778 53.83213,113.56808 53.664109,113.4238 53.43427,113.28766 53.203693,113.15695 52.867726,113.11124 52.380032,113.04488 52.075177,113.25729 51.770321,113.46969 51.703968,113.95739 51.666368,114.23375 51.778247,114.42558 51.884706,114.61668 52.085977,114.75996 52.286511,114.90867 52.557231,115.02829 52.821795,115.15259 53.101141,115.28994 53.375068,115.42655 53.638416,115.60036 53.895607,115.77885 54.081395,116.03593 54.267184,116.29301 54.356944,116.64741 54.441286,117.00107 54.373459,117.4996 54.319639,117.89518 54.117041,118.24843 53.913706,118.60711 53.581278,118.85991 53.248849,119.11272 52.802589,119.22861 52.350172,119.34919 51.802871,119.27473 51.185124,119.19068 50.686777,118.91867 50.18301,118.64592 49.858507,118.23199 Z"
       id="path555" /><path
       d="M 42.288457,113.38312 Q 42.491451,112.61092 42.908543,112.01374 43.324245,111.42185 43.900338,111.05873 44.471142,110.69422 45.171448,110.58993 45.871754,110.48564 46.638667,110.68724 47.40558,110.88885 47.964069,111.32404 48.522558,111.75924 48.845605,112.35872 49.168651,112.95821 49.244832,113.6794 49.314333,114.40449 49.111339,115.17669 48.909736,115.9436 48.494034,116.53549 48.071653,117.13127 47.496951,117.48911 46.920858,117.85223 46.220551,117.95652 45.518855,118.0661 44.751942,117.86449 43.985029,117.66289 43.42793,117.2224 42.869441,116.78721 42.551684,116.18911 42.228637,115.58963 42.157746,114.86983 42.086854,114.15003 42.288457,113.38312 Z M 43.705924,113.75574 Q 43.558546,114.31638 43.57927,114.79681 43.599995,115.27724 43.777127,115.65742 43.94897,116.03621 44.276103,116.2975 44.596556,116.56268 45.061993,116.68503 45.52743,116.80738 45.942156,116.73546 46.355491,116.66883 46.696686,116.4249 47.032592,116.17958 47.286898,115.77145 47.541205,115.36332 47.688583,114.80268 47.837352,114.23675 47.818018,113.75103 47.797293,113.2706 47.62545,112.89181 47.446928,112.51692 47.119795,112.25563 46.792662,111.99434 46.327226,111.87199 45.861789,111.74964 45.453742,111.81767 45.040407,111.8843 44.705891,112.12433 44.364696,112.36825 44.11039,112.77639 43.854693,113.18981 43.705924,113.75574 Z"
       id="path557" /><path
       d="M 39.978631,111.55236 41.035282,108.96529 42.371846,109.51119 39.625795,116.23452 37.600697,115.4074 Q 36.927352,115.13238 36.506358,114.78912 36.083296,114.45092 35.884989,114.06865 35.68162,113.68431 35.686678,113.26696 35.691735,112.8496 35.867499,112.41927 36.001907,112.09019 36.215037,111.82871 36.426099,111.57229 36.704618,111.39659 36.976006,111.22389 37.30772,111.13489 37.637366,111.05096 38.014004,111.06893 37.916385,110.94635 37.846361,110.7996 37.774269,110.65792 37.735975,110.47688 L 37.23316,107.41237 38.43303,107.90244 Q 38.751983,108.03271 38.814523,108.37134 L 39.183634,110.96773 Q 39.209948,111.12025 39.285462,111.21017 39.355913,111.29801 39.528047,111.36832 Z M 39.59195,112.49909 38.913543,112.222 Q 38.589527,112.08966 38.321488,112.08061 38.048386,112.06949 37.834469,112.15934 37.620553,112.24919 37.464894,112.42781 37.302105,112.60943 37.200782,112.8575 37.000205,113.34859 37.196443,113.73592 37.390614,114.12831 38.018395,114.38472 L 38.706928,114.66594 Z"
       id="path559" /><path
       d="M 28.974315,111.1579 29.53512,110.13071 31.253511,111.06888 34.172842,105.72171 35.430435,106.4083 32.511105,111.75547 34.229496,112.69364 33.668691,113.72084 Z"
       id="path561" /><path
       d="M 30.54195,103.47408 31.748472,104.26699 27.759856,110.33616 26.553334,109.54325 Z"
       id="path563" /><path
       d="M 26.257635,101.73457 Q 25.960026,101.49379 25.651329,101.40583 25.33838,101.31444 25.036606,101.36573 24.730579,101.41359 24.439167,101.59989 24.147754,101.78619 23.893217,102.10081 L 21.168983,105.46804 20.055074,104.56684 22.779309,101.19961 Q 23.192071,100.68942 23.705291,100.39416 24.214259,100.09546 24.774908,100.0285 25.332118,99.965798 25.911056,100.14577 26.489994,100.32575 27.038445,100.76947 27.586896,101.21319 27.888031,101.74523 28.184914,102.27383 28.239929,102.83185 28.291505,103.39412 28.109907,103.95768 27.924057,104.5178 27.511294,105.02798 L 24.78706,108.39522 23.6689,107.49058 26.393134,104.12334 Q 26.647671,103.80873 26.769022,103.48484 26.890372,103.16095 26.877531,102.85512 26.860439,102.54585 26.709967,102.26232 26.555244,101.97535 26.257635,101.73457 Z"
       id="path565" /><path
       d="M 18.701665,97.231616 Q 18.835461,96.863685 19.022401,96.514348 18.828511,96.584383 18.642793,96.647147 18.452989,96.713547 18.264535,96.756784 L 13.844251,97.695872 Q 13.753885,97.717716 13.692118,97.714113 13.62263,97.71006 13.574021,97.680109 13.521326,97.653794 13.469982,97.604316 13.418638,97.554839 13.356839,97.485383 L 12.637061,96.676432 18.062756,91.84883 18.902497,92.792606 15.507352,95.813493 Q 15.397041,95.911644 15.266751,96.020251 15.128741,96.128408 14.98301,96.236114 L 19.537702,95.250636 Q 19.88736,95.166446 20.105475,95.411583 L 20.239979,95.56275 Q 20.461728,95.811973 20.337455,96.149471 L 18.830931,100.59366 Q 18.955301,100.45372 19.082855,100.32559 19.206324,100.20109 19.320722,100.0993 L 22.715866,97.078415 23.559243,98.026277 18.133548,102.85388 17.410135,102.04084 Q 17.348336,101.97139 17.308798,101.91872 17.265626,101.86198 17.245616,101.80658 17.221971,101.7471 17.225574,101.68533 17.225541,101.61948 17.257744,101.53226 L 18.701665,97.231616 Z"
       id="path567" /><path
       d="M 13.359976,90.35229 Q 13.174527,90.468308 12.973388,90.497379 12.767613,90.52935 12.579196,90.485955 12.383243,90.440824 12.212184,90.322062 12.041125,90.2033 11.928009,90.022487 11.811991,89.837037 11.78002,89.631262 11.748048,89.425488 11.793179,89.229534 11.833674,89.036481 11.952436,88.865422 12.066562,88.697264 12.252011,88.581247 12.432825,88.46813 12.638599,88.436158 12.839738,88.407087 13.035692,88.452218 13.227009,88.50025 13.398068,88.619012 13.56449,88.740674 13.680507,88.926124 13.793624,89.106937 13.830232,89.309811 13.862203,89.515586 13.821709,89.708639 13.773677,89.899957 13.659552,90.068115 13.54079,90.239174 13.359976,90.35229 Z"
       id="path569" /><path
       d="M 6.4981602,87.099457 6.044161,85.985278 Q 5.9719339,85.808023 6.0075652,85.663587 6.0411328,85.514086 6.1562994,85.419916 L 9.63626,82.844478 Q 9.9050453,82.634564 10.274182,82.395571 10.06016,82.435537 9.8663949,82.467248 9.6675657,82.501024 9.4929322,82.507224 L 5.1348013,82.913014 Q 5.0018099,82.919962 4.8682508,82.838561 4.7296271,82.759224 4.6635909,82.597162 L 4.5046912,82.207199 Q 4.432464,82.029944 4.470159,81.890572 4.5007258,81.7482 4.6188932,81.646902 L 8.0245631,78.889143 Q 8.1507958,78.778653 8.3115424,78.665911 8.465161,78.550167 8.641101,78.431233 8.4342065,78.4742 8.2475698,78.508913 8.0588695,78.538561 7.8954914,78.55789 L 3.6015224,79.150128 Q 3.4705946,79.16214 3.3370355,79.08074 3.1963482,78.996338 3.1303119,78.834276 L 2.7052037,77.791 10.243863,77.045889 10.735008,78.251228 6.8058347,81.405365 Q 6.7321208,81.470834 6.6381492,81.544557 6.5421139,81.613215 6.4359497,81.686001 6.5627502,81.66386 6.6814855,81.65091 6.8002207,81.63796 6.8966345,81.628201 L 11.921597,81.163286 12.410678,82.36356 Z"
       id="path571" /><path
       d="M 4.4206347,68.724958 Q 5.2001284,68.552065 5.9219763,68.649634 6.6384851,68.748388 7.2249907,69.094441 7.810312,69.435155 8.2235203,70.010102 8.6367286,70.585049 8.8084371,71.359203 8.9801456,72.133358 8.848776,72.829093 8.7174065,73.524828 8.3322143,74.086405 7.9470221,74.647981 7.3406436,75.045755 6.7277418,75.439373 5.948248,75.612266 5.1740932,75.783974 4.4575844,75.685221 3.7345524,75.582312 3.1533858,75.235075 2.5668803,74.889022 2.153672,74.314075 1.7351247,73.740313 1.5634162,72.966158 1.3917077,72.192003 1.5284163,71.495084 1.6597858,70.799349 2.0461622,70.243112 2.4313543,69.681535 3.0389171,69.2891 3.6464799,68.896666 4.4206347,68.724958 Z M 4.7379993,70.155809 Q 4.1720655,70.281334 3.7543787,70.519621 3.3366919,70.757907 3.0797167,71.089386 2.8215572,71.415525 2.738942,71.825965 2.6498036,72.23225 2.7540128,72.702082 2.8582221,73.171914 3.1119638,73.50775 3.3603665,73.844769 3.7333931,74.036513 4.1052354,74.222917 4.5845004,74.262259 5.0637653,74.3016 5.6296992,74.176075 6.200972,74.049366 6.6239978,73.809895 7.0416845,73.571609 7.299844,73.24547 7.5514803,72.915175 7.6340955,72.504735 7.7167107,72.094295 7.6125014,71.624463 7.5082922,71.154632 7.2610737,70.822951 7.012671,70.485931 6.6461676,70.298342 6.2731411,70.106599 5.7938761,70.067258 5.3092721,70.0291 4.7379993,70.155809 Z"
       id="path573" /><path
       d="M 4.9932072,65.827422 7.7775143,65.588594 7.9009012,67.027062 0.66497213,67.647735 0.4780223,65.468239 Q 0.41586148,64.743556 0.5294744,64.212372 0.63763859,63.681655 0.88748194,63.330894 1.1368579,62.974685 1.5106321,62.788936 1.8844063,62.603188 2.3475493,62.563461 2.7017175,62.533082 3.031606,62.603584 3.3560458,62.674554 3.6393923,62.842358 3.9168226,63.005182 4.1472435,63.259858 4.3722157,63.515003 4.5279161,63.858421 4.5925141,63.715659 4.6912067,63.58644 4.7844506,63.457687 4.9281352,63.341075 L 7.426516,61.496589 7.5372837,62.787941 Q 7.5667283,63.131212 7.2938358,63.34124 L 5.1511613,64.853328 Q 5.0274021,64.946276 4.9817948,65.054476 4.9357202,65.157227 4.9516109,65.342484 Z M 3.9742925,65.914822 3.9116643,65.18469 Q 3.8817524,64.835971 3.7676245,64.593274 3.6530293,64.345128 3.4755458,64.195687 3.2980623,64.046246 3.0681207,63.989126 2.8322629,63.927025 2.5652746,63.949926 2.0367466,63.995262 1.7814545,64.34649 1.5207137,64.698185 1.5786681,65.373829 L 1.6422311,66.114858 Z"
       id="path575" /><path
       d="M 6.3169705,59.329655 6.3660574,56.809039 7.5470835,56.832039 7.4699925,60.790663 0.20886939,60.649259 0.23687343,59.21125 Z"
       id="path577" /><path
       d="M 4.7716733,49.414493 Q 5.5632415,49.519002 6.1971832,49.856445 6.8257031,50.193173 7.2419685,50.717009 7.6589496,51.235424 7.8394309,51.915681 8.0199122,52.595938 7.916119,53.382085 L 7.5696645,56.006188 0.36964652,55.055585 0.71610104,52.431482 Q 0.81989423,51.645336 1.1707395,51.035229 1.5215849,50.425121 2.058823,50.03269 2.5967769,49.634837 3.2911518,49.472768 3.9855267,49.3107 4.7716733,49.414493 Z M 4.5805506,50.862087 Q 4.0058504,50.78621 3.5318164,50.867046 3.0577824,50.947882 2.7028271,51.171312 2.3485877,51.389321 2.1304079,51.746649 1.9068064,52.103262 1.8438147,52.580372 L 1.6863354,53.773146 6.6255044,54.425254 6.7829837,53.23248 Q 6.8459754,52.75537 6.7280098,52.353661 6.6100441,51.951951 6.3245229,51.649477 6.0397175,51.34158 5.6029059,51.140488 5.1606726,50.938679 4.5805506,50.862087 Z"
       id="path579" /><path
       d="M 2.0275533,44.625051 2.4314363,43.491742 Q 2.4956905,43.311443 2.6185012,43.227485 2.7431478,43.138376 2.8917709,43.144897 L 7.2027196,43.543305 Q 7.5430129,43.565881 7.9775111,43.633641 7.7912931,43.520832 7.6256807,43.415367 7.4549168,43.308066 7.3205689,43.196325 L 3.8005077,40.594953 Q 3.6967121,40.511517 3.6513624,40.361826 3.6008613,40.210299 3.6596079,40.045454 L 3.8009669,39.648796 Q 3.8652211,39.468497 3.986196,39.389691 4.1038553,39.303897 4.2594657,39.307102 L 8.6365043,39.52006 Q 8.8042533,39.521785 8.999239,39.544828 9.1909092,39.560883 9.4013491,39.589434 9.2184467,39.483612 9.0561498,39.385134 8.8956888,39.281505 8.7609848,39.187054 L 5.1645308,36.767461 Q 5.0588993,36.689177 5.0135496,36.539485 4.9648844,36.382807 5.023631,36.217962 L 5.4018124,35.156773 11.519557,39.62441 11.082629,40.850444 6.0511169,40.584223 Q 5.952528,40.583922 5.8333336,40.576278 5.715975,40.563483 5.5883136,40.547016 5.6976167,40.614997 5.7947811,40.684458 5.8919456,40.753919 5.9703403,40.810885 L 10.027026,43.8125 9.5919335,45.033383 Z"
       id="path581" /><path
       d="M 13.46575,35.651139 12.815294,36.940062 6.3316223,33.668075 6.9820776,32.379152 Z"
       id="path583" /><path
       d="M 14.289054,27.217139 Q 14.96405,27.643614 15.398343,28.215576 15.828012,28.784617 15.986569,29.434648 16.148047,30.080056 16.02698,30.773357 15.905913,31.466658 15.482358,32.137032 L 14.068562,34.374693 7.928864,30.495515 9.3426607,28.257854 Q 9.7662154,27.587481 10.340363,27.180444 10.91451,26.773408 11.566727,26.642108 12.221865,26.506184 12.920272,26.649884 13.61868,26.793584 14.289054,27.217139 Z M 13.509129,28.451551 Q 13.019062,28.141918 12.55476,28.016753 12.090458,27.891588 11.674553,27.945785 11.261569,27.995359 10.913773,28.228435 10.561354,28.458589 10.3043,28.865436 L 9.6616652,29.882555 13.873461,32.543647 14.516096,31.526529 Q 14.773149,31.119681 14.834303,30.7055 14.895456,30.291318 14.762895,29.897058 14.633255,29.498175 14.320848,29.132601 14.003818,28.764105 13.509129,28.451551 Z"
       id="path585" /><path
       d="M 15.118952,20.44243 16.00508,21.16434 14.119132,23.479297 15.607319,24.691692 17.075318,22.889757 17.927528,23.584034 16.459528,25.385969 17.977393,26.622543 19.866795,24.303347 20.749469,25.029497 17.951635,28.463773 12.321117,23.876706 Z"
       id="path587" /><path
       d="M 18.048838,17.124519 18.976808,16.358764 Q 19.12444,16.23694 19.272928,16.227853 19.425635,16.215285 19.549877,16.297109 L 23.046315,18.850133 Q 23.326864,19.044044 23.665111,19.325059 23.563107,19.132709 23.475027,18.957232 23.383466,18.777537 23.325444,18.612708 L 21.63781,14.57416 Q 21.591499,14.449299 21.629342,14.297536 21.663704,14.141555 21.798682,14.030173 L 22.123471,13.762159 Q 22.271103,13.640334 22.415373,13.634728 22.560381,13.621423 22.692322,13.703984 L 26.34061,16.131702 Q 26.483731,16.219219 26.6393,16.339005 26.795606,16.451092 26.961617,16.583532 26.858877,16.398881 26.770059,16.231103 26.68546,16.059843 26.618263,15.909675 L 24.771819,11.987996 Q 24.721289,11.866616 24.759132,11.714853 24.797713,11.555392 24.93269,11.444009 L 25.801608,10.726984 28.762074,17.699948 27.758179,18.528356 23.57537,15.719246 Q 23.49089,15.668423 23.392486,15.600728 23.298301,15.529553 23.197155,15.449941 23.256121,15.56436 23.303907,15.673823 23.351694,15.783286 23.389776,15.872397 L 25.332802,20.529761 24.333125,21.354688 Z"
       id="path589" /><path
       d="M 31.166033,7.5897181 31.756624,8.568278 29.200195,10.111163 30.192049,11.754581 32.181944,10.553618 32.749929,11.494721 30.760034,12.695684 31.771669,14.371878 34.33278,12.826167 34.91869,13.807553 31.126185,16.096448 27.373528,9.8786129 Z"
       id="path591" /><path
       d="M 35.836506,13.310999 32.799896,6.7138105 35.040356,5.6825518 Q 35.67623,5.3898664 36.185462,5.3059794 36.694693,5.2220925 37.083039,5.3202731 37.476353,5.4161671 37.756431,5.6845877 38.03919,5.945754 38.224405,6.3481427 38.329589,6.5766598 38.363332,6.8199994 38.397075,7.0633391 38.34755,7.3088846 38.298025,7.5544302 38.155296,7.8067548 38.015248,8.0518251 37.770168,8.2910578 39.188653,8.0114017 39.716858,9.1589548 39.91122,9.5812146 39.921855,10.009778 39.93249,10.438342 39.755614,10.83883 39.581419,11.232063 39.212854,11.582317 38.846971,11.925317 38.285613,12.183703 Z M 35.823657,9.8432231 36.676561,11.696199 37.794307,11.181713 Q 38.107276,11.037656 38.279337,10.862135 38.451397,10.686613 38.508885,10.497605 38.571341,10.30631 38.540987,10.109573 38.508347,9.9078672 38.421456,9.7190922 38.327705,9.515414 38.192634,9.3789171 38.062531,9.2401335 37.880777,9.1853267 37.703991,9.1282333 37.467906,9.1646575 37.234502,9.1938274 36.936436,9.3310237 Z M 35.409782,8.9440581 36.269205,8.5484755 Q 36.820626,8.2946624 37.022655,7.9488201 37.222396,7.59801 36.998309,7.1111693 36.765076,6.6044575 36.413001,6.5196827 36.05864,6.4299401 35.502251,6.6860398 L 34.568311,7.1159215 Z"
       id="path593" /><path
       d="M 47.744069,7.0777631 Q 47.854856,7.0475096 47.95704,7.1103093 L 48.673769,7.5551827 Q 48.439432,8.1917428 47.940748,8.6283788 47.447339,9.0635741 46.661277,9.2782299 45.949073,9.4727167 45.307278,9.364527 44.664042,9.2510617 44.13344,8.8857481 43.606673,8.5137183 43.211735,7.9186124 42.820631,7.3167902 42.607416,6.536004 42.39276,5.7499421 42.44097,5.0338222 42.493016,4.3109861 42.780129,3.7223729 43.067242,3.1337596 43.575524,2.7115098 44.083806,2.2892599 44.780183,2.099095 45.487111,1.9060489 46.099647,2.0108907 46.710742,2.1104568 47.187127,2.4225479 L 46.900075,3.1982212 Q 46.868442,3.2692184 46.818101,3.3339863 46.773035,3.3973137 46.662248,3.4275672 46.551461,3.4578207 46.422899,3.4022242 46.299612,3.3451871 46.119248,3.2867297 45.94416,3.2268316 45.694259,3.2043699 45.444359,3.1819082 45.090895,3.2784313 44.705777,3.3835982 44.433902,3.6335799 44.160587,3.8782859 44.018735,4.2514929 43.875442,4.6194244 43.871282,5.1024244 43.870958,5.5787081 44.026547,6.148471 44.183578,6.7235096 44.443197,7.1344774 44.702817,7.5454452 45.019941,7.7933163 45.340899,8.0344712 45.702094,8.1115757 46.061848,8.1834046 46.425864,8.0840002 46.642162,8.0249339 46.810494,7.9562903 46.977385,7.8823712 47.109254,7.7840018 47.244959,7.6789161 47.350917,7.5479396 47.456875,7.416963 47.549867,7.2385062 47.591097,7.1818951 47.63665,7.1411108 47.686038,7.0936102 47.744069,7.0777631 Z"
       id="path595" /><path
       d="M 55.728508,3.899901 Q 55.838386,4.6907418 55.683291,5.4024507 55.527443,6.1087429 55.135508,6.6656343 54.748989,7.2217732 54.142782,7.587584 53.536574,7.9533948 52.75115,8.0625204 51.965726,8.1716459 51.282754,7.9849514 50.599783,7.798257 50.070876,7.3693058 49.541969,6.9403546 49.194063,6.3040533 48.85082,5.6615826 48.740942,4.8707418 48.631816,4.0853177 48.787664,3.3790255 48.948176,2.6665641 49.340864,2.1150893 49.732799,1.5581978 50.339007,1.192387 50.944462,0.82115951 51.729886,0.71203399 52.51531,0.60290847 53.199034,0.79501962 53.882005,0.98171406 54.405495,1.4114179 54.934402,1.8403691 55.276892,2.477423 55.619382,3.1144769 55.728508,3.899901 Z M 54.276828,4.1015951 Q 54.197053,3.5274229 53.993001,3.091986 53.788949,2.656549 53.479127,2.3738395 53.174721,2.0903775 52.772221,1.9751405 52.374384,1.8537342 51.897713,1.9199621 51.421042,1.98619 51.065955,2.2122063 50.710115,2.4328058 50.489098,2.7892691 50.273499,3.1449798 50.195881,3.6195514 50.118264,4.0941231 50.198039,4.6682952 50.278566,5.247884 50.483371,5.6887377 50.687423,6.1241747 50.991828,6.4076367 51.300898,6.6849295 51.703398,6.8001664 52.105899,6.9154034 52.58257,6.8491755 53.059241,6.7829476 53.409664,6.5631007 53.765504,6.3425011 53.981857,5.9922072 54.202873,5.6357439 54.28049,5.1611722 54.357355,4.6811839 54.276828,4.1015951 Z"
       id="path597" /><path
       d="M 57.950403,0.21738934 Q 58.043371,0.21779636 58.108947,0.22902106 58.174548,0.23477706 58.223646,0.26233603 58.278238,0.28445024 58.321796,0.32839135 58.370822,0.37235641 58.430667,0.44371284 L 61.986557,5.1733882 Q 61.955325,4.8123105 61.956737,4.4896574 L 61.975364,0.23501074 63.238634,0.24054137 63.206838,7.5029716 62.468564,7.4997395 Q 62.299035,7.4989973 62.184431,7.4438075 62.075321,7.383173 61.966521,7.2514454 L 58.421449,2.5491614 Q 58.452777,2.8883643 58.451508,3.1782052 L 58.432665,7.4820702 57.163928,7.4765156 57.195723,0.21408533 57.950403,0.21738934 Z"
       id="path599" /><path
       d="M 69.064897,2.2771004 Q 68.997048,2.3788362 68.914966,2.4181646 68.838989,2.4527458 68.73046,2.4391611 68.627359,2.4262557 68.517487,2.3353429 68.407615,2.2444301 68.255691,2.1372307 68.109872,2.0252841 67.907752,1.9228243 67.705631,1.8203646 67.428885,1.7857237 66.940508,1.7245928 66.661007,1.9321099 66.386933,2.1403062 66.338707,2.5255809 66.308142,2.7697692 66.417999,2.9488629 66.533961,3.1232094 66.736074,3.2697596 66.944293,3.4115627 67.209492,3.5384524 67.480118,3.6660214 67.75956,3.8112281 68.03968,3.9510083 68.298087,4.1321621 68.5626,4.3085688 68.752487,4.5527943 68.947801,4.797699 69.038639,5.1287321 69.134903,5.4604443 69.078527,5.9108359 69.017396,6.3992124 68.800945,6.8075214 68.58992,7.2165096 68.24054,7.4979512 67.891839,7.7739664 67.418354,7.9020879 66.950295,8.0308885 66.375096,7.9588899 66.049511,7.9181359 65.732757,7.8068387 65.42075,7.7016471 65.13792,7.539482 64.85509,7.3773169 64.610932,7.1703895 64.366773,6.9634622 64.193166,6.7212744 L 64.701329,6.0959539 Q 64.760356,6.0206709 64.847865,5.9820218 64.9408,5.9440519 65.038476,5.9562781 65.168709,5.9725796 65.291464,6.0926622 65.420324,6.2079975 65.5892,6.3558987 65.758754,6.4983735 65.990037,6.6320407 66.221999,6.7602815 66.558436,6.8023939 67.046813,6.8635248 67.349378,6.6478718 67.651943,6.4322189 67.713074,5.9438424 67.747714,5.6670958 67.63379,5.47647 67.525291,5.2865235 67.322499,5.1453997 67.120386,4.9988495 66.848402,4.8821333 66.582523,4.7606699 66.301723,4.6263161 66.02635,4.4926415 65.761157,4.3216613 65.502071,4.1459339 65.313542,3.8908556 65.125014,3.6357772 65.031466,3.2823593 64.943345,2.9296207 65.005834,2.4303914 65.055418,2.0342639 65.254225,1.6788605 65.45371,1.3180306 65.783415,1.0616834 66.113119,0.80533607 66.558114,0.68467127 67.009215,0.55925929 67.557282,0.6278618 68.175892,0.70529433 68.677122,0.97195688 69.183778,1.2392987 69.512691,1.6497348 Z"
       id="path601" /><path
       d="M 77.134148,6.4173182 Q 76.939434,7.1916495 76.52876,7.7932561 76.119419,8.389559 75.547247,8.7588293 74.980378,9.1294332 74.281229,9.2412135 73.582079,9.3529938 72.813052,9.1596135 72.044024,8.9662332 71.480908,8.5370424 70.917791,8.1078516 70.588345,7.5118596 70.258898,6.9158676 70.175001,6.1955345 70.09774,5.4712314 70.292454,4.6969002 70.485835,3.9278725 70.895176,3.3315696 71.311154,2.7312967 71.881992,2.36733 72.454164,1.9980598 73.153314,1.8862795 73.853797,1.7691955 74.622825,1.9625758 75.391852,2.1559561 75.953635,2.5904506 76.516752,3.0196414 76.840895,3.6142997 77.170341,4.2102917 77.248935,4.9292912 77.327529,5.6482906 77.134148,6.4173182 Z M 75.712773,6.059898 Q 75.854141,5.4977123 75.828274,5.0175316 75.802406,4.5373508 75.621214,4.1590869 75.445325,3.7821567 75.115413,3.5243879 74.792139,3.2626491 74.325419,3.1452872 73.858699,3.0279254 73.444767,3.1042858 73.032169,3.1753426 72.693605,3.4229081 72.360345,3.6718072 72.110423,4.0826377 71.860501,4.4934683 71.719133,5.055654 71.576432,5.6231433 71.600966,6.1086277 71.626833,6.5888085 71.802722,6.9657387 71.985248,7.338699 72.315159,7.5964678 72.645071,7.8542366 73.111791,7.9715984 73.578511,8.0889603 73.985806,8.0165699 74.398404,7.9455131 74.73033,7.7019176 75.068895,7.4543521 75.318816,7.0435216 75.570072,6.6273874 75.712773,6.059898 Z"
       id="path603" /><path
       d="M 79.463356,8.2231192 78.434579,10.821392 77.092222,10.28989 79.765836,3.5374321 81.799709,4.3427375 Q 82.475972,4.6105016 82.900632,4.9492174 83.327306,5.2828486 83.52971,5.6629632 83.7372,6.0450911 83.736629,6.4624749 83.736058,6.8798587 83.564931,7.3120567 83.434069,7.6425611 83.223762,7.9063186 83.015468,8.1649914 82.738855,8.3436766 82.469339,8.5192904 82.138601,8.6118452 81.809876,8.6993153 81.433066,8.6854008 81.531998,8.806918 81.603595,8.9529034 81.677206,9.0938042 81.717444,9.2744273 L 82.253175,12.333353 81.048105,11.856209 Q 80.72777,11.729374 80.661594,11.391435 L 80.264592,8.7991664 Q 80.23664,8.646935 80.160164,8.5578362 80.088772,8.4707506 79.915893,8.4022997 Z M 79.839837,7.2722836 80.521184,7.5420609 Q 80.846604,7.6709098 81.114725,7.6770803 81.38793,7.6852641 81.600869,7.5931215 81.813807,7.500979 81.967536,7.3206927 82.128364,7.137335 82.227013,6.8881855 82.4223,6.3949713 82.221909,6.009772 82.023531,5.6194881 81.39303,5.3698434 L 80.701513,5.0960395 Z"
       id="path605" /><path
       d="M 90.47106,8.4988024 89.921384,9.5319952 88.192958,8.6124436 85.33156,13.99084 84.066623,13.317872 86.928021,7.9394757 85.199596,7.019924 85.749272,5.9867312 Z"
       id="path607" /><path
       d="M 88.986633,16.199071 87.77159,15.419273 91.694211,9.3072393 92.909254,10.087037 Z"
       id="path609" /><path
       d="M 93.289556,17.892004 Q 93.589759,18.12954 93.899391,18.214145 94.213313,18.302143 94.514513,18.247576 94.820003,18.196403 95.109378,18.006953 95.398753,17.817504 95.649863,17.500147 L 98.337419,14.103565 99.461036,14.992631 96.773479,18.389212 Q 96.366274,18.903846 95.856287,19.204654 95.350588,19.508855 94.790698,19.581889 94.234201,19.650635 93.653345,19.47695 93.07249,19.303265 92.519259,18.865519 91.966027,18.427773 91.65914,17.899029 91.356542,17.373677 91.295478,16.816285 91.237808,16.254605 91.413283,15.689113 91.593047,15.127015 92.000253,14.612381 L 94.687809,11.215799 95.815715,12.108258 93.128158,15.50484 Q 92.877048,15.822197 92.759218,16.147382 92.641387,16.472566 92.657544,16.778243 92.677989,17.087313 92.831527,17.369193 92.989353,17.654467 93.289556,17.892004 Z"
       id="path611" /><path
       d="M 100.89401,22.313176 Q 100.76417,22.682523 100.581,23.033847 100.77412,22.961734 100.95916,22.896979 101.14824,22.828544 101.33622,22.783286 L 105.74616,21.796782 Q 105.83629,21.773969 105.89809,21.776909 105.96762,21.780215 106.01654,21.809642 106.06952,21.83539 106.12139,21.884313 106.17326,21.933237 106.2358,22.002025 L 106.96423,22.8032 101.59069,27.68879 100.74086,26.754086 104.10337,23.696913 Q 104.21262,23.597582 104.34174,23.487583 104.47858,23.37795 104.62314,23.268685 L 100.0793,24.30302 Q 99.730563,24.39096 99.509828,24.14818 L 99.373709,23.998465 Q 99.149295,23.751638 99.269937,23.412825 L 100.72865,18.952712 Q 100.60579,19.09398 100.47962,19.223477 100.35749,19.349294 100.24419,19.452304 L 96.881687,22.509477 96.02818,21.570727 101.40172,16.685136 102.13382,17.490357 Q 102.19636,17.559145 102.23646,17.61138 102.28024,17.667661 102.30085,17.72284 102.32513,17.782065 102.32219,17.843867 102.32293,17.909716 102.29166,17.99727 L 100.89401,22.313176 Z"
       id="path613" /></g></svg>
