<?xml version="1.0" encoding="UTF-8" standalone="no"?>
<svg
   width="120"
   height="120"
   version="1.1"
   viewBox="0 0 120 120"
   id="svg98"
   xml:space="preserve"
   xmlns="http://www.w3.org/2000/svg"
   xmlns:svg="http://www.w3.org/2000/svg"><defs
     id="defs102" /><path
     style="display:inline;opacity:1;fill:none;stroke:#000000;stroke-width:7.10675;stroke-linecap:round;stroke-dasharray:none;stroke-opacity:1"
     d="M 65.817638,75.847996 65.841948,75.874702 C 67.7647,77.918223 70.689441,78.810585 72.893244,78.810585 76.919929,78.810585 80.056268,75.81762 80.056268,75.81762 M 52.405001,48.188523 C 52.405001,48.188523 55.477915,45.200408 59.449014,45.200408 61.925409,45.200408 64.673521,45.98839 66.55011,48.10956 L 79.215705,62.42699 C 80.995351,64.438595 84.051793,65.366516 86.337465,65.366516 93.279151,65.366516 95.322855,62.660462 95.322855,59.322265 95.322855,55.984089 92.616756,53.278022 89.278538,53.278022 M 65.817638,75.847996 39.735763,48.130203 C 38.521779,46.840024 36.132859,45.200408 32.560555,45.200408 27.238192,45.200408 22.483608,49.493515 22.477381,55.28347 22.474277,58.168779 23.393152,60.308451 25.53476,62.451297 L 38.955915,75.87958 C 41.097526,78.022393 43.287563,78.818167 46.004787,78.810585 50.00115,78.799415 51.34628,77.722129 53.13383,75.875916 M 85.004076,42.959712 C 86.080081,41.8484 87.609001,41.189376 89.278095,41.189376 92.61634,41.189376 95.322479,43.89551 95.322479,47.233688 95.322479,50.568318 92.612652,53.278022 89.278095,53.278022"
     id="path2-7" /><circle
     style="fill:none;stroke:none;stroke-width:1;stroke-dasharray:none;stroke-opacity:1"
     id="path27992"
     cx="14.737394"
     cy="83.55806"
     r="52.5"
     transform="rotate(-35)" /><g
     aria-label="· WORLD WIDE WEB CONSORTIUM · WORLD WIDE WEB CONSORTIUM"
     id="text30701"
     style="font-weight:900;font-size:9.6px;line-height:125%;font-family:Lato;-inkscape-font-specification:'Lato, Heavy';text-align:center;letter-spacing:0px;word-spacing:0px;text-anchor:middle"><path
       d="M 106.4879,29.91322 Q 106.67141,29.799288 106.87757,29.76734 107.08626,29.739471 107.28048,29.788387 107.48131,29.838849 107.6519,29.958927 107.82503,30.083082 107.94403,30.274747 108.06303,30.466412 108.09751,30.67665 108.13452,30.890965 108.08813,31.089259 108.04836,31.2891 107.92828,31.459698 107.81073,31.634375 107.62723,31.748307 107.44372,31.862239 107.23503,31.890109 107.03294,31.919525 106.83212,31.869062 106.6379,31.820146 106.46224,31.691913 106.28911,31.567757 106.17011,31.376092 106.05112,31.184428 106.01664,30.97419 105.98469,30.76803 106.02446,30.56819 106.07085,30.369896 106.18432,30.197751 106.30439,30.027152 106.4879,29.91322 Z"
       id="path38469" /><path
       d="M 113.11287,32.711069 113.63289,33.971187 Q 113.71345,34.166417 113.67781,34.331712 113.644,34.501443 113.51406,34.601801 L 110.50812,36.880798 Q 110.36043,36.98848 110.19055,37.105317 110.02068,37.222154 109.83305,37.346315 110.28309,37.254064 110.6546,37.235761 L 114.45888,36.891312 Q 114.59959,36.879976 114.75031,36.968368 114.90729,37.059365 114.9842,37.24572 L 115.1673,37.689424 Q 115.24787,37.884654 115.20413,38.042905 115.16482,38.199326 115.04847,38.320038 L 112.10479,40.749895 Q 111.8418,40.99343 111.47986,41.23626 111.68974,41.19119 111.88187,41.153445 112.07583,41.120137 112.24761,41.095984 L 115.98596,40.591801 Q 116.12929,40.574197 116.28183,40.667025 116.43438,40.759854 116.51128,40.946209 L 116.99834,42.126461 109.70961,42.797619 109.14931,41.439886 112.65425,38.570709 Q 112.81758,38.425419 113.04042,38.260762 112.76631,38.301181 112.54805,38.313361 L 108.03238,38.733293 107.47208,37.37556 Z"
       id="path38471" /><path
       d="M 115.44991,51.292407 Q 114.7098,51.457955 114.01512,51.342819 113.32148,51.232366 112.74464,50.874451 112.17249,50.515488 111.7588,49.919416 111.34616,49.328029 111.16803,48.531707 110.98991,47.735385 111.11023,47.019867 111.23054,46.304349 111.59419,45.731147 111.96357,45.161582 112.543,44.761451 113.12348,44.366005 113.86359,44.200456 114.6037,44.034908 115.29733,44.145361 115.99202,44.260497 116.56417,44.61946 117.13738,44.983108 117.55107,45.579179 117.96476,46.175251 118.14288,46.971573 118.321,47.767895 118.19495,48.479776 118.07464,49.195294 117.70994,49.763812 117.34525,50.332329 116.76477,50.727776 116.18534,51.127907 115.44991,51.292407 Z M 115.08739,49.671657 Q 115.59328,49.558498 115.96679,49.337231 116.34498,49.114915 116.57051,48.803784 116.79708,48.497337 116.86734,48.107805 116.93761,47.718274 116.83597,47.263902 116.73329,46.804845 116.50272,46.477687 116.27319,46.155213 115.9366,45.969814 115.60106,45.7891 115.1642,45.749097 114.73201,45.708047 114.22612,45.821206 113.71553,45.935413 113.33734,46.157729 112.96383,46.378996 112.73726,46.685443 112.51174,46.996575 112.44147,47.386106 112.37694,47.779274 112.47962,48.23833 112.58126,48.692702 112.8061,49.016224 113.03563,49.338698 113.37117,49.519413 113.70775,49.704812 114.13993,49.745862 114.5768,49.785865 115.08739,49.671657 Z"
       id="path38473" /><path
       d="M 114.81953,54.417793 112.24166,54.637307 112.104,53.020757 119.07238,52.427379 119.26543,54.694375 Q 119.32977,55.45004 119.21715,55.994358 119.10972,56.543052 118.86083,56.901462 118.61235,57.264654 118.24755,57.449874 117.88275,57.635093 117.43796,57.672968 117.09839,57.701884 116.78934,57.63667 116.48029,57.571456 116.20655,57.411706 115.938,57.256331 115.71473,57.010388 115.49186,56.769228 115.33381,56.440653 115.26635,56.610188 115.15381,56.759475 115.04606,56.908354 114.88803,57.03261 L 112.58946,58.721726 112.46483,57.258222 Q 112.43022,56.851693 112.72124,56.648669 L 114.64576,55.318986 Q 114.76797,55.226685 114.81681,55.121361 114.87043,55.01563 114.85455,54.829105 Z M 115.93389,54.322902 115.98928,54.973348 Q 116.01738,55.303354 116.11824,55.525999 116.22428,55.753021 116.38517,55.888659 116.54606,56.024297 116.74785,56.074557 116.95442,56.12441 117.18399,56.104862 117.64313,56.065765 117.87574,55.742463 118.10876,55.423944 118.0554,54.797411 L 118.00002,54.146965 Z"
       id="path38475" /><path
       d="M 113.79035,60.970668 113.73064,63.56198 112.43499,63.53213 112.53206,59.318848 119.5238,59.47993 119.48643,61.1019 Z"
       id="path38477" /><path
       d="M 114.98161,71.135343 Q 114.23064,71.029493 113.63058,70.678306 113.0346,70.332542 112.63513,69.79634 112.24041,69.260807 112.07279,68.558538 111.90924,67.861692 112.02313,67.053679 L 112.40231,64.36347 119.32746,65.339562 118.94828,68.029771 Q 118.83439,68.837785 118.47986,69.461608 118.12465,70.090184 117.59728,70.49575 117.06992,70.901315 116.39683,71.068207 115.72784,71.240522 114.98161,71.135343 Z M 115.21341,69.490798 Q 115.72674,69.563151 116.15901,69.48835 116.59128,69.41355 116.91197,69.201836 117.23674,68.995545 117.43975,68.655753 117.64751,68.316632 117.7125,67.855589 L 117.8639,66.781406 113.41032,66.153679 113.25892,67.227862 Q 113.19393,67.688905 113.29511,68.071572 113.40105,68.454909 113.65139,68.742262 113.90582,69.035038 114.30058,69.226407 114.69533,69.417775 115.21341,69.490798 Z"
       id="path38479" /><path
       d="M 117.6499,75.547221 117.18478,76.828617 Q 117.11272,77.027143 116.97498,77.125235 116.83561,77.227838 116.67198,77.2144 L 112.91534,76.8721 Q 112.73366,76.852111 112.52941,76.823933 112.32517,76.795755 112.10288,76.761026 112.49753,76.99619 112.78432,77.233057 L 115.8269,79.542571 Q 115.93849,79.629035 115.99026,79.795913 116.0449,79.96894 115.97612,80.158442 L 115.81234,80.609638 Q 115.74028,80.808164 115.60131,80.895594 115.46685,80.984662 115.29954,80.995421 L 111.48722,80.806528 Q 111.1288,80.809196 110.69776,80.744651 110.88318,80.852808 111.05056,80.954414 111.2163,81.060531 111.35947,81.15846 L 114.46101,83.305544 Q 114.57876,83.389134 114.62889,83.560524 114.67902,83.731913 114.61023,83.921415 L 114.17459,85.121596 108.33766,80.705009 108.83881,79.32435 113.36185,79.566964 Q 113.58043,79.569708 113.85603,79.598255 113.62629,79.443373 113.45684,79.305271 L 109.83784,76.572056 110.33899,75.191396 Z"
       id="path38481" /><path
       d="M 106.32894,84.725152 107.07378,83.273038 113.29651,86.464902 112.55167,87.917016 Z"
       id="path38483" /><path
       d="M 105.24767,93.1826 Q 104.61018,92.771784 104.21252,92.201457 103.8163,91.637765 103.6783,90.983511 103.54434,90.331858 103.68644,89.623983 103.82998,88.922742 104.272,88.23683 L 105.74365,85.953143 111.62233,89.741495 110.15067,92.025181 Q 109.70865,92.711094 109.12533,93.128923 108.5394,93.550787 107.89061,93.69802 107.24183,93.845253 106.56076,93.714717 105.88113,93.590817 105.24767,93.1826 Z M 106.14731,91.786566 Q 106.58306,92.067377 107.00689,92.180612 107.43072,92.293847 107.81061,92.23601 108.19194,92.184808 108.51866,91.961368 108.84942,91.740528 109.10163,91.349154 L 109.68925,90.437294 105.90866,88.000996 105.32104,88.912857 Q 105.06883,89.30423 105.00033,89.694077 104.93587,90.086524 105.04275,90.452339 105.15107,90.824789 105.42929,91.163972 105.70752,91.503154 106.14731,91.786566 Z"
       id="path38485" /><path
       d="M 104.15575,99.956078 103.19746,99.156581 105.03631,96.952528 103.78317,95.907031 102.37482,97.595085 101.45339,96.826338 102.86174,95.138284 101.5828,94.071262 99.743955,96.275315 98.785671,95.475817 101.67001,92.018624 107.04009,96.498885 Z"
       id="path38487" /><path
       d="M 101.54474,102.89003 100.48759,103.7507 Q 100.32381,103.88404 100.15525,103.89748 99.982971,103.91395 99.849462,103.81839 L 96.801788,101.59551 Q 96.656157,101.48506 96.495373,101.35599 96.33459,101.22693 96.161684,101.08298 96.379552,101.48743 96.504,101.83795 L 97.928731,105.38214 Q 97.980085,105.51364 97.938809,105.68342 97.896841,105.85995 97.740502,105.98723 L 97.368267,106.29029 Q 97.204484,106.42363 97.040339,106.42728 96.879225,106.43466 96.730135,106.35797 L 93.555901,104.23813 Q 93.246982,104.05636 92.910263,103.77962 93.013827,103.96765 93.10527,104.14079 93.19299,104.31696 93.265558,104.47452 L 94.824294,107.90961 Q 94.8824,108.0418 94.837402,108.21461 94.792403,108.38741 94.636064,108.5147 L 93.64592,109.32082 90.905489,102.53362 92.044527,101.60628 95.801022,104.13719 Q 95.98717,104.25179 96.208993,104.41782 96.091396,104.16694 96.016918,103.96142 L 94.315159,99.75765 95.454198,98.830307 Z"
       id="path38489" /><path
       d="M 88.216441,112.43151 87.579786,111.35812 90.048593,109.89381 89.216044,108.49014 87.325219,109.61164 86.713051,108.57953 88.603876,107.45804 87.754187,106.02547 85.28538,107.48977 84.648725,106.41638 88.521201,104.11952 92.088917,110.13466 Z"
       id="path38491" /><path
       d="M 83.761519,106.88472 86.624924,113.26527 84.277654,114.31866 Q 83.616389,114.61541 83.097163,114.70111 82.577936,114.78681 82.184298,114.69515 81.790661,114.60348 81.515819,114.34275 81.236597,114.08399 81.059723,113.68986 80.963424,113.47528 80.934331,113.24632 80.907203,113.02174 80.959969,112.78761 81.012735,112.55348 81.153705,112.3166 81.29664,112.0841 81.538503,111.84929 80.839109,111.97902 80.381685,111.76866 79.926226,111.56268 79.684497,111.02404 79.501727,110.61677 79.502157,110.19568 79.502588,109.77459 79.691218,109.37427 79.877434,108.98029 80.257297,108.63094 80.639125,108.28596 81.212804,108.02851 Z M 83.495877,110.25535 82.782483,108.66569 81.740225,109.13343 Q 81.446816,109.2651 81.296298,109.42209 81.1414,109.58104 81.089361,109.74645 81.037322,109.91185 81.064728,110.07844 81.092134,110.24502 81.160919,110.39829 81.23953,110.57346 81.35059,110.69198 81.457271,110.81246 81.614367,110.85771 81.767084,110.90492 81.974596,110.87493 82.182107,110.84494 82.462378,110.71916 Z M 83.940029,111.24506 83.169284,111.59095 Q 82.924047,111.701 82.742703,111.82448 82.56136,111.94795 82.464909,112.09646 82.364079,112.24693 82.362796,112.43165 82.357133,112.61833 82.461293,112.85043 82.563487,113.07815 82.687237,113.20149 82.812951,113.32922 82.972461,113.36812 83.131972,113.40702 83.333587,113.36389 83.530823,113.32273 83.780439,113.21071 L 84.647528,112.82159 Z"
       id="path38493" /><path
       d="M 71.662548,113.10149 Q 71.606867,113.11623 71.545042,113.10778 71.484447,113.10396 71.419889,113.06644 L 70.624861,112.57685 Q 70.891872,111.93511 71.436498,111.49792 71.977713,111.06659 72.817562,110.84418 73.587809,110.6402 74.269109,110.73784 74.946997,110.84135 75.495533,111.18766 76.040659,111.53984 76.435139,112.11068 76.830848,112.68615 77.027458,113.42856 77.227754,114.18489 77.148949,114.88106 77.071374,115.58187 76.747582,116.1592 76.423789,116.73653 75.869608,117.1564 75.315426,117.57626 74.568378,117.7741 74.187895,117.87486 73.835379,117.89373 73.479453,117.91848 73.155181,117.87525 72.832137,117.83666 72.541978,117.73475 72.251818,117.63283 72.009966,117.48833 L 72.350924,116.63832 Q 72.384761,116.55984 72.439616,116.48573 72.4957,116.41626 72.620981,116.38308 72.704502,116.36096 72.788573,116.37842 72.872644,116.39588 72.969682,116.4248 73.067948,116.45837 73.186004,116.49165 73.300648,116.53081 73.453367,116.54498 73.602674,116.56503 73.798106,116.553 73.988898,116.54219 74.234821,116.47707 74.624585,116.37385 74.911295,116.14399 75.193365,115.91536 75.356279,115.57429 75.515781,115.23908 75.538796,114.80099 75.5584,114.36877 75.422002,113.85373 75.284375,113.33404 75.038267,112.96722 74.787519,112.60163 74.472508,112.38713 74.154086,112.17849 73.79119,112.12067 73.428293,112.06284 73.05709,112.16115 72.843648,112.21767 72.672241,112.28293 72.502063,112.35282 72.36123,112.43977 72.221625,112.53136 72.107954,112.64588 71.995511,112.76504 71.889487,112.92718 71.846095,112.98833 71.788507,113.03337 71.732148,113.08306 71.662548,113.10149 Z"
       id="path38495" /><path
       d="M 63.441039,116.0127 Q 63.346224,115.26025 63.52654,114.57957 63.702094,113.89948 64.112956,113.35908 64.524418,112.82343 65.156941,112.46797 65.784701,112.1131 66.594299,112.01108 67.403896,111.90907 68.10483,112.09651 68.805763,112.28395 69.342006,112.70017 69.874087,113.12176 70.217629,113.73643 70.556408,114.35171 70.651223,115.10416 70.746038,115.85661 70.570484,116.53669 70.390168,117.21737 69.978706,117.75302 69.562481,118.28926 68.929959,118.64473 68.297436,119.00019 67.487838,119.10221 66.67824,119.20423 65.98147,119.01142 65.280536,118.82398 64.749055,118.40716 64.217574,117.99033 63.878795,117.37506 63.535254,116.76039 63.441039,116.0127 Z M 65.088809,115.80507 Q 65.153619,116.3194 65.338572,116.71216 65.524126,117.10968 65.812536,117.36361 66.096183,117.61815 66.477324,117.72494 66.858465,117.83173 67.320412,117.77352 67.787121,117.71471 68.134619,117.51611 68.477354,117.3181 68.693752,117.00056 68.905388,116.68361 68.986525,116.25249 69.068263,115.82612 69.003453,115.31179 68.938043,114.79269 68.752489,114.39517 68.567535,114.00241 68.283888,113.74788 67.995478,113.49394 67.614337,113.38716 67.229034,113.28573 66.762325,113.34454 66.300378,113.40275 65.957043,113.59599 65.614308,113.79399 65.402672,114.11094 65.186273,114.42848 65.104536,114.85485 65.023399,115.28597 65.088809,115.80507 Z"
       id="path38497" /><path
       d="M 61.041561,119.52395 Q 60.935982,119.52183 60.86419,119.51078 60.792397,119.49973 60.735388,119.46978 60.678282,119.44463 60.626459,119.39557 60.574635,119.34652 60.509089,119.26359 L 57.272636,114.99763 Q 57.287777,115.19957 57.29361,115.38693 57.299346,115.57908 57.295967,115.74705 L 57.221533,119.4471 55.791423,119.41833 55.932085,112.42615 56.776714,112.44314 Q 56.963876,112.4469 57.092291,112.5071 57.215811,112.572 57.337593,112.72328 L 60.550727,116.95516 Q 60.539999,116.77251 60.533973,116.59475 60.52785,116.42179 60.53094,116.26822 L 60.606339,112.52018 62.03645,112.54895 61.895788,119.54113 61.041561,119.52395 Z"
       id="path38499" /><path
       d="M 49.97286,117.22525 Q 50.060358,117.12133 50.149253,117.07579 50.233396,117.02957 50.356953,117.04714 50.466254,117.06268 50.585105,117.14745 50.698529,117.2363 50.847943,117.34481 50.992605,117.45264 51.187491,117.54823 51.381702,117.64856 51.643074,117.68572 52.094535,117.7499 52.345589,117.58682 52.591216,117.42781 52.637833,117.0999 52.66756,116.89081 52.554091,116.73408 52.440622,116.57734 52.240961,116.44715 52.036547,116.31627 51.773079,116.19154 51.504184,116.0709 51.229163,115.92513 50.953466,115.78412 50.69743,115.60712 50.436642,115.42945 50.253195,115.1852 50.064996,114.94027 49.975849,114.61246 49.886027,114.2894 49.947508,113.85695 50.015746,113.37697 50.241527,112.98242 50.467309,112.58788 50.830298,112.3195 51.18786,112.05519 51.67925,111.94082 52.165213,111.83052 52.754488,111.9143 53.077638,111.96024 53.405587,112.07474 53.728783,112.18857 54.025539,112.35196 54.321619,112.52011 54.573601,112.72562 54.825583,112.93114 55.000876,113.16453 L 54.418907,113.84782 Q 54.350395,113.9205 54.252671,113.95994 54.149519,114.00345 54.040219,113.98791 53.897652,113.96765 53.767922,113.85709 53.633441,113.74585 53.468396,113.61087 53.298598,113.47522 53.073824,113.35115 52.84905,113.22708 52.5259,113.18114 52.088696,113.11898 51.819308,113.27461 51.549245,113.435 51.489791,113.85319 51.455334,114.09555 51.566777,114.26654 51.678219,114.43753 51.882633,114.56841 52.082294,114.6986 52.347113,114.81383 52.611932,114.92905 52.88898,115.06055 53.165353,115.19681 53.422064,115.36906 53.678099,115.54606 53.865623,115.79574 54.047718,116.04949 54.134163,116.39631 54.219932,116.74789 54.151019,117.23261 54.095618,117.62229 53.886097,117.97067 53.676575,118.31905 53.331221,118.56569 52.985867,118.81234 52.519588,118.92059 52.052635,119.03359 51.482369,118.95251 51.16397,118.90725 50.872013,118.81241 50.574627,118.72165 50.317939,118.58334 50.060575,118.44978 49.847309,118.27887 49.628616,118.11202 49.467602,117.91459 Z"
       id="path38501" /><path
       d="M 41.768432,113.06996 Q 41.967517,112.33815 42.393624,111.77755 42.815098,111.21568 43.400897,110.87263 43.985435,110.53421 44.70569,110.44661 45.421313,110.35775 46.208696,110.57195 46.996079,110.78616 47.57269,111.22657 48.149301,111.66698 48.486464,112.25615 48.817735,112.84869 48.901112,113.5479 48.979857,114.24585 48.780771,114.97765 48.581685,115.70945 48.16021,116.27132 47.734104,116.83192 47.149566,117.17034 46.560396,117.50751 45.840141,117.59511 45.119886,117.68271 44.332503,117.4685 43.54512,117.25429 42.974401,116.81051 42.39779,116.3701 42.065259,115.78219 41.732728,115.19428 41.653983,114.49633 41.570606,113.79713 41.768432,113.06996 Z M 43.370987,113.50593 Q 43.234903,114.00615 43.256227,114.43975 43.27629,114.87799 43.446166,115.22267 43.611411,115.56609 43.923096,115.81007 44.234781,116.05404 44.684053,116.17627 45.137956,116.29975 45.534915,116.24856 45.927243,116.19611 46.248323,115.98499 46.564772,115.77261 46.804082,115.40494 47.042131,115.0419 47.178215,114.54168 47.315559,114.03683 47.295496,113.59859 47.274172,113.16499 47.108928,112.82156 46.939052,112.47688 46.627366,112.23291 46.309789,111.9923 45.855886,111.86882 45.406615,111.7466 45.015547,111.79441 44.62322,111.84686 44.306771,112.05924 43.985691,112.27036 43.747641,112.6334 43.508331,113.00108 43.370987,113.50593 Z"
       id="path38503" /><path
       d="M 39.303316,111.05828 40.307155,108.67377 41.802454,109.30326 39.088922,115.74898 36.991965,114.86619 Q 36.292979,114.57193 35.863379,114.21921 35.427492,113.86906 35.225835,113.4821 35.019753,113.09328 35.025317,112.68419 35.030881,112.2751 35.204085,111.86367 35.336316,111.54957 35.537703,111.30624 35.73909,111.06292 36.007771,110.8948 36.270165,110.72924 36.591704,110.64586 36.908819,110.56063 37.273206,110.57341 37.154452,110.43488 37.07458,110.26585 36.992845,110.10124 36.956279,109.90357 L 36.529093,107.08327 37.882825,107.65317 Q 38.258861,107.81147 38.303354,108.16352 L 38.586153,110.48556 Q 38.611075,110.63666 38.681629,110.72886 38.750321,110.82548 38.922855,110.89812 Z M 38.869374,112.08907 38.267716,111.83578 Q 37.962463,111.70727 37.718451,111.69309 37.468154,111.68146 37.273276,111.76087 37.078399,111.84027 36.940105,111.99558 36.799948,112.15532 36.710552,112.36767 36.531761,112.79237 36.7099,113.14859 36.883616,113.50296 37.463155,113.74693 L 38.064813,114.00022 Z"
       id="path38505" /><path
       d="M 28.333749,110.45327 28.965275,109.33256 30.6798,110.2987 33.481609,105.32658 34.895047,106.12305 32.093238,111.09518 33.807762,112.06132 33.176236,113.18203 Z"
       id="path38507" /><path
       d="M 29.762737,102.9377 31.111753,103.85617 27.17585,109.63709 25.826835,108.71863 Z"
       id="path38509" /><path
       d="M 25.556719,101.31678 Q 25.306111,101.10766 25.043127,101.02575 24.773382,100.94444 24.507857,100.98544 24.242332,101.02644 23.987788,101.18913 23.726484,101.35244 23.489682,101.63621 L 20.835657,104.81672 19.589989,103.77725 22.244014,100.59674 Q 22.656111,100.1029 23.162708,99.825449 23.665619,99.544923 24.213241,99.495508 24.760862,99.446094 25.32676,99.636991 25.892658,99.827888 26.427042,100.27381 26.965112,100.72281 27.254229,101.2454 27.543345,101.76798 27.59276,102.3156 27.642175,102.86322 27.456209,103.40823 27.270242,103.95324 26.858146,104.44708 L 24.20412,107.62759 22.958452,106.58812 25.609402,103.4113 Q 25.846204,103.12752 25.963777,102.84428 26.07459,102.56165 26.07047,102.28939 26.063275,102.02081 25.938681,101.77306 25.807326,101.52591 25.556719,101.31678 Z"
       id="path38511" /><path
       d="M 18.345288,96.976943 Q 18.419369,96.784595 18.510608,96.589992 18.598687,96.391775 18.700313,96.194464 18.487624,96.2721 18.279,96.339803 18.067216,96.403893 17.863563,96.448116 L 14.022576,97.42292 Q 13.922329,97.446838 13.854598,97.442313 13.780094,97.437335 13.720946,97.40617 13.661797,97.375006 13.607619,97.320361 13.550281,97.262103 13.480754,97.182622 L 12.665392,96.250517 17.929255,91.645933 18.87103,92.72255 15.843496,95.370897 Q 15.623114,95.563676 15.347643,95.766382 L 19.27352,94.793848 Q 19.456854,94.748267 19.619854,94.803379 19.779695,94.854877 19.902947,94.995777 L 20.048322,95.161966 Q 20.171574,95.302865 20.204513,95.471748 20.234292,95.637018 20.16473,95.81266 L 18.681327,99.584669 Q 18.795134,99.459606 18.915261,99.34177 19.031776,99.227093 19.136548,99.135444 L 22.164082,96.487097 23.105856,97.563714 17.841994,102.1683 17.026632,101.23619 Q 16.957105,101.15671 16.910152,101.09575 16.86004,101.03117 16.83702,100.9684 16.814,100.90563 16.822137,100.83474 16.823502,100.7634 16.860542,100.66722 L 18.345288,96.976943 Z"
       id="path38513" /><path
       d="M 13.772687,90.475455 Q 13.590161,90.590955 13.384282,90.624667 13.175837,90.654323 12.981209,90.607071 12.779959,90.558331 12.608338,90.439719 12.434151,90.31705 12.313518,90.126411 12.192885,89.935773 12.156606,89.725838 12.117761,89.511847 12.162445,89.313163 12.200507,89.11299 12.319119,88.941369 12.435165,88.765692 12.617691,88.650192 12.800217,88.534693 13.008663,88.505037 13.210485,88.473892 13.411736,88.522632 13.606364,88.569883 13.783118,88.696608 13.957305,88.819276 14.077938,89.009915 14.198571,89.200554 14.23485,89.410488 14.268562,89.616367 14.2305,89.816541 14.185816,90.015225 14.073826,90.188335 13.955214,90.359956 13.772687,90.475455 Z"
       id="path38515" /><path
       d="M 7.1243639,87.735455 6.5933954,86.479913 Q 6.5111327,86.285392 6.5453326,86.119793 6.5776629,85.949773 6.7067269,85.848288 L 9.6927079,83.543202 Q 9.8394556,83.434238 10.008308,83.315926 10.17716,83.197614 10.363696,83.071824 9.9144766,83.167991 9.5431393,83.189528 L 5.7420096,83.567091 Q 5.6013973,83.579652 5.4499183,83.492576 5.2921489,83.40295 5.2136254,83.217271 L 5.0266646,82.775178 Q 4.9444019,82.580658 4.9867619,82.422031 5.024701,82.265274 5.1399961,82.143554 L 8.0624104,79.688156 Q 8.3232653,79.442339 8.6830747,79.196368 8.4735971,79.243263 8.2818033,79.28268 8.0881399,79.317676 7.9165811,79.343324 L 4.1827572,79.88004 Q 4.0395936,79.898892 3.886245,79.807395 3.7328965,79.715899 3.654373,79.53022 L 3.1570575,78.354254 10.439667,77.619652 11.011767,78.972455 7.5319449,81.872044 Q 7.3698892,82.018751 7.148492,82.185342 7.4222382,82.142537 7.6403821,82.128457 L 12.152227,81.669219 12.724327,83.022022 Z"
       id="path38517" /><path
       d="M 4.6254147,69.175219 Q 5.3640545,69.003225 6.059717,69.112301 6.7542909,69.216702 7.3342277,69.569575 7.9094896,69.923537 8.3283606,70.515979 8.746143,71.103747 8.9311998,71.898486 9.1162566,72.693225 9.002185,73.409764 8.8881134,74.126303 8.5294768,74.702654 8.1650767,75.275418 7.5891568,75.680585 7.0121484,76.081077 6.2735086,76.253071 5.5348689,76.425065 4.840295,76.320664 4.1446325,76.211588 3.5693706,75.857626 2.9930201,75.498989 2.5741491,74.906547 2.1552781,74.314104 1.9702214,73.519365 1.7851646,72.724626 1.9049997,72.011673 2.0190713,71.295134 2.3787965,70.723459 2.7385216,70.151783 3.31553,69.751291 3.8914499,69.346124 4.6254147,69.175219 Z M 5.0020597,70.792746 Q 4.4971667,70.910312 4.1256022,71.134827 3.7493628,71.360431 3.5265609,71.673517 3.3026704,71.981927 3.2358037,72.372057 3.168937,72.762186 3.2745283,73.215655 3.3812081,73.673798 3.6146258,73.998934 3.846955,74.319395 4.1851453,74.501852 4.522247,74.679635 4.9594463,74.715827 5.3919707,74.753109 5.8968637,74.635543 6.4064316,74.516889 6.782671,74.291285 7.1542355,74.06677 7.378126,73.758359 7.6009279,73.445274 7.6677946,73.055144 7.7288978,72.661429 7.622218,72.203285 7.5166267,71.749816 7.2889725,71.428267 7.0566433,71.107806 6.7195416,70.930024 6.3813513,70.747566 5.9488269,70.710285 5.5116276,70.674092 5.0020597,70.792746 Z"
       id="path38519" /><path
       d="M 5.2286081,66.044353 7.8044782,65.80249 7.9561476,67.417785 0.99317418,68.071579 0.78047803,65.806343 Q 0.70957931,65.051264 0.81747704,64.505989 0.92014707,63.956384 1.1659171,63.59583 1.4112383,63.230496 1.7744185,63.042119 2.1375987,62.853743 2.5820438,62.812011 2.9213513,62.780151 3.2309528,62.842682 3.5405544,62.905213 3.8156709,63.062583 4.0855596,63.215623 4.3109567,63.45962 4.5359051,63.698839 4.6967971,64.026031 4.762783,63.855917 4.8740235,63.70566 4.9804849,63.555851 5.1374285,63.430229 L 7.4212661,61.721241 7.5585763,63.183609 Q 7.596718,63.589823 7.3074662,63.795363 L 5.3945495,65.141687 Q 5.2731454,65.235046 5.2252208,65.340789 5.1725174,65.446981 5.1900177,65.633361 Z M 4.1151059,66.148907 4.0540791,65.498965 Q 4.023117,65.169216 3.9203355,64.947453 3.8123263,64.72136 3.6502674,64.587122 3.4882085,64.452884 3.2859882,64.404377 3.0789889,64.356317 2.8495979,64.377856 2.3908158,64.420934 2.1610207,64.746241 1.9307768,65.066769 1.9895599,65.692815 L 2.0505866,66.342756 Z"
       id="path38521" /><path
       d="M 6.2010262,59.482746 6.23835,56.891014 7.5342156,56.909676 7.47353,61.123639 0.48065485,61.022934 0.50401674,59.400703 Z"
       id="path38523" /><path
       d="M 4.9222104,49.328662 Q 5.6740711,49.42804 6.2771315,49.774046 6.8760623,50.114665 7.2801377,50.647407 7.6794546,51.179521 7.8531217,51.88032 8.0226591,52.575732 7.9157333,53.384696 L 7.5597331,56.078071 0.62643493,55.161653 0.98243508,52.468279 Q 1.0893609,51.659314 1.4385122,51.032461 1.7882925,50.400849 2.3121464,49.990757 2.8360004,49.580665 3.5076192,49.407983 4.1751082,49.229913 4.9222104,49.328662 Z M 4.7045849,50.975142 Q 4.1906547,50.907212 3.7590441,50.985733 3.3274335,51.064253 3.0085811,51.278721 2.685599,51.487801 2.4855213,51.829328 2.2806849,52.170227 2.2196743,52.631812 L 2.0775258,53.707259 6.5363456,54.296609 6.6784941,53.221162 Q 6.7395047,52.759577 6.6350313,52.377795 6.5257992,51.995384 6.2729892,51.710198 6.0160495,51.419624 5.6196616,51.231662 5.2232736,51.0437 4.7045849,50.975142 Z"
       id="path38525" /><path
       d="M 2.2160638,44.940146 2.6700969,43.654779 Q 2.74044,43.455638 2.8773213,43.356359 3.0158014,43.252555 3.1795458,43.264579 L 6.9390019,43.574409 Q 7.1208501,43.592828 7.3253279,43.61924 7.5298058,43.645653 7.7523874,43.67846 7.3557258,43.446714 7.0668986,43.212334 L 4.0044791,40.929194 Q 3.8921411,40.843697 3.838933,40.677273 3.7827976,40.504724 3.8499433,40.314635 L 4.0098141,39.862041 Q 4.0801573,39.6629 4.2183671,39.574272 4.3520511,39.484046 4.5192631,39.471841 L 8.3330753,39.627789 Q 8.6914575,39.622025 9.1230429,39.682843 8.9366912,39.576292 8.7684433,39.476136 8.601794,39.371454 8.4577745,39.274766 L 5.3378015,37.15456 Q 5.2193389,37.07199 5.1677295,36.90104 5.11612,36.73009 5.1832658,36.540001 L 5.6085221,35.336101 11.483398,39.702091 10.994194,41.087029 6.4692238,40.883503 Q 6.2506277,40.882648 5.9747931,40.856484 6.2058639,41.009374 6.3764987,41.146008 L 10.018982,43.847853 9.5297773,45.23279 Z"
       id="path38527" /><path
       d="M 13.457109,35.664704 12.724907,37.123232 6.4746843,33.985531 7.2068863,32.527003 Z"
       id="path38529" /><path
       d="M 14.464644,27.198197 Q 15.105696,27.603441 15.508307,28.17028 15.909425,28.730497 16.053121,29.383523 16.192759,30.033984 16.056833,30.743071 15.919415,31.445536 15.483392,32.135275 L 14.031695,34.431702 8.1202212,30.694735 9.5719189,28.398308 Q 10.007941,27.708568 10.587605,27.285671 11.169833,26.858716 11.817309,26.705834 12.464785,26.552951 13.146963,26.677545 13.827649,26.795518 14.464644,27.198197 Z M 13.57721,28.60202 Q 13.139023,28.325017 12.714223,28.215481 12.289423,28.105944 11.910049,28.16709 11.529183,28.221614 11.204422,28.447894 10.875604,28.671608 10.626815,29.065166 L 10.047162,29.982113 13.848844,32.385366 14.428497,31.468418 Q 14.677286,31.07486 14.74238,30.684432 14.803417,30.291438 14.693351,29.926568 14.581793,29.555077 14.300624,29.218332 14.019455,28.881587 13.57721,28.60202 Z"
       id="path38531" /><path
       d="M 15.497347,20.415469 16.462572,21.206573 14.643033,23.42659 15.905251,24.46111 17.29881,22.76083 18.226911,23.521506 16.833351,25.221787 18.121556,26.277606 19.941094,24.057589 20.906319,24.848692 18.05226,28.330927 12.643288,23.897704 Z"
       id="path38533" /><path
       d="M 18.083252,17.45798 19.132965,16.588258 Q 19.295597,16.453512 19.464034,16.438626 19.636167,16.420677 19.770492,16.515089 L 22.837153,18.711699 Q 22.983727,18.820896 23.145614,18.948574 23.3075,19.076251 23.481636,19.218714 23.260301,18.81615 23.132847,18.466707 L 21.677717,14.934889 Q 21.625235,14.803835 21.665051,14.633709 21.705501,14.456825 21.86074,14.328204 L 22.230357,14.021964 Q 22.392989,13.887218 22.557096,13.882153 22.718141,13.873391 22.867884,13.948795 L 26.060215,16.041284 Q 26.370684,16.220393 26.709769,16.494229 26.604592,16.307099 26.511665,16.134753 26.422435,15.959344 26.348516,15.802416 L 24.760324,12.380845 Q 24.701084,12.249157 24.744596,12.075969 24.788109,11.902781 24.943348,11.77416 L 25.92653,10.959561 28.725174,17.722965 27.594145,18.66006 23.816044,16.161515 Q 23.628918,16.048516 23.405677,15.884404 23.525425,16.134263 23.601666,16.339135 L 25.33948,20.528126 24.208451,21.465222 Z"
       id="path38535" /><path
       d="M 31.329474,7.802567 31.975324,8.8704533 29.519185,10.355909 30.363759,11.752376 32.244882,10.614686 32.865892,11.6415 30.984769,12.77919 31.846731,14.204408 34.30287,12.718952 34.94872,13.786838 31.096115,16.116868 27.476868,10.132597 Z"
       id="path38537" /><path
       d="M 35.831799,13.310813 32.913019,6.9554087 35.251041,5.8816503 Q 35.909699,5.579155 36.428161,5.4889427 36.946623,5.3987304 37.341043,5.4869716 37.735463,5.5752127 38.012562,5.8335389 38.294023,6.0898617 38.474318,6.4824399 38.572479,6.6961769 38.603562,6.9248739 38.632642,7.1492089 38.581914,7.3837866 38.531185,7.6183642 38.392281,7.8564637 38.251372,8.0902012 38.011561,8.3271053 38.7098,8.1913022 39.169036,8.3976722 39.626269,8.5996803 39.872672,9.1362038 40.058977,9.541868 40.062208,9.9629445 40.06544,10.384021 39.880298,10.785969 39.697515,11.181553 39.320704,11.534194 38.941891,11.882474 38.370471,12.144904 Z M 36.068121,9.938001 36.795312,11.5214 37.833463,11.044619 Q 38.125716,10.910399 38.274863,10.752108 38.428372,10.591813 38.478971,10.425961 38.52957,10.260109 38.500717,10.093772 38.471863,9.927435 38.401748,9.7747657 38.321617,9.6002865 38.20953,9.4827392 38.101805,9.3631886 37.944322,9.3193104 37.7912,9.2734288 37.583957,9.3052229 37.376715,9.3370169 37.097548,9.4652268 Z M 35.615379,8.9521936 36.383088,8.5996162 Q 36.627359,8.4874325 36.807622,8.362389 36.987885,8.2373456 37.08304,8.0880043 37.182558,7.9366597 37.182235,7.7519379 37.186274,7.5652128 37.0801,7.3340279 36.975929,7.107205 36.851112,6.9849403 36.724291,6.8583136 36.564449,6.8208006 36.404607,6.7832876 36.203374,6.8281676 36.006503,6.8710443 35.757871,6.9852313 L 34.894198,7.3818808 Z"
       id="path38539" /><path
       d="M 47.876053,6.9888138 Q 47.931603,6.9735828 47.993499,6.9814975 48.054126,6.984783 48.119008,7.0217419 L 48.918278,7.5043716 Q 48.656878,8.1484178 48.116087,8.5903481 47.578656,9.02638 46.740781,9.2561148 45.972342,9.4668108 45.290217,9.37512 44.611451,9.2775308 44.059914,8.9360165 43.511736,8.5886039 43.11229,8.0212334 42.711574,7.4492337 42.508493,6.7085702 42.301605,5.9540193 42.374331,5.257185 42.445788,4.5557215 42.76453,3.9755876 43.083272,3.3954538 43.633769,2.9707709 44.184266,2.5460879 44.929559,2.3417381 45.309149,2.2376594 45.661486,2.2157104 46.017183,2.187863 46.34182,2.2282578 46.665188,2.2640235 46.956225,2.3634024 47.247263,2.4627813 47.490367,2.6051661 L 47.15684,3.4581203 Q 47.123689,3.5368902 47.069483,3.6114787 47.014007,3.6814381 46.88902,3.715708 46.805696,3.7385545 46.721475,3.7218294 46.637255,3.7051043 46.539969,3.6770302 46.441413,3.644327 46.323071,3.6120717 46.20809,3.5739179 46.055254,3.5610749 45.905777,3.5423335 45.710457,3.5560705 45.519767,3.5685381 45.274422,3.6358086 44.885574,3.7424258 44.60088,3.9747771 44.320816,4.2058591 44.160885,4.5483398 44.004313,4.8849221 43.985122,5.3231969 43.969291,5.7555734 44.110178,6.2694087 44.252334,6.7878731 44.501634,7.1525312 44.755562,7.5159202 45.072433,7.7276678 45.392664,7.933517 45.756051,7.9881729 46.119438,8.0428287 46.48977,7.9412884 46.70271,7.8829028 46.873541,7.8161546 47.043102,7.7447773 47.183172,7.6566004 47.321972,7.5637945 47.43464,7.4482906 47.546038,7.3281577 47.650643,7.1650931 47.6935,7.1035706 47.750693,7.0580262 47.806616,7.0078526 47.876053,6.9888138 Z"
       id="path38541" /><path
       d="M 56.071995,4.0062128 Q 56.173343,4.7578105 55.998948,5.4400349 55.82931,6.1216179 55.423158,6.6655728 55.016365,7.2047708 54.386955,7.5657194 53.762302,7.9260266 52.953621,8.0350726 52.14494,8.1441187 51.442405,7.9627753 50.739869,7.7814319 50.20003,7.3698819 49.664306,6.9529335 49.315437,6.3412682 48.971325,5.7289616 48.869977,4.9773639 48.768628,4.2257662 48.938266,3.5441833 49.112661,2.8619588 49.519455,2.3227608 49.931005,1.7829214 50.560415,1.4219728 51.189825,1.0610242 51.998506,0.95197814 52.807187,0.84293212 53.505606,1.0296739 54.208142,1.2110173 54.743224,1.6232087 55.278307,2.0354002 55.622419,2.6477069 55.971287,3.2593721 56.071995,4.0062128 Z M 54.426091,4.2281535 Q 54.356815,3.7144032 54.168456,3.3232663 53.979455,2.9273724 53.68885,2.6759523 53.403002,2.4238907 53.020948,2.3204184 52.638893,2.2169461 52.17747,2.2791664 51.711289,2.3420283 51.36553,2.543642 51.024528,2.7446143 50.810897,3.0640278 50.602023,3.3827999 50.524634,3.8146149 50.446604,4.2416729 50.51588,4.7554232 50.585798,5.2739304 50.774798,5.6698243 50.963157,6.0609612 51.249006,6.3130228 51.539611,6.564443 51.921665,6.6679153 52.307835,6.7659892 52.774015,6.7031274 53.235439,6.640907 53.577083,6.4446917 53.918084,6.2437194 54.126959,5.9249473 54.34059,5.6055337 54.41862,5.1784757 54.496009,4.7466608 54.426091,4.2281535 Z"
       id="path38543" /><path
       d="M 58.44123,0.47434569 Q 58.546823,0.47555777 58.618708,0.48598355 58.690593,0.49640933 58.747859,0.52586857 58.805179,0.55052812 58.857425,0.599131 58.90967,0.64773388 58.975929,0.73009983 L 62.249103,4.9679486 Q 62.232218,4.7661415 62.224768,4.5788437 62.217372,4.3867461 62.2193,4.2187572 L 62.261778,0.51820081 63.692084,0.53461894 63.611811,7.5277585 62.767067,7.5180619 Q 62.579879,7.5159132 62.450949,7.4568295 62.326874,7.3930011 62.20379,7.2427785 L 58.954229,3.0388029 Q 58.966534,3.2213562 58.974095,3.3990547 58.981711,3.5719535 58.979948,3.7255434 L 58.936919,7.4740966 57.506613,7.4576785 57.586886,0.46453889 58.44123,0.47434569 Z"
       id="path38545" /><path
       d="M 69.529464,2.6775418 Q 69.442864,2.7822103 69.354364,2.8285152 69.270623,2.8754548 69.146918,2.8589534 69.037488,2.844356 68.917911,2.7606099 68.803727,2.6727407 68.653384,2.5655205 68.507798,2.458935 68.312096,2.3650342 68.117028,2.2663756 67.855346,2.2314687 67.40335,2.1711751 67.153709,2.3364178 66.909461,2.4975372 66.865669,2.8258293 66.837743,3.035175 66.952558,3.1909236 67.067372,3.3466721 67.268148,3.4751473 67.473681,3.604257 67.738213,3.7267093 68.008137,3.8450383 68.284403,3.988426 68.561305,4.1270558 68.818855,4.3018445 69.081163,4.4772679 69.266706,4.7199315 69.457008,4.9632298 69.548974,5.2902613 69.641575,5.6125348 69.58382,6.0454997 69.519719,6.5260432 69.297343,6.9225211 69.074967,7.318999 68.714302,7.5904947 68.35903,7.8578672 67.868643,7.9764681 67.383648,8.0909458 66.793674,8.0122468 66.47014,7.9690893 66.141217,7.8574177 65.817053,7.7463809 65.518901,7.5855463 65.221384,7.4199538 64.967642,7.216618 64.713899,7.0132822 64.536602,6.7814036 L 65.112666,6.0931293 Q 65.180549,6.0198618 65.27793,5.9795841 65.380703,5.9351832 65.490134,5.9497806 65.63287,5.9688207 65.763547,6.07826 65.898981,6.188334 66.065183,6.3218822 66.236142,6.456065 66.461976,6.5781977 66.68781,6.7003305 67.011344,6.743488 67.449067,6.8018776 67.717104,6.6439315 67.985776,6.4812275 68.041627,6.0625362 68.073995,5.8198855 67.961085,5.6498634 67.848174,5.4798412 67.642641,5.3507314 67.441865,5.2222563 67.176064,5.1093198 66.910264,4.9963833 66.632093,4.8672691 66.354557,4.7333972 66.096372,4.5633664 65.838822,4.3885777 65.649155,4.1405215 65.464881,3.8883421 65.375454,3.5422793 65.28666,3.1914586 65.351397,2.7061573 65.40344,2.3160131 65.609953,1.9658444 65.816467,1.6156757 66.159684,1.3660653 66.502902,1.1164549 66.968231,1.0041964 67.434194,0.88717994 68.005137,0.96334029 68.323913,1.0058632 68.616677,1.0981838 68.914833,1.1863812 69.172703,1.3224723 69.431207,1.4538056 69.645937,1.6228822 69.866059,1.7878357 70.028767,1.9838706 Z"
       id="path38547" /><path
       d="M 77.769367,6.761996 Q 77.576596,7.4954876 77.155337,8.0597436 76.73872,8.6252197 76.1559,8.9733104 75.5743,9.3167586 74.854827,9.4105629 74.139996,9.5055873 73.350796,9.2981754 72.561597,9.0907635 71.981211,8.6553397 71.400826,8.2199158 71.058598,7.6336737 70.722232,7.0440092 70.632832,6.3455455 70.548075,5.6483019 70.740846,4.9148103 70.933617,4.1813186 71.350233,3.6158426 71.771492,3.0515865 72.353092,2.7081383 72.939334,2.3659101 73.658807,2.2721058 74.378281,2.1783015 75.16748,2.3857134 75.95668,2.5931252 76.531203,3.0319714 77.111588,3.4673952 77.449174,4.0524173 77.78676,4.6374394 77.871518,5.3346831 77.960918,6.0331468 77.769367,6.761996 Z M 76.163113,6.3398518 Q 76.29488,5.8384778 76.26982,5.4050736 76.245981,4.967027 76.07314,4.6238222 75.904942,4.2818375 75.591166,4.0405569 75.277389,3.7992763 74.827081,3.6809296 74.37213,3.5613627 73.975627,3.6159726 73.583766,3.6718025 73.264517,3.88568 72.949911,4.1007774 72.713779,4.4705001 72.478867,4.8355804 72.3471,5.3369544 72.214112,5.8429708 72.237952,6.2810174 72.263012,6.7144216 72.43121,7.0564063 72.60405,7.3996111 72.917827,7.6408917 73.237466,7.87875 73.692416,7.9983168 74.142724,8.1166636 74.533365,8.065476 74.925226,8.0096461 75.239833,7.7945486 75.559081,7.5806712 75.793993,7.2155909 76.030125,6.8458682 76.163113,6.3398518 Z"
       id="path38549" /><path
       d="M 80.251675,8.7522464 79.268513,11.145361 77.767822,10.528833 80.425458,4.0598756 82.529978,4.9244738 Q 83.231485,5.2126732 83.664122,5.5616596 84.103023,5.9080302 84.308023,6.2932286 84.517462,6.6802511 84.515439,7.0893739 84.513417,7.4984968 84.343781,7.911409 84.214273,8.226643 84.015,8.4717009 83.815727,8.7167587 83.548511,8.8872004 83.28756,9.0550262 82.966755,9.1411801 82.650389,9.229158 82.285906,9.2195284 82.405854,9.3570246 82.487187,9.5253598 82.570343,9.689255 82.608619,9.8866052 L 83.060202,12.703097 81.701587,12.144939 Q 81.324194,11.989895 81.276656,11.63825 L 80.973769,9.3187466 Q 80.947539,9.1678601 80.87619,9.0762761 80.806664,8.9802522 80.633507,8.9091144 Z M 80.676677,7.7177459 81.280506,7.9658163 Q 81.58686,8.0916755 81.830985,8.1037512 82.081374,8.113211 82.275557,8.0321191 82.469739,7.9510271 82.606684,7.7945272 82.745453,7.6335874 82.833007,7.4204714 83.008116,6.9942395 82.8269,6.6395691 82.650123,6.2867227 82.068494,6.0477725 L 81.464666,5.7997022 Z"
       id="path38551" /><path
       d="M 91.22588,9.261894 90.604126,10.388059 88.881262,9.4368688 86.12281,14.433175 84.702498,13.649023 87.460949,8.6527168 85.738085,7.7015266 86.359839,6.5753617 Z"
       id="path38553" /><path
       d="M 89.862358,16.789528 88.505382,15.882864 92.390703,10.067822 93.74768,10.974485 Z"
       id="path38555" /><path
       d="M 94.082346,18.373625 Q 94.334769,18.580554 94.598458,18.660171 94.868902,18.739118 95.134059,18.695804 95.399216,18.652489 95.65233,18.487581 95.9122,18.322005 96.146516,18.036173 L 98.772688,14.832628 100.02738,15.861186 97.401207,19.064731 Q 96.993435,19.562153 96.489279,19.844013 95.988834,20.128917 95.441665,20.183108 94.894496,20.2373 94.326953,20.051348 93.759411,19.865396 93.221156,19.42415 92.679189,18.979862 92.385523,18.459821 92.091858,17.939779 92.037666,17.39261 91.983475,16.845441 92.164679,16.298833 92.345882,15.752226 92.753654,15.254804 L 95.379826,12.051259 96.634517,13.079818 94.011388,16.27965 Q 93.777071,16.565482 93.661974,16.849739 93.553632,17.133327 93.560127,17.405541 93.569666,17.674043 93.696417,17.920704 93.829923,18.166696 94.082346,18.373625 Z"
       id="path38557" /><path
       d="M 101.33154,22.65085 Q 101.25912,22.843831 101.16957,23.039215 101.0832,23.238184 100.98328,23.436366 101.19529,23.356896 101.40333,23.287395 101.61455,23.221479 101.81781,23.175499 L 105.65024,22.167573 Q 105.75028,22.14279 105.81805,22.14673 105.89259,22.151064 105.952,22.181717 106.01142,22.212371 106.06607,22.266545 106.12391,22.324306 106.19412,22.403184 L 107.0175,23.328215 101.79358,27.97807 100.84255,26.909624 103.8471,24.235239 Q 104.06581,24.040564 104.33952,23.835488 L 100.42219,24.841878 Q 100.23926,24.889039 100.07579,24.835337 99.915507,24.785221 99.791043,24.64539 L 99.644239,24.480462 Q 99.519774,24.340632 99.485378,24.17204 99.454174,24.007033 99.522217,23.830797 L 100.973,20.046123 Q 100.86028,20.172163 100.74117,20.291033 100.62565,20.406711 100.52168,20.499261 L 97.517118,23.173646 96.566084,22.105199 101.79,17.455344 102.61338,18.380375 Q 102.68359,18.459254 102.73107,18.519811 102.78173,18.583954 102.80529,18.646521 102.82886,18.709088 102.82133,18.780048 102.82058,18.851401 102.78437,18.947891 L 101.33154,22.65085 Z"
       id="path38559" /></g></svg>
