<?xml version="1.0" encoding="UTF-8" standalone="no"?>
<svg
   width="45.000843"
   height="25.175005"
   version="1.1"
   viewBox="0 0 33.750632 18.881254"
   id="svg4"
   xml:space="preserve"
   xmlns="http://www.w3.org/2000/svg"
   xmlns:svg="http://www.w3.org/2000/svg"><defs
     id="defs8" /><path
     style="opacity:1;fill:none;stroke:#005a9c;stroke-width:3.00001;stroke-linecap:round;stroke-dasharray:none"
     d="M 19.795446,16.130619 19.805707,16.141893 C 20.617368,17.004534 21.852003,17.381232 22.782305,17.381232 24.482111,17.381232 25.806069,16.117797 25.806069,16.117797 M 14.133501,4.4545894 C 14.133501,4.4545894 15.430686,3.1932033 17.107025,3.1932033 18.152399,3.1932033 19.312473,3.5258364 20.104647,4.4212572 L 25.451238,10.465144 C 26.202487,11.314313 27.49272,11.70602 28.457582,11.70602 31.387909,11.70602 32.250628,10.563701 32.250628,9.1545317 32.250628,7.7453713 31.108289,6.603046 29.699111,6.603046 M 19.795446,16.130619 8.7853739,4.4299718 C 8.2729085,3.8853417 7.2644614,3.1932033 5.7564688,3.1932033 3.5097127,3.1932033 1.5026366,5.0054722 1.5000074,7.4496156 1.4986975,8.6676057 1.8865866,9.5708353 2.7906341,10.475405 L 8.4561736,16.143952 C 9.3602213,17.048509 10.284712,17.384433 11.431748,17.381232 13.118752,17.376516 13.686578,16.921757 14.441166,16.142405 M 27.89471,2.2473262 C 28.34893,1.7782034 28.994341,1.500005 29.698924,1.500005 31.108113,1.500005 32.25047,2.6423598 32.25047,4.0515205 32.25047,5.4591843 31.106556,6.603046 29.698924,6.603046"
     id="path2" /></svg>
