<?xml version="1.0" encoding="UTF-8" standalone="no"?>
<svg
   width="60.000004"
   height="59.995983"
   version="1.1"
   viewBox="0 0 45.000003 44.996987"
   id="svg12"
   xml:space="preserve"
   xmlns="http://www.w3.org/2000/svg"
   xmlns:svg="http://www.w3.org/2000/svg"><defs
     id="defs16" /><g
     aria-label="W3C"
     transform="matrix(0.23939031,0,0,0.23939031,-19.018837,-21.61863)"
     id="g8"><path
       d="M 148.62207,277.35891 H 139.07764 L 125.05176,235.36477 111.27539,277.35891 H 101.64795 L 84.30274,219.26418 H 95.75586 L 107.45752,260.67727 120.4043,219.26418 H 130.5293 L 143.80811,260.76027 155.42725,219.26418 H 165.22022 L 148.62208,277.35891 Z"
       style="fill:#ffffff;fill-opacity:1"
       id="path2" /><path
       d="M 167.45996,268.47902 172.85449,261.50734 C 175.75928,265.82277 180.24121,268.72804 185.30371,268.72804 191.52832,268.72804 194.68164,265.0757 194.68164,260.67726 194.68164,255.36574 190.61523,252.46144 183.89258,252.46144 H 179.74317 V 242.91652 H 183.47755 C 188.20802,242.91652 192.44044,239.92922 192.44044,234.94972 192.44044,230.80031 190.03419,227.89503 185.0547,227.89503 180.40675,227.89503 177.00441,229.88722 174.09962,234.11964 L 168.7881,227.39698 C 171.94191,221.50538 178.00001,218.35108 185.96779,218.35108 195.92677,218.35108 202.64943,223.99463 202.64943,233.12354 202.64943,239.68018 199.66115,244.32764 193.76857,246.90088 V 247.1499 C 200.98927,248.39404 204.88966,254.1206 204.88966,261.00928 204.88966,271.71533 196.59083,278.27198 185.88478,278.27198 177.00441,278.27198 170.53078,274.37159 167.45998,268.47901 Z"
       style="fill:#ffffff;fill-opacity:1"
       id="path4" /><path
       d="M 261.90625,271.71535 C 258.25488,275.61574 250.86816,278.27199 243.31641,278.27199 225.55567,278.27199 213.35547,266.40383 213.35547,248.31105 213.35547,231.63039 223.89551,218.35109 243.06738,218.35109 250.61914,218.35109 256.92676,220.75832 260.74414,224.24367 L 256.17969,231.7964 C 252.69434,229.47218 248.87696,227.89503 243.06739,227.89503 232.27833,227.89503 224.14454,235.69679 224.14454,248.31105 224.14454,260.42824 232.36134,268.72804 244.22852,268.72804 249.12598,268.72804 254.02247,267.15089 258.00586,264.08058 Z"
       style="fill:#ffffff;fill-opacity:1"
       id="path6" /></g><path
     style="opacity:1;fill:none;stroke:#ffffff;stroke-width:3.99994;stroke-linecap:round;stroke-dasharray:none;stroke-opacity:1"
     d="M 26.393433,21.50709 26.407114,21.522122 C 27.489309,22.672288 29.135458,23.174543 30.375837,23.174543 32.642203,23.174543 34.407447,21.489994 34.407447,21.489994 M 18.844315,5.939342 C 18.844315,5.939342 20.573862,4.257525 22.808939,4.257525 24.202745,4.257525 25.749481,4.701028 26.805693,5.8949 L 33.934348,13.953265 C 34.935994,15.085469 36.656273,15.607735 37.942731,15.607735 41.849761,15.607735 43.000031,14.084672 43.000031,12.205815 43.000031,10.326969 41.476941,8.803897 39.598072,8.803897 M 26.393433,21.50709 11.713612,5.90652 C 11.030338,5.18036 9.6857682,4.257525 7.6751482,4.257525 4.6795292,4.257525 2.0034782,6.673839 1.9999732,9.932636 1.9982262,11.556592 2.5154022,12.760875 3.7207772,13.966946 L 11.274687,21.524867 C 12.480062,22.73092 13.712692,23.178811 15.242045,23.174543 17.491341,23.168255 18.248428,22.561921 19.254527,21.522804 M 37.192249,2.99638 C 37.797865,2.370894 38.658397,1.99997 39.597823,1.99997 41.476707,1.99997 42.999821,3.523082 42.999821,5.401926 42.999821,7.278777 41.474631,8.803897 39.597823,8.803897"
     id="path2-5" /></svg>
