<?xml version="1.0" encoding="UTF-8" standalone="no"?>
<svg
   width="120"
   height="120"
   version="1.1"
   viewBox="0 0 120 120"
   id="svg12"
   xml:space="preserve"
   xmlns="http://www.w3.org/2000/svg"
   xmlns:svg="http://www.w3.org/2000/svg"><defs
     id="defs16" /><path
     style="fill:none;stroke:#005a9c;stroke-width:10.6665;stroke-linecap:round"
     d="m 70.378958,57.352001 0.04,0.0401 c 2.885988,3.067097 7.274969,4.406441 10.582955,4.406441 6.043975,0 10.750957,-4.492121 10.750957,-4.492121 M 50.251042,15.838184 c 0,0 4.61198,-4.484821 10.572956,-4.484821 3.715984,0 7.840967,1.182665 10.657955,4.366311 l 19.008922,21.488881 c 2.670989,3.019197 7.25897,4.411902 10.688955,4.411902 10.41895,0 13.48694,-4.061484 13.48694,-9.071753 0,-5.010239 -4.06198,-9.071742 -9.07196,-9.071742 M 70.381958,57.352001 31.236121,15.750654 c -1.821993,-1.936422 -5.407978,-4.397301 -10.768955,-4.397301 -7.988967,0 -15.1249372,6.443473 -15.1339371,15.133567 0,4.330532 1.3739942,7.541938 4.5889808,10.758115 L 30.066126,57.399411 c 3.213986,3.216126 6.500973,4.410501 10.578956,4.399121 5.997975,-0.0168 8.016966,-1.633653 10.699955,-4.404621 M 99.178839,7.9903065 c 1.614991,-1.667953 3.909981,-2.6570789 6.414971,-2.6570789 5.00998,0 9.07196,4.061613 9.07196,9.0718424 0,5.004919 -4.06698,9.071892 -9.07196,9.071892"
     id="path2-5" /><path
     style="font-weight:bold;font-size:57.0693px;line-height:1.1;font-family:Carlito;-inkscape-font-specification:'Carlito Bold';text-align:center;letter-spacing:1.49341px;text-anchor:middle;fill:#002a56;stroke-width:20.1584"
     d="m 3.4993619,82.604003 h 6.1304914 q 0.9753057,0 1.5883547,0.445854 0.640915,0.445854 0.863842,1.170367 l 5.46171,21.373126 q 0.47372,1.67195 0.891708,3.87335 0.222927,-1.08677 0.445854,-2.06207 0.222927,-1.00317 0.529452,-1.83915 l 6.464881,-21.345256 q 0.222927,-0.640915 0.863842,-1.114635 0.640915,-0.501586 1.532623,-0.501586 h 2.145672 q 0.975306,0 1.560489,0.445854 0.613049,0.417988 0.863842,1.170367 l 6.464882,21.373126 q 0.278658,0.80811 0.501585,1.78341 0.250793,0.94744 0.47372,2.00634 0.195061,-1.0589 0.390122,-2.00634 0.222927,-0.94744 0.445854,-1.75555 l 5.461711,-21.400986 q 0.195061,-0.640915 0.835976,-1.114635 0.668781,-0.501586 1.560489,-0.501586 h 5.740369 L 43.737678,119.60988 H 37.105601 L 29.776877,95.004315 q -0.167195,-0.473719 -0.33439,-1.058903 -0.13933,-0.585183 -0.278659,-1.226098 -0.139329,0.640915 -0.306524,1.226098 -0.167196,0.585184 -0.306525,1.058903 L 21.082726,119.60988 H 14.478515 Z M 58.578839,119.60988 Z M 72.093786,82.186015 q 2.56366,0 4.597868,0.752379 2.062074,0.752378 3.483234,2.062074 1.421159,1.28183 2.173538,3.03738 0.780244,1.727684 0.780244,3.706161 0,1.755549 -0.390122,3.093111 -0.362256,1.337562 -1.086769,2.340733 -0.724513,1.003172 -1.783416,1.699818 -1.058903,0.696647 -2.396465,1.142499 6.325553,2.14567 6.325553,8.55482 0,2.81446 -1.031037,4.96013 -1.003172,2.11781 -2.730856,3.56683 -1.699818,1.44903 -3.984819,2.17354 Q 73.793604,120 71.285675,120 q -2.647257,0 -4.681466,-0.61305 -2.006343,-0.61305 -3.538965,-1.83915 -1.504757,-1.25396 -2.619392,-3.09311 -1.086769,-1.83914 -1.867013,-4.26348 l 2.953782,-1.25396 q 1.170366,-0.47372 2.173538,-0.22293 1.031037,0.22293 1.449025,1.08677 0.501586,0.94744 1.058903,1.78342 0.557317,0.80811 1.253964,1.44902 0.724513,0.61305 1.644086,0.97531 0.919574,0.36225 2.117807,0.36225 1.476891,0 2.56366,-0.47371 1.114634,-0.50159 1.839147,-1.28183 0.724513,-0.80812 1.086769,-1.81129 0.362256,-1.00317 0.362256,-2.00634 0,-1.28183 -0.250793,-2.34073 -0.222927,-1.05891 -1.058903,-1.81128 -0.80811,-0.75238 -2.396464,-1.17037 -1.588355,-0.41799 -4.31921,-0.41799 v -4.765062 q 2.285001,-0.02787 3.734026,-0.417988 1.476891,-0.390122 2.312867,-1.086769 0.835977,-0.724513 1.142501,-1.699818 0.306525,-0.975305 0.306525,-2.173538 0,-2.535794 -1.28183,-3.817624 -1.253964,-1.28183 -3.538966,-1.28183 -2.034208,0 -3.399636,1.142501 -1.365428,1.1425 -1.894879,2.814452 -0.445854,1.281831 -1.198232,1.671953 -0.724513,0.390122 -2.089941,0.167195 l -3.538965,-0.613049 q 0.390122,-2.70299 1.476891,-4.709332 1.086769,-2.034209 2.730855,-3.371771 1.644086,-1.365427 3.734027,-2.034208 2.117806,-0.696647 4.542137,-0.696647 z m 40.477764,28.451055 q 0.58518,0 1.00317,0.44585 l 2.92591,3.14885 q -2.00634,2.81445 -5.04372,4.29134 Q 108.4474,120 104.29538,120 q -3.76189,0 -6.771403,-1.39329 -3.009514,-1.42116 -5.12732,-3.92909 -2.08994,-2.53579 -3.232441,-5.99116 -1.114635,-3.48324 -1.114635,-7.60738 0,-4.15202 1.198233,-7.607387 1.226098,-3.483234 3.427502,-5.991162 2.201404,-2.507929 5.266649,-3.901222 3.065245,-1.393294 6.743545,-1.393294 3.73402,0 6.60421,1.337562 2.87018,1.309696 4.79293,3.483234 l -2.4522,3.427502 q -0.25079,0.306524 -0.58518,0.557317 -0.30653,0.250793 -0.89171,0.250793 -0.58518,0 -1.1425,-0.445854 -0.52945,-0.445854 -1.33756,-0.975305 -0.78025,-0.529452 -1.97848,-0.975306 -1.19823,-0.445854 -3.06525,-0.445854 -2.0342,0 -3.70616,0.863842 -1.671949,0.835976 -2.870181,2.480063 -1.198233,1.61622 -1.867014,3.984819 -0.640915,2.340733 -0.640915,5.350252 0,3.03737 0.724513,5.40597 0.724513,2.3686 1.950611,4.01269 1.253964,1.61622 2.925916,2.48006 1.67195,0.83598 3.5947,0.83598 1.1425,0 2.06207,-0.11147 0.91958,-0.13933 1.69982,-0.44585 0.80811,-0.33439 1.50476,-0.83598 0.69664,-0.50158 1.39329,-1.25396 0.27866,-0.22293 0.55732,-0.36226 0.30652,-0.16719 0.61305,-0.16719 z"
     id="text1"
     aria-label="W3C" /></svg>
