<?xml version="1.0" encoding="UTF-8" standalone="no"?>
<svg
   width="120.00002"
   height="120"
   version="1.1"
   viewBox="0 0 120.00002 120"
   id="svg12"
   xmlns="http://www.w3.org/2000/svg"
   xmlns:svg="http://www.w3.org/2000/svg">
  <defs
     id="defs16" />
  <path
     style="fill:none;stroke:#ffffff;stroke-width:10.6665;stroke-linecap:round"
     d="M 70.382491,57.352242 70.418974,57.392327 C 73.304828,60.459437 77.694558,61.798784 81.002236,61.798784 87.045879,61.798784 91.753198,57.306653 91.753198,57.306653 M 50.251508,15.838242 C 50.251508,15.838242 54.863633,11.353397 60.82384,11.353397 64.540657,11.353397 68.665286,12.536072 71.481852,15.719731 L 90.4916,37.208706 C 93.162657,40.227917 97.750068,41.620627 101.18063,41.620627 111.59937,41.620627 114.66677,37.559125 114.66677,32.54884 114.66677,27.538582 110.60519,23.477057 105.59487,23.477057 M 70.382491,57.352242 31.236298,15.750717 C 29.414234,13.814291 25.828714,11.353397 20.46706,11.353397 12.478742,11.353397 5.3426052,17.796902 5.3332586,26.487028 5.3285999,30.817578 6.707736,34.029 9.9220697,37.245189 L 30.065832,57.399648 C 33.280165,60.615789 36.567178,61.810165 40.645454,61.798784 46.643577,61.782016 48.662476,60.165125 51.345406,57.394146 M 99.179337,7.9903437 C 100.79431,6.3223809 103.08907,5.3332501 105.5942,5.3332501 110.60457,5.3332501 114.66621,9.3948825 114.66621,14.405133 114.66621,19.41007 110.59903,23.477057 105.5942,23.477057"
     id="path2-5" />
  <path
     d="M 3.4530943,81.557274 H 9.755181 q 1.002605,0 1.632813,0.458333 0.658855,0.458334 0.888022,1.203126 l 5.614586,21.971367 q 0.48698,1.71875 0.916667,3.98177 0.229167,-1.11719 0.458334,-2.11979 0.229167,-1.03125 0.544271,-1.89063 l 6.645837,-21.942717 q 0.229167,-0.658855 0.888021,-1.145834 0.658855,-0.515625 1.575522,-0.515625 h 2.20573 q 1.002605,0 1.604168,0.458333 0.630208,0.429688 0.888021,1.203126 L 40.26301,105.1901 q 0.286459,0.83073 0.515625,1.83333 0.257813,0.97396 0.48698,2.0625 0.200521,-1.08854 0.401042,-2.0625 0.229166,-0.97396 0.458333,-1.80469 l 5.614587,-22.000007 q 0.200521,-0.658855 0.859375,-1.145834 0.6875,-0.515625 1.604168,-0.515625 h 5.901044 L 44.8177,119.59896 H 37.999988 L 30.46613,94.304676 q -0.171875,-0.486979 -0.34375,-1.088542 -0.14323,-0.601563 -0.286459,-1.260417 -0.143229,0.658854 -0.315104,1.260417 -0.171875,0.601563 -0.315105,1.088542 L 21.528625,119.59896 H 14.739559 Z M 58.539061,119.59896 Z M 72.432297,81.127586 q 2.635419,0 4.726566,0.773438 2.119792,0.773438 3.580731,2.119793 1.460938,1.317709 2.234376,3.122397 0.802084,1.776043 0.802084,3.809898 0,1.804688 -0.401042,3.179689 -0.372396,1.375001 -1.117188,2.406252 -0.744792,1.03125 -1.833335,1.747396 -1.088542,0.716147 -2.463543,1.17448 6.502608,2.205731 6.502608,8.794271 0,2.89324 -1.059896,5.09897 -1.031251,2.17708 -2.807294,3.66666 -1.747396,1.48959 -4.096356,2.23438 Q 74.179694,120 71.601568,120 q -2.721356,0 -4.812503,-0.63021 -2.062501,-0.6302 -3.638023,-1.89062 -1.546875,-1.28907 -2.692709,-3.17969 -1.117188,-1.89063 -1.919272,-4.38282 l 3.03646,-1.28906 q 1.203125,-0.48698 2.234376,-0.22917 1.059896,0.22917 1.489584,1.11719 0.515625,0.97396 1.088542,1.83334 0.572917,0.83073 1.289064,1.48958 0.744792,0.63021 1.690105,1.00261 0.945313,0.37239 2.177084,0.37239 1.51823,0 2.635418,-0.48698 1.145834,-0.51562 1.890626,-1.31771 0.744792,-0.83073 1.117188,-1.86198 0.372396,-1.03125 0.372396,-2.0625 0,-1.31771 -0.257812,-2.40625 -0.229167,-1.08854 -1.088542,-1.86198 -0.83073,-0.77344 -2.463543,-1.20313 -1.632814,-0.42968 -4.440107,-0.42968 v -4.898443 q 2.34896,-0.02865 3.838544,-0.429688 1.51823,-0.401042 2.377605,-1.117188 0.859376,-0.744792 1.17448,-1.747397 0.315104,-1.002605 0.315104,-2.234376 0,-2.606773 -1.317709,-3.924482 -1.289063,-1.317709 -3.638023,-1.317709 -2.091147,0 -3.494793,1.17448 -1.403647,1.17448 -1.947918,2.893231 -0.458333,1.317709 -1.231771,1.718751 -0.744792,0.401042 -2.148439,0.171875 l -3.638023,-0.630209 q 0.401042,-2.778647 1.51823,-4.841148 1.117188,-2.091147 2.807293,-3.466148 1.690105,-1.403647 3.838544,-2.091147 2.177085,-0.716146 4.669273,-0.716146 z M 112.50784,110.375 q 0.60156,0 1.03125,0.45833 l 3.00781,3.23698 q -2.0625,2.89323 -5.18489,4.41146 Q 108.26825,120 104.00002,120 q -3.86719,0 -6.960939,-1.43229 -3.093752,-1.46094 -5.270836,-4.03906 -2.148439,-2.60678 -3.322919,-6.15886 -1.145834,-3.58073 -1.145834,-7.82032 0,-4.26823 1.231772,-7.820315 1.260417,-3.580731 3.523439,-6.158858 2.263022,-2.578126 5.414066,-4.010419 3.151041,-1.432292 6.932291,-1.432292 3.83855,0 6.78907,1.375001 2.95052,1.346355 4.92709,3.580731 l -2.52084,3.523439 q -0.25781,0.315104 -0.60156,0.572917 -0.31511,0.257813 -0.91667,0.257813 -0.60156,0 -1.17448,-0.458334 -0.54427,-0.458333 -1.375,-1.002605 -0.80208,-0.544271 -2.03385,-1.002604 -1.23178,-0.458334 -3.15105,-0.458334 -2.09114,0 -3.8099,0.888021 -1.718747,0.859376 -2.950518,2.549481 -1.231772,1.661459 -1.919272,4.096356 -0.658854,2.406252 -0.658854,5.500002 0,3.1224 0.744792,5.5573 0.744792,2.43489 2.005209,4.125 1.289063,1.66146 3.007813,2.54948 1.71875,0.85937 3.69532,0.85937 1.17448,0 2.11979,-0.11458 0.94531,-0.14323 1.7474,-0.45833 0.83072,-0.34375 1.54687,-0.85938 0.71615,-0.51562 1.43229,-1.28906 0.28646,-0.22917 0.57292,-0.3724 0.3151,-0.17187 0.63021,-0.17187 z"
     id="text42914"
     style="font-weight:bold;font-size:58.6667px;line-height:125%;font-family:Carlito;-inkscape-font-specification:'Carlito Bold';text-align:center;letter-spacing:0px;word-spacing:0px;text-anchor:middle;fill:#ffffff;stroke-width:1px"
     aria-label="W3C" />
</svg>
