<?xml version="1.0" encoding="UTF-8" standalone="no"?>
<svg
   width="120.00002"
   height="120"
   version="1.1"
   viewBox="0 0 120.00002 120"
   id="svg12"
   xml:space="preserve"
   xmlns="http://www.w3.org/2000/svg"
   xmlns:svg="http://www.w3.org/2000/svg"><defs
     id="defs16" /><path
     style="opacity:1;fill:none;stroke:#005a9c;stroke-width:10.6665;stroke-linecap:round;stroke-dasharray:none"
     d="M 70.382491,57.352242 70.418974,57.392327 C 73.304828,60.459437 77.694558,61.798784 81.002236,61.798784 87.045879,61.798784 91.753198,57.306653 91.753198,57.306653 M 50.251508,15.838242 C 50.251508,15.838242 54.863633,11.353397 60.82384,11.353397 64.540657,11.353397 68.665286,12.536072 71.481852,15.719731 L 90.4916,37.208706 C 93.162657,40.227917 97.750068,41.620627 101.18063,41.620627 111.59937,41.620627 114.66677,37.559125 114.66677,32.54884 114.66677,27.538582 110.60519,23.477057 105.59487,23.477057 M 70.382491,57.352242 31.236298,15.750717 C 29.414234,13.814291 25.828714,11.353397 20.46706,11.353397 12.478742,11.353397 5.3426052,17.796902 5.3332586,26.487028 5.3285999,30.817578 6.707736,34.029 9.9220697,37.245189 L 30.065832,57.399648 C 33.280165,60.615789 36.567178,61.810165 40.645454,61.798784 46.643577,61.782016 48.662476,60.165125 51.345406,57.394146 M 99.179337,7.9903437 C 100.79431,6.3223809 103.08907,5.3332501 105.5942,5.3332501 110.60457,5.3332501 114.66621,9.3948825 114.66621,14.405133 114.66621,19.41007 110.59903,23.477057 105.5942,23.477057"
     id="path2-5" /><g
     aria-label="W3C"
     id="text42914"
     style="font-weight:bold;font-size:49.3333px;line-height:125%;font-family:Lato;-inkscape-font-specification:'Lato Bold';text-align:center;letter-spacing:0px;word-spacing:0px;text-anchor:middle;display:inline;fill:#002a56;stroke-width:1px"><path
       d="M 3.9573537,83.937354 H 9.5073501 Q 10.370683,83.937354 10.938016,84.356687 11.530016,84.751354 11.727349,85.44202 L 17.795345,106.77867 Q 17.992678,107.56801 18.165345,108.50534 18.362678,109.418 18.560011,110.454 18.757344,109.418 18.979344,108.50534 19.226011,107.56801 19.497344,106.77867 L 26.502673,85.44202 Q 26.700006,84.874687 27.267339,84.406021 27.859338,83.937354 28.698004,83.937354 H 30.64667 Q 31.510003,83.937354 32.052669,84.356687 32.595335,84.776021 32.866668,85.44202 L 39.847331,106.77867 Q 40.36533,108.30801 40.784663,110.306 41.10533,108.35734 41.499996,106.77867 L 47.567992,85.44202 Q 47.715992,84.825354 48.307992,84.381354 48.924658,83.937354 49.763324,83.937354 H 54.967988 L 43.892661,119.60533 H 37.898665 L 30.104004,95.23468 Q 29.931337,94.766014 29.783337,94.223348 29.635337,93.680681 29.487337,93.088682 29.364004,93.680681 29.191337,94.223348 29.043338,94.766014 28.895338,95.23468 L 21.026676,119.60533 H 15.008013 Z"
       id="path43355" /><path
       d="M 70.212009,83.542688 Q 72.678674,83.542688 74.652006,84.258021 76.650005,84.948687 78.056004,86.206686 79.462003,87.440019 80.202002,89.117351 80.966668,90.794683 80.966668,92.743349 80.966668,94.445348 80.572002,95.75268 80.202002,97.035346 79.462003,97.997345 78.74667,98.959345 77.686004,99.625344 76.650005,100.29134 75.318005,100.73534 78.52467,101.74668 80.103336,103.81867 81.682001,105.89067 81.682001,109.02334 81.682001,111.68734 80.695335,113.73467 79.708669,115.782 78.031337,117.188 76.354005,118.56933 74.134006,119.28466 71.938674,120 69.472009,120 66.783344,120 64.785345,119.38333 62.787347,118.76667 61.307348,117.558 59.827349,116.34933 58.791349,114.598 57.75535,112.84667 57.015351,110.55267 L 59.704015,109.44267 Q 60.764681,108.99867 61.677347,109.22067 62.61468,109.418 63.034013,110.20734 63.478013,111.07067 63.996013,111.90934 64.538679,112.748 65.278679,113.414 66.018678,114.05533 67.005344,114.47467 68.016677,114.86933 69.398009,114.86933 70.952008,114.86933 72.111341,114.376 73.270673,113.858 74.03534,113.044 74.824672,112.23 75.194672,111.24334 75.589339,110.232 75.589339,109.22067 75.589339,107.93801 75.318005,106.90201 75.046672,105.84134 74.183339,105.10134 73.320007,104.36134 71.692008,103.94201 70.088675,103.52268 67.375344,103.52268 V 99.181345 Q 69.620009,99.156678 71.100008,98.762012 72.580007,98.367345 73.44334,97.676679 74.331339,96.961346 74.676672,95.97468 75.022006,94.988014 75.022006,93.804015 75.022006,91.288016 73.616006,89.980684 72.210007,88.673351 69.866676,88.673351 68.781343,88.673351 67.868677,88.994018 66.956011,89.290018 66.216011,89.857351 65.500678,90.400017 65.007345,91.140016 64.514012,91.880016 64.267346,92.768015 63.848013,93.902681 63.157347,94.272681 62.491347,94.642681 61.258014,94.445348 L 58.05135,93.878015 Q 58.42135,91.312683 59.482016,89.388684 60.542682,87.440019 62.121347,86.157353 63.72468,84.85002 65.772012,84.208688 67.84401,83.542688 70.212009,83.542688 Z"
       id="path43357" /><path
       d="M 112.46598,111.194 Q 113.00865,111.194 113.42798,111.61334 L 116.04265,114.45 Q 113.87198,117.13867 110.68998,118.56933 107.53265,120 103.09265,120 99.121324,120 95.939326,118.64333 92.781995,117.28667 90.53733,114.86933 88.292664,112.452 87.083998,109.09734 85.899999,105.74267 85.899999,101.77134 85.899999,97.750679 87.182665,94.420681 88.465331,91.066016 90.783996,88.648685 93.127328,86.231353 96.358659,84.899354 99.58999,83.542688 103.51199,83.542688 107.40932,83.542688 110.41865,84.825354 113.45265,86.10802 115.57398,88.180018 L 113.35398,91.26335 Q 113.15665,91.559349 112.83598,91.781349 112.53998,92.003349 111.99732,92.003349 111.62732,92.003349 111.23265,91.806016 110.83798,91.584016 110.36932,91.288016 109.90065,90.96735 109.28398,90.59735 108.66732,90.22735 107.85332,89.931351 107.03932,89.610684 105.95399,89.413351 104.89332,89.191351 103.48732,89.191351 101.09466,89.191351 99.096657,90.054684 97.123325,90.89335 95.69266,92.521349 94.261994,94.124681 93.472661,96.468013 92.683328,98.786678 92.683328,101.77134 92.683328,104.78067 93.521994,107.12401 94.385327,109.46734 95.84066,111.07067 97.295992,112.674 99.269324,113.53734 101.24266,114.376 103.51199,114.376 104.86865,114.376 105.95399,114.228 107.06399,114.08 107.97665,113.75934 108.91398,113.43867 109.72798,112.94534 110.56665,112.42734 111.38065,111.68734 111.62732,111.46534 111.89865,111.342 112.16998,111.194 112.46598,111.194 Z"
       id="path43359" /></g></svg>
