<?xml version="1.0" encoding="UTF-8" standalone="no"?>
<svg
   width="120"
   height="120"
   version="1.1"
   viewBox="0 0 120 120"
   id="svg98"
   xml:space="preserve"
   xmlns="http://www.w3.org/2000/svg"
   xmlns:svg="http://www.w3.org/2000/svg"><defs
     id="defs102" /><g
     aria-label="WORLD WIDE WEB CONSORTIUM"
     transform="matrix(0.53507716,0,0,0.53507716,-33.685384,-35.425725)"
     id="g96"><path
       id="polygon4"
       style="fill:#002a56"
       d="M 76.496,231.74861 77.95831,234.83638 88.22917,225.64945 86.99337,223.03725 78.15184,224.21578 84.65021,218.09058 83.41441,215.48012 69.87874,217.77468 71.12408,220.4025 79.6341,218.87684 73.18433,224.75384 74.48435,227.49968 83.08289,226.16321 Z" /><path
       d="M 75.67676,213.94925 C 79.72956,212.79503 81.43053,209.18655 80.33011,205.31773 79.22622,201.44891 75.6785,199.33485 71.82703,200.43354 67.77596,201.58776 66.07413,205.1945 67.17629,209.06332 68.32965,213.11612 71.99019,215.00107 75.67676,213.94925 Z M 69.9013,208.28921 C 69.31724,206.23417 70.38295,204.18434 72.70702,203.52131 74.85058,202.91035 76.91603,203.67752 77.60423,206.09358 78.18308,208.12779 76.97852,210.24011 74.79851,210.86148 72.4727,211.52451 70.50098,210.39632 69.9013,208.28921 Z"
       style="fill:#002a56"
       id="path6" /><path
       d="M 77.50964,193.67829 72.93179,194.32396 72.77645,193.22181 76.90823,189.39812 76.39534,185.77403 71.77497,190.31282 C 71.32022,189.65326 70.11913,188.29596 67.69092,188.63963 65.27833,188.97982 63.68324,190.50027 64.18485,194.06883 64.23692,194.44374 64.74721,197.78318 64.84961,198.51216 L 77.9314,196.66887 77.50963,193.6783 Z M 67.23096,195.12585 C 67.12508,194.51316 67.07301,194.27363 67.00966,193.82236 66.80745,192.38522 67.44531,191.91312 68.17517,191.81071 69.27732,191.65623 69.81538,192.49457 69.9768,193.63491 L 70.12954,194.71797 Z"
       style="fill:#002a56"
       id="path8" /><path
       id="polygon10"
       style="fill:#002a56"
       d="M 63.23544,184.82461 76.44133,184.45317 76.20701,176.05771 73.37699,176.13755 73.528,181.51467 63.15212,181.80453 Z" /><path
       d="M 76.26689,174.23872 C 76.38318,172.98035 76.57931,171.25336 76.64353,170.55735 77.10696,165.53777 74.29516,162.73639 70.61119,162.39967 67.11467,162.0751 63.88978,163.92012 63.40553,169.18269 63.32569,170.04706 63.16687,172.38328 63.10265,173.07928 L 63.07922,173.3431 76.23738,174.55807 76.26689,174.23871 Z M 73.83348,170.20327 C 73.79356,170.63545 73.76926,170.89928 73.69463,171.2898 L 66.17568,170.59553 C 66.15312,170.21542 66.19217,169.80059 66.22254,169.48123 66.44731,167.0374 67.89052,165.37115 70.31613,165.59332 72.81637,165.8259 74.073,167.60844 73.83348,170.20328 Z"
       style="fill:#002a56"
       id="path12" /><path
       id="polygon14"
       style="fill:#002a56"
       d="M 66.05851,152.10191 65.07872,155.37366 78.85739,155.41531 79.68444,152.65038 72.32517,147.61345 81.25089,147.40517 82.0788,144.64023 70.48536,137.29138 69.65223,140.07541 76.99761,144.63503 68.27497,144.6871 67.40453,147.59956 74.69003,152.35705 Z" /><path
       id="rect16"
       style="fill:#002a56"
       transform="rotate(-66.18191,78.697921,135.8039)"
       d="M 77.186913,129.19633 H 80.208933 V 142.41146 H 77.186913 Z" /><path
       d="M 86.77641,133.85995 C 87.40299,132.75953 88.29252,131.26859 88.63879,130.6611 91.12688,126.27852 89.71664,122.56938 86.4987,120.74171 83.44651,119.00951 79.75126,119.36185 77.14167,123.95792 76.71122,124.71294 75.6056,126.77666 75.26106,127.38241 L 75.13088,127.61325 86.61932,134.13766 86.7764,133.85995 Z M 85.64996,130.11436 79.0839,126.38439 C 79.21928,126.03031 79.42583,125.66756 79.58377,125.38985 80.79701,123.2567 82.79824,122.32985 84.9149,123.53441 87.09838,124.77368 87.50713,126.91724 86.221,129.1823 86.00751,129.55894 85.87734,129.78805 85.64996,130.11436 Z"
       style="fill:#002a56"
       id="path18" /><path
       id="polygon20"
       style="fill:#002a56"
       d="M 82.96921,114.54708 93.58373,122.4149 98.36205,115.9686 96.08658,114.28326 93.10816,118.30135 91.18329,116.87462 93.71044,113.46228 91.4367,111.77521 88.90609,115.18928 87.04197,113.80595 89.90757,109.93712 87.63297,108.25178 Z" /><path
       id="polygon22"
       style="fill:#002a56"
       d="M 94.37,100.47422 91.86889,102.80002 103.72355,109.8191 105.83761,107.85431 102.04776,99.78168 109.84876,104.12955 111.96368,102.1613 105.69355,89.95429 103.56474,91.93122 107.5837,99.58555 100.04045,95.20818 97.81358,97.2771 101.68066,105.07029 Z" /><path
       id="polygon24"
       style="fill:#002a56"
       d="M 108.40641,88.29324 115.90627,99.1794 122.51398,94.62673 120.90675,92.29224 116.78539,95.13181 115.42375,93.15834 118.92287,90.74749 117.31737,88.41474 113.81911,90.82559 112.50087,88.91462 116.46602,86.18093 114.85878,83.84991 Z" /><path
       d="M 127.99525,91.62227 C 130.52413,90.26324 131.80332,88.09711 130.48942,85.65328 129.68407,84.15539 128.41442,83.74577 127.39645,83.88463 L 127.37823,83.85165 C 127.93972,82.82239 127.96662,81.75669 127.31488,80.54172 126.44704,78.93101 124.62892,78.25757 121.85271,79.75025 120.5874,80.43064 119.01054,81.36443 118.38049,81.74454 L 124.60029,93.31803 C 125.31712,93.01776 126.8827,92.21935 127.99527,91.62227 Z M 127.75659,86.94809 C 128.17749,87.73088 127.90325,88.45639 126.8714,89.01007 126.37239,89.2791 126.13027,89.34506 125.92025,89.39365 L 124.74954,87.21538 125.78053,86.6617 C 126.6449,86.19654 127.36347,86.21737 127.7566,86.94809 Z M 123.49724,84.88785 122.36298,82.77727 C 122.64416,82.58287 122.82554,82.44228 123.15792,82.26351 123.80706,81.9129 124.62804,81.92332 125.00294,82.62106 125.45855,83.46981 125.06195,84.04779 124.37983,84.41401 Z"
       style="fill:#002a56"
       id="path26" /><path
       d="M 143.64063,84.95033 C 145.32944,84.35326 146.73534,83.17473 147.18488,82.07258 L 145.34333,80.32302 C 144.7289,81.24293 143.85065,81.87298 142.96198,82.19061 140.72122,82.98208 138.63668,81.95977 137.85389,79.75372 136.98432,77.29947 138.08126,75.42842 140.00439,74.74803 141.17944,74.33147 141.99868,74.44255 142.81966,74.61091 L 143.32474,72.02822 C 142.31978,71.56306 140.71255,71.49363 139.05845,72.08029 134.77133,73.59901 133.5633,77.25087 134.83034,80.82636 136.20673,84.70386 139.78222,86.31978 143.64063,84.95033 Z"
       style="fill:#002a56"
       id="path28" /><path
       d="M 154.64482,81.94935 C 158.57786,81.11102 160.92623,77.71604 160.09137,73.80035 159.21485,69.68159 155.73135,67.73937 151.79831,68.5777 147.67955,69.45422 145.55335,72.97417 146.35002,76.72496 147.22827,80.84372 150.71004,82.78594 154.64482,81.94935 Z M 152.38844,71.3461 C 154.47646,70.90177 156.44992,72.10459 156.95327,74.46858 157.4167,76.64859 156.51067,78.65503 154.05469,79.17747 151.98576,79.61833 149.96197,78.27318 149.4916,76.05672 148.98825,73.69273 150.24488,71.80258 152.38844,71.34609 Z"
       style="fill:#002a56"
       id="path30" /><path
       id="polygon32"
       style="fill:#002a56"
       d="M 171.34029,66.37512 171.81587,74.33146 165.08144,66.74829 162.66885,66.89236 163.45685,80.08697 166.28253,79.92034 165.81043,72.00219 172.54138,79.54544 174.95397,79.40311 174.16771,66.20676 Z" /><path
       d="M 181.67103,77.17103 C 180.74765,77.10855 179.6264,76.60173 178.9356,75.59156 L 177.08884,77.53378 C 177.63558,78.98828 179.64028,79.87521 181.41067,79.98976 183.95517,80.15465 186.03451,78.70189 186.18378,76.40385 186.46322,72.10805 180.92815,72.27815 181.07048,70.09293 181.10866,69.49065 181.62243,69.14525 182.45208,69.20079 183.431,69.26154 183.84409,69.63124 184.39083,70.21442 L 186.15775,68.05871 C 185.38711,67.11971 184.06626,66.46709 182.37224,66.35601 179.73401,66.18591 177.99834,67.85043 177.86816,69.88464 177.59219,74.14225 183.10817,74.25507 182.97973,76.23201 182.93981,76.85512 182.46076,77.22135 181.67103,77.17101 Z"
       style="fill:#002a56"
       id="path34" /><path
       d="M 193.87631,81.60048 C 197.82497,82.37459 201.31542,80.16855 202.08432,76.23898 202.89141,72.10634 200.45105,68.95435 196.50065,68.18197 192.36801,67.37141 189.0303,69.78053 188.29437,73.54174 187.48554,77.67612 189.92938,80.82811 193.8763,81.60048 Z M 191.44463,74.15963 C 191.90979,71.78696 193.80689,70.54075 195.95739,70.96251 198.05235,71.37213 199.3975,73.25187 198.93407,75.62454 198.50709,77.80976 196.88597,79.30417 194.42131,78.81992 192.34544,78.41377 191.01071,76.38303 191.44463,74.15963 Z"
       style="fill:#002a56"
       id="path36" /><path
       d="M 207.08654,80.01233 208.1401,80.37161 209.67444,85.79386 213.13885,86.98453 211.18969,80.80379 C 211.98637,80.69618 213.7394,80.2397 214.53781,77.91736 215.32928,75.61238 214.69749,73.49833 211.28515,72.32501 210.9276,72.20351 207.71834,71.14128 207.02059,70.90176 L 202.72479,83.40557 205.58345,84.38796 207.08655,80.01232 Z M 208.95934,74.56404 C 209.55468,74.74802 209.7942,74.81051 210.22118,74.9563 211.59757,75.4284 211.72775,76.21293 211.48822,76.91067 211.12546,77.96423 210.13266,78.06142 209.04439,77.68825 L 208.00819,77.33244 Z"
       style="fill:#002a56"
       id="path38" /><path
       id="polygon40"
       style="fill:#002a56"
       d="M 218.04213,74.781 216.82889,77.3446 220.41827,79.03862 215.97494,88.43557 218.70863,89.72691 223.15022,80.3317 226.73787,82.02745 227.94763,79.46386 Z" /><path
       id="rect42"
       style="fill:#002a56"
       transform="rotate(-59.6634,228.40803,87.451006)"
       d="M 221.80032,85.941299 H 235.0157 V 88.960709 H 221.80032 Z" /><path
       d="M 233.55734,99.00063 C 235.84496,100.67382 238.88587,100.86475 241.27068,97.60341 L 245.8546,91.34456 243.41597,89.56028 239.19133,95.33314 C 237.94164,97.03931 236.70931,97.7978 235.23052,96.71647 233.52609,95.46678 233.94612,93.83525 235.16283,92.17421 L 239.29027,86.53847 236.85164,84.75419 232.34756,90.90716 C 230.06167,94.03138 230.81669,96.99418 233.55733,99.00062 Z"
       style="fill:#002a56"
       id="path44" /><path
       id="polygon46"
       style="fill:#002a56"
       d="M 251.67085,96.52035 249.52556,94.36464 240.15985,103.69563 242.29126,105.83399 248.21859,99.93095 247.19107,106.12558 247.49829,106.43453 253.75019,105.40354 247.7812,111.34823 249.91435,113.49005 259.28179,104.16079 257.26841,102.14047 250.60168,103.33982 Z" /><path
       id="polygon48"
       style="fill:#002a56"
       d="M 273.7851,125.11735 272.32887,122.02611 262.04152,131.19221 263.27211,133.80441 272.11365,132.64498 265.60486,138.75629 266.83546,141.37022 280.372,139.10343 279.13446,136.47214 270.62097,137.97871 277.08289,132.11907 275.78807,129.36802 267.1878,130.68887 Z" /><path
       d="M 274.56269,142.9115 C 270.51336,144.06052 268.80719,147.66205 269.90587,151.52913 271.00282,155.39795 274.5436,157.51201 278.39333,156.42027 282.4444,155.27125 284.14883,151.66799 283.05188,147.8009 281.9046,143.75157 278.24926,141.86662 274.56269,142.9115 Z M 280.3286,148.57328 C 280.91005,150.62485 279.84435,152.67468 277.51854,153.33424 275.37672,153.94173 273.31473,153.17282 272.62914,150.75676 272.0529,148.72255 273.25919,146.61544 275.43746,145.99754 277.76153,145.33798 279.72979,146.46617 280.3286,148.57328 Z"
       style="fill:#002a56"
       id="path50" /><path
       d="M 272.70899,163.22238 277.29118,162.58712 277.44392,163.69101 273.3026,167.50603 273.80768,171.13359 278.4402,166.60348 C 278.89321,167.26304 280.09256,168.62207 282.52425,168.28535 284.93684,167.94863 286.53713,166.42991 286.04073,162.85789 285.9904,162.48472 285.48531,159.14181 285.38638,158.41282 L 272.29244,160.23007 272.709,163.22238 Z M 282.9946,161.79392 C 283.10048,162.40835 283.15255,162.64961 283.21503,163.09741 283.4129,164.53802 282.77417,165.00665 282.04518,165.11079 280.94129,165.26353 280.4067,164.42346 280.24702,163.28139 L 280.09775,162.19659 282.99459,161.79391 Z"
       style="fill:#002a56"
       id="path52" /><path
       id="polygon54"
       style="fill:#002a56"
       d="M 286.95715,172.11946 273.74866,172.44924 273.95694,180.8447 276.78956,180.77528 276.65591,175.39642 287.03352,175.13954 Z" /><path
       d="M 273.93437,182.34606 273.90313,182.66542 C 273.78337,183.92552 273.58029,185.65078 273.5126,186.34852 273.03529,191.3681 275.83841,194.17989 279.52498,194.5305 283.02237,194.86549 286.25246,193.02914 286.75581,187.76483 286.83739,186.90046 287.00401,184.56251 287.06997,183.86824 L 287.09601,183.60442 273.93438,182.34605 Z M 283.93707,187.45763 C 283.70449,189.9032 282.2552,191.56598 279.83046,191.33339 277.32935,191.09387 276.07619,189.30612 276.32439,186.71302 276.36605,186.2791 276.39035,186.01528 276.46672,185.62302 L 283.98567,186.34333 C 284.0065,186.72344 283.96831,187.13653 283.93707,187.45763 Z"
       style="fill:#002a56"
       id="path56" /><path
       id="polygon58"
       style="fill:#002a56"
       d="M 284.06899,204.8491 285.05832,201.57562 271.26664,201.49404 270.43004,204.26071 277.78237,209.32541 268.84363,209.50592 268.00704,212.27433 279.59268,219.66484 280.43274,216.87908 273.09431,212.29168 281.82823,212.26565 282.70648,209.35492 275.42879,204.56792 Z" /><path
       id="rect60"
       style="fill:#002a56"
       transform="rotate(-66.09787,271.40029,221.06336)"
       d="M 269.88968,214.45547 H 272.9109 V 227.67124 H 269.88968 Z" /><path
       d="M 263.30162,223.03031 C 262.67504,224.12899 261.7829,225.6182 261.43577,226.22743 258.93987,230.60481 260.34577,234.31742 263.56024,236.14855 266.60982,237.8877 270.30855,237.54056 272.92421,232.94796 273.35292,232.19121 274.46375,230.13096 274.80915,229.52347 L 274.9428,229.29263 263.45957,222.75087 Z M 264.4246,226.7759 270.98546,230.51455 C 270.84661,230.8721 270.64006,231.23312 270.48211,231.51256 269.26714,233.64397 267.26417,234.56735 265.14838,233.36106 262.96664,232.11832 262.56049,229.97302 263.85009,227.7097 264.06531,227.33306 264.19549,227.10221 264.4246,226.77591 Z"
       style="fill:#002a56"
       id="path62" /><path
       id="polygon64"
       style="fill:#002a56"
       d="M 267.08887,242.32062 256.48562,234.41982 251.68821,240.85571 253.95848,242.54799 256.95078,238.53511 258.87565,239.97051 256.33462,243.37591 258.60662,245.06993 261.14765,241.66106 263.01003,243.05134 260.13054,246.91495 262.40254,248.60724 Z" /><path
       id="polygon66"
       style="fill:#002a56"
       d="M 255.64555,256.38827 258.15187,254.0642 246.29894,247.02603 244.17968,248.98908 247.96171,257.07039 240.16332,252.71211 238.04406,254.6769 244.29944,266.90126 246.43258,264.92433 242.42144,257.26132 249.96642,261.65084 252.19503,259.58365 248.33488,251.78005 Z" /><path
       id="polygon68"
       style="fill:#002a56"
       d="M 241.56922,268.52759 234.0954,257.63449 227.48074,262.17154 229.08276,264.50603 233.20673,261.67688 234.56229,263.65381 231.06144,266.05772 232.66346,268.39047 236.16432,265.9883 237.47997,267.90275 233.51047,270.62602 235.1125,272.95877 Z" /><path
       d="M 221.99079,265.16385 C 219.46191,266.51594 218.17751,268.68033 219.48621,271.1259 220.28636,272.62205 221.55687,273.03688 222.57571,272.89803 L 222.59307,272.93101 C 222.03071,273.96027 221.99947,275.02597 222.65035,276.23921 223.51298,277.85339 225.33197,278.5303 228.11079,277.04283 229.3761,276.36765 230.95383,275.43733 231.58561,275.05548 L 225.38925,263.47331 C 224.67068,263.77358 223.1051,264.56679 221.9908,265.16386 Z M 222.2199,269.83455 C 221.80334,269.05176 222.07757,268.32798 223.1103,267.77604 223.60844,267.50701 223.85143,267.44279 224.06319,267.39419 L 225.22783,269.5742 224.19684,270.12615 C 223.33074,270.58784 222.61217,270.56701 222.2199,269.83456 Z M 226.47404,271.90348 227.60397,274.01753 C 227.32279,274.21193 227.14054,274.35252 226.80903,274.52782 226.15989,274.87496 225.33891,274.86628 224.96574,274.1668 224.51273,273.31805 224.90846,272.74007 225.59405,272.37558 Z"
       style="fill:#002a56"
       id="path70" /><path
       d="M 206.3645,271.78545 C 204.67395,272.37905 203.26632,273.55584 202.81504,274.65626 L 204.65139,276.40929 C 205.26929,275.49285 206.14754,274.8628 207.03968,274.55038 209.28217,273.75891 211.36498,274.78643 212.14257,276.99421 213.00694,279.45019 211.90305,281.32125 209.97992,281.99816 208.8066,282.40952 207.98736,282.30017 207.16812,282.12834 L 206.65436,284.70929 C 207.65932,285.17619 209.26482,285.25082 210.92065,284.66763 215.21298,283.15586 216.42795,279.50573 215.16785,275.9285 213.80187,272.04753 210.22985,270.42467 206.3645,271.78544 Z"
       style="fill:#002a56"
       id="path72" /><path
       d="M 195.31692,274.77776 C 191.38041,275.60741 189.02683,279.00066 189.85128,282.91808 190.72085,287.04031 194.20088,288.99121 198.13913,288.15982 202.25963,287.29198 204.39451,283.77377 203.60304,280.0195 202.7352,275.899 199.25517,273.94984 195.31692,274.77776 Z M 197.55421,285.38795 C 195.46619,285.82708 193.49099,284.62252 192.99459,282.25679 192.53464,280.07505 193.44239,278.0686 195.90185,277.55137 197.97251,277.11398 199.99284,278.46434 200.46147,280.68253 200.95961,283.04826 199.69777,284.93494 197.55421,285.38795 Z"
       style="fill:#002a56"
       id="path74" /><path
       id="polygon76"
       style="fill:#002a56"
       d="M 183.71566,276.77726 184.17735,284.69194 177.46028,277.14522 175.04943,277.28408 175.81833,290.47348 178.64575,290.30859 178.18059,282.35919 184.89939,289.94236 187.31198,289.80177 186.54134,276.61411 Z" /><path
       d="M 168.27856,279.4988 C 169.20194,279.55955 170.32319,280.07157 171.01399,281.08347 L 172.86596,279.14298 C 172.31922,277.68501 170.31452,276.79461 168.54239,276.67658 165.99789,276.50475 163.91334,277.95751 163.7606,280.25728 163.47421,284.55655 169.01449,284.3934 168.86696,286.58208 168.82704,287.18436 168.31154,287.52976 167.48015,287.47422 166.50296,287.40826 166.08987,287.0403 165.54314,286.45538 L 163.77101,288.60762 C 164.54165,289.55009 165.86076,290.20618 167.55652,290.32073 170.19475,290.4943 171.93563,288.83326 172.07275,286.79731 172.3574,282.53623 166.83448,282.41299 166.96639,280.43259 167.00805,279.81122 167.48536,279.44673 168.27856,279.4988 Z"
       style="fill:#002a56"
       id="path78" /><path
       d="M 156.08023,275.03985 C 152.13504,274.264 148.64112,276.4631 147.86701,280.3892 147.05298,284.52011 149.4916,287.67383 153.43853,288.45142 157.5677,289.26719 160.90888,286.86501 161.65001,283.10554 162.46578,278.97463 160.02715,275.81744 156.08023,275.03985 Z M 158.50149,282.48416 C 158.03459,284.85509 156.13403,286.09784 153.98526,285.67433 151.89203,285.26124 150.55036,283.3815 151.01725,281.01057 151.4477,278.82362 153.06882,277.33441 155.53174,277.81866 157.60761,278.22828 158.93887,280.26076 158.50148,282.48416 Z"
       style="fill:#002a56"
       id="path80" /><path
       d="M 142.8995,276.59675 141.84594,276.23052 140.32722,270.80653 136.86628,269.60718 138.79809,275.79487 C 138.00315,275.89901 136.24838,276.35029 135.44303,278.66741 134.64462,280.97065 135.2712,283.08644 138.67833,284.26844 139.03588,284.39167 142.24167,285.46259 142.93768,285.70384 L 147.26993,273.21565 144.41301,272.22458 Z M 141.01109,282.03983 C 140.41575,281.85238 140.17797,281.78989 139.75099,281.64062 138.3746,281.16331 138.24789,280.38052 138.48915,279.68625 138.85364,278.63096 139.84471,278.53723 140.93472,278.91387 L 141.97092,279.27315 141.01109,282.03982 Z"
       style="fill:#002a56"
       id="path82" /><path
       id="polygon84"
       style="fill:#002a56"
       d="M 123.20825,274.52262 121.99155,277.08274 131.8849,281.79336 133.10508,279.23498 129.52091,277.52881 133.98854,268.14401 131.25832,266.84398 126.79156,276.22879 Z" /><path
       id="rect86"
       style="fill:#002a56"
       transform="rotate(-59.57622,121.59778,269.12728)"
       d="M 114.98873,267.61658 H 128.20681 V 270.63794 H 114.98873 Z" /><path
       d="M 116.43738,257.53555 C 114.15497,255.85715 111.11233,255.65755 108.71536,258.91368 L 104.11061,265.16385 106.54576,266.9568 110.79036,261.19088 C 112.04439,259.48818 113.28192,258.73316 114.75725,259.8197 116.46168,261.07459 116.03297,262.70613 114.81279,264.3637 L 110.66626,269.99423 113.10141,271.78545 117.62632,265.63942 C 119.92349,262.52041 119.17454,259.55414 116.43738,257.53555 Z"
       style="fill:#002a56"
       id="path88" /><path
       id="polygon90"
       style="fill:#002a56"
       d="M 98.33602,259.98459 100.4761,262.1403 109.85396,252.83534 107.72602,250.69178 101.79261,256.58093 102.82968,250.39325 102.52507,250.08603 96.27577,251.09967 102.24997,245.17407 100.12203,243.03051 90.74764,252.33547 92.75408,254.35753 99.41734,253.16859 Z" /><path
       d="M 87.92109,237.367 C 86.39196,237.367 85.10843,238.64966 85.10843,240.19789 85.10843,241.72702 86.39196,243.03051 87.92109,243.03051 89.46845,243.03051 90.77107,241.72702 90.77107,240.19789 90.77107,238.64967 89.46845,237.367 87.92109,237.367 Z"
       style="fill:#002a56"
       id="path92" /><path
       d="M 258.08526,117.06175 C 258.08526,118.59088 259.36879,119.89437 260.89792,119.89437 262.44528,119.89437 263.7479,118.59088 263.7479,117.06175 263.7479,115.51353 262.44528,114.23086 260.89792,114.23086 259.36879,114.23086 258.08526,115.51352 258.08526,117.06175 Z"
       style="fill:#002a56"
       id="path94" /></g><path
     style="opacity:1;fill:none;stroke:#005a9c;stroke-width:7.10675;stroke-linecap:round;stroke-dasharray:none"
     d="M 66.917523,75.847996 66.941833,75.874702 C 68.864585,77.918223 71.789326,78.810585 73.993129,78.810585 78.019814,78.810585 81.156153,75.81762 81.156153,75.81762 M 53.504886,48.188523 C 53.504886,48.188523 56.5778,45.200408 60.548899,45.200408 63.025294,45.200408 65.773406,45.98839 67.649995,48.10956 L 80.31559,62.42699 C 82.095236,64.438595 85.151678,65.366516 87.43735,65.366516 94.379036,65.366516 96.42274,62.660462 96.42274,59.322265 96.42274,55.984089 93.716641,53.278022 90.378423,53.278022 M 66.917523,75.847996 40.835648,48.130203 C 39.621664,46.840024 37.232744,45.200408 33.66044,45.200408 28.338077,45.200408 23.583493,49.493515 23.577266,55.28347 23.574162,58.168779 24.493037,60.308451 26.634645,62.451297 L 40.0558,75.87958 C 42.197411,78.022393 44.387448,78.818167 47.104672,78.810585 51.101035,78.799415 52.446165,77.722129 54.233715,75.875916 M 86.103961,42.959712 C 87.179966,41.8484 88.708886,41.189376 90.37798,41.189376 93.716225,41.189376 96.422364,43.89551 96.422364,47.233688 96.422364,50.568318 93.712537,53.278022 90.37798,53.278022"
     id="path2-7" /></svg>
