<?xml version="1.0" encoding="UTF-8" standalone="no"?>
<svg
   id="Layer_1"
   width="4.9993477in"
   height="3.5380001in"
   version="1.1"
   viewBox="0 0 359.95312 254.73607"
   sodipodi:docname="w3c-symbol.svg"
   inkscape:version="1.2.2 (b0a8486541, 2022-12-01)"
   xmlns:inkscape="http://www.inkscape.org/namespaces/inkscape"
   xmlns:sodipodi="http://sodipodi.sourceforge.net/DTD/sodipodi-0.dtd"
   xmlns="http://www.w3.org/2000/svg"
   xmlns:svg="http://www.w3.org/2000/svg">
  <sodipodi:namedview
     id="namedview8"
     pagecolor="#ffffff"
     bordercolor="#000000"
     borderopacity="0.25"
     inkscape:showpageshadow="2"
     inkscape:pageopacity="0.0"
     inkscape:pagecheckerboard="0"
     inkscape:deskcolor="#d1d1d1"
     inkscape:document-units="in"
     showgrid="false"
     inkscape:zoom="3.0237186"
     inkscape:cx="240.10171"
     inkscape:cy="169.82401"
     inkscape:window-width="2560"
     inkscape:window-height="1382"
     inkscape:window-x="0"
     inkscape:window-y="0"
     inkscape:window-maximized="1"
     inkscape:current-layer="Layer_1" />
  <defs
     id="defs1" />
  <g
     id="g1"
     transform="matrix(0.69851256,0,0,0.69851256,55.375623,54.664583)"
     style="fill:#005a9c">
    <path
       d="m 311.26463,153.86283 c -6.78775,-5.3879 -16.69773,-4.24219 -22.08563,2.54556 -6.67354,8.41401 -12.73503,13.47859 -19.64503,16.42629 -12.74387,5.42288 -23.54621,3.13108 -33.98983,-7.21603 -10.2337,-10.13759 -20.20481,-21.18443 -29.87873,-31.89065 -4.732,-5.2391 -9.47245,-10.48705 -14.27443,-15.67388 -8.2045,-8.86039 -16.45243,-17.68579 -24.69191,-26.52005 L 165.9728,90.75552 C 148.05095,71.57416 129.52548,51.7365 111.65591,31.81158 97.48644,16.0062 75.59344,8.17771 54.53126,11.34417 33.00543,14.56292 15.59952,28.33909 5.51461,50.12713 c -9.71735,20.98336 -6.42864,44.82675 8.57165,62.2238 26.38895,30.605 48.64951,55.90897 74.72318,79.70893 10.66239,9.7262 23.5639,14.90418 37.30468,14.97415 8.91307,0.0438 22.34782,-0.96192 36.05402,-10.18987 6.00036,-4.04072 11.58932,-8.19565 14.04722,-14.53702 2.50172,-6.48976 0.16608,-13.9507 -5.69393,-18.15791 -5.68548,-4.0934 -13.14642,-3.80507 -18.5693,0.69973 -0.68243,0.56823 -1.42599,1.22452 -2.23913,1.9331 -8.51937,7.46094 -19.12064,16.74961 -40.73375,1.23297 C 89.17698,153.79286 73.84412,135.15359 56.07951,113.56702 50.28907,106.53436 44.29756,99.25721 37.89506,91.82241 31.05503,83.88936 29.57676,72.97362 34.03772,63.32584 37.93005,54.92912 45.44327,44.4855 59.1933,42.43015 c 10.41708,-1.56594 22.09407,2.59743 29.0652,10.3648 18.01837,20.09985 36.68378,40.09474 54.73673,59.41605 8.45825,9.05302 16.9161,18.11448 25.33051,27.20248 4.71471,5.09071 9.36789,10.24215 14.09105,15.47281 9.91883,10.97726 20.16982,22.32169 30.9983,33.05405 19.54892,19.37358 43.84713,24.28052 68.45177,13.81076 11.81694,-5.04688 21.97182,-13.24253 31.94293,-25.81147 5.37905,-6.7785 4.24219,-16.68004 -2.54516,-22.07678 z"
       id="path1" />
    <path
       d="m 335.85922,66.54819 c 10.16373,-4.81967 18.15831,-13.88998 18.91916,-24.89338 1.9331,-19.10254 -13.79346,-37.3831 -36.92868,-40.20855 -14.20445,-1.8016 -27.38586,2.40561 -36.72721,10.14644 -4.9942,4.15453 -6.34137,11.84308 -2.01192,17.26596 4.732,5.64165 10.18987,6.62971 19.12064,1.72318 3.20105,-1.81929 8.01187,-3.33255 13.30366,-2.96539 9.97995,0.69128 12.83999,9.68277 12.5601,13.76732 -0.0438,0.60361 0.0177,14.52818 -14.03837,13.55741 l -5.30063,-0.36716 c -5.90384,-0.40254 -11.80809,5.11685 -12.24522,11.43169 -0.47252,6.71778 4.44326,12.58664 10.55703,13.01532 l 6.51631,0.44598 c 17.9311,1.24222 16.05913,16.46127 15.68313,18.89302 -0.34986,6.99727 -11.58088,18.86648 -31.61076,5.3702 -6.7962,-4.57436 -55.27037,-65.46024 -55.27037,-65.46024 -22.96873,-29.69496 -61.99659,-34.92561 -92.79382,-12.429 -3.38483,2.47518 -5.61551,6.12261 -6.26255,10.27754 -0.6386,4.14568 0.36716,8.30061 2.84274,11.68544 2.47518,3.38483 6.12261,5.61551 10.26869,6.26255 4.17182,0.64745 8.30905,-0.36716 11.69428,-2.84274 21.0095,-15.35015 39.73603,-6.20143 49.36612,6.25411 0,0 52.04318,66.93851 65.44295,74.03189 8.69431,4.6009 17.77346,7.25987 27.00101,7.89847 28.32204,1.95923 45.57031,-13.64507 50.22389,-35.02173 3.05226,-14.01223 -6.00921,-31.52309 -20.31017,-37.83833 z"
       id="path2" />
  </g>
</svg>
